<?xml version="1.0" encoding="utf-8"?>
<!-- Generator: Adobe Illustrator 15.1.0, SVG Export Plug-In . SVG Version: 6.00 Build 0)  -->
<!DOCTYPE svg PUBLIC "-//W3C//DTD SVG 1.1//EN" "http://www.w3.org/Graphics/SVG/1.1/DTD/svg11.dtd">
<svg version="1.1" id="Layer_1" xmlns="http://www.w3.org/2000/svg" xmlns:xlink="http://www.w3.org/1999/xlink" x="0px" y="0px"
	 width="87.318px" height="83.411px" viewBox="0 0 87.318 83.411" enable-background="new 0 0 87.318 83.411" xml:space="preserve">
<rect x="0" opacity="0" fill="#FFFFFF" stroke="#000000" stroke-miterlimit="10" width="87.318" height="83.338"/>
<g id="DIALOGFRAMEWORK">
	
		<rect x="53.668" y="19.459" transform="matrix(0.5642 0.8256 -0.8256 0.5642 51.9503 -31.0644)" fill="#CFD7D8" width="3.469" height="28.441"/>
	
		<rect x="30.825" y="3.27" transform="matrix(0.5643 0.8256 -0.8256 0.5643 28.6276 -19.2601)" fill="#CFD7D8" width="3.47" height="28.442"/>
	
		<rect x="53.668" y="51.698" transform="matrix(0.5638 0.8259 -0.8259 0.5638 78.606 -17.0051)" fill="#CFD7D8" width="3.469" height="28.439"/>
	
		<rect x="29.954" y="35.441" transform="matrix(0.5638 0.8259 -0.8259 0.5638 54.836 -4.5109)" fill="#CFD7D8" width="3.469" height="28.44"/>
	
		<rect x="31.477" y="20.689" transform="matrix(0.5525 -0.8335 0.8335 0.5525 -14.2357 43.3057)" fill="#CFD7D8" width="3.47" height="28.442"/>
	
		<rect x="53.663" y="3.271" transform="matrix(0.5523 -0.8336 0.8336 0.5523 10.2193 54.0132)" fill="#CFD7D8" width="3.469" height="28.442"/>
	
		<rect x="31.477" y="52.782" transform="matrix(0.5526 -0.8334 0.8334 0.5526 -40.9822 57.6554)" fill="#CFD7D8" width="3.471" height="28.438"/>
	
		<rect x="53.67" y="35.36" transform="matrix(0.5525 -0.8335 0.8335 0.5525 -16.5333 68.3687)" fill="#CFD7D8" width="3.468" height="28.443"/>
	
		<rect x="65.407" y="26.801" transform="matrix(1 -0.0034 0.0034 1 -0.1381 0.2269)" fill="#CFD7D8" width="3.471" height="28.443"/>
	
		<rect x="18.667" y="26.801" transform="matrix(1 -0.0034 0.0034 1 -0.1385 0.0692)" fill="#CFD7D8" width="3.469" height="28.443"/>
	<rect x="42.436" y="44.89" transform="matrix(1 -0.0028 0.0028 1 -0.1661 0.1245)" fill="#CFD7D8" width="3.473" height="28.443"/>
	<circle fill="#FFD100" cx="43.659" cy="9.324" r="9.252"/>
	<circle fill="#26A9E0" cx="20.178" cy="25.659" r="9.253"/>
	<circle fill="#26A9E0" cx="43.659" cy="41.706" r="9.252"/>
	<circle fill="#26A9E0" cx="67.141" cy="25.659" r="9.252"/>
	<circle fill="#26A9E0" cx="43.659" cy="74.086" r="9.252"/>
	<circle fill="#404C51" cx="20.178" cy="57.751" r="9.253"/>
	<circle fill="#26A9E0" cx="67.141" cy="57.75" r="9.252"/>
</g>
</svg>
