<?xml version="1.0" encoding="utf-8"?>
<!-- Generator: Adobe Illustrator 15.1.0, SVG Export Plug-In . SVG Version: 6.00 Build 0)  -->
<!DOCTYPE svg PUBLIC "-//W3C//DTD SVG 1.1//EN" "http://www.w3.org/Graphics/SVG/1.1/DTD/svg11.dtd">
<svg version="1.1" id="Layer_1" xmlns="http://www.w3.org/2000/svg" xmlns:xlink="http://www.w3.org/1999/xlink" x="0px" y="0px"
	 width="300px" height="300px" viewBox="0 0 300 300" enable-background="new 0 0 300 300" xml:space="preserve">
<g id="PUSH">
	<path id="BLUERADIAL" fill="#26A9E0" d="M154.637,67.811c-49.114,0-88.931,39.815-88.931,88.931c0,6.323,0.67,12.485,1.924,18.431
		l17.987-14.363l1.749-28.139c-1.071-0.279-2.067-0.875-2.809-1.804c-1.826-2.287-1.453-5.635,0.835-7.462
		c2.287-1.826,5.634-1.449,7.46,0.838c1.827,2.287,1.454,5.634-0.833,7.459c-0.901,0.72-1.966,1.085-3.038,1.139l-1.79,28.79
		l-19.156,15.298c0.332,1.429,0.697,2.842,1.097,4.242l28.334-22.626l19.373,3.234l12.849-10.262l-15.106-18.916l4.026-19.048
		c-0.829-0.329-1.594-0.85-2.189-1.595c-1.827-2.287-1.453-5.634,0.835-7.461c2.289-1.827,5.636-1.452,7.463,0.835
		c1.826,2.288,1.451,5.635-0.837,7.463c-1.085,0.866-2.406,1.221-3.692,1.128l-3.857,18.266l15.638,19.584L117.284,163.5
		l-19.372-3.237l-28.302,22.6c1.885,6.143,4.43,11.996,7.53,17.493l62.877-50.211l36.208,6.899l15.475-12.358l-7.573-9.485
		c-2.233,1.275-5.121,0.79-6.775-1.281c-1.825-2.287-1.452-5.634,0.833-7.459c2.288-1.826,5.636-1.451,7.462,0.837
		c1.653,2.071,1.487,4.999-0.252,6.891l8.585,10.753l-17.324,13.835l-36.209-6.9l-62.487,49.898
		c0.628,1.069,1.282,2.122,1.954,3.162l35.982-28.734l20.58,9.363l29.451-25.435l12.622,3.373l18.139-14.398l12.444-3.303
		c-0.177-1.739,0.494-3.528,1.956-4.696c2.286-1.827,5.634-1.451,7.46,0.837s1.453,5.634-0.832,7.46
		c-2.29,1.829-5.638,1.452-7.464-0.835c-0.298-0.373-0.517-0.781-0.697-1.199l-12.284,3.26l-18.347,14.65l-12.584-3.362
		l-29.592,25.556l-20.616-9.384l-35.338,28.22c1.251,1.86,2.587,3.656,3.972,5.414l28.416-22.69l22.146,6.284l8.267,10.353
		l21.547-17.209l14.718,3.588c0.333-0.803,0.842-1.541,1.564-2.12c2.289-1.826,5.635-1.452,7.462,0.836
		c1.826,2.287,1.453,5.635-0.835,7.462c-2.287,1.825-5.635,1.45-7.462-0.838c-0.884-1.107-1.241-2.46-1.127-3.77l-13.931-3.393
		l-22.192,17.723l-8.955-11.215l-20.842-5.913l-27.773,22.178c3.521,4.305,7.441,8.269,11.698,11.846l29.225-23.338l11.669,14.614
		l11.372-0.394l15.604-12.463l15.308,19.169l-2.688,8.636c0.699,0.333,1.341,0.81,1.854,1.453c1.827,2.288,1.451,5.636-0.836,7.461
		c-2.286,1.827-5.635,1.451-7.46-0.836c-1.826-2.288-1.453-5.636,0.832-7.46c1.188-0.948,2.66-1.293,4.06-1.093l2.434-7.821
		l-13.758-17.228l-14.758,11.784l-12.723,0.44l-11.165-13.982l-27.69,22.111c2.058,1.664,4.183,3.246,6.386,4.726l7.136-5.698
		l30.035,2.594l4.883,6.115l12.234-9.768c-1.278-2.23-0.795-5.123,1.273-6.775c2.29-1.828,5.638-1.453,7.464,0.835
		c1.826,2.287,1.45,5.635-0.837,7.462c-2.07,1.653-4.995,1.484-6.89-0.255l-13.5,10.78l-5.461-6.838l-28.695-2.479l-6.2,4.95
		c13.864,8.927,30.353,14.125,48.064,14.125c49.116,0,88.933-39.815,88.933-88.933C243.569,107.626,203.753,67.811,154.637,67.811z"
		/>
	<path fill="#404C51" d="M124.29,54.329c-2.431,1.693-5.776,1.091-7.466-1.343l-15.919-22.908c-1.692-2.433-1.089-5.777,1.341-7.468
		l16.255-16.522c2.433-1.689,5.776-1.088,7.466,1.344l20.82,29.959c1.69,2.434,1.089,5.775-1.345,7.465L124.29,54.329z"/>
	<path fill="#404C51" d="M109.463,54.341c-1.37,0.952-3.25,0.612-4.198-0.754l-8.953-12.881c-0.952-1.37-0.614-3.25,0.755-4.202
		l0.33-3.166c1.367-0.952,3.247-0.61,4.198,0.756l11.708,16.846c0.948,1.368,0.611,3.249-0.756,4.198L109.463,54.341z"/>
	<path fill="#CFD7D8" d="M134.109,15.389l12.011-8.351c1.704-1.181,2.126-3.522,0.943-5.225c-1.185-1.704-3.524-2.123-5.227-0.939
		l-12.011,8.345L134.109,15.389z"/>
	<path fill="#CFD7D8" d="M146.354,33.008l12.013-8.347c1.703-1.185,2.121-3.523,0.942-5.226c-1.187-1.704-3.528-2.125-5.229-0.941
		l-12.011,8.347L146.354,33.008z"/>
	<path fill="#404C51" d="M180.21,246.828c2.521-1.557,5.828-0.773,7.383,1.751l14.638,23.749c1.554,2.521,0.765,5.828-1.752,7.383
		l-17.138,15.604c-2.521,1.553-5.828,0.771-7.381-1.754l-19.144-31.055c-1.556-2.523-0.771-5.827,1.752-7.381L180.21,246.828z"/>
	<path fill="#404C51" d="M195.016,247.631c1.42-0.873,3.277-0.433,4.148,0.982l8.232,13.354c0.875,1.424,0.437,3.281-0.984,4.157
		l-0.504,3.143c-1.415,0.874-3.274,0.43-4.149-0.985l-10.763-17.464c-0.872-1.417-0.434-3.278,0.985-4.149L195.016,247.631z"/>
	<path fill="#CFD7D8" d="M168.267,285.171l-12.451,7.678c-1.768,1.085-2.316,3.4-1.228,5.164c1.087,1.768,3.401,2.314,5.167,1.226
		l12.45-7.672L168.267,285.171z"/>
	<path fill="#CFD7D8" d="M157.008,266.905l-12.453,7.674c-1.765,1.089-2.312,3.4-1.229,5.166c1.091,1.768,3.404,2.314,5.17,1.228
		l12.451-7.676L157.008,266.905z"/>
	<polygon fill="#4A535A" points="150.302,103.29 132.501,96.655 129.808,85.291 143.929,88.117 	"/>
	<polygon fill="#4A535A" points="158.971,103.29 176.772,96.655 179.465,85.291 165.344,88.117 	"/>
	<polygon fill="#4A535A" points="144.456,87.064 135.457,85.291 141.565,77.213 149.25,77.213 	"/>
	<polygon fill="#4A535A" points="164.686,87.064 173.686,85.291 167.576,77.213 159.891,77.213 	"/>
	<polygon fill="#4A535A" points="163.659,89.159 157.297,105.754 159.2,118.349 149.742,118.349 151.885,105.736 145.506,89.159 
		149.644,77.213 159.43,77.213 	"/>
	<polygon fill="#4A535A" points="136.869,104.964 143.11,108.316 143.11,121.55 132.861,112.781 132.861,97.969 136.869,99.611 	"/>
	<polygon fill="#4A535A" points="172.205,104.964 165.967,108.316 165.967,121.55 176.214,112.781 176.214,97.969 172.205,99.611 	
		"/>
	<polygon fill="#4A535A" points="161.303,103.519 158.971,104.733 158.971,107.016 160.434,119.159 157.306,122.339 
		154.582,122.363 151.86,122.339 148.735,119.159 150.195,107.016 150.195,104.733 147.865,103.519 144.645,108.94 144.645,128.619 
		147.97,125.563 154.582,125.493 161.195,125.563 164.521,128.619 164.521,108.94 	"/>
	<polygon fill="#4A535A" points="158.906,135.673 150.203,135.673 147.149,132.536 150.203,129.4 158.906,129.4 162.059,132.536 	
		"/>
	<polygon opacity="0.5" fill="#4A535A" points="143.11,129.4 137.427,123.094 137.427,118.792 143.11,122.504 	"/>
	<polygon opacity="0.5" fill="#4A535A" points="165.803,129.4 171.485,123.094 171.485,118.792 165.803,122.504 	"/>
	<polygon opacity="0.5" fill="#4A535A" points="160.482,128.619 148.684,128.619 146.343,131.821 144.645,130.936 148.626,126.937 
		160.58,126.937 164.521,130.936 162.847,131.821 	"/>
	<g id="YELLOWCABLES">
		<path fill="#FFD004" d="M217.471,90.372c6.893-2.22,14.037-3.733,21.427-4.245c3.699-0.246,7.475-0.17,11.35,0.638
			c1.932,0.42,3.895,1.072,5.789,2.146c1.886,1.064,3.71,2.67,4.932,4.761c1.223,2.084,1.77,4.485,1.83,6.705
			c0.07,2.235-0.256,4.343-0.743,6.328c-1.018,3.967-2.653,7.505-4.451,10.87c-0.452,0.842-0.917,1.669-1.395,2.486l-0.743,1.232
			l-0.717,1.154c-1.021,1.617-2.032,3.144-3.095,4.683c-2.106,3.065-4.33,6.032-6.648,8.908
			c-4.611,5.774-9.536,11.241-14.646,16.495c-5.085,5.281-10.413,10.291-15.808,15.202c-5.415,4.895-10.975,9.605-16.592,14.231
			c-5.655,4.583-11.384,9.058-17.19,13.429c-5.832,4.335-11.713,8.596-17.69,12.729c-2.996,2.059-6.007,4.092-9.044,6.1
			l-4.593,2.998c-0.912,0.591-1.627,1.006-2.438,1.491l-2.362,1.396c-6.299,3.684-12.651,7.234-19.137,10.57
			c-6.469,3.366-13.052,6.531-19.779,9.45c-3.358,1.474-6.776,2.832-10.233,4.122c-3.46,1.286-6.97,2.485-10.577,3.484
			c-3.607,0.995-7.288,1.875-11.157,2.313c-1.936,0.213-3.919,0.329-5.977,0.222c-2.051-0.124-4.22-0.431-6.388-1.399
			c-1.077-0.483-2.145-1.148-3.071-2.018c-0.928-0.865-1.686-1.932-2.198-3.047c-1.027-2.255-1.159-4.528-0.998-6.562
			c0.378-4.086,1.704-7.636,3.22-11.019c3.08-6.739,7.033-12.833,11.291-18.683c-1.533,3.277-3.07,6.538-4.425,9.861
			c-1.39,3.301-2.666,6.643-3.647,10.015c-0.948,3.359-1.721,6.813-1.587,9.945c0.073,1.548,0.403,2.966,1.025,3.933
			c0.616,0.969,1.458,1.542,2.653,1.916c2.418,0.745,5.773,0.431,8.973-0.263c3.242-0.711,6.525-1.751,9.765-2.972
			c6.488-2.453,12.877-5.471,19.172-8.688c12.583-6.473,24.899-13.711,36.942-21.264l2.242-1.426
			c0.716-0.469,1.54-0.988,2.131-1.389l4.392-2.996c2.928-2.025,5.841-4.082,8.74-6.159c5.811-4.143,11.586-8.34,17.276-12.643
			c5.715-4.268,11.373-8.612,16.935-13.059c5.601-4.404,11.094-8.931,16.502-13.536c10.82-9.205,21.267-18.829,30.745-29.193
			c4.693-5.219,9.19-10.589,12.971-16.302c1.863-2.824,3.507-5.761,4.56-8.702c1.072-2.932,1.433-5.845,0.458-8.011
			c-0.465-1.103-1.289-2.11-2.442-2.965c-1.148-0.855-2.573-1.542-4.104-2.083c-3.082-1.103-6.55-1.595-10.037-1.906
			c-3.503-0.286-7.074-0.292-10.646-0.135C224.646,89.63,221.061,89.947,217.471,90.372z"/>
		<path fill="#FFD004" d="M101.813,55.637c-8.586,6.657-16.141,13.023-24.341,20.316c-8.196,7.325-16.176,14.908-23.481,23.025
			c-3.637,4.063-7.113,8.266-10.124,12.714c-1.496,2.225-2.875,4.516-3.983,6.883c-1.096,2.356-1.951,4.827-2.061,7.211
			c-0.131,2.381,0.678,4.573,2.579,6.1c1.881,1.541,4.485,2.407,7.117,2.922c5.337,0.998,10.964,0.827,16.493,0.396
			c-5.463,1.026-11.026,1.833-16.74,1.408c-2.835-0.257-5.794-0.807-8.473-2.517c-1.32-0.856-2.519-2.068-3.313-3.538
			c-0.806-1.465-1.197-3.109-1.303-4.695c-0.194-3.198,0.541-6.18,1.473-8.972c0.955-2.797,2.181-5.437,3.518-7.99
			c2.692-5.098,5.835-9.861,9.135-14.478c6.631-9.211,13.925-17.833,21.457-26.21c7.571-8.374,15.319-16.439,23.513-24.365
			L101.813,55.637z"/>
		<path fill="#FFD004" d="M202.671,246.7c8.938-6.176,16.831-12.118,25.42-18.948c8.587-6.862,16.972-13.999,24.712-21.7
			c3.855-3.858,7.556-7.862,10.808-12.141c1.615-2.14,3.116-4.35,4.354-6.653c1.224-2.292,2.212-4.711,2.453-7.088
			c0.263-2.368-0.425-4.604-2.239-6.231c-1.792-1.641-4.345-2.65-6.945-3.307c-5.275-1.292-10.901-1.428-16.447-1.305
			c5.51-0.723,11.11-1.224,16.793-0.485c2.815,0.412,5.741,1.123,8.32,2.979c1.272,0.928,2.399,2.202,3.113,3.713
			c0.725,1.51,1.027,3.172,1.044,4.761c0.019,3.204-0.88,6.141-1.963,8.88c-1.105,2.74-2.476,5.306-3.953,7.782
			c-2.967,4.942-6.367,9.525-9.913,13.952c-7.13,8.836-14.886,17.046-22.867,24.995c-8.019,7.945-16.2,15.57-24.815,23.036
			L202.671,246.7z"/>
		<path fill="#FFD004" d="M247.236,152.286c5.986-4.071,11.574-8.777,16.519-14.291c2.469-2.769,4.729-5.794,6.475-9.347
			c0.854-1.781,1.548-3.729,1.866-5.885c0.319-2.141,0.173-4.568-0.725-6.816c-0.893-2.246-2.45-4.153-4.163-5.563
			c-1.721-1.431-3.584-2.469-5.449-3.304c-3.753-1.635-7.55-2.52-11.309-3.17c-0.94-0.161-1.879-0.304-2.818-0.427l-1.428-0.172
			l-1.353-0.143c-1.9-0.189-3.728-0.33-5.595-0.439c-3.715-0.221-7.419-0.29-11.113-0.23c-7.391,0.087-14.73,0.612-22.015,1.413
			c-7.291,0.767-14.517,1.89-21.707,3.124c-7.189,1.265-14.32,2.753-21.425,4.341c-7.09,1.643-14.141,3.411-21.157,5.304
			c-7.004,1.937-13.98,3.958-20.915,6.131c-3.464,1.098-6.917,2.223-10.37,3.384l-5.188,1.782c-1.028,0.354-1.793,0.665-2.675,1.004
			l-2.553,1.007c-6.778,2.705-13.482,5.533-20.101,8.597c-6.63,3.033-13.174,6.283-19.612,9.792
			c-3.226,1.744-6.398,3.606-9.541,5.537c-3.139,1.94-6.243,3.973-9.249,6.204c-3.003,2.232-5.958,4.597-8.683,7.378
			c-1.359,1.396-2.669,2.888-3.848,4.579c-1.163,1.692-2.254,3.594-2.823,5.897c-0.281,1.147-0.414,2.397-0.297,3.663
			c0.113,1.266,0.489,2.517,1.053,3.607c1.147,2.197,2.859,3.697,4.562,4.819c3.457,2.214,7.071,3.35,10.671,4.233
			c7.208,1.715,14.445,2.342,21.675,2.578c-3.526-0.807-7.042-1.597-10.498-2.569c-3.458-0.936-6.877-1.981-10.142-3.282
			c-3.23-1.313-6.43-2.827-8.82-4.858c-1.176-1.01-2.091-2.142-2.473-3.226c-0.385-1.082-0.319-2.1,0.12-3.271
			c0.899-2.365,3.209-4.818,5.723-6.916c2.553-2.12,5.392-4.072,8.346-5.876c5.924-3.608,12.23-6.794,18.638-9.782
			c12.84-5.946,26.121-11.212,39.48-16.069l2.502-0.89c0.809-0.279,1.727-0.609,2.406-0.828l5.062-1.622
			c3.396-1.065,6.81-2.101,10.23-3.108c6.838-2.038,13.699-4.014,20.591-5.856c6.878-1.885,13.782-3.677,20.709-5.333
			c6.918-1.708,13.862-3.261,20.82-4.695c13.91-2.876,27.924-5.2,41.926-6.308c7.002-0.494,14.001-0.739,20.83-0.21
			c3.375,0.265,6.702,0.775,9.668,1.752c2.971,0.956,5.49,2.464,6.602,4.563c0.583,1.044,0.871,2.314,0.836,3.749
			c-0.03,1.431-0.365,2.976-0.879,4.518c-1.026,3.108-2.77,6.147-4.669,9.089c-1.928,2.939-4.115,5.76-6.436,8.48
			C252.231,147.083,249.777,149.715,247.236,152.286z"/>
	</g>
</g>
</svg>
