<?xml version="1.0" standalone="no"?>
<!DOCTYPE svg PUBLIC "-//W3C//DTD SVG 1.1//EN" "http://www.w3.org/Graphics/SVG/1.1/DTD/svg11.dtd" >
<svg xmlns="http://www.w3.org/2000/svg">
<metadata></metadata>
<defs>
<font id="exolightitalic" horiz-adv-x="1110" >
<font-face units-per-em="2048" ascent="1638" descent="-410" />
<missing-glyph horiz-adv-x="499" />
<glyph horiz-adv-x="0" />
<glyph unicode="&#xd;" horiz-adv-x="2048" />
<glyph unicode=" "  horiz-adv-x="499" />
<glyph unicode="&#x09;" horiz-adv-x="499" />
<glyph unicode="&#xa0;" horiz-adv-x="499" />
<glyph unicode="!" horiz-adv-x="522" d="M174 39l19 121q6 43 47 43h84q39 0 32 -43l-18 -121q-6 -39 -45 -39h-84q-18 0 -28.5 11.5t-6.5 27.5zM252 408l160 1089h137l-187 -1089h-110z" />
<glyph unicode="&#x22;" horiz-adv-x="714" d="M319 1087l25 275l23 137h118l-22 -137l-62 -275h-82zM573 1087l23 275l22 137h121l-22 -137l-62 -275h-82z" />
<glyph unicode="#" horiz-adv-x="1368" d="M115 487l24 80h340l115 365h-340l29 80h335l156 487h80l-156 -487h355l151 487h80l-151 -487h362l-29 -80h-362l-115 -367h363l-25 -80h-362l-156 -485h-80l156 485l-355 2l-153 -487h-80l156 487h-338zM557 567l352 -2l115 367h-352z" />
<glyph unicode="$" horiz-adv-x="1175" d="M164 29l14 82q383 -12 457 -12.5t121 9t98 31.5q109 49 129 180l21 140q8 49 8 76.5t-2 42.5q-8 98 -179 98h-247q-170 0 -242 76q-72 74 -72 161q0 41 6 99l21 135q35 205 148.5 283.5t310.5 80.5l28 177h90l-26 -181q80 -6 375 -41l-15 -88l-456 19h-29 q-123 0 -204 -51.5t-103 -198.5l-23 -135q-4 -33 -4 -60q0 -74 41 -115.5t172 -41.5h248q100 0 163.5 -29t86.5 -76q33 -66 33 -127t-11 -104l-22 -140q-53 -336 -451 -335h-43l-26 -166h-93l29 174q-256 23 -352 37z" />
<glyph unicode="%" horiz-adv-x="1984" d="M229 907q0 31 7 64l43 272q20 137 83.5 196.5t221.5 59.5h207q137 0 188 -59q37 -43 37 -123q0 -35 -6 -74l-43 -272q-23 -143 -85.5 -199.5t-215.5 -56.5h-207q-229 0 -230 192zM330 904q0 -36 25.5 -62.5t115.5 -26.5h207q96 0 135 31t55 125l41 272q8 35 8.5 57.5 t-6.5 47.5q-12 51 -135 53h-207q-100 0 -138 -33t-54 -125l-41 -272q-6 -31 -6 -67zM461 0l1134 1499h111l-1135 -1499h-110zM1163 195q0 31 4 63l43 272q23 137 85 196.5t218 59.5h207q139 0 191 -59q37 -43 37 -125q0 -33 -6 -72l-44 -272q-23 -143 -86 -199.5t-217 -56.5 h-206q-225 0 -226 193zM1264 191.5q0 -35.5 24.5 -63.5t114.5 -28h207q96 0 136 32t54 126l43 272q6 33 6 69t-22.5 61.5t-120.5 25.5h-207q-125 0 -160 -59q-18 -33 -28 -97l-43 -272q-4 -31 -4 -66.5z" />
<glyph unicode="&#x26;" horiz-adv-x="1323" d="M129 371q0 51 14 102q45 154 207 277l195 149l-101 174q-49 86 -49 162t35 127q74 109 211 127q94 10 231.5 10t323.5 -35l-12 -75h-422q-221 0 -256 -119q-4 -14 -4 -33q0 -55 45 -133l411 -711l306 266l36 -32l-151 -217l-131 -117l174 -293h-121l-135 227l-156 -137 q-117 -100 -268 -100q-74 0 -145 28q-111 41 -177 146q-61 103 -61 207zM240 367q0 -74 47 -142q79 -125 231 -125q100 0 187 74l174 150l-277 473l-178 -135q-184 -137 -184 -295z" />
<glyph unicode="'" horiz-adv-x="344" d="M266 1087l25 275l22 137h119l-22 -137l-62 -275h-82z" />
<glyph unicode="(" horiz-adv-x="645" d="M229 441.5q0 146.5 31 273.5q27 168 88.5 342t126.5 303q137 264 234 389l41 53h137q-55 -70 -139 -199.5t-146.5 -250.5t-129 -298t-95.5 -346t-29 -253q0 -250 33 -398q57 -256 131 -393l29 -53h-129q-29 49 -78 185t-68 255q-37 244 -37 390.5z" />
<glyph unicode=")" horiz-adv-x="647" d="M-27 -389q55 66 138.5 193.5t147 248.5t129 300t95 347t29.5 250q0 248 -33 398q-57 258 -131 399l-26 55h127q82 -158 135 -411q41 -195 41 -390q0 -322 -115 -653q-90 -262 -254 -532q-63 -102 -102 -154l-41 -51h-140z" />
<glyph unicode="*" horiz-adv-x="929" d="M285 1178l10 63l293 43l-10 -119zM381 844l98 276l113 -26l-156 -269zM588 987l80 100l202 -180l-43 -51zM598 1473l66 24l110 -246l-117 -49zM702 1157l267 160l22 -55l-225 -195z" />
<glyph unicode="+" horiz-adv-x="1060" d="M205 670l18 118h357l55 357h119l-58 -357h359l-19 -118h-358l-57 -357h-117l57 357h-356z" />
<glyph unicode="," horiz-adv-x="481" d="M145 -166l7 47h4q49 0 59 53l10 66h-20q-18 0 -28.5 11.5t-6.5 31.5l18 117q6 45 50 45h77q33 0 33 -35v-10l-31 -201q-14 -84 -77 -115q-29 -14 -54.5 -14t-40.5 4z" />
<glyph unicode="-" horiz-adv-x="710" d="M123 535l18 118h623l-19 -118h-622z" />
<glyph unicode="." horiz-adv-x="487" d="M168 39l20 121q5 43 48 43h79q37 0 37 -31v-12l-20 -121q-6 -39 -47 -39h-80q-18 0 -28.5 11.5t-8.5 27.5z" />
<glyph unicode="/" horiz-adv-x="745" d="M16 -147l848 1724h123l-848 -1724h-123z" />
<glyph unicode="0" horiz-adv-x="1318" d="M188 256q0 35 7 76l133 835q27 168 132 250t271 82h316q174 0 243 -96q53 -72 53 -170q0 -31 -6 -66l-133 -835q-29 -176 -128 -254t-267 -78h-315q-154 0 -240 80q-66 61 -66 176zM309 252q0 -35 14.5 -58.5t31 -39t42.5 -23.5q47 -12 115 -12h315q225 0 260 213 l134 835q4 31 4 77t-31 85q-45 51 -166 51h-315q-233 0 -267 -213l-135 -835q-2 -45 -2 -80z" />
<glyph unicode="1" horiz-adv-x="768" d="M274 1237l15 84q84 0 145.5 25.5t98 44t65.5 39.5q59 39 94 69h115l-234 -1499h-118l215 1348q-53 -39 -159 -75t-237 -36z" />
<glyph unicode="2" horiz-adv-x="1204" d="M96 0l19 109q393 252 600 430q268 229 362 376q63 96 72.5 157.5t9.5 98.5q0 227 -260 228h-596l14 86q274 35 609 35q209 0 291 -129q59 -94 59 -226q0 -119 -43 -210t-101.5 -165.5t-126 -147.5t-149.5 -143.5t-151.5 -128t-145.5 -112.5q-125 -90 -203 -139h756 l-18 -119h-998z" />
<glyph unicode="3" horiz-adv-x="1206" d="M80 31l12 73h594q104 0 186 55.5t103 174.5l18 121q6 35 6 64.5t-10 66.5t-45 59q-59 37 -158 41l-475 14l17 88l479 19q113 4 189.5 60.5t93.5 158.5l20 141q4 29 4 52q0 166 -213 165h-618l10 74q115 33 239.5 40t225 7t176.5 -2q158 -2 237 -98q61 -72 62 -176 q0 -31 -4 -64l-23 -141q-20 -123 -83.5 -192.5t-133.5 -86.5q90 -39 121 -149q10 -37 10 -75t-4 -70l-20 -121q-53 -344 -418 -344q-289 0 -411 11t-187 34z" />
<glyph unicode="4" horiz-adv-x="1212" d="M113 467l811 1032h145l-764 -977h635l70 445l86 153h59l-94 -598h184l-14 -90l-189 -33l-63 -395h-121l62 395h-764z" />
<glyph unicode="5" horiz-adv-x="1249" d="M162 31l14 84h617q102 0 171.5 66.5t84.5 160.5l34 211q6 35 7 65q0 168 -183 168h-311q-80 0 -148.5 -52t-82.5 -136h-111l188 901h867l-21 -119h-753l-117 -563q72 82 211 88q67 2 108 2l185 -4q152 0 227 -96q57 -74 57 -180q0 -35 -6 -70l-33 -219 q-55 -344 -389 -348h-131q-250 0 -485 41z" />
<glyph unicode="6" horiz-adv-x="1280" d="M223 457.5q0 140.5 31 332t83 336t118 226.5q125 160 266 159q369 0 592 -32l-13 -86h-577q-72 0 -134.5 -59.5t-103.5 -153.5q-77 -179 -106 -355q315 35 557 35q154 0 219 -67q66 -68 66 -148q0 -35 -4 -88l-39 -254q-27 -164 -121 -233.5t-248 -69.5h-287 q-217 0 -276 233q-23 84 -23 224.5zM338 449q0 -336 194 -336h285q213 0 244 196l39 244q4 33 4 78t-37 78.5t-152 33.5h-550q-27 -171 -27 -294z" />
<glyph unicode="7" horiz-adv-x="1114" d="M274 1380l19 119h926l34 -82l-747 -1417h-139l733 1380h-826z" />
<glyph unicode="8" horiz-adv-x="1300" d="M197 246.5q0 29.5 6 68.5l30 201q12 74 52 125q72 98 182 107q-70 18 -110 67t-43 89t-3 67.5t2 54.5l23 133q31 197 131 273.5t281 76.5h278q160 0 234 -92q53 -68 53 -180q0 -41 -6 -86l-23 -133q-12 -102 -96 -180q-50 -48 -113 -58q133 -43 133 -209q0 -27 -4 -55 l-30 -201q-37 -223 -197 -284q-76 -31 -184 -31h-277q-98 0 -165.5 26.5t-98.5 61.5t-43 82t-12 76.5zM315 264q0 -68 48.5 -107.5t173.5 -39.5h270q86 0 157.5 46t88.5 146l34 215q4 25 5 45q0 66 -47.5 102t-133.5 36h-307q-86 0 -160.5 -43t-89.5 -140l-35 -215 q-4 -25 -4 -45zM426 964.5q0 -24.5 11.5 -57.5t43.5 -51q59 -33 140 -33h305q113 0 170 56.5t69 132.5l23 139q6 45 6 98q0 141 -188 142h-277q-137 0 -197.5 -55.5t-80.5 -184.5l-21 -139q-4 -23 -4 -47.5z" />
<glyph unicode="9" horiz-adv-x="1280" d="M176 29l14 86h576q119 0 213 164q90 159 133 403q-315 -35 -563 -35q-154 0 -217 68t-64 149q0 31 4 88l41 256q47 299 377 299h281q297 0 297 -452q0 -147 -28 -321.5t-67.5 -299.5t-86 -206t-101.5 -134q-100 -98 -215 -98q-408 0 -594 33zM385 895q0 -66 40 -98.5 t153 -32.5h548q27 174 27 299q0 332 -192 332h-287q-217 0 -248 -197l-37 -248q-4 -30 -4 -55z" />
<glyph unicode=":" horiz-adv-x="491" d="M172 39l18 121q7 43 50 43h79q37 0 37 -31q0 -6 -2 -12l-18 -121q-6 -39 -47 -39h-82q-16 0 -26.5 11.5t-8.5 27.5zM309 926l19 121q6 40 49 40h80q37 0 37 -30q0 -4 -2 -10l-19 -121q-6 -39 -49 -39h-80q-18 0 -27.5 10t-7.5 29z" />
<glyph unicode=";" horiz-adv-x="489" d="M145 -166l7 47h4q49 0 59 53l10 66h-20q-16 0 -26.5 13.5t-8.5 29.5l18 117q2 18 16.5 31.5t33.5 13.5h77q33 0 33 -35v-10l-31 -201q-14 -84 -77 -115q-29 -14 -54.5 -14t-40.5 4zM311 926l21 121q6 43 47 43h80q37 0 37 -31v-12l-21 -121q-6 -39 -47 -39h-80 q-18 0 -28.5 11t-8.5 28z" />
<glyph unicode="&#x3c;" horiz-adv-x="968" d="M203 664l20 122l803 353l-20 -127l-658 -293l561 -313l-18 -119z" />
<glyph unicode="=" horiz-adv-x="952" d="M109 434l20 119h875l-21 -119h-874zM180 897l21 117h874l-20 -117h-875z" />
<glyph unicode="&#x3e;" horiz-adv-x="970" d="M147 287l21 131l670 309l-576 301l21 111l690 -353l-19 -122z" />
<glyph unicode="?" horiz-adv-x="1105" d="M256 1401l14 78q289 37 492 37q35 0 51 -2l16 -1q207 0 293 -104q63 -78 64 -195q0 -39 -6 -79l-33 -207q-23 -145 -98.5 -225t-192.5 -99q-55 -8 -122.5 -8t-149.5 10l-33 -207h-121l47 306q88 -2 153.5 -2.5t110.5 2.5q113 2 192 56t97 167l33 207q6 39 6 71 q0 90 -43 133q-61 61 -229 62h-541zM356 39l19 121q6 43 47 43h80q37 0 37 -31v-12l-19 -121q-8 -39 -49 -39h-80q-18 0 -28.5 11.5t-6.5 27.5z" />
<glyph unicode="@" horiz-adv-x="1798" d="M125 -57q0 37 6 75l166 1049q60 365 420 365h768q168 0 239 -95q53 -70 54 -182q0 -41 -6 -88l-109 -725q-25 -164 -102 -244q-33 -37 -96.5 -64.5t-147.5 -27.5h-94l-31 123q-82 -90 -244 -125q-57 -12 -121 -12q-180 0 -262 121q-55 80 -55 239q0 92 19.5 217 t57.5 224.5t82 158t99 97.5q98 66 222 65.5t248 -29t196 -98.5l-127 -864q152 0 202 100q25 47 35 119l111 725q23 162 -35 209q-45 37 -143 37h-777q-152 0 -217 -88q-55 -70 -69 -158l-166 -1049q-4 -35 -4 -88t35 -106q49 -74 174 -74h788l-12 -74q-219 -43 -596 -43 h-201q-158 0 -244 109q-63 84 -63 201zM631 315q2 -80 30.5 -125t69.5 -63t115 -18q193 0 356 124l109 715q-133 49 -316 49h-18q-277 -4 -336 -477q-10 -106 -10 -149v-56z" />
<glyph unicode="A" horiz-adv-x="1339" d="M92 0l793 1499h123l292 -1499h-118l-88 451h-633l-238 -451h-131zM524 569h547l-145 772z" />
<glyph unicode="B" horiz-adv-x="1216" d="M164 0l237 1499h560q203 0 286 -121q49 -70 49 -194q0 -33 -6 -68q-18 -141 -93 -227t-175 -109q68 -12 119 -100t51 -193q0 -37 -6 -77q-53 -410 -463 -410h-559zM303 119h438q279 0 328 301q4 32 4 63q0 88 -45 156q-61 88 -186 88h-4h-441zM418 844h440 q125 0 208 71.5t105 202.5q8 47 9 84q0 84 -41 123q-59 55 -195 55h-442z" />
<glyph unicode="C" horiz-adv-x="1173" d="M215 514q0 201 66 467q55 223 139 336q103 135 250 176q82 23 219 23t436 -58l-14 -90q-227 31 -432 31q-125 0 -182.5 -19.5t-92.5 -46t-73.5 -75t-69.5 -115.5q-68 -152 -107 -393q-20 -127 -20 -247t37 -218q66 -170 256 -179q25 -2 117 -2t374 21l-12 -90 q-190 -47 -488 -47q-113 0 -192 45q-211 115 -211 481z" />
<glyph unicode="D" horiz-adv-x="1359" d="M164 0l237 1497q0 2 545 2q111 0 194 -37t130 -102q98 -135 106 -305q4 -49 4 -90q0 -115 -20 -228q-131 -737 -647 -737h-549zM301 123h428q250 0 397 272q84 152 111 316t27 266q0 405 -336 405h-2h-426z" />
<glyph unicode="E" horiz-adv-x="1157" d="M195 193q0 29 6 63l155 981q43 262 281 262h20l631 -29l-14 -88h-635q-141 0 -164 -149l-69 -428l692 -17l-15 -90l-696 -18l-68 -428q-4 -23 -4 -42.5t6.5 -43t32.5 -35.5q37 -18 105 -18h614l-14 -88l-621 -31h-20q-102 0 -162.5 52t-60.5 147z" />
<glyph unicode="F" horiz-adv-x="1153" d="M164 0l194 1231q43 268 281 268h20l631 -29l-14 -90h-637q-78 0 -115 -37.5t-47 -109.5l-67 -428l690 -17l-15 -90l-696 -18l-106 -680h-119z" />
<glyph unicode="G" horiz-adv-x="1267" d="M221 496q0 225 76 518q66 252 184 366q135 133 365 133h42t182 -17t259 -40l-12 -94q-68 10 -232 22q-176 12 -247 12q-3 1 -6 1q-68 0 -116 -13q-50 -12 -106.5 -53t-99.5 -108q-96 -158 -143 -473q-23 -150 -23 -267q0 -379 281 -379h37.5t143 28t181.5 54l72 29 l78 461h-377l14 80q160 41 361 41q63 0 137 -6l-125 -791h-86l-14 115q-57 -43 -187.5 -85t-245 -42t-195.5 45t-124 117q-74 129 -74 346z" />
<glyph unicode="H" horiz-adv-x="1308" d="M174 0l238 1499h116l-112 -715h776l115 715h118l-237 -1499h-119l107 666h-779l-106 -666h-117z" />
<glyph unicode="I" horiz-adv-x="438" d="M184 0l238 1499h119l-238 -1499h-119z" />
<glyph unicode="J" horiz-adv-x="708" d="M78 43l22 84q113 -33 169.5 -33t89 11.5t69.5 35.5q76 49 100 197l185 1161h116l-184 -1161q-35 -229 -153 -301q-80 -49 -203 -49q-135 0 -211 55z" />
<glyph unicode="K" horiz-adv-x="1140" d="M164 0l237 1499h119l-110 -688h223l575 688h148l-623 -754l385 -745h-141l-354 692h-230l-110 -692h-119z" />
<glyph unicode="L" horiz-adv-x="1101" d="M199 199q0 29 4 59l198 1241h117l-199 -1241q-2 -23 -2 -42t6.5 -42.5t32.5 -36.5q39 -18 105 -18h606l-18 -119h-605q-113 0 -184 51q-61 45 -61 148z" />
<glyph unicode="M" horiz-adv-x="1619" d="M145 0l359 1499h153l211 -1302l611 1302h166l-105 -1499h-119l95 1296l-611 -1296h-123l-207 1290l-311 -1290h-119z" />
<glyph unicode="N" horiz-adv-x="1339" d="M164 0l237 1499h115l606 -1280l205 1280h117l-238 -1499h-112l-609 1282l-202 -1282h-119z" />
<glyph unicode="O" horiz-adv-x="1376" d="M211 412.5q0 52.5 2 120t23.5 204.5t47 241.5t57.5 181.5t65.5 134.5t78.5 96.5t88 62.5t102.5 35.5t113 16t132 4t139 -7t121 -26.5t99.5 -54.5q92 -84 115 -233q8 -61 8 -115q0 -301 -78 -588q-59 -221 -145 -321q-90 -106 -207 -141q-109 -31 -232 -31t-181 6 t-119.5 24.5t-100.5 51.5q-96 80 -119 223q-10 63 -10 115.5zM328 481q0 -80 3 -128t23.5 -94t49 -75.5t75.5 -46.5q82 -27 202 -27h4q122 0 191.5 13.5t134 51.5t107.5 110q92 147 142 454q28 176 28 316v10q0 111 -41 205q-25 55 -100 92q-45 23 -113.5 27t-139.5 4 t-118 -5.5t-111.5 -23.5t-101.5 -59t-80 -112t-72.5 -183.5t-56 -280.5t-26.5 -248z" />
<glyph unicode="P" horiz-adv-x="1210" d="M154 0l237 1499h606q135 0 226 -82q75 -71 75 -229q0 -141 -34.5 -246.5t-59 -152t-63.5 -79t-68 -49t-74 -24.5q-57 -10 -128.5 -10t-278.5 13t-215 17l-107 -657h-116zM389 745h488q180 0 247 156q29 68 42.5 142.5t13.5 100t-3 54.5t-8.5 60.5t-24 54t-33.5 36 t-42 19.5q-41 12 -90 12h-490z" />
<glyph unicode="Q" horiz-adv-x="1386" d="M219 412.5q0 52.5 2 120t23.5 204.5t47 241.5t57.5 181.5t66 134.5t79 96.5t88 62.5t102 35.5t112.5 16t132.5 4t139 -7t120.5 -26.5t99.5 -54.5q92 -84 115 -233q8 -61 8 -115q0 -319 -86 -622q-61 -215 -180 -336q-92 -90 -268 -113q-70 -10 -160 -10t-148.5 6 t-120 24.5t-100.5 51.5q-96 80 -119 223q-10 63 -10 115.5zM336 481q0 -80 3 -128t23.5 -94t49 -75.5t75.5 -46.5q80 -28 194 -28q6 0 12 1q122 1 191.5 14t134 51t107.5 110q92 147 142 454q28 176 28 316v10q0 111 -41 205q-25 55 -100 92q-45 23 -113.5 27t-139.5 4 t-118 -5.5t-111.5 -23.5t-101 -59t-79.5 -112t-73 -183.5t-56.5 -280.5t-26.5 -248zM639 -68h82q71 -96 194 -96q66 0 144 27l-21 -127q-51 -20 -84 -20q-7 -1 -14 -1q-28 0 -59 2q-39 2 -98.5 21.5t-100.5 71t-43 122.5z" />
<glyph unicode="R" horiz-adv-x="1249" d="M154 0l237 1499h615q139 0 219 -88q70 -74 69 -240q0 -172 -43 -279.5t-78.5 -149.5t-86 -68.5t-80 -32.5t-66.5 -8l219 -633h-129l-209 623q-29 0 -236.5 12t-209.5 12l-105 -647h-116zM391 745h488q252 0 288 318q7 111 7 142q0 35 -12 68q-12 34 -27 55.5t-39 31.5 q-43 18 -109 18h-495z" />
<glyph unicode="S" horiz-adv-x="1165" d="M162 27l14 92q144 -17 498 -17q293 0 325 217l23 140q4 39 4 67.5t-2 48.5q-14 100 -176 101h-266q-184 0 -254 74q-61 68 -62 153q0 23 8 111l21 135q37 227 166 301q106 61 268 61q123 0 297 -19t213 -26l-14 -90l-490 19h-30q-121 0 -195 -48.5t-96 -199.5l-23 -135 q-7 -47 -7 -77q0 -25 5 -40q10 -31 17.5 -47.5t26 -26.5t32.5 -15t41 -9q39 -2 94 -2h266q94 0 156.5 -30t87.5 -77q37 -72 37 -133t-8 -100l-23 -140q-23 -150 -100 -221q-82 -74 -154 -88q-107 -23 -203 -23q-2 1 -4 1q-98 0 -263 15t-230 28z" />
<glyph unicode="T" horiz-adv-x="1220" d="M285 1380l18 119h1061l-18 -119h-478l-219 -1380h-117l218 1380h-465z" />
<glyph unicode="U" horiz-adv-x="1359" d="M244 416q0 96 18 215l137 868h119l-137 -868q-19 -129 -19 -210v-5q0 -76 14 -130t40 -90t73 -57q77 -31 194 -31h4q120 0 193.5 21t139.5 76q125 106 176 426l137 868h119l-137 -868q-27 -164 -68 -276.5t-110 -198.5q-137 -166 -443 -166q-225 0 -329 86 q-121 102 -121 340z" />
<glyph unicode="V" horiz-adv-x="1370" d="M307 1499h125l254 -1319l694 1319h136l-793 -1499h-123z" />
<glyph unicode="W" horiz-adv-x="2035" d="M307 1499h119l256 -1317l686 1317h133l-280 -549l147 -776l686 1325h129l-780 -1499h-123l-150 780l-407 -780h-123z" />
<glyph unicode="X" horiz-adv-x="1189" d="M78 0l565 745l-334 754h125l287 -649l493 649h144l-582 -766l324 -733h-125l-279 627l-475 -627h-143z" />
<glyph unicode="Y" horiz-adv-x="1288" d="M307 1499h125l281 -819l581 819h140l-678 -967l-84 -532h-119l84 532z" />
<glyph unicode="Z" horiz-adv-x="1116" d="M72 0l18 119l1034 1261h-833l18 119h989l-18 -119l-1034 -1261h833l-18 -119h-989z" />
<glyph unicode="[" horiz-adv-x="618" d="M150 -131q0 41 8 94l233 1475q39 242 180 301q64 26 152 26h143l-18 -118h-143q-78 0 -127.5 -47.5t-67.5 -161.5l-234 -1475q-8 -57 -8 -105t15 -77q27 -53 118 -53h144l-21 -117h-143q-70 0 -119 24q-113 59 -112 234z" />
<glyph unicode="\" horiz-adv-x="827" d="M289 1577h110l303 -1724h-110z" />
<glyph unicode="]" horiz-adv-x="622" d="M-27 -389l19 117h143q82 0 130 51t65 160l233 1474q10 57 10 106.5t-16 77.5q-29 49 -117 50h-143l18 118h144q72 0 121 -26.5t71 -63.5q39 -63 39 -166q0 -41 -8 -96l-233 -1474q-23 -139 -82 -226q-72 -102 -250 -102h-144z" />
<glyph unicode="^" horiz-adv-x="825" d="M274 1087l293 269h111l180 -269h-104l-136 189l-217 -189h-127z" />
<glyph unicode="_" horiz-adv-x="1359" d="M39 -2l18 117h1278l-18 -117h-1278z" />
<glyph unicode="`" horiz-adv-x="495" d="M256 1360h137l213 -273h-104z" />
<glyph unicode="a" d="M162 303q0 45 1 96.5t22.5 176t59.5 222t80 152t98 90t101 48t92.5 18.5t112 6t198.5 -29.5t208 -101.5l-144 -981h-82l-14 123q-70 -45 -181.5 -91t-193.5 -46t-131 9t-92 34q-84 43 -119 172q-16 57 -16 102zM281 338q0 -236 213 -236q143 0 272 50q43 16 135 57 l111 733q-166 55 -293 55q-111 0 -177.5 -29.5t-112.5 -78.5t-79 -142.5t-51 -209t-18 -199.5z" />
<glyph unicode="b" horiz-adv-x="1128" d="M123 0l254 1608h115l-95 -586q135 51 249 66.5t161 15.5q303 0 303 -365q0 -162 -51 -360q-45 -180 -133 -279q-45 -51 -115 -81.5t-152 -30.5q-104 0 -233 48t-168 85l-53 -121h-82zM272 205q213 -99 385 -99q121 0 202 109t114 324q16 109 16 196.5t-20 143.5 q-41 108 -172 108h-2q-184 0 -408 -57z" />
<glyph unicode="c" horiz-adv-x="1011" d="M164 348q0 90 21.5 219t58.5 232.5t75.5 162t93 90t101.5 40t115 8.5q164 0 438 -56l-14 -83q-254 23 -371 23h-5q-116 0 -147.5 -7.5t-68.5 -32t-64 -72.5q-59 -109 -98 -335q-18 -127 -18 -211q0 -221 190 -222q168 0 391 23l74 6l-12 -86q-215 -59 -447 -59h-12 q-301 2 -301 360z" />
<glyph unicode="d" horiz-adv-x="1107" d="M170 388.5q0 74.5 13.5 162.5t34 162.5t56 150.5t82.5 126t119 82t140.5 32t136.5 -8q158 -23 274 -74l94 586h113l-254 -1608h-82l-14 121q-55 -39 -184.5 -86t-218.5 -47t-150 35q-111 61 -146 217q-14 74 -14 148.5zM287 395q0 -172 71 -241q49 -48 125 -48h4 q74 0 152 17q111 23 258 82l115 725q-207 57 -391 57q-248 0 -318 -426q-16 -109 -16 -166z" />
<glyph unicode="e" horiz-adv-x="1081" d="M174 526q18 102 27.5 147.5t25 95.5t30.5 86t38.5 73t51.5 62.5t65 50t81 38t99 21.5t139 8t158 -16q217 -47 217 -242q0 -141 -69.5 -226t-155.5 -118q-156 -61 -320 -62q-88 0 -171 12.5t-105 22.5q-17 -98 -17 -173v-3q0 -73 21 -117q35 -86 162 -88q37 -2 143 -2 t358 37l-12 -88q-217 -59 -500 -59q-195 0 -254 141q-31 73 -31 182q0 112 19 217zM297 561q82 -10 154.5 -10t117.5 2t123 15.5t135.5 39t102.5 72.5q57 63 57 151.5t-58.5 124t-215.5 35.5q-166 0 -244 -57q-29 -20 -49.5 -36.5t-37.5 -49.5t-26.5 -53.5t-21.5 -61.5 q-14 -53 -24.5 -105.5t-12.5 -66.5z" />
<glyph unicode="f" horiz-adv-x="794" d="M188 971l15 84l203 32l18 117q41 262 119 334q32 31 82.5 50.5t86.5 19.5h61.5t107.5 -13.5t123 -25.5l-11 -78h-250q-100 0 -139 -60.5t-63 -226.5l-19 -117h348l-20 -116h-348l-158 -971h-119l158 971h-195z" />
<glyph unicode="g" horiz-adv-x="1118" d="M76 -508l12 76l506 -8q4 -2 6 -2q82 0 151.5 58t88.5 171l43 272q-98 -37 -208 -57t-206 -20t-170 45t-100 125q-33 90 -33 198.5t20 212.5q41 258 159 397.5t296 139.5q160 0 327 -19.5t189 -21.5l-201 -1272q-29 -180 -131 -263t-215 -83q-16 0 -35 2zM330 168 q45 -70 159 -70q137 0 224.5 16.5t183.5 41.5l131 823l-383 4h-4q-78 0 -141.5 -43t-100.5 -113q-114 -205 -114 -486q0 -101 45 -173z" />
<glyph unicode="h" d="M123 0l254 1606h117l-103 -645q86 47 141 71q156 74 306.5 74t224.5 -102q55 -78 55 -181q0 -31 -6 -65l-121 -758h-117l121 758q4 27 4 51q0 74 -43 126t-151.5 52t-194.5 -25.5t-231 -93.5l-137 -868h-119z" />
<glyph unicode="i" horiz-adv-x="364" d="M123 0l172 1087h119l-172 -1087h-119zM307 1280l15 102q6 41 47 41h77q33 0 33 -30v-11l-16 -102q-4 -41 -47 -41h-76q-16 -1 -26 11q-8 8 -8 21q0 4 1 9z" />
<glyph unicode="j" horiz-adv-x="399" d="M57 -553l260 1640h117l-172 -1095q-51 -330 -131 -545h-74zM328 1280l16 102q6 41 49 41h76q33 0 33 -30v-11l-17 -102q-6 -41 -47 -41h-76q-35 0 -35 30q0 5 1 11z" />
<glyph unicode="k" horiz-adv-x="991" d="M123 0l254 1602h119l-154 -967q190 25 367.5 170t210.5 282h131q-33 -115 -121 -223q-158 -195 -352 -272l391 -592h-142l-368 561q-23 -6 -70 -8t-59 0l-88 -553h-119z" />
<glyph unicode="l" horiz-adv-x="608" d="M172 256q0 59 10 131l193 1217h117l-193 -1217q-10 -76 -10 -115t6 -63.5t13 -41.5t26 -28q27 -12 120 -32.5t99 -20.5l-14 -86h-138q-229 0 -229 256z" />
<glyph unicode="m" horiz-adv-x="1853" d="M123 0l172 1087h80l18 -129q94 51 139.5 73t127 46.5t168.5 24.5t160 -49t97 -125q244 174 488 174q141 0 223 -101q61 -78 62 -184q0 -31 -5 -65l-120 -752h-117l119 752q4 23 4 54.5t-16.5 74.5t-61.5 72.5t-109 29.5q-123 0 -224 -28.5t-220 -94.5q2 -8 2 -31.5 t-8 -78.5l-119 -750h-117l119 752q4 23 4 53.5t-17.5 74.5t-62.5 73.5t-134 29.5t-170 -24.5t-228 -92.5l-135 -866h-119z" />
<glyph unicode="n" d="M123 0l172 1087h80l16 -126q207 111 324 135q57 10 116 10q156 0 230 -102q57 -78 57 -181q0 -31 -6 -65l-121 -758h-117l121 758q4 27 4 51q0 72 -44 125t-151.5 53t-193.5 -25.5t-231 -93.5l-137 -868h-119z" />
<glyph unicode="o" horiz-adv-x="1150" d="M168 352q0 82 18.5 199t49 212t73.5 160.5t105 104.5q116 70 325 70q254 0 342 -140q57 -92 58 -245q0 -86 -17 -189q-51 -305 -164.5 -419.5t-377 -114.5t-353.5 125q-59 82 -59 237zM285 326q0 -33 14 -77t35.5 -73t64.5 -43q68 -27 175.5 -27t167 13.5t114.5 56.5 q102 78 148 352q18 115 18 180.5t-10.5 110.5t-33 78t-60.5 51q-68 31 -170.5 31t-152.5 -7t-100.5 -33t-83 -75t-61.5 -131q-65 -187 -65 -401v-6z" />
<glyph unicode="p" horiz-adv-x="1122" d="M35 -553l268 1624q195 25 500 25q90 0 155 -35q160 -84 160 -361q0 -78 -14 -176q-76 -542 -448 -542h-1q-82 0 -201.5 20.5t-203.5 56.5l-98 -612h-117zM268 154q183 -56 322 -56q39 0 87 5.5t95 27t90 68.5q86 96 125 344q14 90 14 164q0 270 -206 270h-394z" />
<glyph unicode="q" horiz-adv-x="1130" d="M168 344q0 109 18 211q88 545 465 545q168 0 504 -39l-254 -1614h-119l97 612q-98 -37 -208 -58t-204 -21t-167 44t-99 121q-33 90 -33 199zM285 305q0 -92 49 -149.5t159.5 -57.5t187.5 10.5t214 43.5l131 831h-393q-78 0 -138.5 -42t-98.5 -110.5t-59.5 -137 t-36.5 -182.5t-15 -206z" />
<glyph unicode="r" horiz-adv-x="849" d="M123 0l172 1087h80l16 -137q8 4 40 21.5t42 22.5t40 19.5t43 20.5t42 17.5t45 16.5t43 12t48.5 10.5t48 6.5t96 3t104.5 -17l-18 -116q-55 14 -116 14t-85.5 -2t-43 -4t-45 -8t-39.5 -8.5t-42 -13.5t-38 -13t-43 -17.5t-41 -17.5t-48 -20.5t-49 -22.5l-133 -854h-119z " />
<glyph unicode="s" horiz-adv-x="1036" d="M131 16l14 84h541q76 0 100 21q57 43 70 117l16 108q4 18 5 33q0 102 -129 102h-291q-154 0 -208 48.5t-54 138.5q0 33 6 73l14 101q23 135 97.5 198.5t228.5 63.5q76 0 252 -9.5t258 -17.5l-15 -88h-514q-98 0 -138 -41t-50 -110l-17 -101q-6 -38 -6 -60q-1 -22 5 -30 q12 -16 15 -23.5t16 -12.5t17.5 -7t21.5 -3t22.5 -1h27h25.5h293q127 0 184 -63.5t57 -145.5q0 -25 -4 -49l-18 -121q-27 -176 -158 -219q-61 -18 -140 -18t-278.5 12t-265.5 20z" />
<glyph unicode="t" horiz-adv-x="749" d="M188 971l15 88l196 31l78 303h88l-47 -303h332l-21 -119h-329l-92 -584q-10 -66 -10 -116q0 -4 -1 -7q1 -44 7 -70q6 -28 26 -44q27 -23 125 -44.5t104 -21.5l-12 -84h-137q-231 0 -231 256q0 57 10 131l92 584h-193z" />
<glyph unicode="u" horiz-adv-x="1107" d="M150 262q0 33 6 68l118 757h119l-121 -757q-4 -31 -4 -58q0 -72 43 -122t151.5 -50t194.5 26t232 93l137 868h117l-172 -1087h-80l-17 127q-88 -47 -141 -72.5t-136 -49t-161 -23.5q-158 0 -231 100q-55 76 -55 180z" />
<glyph unicode="v" horiz-adv-x="1064" d="M193 1087h122l228 -940l420 775q49 98 61 165h90q8 -27 8 -71.5t-35 -116.5l-485 -899h-147z" />
<glyph unicode="w" horiz-adv-x="1638" d="M193 1087h118l224 -933l417 761q53 102 64 168h84q8 -27 8 -71.5t-37 -116.5l-82 -164l127 -571l430 760q51 102 62 167h86q8 -31 8 -76.5t-37 -111.5l-510 -899h-119l-133 588l-319 -588h-129z" />
<glyph unicode="x" horiz-adv-x="1017" d="M49 0l481 547l-309 540h139l252 -444l392 444h151l-479 -552l303 -535h-137l-252 438l-381 -438h-160z" />
<glyph unicode="y" horiz-adv-x="1114" d="M193 1087h122l142 -849q20 -115 135 -117l22 2l404 805q41 80 53 168h94q11 -33 11 -79.5t-37 -115.5l-447 -899q-127 -248 -207 -346q-102 -129 -167.5 -164t-116.5 -43v82q70 31 137 115q80 98 124 179t51 95t23.5 46t18.5 34q-53 0 -102 29q-94 53 -117 196z" />
<glyph unicode="z" horiz-adv-x="927" d="M92 2l14 117l760 852h-649l16 116h811l-16 -116l-752 -852h615l-19 -117h-780z" />
<glyph unicode="{" horiz-adv-x="614" d="M137 682l19 111q2 0 20.5 1t25.5 1t24.5 2t25.5 4t23.5 6t23.5 9t20.5 13.5t18.5 18.5q16 25 20 53l76 488q61 377 430 376l-18 -116h-4q-121 0 -194 -60.5t-95 -204.5l-76 -483q-12 -72 -67.5 -116t-133.5 -58q98 -14 134 -92q12 -27 12 -47.5t-2 -32.5l-86 -537 q-10 -53 -10 -119.5t36 -109.5q51 -61 166 -61h15l-19 -117q-172 0 -246 90q-70 86 -69 197q0 51 8 127l86 522q2 10 2 20q0 49 -46 82t-105 33h-15z" />
<glyph unicode="|" horiz-adv-x="481" d="M152 -147l272 1724h117l-271 -1724h-118z" />
<glyph unicode="}" horiz-adv-x="606" d="M-27 -389l19 117h6q119 0 190.5 57t94.5 197l84 520q10 68 65 112.5t131 57.5q-72 10 -107.5 54t-35.5 93q0 14 2 29l80 500q10 55 10 100q0 201 -201 201h-14l18 116q102 0 173 -37.5t100 -97.5q43 -90 43 -164.5t-13 -124.5l-77 -489q-2 -10 -2 -21q0 -51 48 -82.5 t111 -31.5h7l-19 -111h-6q-178 0 -197 -108l-84 -518q-57 -369 -426 -369z" />
<glyph unicode="~" horiz-adv-x="929" d="M287 1171q12 10 48 38t52 38t45 27.5t54.5 24t62.5 6.5t103.5 -49.5t94 -49.5t48 5.5t37 11.5t38 16t33.5 18.5t32.5 21.5t29.5 17l24 -61q-6 -4 -41 -35t-50 -41t-46 -31q-53 -35 -106.5 -34.5t-122 49.5t-104.5 49t-66.5 -11.5t-75.5 -36t-68 -34.5z" />
<glyph unicode="&#xa1;" horiz-adv-x="532" d="M92 -551l191 1090h112l-155 -1090h-148zM297 791l18 116q6 35 47 37h76q16 0 26.5 -12t8.5 -29l-18 -112q-8 -37 -43 -43h-84q-35 2 -31 43z" />
<glyph unicode="&#xa2;" horiz-adv-x="993" d="M143 360q0 84 20.5 200t49.5 210t64.5 154.5t72.5 97.5q78 80 256 80q18 0 37 -2l31 188h94l-33 -194q160 -16 314 -50l-13 -83q-262 23 -377.5 22.5t-147.5 -7.5t-68.5 -31.5t-63.5 -72.5q-57 -109 -98 -335q-19 -129 -19 -211q0 -221 191 -222q168 0 391 23l76 6 l-15 -86q-172 -49 -344 -57l-26 -176h-95l27 174q-141 0 -225 69q-98 82 -99 303z" />
<glyph unicode="&#xa3;" horiz-adv-x="1193" d="M102 0l15 90l151 29l90 571h-147l12 70l152 28l39 246q43 274 164 371q80 66 153 78q98 16 213 16t318 -20l69 -9l-14 -88h-369q-109 0 -173 -11t-116.5 -48t-81 -105.5t-45.5 -183.5l-38 -246l563 -28l-13 -70h-569l-88 -571h727l-18 -119h-994z" />
<glyph unicode="&#xa4;" horiz-adv-x="954" d="M162 354l104 88q-45 76 -45 156q0 143 98 248l-77 90l69 55l74 -88q98 70 220 70t198 -70l112 94l54 -71l-113 -95q43 -67 43 -147q0 -145 -98 -258l82 -98l-72 -56l-76 93q-92 -70 -216 -70t-200 76l-102 -90zM315 598q0 -76 52 -141q53 -70 155 -70q133 0 215 102 q72 88 72 176.5t-52 153t-157 64.5q-113 0 -190 -72q-95 -86 -95 -213z" />
<glyph unicode="&#xa5;" horiz-adv-x="1218" d="M217 344l14 90h359l20 133h-358l14 90h350l-331 842h125l286 -717l572 717h143l-668 -842h398l-15 -90h-399l-20 -133h399l-14 -90h-396l-49 -344h-117l50 344h-363z" />
<glyph unicode="&#xa6;" horiz-adv-x="483" d="M152 -147l106 671h119l-107 -671h-118zM313 879l111 698h117l-111 -698h-117z" />
<glyph unicode="&#xa7;" horiz-adv-x="1132" d="M190 16l15 86h524q53 0 87 8.5t61.5 36t35.5 78.5l23 150q4 23 4 50.5t-22.5 44.5t-114.5 17h-338q-242 0 -242 179q0 29 4 61l21 129q12 80 40.5 125t88.5 59q-76 39 -76 127q0 20 2 41l23 146q41 252 307 252q68 0 268.5 -13.5t265.5 -19.5l-12 -86h-541 q-76 0 -116.5 -33t-53.5 -102l-22 -144q-2 -14 -2 -42.5t30.5 -49t100.5 -20.5h346q238 0 238 -193q0 -27 -5 -55l-20 -127q-25 -166 -121 -178q74 -25 72 -101q-2 -33 -6 -67l-25 -150q-25 -156 -104 -200q-72 -41 -217 -41q-68 0 -259.5 12t-259.5 20zM340 668.5 q0 -29.5 23.5 -46t109.5 -16.5h346q131 0 154 47q12 23 18 72l21 127q4 25 4 54.5t-18.5 51t-116.5 21.5h-346q-84 0 -113 -16.5t-40 -43t-17 -71.5l-21 -125q-4 -25 -4 -54.5z" />
<glyph unicode="&#xa8;" horiz-adv-x="923" d="M289 1169.5q0 16.5 2 30.5t16.5 32.5t34.5 29t49 10.5t47.5 -22.5t14.5 -51.5t-17 -47q-31 -41 -70.5 -41t-58 21.5t-18.5 38zM811 1169.5q0 16.5 3 36t30.5 43t62.5 23.5t51.5 -20.5t16.5 -36t-2 -31t-15 -33.5q-31 -41 -70.5 -41t-58 21.5t-18.5 38z" />
<glyph unicode="&#xa9;" horiz-adv-x="1689" d="M213 573q0 182 57 398q63 233 185 370q63 70 156 114t208 44h529q346 0 346 -479q0 -285 -92 -555q-100 -295 -271 -404q-94 -61 -207 -61h-528q-111 0 -190.5 56.5t-118.5 140.5q-74 160 -74 376zM307.5 611.5q-0.5 -58.5 4.5 -131t32 -168t93.5 -155t160.5 -59.5h539 q145 0 267 171t171 485q25 154 24 270q0 377 -251 377h-545q-375 0 -479 -647q-16 -84 -16.5 -142.5zM571 571q0 93 15 179q41 246 134 345t221 99t368 -45l-13 -76q-170 25 -360 25q-197 0 -254 -357q-12 -85 -12 -153q0 -190 155 -191q193 0 383 33l-12 -76 q-197 -53 -387 -53q-131 0 -197 109q-41 68 -41 161z" />
<glyph unicode="&#xaa;" horiz-adv-x="735" d="M147 565l15 88h604l-12 -88h-607zM221 1046.5q0 47.5 8.5 111t29 119.5t48 92t56 61.5t62.5 39t59.5 19.5t49 9t51 3t82 -8t118 -32.5t94.5 -55.5l-93 -625h-53l-12 115q-43 -47 -119 -85t-136 -38t-103.5 16.5t-84 59.5t-49 97t-8.5 101.5zM313 1028q0 -55 29 -96 q43 -63 115.5 -63.5t132 27.5t137.5 83l55 385q-102 41 -190 41t-138.5 -29.5t-85 -90t-45 -131.5t-10.5 -126z" />
<glyph unicode="&#xab;" horiz-adv-x="1140" d="M217 725l488 416l71 -84l-397 -342l287 -342l-84 -74zM602 725l488 416l73 -84l-399 -342l289 -342l-86 -74z" />
<glyph unicode="&#xac;" horiz-adv-x="1083" d="M184 541l19 118h854l-51 -333h-119l35 215h-738z" />
<glyph unicode="&#xad;" horiz-adv-x="729" d="M123 535l18 118h643l-18 -118h-643z" />
<glyph unicode="&#xae;" horiz-adv-x="1689" d="M213 573q0 180 57 396q63 233 185 370q63 72 156 116t208 44h529q346 0 346 -479q0 -285 -92 -555q-100 -295 -271 -404q-94 -61 -207 -61h-528q-111 0 -190.5 56.5t-118.5 140.5q-74 160 -74 376zM307.5 611.5q-0.5 -58.5 3.5 -131t32 -168t94.5 -155t160.5 -59.5h539 q145 0 267 171t171 485q25 154 24 272q0 375 -249 375h-547q-375 0 -479 -647q-16 -84 -16.5 -142.5zM582 313l139 875h362q98 0 166 -51q63 -49 64 -162q0 -117 -45 -201q-45 -80 -142 -92q-14 -2 -34.5 -4t-28.5 -4l141 -361h-108l-142 363l-215 20l-61 -383h-96zM750 762 h278q88 0 119 24.5t43 55.5q25 63 24.5 126.5t-31 92.5t-104.5 29h-276z" />
<glyph unicode="&#xaf;" horiz-adv-x="802" d="M274 1087l15 97h571l-14 -97h-572z" />
<glyph unicode="&#xb0;" horiz-adv-x="651" d="M303 1282q0 94 66.5 158.5t138.5 64.5q135 0 188 -104q23 -43 23 -72v-35q-4 -88 -66.5 -148.5t-148.5 -60.5t-143.5 58.5t-57.5 138.5zM377 1284q0 -49 36 -86t91 -37t96 39q45 43 45 98.5t-33.5 93.5t-80 38t-78.5 -19q-76 -43 -76 -127z" />
<glyph unicode="&#xb1;" horiz-adv-x="1067" d="M141 213l19 117h831l-18 -117h-832zM236 809l18 117h356l56 358h118l-57 -358h358l-18 -117h-358l-58 -356h-116l57 356h-356z" />
<glyph unicode="&#xb2;" horiz-adv-x="794" d="M154 729l14 88q14 12 79.5 57.5t107.5 76t112 82.5t118 97.5t97 98.5t79 104t35 90t5 78q0 119 -156 119h-356q-4 0 3 36l7 36q213 25 379 24q90 0 146.5 -49t68.5 -98t12 -80q0 -109 -61.5 -207t-135 -169t-142 -126t-134 -102t-78.5 -60h449l-17 -96h-632z" />
<glyph unicode="&#xb3;" horiz-adv-x="841" d="M156 754l12 63h360q178 0 203 156l8 47q2 17 2 33q0 53 -37.5 87t-107.5 36l-291 10l12 71l289 11q111 6 164 69q29 33 35 76l6 53q4 20 4 54t-30.5 62t-114.5 28h-385l10 65q80 25 156 27q92 4 149 4h96q119 0 167 -61.5t48 -133.5q0 -20 -2 -41l-12 -73 q-12 -72 -57 -123t-92 -66q43 -23 67.5 -65.5t24.5 -73.5t-2 -47l-11 -59q-18 -119 -83.5 -180.5t-208.5 -61.5q-281 0 -379 33z" />
<glyph unicode="&#xb4;" horiz-adv-x="464" d="M213 1087l272 273h148l-316 -273h-104z" />
<glyph unicode="&#xb5;" horiz-adv-x="1208" d="M96 -553l260 1640h119l-121 -757q-6 -26 -6 -49q0 -72 44 -126.5t151.5 -54.5t193.5 26t232 93l139 868h117l-172 -1087h-80l-17 127q-166 -88 -229 -109q-121 -37 -211 -36q-133 0 -205 86l-98 -621h-117z" />
<glyph unicode="&#xb6;" horiz-adv-x="1173" d="M238 965.5q0 35.5 4 60.5l28 191q35 217 248 268q58 14 121 14h727l-20 -123h-142l-217 -1376h-119l219 1380h-239l-307 -1933h-117l207 1311q-63 -29 -119 -29h-2q-104 0 -171 47t-84 100.5t-17 89zM358 984.5q0 -21.5 8.5 -49.5t27 -46.5t46.5 -28.5q41 -16 88 -16h115 l86 542h-111q-104 0 -160.5 -48t-68.5 -128l-29 -184q-2 -20 -2 -41.5z" />
<glyph unicode="&#xb7;" horiz-adv-x="561" d="M287 739l12 86q6 43 49 43h80q37 0 37 -30q0 -4 -2 -13l-12 -86q-8 -39 -48 -39h-81q-18 0 -28.5 11.5t-6.5 27.5z" />
<glyph unicode="&#xb8;" horiz-adv-x="526" d="M45 -354l8 55l99 25q78 20 108 96q14 39 25 102h102q-18 -125 -46 -173t-54 -66q-54 -39 -152 -39h-90z" />
<glyph unicode="&#xb9;" horiz-adv-x="565" d="M236 1505l10 66q74 0 149.5 34.5t116.5 67.5l39 35h94l-156 -979h-96l137 858q-37 -29 -113.5 -55.5t-180.5 -26.5z" />
<glyph unicode="&#xba;" horiz-adv-x="780" d="M170 569l14 88h609l-13 -88h-610zM225 1012q0 53 13.5 141t37 156.5t67.5 116t108 65.5q66 20 170 20q176 0 239 -86q43 -55 43 -141t-14.5 -175t-37 -152.5t-65.5 -110.5q-78 -84 -267 -84t-253 86q-41 57 -41 164zM319 1016q0 -41 9.5 -68.5t23 -45t41.5 -28.5 q45 -16 113.5 -16t97.5 3t63.5 17.5t55.5 43.5q49 66 66.5 175t17.5 160.5t-9.5 83t-37.5 48.5q-47 27 -135 26.5t-126 -7.5t-74 -37t-57.5 -87t-35 -142t-13.5 -126z" />
<glyph unicode="&#xbb;" horiz-adv-x="1134" d="M166 385l403 344l-286 338l86 74l360 -422l-489 -420zM557 385l404 344l-287 338l86 74l360 -422l-489 -420z" />
<glyph unicode="&#xbc;" horiz-adv-x="1861" d="M236 1300l10 66q74 0 149.5 35t116.5 67l39 35h94l-156 -979h-96l137 858q-37 -29 -113.5 -55.5t-180.5 -26.5zM379 0l1149 1577h98l-1151 -1577h-96zM1051 317l518 656h117l-461 -594h397l39 248l59 98h54l-56 -346h121l-12 -76l-125 -24l-43 -279h-96l43 279h-529z" />
<glyph unicode="&#xbd;" horiz-adv-x="1990" d="M236 1300l10 66q74 0 149.5 35t116.5 67l39 35h94l-156 -979h-96l137 858q-37 -29 -113.5 -55.5t-180.5 -26.5zM332 0l1151 1577h96l-1151 -1577h-96zM1237 0l14 90q14 10 80 55t109 76t112.5 84t116.5 98.5t97.5 97.5t79 104t34.5 90t6 79q0 117 -157 117h-357 q-4 0 3 36t9 36q211 25 377 24q90 0 146.5 -48t69 -97t12.5 -80q0 -111 -60.5 -209t-135.5 -169t-142.5 -126t-133 -102t-77.5 -58h446l-16 -98h-633z" />
<glyph unicode="&#xbe;" horiz-adv-x="2093" d="M156 549l12 63h360q178 0 203 156l8 47q2 17 2 33q0 53 -37.5 87t-107.5 36l-291 10l12 72l289 10q80 4 134.5 42t64.5 103l6 54q4 20 4 54t-30.5 61.5t-114.5 27.5h-385l10 65q80 25 156 27q92 4 149 4h116.5t110.5 -35q84 -53 84 -159q0 -20 -2 -41l-12 -74 q-12 -72 -57 -123t-92 -65q59 -33 83 -103q8 -27 8.5 -48.5t-1.5 -35.5l-11 -59q-18 -119 -83.5 -180.5t-208.5 -61.5q-281 0 -379 33zM584 0l1151 1577h96l-1149 -1577h-98zM1225 317l518 656h115l-463 -594h401l39 248l59 98h54l-56 -346h119l-10 -76l-125 -24l-43 -279 h-98l45 279h-529z" />
<glyph unicode="&#xbf;" horiz-adv-x="1101" d="M47 -252q0 39 8 82l33 205q33 211 176 282q96 49 242 50q67 -1 145 -13l33 209h121l-49 -305q-88 2 -154.5 2t-112.5 -2q-113 -2 -190.5 -56.5t-95.5 -166.5l-33 -209q-6 -41 -6 -82q0 -117 96 -156q61 -27 176 -26h541l-12 -80q-289 -35 -496 -35q-35 0 -53.5 1t-20.5 1 q-203 0 -284 105q-63 80 -64 194zM707 791q0 4 2 10l18 121q4 39 45 39h82q18 0 28.5 -10.5t6.5 -28.5l-19 -121q-4 -41 -47 -41h-84q-33 0 -32 31z" />
<glyph unicode="&#xc0;" horiz-adv-x="1339" d="M92 0l793 1499h123l292 -1499h-118l-88 451h-633l-238 -451h-131zM524 569h547l-145 772zM670 1905h137l213 -273h-105z" />
<glyph unicode="&#xc1;" horiz-adv-x="1339" d="M92 0l793 1499h123l292 -1499h-118l-88 451h-633l-238 -451h-131zM524 569h547l-145 772zM915 1632l273 273h147l-315 -273h-105z" />
<glyph unicode="&#xc2;" horiz-adv-x="1339" d="M92 0l793 1499h123l292 -1499h-118l-88 451h-633l-238 -451h-131zM524 569h547l-145 772zM676 1632l293 266h110l181 -266h-101l-141 193l-221 -193h-121z" />
<glyph unicode="&#xc3;" horiz-adv-x="1339" d="M92 0l793 1499h123l292 -1499h-118l-88 451h-633l-238 -451h-131zM524 569h547l-145 772zM633 1710q106 80 160.5 103.5t99.5 22.5t115 -48t102.5 -47t102 30.5t98.5 51.5l24 -62q-12 -10 -48 -35.5t-53 -37t-46 -27.5q-100 -55 -187 -2q-41 25 -72.5 48.5t-46 23.5 t-30.5 -1t-46 -9.5t-48.5 -17.5t-53 -28.5t-49.5 -25.5z" />
<glyph unicode="&#xc4;" horiz-adv-x="1339" d="M92 0l793 1499h123l292 -1499h-118l-88 451h-633l-238 -451h-131zM524 569h547l-145 772zM638 1715q5 34 33.5 56.5t62.5 22.5t52.5 -22.5t13.5 -57.5t-32 -58.5t-60.5 -23.5t-54 24.5t-15.5 58.5zM1160 1715q5 34 34 56.5t62.5 22.5t51 -20.5t17.5 -36t-4 -37t-30.5 -45 t-60.5 -23.5t-54.5 24.5t-15.5 58.5z" />
<glyph unicode="&#xc5;" horiz-adv-x="1339" d="M92 0l793 1499h123l292 -1499h-118l-88 451h-633l-238 -451h-131zM524 569h547l-145 772zM772 1679q0 -72 50 -128t137.5 -56t160 65.5t72.5 170.5q0 72 -50 128t-136 56t-160 -66.5t-74 -169.5zM848 1697.5q0 55.5 51 102.5q45 39 90 39t74 -18q53 -33 53 -98.5 t-51 -112.5q-43 -39 -98.5 -39t-87 35.5t-31.5 91z" />
<glyph unicode="&#xc6;" horiz-adv-x="1867" d="M61 0l859 1227q149 217 288 254q53 14 87 16t64 2h50l614 -29l-14 -90h-620q-96 0 -123 -39q-23 -31 -29 -64.5t-6 -35.5q0 -6 -2 -12l-70 -430l674 -19l-14 -90l-678 -16l-68 -424q-8 -29 -3 -50.5t8 -37t16.5 -25.5t23.5 -15t29 -9q29 -4 65 -4h596l-16 -89l-594 -28 q-10 -2 -35.5 -2t-68.5 12q-143 35 -144 191q0 27 4 55l37 237h-450l-342 -485h-138zM618 604h394l116 719z" />
<glyph unicode="&#xc7;" horiz-adv-x="1173" d="M215 514q0 225 76 508q70 252 190 367q138 127 398 127q147 0 446 -58l-14 -90q-227 31 -432 31q-125 0 -182.5 -19.5t-91.5 -46t-72.5 -75t-69.5 -115.5q-68 -152 -96.5 -339.5t-28.5 -265t2 -120.5q14 -141 86 -224t201 -88q25 -2 117 -2t374 21l-12 -90 q-190 -47 -488 -47q-113 0 -192 45q-211 115 -211 481zM391 -354l8 55l99 25q57 12 86.5 58t44.5 140h104q-27 -158 -78 -218t-174 -60h-90z" />
<glyph unicode="&#xc8;" horiz-adv-x="1157" d="M195 193q0 29 6 63l155 981q43 262 281 262h20l631 -29l-14 -90h-635q-141 0 -164 -147l-69 -428l692 -17l-15 -90l-696 -18l-68 -428q-4 -23 -4 -42.5t6.5 -43t32.5 -35.5q37 -20 105 -20h614l-14 -86l-621 -31h-20q-102 0 -162.5 52t-60.5 147zM592 1894h137l213 -272 h-104z" />
<glyph unicode="&#xc9;" horiz-adv-x="1157" d="M195 193q0 29 6 63l155 981q43 262 281 262h20l631 -29l-14 -90h-635q-141 0 -164 -147l-69 -428l692 -17l-15 -90l-696 -18l-68 -428q-4 -23 -4 -42.5t6.5 -43t32.5 -35.5q37 -20 105 -20h614l-14 -86l-621 -31h-20q-102 0 -162.5 52t-60.5 147zM821 1622l273 272h147 l-315 -272h-105z" />
<glyph unicode="&#xca;" horiz-adv-x="1157" d="M195 193q0 29 6 63l155 981q43 262 281 262h20l631 -29l-14 -90h-635q-141 0 -164 -147l-69 -428l692 -17l-15 -90l-696 -18l-68 -428q-4 -23 -4 -42.5t6.5 -43t32.5 -35.5q37 -20 105 -20h614l-14 -86l-621 -31h-20q-102 0 -162.5 52t-60.5 147zM590 1622l293 268h110 l181 -268h-105l-135 188l-217 -188h-127z" />
<glyph unicode="&#xcb;" horiz-adv-x="1157" d="M195 193q0 29 6 63l155 981q43 262 281 262h20l631 -29l-14 -90h-635q-141 0 -164 -147l-69 -428l692 -17l-15 -90l-696 -18l-68 -428q-4 -23 -4 -42.5t6.5 -43t32.5 -35.5q37 -20 105 -20h614l-14 -86l-621 -31h-20q-102 0 -162.5 52t-60.5 147zM539 1717.5 q4 25.5 13 41t21.5 25.5t28.5 16t35.5 6t36.5 -10q35 -23 28.5 -63.5t-33 -64t-60.5 -23.5t-54 23.5t-16 49zM1061 1720.5q4 28.5 18.5 47t35 28.5t43 10t38.5 -10q35 -23 29 -63.5t-33 -64t-60.5 -23.5t-54 23.5t-16.5 52z" />
<glyph unicode="&#xcc;" horiz-adv-x="438" d="M184 0l238 1499h119l-238 -1499h-119zM205 1905h137l213 -273h-104z" />
<glyph unicode="&#xcd;" horiz-adv-x="438" d="M184 0l238 1499h119l-238 -1499h-119zM451 1632l270 273h149l-315 -273h-104z" />
<glyph unicode="&#xce;" horiz-adv-x="438" d="M184 0l238 1499h119l-238 -1499h-119zM211 1632l291 266h112l181 -266h-101l-141 193l-221 -193h-121z" />
<glyph unicode="&#xcf;" horiz-adv-x="438" d="M172 1691.5q0 16.5 3 37t30.5 43t56.5 22.5t45 -10q35 -23 29 -64t-33 -64.5t-60.5 -23.5t-52 21.5t-18.5 38zM184 0l238 1499h119l-238 -1499h-119zM695 1715q5 34 33 56.5t56 22.5q53 0 70 -39q4 -12 4 -23.5t-3 -32t-29.5 -44t-60.5 -23.5t-54.5 24.5t-15.5 58.5z" />
<glyph unicode="&#xd0;" horiz-adv-x="1378" d="M143 723l15 82h133l108 692q0 2 545 2q111 0 195 -37t129 -102q98 -135 108 -305q4 -49 4 -90q0 -264 -100 -521q-172 -444 -569 -444h-549l114 723h-133zM299 123h428q250 0 397 272q84 152 111 316t27 266q0 406 -338 405h-426l-90 -577h299l-15 -82h-299z" />
<glyph unicode="&#xd1;" horiz-adv-x="1339" d="M164 0l237 1499h115l606 -1280l205 1280h117l-238 -1499h-112l-609 1282l-202 -1282h-119zM598 1702q109 80 162 103.5t98 22.5t115 -46q70 -49 102.5 -49t102 31.5t100.5 52.5l22 -64q-12 -8 -47.5 -33.5t-52 -37t-45.5 -27.5q-102 -57 -188 -4q-39 25 -72 48t-47 23 h-29.5t-46.5 -9t-48 -17t-52 -27.5t-49 -28.5z" />
<glyph unicode="&#xd2;" horiz-adv-x="1376" d="M211 412.5q0 52.5 2 120t23.5 204.5t47 241.5t57.5 181.5t65.5 134.5t78.5 96.5t88 62.5t102.5 35.5t113 16t132 4t139 -7t121 -26.5t99.5 -54.5q92 -84 115 -233q8 -61 8 -115q0 -276 -70 -561q-70 -287 -198 -397q-90 -78 -170 -95q-190 -43 -404 -22q-150 14 -221 76 q-96 80 -119 223q-10 63 -10 115.5zM326 466q0 -87 12 -146.5t37.5 -102.5t77.5 -67q84 -39 219 -39t204.5 13t134 51t107.5 110q92 147 142 454q29 182 28 326q0 111 -41 205q-25 55 -100 92q-45 23 -113.5 27t-139.5 4t-118 -5.5t-111.5 -23.5t-101.5 -59t-80 -112 t-72.5 -183.5t-57 -284.5t-27.5 -259zM639 1905h137l213 -273h-104z" />
<glyph unicode="&#xd3;" horiz-adv-x="1376" d="M211 412.5q0 52.5 2 120t23.5 204.5t47 241.5t57.5 181.5t65.5 134.5t78.5 96.5t88 62.5t102.5 35.5t113 16t132 4t139 -7t121 -26.5t99.5 -54.5q92 -84 115 -233q8 -61 8 -115q0 -276 -70 -561q-70 -287 -198 -397q-90 -78 -170 -95q-190 -43 -404 -22q-150 14 -221 76 q-96 80 -119 223q-10 63 -10 115.5zM326 466q0 -87 12 -146.5t37.5 -102.5t77.5 -67q84 -39 219 -39t204.5 13t134 51t107.5 110q92 147 142 454q29 182 28 326q0 111 -41 205q-25 55 -100 92q-45 23 -113.5 27t-139.5 4t-118 -5.5t-111.5 -23.5t-101.5 -59t-80 -112 t-72.5 -183.5t-57 -284.5t-27.5 -259zM885 1632l272 273h148l-316 -273h-104z" />
<glyph unicode="&#xd4;" horiz-adv-x="1376" d="M211 412.5q0 52.5 2 120t23.5 204.5t47 241.5t57.5 181.5t65.5 134.5t78.5 96.5t88 62.5t102.5 35.5t113 16t132 4t139 -7t121 -26.5t99.5 -54.5q92 -84 115 -233q8 -61 8 -115q0 -276 -70 -561q-70 -287 -198 -397q-90 -78 -170 -95q-190 -43 -404 -22q-150 14 -221 76 q-96 80 -119 223q-10 63 -10 115.5zM326 466q0 -87 12 -146.5t37.5 -102.5t77.5 -67q84 -39 219 -39t204.5 13t134 51t107.5 110q92 147 142 454q29 182 28 326q0 111 -41 205q-25 55 -100 92q-45 23 -113.5 27t-139.5 4t-118 -5.5t-111.5 -23.5t-101.5 -59t-80 -112 t-72.5 -183.5t-57 -284.5t-27.5 -259zM645 1632l293 266h111l180 -266h-101l-141 193l-221 -193h-121z" />
<glyph unicode="&#xd5;" horiz-adv-x="1376" d="M211 412.5q0 52.5 2 120t23.5 204.5t47 241.5t57.5 181.5t65.5 134.5t78.5 96.5t88 62.5t102.5 35.5t113 16t132 4t139 -7t121 -26.5t99.5 -54.5q92 -84 115 -233q8 -61 8 -115q0 -276 -70 -561q-70 -287 -198 -397q-90 -78 -170 -95q-190 -43 -404 -22q-150 14 -221 76 q-96 80 -119 223q-10 63 -10 115.5zM326 466q0 -87 12 -146.5t37.5 -102.5t77.5 -67q84 -39 219 -39t204.5 13t134 51t107.5 110q92 147 142 454q29 182 28 326q0 111 -41 205q-25 55 -100 92q-45 23 -113.5 27t-139.5 4t-118 -5.5t-111.5 -23.5t-101.5 -59t-80 -112 t-72.5 -183.5t-57 -284.5t-27.5 -259zM602 1710q106 80 160.5 103.5t99.5 22.5t113 -48q72 -47 104.5 -47t102 30.5t98.5 51.5l25 -62q-14 -10 -42 -29.5t-43.5 -30.5t-39 -25.5t-41.5 -22.5q-102 -45 -187 16q-20 14 -39 27q-43 35 -72.5 34t-52 -5.5t-44 -13.5t-38 -18.5 t-41 -23.5t-40.5 -20z" />
<glyph unicode="&#xd6;" horiz-adv-x="1376" d="M211 412.5q0 52.5 2 120t23.5 204.5t47 241.5t57.5 181.5t65.5 134.5t78.5 96.5t88 62.5t102.5 35.5t113 16t132 4t139 -7t121 -26.5t99.5 -54.5q92 -84 115 -233q8 -61 8 -115q0 -276 -70 -561q-70 -287 -198 -397q-90 -78 -170 -95q-190 -43 -404 -22q-150 14 -221 76 q-96 80 -119 223q-10 63 -10 115.5zM326 466q0 -87 12 -146.5t37.5 -102.5t77.5 -67q84 -39 219 -39t204.5 13t134 51t107.5 110q92 147 142 454q29 182 28 326q0 111 -41 205q-25 55 -100 92q-45 23 -113.5 27t-139.5 4t-118 -5.5t-111.5 -23.5t-101.5 -59t-80 -112 t-72.5 -183.5t-57 -284.5t-27.5 -259zM607 1715q5 34 33 56.5t62.5 22.5t53 -22.5t13.5 -57.5t-31.5 -58.5t-60.5 -23.5t-54.5 24.5t-15.5 58.5zM1129.5 1715q5.5 34 33 56.5t62.5 22.5t53 -22.5t13 -57.5t-31.5 -58.5t-60.5 -23.5t-54.5 24.5t-15 58.5z" />
<glyph unicode="&#xd7;" horiz-adv-x="927" d="M190 479l291 252l-209 250l88 76l209 -250l303 260l72 -86l-301 -260l213 -252l-90 -76l-211 252l-293 -252z" />
<glyph unicode="&#xd8;" horiz-adv-x="1376" d="M152 0l116 147q-61 100 -61 262t24.5 322t56 274.5t65.5 195.5t81 137.5t93 90t112 52.5q106 29 254.5 28.5t240 -21t150.5 -75.5l70 86h94l-115 -143q66 -106 66 -314q0 -133 -25.5 -302t-60.5 -289.5t-82 -202.5t-98.5 -133.5t-124.5 -77.5q-123 -45 -285 -45 t-253 19.5t-151 76.5l-71 -88h-96zM324 444.5q0 -122.5 30 -192.5l854 1067q-45 47 -114.5 60.5t-172 13.5t-149.5 -5.5t-111.5 -23.5t-101.5 -59t-80 -112t-72.5 -183.5t-56 -277.5t-26.5 -287.5zM397 186q55 -57 176 -71q55 -4 143.5 -4t158 13t133 51t106.5 110 q92 147 141 454q27 180 27 310.5t-31 201.5z" />
<glyph unicode="&#xd9;" horiz-adv-x="1359" d="M244 416q0 96 18 215l137 868h121l-139 -868q-18 -129 -18.5 -210t14 -135.5t40 -90t72.5 -56.5q78 -31 198 -32t193.5 21t139.5 77q125 106 176 426l137 868h119l-137 -868q-27 -164 -68 -276.5t-110 -198.5q-137 -166 -443 -166q-225 0 -329 86q-121 102 -121 340z M649 1905h137l213 -273h-104z" />
<glyph unicode="&#xda;" horiz-adv-x="1359" d="M244 416q0 96 18 215l137 868h121l-139 -868q-18 -129 -18.5 -210t14 -135.5t40 -90t72.5 -56.5q78 -31 198 -32t193.5 21t139.5 77q125 106 176 426l137 868h119l-137 -868q-27 -164 -68 -276.5t-110 -198.5q-137 -166 -443 -166q-225 0 -329 86q-121 102 -121 340z M895 1632l272 273h148l-316 -273h-104z" />
<glyph unicode="&#xdb;" horiz-adv-x="1359" d="M244 416q0 96 18 215l137 868h121l-139 -868q-18 -129 -18.5 -210t14 -135.5t40 -90t72.5 -56.5q78 -31 198 -32t193.5 21t139.5 77q125 106 176 426l137 868h119l-137 -868q-27 -164 -68 -276.5t-110 -198.5q-137 -166 -443 -166q-225 0 -329 86q-121 102 -121 340z M655 1632l293 266h111l180 -266h-100l-142 193l-221 -193h-121z" />
<glyph unicode="&#xdc;" horiz-adv-x="1359" d="M244 416q0 96 18 215l137 868h121l-139 -868q-18 -129 -18.5 -210t14 -135.5t40 -90t72.5 -56.5q78 -31 198 -32t193.5 21t139.5 77q125 106 176 426l137 868h119l-137 -868q-27 -164 -68 -276.5t-110 -198.5q-137 -166 -443 -166q-225 0 -329 86q-121 102 -121 340z M617.5 1715q5.5 34 34 56.5t56 22.5t44.5 -10q37 -23 30.5 -64t-34 -64.5t-61.5 -23.5t-54.5 24.5t-15 58.5zM1140 1715q5 34 33.5 56.5t56 22.5t44.5 -10q37 -23 30.5 -64t-34 -64.5t-61 -23.5t-54 24.5t-15.5 58.5z" />
<glyph unicode="&#xdd;" horiz-adv-x="1288" d="M307 1499h125l281 -819l581 819h140l-678 -967l-84 -532h-119l84 532zM840 1632l272 273h148l-316 -273h-104z" />
<glyph unicode="&#xde;" horiz-adv-x="1134" d="M123 0l235 1493h117l-45 -289h418q78 0 133 -24.5t82 -57.5q82 -90 82 -241q0 -51 -10.5 -144.5t-45 -181.5t-73.5 -134t-96.5 -71.5t-101.5 -32t-105 -6.5q-311 4 -416 35l-55 -346h-119zM309 430h416q115 0 184 62q76 72 111 280q8 45 8 70.5t-3 55.5t-9 62.5t-25.5 56 t-37 37t-42.5 19.5q-39 12 -82 12h-417z" />
<glyph unicode="&#xdf;" horiz-adv-x="1150" d="M123 0l184 1159q31 195 157 313.5t355 118.5q125 0 213 -28.5t131 -75.5q68 -78 68 -176q0 -80 -39 -160q-72 -147 -178 -211q-25 -14 -68 -37.5t-66.5 -38t-52.5 -37.5q-68 -53 -67 -131q0 -35 25.5 -61.5t74.5 -37.5t105.5 -26.5t104.5 -33t70.5 -57.5t22.5 -71.5 t-2 -54.5l-14 -96q-31 -209 -248 -260q-55 -14 -110.5 -14t-111.5 5t-91 9t-90.5 12t-63.5 10l12 91l359 -11q94 0 151.5 50.5t69.5 119.5l14 82q2 8 2 29.5t-26.5 47.5t-74.5 36t-105.5 26.5t-104.5 36t-69.5 60.5t-22.5 73.5t7 79.5t34 91.5t82 85t182 112.5q57 35 102 94 q66 90 66 177.5t-53 123.5q-74 49 -242 50q-340 0 -389 -316l-184 -1159h-119z" />
<glyph unicode="&#xe0;" d="M162 303q0 45 1 96.5t22.5 176t59.5 222t80 152t98 90t101 48t92.5 18.5t112 6t198.5 -29.5t208 -101.5l-144 -981h-82l-14 123q-70 -45 -181.5 -91t-193.5 -46t-131 9t-92 34q-84 43 -119 172q-16 57 -16 102zM281 338q0 -236 213 -236q119 0 196 27q96 31 211 80 l111 733q-166 55 -293 55q-111 0 -177.5 -29.5t-112.5 -78.5t-79 -142.5t-51 -209t-18 -199.5zM434 1507h137l213 -272h-104z" />
<glyph unicode="&#xe1;" d="M162 303q0 45 1 96.5t22.5 176t59.5 222t80 152t98 90t101 48t92.5 18.5t112 6t198.5 -29.5t208 -101.5l-144 -981h-82l-14 123q-70 -45 -181.5 -91t-193.5 -46t-131 9t-92 34q-84 43 -119 172q-16 57 -16 102zM281 338q0 -236 213 -236q119 0 196 27q96 31 211 80 l111 733q-166 55 -293 55q-111 0 -177.5 -29.5t-112.5 -78.5t-79 -142.5t-51 -209t-18 -199.5zM694 1235l273 272h147l-315 -272h-105z" />
<glyph unicode="&#xe2;" d="M162 303q0 45 1 96.5t22.5 176t59.5 222t80 152t98 90t101 48t92.5 18.5t112 6t198.5 -29.5t208 -101.5l-144 -981h-82l-14 123q-70 -45 -181.5 -91t-193.5 -46t-131 9t-92 34q-84 43 -119 172q-16 57 -16 102zM281 338q0 -236 213 -236q119 0 196 27q96 31 211 80 l111 733q-166 55 -293 55q-111 0 -177.5 -29.5t-112.5 -78.5t-79 -142.5t-51 -209t-18 -199.5zM440 1235l293 266h111l180 -266h-100l-142 192l-221 -192h-121z" />
<glyph unicode="&#xe3;" d="M162 303q0 45 1 96.5t22.5 176t59.5 222t80 152t98 90t101 48t92.5 18.5t112 6t198.5 -29.5t208 -101.5l-144 -981h-82l-14 123q-70 -45 -181.5 -91t-193.5 -46t-131 9t-92 34q-84 43 -119 172q-16 57 -16 102zM281 338q0 -236 213 -236q119 0 196 27q96 31 211 80 l111 733q-166 55 -293 55q-111 0 -177.5 -29.5t-112.5 -78.5t-79 -142.5t-51 -209t-18 -199.5zM408 1313q109 80 162 103.5t98 22.5t114 -48q70 -47 103 -47.5t103.5 30.5t98.5 51l23 -61q-12 -10 -48 -35.5t-52.5 -37t-44.5 -27.5q-102 -55 -189 -2q-39 25 -71.5 48t-47 23 t-30 -1t-46 -9t-48 -17.5t-52.5 -29t-49 -25.5z" />
<glyph unicode="&#xe4;" d="M162 303q0 45 1 96.5t22.5 176t59.5 222t80 152t98 90t101 48t92.5 18.5t112 6t198.5 -29.5t208 -101.5l-144 -981h-82l-14 123q-70 -45 -181.5 -91t-193.5 -46t-131 9t-92 34q-84 43 -119 172q-16 57 -16 102zM281 338q0 -236 213 -236q119 0 196 27q96 31 211 80 l111 733q-166 55 -293 55q-111 0 -177.5 -29.5t-112.5 -78.5t-79 -142.5t-51 -209t-18 -199.5zM402.5 1317q5.5 33 34 56.5t62 23.5t53 -22.5t14.5 -57.5t-32.5 -58.5t-61.5 -23.5t-54.5 24.5t-15 57.5zM925 1317q5 33 33.5 56.5t62.5 23.5t53.5 -22.5t14 -57.5t-33 -58.5 t-61 -23.5t-54 24.5t-15.5 57.5z" />
<glyph unicode="&#xe5;" d="M162 303q0 45 1 96.5t22.5 176t59.5 222t80 152t98 90t101 48t92.5 18.5t112 6t198.5 -29.5t208 -101.5l-144 -981h-82l-14 123q-70 -45 -181.5 -91t-193.5 -46t-131 9t-92 34q-84 43 -119 172q-16 57 -16 102zM281 338q0 -236 213 -236q119 0 196 27q96 31 211 80 l111 733q-166 55 -293 55q-111 0 -177.5 -29.5t-112.5 -78.5t-79 -142.5t-51 -209t-18 -199.5zM569 1417q0 104 75 171t161 67t135 -57.5t49 -127.5q0 -72 -37 -127q-76 -109 -194 -108q-86 0 -137.5 56.5t-51.5 125.5zM645 1437.5q0 -55.5 33 -91t88 -35.5t98 39 q51 45 51 100t-31.5 92t-87 37t-98.5 -41q-53 -45 -53 -100.5z" />
<glyph unicode="&#xe6;" horiz-adv-x="1888" d="M82 306q0 44 1 94.5t22.5 175t61.5 223t80 154t97 90t100 46t88.5 17.5t102.5 6t183 -26.5t214 -86.5q117 109 357 109q317 0 376 -164q14 -41 15 -82q0 -154 -70 -238.5t-154 -117.5q-158 -61 -321 -62q-88 0 -171 12.5t-106 22.5q-14 -96 -14 -172t19 -121 q37 -86 163 -88q37 -2 143.5 -2t358.5 37l-14 -88q-217 -59 -498 -59q-201 0 -258 151q-80 -55 -205 -103t-211 -48t-135 10t-94 35q-84 47 -117 176q-14 55 -14 99zM199 334q0 -82 24 -135q45 -96 195 -97q164 0 334 74q49 23 84 45q-6 41 -6.5 120t35.5 275.5t102 307.5 q-215 72 -349 71q-168 0 -270 -106q-90 -94 -131 -354q-18 -119 -18 -201zM971 561q82 -10 154.5 -10t117.5 2t123 15.5t136.5 39t101.5 72.5q59 63 59 151.5t-59.5 124t-217.5 35.5q-166 0 -243 -57q-29 -20 -49.5 -37.5t-38 -49.5t-27.5 -53.5t-20 -62.5 q-14 -53 -24.5 -105.5t-12.5 -64.5z" />
<glyph unicode="&#xe7;" horiz-adv-x="1015" d="M168 348q0 90 21.5 219t58.5 232.5t75.5 162t93 90t101.5 40t115 8.5q164 0 438 -56l-14 -83q-260 23 -368.5 22.5t-132.5 -3.5t-52.5 -13.5t-49 -29.5t-43 -52t-40.5 -80q-39 -104 -68 -268q-18 -127 -18 -211q0 -221 190 -222q168 0 391 23l74 6l-12 -86 q-215 -59 -447 -59h-12q-301 2 -301 360zM276 -352l11 55l98 23q59 16 89 61t42 139h105q-16 -109 -44 -167t-76 -84.5t-132 -26.5h-93z" />
<glyph unicode="&#xe8;" horiz-adv-x="1081" d="M155.5 312.5q0.5 111.5 20 223t32.5 167t34.5 116t47 100t64.5 78.5t89.5 61.5t118 36t160.5 13.5t167 -16q217 -47 217 -242q0 -141 -69.5 -226t-155.5 -118q-156 -61 -320 -62q-88 0 -171 12.5t-105 22.5q-16 -96 -17 -145q0 -147 48.5 -190.5t134.5 -45.5 q37 -2 143 -2t358 37l-12 -88q-217 -59 -500 -59q-195 0 -254 141q-31 74 -30.5 185.5zM297 561q82 -10 154.5 -10t117.5 2t123 15.5t135.5 39t102.5 72.5q57 63 57 151.5t-58.5 124t-215.5 35.5q-166 0 -244 -57q-29 -20 -49.5 -36.5t-37.5 -49.5t-26.5 -53.5t-21.5 -61.5 q-14 -53 -24.5 -105.5t-12.5 -66.5zM436 1503h135l213 -272h-102z" />
<glyph unicode="&#xe9;" horiz-adv-x="1081" d="M155.5 312.5q0.5 111.5 20 223t32.5 167t34.5 116t47 100t64.5 78.5t89.5 61.5t118 36t160.5 13.5t167 -16q217 -47 217 -242q0 -141 -69.5 -226t-155.5 -118q-156 -61 -320 -62q-88 0 -171 12.5t-105 22.5q-16 -96 -17 -145q0 -147 48.5 -190.5t134.5 -45.5 q37 -2 143 -2t358 37l-12 -88q-217 -59 -500 -59q-195 0 -254 141q-31 74 -30.5 185.5zM297 561q82 -10 154.5 -10t117.5 2t123 15.5t135.5 39t102.5 72.5q57 63 57 151.5t-58.5 124t-215.5 35.5q-166 0 -244 -57q-29 -20 -49.5 -36.5t-37.5 -49.5t-26.5 -53.5t-21.5 -61.5 q-14 -53 -24.5 -105.5t-12.5 -66.5zM682 1231l270 272h148l-316 -272h-102z" />
<glyph unicode="&#xea;" horiz-adv-x="1081" d="M155.5 312.5q0.5 111.5 20 223t32.5 167t34.5 116t47 100t64.5 78.5t89.5 61.5t118 36t160.5 13.5t167 -16q217 -47 217 -242q0 -141 -69.5 -226t-155.5 -118q-156 -61 -320 -62q-88 0 -171 12.5t-105 22.5q-16 -96 -17 -145q0 -147 48.5 -190.5t134.5 -45.5 q37 -2 143 -2t358 37l-12 -88q-217 -59 -500 -59q-195 0 -254 141q-31 74 -30.5 185.5zM297 561q82 -10 154.5 -10t117.5 2t123 15.5t135.5 39t102.5 72.5q57 63 57 151.5t-58.5 124t-215.5 35.5q-166 0 -244 -57q-29 -20 -49.5 -36.5t-37.5 -49.5t-26.5 -53.5t-21.5 -61.5 q-14 -53 -24.5 -105.5t-12.5 -66.5zM440 1231l293 266h113l180 -266h-100l-144 192l-219 -192h-123z" />
<glyph unicode="&#xeb;" horiz-adv-x="1081" d="M155.5 312.5q0.5 111.5 20 223t32.5 167t34.5 116t47 100t64.5 78.5t89.5 61.5t118 36t160.5 13.5t167 -16q217 -47 217 -242q0 -141 -69.5 -226t-155.5 -118q-156 -61 -320 -62q-88 0 -171 12.5t-105 22.5q-16 -96 -17 -145q0 -147 48.5 -190.5t134.5 -45.5 q37 -2 143 -2t358 37l-12 -88q-217 -59 -500 -59q-195 0 -254 141q-31 74 -30.5 185.5zM297 561q82 -10 154.5 -10t117.5 2t123 15.5t135.5 39t102.5 72.5q57 63 57 151.5t-58.5 124t-215.5 35.5q-166 0 -244 -57q-29 -20 -49.5 -36.5t-37.5 -49.5t-26.5 -53.5t-21.5 -61.5 q-14 -53 -24.5 -105.5t-12.5 -66.5zM403.5 1307.5q4.5 27.5 18.5 46t34.5 29t48 10.5t47 -22.5t14.5 -57.5t-31.5 -58.5t-60.5 -23.5t-54.5 24.5t-16 52zM926 1307.5q4 27.5 18 46t34.5 29t48.5 10.5t47.5 -22.5t14 -57.5t-32 -58.5t-60 -23.5t-54 24.5t-16.5 52z" />
<glyph unicode="&#xec;" horiz-adv-x="378" d="M49 1493h137l213 -272h-104zM123 0l172 1087h119l-172 -1087h-119z" />
<glyph unicode="&#xed;" horiz-adv-x="378" d="M123 0l172 1087h119l-172 -1087h-119zM293 1221l270 272h148l-316 -272h-102z" />
<glyph unicode="&#xee;" horiz-adv-x="378" d="M49 1221l293 266h111l180 -266h-101l-141 192l-219 -192h-123zM123 0l172 1087h119l-172 -1087h-119z" />
<glyph unicode="&#xef;" horiz-adv-x="378" d="M6 1286q0 10 3 30.5t31 43t61.5 22.5t53 -22.5t14.5 -57t-32.5 -58t-54.5 -23.5q-53 0 -70 41q-6 14 -6 24zM123 0l172 1087h119l-172 -1087h-119zM528.5 1296.5q6.5 40.5 34 63t61 22.5t51 -20.5t17.5 -35.5t-3 -36.5t-30.5 -45t-55.5 -23.5t-44 10q-37 25 -30.5 65.5z " />
<glyph unicode="&#xf0;" horiz-adv-x="1105" d="M145 346q0 84 17 191q49 291 148.5 420.5t299.5 129.5h189q51 0 108.5 -20t73.5 -45q-25 217 -119 330l-327 -123l-23 92l270 100q-109 80 -280 80h-15l17 103q268 0 409 -136l265 101l24 -92l-221 -82q127 -184 127 -518q0 -168 -29 -349q-45 -283 -148.5 -405.5 t-297.5 -122.5h-195q-293 0 -293 346zM262 350q0 -76 12 -119q25 -86 103 -104q29 -8 51.5 -8h26.5h194h4q123 0 198 94t112 319q20 131 20 181.5v56.5q-4 199 -201 199h-184q-61 0 -106.5 -17.5t-86 -63.5t-71.5 -134t-51.5 -208t-20.5 -196z" />
<glyph unicode="&#xf1;" d="M123 0l172 1087h80l18 -126q205 111 322 135q57 10 116 10q156 0 230 -102q57 -78 57 -181q0 -31 -6 -65l-121 -758h-117l121 758q4 27 4 51q0 72 -44 125t-151.5 53t-193.5 -25.5t-231 -93.5l-137 -868h-119zM418 1307q106 80 160.5 103.5t89 22.5t68.5 -16.5t57 -32.5 q61 -47 98 -47t106.5 31t98.5 51l24 -61q-14 -10 -49 -36t-52.5 -37t-45.5 -28q-111 -61 -205 9q-20 14 -39 26q-43 35 -75.5 34t-63.5 -9t-48.5 -17.5t-52 -29t-49.5 -25.5z" />
<glyph unicode="&#xf2;" horiz-adv-x="1150" d="M168 352q0 82 21.5 216t61.5 242t107.5 172.5t156.5 90t224 25.5q254 0 342 -140q57 -92 58 -245q0 -86 -17 -189q-51 -305 -164.5 -419.5t-377 -114.5t-353.5 125q-59 82 -59 237zM285 326q0 -33 14 -77t35.5 -73t64.5 -43q68 -25 166.5 -26t148.5 7.5t100 33t83 69.5 q72 100 107 311q18 115 18 180.5t-10.5 110.5t-33 78t-60.5 51q-68 31 -163.5 31t-139.5 -4t-90 -20.5t-76 -47.5q-72 -72 -118 -233.5t-46 -347.5zM461 1493h137l213 -272h-104z" />
<glyph unicode="&#xf3;" horiz-adv-x="1150" d="M168 352q0 82 21.5 216t61.5 242t107.5 172.5t156.5 90t224 25.5q254 0 342 -140q57 -92 58 -245q0 -86 -17 -189q-51 -305 -164.5 -419.5t-377 -114.5t-353.5 125q-59 82 -59 237zM285 326q0 -33 14 -77t35.5 -73t64.5 -43q68 -25 166.5 -26t148.5 7.5t100 33t83 69.5 q72 100 107 311q18 115 18 180.5t-10.5 110.5t-33 78t-60.5 51q-68 31 -163.5 31t-139.5 -4t-90 -20.5t-76 -47.5q-72 -72 -118 -233.5t-46 -347.5zM707 1221l272 272h147l-315 -272h-104z" />
<glyph unicode="&#xf4;" horiz-adv-x="1150" d="M168 352q0 82 21.5 216t61.5 242t107.5 172.5t156.5 90t224 25.5q254 0 342 -140q57 -92 58 -245q0 -86 -17 -189q-51 -305 -164.5 -419.5t-377 -114.5t-353.5 125q-59 82 -59 237zM285 326q0 -33 14 -77t35.5 -73t64.5 -43q68 -25 166.5 -26t148.5 7.5t100 33t83 69.5 q72 100 107 311q18 115 18 180.5t-10.5 110.5t-33 78t-60.5 51q-68 31 -163.5 31t-139.5 -4t-90 -20.5t-76 -47.5q-72 -72 -118 -233.5t-46 -347.5zM467 1221l293 266h110l181 -266h-101l-141 192l-221 -192h-121z" />
<glyph unicode="&#xf5;" horiz-adv-x="1150" d="M168 352q0 82 21.5 216t61.5 242t107.5 172.5t156.5 90t224 25.5q254 0 342 -140q57 -92 58 -245q0 -86 -17 -189q-51 -305 -164.5 -419.5t-377 -114.5t-353.5 125q-59 82 -59 237zM285 326q0 -33 14 -77t35.5 -73t64.5 -43q68 -25 166.5 -26t148.5 7.5t100 33t83 69.5 q72 100 107 311q18 115 18 180.5t-10.5 110.5t-33 78t-60.5 51q-68 31 -163.5 31t-139.5 -4t-90 -20.5t-76 -47.5q-72 -72 -118 -233.5t-46 -347.5zM424 1298q106 80 160.5 103.5t99.5 22.5t113.5 -48t95.5 -47h15q14 0 59 17q88 33 135 65l24 -61q-14 -10 -49 -36t-52 -37 t-46 -28q-100 -55 -188 -2q-39 25 -71 48.5t-47.5 23.5t-30.5 -1t-46 -9.5t-48.5 -17.5t-52 -28.5t-49.5 -25.5z" />
<glyph unicode="&#xf6;" horiz-adv-x="1150" d="M168 352q0 82 21.5 216t61.5 242t107.5 172.5t156.5 90t224 25.5q254 0 342 -140q57 -92 58 -245q0 -86 -17 -189q-51 -305 -164.5 -419.5t-377 -114.5t-353.5 125q-59 82 -59 237zM285 326q0 -33 14 -77t35.5 -73t64.5 -43q68 -25 166.5 -26t148.5 7.5t100 33t83 69.5 q72 100 107 311q18 115 18 180.5t-10.5 110.5t-33 78t-60.5 51q-68 31 -163.5 31t-139.5 -4t-90 -20.5t-76 -47.5q-72 -72 -118 -233.5t-46 -347.5zM428 1296.5q6 40.5 33.5 63t62.5 22.5t53.5 -22.5t13.5 -57t-32 -58t-54.5 -23.5t-45.5 10q-37 25 -31 65.5zM950 1296.5 q6 40.5 34 63t62.5 22.5t53 -22.5t13.5 -57t-31.5 -58t-54.5 -23.5t-46 10q-37 25 -31 65.5z" />
<glyph unicode="&#xf7;" horiz-adv-x="1083" d="M205 664l18 118h852l-18 -118h-852zM508 344l16 102q6 43 47 43h78q37 0 31 -43l-16 -102q-4 -39 -46 -39h-75q-18 0 -27.5 11.5t-7.5 27.5zM610 981l15 104q6 41 47 41h78q33 0 32 -30q0 -6 -2 -11l-14 -104q-4 -39 -47 -39h-76q-39 0 -33 39z" />
<glyph unicode="&#xf8;" horiz-adv-x="1142" d="M104 0l111 123q-51 78 -51 223q0 84 18.5 205t49 215t73.5 159.5t107 102.5q117 70 314.5 70t291.5 -76l59 65h103l-109 -118q66 -90 66 -254q0 -86 -21.5 -216t-58.5 -228.5t-100.5 -163t-152.5 -91t-224 -26.5q-217 0 -316 82l-63 -72h-97zM283 349q0 -79 18 -126 l637 709q-63 47 -217 47q-80 0 -130 -7t-100.5 -33t-82.5 -75q-72 -109 -109 -336q-16 -100 -16 -179zM346 162q59 -55 221 -55.5t227.5 31.5t98.5 79q72 100 108 311q18 109 18.5 200t-30.5 149z" />
<glyph unicode="&#xf9;" horiz-adv-x="1107" d="M150 262q0 33 6 68l118 757h119l-121 -757q-4 -31 -4 -58q0 -72 43 -122t151.5 -50t194.5 26t232 93l137 868h117l-172 -1087h-80l-17 127q-88 -47 -141 -72.5t-136 -49t-161 -23.5q-158 0 -231 100q-55 76 -55 180zM432 1493h137l213 -272h-104z" />
<glyph unicode="&#xfa;" horiz-adv-x="1107" d="M150 262q0 33 6 68l118 757h119l-121 -757q-4 -31 -4 -58q0 -72 43 -122t151.5 -50t194.5 26t232 93l137 868h117l-172 -1087h-80l-17 127q-88 -47 -141 -72.5t-136 -49t-161 -23.5q-158 0 -231 100q-55 76 -55 180zM678 1221l272 272h148l-316 -272h-104z" />
<glyph unicode="&#xfb;" horiz-adv-x="1107" d="M150 262q0 33 6 68l118 757h119l-121 -757q-4 -31 -4 -58q0 -72 43 -122t151.5 -50t194.5 26t232 93l137 868h117l-172 -1087h-80l-17 127q-88 -47 -141 -72.5t-136 -49t-161 -23.5q-158 0 -231 100q-55 76 -55 180zM438 1221l293 266h111l180 -266h-100l-142 192 l-221 -192h-121z" />
<glyph unicode="&#xfc;" horiz-adv-x="1107" d="M150 262q0 33 6 68l118 757h119l-121 -757q-4 -31 -4 -58q0 -72 43 -122t151.5 -50t194.5 26t232 93l137 868h117l-172 -1087h-80l-17 127q-88 -47 -141 -72.5t-136 -49t-161 -23.5q-158 0 -231 100q-55 76 -55 180zM400.5 1303.5q5.5 33.5 33 56t62 22.5t53 -22.5 t13.5 -57t-31.5 -58t-60.5 -23.5t-54.5 24.5t-15 58zM923 1303.5q5 33.5 32.5 56t62.5 22.5t53.5 -22.5t13 -57t-32 -58t-60.5 -23.5t-54 24.5t-15 58z" />
<glyph unicode="&#xfd;" horiz-adv-x="1114" d="M193 1087h122l142 -849q20 -115 135 -117l22 2l404 805q41 80 53 168h94q10 -31 10.5 -78t-36.5 -117l-447 -899q-147 -291 -258 -410q-117 -127 -233 -143v82q70 31 137 115q80 98 124 179t51 95t23.5 46t18.5 34q-53 0 -102 29q-94 53 -117 196zM643 1210l272 273h148 l-315 -273h-105z" />
<glyph unicode="&#xfe;" horiz-adv-x="1112" d="M55 -553l342 2155h119l-102 -637q90 59 230 100t218 41t141.5 -52.5t90.5 -133.5q37 -117 36.5 -214.5t-10.5 -162t-19 -107.5t-26.5 -106.5t-38 -107.5t-55.5 -93t-76 -80q-98 -70 -235 -69q-78 0 -197 21.5t-203 57.5l-98 -612h-117zM285 152q139 -41 224 -46.5 t171 -7.5q123 0 203.5 103.5t115.5 349.5q12 82 12.5 170t-30.5 158q-45 111 -145 110q-115 0 -291 -59q-53 -16 -146 -49z" />
<glyph unicode="&#xff;" horiz-adv-x="1114" d="M193 1087h122l142 -849q20 -115 135 -117l22 2l404 805q41 80 53 168h94q10 -31 10.5 -78t-36.5 -117l-447 -899q-147 -291 -258 -410q-117 -127 -233 -143v82q70 31 137 115q80 98 124 179t51 95t23.5 46t18.5 34q-53 0 -102 29q-94 53 -117 196zM370 1308.5 q5 28.5 18 47t34.5 29t43 10.5t38.5 -11q37 -23 30.5 -63.5t-34 -64t-61 -23.5t-54 23.5t-15.5 52zM891 1302.5q4 22.5 8 34t11.5 19.5t15.5 15t18 12.5t21.5 8.5t28 3t32.5 -11q37 -23 31 -63.5t-34 -64t-61.5 -23.5t-54 23.5t-16.5 46z" />
<glyph unicode="&#x100;" horiz-adv-x="1339" d="M92 0l793 1499h123l292 -1499h-118l-88 451h-633l-238 -451h-131zM524 569h547l-145 772zM682 1632l16 97h570l-15 -97h-571z" />
<glyph unicode="&#x101;" d="M162 303q0 45 1 96.5t22.5 176t59.5 222t80 152t98 90t101 48t92.5 18.5t112 6t198.5 -29.5t208 -101.5l-144 -981h-82l-14 123q-70 -45 -181.5 -91t-193.5 -46t-131 9t-92 34q-84 43 -119 172q-16 57 -16 102zM281 338q0 -236 213 -236q119 0 196 27q96 31 211 80 l111 733q-166 55 -293 55q-111 0 -177.5 -29.5t-112.5 -78.5t-79 -142.5t-51 -209t-18 -199.5zM446 1235l17 96h569l-14 -96h-572z" />
<glyph unicode="&#x102;" horiz-adv-x="1339" d="M92 0l793 1499h123l292 -1499h-118l-88 451h-633l-238 -451h-131zM524 569h547l-145 772zM770 1835q0 14 2 31h72q-2 -15 -2 -29q0 -51 34.5 -92t98.5 -41h15q16 0 42.5 6t49 19.5t38.5 31.5q35 39 45 105h74q-18 -117 -89 -175.5t-167 -58.5t-154.5 58.5t-58.5 144.5z " />
<glyph unicode="&#x103;" d="M162 303q0 45 1 96.5t22.5 176t59.5 222t80 152t98 90t101 48t92.5 18.5t112 6t198.5 -29.5t208 -101.5l-144 -981h-82l-14 123q-70 -45 -181.5 -91t-193.5 -46t-131 9t-92 34q-84 43 -119 172q-16 57 -16 102zM281 338q0 -236 213 -236q119 0 196 27q96 31 211 80 l111 733q-166 55 -293 55q-111 0 -177.5 -29.5t-112.5 -78.5t-79 -142.5t-51 -209t-18 -199.5zM551 1438q0 14 2 30h72q-2 -14 -2 -36.5t14 -54t47 -51t53.5 -19.5h21.5h25.5t63.5 18q82 37 100 143h72q-16 -117 -87 -175t-168 -58t-155.5 58.5t-58.5 144.5z" />
<glyph unicode="&#x104;" horiz-adv-x="1662" d="M301 0l793 1499h123l292 -1499h-118l-88 451h-633l-238 -451h-131zM733 569h547l-145 772zM1221 -225q0 143 204 225h62q-164 -98 -164 -197q0 -82 131 -82h14l-16 -92q-23 -4 -45 -4q-86 0 -136 47t-50 103z" />
<glyph unicode="&#x105;" horiz-adv-x="1036" d="M133 303v96.5t21.5 176t60.5 222t80 152t98.5 90t102.5 48t92 18.5t110.5 6t197.5 -29.5t208 -101.5l-143 -981h-82l-15 123q-70 -45 -180.5 -91t-193 -46t-131 9t-93.5 34q-84 43 -119 172q-14 57 -14 102zM250 338q0 -236 215 -236q141 0 270 50q43 16 137 57l111 733 q-168 55 -295 55q-111 0 -176.5 -29.5t-112.5 -78.5t-79.5 -142.5t-51 -209t-18.5 -199.5zM686 -223q0 141 205 223h61q-164 -98 -164 -197q0 -82 132 -82h14l-16 -92q-23 -4 -46 -4q-86 0 -136 47t-50 105z" />
<glyph unicode="&#x106;" horiz-adv-x="1173" d="M215 514q0 182 59 438q43 193 92.5 279t95.5 136t102.5 82t129 49.5t202.5 17.5t429 -58l-14 -90q-227 31 -432 31q-125 0 -182.5 -19.5t-92.5 -46t-73.5 -75t-69.5 -115.5q-68 -152 -107 -393q-20 -127 -20 -247t37 -218q66 -170 256 -179q25 -2 117 -2t374 21l-12 -90 q-190 -47 -488 -47q-113 0 -192 45q-211 115 -211 481zM846 1638l270 273h150l-316 -273h-104z" />
<glyph unicode="&#x107;" horiz-adv-x="1011" d="M166 348q0 90 22.5 219t58.5 232.5t74.5 162t93 90t101.5 40t117 8.5q162 0 436 -56l-12 -83q-262 23 -369.5 22.5t-132.5 -3.5t-53.5 -13.5t-49 -29.5t-43 -52t-40.5 -80q-39 -104 -68 -268q-18 -127 -18 -211q0 -221 190 -222q168 0 391 23l76 6l-14 -86 q-215 -59 -447 -59h-10q-303 2 -303 360zM664 1223l272 272h147l-315 -272h-104z" />
<glyph unicode="&#x108;" horiz-adv-x="1173" d="M215 514q0 182 59 438q43 193 92.5 279t95.5 136t102.5 82t129 49.5t202.5 17.5t429 -58l-14 -90q-227 31 -432 31q-125 0 -182.5 -19.5t-92.5 -46t-73.5 -75t-69.5 -115.5q-68 -152 -107 -393q-20 -127 -20 -247t37 -218q66 -170 256 -179q25 -2 117 -2t374 21l-12 -90 q-190 -47 -488 -47q-113 0 -192 45q-211 115 -211 481zM608 1638l293 267h111l180 -267h-100l-142 193l-221 -193h-121z" />
<glyph unicode="&#x109;" horiz-adv-x="1011" d="M164 348q0 90 21.5 219t58.5 232.5t75.5 162t93 90t101.5 40t115 8.5q164 0 438 -56l-14 -83q-260 23 -372 22.5t-139.5 -5.5t-59 -19.5t-55.5 -44t-46 -78.5q-45 -92 -82 -299q-18 -127 -18 -211q0 -221 190 -222q168 0 391 23l74 6l-12 -86q-215 -59 -447 -59h-12 q-301 2 -301 360zM422 1223l293 266h110l181 -266h-101l-141 192l-221 -192h-121z" />
<glyph unicode="&#x10a;" horiz-adv-x="1173" d="M215 514q0 182 59 438q43 193 92.5 279t95.5 136t102.5 82t129 49.5t202.5 17.5t429 -58l-14 -90q-227 31 -432 31q-125 0 -182.5 -19.5t-92.5 -46t-73.5 -75t-69.5 -115.5q-68 -152 -107 -393q-20 -127 -20 -247t37 -218q66 -170 256 -179q25 -2 117 -2t374 21l-12 -90 q-190 -47 -488 -47q-113 0 -192 45q-211 115 -211 481zM793 1677l20 117q4 43 47 43h76q39 0 33 -43l-19 -117q-6 -39 -45 -39h-76q-18 0 -28 11.5t-8 27.5z" />
<glyph unicode="&#x10b;" horiz-adv-x="1011" d="M164 348q0 90 21.5 219t58.5 232.5t75.5 162t93 90t101.5 40t115 8.5q164 0 438 -56l-14 -83q-260 23 -372 22.5t-139.5 -5.5t-59 -19.5t-55.5 -44t-46 -78.5q-45 -92 -82 -299q-18 -127 -18 -211q0 -221 190 -222q168 0 391 23l74 6l-12 -86q-215 -59 -447 -59h-12 q-301 2 -301 360zM623 1249l20 117q6 43 47 43h76q39 0 33 -43l-19 -117q-6 -39 -45 -39h-76q-18 0 -28 11.5t-8 27.5z" />
<glyph unicode="&#x10c;" horiz-adv-x="1173" d="M215 514q0 182 59 438q43 193 92.5 279t95.5 136t102.5 82t129 49.5t202.5 17.5t429 -58l-14 -90q-227 31 -432 31q-125 0 -182.5 -19.5t-92.5 -46t-73.5 -75t-69.5 -115.5q-68 -152 -107 -393q-20 -127 -20 -247t37 -218q66 -170 256 -179q25 -2 117 -2t374 21l-12 -90 q-190 -47 -488 -47q-113 0 -192 45q-211 115 -211 481zM659 1905h101l141 -193l221 193h121l-293 -267h-110z" />
<glyph unicode="&#x10d;" horiz-adv-x="1011" d="M164 348q0 90 21.5 219t58.5 232.5t75.5 162t93 90t101.5 40t115 8.5q164 0 438 -56l-14 -83q-260 23 -372 22.5t-139.5 -5.5t-59 -19.5t-55.5 -44t-46 -78.5q-45 -92 -82 -299q-18 -127 -18 -211q0 -221 190 -222q168 0 391 23l74 6l-12 -86q-215 -59 -447 -59h-12 q-301 2 -301 360zM506 1489h100l142 -191l221 191h121l-293 -266h-111z" />
<glyph unicode="&#x10e;" horiz-adv-x="1359" d="M186 0l238 1497q0 2 545 2q111 0 193.5 -37t129.5 -102q96 -135 107 -305q2 -49 2 -90q0 -115 -21 -228q-131 -737 -645 -737h-549zM324 123h428q109 0 199.5 53t152.5 143q121 180 160 426q20 130 20 232q0 403 -336 403h-426zM688 1892h100l142 -192l221 192h121 l-293 -266h-111z" />
<glyph unicode="&#x10f;" horiz-adv-x="1257" d="M170 388.5q0 74.5 13.5 162.5t34 162.5t56 150.5t82.5 126t119 82t140.5 32t136.5 -8q158 -23 274 -74l94 586h113l-254 -1608h-82l-14 121q-55 -39 -184.5 -86t-218.5 -47t-150 35q-111 61 -146 217q-14 74 -14 148.5zM287 395q0 -172 71 -241q49 -47 125 -47.5 t156 16.5q111 23 258 82l115 725q-207 57 -391 57q-248 0 -318 -426q-16 -109 -16 -166zM1331 1188l25 274l20 137h121l-22 -137l-64 -274h-80z" />
<glyph unicode="&#x110;" horiz-adv-x="1378" d="M176 723l14 82h134l108 692q0 2 545 2q113 0 195.5 -37t130.5 -102q96 -135 108 -305q2 -49 2 -90q0 -264 -100 -521q-172 -444 -568 -444h-550l114 723h-133zM332 123h430q109 0 199 53t151 143q121 180 162 426q20 130 20 232q0 403 -336 403h-426l-90 -575h297 l-14 -82h-297z" />
<glyph unicode="&#x111;" horiz-adv-x="1107" d="M170 388.5q0 74.5 14.5 162.5t34 162.5t55 150.5t84 126t120 82t154.5 32t195.5 -22.5t200.5 -59.5l39 256h-256l14 84h256l41 246h113l-39 -246h156l-15 -84h-155l-203 -1278h-82l-12 121q-57 -39 -185.5 -86t-217.5 -47t-150 35q-111 61 -146 219q-16 72 -16 146.5z M287 367.5q0 -84.5 28 -150.5q51 -111 166 -111q174 0 416 99l115 725q-205 57 -394 57q-245 0 -313 -426q-18 -109 -18 -193.5z" />
<glyph unicode="&#x112;" horiz-adv-x="1157" d="M195 193q0 29 6 63l155 981q43 262 281 262h20l631 -29l-14 -90h-635q-141 0 -164 -147l-69 -428l692 -17l-15 -90l-696 -18l-68 -428q-4 -23 -4 -42.5t6.5 -43t32.5 -35.5q37 -20 105 -20h614l-14 -86l-621 -31h-20q-102 0 -162.5 52t-60.5 147zM586 1626l14 96h571 l-14 -96h-571z" />
<glyph unicode="&#x113;" horiz-adv-x="1081" d="M155.5 312.5q0.5 111.5 20 223t32.5 167t34.5 116t47 100t64.5 78.5t89.5 61.5t118 36t160.5 13.5t167 -16q217 -47 217 -242q0 -141 -69.5 -226t-155.5 -118q-156 -61 -320 -62q-88 0 -171 12.5t-105 22.5q-16 -96 -17 -145q0 -147 48.5 -190.5t134.5 -45.5 q37 -2 143 -2t358 37l-12 -88q-217 -59 -500 -59q-195 0 -254 141q-31 74 -30.5 185.5zM297 561q82 -10 154.5 -10t117.5 2t123 15.5t135.5 39t102.5 72.5q57 63 57 151.5t-58.5 124t-215.5 35.5q-166 0 -244 -57q-29 -20 -49.5 -36.5t-37.5 -49.5t-26.5 -53.5t-21.5 -61.5 q-14 -53 -24.5 -105.5t-12.5 -66.5zM449 1231l14 96h571l-14 -96h-571z" />
<glyph unicode="&#x116;" horiz-adv-x="1157" d="M195 193q0 29 6 63l155 981q43 262 281 262h20l631 -29l-14 -90h-635q-141 0 -164 -147l-69 -428l692 -17l-15 -90l-696 -18l-68 -428q-4 -23 -4 -42.5t6.5 -43t32.5 -35.5q37 -20 105 -20h614l-14 -86l-621 -31h-20q-102 0 -162.5 52t-60.5 147zM813 1671l21 117 q6 43 47 43h75q39 0 33 -43l-18 -117q-6 -39 -45 -39h-76q-18 0 -28.5 11.5t-8.5 27.5z" />
<glyph unicode="&#x117;" horiz-adv-x="1081" d="M155.5 312.5q0.5 111.5 20 223t32.5 167t34.5 116t47 100t64.5 78.5t89.5 61.5t118 36t160.5 13.5t167 -16q217 -47 217 -242q0 -141 -69.5 -226t-155.5 -118q-156 -61 -320 -62q-88 0 -171 12.5t-105 22.5q-16 -96 -17 -145q0 -147 48.5 -190.5t134.5 -45.5 q37 -2 143 -2t358 37l-12 -88q-217 -59 -500 -59q-195 0 -254 141q-31 74 -30.5 185.5zM297 561q82 -10 154.5 -10t117.5 2t123 15.5t135.5 39t102.5 72.5q57 63 57 151.5t-58.5 124t-215.5 35.5q-166 0 -244 -57q-29 -20 -49.5 -36.5t-37.5 -49.5t-26.5 -53.5t-21.5 -61.5 q-14 -53 -24.5 -105.5t-12.5 -66.5zM662 1270l18 116q6 44 47 44h76q41 0 35 -44l-21 -116q-4 -39 -45 -39h-76q-18 0 -28.5 11t-5.5 28z" />
<glyph unicode="&#x118;" horiz-adv-x="1148" d="M203 193q0 29 4 63l155 981q43 262 281 262h21l630 -29l-14 -90h-635q-141 0 -164 -147l-67 -428l690 -17l-14 -90l-697 -18l-67 -428q-8 -29 -3 -50.5t8 -36.5t17 -24.5t23.5 -15.5t29.5 -8q27 -6 64 -6h616l-16 -86l-621 -31h-18q-102 0 -162.5 52t-60.5 147zM799 -201 q0 141 205 226h61q-164 -98 -164 -199q0 -82 133 -82h13l-15 -90q-25 -4 -45 -4q-88 0 -138 47t-50 102z" />
<glyph unicode="&#x119;" horiz-adv-x="1081" d="M157.5 312.5q0.5 111.5 21 223t33.5 167t33.5 116t47 100t65.5 78.5t88 62q111 49 294.5 49t276.5 -65.5t93 -190.5q0 -143 -70.5 -228t-154.5 -118q-158 -61 -322 -62q-88 0 -171 12.5t-105 22.5q-16 -96 -17 -145q0 -147 49.5 -190.5t133.5 -45.5q39 -2 145.5 -2 t357.5 37l-14 -88q-217 -59 -500 -59q-195 0 -254 141q-31 74 -30.5 185.5zM299 561q82 -10 154.5 -10t118.5 2t123 15.5t135.5 39t101.5 72.5q59 63 59 162q0 80 -59 112q-66 37 -215 37q-168 0 -246 -57q-29 -20 -48.5 -36.5t-36.5 -49.5t-27.5 -53.5t-20.5 -61.5 q-14 -53 -25.5 -105.5t-13.5 -66.5zM676 -178q0 141 205 223h61q-164 -98 -164 -197q0 -82 133 -81h13l-15 -93q-25 -4 -45 -4q-88 0 -138 47t-50 105z" />
<glyph unicode="&#x11a;" horiz-adv-x="1157" d="M195 193q0 29 6 63l155 981q43 262 281 262h20l631 -29l-14 -90h-635q-141 0 -164 -147l-69 -428l692 -17l-15 -90l-696 -18l-68 -428q-4 -23 -4 -42.5t6.5 -43t32.5 -35.5q37 -20 105 -20h614l-14 -86l-621 -31h-20q-102 0 -162.5 52t-60.5 147zM662 1898h100l141 -192 l221 192h121l-293 -266h-110z" />
<glyph unicode="&#x11b;" horiz-adv-x="1081" d="M155.5 312.5q0.5 111.5 20 223t32.5 167t34.5 116t47 100t64.5 78.5t89.5 61.5t118 36t160.5 13.5t167 -16q217 -47 217 -242q0 -141 -69.5 -226t-155.5 -118q-156 -61 -320 -62q-88 0 -171 12.5t-105 22.5q-16 -96 -17 -145q0 -147 48.5 -190.5t134.5 -45.5 q37 -2 143 -2t358 37l-12 -88q-217 -59 -500 -59q-195 0 -254 141q-31 74 -30.5 185.5zM297 561q82 -10 154.5 -10t117.5 2t123 15.5t135.5 39t102.5 72.5q57 63 57 151.5t-58.5 124t-215.5 35.5q-166 0 -244 -57q-29 -20 -49.5 -36.5t-37.5 -49.5t-26.5 -53.5t-21.5 -61.5 q-14 -53 -24.5 -105.5t-12.5 -66.5zM498 1497h100l141 -192l222 192h120l-293 -266h-110z" />
<glyph unicode="&#x11c;" horiz-adv-x="1267" d="M221 489q0 213 66 484q55 225 135 336q100 139 244 182q80 23 180 22h42t182 -17t259 -40l-12 -94q-68 10 -232 22q-176 12 -247.5 12.5t-121.5 -12t-106.5 -53.5t-99.5 -108q-96 -158 -143 -473q-23 -150 -23 -267q0 -379 281 -379h37.5t143 28t181.5 54l72 29l78 461 h-377l14 80q160 41 361 41q63 0 137 -6l-125 -791h-86l-14 115q-57 -43 -187.5 -85t-236 -42t-178 30.5t-115.5 85.5q-92 117 -105 289q-4 51 -4 96zM578 1636l292 267h111l180 -267h-100l-141 193l-222 -193h-120z" />
<glyph unicode="&#x11d;" horiz-adv-x="1118" d="M76 -508l12 76l506 -10h6q82 0 151.5 58t88.5 171l43 272q-98 -37 -208 -57t-206 -20t-170 45t-100 125q-33 90 -33 198.5t20 212.5q41 258 159 397.5t296 139.5q168 0 334 -19.5t182 -21.5l-201 -1272q-18 -121 -79 -205q-104 -141 -267 -141q-16 0 -35 2zM285 336 q0 -96 45 -168q45 -70 159 -70q137 0 224.5 16.5t183.5 41.5l131 823l-383 4h-4q-78 0 -141.5 -43t-100.5 -113q-115 -207 -114 -491zM457 1223l293 266h112l180 -266h-100l-143 192l-219 -192h-123z" />
<glyph unicode="&#x11e;" horiz-adv-x="1267" d="M221 489q0 213 66 484q55 225 135 336q100 139 244 182q80 23 180 22h42t182 -17t259 -40l-12 -94q-68 10 -232 22q-176 12 -247.5 12.5t-121.5 -12t-106.5 -53.5t-99.5 -108q-96 -158 -143 -473q-23 -150 -23 -267q0 -379 281 -379h37.5t143 28t181.5 54l72 29l78 461 h-377l14 80q160 41 361 41q63 0 137 -6l-125 -791h-86l-14 115q-57 -43 -187.5 -85t-236 -42t-178 30.5t-115.5 85.5q-92 117 -105 289q-4 51 -4 96zM671.5 1821.5q0.5 33.5 2.5 48.5h71q-2 -15 -2 -29q0 -51 35 -91t99 -40h1h3q74 0 124 40t62 120h74q-18 -117 -89 -175.5 t-175 -58.5q-125 0 -183 109q-23 43 -22.5 76.5z" />
<glyph unicode="&#x11f;" horiz-adv-x="1118" d="M76 -508l12 76l506 -10h6q82 0 151.5 58t88.5 171l43 272q-98 -37 -208 -57t-206 -20t-170 45t-100 125q-33 90 -33 198.5t20 212.5q41 258 159 397.5t296 139.5q168 0 334 -19.5t182 -21.5l-201 -1272q-18 -121 -79 -205q-104 -141 -267 -141q-16 0 -35 2zM285 336 q0 -96 45 -168q45 -70 159 -70q137 0 224.5 16.5t183.5 41.5l131 823l-383 4h-4q-78 0 -141.5 -43t-100.5 -113q-115 -207 -114 -491zM559 1425q0 14 2 31h74q-2 -15 -2 -29q0 -51 34.5 -92t96.5 -41h3h1q76 0 126 41t62 121h72q-16 -117 -87 -175t-168 -58t-155.5 58 t-58.5 144z" />
<glyph unicode="&#x120;" horiz-adv-x="1267" d="M221 489q0 213 66 484q55 225 135 336q100 139 244 182q80 23 180 22h42t182 -17t259 -40l-12 -94q-68 10 -232 22q-176 12 -247.5 12.5t-121.5 -12t-106.5 -53.5t-99.5 -108q-96 -158 -143 -473q-23 -150 -23 -267q0 -379 281 -379h37.5t143 28t181.5 54l72 29l78 461 h-377l14 80q160 41 361 41q63 0 137 -6l-125 -791h-86l-14 115q-57 -43 -187.5 -85t-236 -42t-178 30.5t-115.5 85.5q-92 117 -105 289q-4 51 -4 96zM817 1677l19 117q6 43 49 43h76q39 0 32 -43l-20 -117q-4 -39 -45 -39h-76q-18 0 -27.5 11.5t-7.5 27.5z" />
<glyph unicode="&#x121;" horiz-adv-x="1118" d="M76 -508l12 76l506 -10h6q82 0 151.5 58t88.5 171l43 272q-98 -37 -208 -57t-206 -20t-170 45t-100 125q-33 90 -33 198.5t20 212.5q41 258 159 397.5t296 139.5q168 0 334 -19.5t182 -21.5l-201 -1272q-18 -121 -79 -205q-104 -141 -267 -141q-16 0 -35 2zM285 336 q0 -96 45 -168q45 -70 159 -70q137 0 224.5 16.5t183.5 41.5l131 823l-383 4h-4q-78 0 -141.5 -43t-100.5 -113q-115 -207 -114 -491zM705 1262l18 116q6 43 49 43h76q39 0 33 -43l-19 -116q-6 -39 -45 -39h-76q-18 0 -28.5 11t-7.5 28z" />
<glyph unicode="&#x122;" horiz-adv-x="1267" d="M221 489q0 213 66 484q55 225 135 336q100 139 244 182q80 23 180 22h42t182 -17t259 -40l-12 -94q-68 10 -232 22q-176 12 -247.5 12.5t-121.5 -12t-106.5 -53.5t-99.5 -108q-96 -158 -143 -473q-23 -150 -23 -267q0 -379 281 -379h37.5t143 28t181.5 54l72 29l78 461 h-377l14 80q160 41 361 41q63 0 137 -6l-125 -791h-86l-14 115q-57 -43 -187.5 -85t-236 -42t-178 30.5t-115.5 85.5q-92 117 -105 289q-4 51 -4 96zM569 -477l6 43h3q45 0 53 47l10 59h-18q-39 0 -31 39l14 105q8 41 47 41h68q37 0 31 -41l-29 -181q-12 -78 -64 -100 q-37 -16 -54 -16t-36 4z" />
<glyph unicode="&#x123;" horiz-adv-x="1095" d="M78 -508l12 76l506 -8q4 -2 6 -2q82 0 151.5 58t88.5 171l43 272q-98 -37 -208 -57t-206 -20t-170 45t-100 125q-33 90 -33 198.5t20 212.5q41 258 159 397.5t296 139.5q160 0 327 -19.5t189 -21.5l-201 -1272q-29 -180 -131 -263t-215 -83q-16 0 -34 2zM287 336 q0 -96 45 -168q45 -70 160 -70q137 0 224 16.5t183 41.5l131 823l-383 4h-4q-78 0 -141.5 -43t-100.5 -113q-115 -207 -114 -491zM705 1247v10l26 179q17 98 103 114q18 2 26 2t27 -2l-8 -43h-2q-43 0 -54 -49l-8 -55h16q37 0 33 -37l-16 -109q-6 -41 -45 -40h-68 q-31 0 -30 30z" />
<glyph unicode="&#x124;" horiz-adv-x="1308" d="M174 0l238 1499h116l-112 -715h776l115 715h118l-237 -1499h-119l107 666h-779l-106 -666h-117zM647 1632l293 266h113l180 -266h-103l-141 193l-219 -193h-123z" />
<glyph unicode="&#x125;" d="M158 0l254 1606h118l-102 -645q86 47 141 71q156 74 305.5 74t223.5 -102q55 -78 55 -181q0 -31 -4 -65l-121 -758h-119l121 758q4 27 4 51q0 74 -43 126t-151.5 52t-194.5 -25.5t-231 -93.5l-138 -868h-118zM186 1729l293 266h113l180 -266h-102l-142 192l-219 -192 h-123z" />
<glyph unicode="&#x126;" horiz-adv-x="1286" d="M174 0l170 1073h-127l12 84h127l56 342h116l-53 -342h764l55 342h117l-55 -342h125l-13 -84h-125l-169 -1073h-117l106 668h-764l-108 -668h-117zM416 786h764l47 287h-766z" />
<glyph unicode="&#x127;" horiz-adv-x="1099" d="M123 0l201 1264h-154l12 84h154l41 258h123l-41 -258h280l-12 -84h-283l-47 -303q129 70 227.5 107.5t192.5 37.5h4q156 0 230 -102q57 -78 57 -181q0 -31 -6 -65l-121 -758h-117l121 758q4 27 4 51q0 74 -43 127t-139 53t-193.5 -29.5t-230.5 -91.5l-137 -868h-123z" />
<glyph unicode="&#x128;" horiz-adv-x="438" d="M184 1712q106 80 160.5 103.5t89.5 23.5t69 -15.5t56 -33.5q61 -47 98 -47t107 31.5t98 52.5l25 -64q-12 -8 -48 -33.5t-53.5 -37t-46.5 -27.5q-100 -57 -186 -4q-39 25 -71.5 48.5t-47 23.5h-30t-46 -9.5t-49 -17.5t-53.5 -27.5t-47 -27.5zM197 0l237 1499h119 l-238 -1499h-118z" />
<glyph unicode="&#x129;" horiz-adv-x="378" d="M33 1300q133 100 178 113.5t81 13.5t77 -24.5t74.5 -47t47 -23.5t26.5 -1t61 19q86 31 133 65l24 -63q-12 -8 -48 -34t-53.5 -37t-45.5 -28q-100 -57 -187 -4q-39 25 -71.5 48.5t-47 23.5h-29.5t-46 -9t-49.5 -17.5t-53 -28t-47.5 -27.5zM131 0l172 1087h117l-172 -1087 h-117z" />
<glyph unicode="&#x12a;" horiz-adv-x="438" d="M119 0l237 1499h117l-237 -1499h-117zM135 1626l15 96h571l-14 -96h-572z" />
<glyph unicode="&#x12b;" horiz-adv-x="378" d="M84 1221l16 96h570l-15 -96h-571zM123 0l172 1087h119l-172 -1087h-119z" />
<glyph unicode="&#x12e;" horiz-adv-x="438" d="M12 -223q0 141 205 223h62q-164 -98 -164 -197q0 -82 131 -82h14l-16 -92q-23 -2 -45 -2q-86 0 -136.5 47t-50.5 103zM184 0l238 1499h119l-238 -1499h-119z" />
<glyph unicode="&#x12f;" horiz-adv-x="364" d="M-90 -215q0 141 205 223h61q-164 -98 -164 -196q0 -82 133 -82h13l-15 -92q-25 -2 -45 -3q-88 0 -138 47.5t-50 102.5zM123 0h119l172 1087h-119zM307 1280l15 102q6 41 47 41h77q33 0 33 -30v-11l-16 -102q-4 -41 -47 -41h-76q-16 0 -26.5 11.5t-6.5 29.5z" />
<glyph unicode="&#x130;" horiz-adv-x="438" d="M184 0l238 1499h119l-238 -1499h-119zM430 1671l19 117q6 43 47 43h77q33 0 33 -33v-10l-20 -117q-4 -39 -45 -39h-76q-18 0 -27.5 11.5t-7.5 27.5z" />
<glyph unicode="&#x131;" horiz-adv-x="378" d="M123 0l172 1087h119l-172 -1087h-119z" />
<glyph unicode="&#x134;" horiz-adv-x="708" d="M78 43l22 84q113 -33 169.5 -33t89 11.5t69.5 35.5q76 49 100 197l185 1161h116l-184 -1161q-35 -229 -153 -301q-80 -49 -203 -49q-135 0 -211 55zM500 1632l293 266h112l180 -266h-102l-141 193l-219 -193h-123z" />
<glyph unicode="&#x135;" horiz-adv-x="370" d="M53 -553l260 1640h125l-174 -1095q-49 -330 -129 -545h-82zM84 1223l291 270h112l181 -270h-105l-135 188l-217 -188h-127z" />
<glyph unicode="&#x136;" horiz-adv-x="1140" d="M164 0l237 1499h119l-110 -688h223l575 688h148l-623 -754l385 -745h-141l-354 692h-230l-110 -692h-119zM492 -467l8 43h2q45 0 53 47l8 60h-16q-39 0 -33 38l16 105q6 41 45 41h70q35 0 29 -41l-27 -180q-12 -78 -65 -101q-35 -16 -53.5 -16t-36.5 4z" />
<glyph unicode="&#x137;" horiz-adv-x="991" d="M123 -4l254 1601h119l-154 -966q190 25 367.5 170t210.5 282h131q-33 -115 -121 -223q-158 -195 -352 -272l391 -592h-142l-368 561q-23 -6 -70 -8t-59 0l-88 -553h-119zM397 -467l9 43h2q45 0 53 47l8 60h-16q-39 0 -33 38l16 105q8 41 45 41h70q35 0 31 -41l-29 -180 q-10 -57 -32.5 -77t-37.5 -28q-25 -10 -48 -10t-38 2z" />
<glyph unicode="&#x138;" horiz-adv-x="1021" d="M123 0l172 1087h119l-78 -487h207l458 487h156l-504 -548l320 -539h-142l-290 483h-224l-75 -483h-119z" />
<glyph unicode="&#x139;" horiz-adv-x="1101" d="M113 199q0 29 4 59l200 1241h117l-198 -1241q-4 -23 -4.5 -42t7 -42.5t31.5 -36.5q39 -18 105 -18h608l-18 -119h-607q-113 0 -182 51q-63 45 -63 148zM348 1626l270 272h150l-315 -272h-105z" />
<glyph unicode="&#x13a;" horiz-adv-x="608" d="M133 256q0 59 12 131l193 1217h117l-193 -1217q-10 -66 -10 -116t7 -77.5t28 -43.5q25 -20 124 -42t105 -22l-14 -86h-137q-231 0 -232 256zM365 1726l270 273h149l-315 -273h-104z" />
<glyph unicode="&#x13b;" horiz-adv-x="1101" d="M199 199q0 29 4 59l198 1241h117l-199 -1241q-2 -23 -2 -42t6.5 -42.5t32.5 -36.5q39 -18 105 -18h606l-18 -119h-605q-113 0 -184 51q-61 45 -61 148zM504 -467l6 43h2q45 0 53 47l10 60h-18q-39 0 -31 38l15 105q8 41 47 41h67q37 0 31 -41l-29 -180q-12 -78 -63 -101 q-35 -16 -53.5 -16t-36.5 4z" />
<glyph unicode="&#x13c;" horiz-adv-x="608" d="M180 256q0 59 10 131l193 1217h119l-193 -1217q-10 -66 -10 -116t6 -77.5t27 -43.5q27 -20 125 -42t104 -22l-14 -86h-137q-229 0 -230 256zM205 -467l6 43h2q45 0 53 47l10 60h-16q-39 0 -33 38l17 105q6 41 45 41h69q35 0 29 -41l-29 -180q-12 -78 -63 -101 q-35 -16 -53.5 -16t-36.5 4z" />
<glyph unicode="&#x13d;" horiz-adv-x="1101" d="M197 195q0 29 6 63l198 1241h117l-196 -1241q-4 -23 -4.5 -42t6 -42.5t32.5 -36.5q39 -20 105 -18h606l-18 -119h-609q-121 0 -182 51t-61 144zM641 1169l25 275l20 137h119l-21 -137l-61 -275h-82z" />
<glyph unicode="&#x13e;" horiz-adv-x="618" d="M172 260q0 57 10 127l193 1217h117l-193 -1217q-10 -66 -10 -116t7 -77.5t28 -43.5q27 -20 125 -42t104 -22l-14 -86h-138q-229 0 -229 260zM618 1188l25 274l21 137h118l-20 -137l-62 -274h-82z" />
<glyph unicode="&#x141;" horiz-adv-x="1101" d="M96 682l17 98l184 74l102 645h115l-92 -594l291 117l-19 -96l-288 -117l-89 -551q-2 -23 -2 -42t6.5 -42.5t30.5 -36.5q39 -18 105 -18h608l-18 -119h-607q-113 0 -182 51q-61 45 -61 148q0 29 4 59l80 500z" />
<glyph unicode="&#x142;" horiz-adv-x="708" d="M172 776l16 98l164 70l105 660h123l-99 -605l307 129l-16 -94l-305 -133l-86 -514q-12 -74 -12 -119t5 -70.5t23 -41.5q27 -27 128.5 -48.5t107.5 -21.5l-12 -86h-140q-229 0 -229 260q0 57 12 127l72 461z" />
<glyph unicode="&#x143;" horiz-adv-x="1339" d="M164 0l237 1499h115l606 -1280l205 1280h117l-238 -1499h-112l-609 1282l-202 -1282h-119zM893 1632l270 273h148l-316 -273h-102z" />
<glyph unicode="&#x144;" d="M123 0l172 1087h80l18 -126q205 111 322 135q57 10 116 10q156 0 230 -102q57 -78 57 -181q0 -31 -6 -65l-121 -758h-117l121 758q4 27 4 51q0 72 -44 125t-151.5 53t-193.5 -25.5t-231 -93.5l-137 -868h-119zM700 1229l273 272h147l-315 -272h-105z" />
<glyph unicode="&#x145;" horiz-adv-x="1339" d="M164 0l237 1499h115l606 -1280l205 1280h117l-238 -1499h-112l-609 1282l-202 -1282h-119zM584 -467l6 43h2q45 0 53 47l10 60h-16q-39 0 -33 38l17 105q6 41 45 41h69q35 0 29 -41l-29 -180q-12 -78 -63 -101q-35 -16 -53.5 -16t-36.5 4z" />
<glyph unicode="&#x146;" d="M123 0l172 1087h80l18 -126q205 111 322 135q57 10 116 10q156 0 230 -102q57 -78 57 -181q0 -31 -6 -65l-121 -758h-117l121 758q4 27 4 51q0 72 -44 125t-151.5 53t-193.5 -25.5t-231 -93.5l-137 -868h-119zM436 -467l6 43h2q45 0 54 47l10 60h-19q-39 0 -30 38l14 105 q8 41 47 41h68q37 0 30 -41l-28 -180q-12 -78 -64 -101q-35 -16 -53 -16t-37 4z" />
<glyph unicode="&#x147;" horiz-adv-x="1339" d="M164 0l237 1499h115l606 -1280l205 1280h117l-238 -1499h-112l-609 1282l-202 -1282h-119zM694 1898h101l141 -192l221 192h121l-293 -266h-111z" />
<glyph unicode="&#x148;" d="M123 0l172 1087h80l18 -126q205 111 322 135q57 10 116 10q156 0 230 -102q57 -78 57 -181q0 -31 -6 -65l-121 -758h-117l121 758q4 27 4 51q0 72 -44 125t-151.5 53t-193.5 -25.5t-231 -93.5l-137 -868h-119zM510 1495h100l142 -192l221 192h121l-293 -266h-111z" />
<glyph unicode="&#x14a;" horiz-adv-x="1325" d="M164 0l237 1499h115l594 -1278l203 1278h117l-263 -1671q-41 -256 -211 -320q-94 -35 -251 -34l14 90q18 4 53 10t53.5 9t49 12.5t49 20.5t41 31.5t36.5 47.5q35 63 50 151l26 162l-592 1270l-202 -1278h-119z" />
<glyph unicode="&#x14b;" horiz-adv-x="1134" d="M123 0l172 1087h80l18 -126q8 4 58.5 30.5t97.5 48.5q141 66 286.5 66t223.5 -102q59 -80 59 -183q0 -31 -6 -63l-151 -942q-33 -164 -132 -242q-82 -63 -188 -92q-20 -6 -61 -14l-39 61q197 70 260 170q31 49 43 113l151 946q2 25 2 45q0 74 -46 129t-135 55t-165 -17.5 t-124 -37t-148 -66.5l-137 -866h-119z" />
<glyph unicode="&#x14c;" horiz-adv-x="1376" d="M211 412.5q0 52.5 2 120t23.5 204.5t47 241.5t57.5 181.5t65.5 134.5t78.5 96.5t88 62.5t102.5 35.5t113 16t132 4t139 -7t121 -26.5t99.5 -54.5q92 -84 115 -233q8 -61 8 -115q0 -276 -70 -561q-70 -287 -198 -397q-90 -78 -170 -95q-190 -43 -404 -22q-150 14 -221 76 q-96 80 -119 223q-10 63 -10 115.5zM326 466q0 -87 12 -146.5t37.5 -102.5t77.5 -67q84 -39 219 -39t204.5 13t134 51t107.5 110q92 147 142 454q29 182 28 326q0 111 -41 205q-25 55 -100 92q-45 23 -113.5 27t-139.5 4t-118 -5.5t-111.5 -23.5t-101.5 -59t-80 -112 t-72.5 -183.5t-57 -284.5t-27.5 -259zM662 1626l14 96h571l-14 -96h-571z" />
<glyph unicode="&#x14d;" horiz-adv-x="1150" d="M168 352q0 82 21.5 216t61.5 242t107.5 172.5t156.5 90t224 25.5q254 0 342 -140q57 -92 58 -245q0 -86 -17 -189q-51 -305 -164.5 -419.5t-377 -114.5t-353.5 125q-59 82 -59 237zM285 326q0 -33 14 -77t35.5 -73t64.5 -43q68 -25 166.5 -26t148.5 7.5t100 33t83 69.5 q72 100 107 311q18 115 18 180.5t-10.5 110.5t-33 78t-60.5 51q-68 31 -163.5 31t-139.5 -4t-90 -20.5t-76 -47.5q-72 -72 -118 -233.5t-46 -347.5zM473 1221l14 96h572l-15 -96h-571z" />
<glyph unicode="&#x150;" horiz-adv-x="1376" d="M211 412.5q0 52.5 2 120t23.5 204.5t47 241.5t57.5 181.5t65.5 134.5t78.5 96.5t88 62.5t102.5 35.5t113 16t132 4t139 -7t121 -26.5t99.5 -54.5q92 -84 115 -233q8 -61 8 -115q0 -276 -70 -561q-70 -287 -198 -397q-90 -78 -170 -95q-190 -43 -404 -22q-150 14 -221 76 q-96 80 -119 223q-10 63 -10 115.5zM326 466q0 -87 12 -146.5t37.5 -102.5t77.5 -67q84 -39 219 -39t204.5 13t134 51t107.5 110q92 147 142 454q29 182 28 326q0 111 -41 205q-25 55 -100 92q-45 23 -113.5 27t-139.5 4t-118 -5.5t-111.5 -23.5t-101.5 -59t-80 -112 t-72.5 -183.5t-57 -284.5t-27.5 -259zM745 1632l271 273h149l-315 -273h-105zM1024 1632l272 273h148l-316 -273h-104z" />
<glyph unicode="&#x151;" horiz-adv-x="1150" d="M168 352q0 82 21.5 216t61.5 242t107.5 172.5t156.5 90t224 25.5q254 0 342 -140q57 -92 58 -245q0 -86 -17 -189q-51 -305 -164.5 -419.5t-377 -114.5t-353.5 125q-59 82 -59 237zM285 326q0 -33 14 -77t35.5 -73t64.5 -43q68 -25 166.5 -26t148.5 7.5t100 33t83 69.5 q72 100 107 311q18 115 18 180.5t-10.5 110.5t-33 78t-60.5 51q-68 31 -163.5 31t-139.5 -4t-90 -20.5t-76 -47.5q-72 -72 -118 -233.5t-46 -347.5zM567 1221l271 272h149l-315 -272h-105zM846 1221l272 272h148l-316 -272h-104z" />
<glyph unicode="&#x152;" horiz-adv-x="2168" d="M195 412.5q0 52.5 2 120t22.5 197.5t43 225.5t48 169t58 130t64.5 97.5t75 69.5t83 46t94 26.5t102.5 12t125 3t139 -8t122.5 -31q119 -43 167 -174q51 203 263 203h20l610 -29l-14 -88h-614q-141 0 -166 -149l-66 -428l670 -17l-14 -90l-676 -18l-70 -428 q-6 -29 -1 -50.5t8 -36.5t16.5 -24.5t23.5 -15.5t29 -8q29 -4 65 -4h594l-14 -88l-598 -31h-42t-76 14.5t-80.5 59.5t-37.5 114q-82 -113 -195.5 -151.5t-243.5 -38.5t-188.5 6t-120 24.5t-99.5 51.5q-96 80 -119 223q-10 63 -10 115.5zM311 481q0 -80 3 -128t24.5 -94 t49.5 -75.5t77 -46.5q82 -27 205 -26.5t191.5 13.5t133 51t107.5 110q92 147 141 454q31 193 31 293.5t-18.5 164t-44 105t-82 61t-103.5 25t-132 5.5t-132 -5.5t-111.5 -23.5t-102.5 -59t-81 -112t-72.5 -183.5t-56.5 -280.5t-27 -248z" />
<glyph unicode="&#x153;" horiz-adv-x="1925" d="M158 356q0 82 18.5 199t49 211t72.5 159.5t105 102.5q117 70 324 70q303 0 373 -209q55 109 160 164q104 55 294 55q377 0 377 -256q0 -143 -69.5 -228t-155.5 -118q-156 -61 -322 -62q-88 0 -169.5 12.5t-106.5 22.5q-16 -98 -16 -173t20 -120q39 -88 178 -88 q250 0 488 35l-13 -88q-217 -59 -501 -59q-217 0 -267 190q-59 -100 -160.5 -143t-265.5 -43q-264 0 -354 127q-59 84 -59 239zM274 326q0 -33 13.5 -77t36 -73t63.5 -43q70 -27 177.5 -27t167 13.5t114.5 56.5q102 78 147 352q18 115 18.5 180.5t-11 110.5t-33 78t-60.5 51 q-70 31 -171 31t-151 -7t-101.5 -33t-84 -75t-61.5 -131q-63 -190 -64 -407zM1122 561q55 -10 139.5 -10t134.5 2t123.5 16.5t133 39t102.5 73.5q57 63 57 150.5t-58 123t-216 35.5q-207 0 -291 -94q-59 -66 -80 -133q-27 -86 -45 -203z" />
<glyph unicode="&#x154;" horiz-adv-x="1249" d="M154 0l237 1499h615q139 0 219 -88q70 -74 69 -240q0 -172 -43 -279.5t-78.5 -149.5t-86 -68.5t-80 -32.5t-66.5 -8l219 -633h-129l-209 623q-29 0 -236.5 12t-209.5 12l-105 -647h-116zM391 745h488q252 0 288 318q6 102 6.5 139t-12 71t-27 55.5t-38.5 31.5 q-43 20 -109 20h-495zM797 1632l272 273h148l-316 -273h-104z" />
<glyph unicode="&#x155;" horiz-adv-x="849" d="M231 0l172 1087h80l15 -137q8 4 40.5 21.5t43 22.5t40 19.5t43 20.5t41 17.5t45 16.5t44 12t48 10.5t48.5 6.5t96.5 3t104.5 -17l-19 -116q-55 14 -115.5 14t-85 -2t-43 -4t-45 -8t-40 -8.5t-42 -13.5t-38 -13t-44 -17.5t-41 -17.5t-47 -20.5t-49.5 -22.5l-135 -854h-117 zM717 1223l272 272h148l-316 -272h-104z" />
<glyph unicode="&#x156;" horiz-adv-x="1249" d="M154 0l237 1499h615q139 0 219 -88q70 -74 69 -240q0 -172 -43 -279.5t-78.5 -149.5t-86 -68.5t-80 -32.5t-66.5 -8l219 -633h-129l-209 623q-29 0 -236.5 12t-209.5 12l-105 -647h-116zM391 745h488q252 0 288 318q6 102 6.5 139t-12 71t-27 55.5t-38.5 31.5 q-43 20 -109 20h-495zM530 -467l9 43h2q45 0 53 47l8 60h-16q-39 0 -33 38l16 105q6 41 45 41h70q35 0 29 -41l-27 -180q-12 -78 -65 -101q-35 -16 -53.5 -16t-37.5 4z" />
<glyph unicode="&#x157;" horiz-adv-x="849" d="M137 -467l6 43h2q45 0 54 47l10 60h-19q-39 0 -30 38l14 105q8 41 47 41h68q37 0 30 -41l-28 -180q-12 -78 -64 -101q-35 -16 -53 -16t-37 4zM217 0l172 1087h78l16 -137q8 4 41 21.5t43.5 22.5t40 19.5t43 20.5t41 17.5t45 16.5t44 12t48 10.5t47 6.5t96 3t105.5 -17 l-20 -116q-55 14 -114.5 14t-84 -2t-44 -4t-45.5 -8t-39 -8.5t-43 -13.5t-39 -13t-43 -17.5t-41 -17.5t-47 -20.5t-48 -22.5l-135 -854h-117z" />
<glyph unicode="&#x158;" horiz-adv-x="1249" d="M154 0l237 1499h615q139 0 219 -88q70 -74 69 -240q0 -172 -43 -279.5t-78.5 -149.5t-86 -68.5t-80 -32.5t-66.5 -8l219 -633h-129l-209 623q-29 0 -236.5 12t-209.5 12l-105 -647h-116zM391 745h488q252 0 288 318q6 102 6.5 139t-12 71t-27 55.5t-38.5 31.5 q-43 20 -109 20h-495zM606 1898h101l141 -192l221 192h121l-291 -266h-113z" />
<glyph unicode="&#x159;" horiz-adv-x="849" d="M123 0l172 1087h80l14 -137q12 6 64.5 34t99.5 49.5t127 44t174 22.5t129 -17l-18 -116q-55 14 -116 14t-85.5 -2t-43 -4t-45 -8t-39.5 -8.5t-42 -13.5t-38 -13t-43 -17.5t-41 -17.5t-48 -20.5t-49 -22.5l-133 -854h-119zM412 1489h100l141 -193l221 193h121l-293 -266 h-110z" />
<glyph unicode="&#x15a;" horiz-adv-x="1165" d="M145 27l15 92q143 -17 497 -17q293 0 326 217l23 140q4 39 4 67.5t-2 48.5q-14 100 -177 101h-266q-184 0 -254 74q-61 68 -61 153q0 23 8 111l21 135q37 227 165 301q106 61 269 61q109 0 282.5 -18t227.5 -27l-15 -90l-489 17q-18 2 -51 2t-76 -7.5t-86 -33.5 q-84 -51 -109 -207l-22 -135q-12 -86 -2 -117t17 -47.5t25.5 -26.5t33 -15t40.5 -9q39 -2 95 -2h266q94 0 156.5 -30t87.5 -77q37 -72 36.5 -133t-8.5 -100l-22 -140q-12 -86 -49 -150.5t-81 -98t-106 -54.5q-94 -29 -208.5 -28.5t-279.5 15.5t-231 28zM780 1634l271 273 h149l-315 -273h-105z" />
<glyph unicode="&#x15b;" horiz-adv-x="1036" d="M156 16l14 84h541q76 0 100 21q57 43 70 117l16 108q4 18 4 33q0 102 -129 102h-291q-154 0 -208 48.5t-54 138.5q0 33 6 73l15 101q23 135 97.5 198.5t227.5 63.5q76 0 252 -9.5t258 -17.5l-14 -88h-514q-98 0 -138 -41t-51 -110l-16 -101q-12 -74 -1 -90t14 -23.5 t16.5 -12.5t17.5 -7t21.5 -3t22.5 -1h26.5h25.5h293q127 0 184.5 -63.5t57.5 -145.5q0 -25 -4 -49l-19 -121q-27 -176 -157 -219q-61 -18 -140 -18t-279 12t-265 20zM655 1227l271 272h147l-315 -272h-103z" />
<glyph unicode="&#x15c;" horiz-adv-x="1165" d="M162 27l14 92q144 -17 498 -17q293 0 325 217l23 140q4 37 4 83t-22 81q-35 53 -156 53h-266q-184 0 -254 74q-61 68 -62 153q0 23 8 111l21 135q37 227 166 301q106 61 268 61q80 0 253 -16t257 -29l-14 -90l-490 17q-18 2 -51 2t-76 -7.5t-86 -33.5q-84 -51 -108 -207 l-23 -135q-12 -86 -2 -117t17.5 -47.5t26 -26.5t32.5 -15t41 -9q39 -2 94 -2h266q94 0 156.5 -30t87.5 -77q37 -72 37 -133t-8 -100l-23 -140q-12 -86 -49 -150.5t-81 -98t-105 -54.5q-94 -29 -209 -28.5t-280 15.5t-230 28zM526 1634l293 267h111l180 -267h-100l-142 193 l-221 -193h-121z" />
<glyph unicode="&#x15d;" horiz-adv-x="1036" d="M131 16l14 84h541q76 0 100 21q57 43 70 117l16 108q4 18 5 33q0 102 -129 102h-291q-238 0 -258 131q-4 25 -4 56.5t6 72.5l14 101q23 135 97.5 198.5t228.5 63.5q225 0 510 -27l-15 -88h-514q-135 0 -174 -94q-10 -25 -14 -57l-17 -101q-12 -74 -0.5 -90t14.5 -23.5 t16 -12.5t17.5 -7t21.5 -3t22.5 -1h27h25.5h293q127 0 184 -63.5t57 -145.5q0 -25 -4 -49l-18 -121q-27 -176 -158 -219q-61 -18 -140 -18t-278.5 12t-265.5 20zM401 1227l293 266h113l180 -266h-100l-144 192l-219 -192h-123z" />
<glyph unicode="&#x15e;" horiz-adv-x="1165" d="M162 27l14 92q144 -17 498 -17q293 0 325 217l23 140q4 37 4 83t-22 81q-35 53 -156 53h-266q-184 0 -254 74q-61 68 -62 153q0 23 8 111l21 135q37 227 166 301q106 61 268 61q80 0 253 -16t257 -29l-14 -90l-490 17q-18 2 -51 2t-76 -7.5t-86 -33.5q-84 -51 -108 -207 l-23 -135q-12 -86 -2 -117t17.5 -47.5t26 -26.5t32.5 -15t41 -9q39 -2 94 -2h266q94 0 156.5 -30t87.5 -77q37 -72 37 -133t-8 -100l-23 -140q-12 -86 -49 -150.5t-81 -98t-105 -54.5q-94 -29 -209 -28.5t-280 15.5t-230 28zM346 -371l10 56l99 24q76 20 106 96 q16 39 25 103h104q-18 -109 -45 -166t-75 -85t-132 -28h-92z" />
<glyph unicode="&#x15f;" horiz-adv-x="1036" d="M131 16l14 84h541q76 0 100 21q57 43 70 117l16 108q4 18 5 33q0 102 -129 102h-291q-238 0 -258 131q-4 25 -4 56.5t6 72.5l14 101q23 135 97.5 198.5t228.5 63.5q225 0 510 -27l-15 -88h-514q-135 0 -174 -94q-10 -25 -14 -57l-17 -101q-12 -74 -0.5 -90t14.5 -23.5 t16 -12.5t17.5 -7t21.5 -3t22.5 -1h27h25.5h293q127 0 184 -63.5t57 -145.5q0 -25 -4 -49l-18 -121q-27 -176 -158 -219q-61 -18 -140 -18t-278.5 12t-265.5 20zM258 -358l10 55l99 22q57 16 79 52q37 55 52 149h104q-18 -109 -45 -167t-76 -84.5t-131 -26.5h-92z" />
<glyph unicode="&#x160;" horiz-adv-x="1165" d="M162 27l14 92q144 -17 498 -17q293 0 325 217l23 140q4 37 4 83t-22 81q-35 53 -156 53h-266q-184 0 -254 74q-61 68 -62 153q0 23 8 111l21 135q37 227 166 301q106 61 268 61q80 0 253 -16t257 -29l-14 -90l-490 17q-18 2 -51 2t-76 -7.5t-86 -33.5q-84 -51 -108 -207 l-23 -135q-12 -86 -2 -117t17.5 -47.5t26 -26.5t32.5 -15t41 -9q39 -2 94 -2h266q94 0 156.5 -30t87.5 -77q37 -72 37 -133t-8 -100l-23 -140q-12 -86 -49 -150.5t-81 -98t-105 -54.5q-94 -29 -209 -28.5t-280 15.5t-230 28zM610 1901h101l143 -191l219 191h123l-293 -267 h-112z" />
<glyph unicode="&#x161;" horiz-adv-x="1036" d="M131 16l14 84h541q76 0 100 21q57 43 70 117l16 108q4 18 5 33q0 102 -129 102h-291q-238 0 -258 131q-4 25 -4 56.5t6 72.5l14 101q23 135 97.5 198.5t228.5 63.5q225 0 510 -27l-15 -88h-514q-135 0 -174 -94q-10 -25 -14 -57l-17 -101q-12 -74 -0.5 -90t14.5 -23.5 t16 -12.5t17.5 -7t21.5 -3t22.5 -1h27h25.5h293q127 0 184 -63.5t57 -145.5q0 -25 -4 -49l-18 -121q-27 -176 -158 -219q-61 -18 -140 -18t-278.5 12t-265.5 20zM442 1493h103l141 -190l219 190h123l-293 -266h-112z" />
<glyph unicode="&#x162;" horiz-adv-x="1220" d="M256 1380l20 119h1061l-20 -119h-477l-219 -1380h-117l217 1380h-465zM258 -379l8 55l99 25q59 16 88.5 60t42.5 139h104q-25 -158 -77 -218.5t-175 -60.5h-90z" />
<glyph unicode="&#x163;" horiz-adv-x="749" d="M119 -373l8 56l98 24q59 16 89 60.5t44 138.5h103q-25 -158 -76 -217q-53 -62 -176 -62h-90zM188 971l15 88l196 31l78 303h88l-47 -303h332l-21 -119h-329l-92 -584q-10 -66 -10.5 -116t6 -77.5t26.5 -43.5q27 -23 125 -44.5t104 -21.5l-12 -84h-137q-231 0 -231 256 q0 57 10 131l92 584h-193z" />
<glyph unicode="&#x164;" horiz-adv-x="1220" d="M285 1380l18 119h1061l-18 -119h-478l-219 -1380h-117l218 1380h-465zM606 1898h101l141 -192l221 192h121l-293 -266h-111z" />
<glyph unicode="&#x165;" horiz-adv-x="792" d="M150 971l14 88l198 31l76 303h88l-47 -303h332l-20 -119h-330l-92 -584q-10 -66 -10.5 -116t6 -77.5t26.5 -43.5q25 -20 123 -42t104 -22l-12 -86h-135q-231 0 -231 262q0 57 10 125l92 584h-192zM655 1225l25 274l20 137h121l-22 -137l-64 -274h-80z" />
<glyph unicode="&#x166;" horiz-adv-x="1191" d="M285 1380l18 119h1034l-18 -119h-465l-78 -485h254l-12 -82h-254l-129 -813h-117l129 813h-252l13 82h251l78 485h-452z" />
<glyph unicode="&#x167;" horiz-adv-x="737" d="M154 582l14 84h166l47 305h-193l15 88l196 31l78 303h88l-47 -303h332l-21 -119h-329l-49 -305h229l-14 -84h-228l-30 -193q-31 -195 20 -237q25 -20 125 -42t106 -22l-14 -86h-141q-225 0 -225 260q0 57 10 127l30 193h-165z" />
<glyph unicode="&#x168;" horiz-adv-x="1359" d="M244 416q0 96 18 215l137 868h121l-139 -868q-18 -129 -18.5 -210t14 -135.5t40 -90t72.5 -56.5q78 -31 198 -32t193.5 21t139.5 77q125 106 176 426l137 868h119l-137 -868q-27 -164 -68 -276.5t-110 -198.5q-137 -166 -443 -166q-225 0 -329 86q-121 102 -121 340z M612 1710q106 80 160.5 103.5t100 22.5t114.5 -48q70 -47 102.5 -47t102.5 30.5t98 51.5l25 -62q-12 -10 -48 -35.5t-53.5 -37t-46.5 -27.5q-100 -55 -186 -2q-41 25 -72.5 48.5t-46 23.5t-30 -1t-46 -9.5t-49 -17.5t-53.5 -28.5t-49 -25.5z" />
<glyph unicode="&#x169;" horiz-adv-x="1107" d="M150 262q0 33 6 68l118 757h119l-121 -757q-4 -31 -4 -58q0 -72 43 -122t151.5 -50t194.5 26t232 93l137 868h117l-172 -1087h-80l-17 127q-88 -47 -141 -72.5t-136 -49t-161 -23.5q-158 0 -231 100q-55 76 -55 180zM395 1298q133 98 178 112.5t86 13.5t111 -48 t102.5 -47t102 31t98.5 51l25 -61q-14 -10 -49 -36t-52.5 -37t-46.5 -28q-100 -55 -186 -2q-41 25 -73 48.5t-46 23.5t-27.5 -1t-36 -5t-44 -13.5t-38 -18.5t-41 -23.5t-40.5 -20.5z" />
<glyph unicode="&#x16a;" horiz-adv-x="1359" d="M244 416q0 96 18 215l137 868h121l-139 -868q-18 -129 -18.5 -210t14 -135.5t40 -90t72.5 -56.5q78 -31 198 -32t193.5 21t139.5 77q125 106 176 426l137 868h119l-137 -868q-27 -164 -68 -276.5t-110 -198.5q-137 -166 -443 -166q-225 0 -329 86q-121 102 -121 340z M662 1632l16 97h569l-14 -97h-571z" />
<glyph unicode="&#x16b;" horiz-adv-x="1107" d="M150 262q0 33 6 68l118 757h119l-121 -757q-4 -31 -4 -58q0 -72 43 -122t151.5 -50t194.5 26t232 93l137 868h117l-172 -1087h-80l-17 127q-88 -47 -141 -72.5t-136 -49t-161 -23.5q-158 0 -231 100q-55 76 -55 180zM444 1221l15 96h571l-14 -96h-572z" />
<glyph unicode="&#x16c;" horiz-adv-x="1359" d="M244 416q0 96 18 215l137 868h121l-139 -868q-18 -129 -18.5 -210t14 -135.5t40 -90t72.5 -56.5q78 -31 198 -32t193.5 21t139.5 77q125 106 176 426l137 868h119l-137 -868q-27 -164 -68 -276.5t-110 -198.5q-137 -166 -443 -166q-225 0 -329 86q-121 102 -121 340z M750 1835q0 14 2 31h71q-2 -15 -2 -29q0 -51 35 -92t98 -41h16q15 0 41.5 6t49 19.5t39.5 31.5q35 39 45 105h74q-16 -117 -88 -175.5t-168.5 -58.5t-154.5 58.5t-58 144.5z" />
<glyph unicode="&#x16d;" horiz-adv-x="1107" d="M150 262q0 33 6 68l118 757h119l-121 -757q-4 -31 -4 -58q0 -72 43 -122t151.5 -50t194.5 26t232 93l137 868h117l-172 -1087h-80l-17 127q-88 -47 -141 -72.5t-136 -49t-161 -23.5q-158 0 -231 100q-55 76 -55 180zM532 1423q0 14 3 31h71q-2 -15 -2 -29q0 -51 35 -92 t98 -41h1h25.5t63.5 19q84 37 101 143h73q-18 -117 -88.5 -175t-167 -58t-155 58t-58.5 144z" />
<glyph unicode="&#x16e;" horiz-adv-x="1359" d="M244 416q0 96 18 215l137 868h121l-139 -868q-18 -129 -18.5 -210t14 -135.5t40 -90t72.5 -56.5q78 -31 198 -32t193.5 21t139.5 77q125 106 176 426l137 868h119l-137 -868q-27 -164 -68 -276.5t-110 -198.5q-137 -166 -443 -166q-225 0 -329 86q-121 102 -121 340z M772 1815q0 104 73.5 170.5t145.5 66.5q133 0 183 -104q16 -39 16 -66q0 -119 -73 -184.5t-159 -65.5t-136 56.5t-50 126.5zM846 1835q0 -55 32.5 -91t88 -36t98.5 39q51 45 51 100.5t-31.5 92t-72.5 36.5t-67.5 -11t-45.5 -30q-53 -45 -53 -100z" />
<glyph unicode="&#x16f;" horiz-adv-x="1107" d="M150 262q0 33 6 68l118 757h119l-121 -757q-4 -31 -4 -58q0 -72 43 -122t151.5 -50t194.5 26t232 93l137 868h117l-172 -1087h-80l-17 127q-88 -47 -141 -72.5t-136 -49t-161 -23.5q-158 0 -231 100q-55 76 -55 180zM553 1403q0 104 74.5 170.5t160.5 66.5t135.5 -57 t49.5 -127q0 -104 -73 -169.5t-159 -65.5t-137 56t-51 126zM629 1403q0 -16 13 -44t42 -45.5t64.5 -17.5t68.5 19q82 43 82 133q0 43 -31.5 80t-87 37t-103.5 -43t-48 -119z" />
<glyph unicode="&#x170;" horiz-adv-x="1359" d="M244 416q0 96 18 215l137 868h121l-139 -868q-18 -129 -18.5 -210t14 -135.5t40 -90t72.5 -56.5q78 -31 198 -32t193.5 21t139.5 77q125 106 176 426l137 868h119l-137 -868q-27 -164 -68 -276.5t-110 -198.5q-137 -166 -443 -166q-225 0 -329 86q-121 102 -121 340z M756 1632l272 273h148l-316 -273h-104zM1034 1632l273 273h147l-315 -273h-105z" />
<glyph unicode="&#x171;" horiz-adv-x="1107" d="M150 262q0 33 6 68l118 757h119l-121 -757q-4 -31 -4 -58q0 -72 43 -122t151.5 -50t194.5 26t232 93l137 868h117l-172 -1087h-80l-17 127q-88 -47 -141 -72.5t-136 -49t-161 -23.5q-158 0 -231 100q-55 76 -55 180zM539 1221l270 272h149l-315 -272h-104zM817 1221 l273 272h147l-315 -272h-105z" />
<glyph unicode="&#x172;" horiz-adv-x="1359" d="M244 416q0 96 18 215l137 868h121l-139 -868q-18 -129 -18.5 -210t14 -135.5t40 -90t72.5 -56.5q78 -31 198 -32t193.5 21t139.5 77q125 106 176 426l137 868h119l-137 -868q-27 -164 -68 -276.5t-110 -198.5q-137 -166 -443 -166q-225 0 -329 86q-121 102 -121 340z M461 -225q0 141 205 223h61q-162 -96 -162 -197q0 -82 131 -82h13l-15 -92q-23 -2 -45 -2q-88 0 -138 47t-50 103z" />
<glyph unicode="&#x173;" horiz-adv-x="1232" d="M150 262q0 33 6 68l118 757h119l-121 -757q-4 -31 -4 -58q0 -72 43 -122t151.5 -50t194.5 26t232 93l137 868h117l-172 -1087h-80l-17 127q-88 -47 -141 -72.5t-136 -49t-161 -23.5q-158 0 -231 100q-55 76 -55 180zM698 -223q0 141 205 223h62q-164 -96 -164 -197 q0 -82 131 -82h14l-16 -92q-23 -2 -45 -2q-86 0 -136.5 47t-50.5 103z" />
<glyph unicode="&#x174;" horiz-adv-x="2035" d="M307 1499h119l256 -1317l686 1317h133l-280 -549l147 -776l686 1325h129l-780 -1499h-123l-150 780l-407 -780h-123zM975 1632l291 266h112l181 -266h-101l-141 193l-221 -193h-121z" />
<glyph unicode="&#x175;" horiz-adv-x="1638" d="M193 1087h118l224 -933l417 761q53 102 64 168h84q8 -27 8 -71.5t-37 -116.5l-82 -164l127 -571l430 760q51 102 62 167h86q8 -31 8 -76.5t-37 -111.5l-510 -899h-119l-133 588l-319 -588h-129zM676 1221l291 266h112l181 -266h-101l-141 192l-221 -192h-121z" />
<glyph unicode="&#x176;" horiz-adv-x="1288" d="M307 1499h125l281 -819l581 819h140l-678 -967l-84 -532h-119l84 532zM600 1632l293 266h111l180 -266h-101l-141 193l-221 -193h-121z" />
<glyph unicode="&#x177;" horiz-adv-x="1114" d="M193 1087h122l142 -849q20 -115 135 -117l22 2l404 805q41 80 53 168h94q10 -31 10.5 -78t-36.5 -117l-447 -899q-147 -291 -258 -410q-117 -127 -233 -143v82q70 31 137 115q80 98 124 179t51 95t23.5 46t18.5 34q-53 0 -102 29q-94 53 -117 196zM410 1223l292 266h113 l180 -266h-102l-141 190l-220 -190h-122z" />
<glyph unicode="&#x178;" horiz-adv-x="1288" d="M248 1499h125l282 -819l580 819h139l-678 -967l-84 -532h-118l84 532zM502 1702q4 29 18.5 47t34.5 28.5t49 10.5t47.5 -23.5t13 -57.5t-32 -57.5t-60 -23.5t-54 23.5t-16.5 52.5zM1024 1702q4 29 18.5 47t35 28.5t49 10.5t47 -23.5t13.5 -57.5t-32 -57.5t-60.5 -23.5 t-54 23.5t-16.5 52.5z" />
<glyph unicode="&#x179;" horiz-adv-x="1116" d="M215 0l18 119l1035 1261h-836l21 119h989l-21 -119l-1032 -1261h834l-19 -119h-989zM913 1626l273 272h147l-315 -272h-105z" />
<glyph unicode="&#x17a;" horiz-adv-x="927" d="M156 2l16 117l760 852h-651l16 116h811l-16 -116l-752 -852h614l-18 -117h-780zM672 1214l272 273h148l-316 -273h-104z" />
<glyph unicode="&#x17b;" horiz-adv-x="1116" d="M72 0l18 119l1034 1261h-833l18 119h989l-18 -119l-1034 -1261h833l-18 -119h-989zM731 1659l19 117q6 41 49 41h75q39 0 33 -41l-18 -117q-6 -39 -45 -39h-78q-16 0 -26.5 10t-8.5 29z" />
<glyph unicode="&#x17c;" horiz-adv-x="927" d="M92 2l14 117l760 852h-649l16 116h811l-16 -116l-752 -852h615l-19 -117h-780zM588 1260l18 116q6 43 49 43h76q39 0 33 -43l-19 -116q-6 -39 -45 -39h-75q-18 0 -28.5 11t-8.5 28z" />
<glyph unicode="&#x17d;" horiz-adv-x="1116" d="M72 0l18 119l1034 1261h-833l18 119h989l-18 -119l-1034 -1261h833l-18 -119h-989zM575 1898h101l141 -192l221 192h121l-293 -266h-110z" />
<glyph unicode="&#x17e;" horiz-adv-x="927" d="M92 2l14 117l760 852h-649l16 116h811l-16 -116l-752 -852h615l-19 -117h-780zM410 1487h102l141 -193l219 193h123l-293 -266h-112z" />
<glyph unicode="&#x192;" horiz-adv-x="964" d="M-16 -375l12 76h174q84 0 139 80q57 84 82 166q35 119 58 233l137 649h-209l24 119h209l21 88q74 358 170 484q90 119 223 118q88 0 178 -36q12 -6 15 -7l-15 -75h-180q-133 0 -211 -254q-23 -70 -59 -230l-21 -90h291l-23 -117h-290l-138 -649q-51 -256 -83.5 -330.5 t-63.5 -124t-68 -77.5q-80 -66 -188 -66q-51 0 -110.5 16.5t-73.5 26.5z" />
<glyph unicode="&#x2c6;" horiz-adv-x="679" d="M135 1087l293 267h111l180 -267h-101l-141 193l-219 -193h-123z" />
<glyph unicode="&#x2da;" horiz-adv-x="647" d="M285 1268q0 104 74.5 170.5t160.5 66.5t135.5 -57t49.5 -127q0 -104 -73 -170t-159 -66t-137 56.5t-51 126.5zM360 1278q0 -45 33 -81t88.5 -36t98.5 39q51 45 51 100.5t-32 92.5t-78 37t-79 -19q-82 -45 -82 -133z" />
<glyph unicode="&#x2dc;" horiz-adv-x="942" d="M274 1171q106 80 160.5 103.5t93.5 22.5t81 -24.5t76 -47t54.5 -23.5t46 6t50 16.5t49.5 22.5q47 23 67 37l25 -61q-12 -10 -48 -36t-53.5 -36t-46 -26.5t-52 -22.5t-36.5 -6q-59 0 -99 24.5t-71.5 48t-46 23.5h-30t-46 -9t-49 -17.5t-53.5 -29t-49 -26.5z" />
<glyph unicode="&#x3a9;" horiz-adv-x="1595" d="M145 0l17 102l315 21q-82 66 -133 141q-92 137 -102 289q-2 39 -2 72q0 68 19.5 175t50 198.5t91 189.5t140.5 166.5t205.5 113.5t272 45t252 -39.5t165.5 -109.5q135 -156 135 -373q0 -608 -414 -870l301 -21l-16 -100h-467l20 123q233 139 328 305q82 145 117 360 q14 127 14 205t-23.5 151t-70.5 130q-102 123 -350 123q-299 0 -455 -189q-141 -168 -180 -428q-18 -102 -18.5 -158.5t1.5 -84.5q8 -104 67.5 -199.5t190.5 -214.5l-20 -123h-451z" />
<glyph unicode="&#x3c0;" horiz-adv-x="1296" d="M188 971l19 116h1093l-18 -118h-264l-100 -629q-8 -51 -9 -100q0 -131 129 -131h205l-10 -70q-70 -27 -112 -38t-97 -11q-233 0 -233 243q0 49 8 107l100 631h-416l-153 -971h-119l154 971h-177z" />
<glyph unicode="&#x1e02;" horiz-adv-x="1216" d="M164 0l237 1499h560q174 0 253 -80q82 -84 82 -209q0 -45 -6 -94q-18 -141 -93 -227t-175 -109q68 -12 119 -100t51 -193q0 -37 -6 -77q-53 -410 -463 -410h-559zM303 119h438q279 0 328 301q4 33 4 63q0 88 -45 156q-61 88 -186 88h-4h-441zM418 844h440q125 0 208 71.5 t105 202.5q8 47 9 84q0 84 -41 123q-59 55 -195 55h-442zM780 1671l19 117q6 43 47 43h76q39 0 32 -43l-18 -117q-6 -39 -45 -39h-76q-18 0 -28.5 11.5t-6.5 27.5z" />
<glyph unicode="&#x1e03;" horiz-adv-x="1128" d="M123 0l254 1608h115l-95 -586q135 51 249 66.5t161 15.5q303 0 303 -365q0 -162 -51 -360q-45 -180 -133 -279q-45 -51 -115 -81.5t-152 -30.5q-104 0 -233 48t-168 85l-53 -121h-82zM272 205q213 -99 385 -99q121 0 202 109t114 324q18 113 18 197.5t-22 140.5 q-41 109 -174 110q-184 0 -408 -57zM383 1782l18 116q7 44 48 44h75q39 0 33 -44l-18 -116q-4 -39 -45 -39h-76q-18 0 -28.5 11t-6.5 28z" />
<glyph unicode="&#x1e0a;" horiz-adv-x="1359" d="M164 0l237 1497q0 2 545 2q111 0 194 -37t130 -102q98 -135 106 -305q4 -49 4 -90q0 -115 -20 -228q-131 -737 -647 -737h-549zM301 123h428q109 0 200 53t152 143q121 180 162 426q21 130 21 232q0 403 -338 403h-426zM793 1671l20 117q4 43 47 43h76q39 0 33 -43 l-19 -117q-6 -39 -45 -39h-76q-41 0 -36 39z" />
<glyph unicode="&#x1e0b;" horiz-adv-x="1107" d="M170 388.5q0 74.5 13.5 162.5t34 162.5t56 150.5t82.5 126t119 82t155 32t196.5 -22.5t199.5 -59.5l94 586h113l-254 -1608h-82l-14 121q-86 -59 -214 -96t-203 -37t-136 35q-111 61 -146 217q-14 74 -14 148.5zM285 366.5q0 -85.5 30 -151.5q51 -109 168 -109 q141 0 287 52q53 18 127 47l115 725q-207 57 -391 57q-248 0 -318 -426q-18 -109 -18 -194.5zM1122 1759l19 115q6 43 47 43h78q33 0 32 -31v-12l-20 -115q-4 -41 -45 -41h-76q-18 0 -27.5 11.5t-7.5 29.5z" />
<glyph unicode="&#x1e1e;" horiz-adv-x="1153" d="M164 0l194 1231q43 268 281 268h20l631 -29l-14 -90h-637q-78 0 -115 -37.5t-49 -109.5l-65 -428l690 -17l-15 -90l-696 -18l-106 -680h-119zM817 1671l19 117q6 43 47 43h75q41 0 35 -43l-20 -117q-4 -39 -45 -39h-76q-18 0 -28.5 11.5t-6.5 27.5z" />
<glyph unicode="&#x1e1f;" horiz-adv-x="794" d="M188 971l15 84l203 32l18 117q41 262 119 334q32 31 82.5 50.5t86.5 19.5h61.5t107.5 -13.5t123 -25.5l-11 -78h-250q-100 0 -139 -60.5t-63 -226.5l-19 -117h348l-20 -116h-348l-158 -971h-119l158 971h-195zM705 1772l18 114q6 43 47 43h76q39 0 33 -43l-19 -114 q-6 -41 -45 -41h-76q-18 0 -28.5 11t-5.5 30z" />
<glyph unicode="&#x1e40;" horiz-adv-x="1619" d="M145 0l359 1499h153l211 -1302l611 1302h166l-105 -1499h-119l95 1296l-611 -1296h-123l-207 1290l-311 -1290h-119zM1022 1671l20 117q7 43 48 43h75q39 0 33 -43l-18 -117q-6 -39 -45 -39h-76q-18 0 -28.5 11.5t-8.5 27.5z" />
<glyph unicode="&#x1e41;" horiz-adv-x="1853" d="M123 0l172 1087h80l18 -129q94 51 139.5 73t127 46.5t168.5 24.5t160 -49t97 -125q244 174 488 174q141 0 223 -101q61 -78 62 -184q0 -31 -5 -65l-120 -752h-117l119 752q4 25 4 45q0 72 -45 129t-156 57q-207 0 -430 -123q2 -8 2 -31.5t-8 -78.5l-119 -750h-117 l119 752q4 25 4 45q0 72 -46 129t-151.5 57t-186.5 -24.5t-228 -92.5l-135 -866h-119zM1063 1264l18 116q6 43 47 43h76q39 0 33 -43l-18 -116q-6 -39 -45 -39h-76q-18 0 -28.5 11t-6.5 28z" />
<glyph unicode="&#x1e56;" horiz-adv-x="1210" d="M154 0l237 1499h606q135 0 226 -82q76 -72 75 -233q0 -137 -34.5 -242.5t-59 -152t-63.5 -79t-68 -49t-74 -24.5q-57 -10 -128.5 -10t-278.5 13t-215 17l-107 -657h-116zM389 745h488q180 0 247 156q29 68 42.5 142.5t13.5 100t-3 54.5t-8.5 60.5t-24 54t-33.5 36 t-42 19.5q-41 12 -90 12h-490zM774 1671l19 117q6 43 49 43h76q39 0 32 -43l-18 -117q-6 -39 -45 -39h-76q-18 0 -28.5 11.5t-8.5 27.5z" />
<glyph unicode="&#x1e57;" horiz-adv-x="1122" d="M35 -553l268 1624q195 25 500 25q90 0 155 -35q160 -84 160 -361q0 -78 -14 -176q-76 -543 -449 -542q-82 0 -201.5 20.5t-203.5 56.5l-98 -612h-117zM268 154q183 -56 322 -56q39 0 87 5.5t95 27t90 68.5q86 96 125 344q14 90 14 164q0 270 -206 270h-394zM659 1262 l21 114q4 43 47 43h76q39 0 33 -43l-19 -114q-6 -41 -45 -41h-76q-18 0 -28.5 11t-8.5 30z" />
<glyph unicode="&#x1e60;" horiz-adv-x="1165" d="M162 27l14 92q144 -17 498 -17q293 0 325 217l23 140q4 37 4 83t-22 81q-35 53 -156 53h-266q-184 0 -254 74q-61 68 -62 153q0 23 8 111l21 135q37 227 166 301q106 61 268 61q80 0 253 -16t257 -29l-14 -90l-490 17q-18 2 -51 2t-76 -7.5t-86 -33.5q-84 -51 -108 -207 l-23 -135q-12 -86 -2 -117t17.5 -47.5t26 -26.5t32.5 -15t41 -9q39 -2 94 -2h266q94 0 156.5 -30t87.5 -77q37 -72 37 -133t-8 -100l-23 -140q-12 -86 -49 -150.5t-81 -98t-105 -54.5q-94 -29 -209 -28.5t-280 15.5t-230 28zM760 1688l20 116q4 41 47 41h76q39 0 33 -41 l-18 -116q-6 -39 -46 -39h-75q-18 0 -28.5 10t-8.5 29z" />
<glyph unicode="&#x1e61;" horiz-adv-x="1036" d="M131 16l14 84h541q76 0 100 21q57 43 70 117l16 108q4 18 5 33q0 102 -129 102h-291q-238 0 -258 131q-4 25 -4 56.5t6 72.5l14 101q23 135 97.5 198.5t228.5 63.5q225 0 510 -27l-15 -88h-514q-135 0 -174 -94q-10 -25 -14 -57l-17 -101q-12 -74 -0.5 -90t14.5 -23.5 t16 -12.5t17.5 -7t21.5 -3t22.5 -1h27h25.5h293q127 0 184 -63.5t57 -145.5q0 -25 -4 -49l-18 -121q-27 -176 -158 -219q-61 -18 -140 -18t-278.5 12t-265.5 20zM610 1268l19 114q6 43 47 43h76q41 0 34 -43l-20 -114q-4 -41 -45 -41h-76q-18 0 -28.5 11t-6.5 30z" />
<glyph unicode="&#x1e6a;" horiz-adv-x="1220" d="M285 1380l18 119h1061l-18 -119h-478l-219 -1380h-117l218 1380h-465zM782 1671l21 117q6 43 47 43h76q39 0 32 -43l-18 -117q-6 -39 -45 -39h-76q-18 0 -28.5 11.5t-8.5 27.5z" />
<glyph unicode="&#x1e6b;" horiz-adv-x="749" d="M188 971l15 88l196 31l78 303h88l-47 -303h332l-21 -119h-329l-92 -584q-10 -66 -10.5 -116t6 -77.5t26.5 -43.5q27 -23 125 -44.5t104 -21.5l-12 -84h-137q-231 0 -231 256q0 57 10 131l92 584h-193zM473 1554l19 117q6 43 47 43h77q39 0 33 -43l-20 -117 q-4 -39 -45 -38h-76q-18 0 -27.5 11t-7.5 27z" />
<glyph unicode="&#x1e80;" horiz-adv-x="2035" d="M307 1499h119l256 -1317l686 1317h133l-280 -549l147 -776l686 1325h129l-780 -1499h-123l-150 780l-407 -780h-123zM969 1905h137l213 -273h-105z" />
<glyph unicode="&#x1e81;" horiz-adv-x="1638" d="M193 1087h118l224 -933l417 761q53 102 64 168h84q8 -27 8 -71.5t-37 -116.5l-82 -164l127 -571l430 760q51 102 62 167h86q8 -31 8 -76.5t-37 -111.5l-510 -899h-119l-133 588l-319 -588h-129zM682 1493h137l213 -272h-104z" />
<glyph unicode="&#x1e82;" horiz-adv-x="2035" d="M307 1499h119l256 -1317l686 1317h133l-280 -549l147 -776l686 1325h129l-780 -1499h-123l-150 780l-407 -780h-123zM1214 1632l271 273h149l-315 -273h-105z" />
<glyph unicode="&#x1e83;" horiz-adv-x="1638" d="M193 1087h118l224 -933l417 761q53 102 64 168h84q8 -27 8 -71.5t-37 -116.5l-82 -164l127 -571l430 760q51 102 62 167h86q8 -31 8 -76.5t-37 -111.5l-510 -899h-119l-133 588l-319 -588h-129zM905 1217l273 272h147l-315 -272h-105z" />
<glyph unicode="&#x1e84;" horiz-adv-x="2035" d="M307 1499h119l256 -1317l686 1317h133l-280 -549l147 -776l686 1325h129l-780 -1499h-123l-150 780l-407 -780h-123zM937 1715q5 34 32.5 56.5t61.5 22.5t53.5 -22.5t14.5 -57.5t-32 -58.5t-60.5 -23.5t-54 24.5t-15.5 58.5zM1459 1715q5 34 33 56.5t61.5 22.5t53 -22.5 t14.5 -57.5t-31.5 -58.5t-60.5 -23.5t-54.5 24.5t-15.5 58.5z" />
<glyph unicode="&#x1e85;" horiz-adv-x="1638" d="M193 1087h118l224 -933l417 761q53 102 64 168h84q8 -27 8 -71.5t-37 -116.5l-82 -164l127 -571l430 760q51 102 62 167h86q8 -31 8 -76.5t-37 -111.5l-510 -899h-119l-133 588l-319 -588h-129zM631 1296.5q6 40.5 33.5 63t61.5 22.5t53.5 -22.5t14 -57t-33 -58 t-55 -23.5t-43.5 10q-37 25 -31 65.5zM1153 1296.5q6 40.5 33.5 63t61.5 22.5t53.5 -22.5t14.5 -57t-33 -58t-55.5 -23.5t-43.5 10q-37 25 -31 65.5z" />
<glyph unicode="&#x1ef2;" horiz-adv-x="1288" d="M307 1499h125l281 -819l581 819h140l-678 -967l-84 -532h-119l84 532zM594 1905h137l213 -273h-104z" />
<glyph unicode="&#x1ef3;" horiz-adv-x="1114" d="M193 1087h122l142 -849q20 -115 135 -117l22 2l404 805q41 80 53 168h94q10 -31 10.5 -78t-36.5 -117l-447 -899q-147 -291 -258 -410q-117 -127 -233 -143v82q70 31 137 115q80 98 124 179t51 95t23.5 46t18.5 34q-53 0 -102 29q-94 53 -117 196zM424 1495h137l213 -272 h-104z" />
<glyph unicode="&#x2000;" horiz-adv-x="1026" />
<glyph unicode="&#x2001;" horiz-adv-x="2052" />
<glyph unicode="&#x2002;" horiz-adv-x="1026" />
<glyph unicode="&#x2003;" horiz-adv-x="2052" />
<glyph unicode="&#x2004;" horiz-adv-x="684" />
<glyph unicode="&#x2005;" horiz-adv-x="513" />
<glyph unicode="&#x2006;" horiz-adv-x="342" />
<glyph unicode="&#x2007;" horiz-adv-x="342" />
<glyph unicode="&#x2008;" horiz-adv-x="256" />
<glyph unicode="&#x2009;" horiz-adv-x="410" />
<glyph unicode="&#x200a;" horiz-adv-x="114" />
<glyph unicode="&#x2010;" horiz-adv-x="710" d="M123 535l18 118h623l-19 -118h-622z" />
<glyph unicode="&#x2011;" horiz-adv-x="710" d="M123 535l18 118h623l-19 -118h-622z" />
<glyph unicode="&#x2012;" horiz-adv-x="710" d="M123 535l18 118h623l-19 -118h-622z" />
<glyph unicode="&#x2013;" horiz-adv-x="917" d="M123 528l18 121h969l-18 -121h-969z" />
<glyph unicode="&#x2014;" horiz-adv-x="1509" d="M121 532l18 121h1426l-19 -121h-1425z" />
<glyph unicode="&#x2018;" horiz-adv-x="483" d="M336 1133q0 8 2 16l31 207q8 49 30.5 80.5t50 44t48 15.5t31 3t32.5 -4l-8 -51h-4q-55 0 -66 -60l-10 -63h23q20 0 31.5 -12.5t7.5 -36.5l-19 -123q-8 -53 -57 -53h-84q-39 0 -39 37z" />
<glyph unicode="&#x2019;" horiz-adv-x="483" d="M338 1098l10 55h4q53 0 64 59l10 62h-23q-20 0 -31.5 12t-6.5 37l20 125q8 51 55 51h86q39 0 39 -37q0 -6 -2 -14l-33 -207q-8 -49 -30 -82q-43 -63 -131 -63q-6 0 -31 2z" />
<glyph unicode="&#x201a;" horiz-adv-x="483" d="M135 -178l8 53h4q55 0 66 62l8 61h-20q-20 0 -31.5 13.5t-9.5 35.5l20 123q8 53 58 53h84q39 0 38 -37v-16l-32 -205q-16 -94 -88 -131q-31 -14 -59.5 -14t-45.5 2z" />
<glyph unicode="&#x201c;" horiz-adv-x="739" d="M322 1133q0 8 2 16l32 207q8 49 31 80.5t49.5 44t47 15.5t30.5 3t33 -4l-8 -51h-4q-55 0 -64 -60l-10 -63h20q20 0 32.5 -12.5t8.5 -36.5l-20 -123q-6 -53 -58 -53h-84q-39 0 -38 37zM606 1133q0 8 2 16l33 207q8 49 30.5 80.5t49.5 44t47 15.5t30.5 3t32.5 -4l-8 -51h-2 q-57 0 -67 -60l-9 -63h21q20 0 32.5 -12.5t8.5 -36.5l-21 -123q-6 -53 -57 -53h-84q-39 0 -39 37z" />
<glyph unicode="&#x201d;" horiz-adv-x="739" d="M324 1098l10 55q27 -2 41 10q20 14 26 49l11 62h-21q-23 0 -34 12t-7 37l21 125q8 51 55 51h84q41 0 41 -37q0 -6 -2 -14l-33 -207q-8 -49 -31 -82q-43 -63 -131 -63q-6 0 -30 2zM608 1098l10 55h5q53 0 63 59l10 62h-22q-20 0 -31.5 12t-7.5 37l20 125q8 51 56 51h86 q39 0 39 -37q0 -6 -2 -14l-33 -207q-8 -49 -31 -82q-43 -63 -131 -63q-6 0 -31 2z" />
<glyph unicode="&#x201e;" horiz-adv-x="739" d="M121 -174l8 51q27 0 43 12q20 14 25 50l10 63h-21q-20 0 -31.5 12.5t-9.5 34.5l21 125q8 51 57 51h84q39 0 39 -35v-16l-35 -207q-6 -49 -30 -82q-43 -63 -131 -63q-6 0 -29 4zM406 -174l8 51h4q55 0 65 62l9 63h-21q-20 0 -32.5 12.5t-8.5 34.5l21 125q8 51 57 51h84 q39 0 39 -35v-16l-35 -207q-8 -49 -31 -82q-43 -63 -131 -63q-6 0 -28 4z" />
<glyph unicode="&#x2020;" horiz-adv-x="985" d="M231 1018l15 90l293 16l88 453h94l-57 -453l286 -16l-14 -90l-293 -19l-197 -1146h-96l168 1146z" />
<glyph unicode="&#x2021;" horiz-adv-x="892" d="M199 371l14 90l297 16l80 522l-289 19l14 90l293 16l88 453h95l-58 -453l287 -16l-14 -90l-293 -19l-88 -522l293 -16l-15 -90l-301 -19l-86 -499h-96l72 499z" />
<glyph unicode="&#x2022;" horiz-adv-x="651" d="M283 700q0 8 2 15l18 131q6 33 26.5 52.5t53.5 19.5h119q59 0 59 -56v-16l-20 -131q-10 -66 -82 -66h-119q-57 0 -57 51z" />
<glyph unicode="&#x2026;" horiz-adv-x="1544" d="M299 39l20 121q7 43 48 43h79q37 0 37 -33q0 -4 -2 -10l-18 -121q-8 -39 -47 -39h-82q-18 0 -27.5 11.5t-7.5 27.5zM856 39l21 121q6 43 47 43h80q37 0 36 -33q0 -4 -2 -10l-18 -121q-8 -39 -47 -39h-82q-16 0 -26.5 11.5t-8.5 27.5zM1411 39l21 121q6 43 47 43h82 q35 0 34 -33v-10l-20 -121q-6 -39 -47 -39h-80q-18 0 -28.5 11.5t-8.5 27.5z" />
<glyph unicode="&#x202f;" horiz-adv-x="410" />
<glyph unicode="&#x2030;" horiz-adv-x="2752" d="M164 907q0 31 6 64l43 272q20 137 83.5 196.5t221.5 59.5h207q137 0 188 -59q37 -43 37 -123q0 -35 -6 -74l-43 -272q-23 -139 -82 -197q-63 -59 -219 -59h-207q-229 0 -229 192zM264 904q0 -36 25.5 -62.5t116.5 -26.5h206q96 0 135 31t56 125l41 272q8 35 8 57.5 t-6 47.5q-12 51 -135 53h-207q-100 0 -138 -33t-55 -125l-41 -272q-6 -31 -6 -67zM395 0l1135 1499h110l-1134 -1499h-111zM1098 195q0 31 4 63l43 272q23 137 85 196.5t218 59.5h207q139 0 190 -59q37 -43 37 -125q0 -33 -6 -72l-43 -272q-23 -143 -86.5 -199.5 t-216.5 -56.5h-207q-225 0 -225 193zM1198 191.5q0 -35.5 24.5 -63.5t114.5 -28h207q96 0 136 32t55 126l43 272q6 33 6 69t-22.5 61.5t-121.5 25.5h-206q-98 0 -136 -31.5t-53 -124.5l-43 -272q-4 -31 -4 -66.5zM1966 193q0 31 6 63l43 272q20 137 82.5 196.5t220.5 59.5 h207q139 0 191 -59q37 -43 37 -125q0 -33 -7 -72l-43 -272q-23 -143 -86 -199.5t-219 -56.5h-207q-225 0 -225 193zM2066.5 189.5q-0.5 -35.5 24.5 -63.5t115 -28h207q96 0 136 32t54 126l43 272q6 33 6 69t-21.5 61.5t-121.5 25.5h-207q-98 0 -136 -31.5t-52 -124.5 l-43 -272q-4 -31 -4.5 -66.5z" />
<glyph unicode="&#x2039;" horiz-adv-x="600" d="M78 725l487 416l74 -84l-401 -342l290 -340l-86 -76z" />
<glyph unicode="&#x203a;" horiz-adv-x="745" d="M217 385l406 344l-289 338l86 74l360 -422l-491 -420z" />
<glyph unicode="&#x2044;" horiz-adv-x="827" d="M-63 0l981 1526h102l-979 -1526h-104z" />
<glyph unicode="&#x205f;" horiz-adv-x="513" />
<glyph unicode="&#x20ac;" horiz-adv-x="1476" d="M143 535l11 73l184 10l37 236l-178 12l10 68l182 14q0 6 5 36t10.5 61.5t25 95t43 107.5t67.5 98.5t99 89.5q131 80 319 80q78 0 221.5 -17.5t252.5 -38.5l-15 -90q-301 29 -387 29t-88 -2q-266 0 -360 -193q-47 -96 -74 -256l510 -10l-10 -74l-516 -10l-35 -236l508 -12 l-11 -74q-303 -4 -442 -8l-74 -2q-10 -68 -10 -125q0 -289 307 -291q8 -2 58 -2q141 0 358 25l78 8l-15 -88q-242 -61 -493 -61q-129 0 -215 45q-94 47 -131 112q-63 106 -63.5 195.5t10.5 181.5z" />
<glyph unicode="&#x2122;" horiz-adv-x="1298" d="M96 1401l15 98h530l-14 -98h-215l-99 -617h-96l96 617h-217zM608 784l168 715h88l142 -551l284 551h103l-50 -715h-94l33 492l-256 -492h-80l-127 494l-112 -494h-99z" />
<glyph unicode="&#x2202;" horiz-adv-x="1333" d="M182 391q0 35 6 74q37 231 188.5 351t393.5 120t381 -117q10 98 10 180q0 172 -55 265q-80 133 -286 133t-398 -107l-23 72q98 59 146 84q133 70 289 70q260 0 370 -195q76 -133 76 -328q0 -94 -21.5 -232t-72.5 -279.5t-128 -253t-189.5 -175t-250.5 -63.5 q-209 0 -333 135q-102 109 -103 266zM299 399q0 -123 76 -196q96 -96 256 -97q96 0 179 49.5t137 121t95 161.5q72 150 95 295q-76 45 -183.5 64.5t-181.5 19.5q-207 0 -323.5 -90t-143.5 -258q-6 -37 -6 -70z" />
<glyph unicode="&#x2206;" horiz-adv-x="1501" d="M41 0l893 1499h121l393 -1499h-1407zM254 119h1038l-315 1222z" />
<glyph unicode="&#x220f;" horiz-adv-x="1275" d="M217 0l219 1380h-176l19 119h1189l-18 -119h-178l-219 -1380h-119l219 1380h-600l-217 -1380h-119z" />
<glyph unicode="&#x2211;" horiz-adv-x="1140" d="M16 -410l19 123l571 840l-305 827l18 119h1051l-20 -119h-908l308 -850l-551 -817h886l-18 -123h-1051z" />
<glyph unicode="&#x221a;" horiz-adv-x="1228" d="M131 614l19 119h243l185 -563l768 1468h118l-843 -1638h-105l-203 614h-182z" />
<glyph unicode="&#x221e;" horiz-adv-x="1402" d="M111 639q0 33 2 61q37 353 393 353q102 0 190 -73t138 -173q135 168 286 225q59 20 115 21q289 0 289 -281q0 -37 -4 -78q-43 -348 -396 -348q-109 0 -194.5 68.5t-132.5 183.5q-160 -252 -398 -252q-246 0 -282 225q-6 35 -6 68zM227 618q0 -49 29 -92q41 -63 160 -63 q111 0 205 84q70 61 143 153q-49 100 -120 167t-155 67q-129 0 -186 -57q-76 -78 -76 -259zM868 700q52 -110 114 -173.5t173 -63.5q209 0 246 235q6 39 6 88.5t-23 87.5q-37 59 -167 60q-55 0 -123 -35q-119 -66 -226 -199z" />
<glyph unicode="&#x222b;" horiz-adv-x="864" d="M-16 -377l12 78h188q61 0 90 30.5t44.5 51t28.5 60.5t22.5 69t19.5 82q14 76 23.5 129t9.5 57l135 856q57 360 145 486q84 117 218 116q88 0 122.5 -12t50 -19.5t25.5 -9.5l-12 -77h-188q-61 0 -101 -43q-47 -53 -63.5 -103.5t-26.5 -81t-20 -84.5q-14 -76 -31 -172 l-135 -856q-51 -317 -105 -422q-66 -123 -143 -155q-47 -20 -107 -21q-147 0 -202 41z" />
<glyph unicode="&#x2248;" horiz-adv-x="1046" d="M182 512q61 47 93 68.5t90.5 45t112.5 23.5t138 -50t130.5 -50t82 12t86 40t74.5 38l23 -64q-8 -6 -60.5 -43.5t-72.5 -50.5q-76 -45 -139.5 -45t-146.5 50.5t-131 50.5t-85 -11.5t-90.5 -37t-81.5 -37.5zM240 874q61 47 93 68t90 45.5t112.5 24.5t137.5 -50.5t130 -50.5 t83 12.5t86 39t75 36.5l22 -61q-8 -6 -60.5 -44t-72.5 -52q-76 -45 -139.5 -45t-146.5 51t-131 51t-85 -11t-90 -38t-82 -37z" />
<glyph unicode="&#x2260;" horiz-adv-x="1099" d="M256 434l20 125h293l252 330h-493l20 125h570l118 153h94l-118 -153h211l-21 -125h-284l-252 -330h485l-21 -125h-563l-135 -176h-94l135 176h-217z" />
<glyph unicode="&#x2264;" horiz-adv-x="1140" d="M205 229l18 117h772l-18 -117h-772zM301 844l21 123l802 352l-20 -127l-655 -293l561 -311l-21 -121z" />
<glyph unicode="&#x2265;" horiz-adv-x="921" d="M135 229l19 117h772l-19 -117h-772zM195 463l20 131l666 307l-574 299l23 115l690 -352l-21 -123z" />
<glyph unicode="&#x25fc;" horiz-adv-x="1085" d="M0 0v1085h1085v-1085h-1085z" />
</font>
</defs>
</svg>
