<?xml version="1.0" standalone="no"?>
<!DOCTYPE svg PUBLIC "-//W3C//DTD SVG 1.1//EN" "http://www.w3.org/Graphics/SVG/1.1/DTD/svg11.dtd" >
<svg xmlns="http://www.w3.org/2000/svg">
<metadata></metadata>
<defs>
<font id="exothinitalic" horiz-adv-x="1116" >
<font-face units-per-em="2048" ascent="1638" descent="-410" />
<missing-glyph horiz-adv-x="479" />
<glyph horiz-adv-x="0" />
<glyph unicode="&#xd;" horiz-adv-x="2048" />
<glyph unicode=" "  horiz-adv-x="479" />
<glyph unicode="&#x09;" horiz-adv-x="479" />
<glyph unicode="&#xa0;" horiz-adv-x="479" />
<glyph unicode="!" horiz-adv-x="483" d="M172 25l21 127q3 24 28 24h23q25 0 20 -24l-20 -127q-4 -25 -29 -25h-22q-25 0 -21 25zM254 401l164 1096h45l-184 -1096h-25z" />
<glyph unicode="&#x22;" horiz-adv-x="587" d="M221 1087l29 275l22 137h52l-23 -137l-55 -275h-25zM426 1087l29 275l22 137h51l-22 -137l-55 -275h-25z" />
<glyph unicode="#" horiz-adv-x="1292" d="M115 512l8 25h366l132 419h-367l10 25h365l166 518h24l-166 -518h381l164 518h25l-164 -518h362l-8 -25h-364l-131 -421h362l-8 -25h-363l-161 -510h-25l162 510l-381 2l-162 -512h-25l162 512h-364zM514 537l379 -2l131 421h-379z" />
<glyph unicode="$" horiz-adv-x="1175" d="M164 14l4 31q131 -12 459 -12q170 0 270 60.5t125 225.5l20 140q6 41 7 73q0 82 -37 123q-55 55 -211 56h-209q-182 0 -252 69q-63 63 -64 140q0 20 9 92l22 135q33 213 147.5 288.5t338.5 75.5l26 177h37l-27 -179q180 -10 359 -36l-4 -27l-393 18h-41 q-164 0 -263.5 -62.5t-130.5 -254.5l-22 -135q-6 -37 -6 -66q0 -92 59 -139t209 -47h213q188 0 248 -80q41 -55 41 -145q0 -37 -6 -76l-21 -140q-41 -246 -231 -307q-98 -29 -217 -28h-35l-27 -164h-37l27 166q-291 10 -387 28z" />
<glyph unicode="%" horiz-adv-x="2017" d="M229 874.5q0 57.5 7 96.5l43 272q20 135 86.5 195.5t216.5 60.5h206q145 0 195 -61q33 -41 33 -97.5t-6 -97.5l-43 -272q-20 -137 -85 -196.5t-214 -59.5h-207q-147 0 -197 59q-35 43 -35 100.5zM260 879q0 -133 201 -134h207q125 0 186 47.5t82 178.5l43 272q6 39 6 89 t-29 85q-41 51 -170 51h-206q-127 0 -188.5 -47t-82.5 -178l-43 -272q-6 -41 -6 -92zM461 0l1134 1499h43l-1134 -1499h-43zM1110 166q0 57 6 96l43 273q20 137 84.5 196.5t214.5 59.5h207q147 0 197 -62q35 -41 34.5 -98.5t-6.5 -95.5l-43 -273q-20 -137 -85.5 -196.5 t-215.5 -59.5h-207q-145 0 -194 60q-35 43 -35 100zM1141 170q0 -133 198 -133h207q125 0 187.5 47t83.5 178l43 273q6 37 6 88q0 137 -201 137h-207q-127 0 -187.5 -47t-80.5 -178l-43 -273q-6 -41 -6 -92z" />
<glyph unicode="&#x26;" horiz-adv-x="1409" d="M129 371q0 53 16 108q49 152 207 271l199 149l-100 174q-59 100 -60 178q0 102 65.5 158.5t146.5 75t224.5 18.5t374.5 -20l-4 -29h-436q-207 0 -287 -90q-35 -43 -35 -106.5t47 -155.5l465 -807l373 309l14 -16l-168 -172l-192 -160l151 -256h-49l-139 227l-168 -137 q-121 -98 -270 -98q-76 0 -148 28q-106 43 -170 148q-57 103 -57 203zM174 371q0 -86 49 -172q97 -162 287 -162q121 0 229 86l176 143l-340 592l-182 -135q-219 -166 -219 -352z" />
<glyph unicode="'" horiz-adv-x="270" d="M184 1087l29 275l23 137h51l-23 -137l-55 -275h-25z" />
<glyph unicode="(" horiz-adv-x="563" d="M233 489q0 498 238 945q145 268 242 393l43 57h51q-16 -23 -45 -61.5t-105.5 -161.5t-139 -246t-126 -296t-87 -326.5t-23.5 -237.5t4 -181.5t32 -234.5q51 -242 121 -391l25 -55h-53q-10 18 -41 94t-52 143q-84 270 -84 559z" />
<glyph unicode=")" horiz-adv-x="565" d="M-27 -307l45 57q29 35 104 151.5t138.5 237.5t128 300t87 331t22.5 232.5t-4.5 177t-32.5 237.5q-49 242 -117 406l-25 61h52q4 -12 13 -32.5t32.5 -87t42.5 -138.5q86 -305 86 -584q0 -299 -111 -620q-61 -178 -129 -303q-143 -270 -233 -377l-41 -49h-58z" />
<glyph unicode="*" horiz-adv-x="989" d="M285 1212l4 29l293 8l-7 -49zM391 838l111 274l51 -8l-137 -275zM604 1014l33 47l215 -170l-21 -23zM610 1481l29 8l96 -252l-51 -23zM713 1130l256 170l14 -24l-240 -184z" />
<glyph unicode="+" horiz-adv-x="1073" d="M205 705l8 49h371l57 370h49l-57 -370h371l-9 -49h-370l-60 -371h-49l59 371h-370z" />
<glyph unicode="," horiz-adv-x="350" d="M123 -139l2 12q33 0 39 31l14 96h-12q-25 0 -21 27l21 127q4 27 29 26h20q25 0 21 -26l-37 -230q-8 -57 -54 -65h-8t-14 2z" />
<glyph unicode="-" horiz-adv-x="677" d="M123 569l8 49h582l-8 -49h-582z" />
<glyph unicode="." horiz-adv-x="352" d="M145 25l21 127q4 24 29 24h22q25 0 21 -24l-21 -127q-4 -25 -29 -25h-22q-25 0 -21 25z" />
<glyph unicode="/" horiz-adv-x="595" d="M16 -147l848 1724h45l-848 -1724h-45z" />
<glyph unicode="0" horiz-adv-x="1329" d="M242 256q0 35 6 76l133 835q25 160 137 246t266 86h275q178 0 246 -90q51 -68 51 -170q0 -35 -6 -72l-133 -835q-53 -332 -396 -332h-274q-154 0 -240 80q-66 61 -65 176zM293 270q0 -94 60.5 -157.5t201.5 -63.5h274q295 0 338 283l133 835q6 37 7 68q0 215 -256 215 h-275q-139 0 -232 -75t-114 -208l-133 -835q-4 -33 -4 -62z" />
<glyph unicode="1" horiz-adv-x="831" d="M274 1280l9 31q90 0 207.5 47t189.5 94l72 47h45l-234 -1499h-49l229 1438q-80 -53 -210 -105.5t-259 -52.5z" />
<glyph unicode="2" horiz-adv-x="1175" d="M96 0l8 47q31 14 219.5 155.5t240.5 184.5t138 113.5t139.5 123t120 121t105.5 123.5q96 133 108.5 208t12.5 126q0 121 -58 180q-80 86 -266 86h-549l4 31q166 20 566 21q217 0 299 -115q57 -82 57 -207q0 -51 -10 -113q-61 -365 -1043 -1036h879l-8 -49h-963z" />
<glyph unicode="3" horiz-adv-x="1185" d="M80 8l6 29h559q311 0 361 303l18 121q4 25 4 57.5t-18.5 76.5t-63.5 73q-84 49 -190 53l-434 14l4 29l438 12q131 2 234.5 67.5t121.5 188.5l21 142q6 35 6 63q0 96 -64.5 156.5t-199.5 60.5h-586l4 29q123 23 311.5 22.5t286.5 -2.5q174 -2 244 -94q53 -70 53 -170 q0 -35 -6 -74l-21 -141q-27 -164 -172 -240q-59 -31 -118 -36q76 -12 139 -77t63 -161q0 -29 -4 -59l-18 -121q-53 -344 -418 -344q-455 0 -561 22z" />
<glyph unicode="4" horiz-adv-x="1171" d="M113 485l788 1014h55l-784 -1016h774l76 484l45 153h29l-101 -637h185l-4 -28l-189 -21l-67 -430h-50l68 430h-809z" />
<glyph unicode="5" horiz-adv-x="1284" d="M162 12l4 29h608q119 0 222.5 80t125.5 223l31 195q6 43 6 79q0 215 -235 216h-314q-104 0 -198.5 -78t-108.5 -178h-49l190 921h867l-8 -49h-820l-145 -702q18 25 46 50t91.5 55t134.5 30h312q172 0 237 -92q49 -66 49 -168q0 -37 -6 -80l-33 -203q-16 -98 -61 -171 t-104 -108q-115 -70 -224 -69q-475 0 -618 20z" />
<glyph unicode="6" horiz-adv-x="1300" d="M225 410.5q0 156.5 29 375.5q59 373 185 549t282 176q395 0 553 -18l-4 -31h-545q-92 0 -169 -67.5t-126 -175.5q-90 -199 -125 -412q197 23 565 22q193 0 258 -79q49 -59 50 -152q0 -33 -7 -68l-36 -227q-27 -166 -112 -235.5t-237 -69.5h-254q-88 0 -151.5 36 t-108.5 126q-47 94 -47 250.5zM272 457q0 -410 258 -410h244q268 0 309 252l35 217q6 43 6 78q0 90 -52 137t-193 47h-578q-29 -184 -29 -321z" />
<glyph unicode="7" horiz-adv-x="1105" d="M274 1450l9 49h897l24 -47l-717 -1452h-57l717 1450h-873z" />
<glyph unicode="8" horiz-adv-x="1318" d="M242 233l6 82l31 203q16 106 93 169t148 63q-168 29 -168 211q0 35 6 75l21 133q31 193 130 266.5t273 73.5h238q297 0 297 -270q0 -45 -8 -98l-21 -133q-14 -86 -78.5 -155t-148.5 -75q152 -45 151 -200q0 -29 -4 -62l-30 -201q-35 -213 -195 -280q-82 -35 -176 -35 h-236q-100 0 -169.5 24.5t-98.5 61.5q-61 77 -61 147zM293 254q0 -92 71.5 -148.5t215.5 -56.5h221q111 0 206 62.5t115 197.5l35 215q6 33 6 64q0 98 -71 127q-45 18 -76 22t-86 4h-273q-98 0 -202.5 -53t-122.5 -164l-35 -215q-4 -28 -4 -55zM401.5 949.5 q-0.5 -31.5 13 -69.5t56.5 -59q70 -33 188 -33h265q137 0 219 70t94 154l23 139q6 47 6 86q0 98 -45 152q-61 72 -209 71h-234q-166 0 -247.5 -73.5t-104.5 -235.5l-20 -139q-4 -31 -4.5 -62.5z" />
<glyph unicode="9" horiz-adv-x="1302" d="M205 6l4 31h545q94 0 170.5 67.5t126.5 178.5q88 197 123 409q-197 -23 -580 -22q-190 0 -250 84q-43 59 -43 151q0 35 6 74l37 227q27 162 123 228.5t254 66.5h237q299 0 299 -463q0 -147 -30 -344q-59 -371 -185.5 -538.5t-281.5 -167.5q-397 0 -555 18zM350 899 q0 -33 11.5 -72t52.5 -63q70 -43 196 -43h568q31 188 30 328q0 403 -250 403h-245q-283 0 -322 -252l-35 -231q-6 -37 -6 -70z" />
<glyph unicode=":" horiz-adv-x="362" d="M156 25l20 127q4 24 29 24h22q25 0 21 -24l-21 -127q-4 -25 -28 -25h-23q-25 0 -20 25zM289 932l20 129q4 24 29 24h22q25 0 21 -24l-21 -129q-4 -23 -28 -23h-23q-25 0 -20 23z" />
<glyph unicode=";" horiz-adv-x="352" d="M123 -139l2 12q33 0 39 31l14 96h-12q-25 0 -21 27l21 127q4 27 29 26h20q25 0 21 -26l-37 -230q-8 -57 -54 -65h-8t-14 2zM289 932l20 129q4 24 29 24h22q25 0 21 -24l-21 -129q-4 -23 -28 -23h-23q-25 0 -20 23z" />
<glyph unicode="&#x3c;" horiz-adv-x="966" d="M203 707l6 41l770 393l-10 -54l-705 -362l586 -387l-6 -49z" />
<glyph unicode="=" horiz-adv-x="946" d="M109 434l8 49h874l-8 -49h-874zM193 965l8 49h874l-8 -49h-874z" />
<glyph unicode="&#x3e;" horiz-adv-x="968" d="M147 289l9 55l712 387l-594 363l9 47l643 -393l-6 -41z" />
<glyph unicode="?" horiz-adv-x="1112" d="M256 1464l4 29q180 20 508 20h10q221 0 299 -92q57 -70 58 -188q0 -45 -9 -98l-30 -207q-33 -205 -170 -277q-98 -51 -275 -51q-70 0 -153 8l-33 -209h-53l39 250h208q168 0 264.5 64.5t120.5 214.5l33 207q6 47 6 88q0 111 -51 166q-74 76 -266 75h-510zM350 25l21 127 q3 24 28 24h23q25 0 20 -24l-20 -127q-4 -25 -29 -25h-22q-25 0 -21 25z" />
<glyph unicode="@" horiz-adv-x="1845" d="M125 -57q0 37 6 75l166 1049q60 365 420 365h768q168 0 239 -95q53 -70 54 -182q0 -41 -6 -88l-109 -725q-8 -68 -37 -135.5t-62.5 -104t-98 -66.5t-148.5 -30h-60l5 123q-47 -51 -179 -92q-137 -45 -256 -45q-180 0 -262 121q-55 80 -55 239q0 92 18 211q80 516 441 551 q35 4 99.5 4t177 -29.5t188.5 -101.5l-138 -934q274 0 318 289l108 725q8 51 9 92q0 102 -48 152q-63 72 -200 71h-766q-322 0 -371 -315l-166 -1049q-6 -39 -6 -73q0 -106 57 -174q76 -88 213 -88h787l-4 -29q-102 -20 -594 -21h-201q-158 0 -244 109q-63 84 -63 201z M561 393q0 -49 7 -106.5t25.5 -110.5t57.5 -82q72 -53 172 -53h17q260 0 424 123l120 817q-156 82 -366 82h-29q-350 -13 -416 -543q-12 -78 -12 -127z" />
<glyph unicode="A" horiz-adv-x="1316" d="M92 0l799 1499h70l299 -1499h-50l-104 518h-682l-274 -518h-58zM451 567h645l-176 885z" />
<glyph unicode="B" horiz-adv-x="1208" d="M164 0l237 1499h519q215 0 288 -90q51 -66 52 -174q0 -201 -127 -334q-96 -102 -201 -115q86 -20 151.5 -111t65.5 -198q0 -35 -6 -74q-63 -403 -461 -403h-518zM221 51h469q346 0 406 367q4 29 4 57q0 104 -76 194.5t-211 90.5h-10h-469zM342 809h469q143 0 250.5 89 t138.5 239q12 57 12 104q0 94 -49 139q-72 70 -252 70h-469z" />
<glyph unicode="C" horiz-adv-x="1155" d="M215 492q0 125 27.5 297t66.5 298.5t108.5 229t176 151t271.5 48.5t423 -50l-4 -28q-29 4 -54.5 6t-58 5t-72.5 6t-81 5q-123 6 -168 6q-160 0 -262 -57q-213 -123 -299 -659q-23 -143 -23 -256q0 -457 361 -457q193 0 377 18l61 6l-4 -28q-250 -45 -445 -45 q-401 0 -401 504z" />
<glyph unicode="D" horiz-adv-x="1347" d="M164 0l237 1499h517q133 0 225 -52t137 -132q76 -131 76 -338q0 -104 -28 -255t-77 -275.5t-123.5 -228t-185.5 -161t-248 -57.5h-530zM221 49h473q133 0 240.5 64.5t175.5 173.5q131 207 172 458q23 135 23 242q0 180 -62 289q-98 174 -336 174h-465z" />
<glyph unicode="E" horiz-adv-x="1148" d="M195 186q0 35 6 76l155 981q23 139 103 197.5t182 58.5h14l607 -20l-5 -29h-608q-209 0 -243 -217l-74 -465l733 -10l-4 -29l-737 -10l-74 -467q-6 -35 -6 -62q0 -76 48 -111.5t154 -35.5h588l-4 -29l-592 -20h-16q-227 0 -227 192z" />
<glyph unicode="F" horiz-adv-x="1136" d="M164 0l192 1225q25 162 100.5 218t184.5 56h16l607 -20l-4 -29h-613q-104 0 -162.5 -51t-76.5 -166l-74 -465l735 -10l-6 -29l-735 -10l-115 -719h-49z" />
<glyph unicode="G" horiz-adv-x="1310" d="M219 381q0 150 30 341t52.5 287.5t65.5 200t100 165t147.5 101.5t189.5 40t258 -17.5t263 -38.5l-6 -39l-86 13q-254 32 -409 32h-9q-238 0 -345.5 -172t-164.5 -540q-35 -199 -35 -333t29 -216q63 -166 301 -166q141 0 412 76l90 26l94 604h-438l6 29q86 23 251 23 t238 -6l-125 -791h-28v111q-72 -35 -229.5 -78t-269.5 -43t-185.5 25.5t-114.5 82t-61.5 121t-20.5 162.5z" />
<glyph unicode="H" horiz-adv-x="1333" d="M174 0l238 1499h49l-119 -749h901l119 749h49l-237 -1499h-50l111 700h-901l-111 -700h-49z" />
<glyph unicode="I" horiz-adv-x="393" d="M184 0l238 1499h49l-238 -1499h-49z" />
<glyph unicode="J" horiz-adv-x="653" d="M78 43l12 29q98 -33 176 -33q240 0 289 299l184 1161h49l-184 -1161q-33 -221 -153 -301q-72 -47 -179 -47q-121 0 -194 53z" />
<glyph unicode="K" horiz-adv-x="1081" d="M164 0l237 1499h50l-115 -723h313l602 723h62l-619 -745l383 -754h-57l-371 727h-319l-115 -727h-51z" />
<glyph unicode="L" horiz-adv-x="1120" d="M203 258l196 1241h50l-197 -1241q-6 -34 -6 -61q0 -76 49 -112t154 -36h565l-8 -49h-555q-117 0 -189 41q-65 38 -65 146q0 34 6 71z" />
<glyph unicode="M" horiz-adv-x="1576" d="M145 0l404 1499h69l216 -1415l651 1415h80l-66 -1499h-51l65 1436l-663 -1436h-57l-211 1425l-385 -1425h-52z" />
<glyph unicode="N" horiz-adv-x="1314" d="M164 0l237 1499h52l675 -1411l226 1411h49l-238 -1499h-49l-678 1413l-225 -1413h-49z" />
<glyph unicode="O" horiz-adv-x="1400" d="M209 418q0 139 32.5 341t81 343t101.5 221t136 122t159 53t185.5 11t175 -9t128 -37.5t95.5 -82.5q69 -111 69 -298v-5q0 -137 -31.5 -343t-76.5 -340t-98.5 -213t-134.5 -122t-160.5 -55t-202.5 -12t-198 13t-141.5 58.5t-93 130.5t-26.5 224zM260 362.5 q0 -59.5 20.5 -135t78 -116.5t130 -55.5t188.5 -14.5t192.5 14.5t147 56.5t118.5 119q100 162 155 508q31 190 31 324.5t-24.5 214.5t-86 120t-128 51t-155.5 11t-132 -3t-97.5 -12t-91.5 -30.5t-80 -55.5t-73.5 -88t-61.5 -128t-55.5 -175.5t-49 -257t-25.5 -222t-1 -126z " />
<glyph unicode="P" horiz-adv-x="1196" d="M154 0l237 1499h565q168 0 232 -65q74 -80 74 -181q0 -59 -11 -163q-35 -209 -108 -297q-37 -45 -72 -74t-84 -39q-78 -18 -155.5 -18t-296 8t-224.5 12l-108 -682h-49zM315 711h516q135 0 226 67q111 82 143 314q10 90 10 142t-19.5 91t-40 63.5t-56.5 36.5 q-59 23 -146 23h-516z" />
<glyph unicode="Q" horiz-adv-x="1413" d="M217 418q0 139 33 341t81 343t101 221t136 122t159 53t185.5 11t175 -9t128 -37.5t95.5 -82.5q69 -111 69 -298v-5q0 -137 -31.5 -343t-76.5 -340t-98.5 -213t-134.5 -122t-160.5 -55t-202.5 -12t-198 13t-141.5 58.5t-93 130.5t-26.5 224zM268 362.5q0 -59.5 20.5 -135 t78 -116.5t130 -55.5t188.5 -14.5t192.5 14.5t147.5 56.5t118 119q100 162 155 508q31 190 31 324.5t-24.5 214.5t-86 120t-128 51t-155.5 11t-132 -3t-97.5 -12t-91 -30.5t-79.5 -55.5t-74 -88t-61.5 -128t-55.5 -175.5t-49.5 -257t-25.5 -222t-1 -126zM653 -68h29 q16 -78 71.5 -114.5t118.5 -37.5h3q63 0 147 23l-8 -49q-72 -23 -111 -23q-1 0 -2 1q-39 0 -47 2q-78 2 -137.5 54t-63.5 144z" />
<glyph unicode="R" horiz-adv-x="1253" d="M154 0l237 1499h565q162 0 230 -72q76 -80 76 -200q0 -61 -11 -146q-45 -276 -164 -354q-59 -39 -107 -51t-120 -14l223 -662h-53l-223 662q-481 8 -496 20l-108 -682h-49zM315 711h516q70 0 121.5 13t104.5 50q106 80 143 316q10 90 10 142t-19.5 91t-40 63.5 t-56.5 38.5q-66 23 -146 23h-516z" />
<glyph unicode="S" horiz-adv-x="1157" d="M162 14l4 31q133 -12 485 -12q252 0 340 141q37 59 49 145l21 140q6 37 6 67q0 82 -41 125q-55 59 -207 60h-229q-225 0 -283 94q-35 59 -35 117.5t11 97.5l22 135q33 207 145.5 281.5t317.5 74.5t438 -38l-4 -27l-452 16h-27q-152 0 -246 -68.5t-123 -246.5l-22 -135 q-6 -39 -6 -72q0 -90 56 -135t212 -45h233q188 0 246 -84q43 -59 43 -152q0 -35 -6 -75l-20 -140q-33 -209 -168 -272q-117 -53 -283 -53q-86 0 -250 9t-227 21z" />
<glyph unicode="T" horiz-adv-x="1292" d="M285 1450l8 49h1102l-9 -49h-532l-229 -1450h-50l230 1450h-520z" />
<glyph unicode="U" horiz-adv-x="1394" d="M244 385q0 115 24 270l133 844h50l-134 -844q-27 -161 -27 -219q0 -52 4 -99q3 -40 9 -85t25.5 -78t36 -56.5t50.5 -37.5t56.5 -23.5t67.5 -11.5q76 -6 147.5 -6t115.5 3t99 17.5t94 39t82 69.5t74 111q74 152 106 376l134 844h49l-133 -844q-35 -207 -70 -296 t-59.5 -139t-58.5 -85t-61.5 -60.5t-68.5 -41t-68.5 -24.5t-72.5 -13q-70 -6 -211 -6t-217 30q-176 68 -176 365z" />
<glyph unicode="V" horiz-adv-x="1368" d="M307 1499h51l289 -1446l772 1446h56l-799 -1499h-70z" />
<glyph unicode="W" horiz-adv-x="2007" d="M307 1499h49l291 -1448l733 1448h54l-308 -616l199 -834l735 1450h54l-758 -1499h-70l-196 811l-414 -811h-70z" />
<glyph unicode="X" horiz-adv-x="1110" d="M78 0l563 748l-332 751h58l311 -704l543 704h63l-582 -756l334 -743h-57l-311 694l-527 -694h-63z" />
<glyph unicode="Y" horiz-adv-x="1286" d="M307 1499h55l320 -901l651 901h60l-693 -967l-84 -532h-49l84 532z" />
<glyph unicode="Z" horiz-adv-x="1038" d="M72 0l8 49l1104 1401h-883l8 49h948l-8 -49l-1104 -1401h883l-8 -49h-948z" />
<glyph unicode="[" horiz-adv-x="542" d="M147 -41q0 55 9 86l229 1450q61 352 336 352h100l-6 -49h-102q-106 0 -180 -73.5t-99 -229.5l-229 -1450q-8 -47 -8 -88q0 -215 190 -215h102l-8 -49h-102q-84 0 -137.5 38t-69.5 93q-25 80 -25 135z" />
<glyph unicode="\" horiz-adv-x="884" d="M289 1577h39l303 -1724h-39z" />
<glyph unicode="]" horiz-adv-x="552" d="M-27 -307l9 49h102q119 0 186.5 84t89.5 219l230 1450q8 51 8 115.5t-33 113.5q-49 74 -155 74h-103l8 49h103q86 0 140 -37.5t69 -93.5q20 -72 20 -130t-8 -91l-229 -1450q-55 -352 -334 -352h-103z" />
<glyph unicode="^" horiz-adv-x="874" d="M274 1087l314 267h43l200 -267h-34l-193 236l-293 -236h-37z" />
<glyph unicode="_" horiz-adv-x="1327" d="M39 -2l8 49h1237l-8 -49h-1237z" />
<glyph unicode="`" horiz-adv-x="448" d="M256 1360h53l205 -273h-29z" />
<glyph unicode="a" d="M162 352.5q0 104.5 23.5 229.5t62.5 223t81 151.5t100 88t101 45t90.5 16.5t107.5 6t177 -29.5t193 -101.5l-144 -981h-28l2 123q-63 -41 -191.5 -89t-218.5 -48t-145.5 15t-106.5 53t-73 104q-31 90 -31 194.5zM211 358q0 -325 274 -325h2q78 0 130.5 12t72 15 t65.5 21.5t54 21.5t62.5 27t56.5 24l119 821q-145 90 -320 90q-252 0 -367 -152q-92 -119 -137 -409q-12 -80 -12 -146z" />
<glyph unicode="b" d="M123 0l254 1608h45l-92 -586q98 37 221 59.5t201 22.5q303 0 303 -373q0 -334 -152 -567q-53 -82 -137 -129t-186.5 -47t-228.5 46t-163 87l-38 -121h-27zM195 150q205 -113 383 -113q141 0 254.5 125t154.5 377q14 123 14 179t-2 79q-4 100 -47 157.5t-93 79t-120 21.5 q-166 0 -411 -62z" />
<glyph unicode="c" horiz-adv-x="1005" d="M184 559q53 340 176 449q60 53 121.5 71.5t190.5 18.5t356 -54l-6 -28q-217 33 -347 33t-184.5 -18.5t-105.5 -72.5q-104 -102 -154 -421q-20 -102 -20 -150.5t3 -99.5t18.5 -107.5t54.5 -87.5q66 -53 162 -53q170 0 374 33l66 10l-4 -33q-209 -57 -430 -59 q-219 0 -267 162q-27 88 -27 187q0 102 23 220z" />
<glyph unicode="d" horiz-adv-x="1067" d="M168 387q0 98 14 168q88 549 467 549q76 0 190.5 -22.5t200.5 -59.5l93 586h45l-254 -1608h-27l-2 121q-51 -41 -187.5 -87t-238.5 -46t-172 53t-96 135q-33 113 -33 211zM217 373q0 -137 49 -215q76 -121 221 -121q174 0 412 113l135 843q-225 61 -387 62 q-242 0 -348 -256q-43 -106 -62.5 -229t-19.5 -197z" />
<glyph unicode="e" horiz-adv-x="1099" d="M176 554q22 126 38.5 193.5t53.5 144.5t88 120q119 96 332 96t313 -72q82 -59 82 -182q0 -168 -108 -264q-88 -78 -202 -100.5t-286 -22.5t-270 39q-14 -102 -14 -197.5t26 -161.5q47 -113 216 -113h1q170 0 476 44l-7 -33q-217 -59 -477 -59q-193 0 -252 141 q-33 73 -33 184q1 114 23 243zM221 535q16 -2 43 -7.5t107 -11.5t152.5 -6t163.5 14.5t159.5 43t120.5 87.5q66 73 66 182q-1 111 -77 167t-245 55q-139 0 -256 -47q-66 -25 -136 -127q-18 -29 -38 -94q-41 -129 -60 -256z" />
<glyph unicode="f" horiz-adv-x="735" d="M188 1038l5 29l182 20l31 203q0 25 16 94.5t24.5 83t21.5 41t30.5 40t41 28.5t54.5 23.5t65.5 9.5t121.5 2t169 -25l-4 -26h-291q-96 0 -138 -67t-62 -204l-31 -203h364l-8 -49h-364l-164 -1038h-49l164 1038h-179z" />
<glyph unicode="g" horiz-adv-x="1089" d="M76 -508l4 29l463 -31h18q90 0 185.5 72.5t119.5 224.5l43 272q-96 -37 -226 -58t-210 -21q-305 0 -305 329q0 113 18 254q86 537 463 537q162 0 469 -27l-203 -1286q-29 -178 -133 -262t-213 -84q-16 0 -34 2zM217 326q0 -102 31 -170q55 -127 231 -127 q131 0 223.5 21.5t212.5 49.5l152 940l-408 11h-10q-166 0 -270 -129t-143 -367q-19 -124 -19 -229z" />
<glyph unicode="h" horiz-adv-x="1105" d="M123 0l254 1606h49l-102 -645q248 145 473 145q156 0 227 -102q53 -78 53 -179q0 -33 -6 -67l-121 -758h-49l121 758q4 33 4 61q0 92 -47 156q-63 82 -193.5 82t-231.5 -29t-235 -96l-147 -932h-49z" />
<glyph unicode="i" horiz-adv-x="294" d="M123 0l172 1087h49l-172 -1087h-49zM322 1315l12 86q1 24 28 24h25q20 0 19 -17v-7l-13 -86q-4 -25 -28 -25h-23q-21 0 -21 17q0 4 1 8z" />
<glyph unicode="j" horiz-adv-x="309" d="M57 -553l260 1640h50l-174 -1095q-55 -362 -109 -545h-27zM340 1315l14 86q2 24 29 24h25q19 0 19 -16q0 -4 -1 -8l-14 -86q-2 -25 -27 -25h-23q-23 0 -23 18q0 3 1 7z" />
<glyph unicode="k" horiz-adv-x="970" d="M123 0l254 1602h49l-158 -994q158 0 284 43t206 117q145 137 200 319h52q-104 -377 -467 -489l352 -598h-57l-342 584q-100 -23 -154.5 -23t-79.5 2l-90 -563h-49z" />
<glyph unicode="l" horiz-adv-x="641" d="M170 242q0 63 12 145l193 1217h49l-193 -1217q-12 -74 -12 -126t5 -83t20.5 -56.5t27 -37.5t35.5 -21q33 -12 113 -24t94 -12l-4 -27h-133q-207 0 -207 242z" />
<glyph unicode="m" horiz-adv-x="1886" d="M123 0l172 1087h29v-126q248 145 457.5 145t273.5 -168q96 63 245.5 115.5t266.5 52.5q156 0 229 -102q57 -78 57 -181q0 -33 -6 -65l-121 -758h-49l121 758q4 31 4 59q0 88 -47 154q-63 86 -196 86q-205 0 -496 -144q12 -45 12 -85t-4 -70l-121 -758h-49l121 758 q4 31 4 59q0 88 -47 154q-63 86 -193.5 86t-231.5 -29t-235 -96l-147 -932h-49z" />
<glyph unicode="n" horiz-adv-x="1105" d="M123 0l172 1087h29v-126q248 145 467 145q156 0 229 -102q57 -78 57 -181q0 -33 -6 -65l-121 -758h-49l121 758q4 31 4 59q0 88 -47 154q-63 86 -193.5 86t-231.5 -29t-235 -96l-147 -932h-49z" />
<glyph unicode="o" horiz-adv-x="1146" d="M168 307.5q0 116.5 18 235.5q52 325 169.5 440t371.5 115t330 -140q45 -86 45 -205.5t-19 -238.5q-47 -299 -161.5 -411.5t-374.5 -112.5t-334 125q-45 76 -45 192.5zM217 332q0 -76 15.5 -126t41 -84t70.5 -52q78 -31 200 -31t192.5 18.5t131.5 69.5q117 98 166 401 q20 98 20 150q0 4 1 7q-1 49 -7 103q-6 58 -25 115.5t-69 89.5q-84 55 -214 55q-4 0 -8 1q-124 1 -188 -15q-66 -16 -131 -66t-107 -158t-65.5 -255t-23.5 -223z" />
<glyph unicode="p" horiz-adv-x="1079" d="M35 -553l260 1632q131 21 465 21q188 0 260 -150q45 -94 45 -205.5t-18.5 -226.5t-49 -209t-84.5 -172q-103 -157 -328 -157h-3q-80 0 -198 21.5t-204 57.5l-96 -612h-49zM186 92q242 -63 412 -63t264 129t137 391q15 91 15 187q0 94 -35 177q-57 137 -231 138h-410z" />
<glyph unicode="q" horiz-adv-x="1130" d="M170 311q0 115 18 256q86 532 465 533q336 0 459 -21l-258 -1632h-49l96 612q-96 -37 -221 -58t-205 -21q-305 0 -305 331zM219 327q0 -99 31 -169q53 -129 225 -129t432 63l152 959h-412q-174 0 -273 -136.5t-136 -365.5q-19 -120 -19 -222z" />
<glyph unicode="r" horiz-adv-x="804" d="M123 0l172 1087h24l3 -137q92 49 146 74t146.5 50.5t187.5 25.5t140 -17l-8 -47q-66 14 -130 14q-5 0 -10 1q-59 -1 -99 -7q-44 -6 -72.5 -12t-78.5 -24.5t-68.5 -26.5t-81 -35.5t-79.5 -36.5l-143 -909h-49z" />
<glyph unicode="s" horiz-adv-x="1032" d="M131 10l4 29h500q162 0 213 84q25 41 35 108l16 101q2 16 2 33q0 57 -40 104t-144 47h-268q-158 0 -205 39t-47 123q0 35 6 78l14 94q20 129 94 188.5t230 59.5q283 0 471 -19l-6 -28h-474q-127 0 -188 -50.5t-78 -162.5l-14 -95q-6 -33 -6 -58.5t5 -43.5t12 -31.5 t23.5 -21.5t30 -12.5t40 -7.5t44.5 -3h318q119 0 176 -59.5t57 -138.5q0 -23 -4 -48l-16 -100q-29 -178 -154 -213q-59 -16 -155 -16q-303 0 -492 20z" />
<glyph unicode="t" horiz-adv-x="704" d="M188 1040l7 33l174 17l63 303h33l-47 -303h358l-8 -50h-358l-105 -655q-12 -74 -12 -126t5 -83t20.5 -56.5t26.5 -37.5t36 -21q33 -12 112.5 -24t94.5 -12l-4 -27h-129q-211 0 -211 246q0 61 12 141l104 655h-172z" />
<glyph unicode="u" horiz-adv-x="1103" d="M147 268q0 31 7 64l120 758h50l-121 -758q-4 -31 -4 -60q0 -88 47 -153q63 -86 193 -86t231.5 28.5t234.5 96.5l148 932h49l-172 -1088h-29v127q-248 -145 -465 -145q-156 0 -231 102q-57 78 -58 182z" />
<glyph unicode="v" horiz-adv-x="1091" d="M193 1087h49l262 -1019l495 850q68 119 76 172h31q2 -9 2 -21q0 -55 -61 -168l-523 -901h-57z" />
<glyph unicode="w" horiz-adv-x="1650" d="M193 1087h49l260 -1021l489 845q74 129 80 174h31q2 -8 2 -18q0 -55 -64 -170l-129 -223l158 -613l496 852q74 127 80 177h30q2 -8 2 -19q0 -55 -63 -170l-522 -901h-56l-159 614l-357 -614h-53z" />
<glyph unicode="x" horiz-adv-x="909" d="M49 0l479 545l-307 542h66l282 -497l439 497h65l-479 -542l307 -545h-65l-281 498l-440 -498h-66z" />
<glyph unicode="y" horiz-adv-x="1097" d="M193 1087h49l168 -849q37 -186 194 -187l420 879q47 104 57 172h31q4 -15 4 -33q0 -59 -45 -156l-436 -911q-160 -352 -316 -494q-66 -59 -120 -59v29q41 0 95 53t103 129q94 152 156 287l27 53q-174 16 -218 225z" />
<glyph unicode="z" horiz-adv-x="919" d="M92 2l8 49l867 987h-742l8 49h811l-8 -49l-868 -987h713l-9 -49h-780z" />
<glyph unicode="{" horiz-adv-x="532" d="M137 778l8 56q188 16 209 149l78 498q27 170 113 268t274 98l-8 -47q-141 0 -222 -76.5t-110 -257.5l-76 -483q-12 -72 -66 -119t-126 -57q66 -10 101.5 -53t35.5 -92q0 -12 -2 -25l-94 -592q-8 -53 -8 -98q0 -92 39 -140q57 -68 202 -67l-8 -47q-109 0 -175 34.5 t-85 88.5q-23 68 -22.5 132t10.5 111l90 570q2 14 2 26q0 51 -44 87t-103 36h-13z" />
<glyph unicode="|" horiz-adv-x="440" d="M152 -147l272 1724h49l-272 -1724h-49z" />
<glyph unicode="}" horiz-adv-x="528" d="M-27 -307l9 47q145 0 223 67.5t104 237.5l94 592q10 63 65.5 111.5t123.5 58.5q-68 10 -102.5 52t-34.5 75t2 49l75 483q10 61 10.5 135t-38.5 125q-57 78 -197 78l8 43q274 0 275 -280q0 -51 -10 -115l-74 -469q-2 -12 -2 -31.5t11 -44t38 -41.5q49 -29 113 -32l-9 -56 h-12q-59 0 -120.5 -40t-73.5 -109l-95 -594q-10 -72 -27.5 -123t-58.5 -107q-80 -113 -297 -112z" />
<glyph unicode="~" horiz-adv-x="999" d="M287 1171q153 119 235 119q41 0 124 -74.5t114 -74.5q70 0 198 92q18 14 21 16l10 -14q-53 -45 -80 -66q-84 -61 -155 -61q-45 0 -125 74.5t-103.5 74.5t-39 -2t-33 -9t-29.5 -12t-31.5 -17.5t-30.5 -16.5q-27 -14 -67 -45z" />
<glyph unicode="&#xa1;" horiz-adv-x="489" d="M92 -553l184 1098h25l-164 -1098h-45zM289 793l22 129q4 20 27 20h24q25 0 21 -20l-23 -129q-4 -27 -28 -27h-23q-25 0 -20 27z" />
<glyph unicode="&#xa2;" horiz-adv-x="978" d="M141.5 292q-0.5 44 0.5 95t22 172q37 246 106 359q74 117 164 149q88 31 213 31l27 168h37l-27 -170q160 -10 326 -52l-4 -28q-219 33 -349.5 33t-183.5 -18.5t-104 -72.5q-104 -102 -154 -421q-20 -102 -20 -150.5t3 -99.5t18 -107.5t52 -87.5q63 -53 162 -53 q168 0 377 33l65 10l-6 -33q-186 -51 -356 -57l-27 -160h-37l25 158h-43t-73 7t-85 28q-82 41 -114 168q-14 55 -14.5 99z" />
<glyph unicode="&#xa3;" horiz-adv-x="1144" d="M102 0l4 29l152 20l104 668h-147l6 28l150 17l43 272q39 240 143 355q43 47 113.5 72.5t130 31.5t153.5 6l338 -18l-6 -29h-336q-92 0 -151.5 -7t-120 -31.5t-96.5 -70.5q-84 -98 -119 -309l-43 -272l594 -17l-6 -28h-596l-105 -668h756l-8 -49h-953z" />
<glyph unicode="&#xa4;" horiz-adv-x="960" d="M162 336l98 84q-49 80 -49 174q0 160 131 278l-82 95l21 18l79 -96q109 88 236 88t207 -80l108 90l19 -20l-109 -90q64 -79 64 -183q0 -154 -123 -282l65 -78l-22 -19l-64 78q-115 -100 -251 -100t-216 106l-96 -84zM240 588q0 -96 55 -170q74 -94 201 -94t231 94 q129 117 129 278q0 92 -67.5 171t-193.5 79t-228 -90q-127 -110 -127 -268z" />
<glyph unicode="&#xa5;" horiz-adv-x="1193" d="M217 406l4 28h402l30 195h-401l4 28h399l-360 842h55l338 -790l629 790h63l-671 -842h421l-4 -28h-424l-30 -195h424l-4 -28h-424l-64 -406h-49l63 406h-401z" />
<glyph unicode="&#xa6;" horiz-adv-x="444" d="M152 -147l106 671h49l-106 -671h-49zM313 879l111 698h49l-111 -698h-49z" />
<glyph unicode="&#xa7;" horiz-adv-x="1144" d="M190 4l5 29h483q119 0 182.5 42t81.5 150l25 150q4 27 4 63.5t-29 60t-174 23.5h-305q-121 0 -145.5 8.5t-44 18.5t-27.5 25.5t-17 37.5q-12 37 0 121l19 133q23 154 143 174q-90 16 -90 123q0 20 4 45l23 148q41 250 307 250q307 0 495 -21l-4 -29h-499 q-217 0 -250 -204l-23 -144q-4 -23 -4 -39q0 -57 40 -82.5t159 -25.5h305q166 0 211 -51q33 -35 33 -85.5t-6 -86.5l-21 -127q-8 -49 -18.5 -80t-39 -57.5t-75.5 -30.5q84 -18 84 -92q0 -18 -6 -76l-25 -150q-29 -182 -164 -221q-63 -20 -157 -20q-289 0 -480 20zM272 672.5 q0 -21.5 3.5 -43t19.5 -31.5t23.5 -16.5t40 -8.5t47.5 -2h370q152 0 191 23.5t55 130.5l20 127q4 31 4.5 71t-31.5 65.5t-169 25.5h-305q-160 0 -193 -35q-37 -43 -51 -131l-18 -125q-7 -29 -7 -50.5z" />
<glyph unicode="&#xa8;" horiz-adv-x="907" d="M289 1186q0 41 43 41q34 0 28 -35q-8 -37 -39.5 -37t-31.5 31zM811 1186q0 41 43 41q29 0 29 -25v-10q-8 -37 -40 -37t-32 31z" />
<glyph unicode="&#xa9;" horiz-adv-x="1775" d="M213 539q0 72 14 221q55 369 240 575q66 74 162 119t209 45h524q115 0 191.5 -55t109.5 -135q53 -123 53 -322q0 -98 -22 -242q-51 -319 -199.5 -532t-368.5 -213h-524q-109 0 -188.5 52t-118.5 136q-82 176 -82 351zM238 608.5q0 -63.5 8 -147.5t44 -190.5t117.5 -174 t196.5 -67.5h526q182 0 331 191.5t204 533.5q20 150 20.5 234.5t-2.5 125.5q-10 158 -92 257t-229 99h-528q-197 0 -354.5 -166.5t-223.5 -549.5q-18 -82 -18 -145.5zM571 559.5q0 97.5 15 194.5q71 440 366 440q170 0 359 -35l-2 -18q-170 25 -361 24q-266 0 -334 -424 q-14 -84 -14 -166q0 -246 215 -245q238 0 383 32l-4 -18q-160 -43 -383 -43q-137 0 -201 100q-39 61 -39 158.5z" />
<glyph unicode="&#xaa;" horiz-adv-x="690" d="M147 596l5 27h571l-4 -27h-572zM213 1047q0 147 39 234t70.5 122t74.5 57q63 35 112.5 38t72.5 3q160 0 254 -102l-97 -619h-20l4 115q-47 -55 -122 -89t-150 -34q-111 0 -185 90q-53 63 -53 185zM246 1032.5q0 -67.5 39 -133.5q55 -94 175 -94t269 119l72 467 q-20 29 -90 52t-112 23h-48q-248 -6 -297 -319q-8 -47 -8 -114.5z" />
<glyph unicode="&#xab;" horiz-adv-x="1150" d="M217 725l485 418l31 -35l-446 -387l327 -391l-34 -33zM596 725l485 418l31 -35l-450 -385l335 -395l-39 -31z" />
<glyph unicode="&#xac;" horiz-adv-x="1095" d="M184 575l9 50h813q-18 -129 -48 -299h-49l39 249h-764z" />
<glyph unicode="&#xad;" horiz-adv-x="739" d="M123 569l8 49h643l-8 -49h-643z" />
<glyph unicode="&#xae;" horiz-adv-x="1775" d="M213 539q0 70 14 219q55 369 240 577q66 72 162 118t209 46h524q115 0 191.5 -55t109.5 -135q53 -123 53 -322q0 -98 -22 -242q-51 -319 -199.5 -532t-368.5 -213h-524q-109 0 -188.5 52t-118.5 136q-82 174 -82 351zM238 608.5q0 -63.5 8 -147.5t42 -190.5t115.5 -174 t196.5 -67.5h530q182 0 331 191.5t204 533.5q20 150 20.5 234.5t-2.5 125.5q-10 158 -91 257t-228 99h-530q-197 0 -354.5 -166.5t-223.5 -549.5q-18 -82 -18 -145.5zM590 313l137 875h363q219 0 219 -189q0 -150 -74 -237q-47 -53 -195 -53l166 -396h-30l-166 394l-328 10 l-64 -404h-28zM684 735h346q113 0 169 38t75 155q6 39 6 90t-31 88q-47 53 -151 53h-346z" />
<glyph unicode="&#xaf;" horiz-adv-x="804" d="M274 1087l5 31h516l-4 -31h-517z" />
<glyph unicode="&#xb0;" horiz-adv-x="727" d="M303 1260q0 106 77 175.5t163 69.5t133 -55t47 -119q0 -109 -75 -177.5t-161 -68.5t-135 55.5t-49 119.5zM332 1264q0 -55 40 -102.5t113.5 -47.5t132.5 53q76 63 76 160q0 55 -39 102.5t-112.5 47.5t-134.5 -54q-76 -65 -76 -159z" />
<glyph unicode="&#xb1;" horiz-adv-x="1048" d="M141 281l9 49h790l-8 -49h-791zM229 842l9 49h370l60 371h49l-60 -371h371l-8 -49h-371l-57 -371h-49l57 371h-371z" />
<glyph unicode="&#xb2;" horiz-adv-x="813" d="M154 729l4 29q4 2 55 39t74.5 53t82 60t93.5 71t90 73t90 79.5t78 76.5t68.5 79t46 74t25.5 71.5t5 85t-28 94.5q-41 66 -179 65h-362l2 21l2 2q121 14 377 14q141 0 194 -82q35 -55 35 -113.5t-7 -101.5t-42 -100t-92 -116.5t-114.5 -114t-131.5 -111.5t-121 -92 q-154 -115 -163 -119h557l-7 -37h-632z" />
<glyph unicode="&#xb3;" horiz-adv-x="872" d="M156 743l2 15h358q131 0 195.5 46t83.5 169l6 47q2 14 2 29q0 66 -55.5 109.5t-143.5 45.5l-293 8l4 21l281 8q100 4 181 50t89 120l8 74q4 23 5 41q0 143 -189 143h-395l2 21q86 16 401 16q127 0 172 -56.5t45 -127.5q0 -20 -4 -43l-12 -78q-10 -78 -78.5 -126 t-120.5 -52q49 -10 95.5 -58.5t46.5 -111.5q0 -14 -2 -31l-11 -61q-18 -117 -85.5 -178.5t-211.5 -61.5q-274 0 -376 22z" />
<glyph unicode="&#xb4;" horiz-adv-x="403" d="M213 1087l291 273h53l-315 -273h-29z" />
<glyph unicode="&#xb5;" horiz-adv-x="1191" d="M96 -553l260 1643h50l-121 -758q-4 -31 -4 -60q0 -88 47 -153q63 -86 193 -86t231.5 28.5t234.5 96.5l148 932h49l-172 -1088h-29v127q-248 -145 -467 -145q-193 0 -260 157l-111 -694h-49z" />
<glyph unicode="&#xb6;" horiz-adv-x="1144" d="M238 981q0 27 4 55l30 191q20 135 126 203.5t239 68.5h686l-8 -53h-141l-230 -1446h-49l229 1450h-336l-317 -2003h-49l207 1301q-27 -16 -67 -16.5t-48 -0.5q-152 0 -223 88q-53 70 -53 162zM287 964.5q0 -34.5 20.5 -79.5t65.5 -70q80 -39 149 -39h111l106 674h-110 q-127 0 -210 -66.5t-100 -171.5l-28 -186q-4 -27 -4 -61.5z" />
<glyph unicode="&#xb7;" horiz-adv-x="575" d="M285 770l4 25q1 24 28 24h25q23 0 18 -24l-4 -25q-4 -25 -26 -25h-25q-25 0 -20 25z" />
<glyph unicode="&#xb8;" horiz-adv-x="555" d="M45 -354l2 14l70 10q68 10 100.5 24.5t63 69t45.5 160.5h34q-25 -158 -75.5 -218t-175.5 -60h-64z" />
<glyph unicode="&#xb9;" horiz-adv-x="565" d="M236 1548l2 23q74 0 154.5 33.5t123.5 68.5l45 35h37l-156 -979h-36l145 924q-137 -105 -315 -105z" />
<glyph unicode="&#xba;" horiz-adv-x="751" d="M170 596l4 27h571l-4 -27h-571zM217 976q0 79 12 161q37 223 109 297.5t261 74.5t237 -84q25 -45 24.5 -126.5t-16.5 -182.5q-33 -205 -103.5 -278.5t-258 -73.5t-236.5 84q-29 49 -29 128zM250 974.5q0 -71.5 26 -110.5q45 -68 209 -67.5t229.5 64t96.5 265.5 q16 98 16 171t-22 112q-41 68 -209 68t-233.5 -66t-100.5 -285q-12 -80 -12 -151.5z" />
<glyph unicode="&#xbb;" horiz-adv-x="1144" d="M166 334l461 397l-322 379l37 33l352 -418l-497 -428zM545 334l463 395l-324 383l37 31l352 -418l-498 -428z" />
<glyph unicode="&#xbc;" horiz-adv-x="1888" d="M236 1343l2 23q74 0 154.5 34t123.5 68l45 35h37l-156 -979h-36l145 924q-137 -105 -315 -105zM430 0l1040 1577h41l-1040 -1577h-41zM1030 362l486 611h45l-467 -592h534l39 248l35 98h18l-55 -346h121l-2 -16l-125 -23l-53 -340h-37l53 340h-588z" />
<glyph unicode="&#xbd;" horiz-adv-x="1941" d="M236 1343l2 23q74 0 154.5 34t123.5 68l45 35h37l-156 -979h-36l145 924q-137 -105 -315 -105zM336 0l1040 1577h41l-1040 -1577h-41zM1114 2l4 29q4 2 55.5 38.5t75 53t82 60.5t93 71t90 73t90 79.5t77.5 76.5t69 79t46.5 74t25.5 71.5t5 85t-29 96.5q-41 63 -178 63 h-363l3 21l2 2q121 14 376 14q229 0 230 -211q0 -98 -37 -162.5t-76 -112.5t-98.5 -104.5t-107.5 -97.5t-112.5 -91t-100.5 -75.5t-85 -59.5t-51 -36h553l-6 -37h-633z" />
<glyph unicode="&#xbe;" horiz-adv-x="2113" d="M156 539l2 14h358q131 0 195.5 46t83.5 169l6 47q2 14 2 29q0 66 -55.5 109.5t-143.5 45.5l-293 9l4 20l281 8q100 4 181 50.5t89 119.5l8 74q4 23 5 41q0 143 -189 143h-395l2 21q86 16 401 16q127 0 172 -56t45 -128q0 -20 -4 -43l-12 -78q-10 -78 -78.5 -126 t-120.5 -52q49 -10 95.5 -58.5t46.5 -111.5q0 -14 -2 -31l-11 -61q-18 -117 -85.5 -178.5t-211.5 -61.5q-274 0 -376 23zM647 0l1041 1577h41l-1041 -1577h-41zM1202 362l488 611h45l-471 -592h538l39 248l35 98h18l-55 -346h121l-2 -16l-125 -23l-53 -340h-37l53 340h-588z " />
<glyph unicode="&#xbf;" horiz-adv-x="1107" d="M49 -266q0 47 8 102l33 205q31 197 172 270q101 54 277 54q68 0 147 -9l33 209h53l-39 -250h-217q-166 0 -259 -64.5t-118 -213.5l-33 -209q-8 -53 -8 -96q0 -106 49 -158q72 -74 267 -74h514l-4 -28q-180 -20 -521 -21h-18q-211 0 -283 94q-53 72 -53 189zM752 811 l18 127q4 25 29 25h22q25 0 21 -25l-19 -127q-4 -25 -28 -25h-25q-23 0 -18 25z" />
<glyph unicode="&#xc0;" horiz-adv-x="1316" d="M92 0l799 1499h70l299 -1499h-50l-104 518h-682l-274 -518h-58zM451 567h645l-176 885zM702 1905h54l205 -273h-29z" />
<glyph unicode="&#xc1;" horiz-adv-x="1316" d="M92 0l799 1499h70l299 -1499h-50l-104 518h-682l-274 -518h-58zM451 567h645l-176 885zM932 1632l291 273h53l-315 -273h-29z" />
<glyph unicode="&#xc2;" horiz-adv-x="1316" d="M92 0l799 1499h70l299 -1499h-50l-104 518h-682l-274 -518h-58zM451 567h645l-176 885zM668 1632l313 266h43l201 -266h-35l-193 236l-292 -236h-37z" />
<glyph unicode="&#xc3;" horiz-adv-x="1316" d="M92 0l799 1499h70l299 -1499h-50l-104 518h-682l-274 -518h-58zM451 567h645l-176 885zM610 1696q156 119 234 119q37 0 82 -37t88 -75t63.5 -38t33.5 2t27.5 7t26 10.5t26.5 13.5t25.5 14t24.5 16.5t21.5 15.5t21.5 16.5t19 13.5l10 -15q-119 -100 -162 -113.5 t-76 -13.5t-78 38t-86 75t-63.5 37t-37.5 -2t-32.5 -9.5t-29 -12.5t-32 -17t-30.5 -17.5t-33.5 -21.5t-34.5 -23z" />
<glyph unicode="&#xc4;" horiz-adv-x="1316" d="M92 0l799 1499h70l299 -1499h-50l-104 518h-682l-274 -518h-58zM451 567h645l-176 885zM655 1669q8 35 43 35q16 0 24.5 -10.5t4.5 -24.5q-6 -37 -41 -37q-14 0 -23.5 11.5t-7.5 25.5zM1178 1669q8 35 43 35q16 0 24 -10.5t4 -24.5q-6 -37 -41 -37q-14 0 -23 11.5 t-7 25.5z" />
<glyph unicode="&#xc5;" horiz-adv-x="1316" d="M92 0l799 1499h70l299 -1499h-50l-104 518h-682l-274 -518h-58zM451 567h645l-176 885zM750 1669q0 109 79.5 177.5t166.5 68.5t131 -54.5t44 -119.5q0 -109 -77.5 -177.5t-164.5 -68.5t-133 54.5t-46 119.5zM780 1673q0 -53 40 -100t101.5 -47t106.5 24q115 61 115 185 q0 55 -39 102t-112.5 47t-135.5 -53q-76 -66 -76 -158z" />
<glyph unicode="&#xc6;" horiz-adv-x="1835" d="M61 0l961 1208q133 168 182 209q96 82 246 82h25l542 -20l-4 -29h-547q-137 0 -176 -35q-16 -16 -26.5 -24.5t-17.5 -36t-10 -38.5t-8 -50t-7 -54l-72 -444l674 -10l-6 -29l-674 -10l-76 -467q-6 -35 -6 -62q0 -76 48 -111.5t155 -35.5h526l-4 -29l-512 -20h-39t-68 6 q-154 29 -153 184q0 29 4 64l43 268h-531l-407 -516h-62zM571 565h498l123 781z" />
<glyph unicode="&#xc7;" horiz-adv-x="1155" d="M215 492q0 125 27.5 297t66.5 298.5t108.5 229t176 151t271.5 48.5t423 -50l-4 -28q-29 4 -54.5 6t-58 5t-72.5 6t-81 5q-123 6 -168 6q-160 0 -262 -57q-213 -123 -299 -659q-23 -143 -23 -256q0 -457 361 -457q193 0 377 18l61 6l-4 -28q-250 -45 -445 -45 q-401 0 -401 504zM397 -352l2 14l68 10q68 10 100.5 24.5t63.5 69t45 160.5h35q-25 -160 -76 -219t-174 -59h-64z" />
<glyph unicode="&#xc8;" horiz-adv-x="1148" d="M195 186q0 35 6 76l155 981q23 139 103 197.5t182 58.5h14l607 -20l-5 -29h-608q-209 0 -243 -217l-74 -465l733 -10l-4 -29l-737 -10l-74 -467q-6 -35 -6 -62q0 -76 48 -111.5t154 -35.5h588l-4 -29l-592 -20h-16q-227 0 -227 192zM635 1894h53l205 -272h-29z" />
<glyph unicode="&#xc9;" horiz-adv-x="1148" d="M195 186q0 35 6 76l155 981q23 139 103 197.5t182 58.5h14l607 -20l-5 -29h-608q-209 0 -243 -217l-74 -465l733 -10l-4 -29l-737 -10l-74 -467q-6 -35 -6 -62q0 -76 48 -111.5t154 -35.5h588l-4 -29l-592 -20h-16q-227 0 -227 192zM836 1622l290 272h54l-316 -272h-28z " />
<glyph unicode="&#xca;" horiz-adv-x="1148" d="M195 186q0 35 6 76l155 981q23 139 103 197.5t182 58.5h14l607 -20l-5 -29h-608q-209 0 -243 -217l-74 -465l733 -10l-4 -29l-737 -10l-74 -467q-6 -35 -6 -62q0 -76 48 -111.5t154 -35.5h588l-4 -29l-592 -20h-16q-227 0 -227 192zM602 1622l313 266h43l201 -266h-35 l-192 236l-293 -236h-37z" />
<glyph unicode="&#xcb;" horiz-adv-x="1148" d="M195 186q0 35 6 76l155 981q23 139 103 197.5t182 58.5h14l607 -20l-5 -29h-608q-209 0 -243 -217l-74 -465l733 -10l-4 -29l-737 -10l-74 -467q-6 -35 -6 -62q0 -76 48 -111.5t154 -35.5h588l-4 -29l-592 -20h-16q-227 0 -227 192zM580 1726q6 35 41.5 35t29.5 -35 q-8 -37 -41 -36q-16 0 -24 11t-6 25zM1102 1726q6 35 42 35t30 -35q-8 -37 -41 -36q-16 0 -24.5 11t-6.5 25z" />
<glyph unicode="&#xcc;" horiz-adv-x="393" d="M184 0l238 1499h49l-238 -1499h-49zM223 1905h53l205 -273h-28z" />
<glyph unicode="&#xcd;" horiz-adv-x="393" d="M184 0l238 1499h49l-238 -1499h-49zM453 1632l290 273h54l-316 -273h-28z" />
<glyph unicode="&#xce;" horiz-adv-x="393" d="M184 0l238 1499h49l-238 -1499h-49zM188 1632l314 266h43l200 -266h-34l-193 236l-293 -236h-37z" />
<glyph unicode="&#xcf;" horiz-adv-x="393" d="M176 1661q0 43 43 43q16 0 24.5 -10.5t4.5 -24.5q-6 -37 -41 -37q-14 0 -22.5 9.5t-8.5 19.5zM184 0l238 1499h49l-238 -1499h-49zM698 1669q8 35 41 35t33 -27q0 -45 -43 -45q-14 0 -23.5 11.5t-7.5 25.5z" />
<glyph unicode="&#xd0;" horiz-adv-x="1404" d="M147 750l5 28h133l114 721h516q133 0 225.5 -52t137.5 -132q76 -131 76 -344q0 -106 -27 -253t-76 -273t-125 -228q-160 -217 -434 -217h-530l119 750h-134zM219 49h473q133 0 240.5 64.5t175.5 173.5q131 207 172 458q23 135 23 242q0 180 -62 289q-98 174 -336 174 h-465l-106 -672h325l-4 -28h-325z" />
<glyph unicode="&#xd1;" horiz-adv-x="1314" d="M164 0l237 1499h52l675 -1411l226 1411h49l-238 -1499h-49l-678 1413l-225 -1413h-49zM588 1696q153 119 233 119q35 0 81 -37t89 -75t62.5 -38t33 2t27.5 7t26.5 10.5t27 13.5t24.5 14t25.5 16.5t22.5 15.5t21.5 16.5t18.5 13.5l10 -15q-119 -100 -162 -113.5 t-72.5 -13.5t-64.5 23.5t-61 52.5q-72 74 -111 74q-70 0 -190 -80q-25 -16 -33 -23z" />
<glyph unicode="&#xd2;" horiz-adv-x="1400" d="M209 418q0 139 32.5 341t81 343t101.5 221t136 122t159 53t185.5 11t175 -9t128 -37.5t95.5 -82.5q70 -113 69 -303q0 -137 -31.5 -343t-76.5 -340t-98.5 -213t-134.5 -122t-160.5 -55t-202.5 -12t-198 13t-141.5 58.5t-93 130.5t-26.5 224zM260 362.5q0 -59.5 20.5 -135 t78 -116.5t130 -55.5t188.5 -14.5t192.5 14.5t147 56.5t118.5 119q100 162 155 508q31 190 31 324.5t-24.5 214.5t-86 120t-128 51t-155.5 11t-132 -3t-97.5 -12t-91.5 -30.5t-80 -55.5t-73.5 -88t-61.5 -128t-55.5 -175.5t-49 -257t-25.5 -222t-1 -126zM692 1905h53 l205 -273h-28z" />
<glyph unicode="&#xd3;" horiz-adv-x="1400" d="M209 418q0 139 32.5 341t81 343t101.5 221t136 122t159 53t185.5 11t175 -9t128 -37.5t95.5 -82.5q70 -113 69 -303q0 -137 -31.5 -343t-76.5 -340t-98.5 -213t-134.5 -122t-160.5 -55t-202.5 -12t-198 13t-141.5 58.5t-93 130.5t-26.5 224zM260 362.5q0 -59.5 20.5 -135 t78 -116.5t130 -55.5t188.5 -14.5t192.5 14.5t147 56.5t118.5 119q100 162 155 508q31 190 31 324.5t-24.5 214.5t-86 120t-128 51t-155.5 11t-132 -3t-97.5 -12t-91.5 -30.5t-80 -55.5t-73.5 -88t-61.5 -128t-55.5 -175.5t-49 -257t-25.5 -222t-1 -126zM922 1632l290 273 h54l-316 -273h-28z" />
<glyph unicode="&#xd4;" horiz-adv-x="1400" d="M209 418q0 139 32.5 341t81 343t101.5 221t136 122t159 53t185.5 11t175 -9t128 -37.5t95.5 -82.5q70 -113 69 -303q0 -137 -31.5 -343t-76.5 -340t-98.5 -213t-134.5 -122t-160.5 -55t-202.5 -12t-198 13t-141.5 58.5t-93 130.5t-26.5 224zM260 362.5q0 -59.5 20.5 -135 t78 -116.5t130 -55.5t188.5 -14.5t192.5 14.5t147 56.5t118.5 119q100 162 155 508q31 190 31 324.5t-24.5 214.5t-86 120t-128 51t-155.5 11t-132 -3t-97.5 -12t-91.5 -30.5t-80 -55.5t-73.5 -88t-61.5 -128t-55.5 -175.5t-49 -257t-25.5 -222t-1 -126zM657 1632l314 266 h43l200 -266h-34l-193 236l-293 -236h-37z" />
<glyph unicode="&#xd5;" horiz-adv-x="1400" d="M209 418q0 139 32.5 341t81 343t101.5 221t136 122t159 53t185.5 11t175 -9t128 -37.5t95.5 -82.5q70 -113 69 -303q0 -137 -31.5 -343t-76.5 -340t-98.5 -213t-134.5 -122t-160.5 -55t-202.5 -12t-198 13t-141.5 58.5t-93 130.5t-26.5 224zM260 362.5q0 -59.5 20.5 -135 t78 -116.5t130 -55.5t188.5 -14.5t192.5 14.5t147 56.5t118.5 119q100 162 155 508q31 190 31 324.5t-24.5 214.5t-86 120t-128 51t-155.5 11t-132 -3t-97.5 -12t-91.5 -30.5t-80 -55.5t-73.5 -88t-61.5 -128t-55.5 -175.5t-49 -257t-25.5 -222t-1 -126zM600 1696 q119 92 163 105.5t74.5 13.5t77 -37t88 -75t61 -38t33 2t25 5t23.5 9.5t23.5 11.5t23.5 12t21.5 13t22.5 15.5t19.5 14.5t18.5 13t18 13l11 -15q-121 -100 -163 -113.5t-73 -13.5t-64.5 23.5t-60.5 52.5q-72 74 -111 74q-70 0 -190 -80q-25 -16 -33 -23z" />
<glyph unicode="&#xd6;" horiz-adv-x="1400" d="M209 418q0 139 32.5 341t81 343t101.5 221t136 122t159 53t185.5 11t175 -9t128 -37.5t95.5 -82.5q70 -113 69 -303q0 -137 -31.5 -343t-76.5 -340t-98.5 -213t-134.5 -122t-160.5 -55t-202.5 -12t-198 13t-141.5 58.5t-93 130.5t-26.5 224zM260 362.5q0 -59.5 20.5 -135 t78 -116.5t130 -55.5t188.5 -14.5t192.5 14.5t147 56.5t118.5 119q100 162 155 508q31 190 31 324.5t-24.5 214.5t-86 120t-128 51t-155.5 11t-132 -3t-97.5 -12t-91.5 -30.5t-80 -55.5t-73.5 -88t-61.5 -128t-55.5 -175.5t-49 -257t-25.5 -222t-1 -126zM645 1669 q6 35 43 35q14 0 22.5 -10.5t6.5 -24.5q-8 -37 -41 -37q-16 0 -25.5 11.5t-5.5 25.5zM1167 1669q6 35 43 35q14 0 22.5 -10.5t6.5 -24.5q-8 -37 -41 -37q-16 0 -25.5 11.5t-5.5 25.5z" />
<glyph unicode="&#xd7;" horiz-adv-x="907" d="M190 467l304 262l-220 262l35 31l221 -262l308 266l28 -35l-307 -266l221 -262l-37 -31l-219 262l-305 -262z" />
<glyph unicode="&#xd8;" horiz-adv-x="1400" d="M174 0l96 121q-59 90 -59 260t26.5 342t57.5 285.5t64.5 195.5t79.5 137.5t91 88t109 51.5q100 29 257 28.5t251 -23t147 -89.5l82 102h37l-102 -127q61 -98 61 -272t-31.5 -373t-76.5 -333t-98.5 -213t-134.5 -122t-160.5 -55t-216 -12t-224.5 20.5t-141 83.5l-78 -96 h-37zM260 395.5q0 -151.5 47 -231.5l953 1192q-47 66 -130 85t-187.5 19t-147.5 -3t-97.5 -12t-91.5 -30.5t-80 -55.5t-73.5 -88t-61.5 -128t-55.5 -175.5t-50 -261t-25.5 -311zM324 139q45 -57 132 -77.5t229 -20.5t231.5 23.5t166 97.5t123.5 212t81 350t34 365.5 t-45 239.5z" />
<glyph unicode="&#xd9;" horiz-adv-x="1394" d="M244 385q0 115 24 270l133 844h50l-134 -844q-27 -164 -26.5 -221t3.5 -97t9 -85t25.5 -78t36 -56.5t50.5 -37.5t56.5 -23.5t67.5 -11.5q76 -6 147.5 -6t115.5 3t99 17.5t94 39t82 69.5t74 111q74 152 106 376l134 844h49l-133 -844q-35 -207 -70 -296t-59.5 -139 t-58.5 -85t-61.5 -60.5t-68.5 -41t-68.5 -24.5t-72.5 -13q-70 -6 -211 -6t-217 30q-176 68 -176 365zM698 1905h54l204 -273h-28z" />
<glyph unicode="&#xda;" horiz-adv-x="1394" d="M244 385q0 115 24 270l133 844h50l-134 -844q-27 -164 -26.5 -221t3.5 -97t9 -85t25.5 -78t36 -56.5t50.5 -37.5t56.5 -23.5t67.5 -11.5q76 -6 147.5 -6t115.5 3t99 17.5t94 39t82 69.5t74 111q74 152 106 376l134 844h49l-133 -844q-35 -207 -70 -296t-59.5 -139 t-58.5 -85t-61.5 -60.5t-68.5 -41t-68.5 -24.5t-72.5 -13q-70 -6 -211 -6t-217 30q-176 68 -176 365zM928 1632l291 273h53l-316 -273h-28z" />
<glyph unicode="&#xdb;" horiz-adv-x="1394" d="M244 385q0 115 24 270l133 844h50l-134 -844q-27 -164 -26.5 -221t3.5 -97t9 -85t25.5 -78t36 -56.5t50.5 -37.5t56.5 -23.5t67.5 -11.5q76 -6 147.5 -6t115.5 3t99 17.5t94 39t82 69.5t74 111q74 152 106 376l134 844h49l-133 -844q-35 -207 -70 -296t-59.5 -139 t-58.5 -85t-61.5 -60.5t-68.5 -41t-68.5 -24.5t-72.5 -13q-70 -6 -211 -6t-217 30q-176 68 -176 365zM664 1632l313 266h43l201 -266h-35l-193 236l-293 -236h-36z" />
<glyph unicode="&#xdc;" horiz-adv-x="1394" d="M244 385q0 115 24 270l133 844h50l-134 -844q-27 -164 -26.5 -221t3.5 -97t9 -85t25.5 -78t36 -56.5t50.5 -37.5t56.5 -23.5t67.5 -11.5q76 -6 147.5 -6t115.5 3t99 17.5t94 39t82 69.5t74 111q74 152 106 376l134 844h49l-133 -844q-35 -207 -70 -296t-59.5 -139 t-58.5 -85t-61.5 -60.5t-68.5 -41t-68.5 -24.5t-72.5 -13q-70 -6 -211 -6t-217 30q-176 68 -176 365zM651 1669q6 35 43 35q14 0 22.5 -10.5t6.5 -24.5q-8 -37 -41 -37q-16 0 -25.5 11.5t-5.5 25.5zM1174 1669q6 35 43 35q14 0 22 -10.5t6 -24.5q-8 -37 -41 -37 q-16 0 -25.5 11.5t-4.5 25.5z" />
<glyph unicode="&#xdd;" horiz-adv-x="1286" d="M307 1499h55l320 -901l651 901h60l-693 -967l-84 -532h-49l84 532zM856 1632l291 273h53l-315 -273h-29z" />
<glyph unicode="&#xde;" horiz-adv-x="1132" d="M123 0l235 1493h50l-46 -289h445q106 0 188 -51q86 -53 111 -207q6 -31 6 -76t-15.5 -138t-53 -180t-79.5 -133t-100 -73q-88 -41 -198 -41q-365 8 -443 21l-51 -326h-49zM227 354h445q154 0 248 94.5t131 323.5q12 59 12 100t-9.5 89.5t-29.5 89.5t-61 63 q-72 41 -164 41h-445z" />
<glyph unicode="&#xdf;" horiz-adv-x="1122" d="M123 0l184 1159q29 190 155 311t333 121q391 0 391 -245q0 -133 -129 -281q-55 -61 -108.5 -96t-120 -76t-95.5 -59q-88 -57 -88 -142q0 -94 166 -117q78 -10 152.5 -23t117.5 -54t43 -101q0 -16 -2 -32l-14 -101q-20 -137 -116.5 -208.5t-246.5 -71.5q-207 0 -356 30 l4 29q188 -10 312 -10t185.5 23.5t96.5 62.5q59 72 72 151l14 95q2 14 2 26q0 51 -44 83t-119.5 42t-152.5 22.5t-119 51.5t-42 96q0 41 16.5 80t35 55.5t30.5 27.5t43 31.5t51 32.5q109 70 155 98.5t105 100.5q106 129 107 242q0 70 -49 112q-84 76 -281 76t-311.5 -99.5 t-143.5 -283.5l-184 -1159h-49z" />
<glyph unicode="&#xe0;" d="M162 352.5q0 104.5 23.5 229.5t62.5 223t81 151.5t100 88t101 45t90.5 16.5t107.5 6t177 -29.5t193 -101.5l-144 -981h-28l2 123q-63 -41 -191.5 -89t-218.5 -48t-145.5 15t-106.5 53t-73 104q-31 90 -31 194.5zM211 358q0 -326 276 -325q78 0 130.5 12t72 15t65.5 21.5 t54 21.5t62.5 27t56.5 24l119 821q-145 90 -320 90q-252 0 -367 -152q-92 -119 -137 -409q-12 -80 -12 -146zM477 1507h53l205 -272h-28z" />
<glyph unicode="&#xe1;" d="M162 352.5q0 104.5 23.5 229.5t62.5 223t81 151.5t100 88t101 45t90.5 16.5t107.5 6t177 -29.5t193 -101.5l-144 -981h-28l2 123q-63 -41 -191.5 -89t-218.5 -48t-145.5 15t-106.5 53t-73 104q-31 90 -31 194.5zM211 358q0 -326 276 -325q78 0 130.5 12t72 15t65.5 21.5 t54 21.5t62.5 27t56.5 24l119 821q-145 90 -320 90q-252 0 -367 -152q-92 -119 -137 -409q-12 -80 -12 -146zM707 1235l290 272h54l-316 -272h-28z" />
<glyph unicode="&#xe2;" d="M162 352.5q0 104.5 23.5 229.5t62.5 223t81 151.5t100 88t101 45t90.5 16.5t107.5 6t177 -29.5t193 -101.5l-144 -981h-28l2 123q-63 -41 -191.5 -89t-218.5 -48t-145.5 15t-106.5 53t-73 104q-31 90 -31 194.5zM211 358q0 -326 276 -325q78 0 130.5 12t72 15t65.5 21.5 t54 21.5t62.5 27t56.5 24l119 821q-145 90 -320 90q-252 0 -367 -152q-92 -119 -137 -409q-12 -80 -12 -146zM442 1235l314 266h43l200 -266h-34l-193 235l-293 -235h-37z" />
<glyph unicode="&#xe3;" d="M162 352.5q0 104.5 23.5 229.5t62.5 223t81 151.5t100 88t101 45t90.5 16.5t107.5 6t177 -29.5t193 -101.5l-144 -981h-28l2 123q-63 -41 -191.5 -89t-218.5 -48t-145.5 15t-106.5 53t-73 104q-31 90 -31 194.5zM211 358q0 -326 276 -325q78 0 130.5 12t72 15t65.5 21.5 t54 21.5t62.5 27t56.5 24l119 821q-145 90 -320 90q-252 0 -367 -152q-92 -119 -137 -409q-12 -80 -12 -146zM385 1298q121 92 164 105.5t74.5 13.5t76.5 -38t88 -74.5t63.5 -36.5t34 2t28 7t25.5 10t26.5 13.5t24.5 14.5t24.5 16t22.5 15.5t21.5 16.5t18.5 13l10 -14 q-96 -82 -126 -98q-63 -29 -100.5 -29t-72 23.5t-61.5 50.5q-70 76 -111 75q-68 0 -188 -79q-25 -16 -35 -23z" />
<glyph unicode="&#xe4;" d="M162 352.5q0 104.5 23.5 229.5t62.5 223t81 151.5t100 88t101 45t90.5 16.5t107.5 6t177 -29.5t193 -101.5l-144 -981h-28l2 123q-63 -41 -191.5 -89t-218.5 -48t-145.5 15t-106.5 53t-73 104q-31 90 -31 194.5zM211 358q0 -326 276 -325q78 0 130.5 12t72 15t65.5 21.5 t54 21.5t62.5 27t56.5 24l119 821q-145 90 -320 90q-252 0 -367 -152q-92 -119 -137 -409q-12 -80 -12 -146zM430 1272q8 35 43 35q16 0 24.5 -10.5t4.5 -24.5q-6 -37 -41 -37q-14 0 -23.5 11t-7.5 26zM952 1272q8 35 43 35q16 0 24.5 -10.5t4.5 -24.5q-6 -37 -41 -37 q-14 0 -23.5 11t-7.5 26z" />
<glyph unicode="&#xe5;" d="M162 352.5q0 104.5 23.5 229.5t62.5 223t81 151.5t100 88t101 45t90.5 16.5t107.5 6t177 -29.5t193 -101.5l-144 -981h-28l2 123q-63 -41 -191.5 -89t-218.5 -48t-145.5 15t-106.5 53t-73 104q-31 90 -31 194.5zM211 358q0 -326 276 -325q78 0 130.5 12t72 15t65.5 21.5 t54 21.5t62.5 27t56.5 24l119 821q-145 90 -320 90q-252 0 -367 -152q-92 -119 -137 -409q-12 -80 -12 -146zM545 1409q0 109 80 177.5t166 68.5t131 -55.5t45 -118.5q0 -78 -43 -135q-80 -111 -201 -111q-86 0 -132 54t-46 120zM575 1413q0 -53 40 -100t114 -47t133 51 q74 66 74 158q0 55 -39 102t-112.5 47t-133.5 -53q-76 -66 -76 -158z" />
<glyph unicode="&#xe6;" horiz-adv-x="1972" d="M80 352.5q0 104.5 23.5 229.5t63.5 223t82 151.5t101.5 88t102.5 45.5q90 20 165.5 20t207.5 -35t218 -102q117 135 375 135q207 0 307 -72q82 -59 82 -182q0 -168 -108 -264q-88 -78 -202 -100.5t-286 -22.5t-270 39q-12 -100 -12 -161.5t4 -98.5q10 -104 65 -156 q57 -55 199.5 -55t448.5 43l-7 -33q-217 -59 -477 -59q-207 0 -262 166q-8 -4 -56 -31t-71.5 -38t-74 -33.5t-89.5 -33.5q-266 -80 -426 37q-51 39 -73 105q-31 90 -31 194.5zM129 358q0 -326 277 -325q59 0 135.5 19.5t112.5 32.5t134.5 57t102.5 46q-12 55 -12 145.5 t33.5 287t107.5 323.5q-217 119 -397 119q-37 0 -72 -4q-182 -25 -273.5 -144.5t-136.5 -410.5q-12 -80 -12 -146zM946 535q16 -2 43 -7.5t107 -11.5t152.5 -6t163.5 14.5t159.5 43t120.5 87.5q66 74 65.5 183.5t-76 165t-218 55.5t-223.5 -29t-126 -59.5t-81 -114.5 t-47 -130t-24.5 -115.5t-15.5 -75.5z" />
<glyph unicode="&#xe7;" horiz-adv-x="1011" d="M166 343q0 101 22 216q53 340 177 449q59 53 120.5 71.5t190.5 18.5t356 -54l-6 -28q-217 33 -347 33t-184.5 -18.5t-105.5 -72.5q-104 -102 -153 -421q-20 -102 -20.5 -150.5t2.5 -99.5t18.5 -107.5t54.5 -87.5q66 -53 162 -53q170 0 374 33l66 10l-4 -33 q-209 -57 -430 -59q-219 0 -266 162q-27 90 -27 191zM233 -350l3 14l69 10q68 10 100.5 24.5t63.5 69t45 160.5h35q-25 -158 -76 -218t-176 -60h-64z" />
<glyph unicode="&#xe8;" horiz-adv-x="1099" d="M153.5 314.5q0.5 113.5 22 239.5t38.5 193.5t54 144.5t88 120q119 96 332 96t313 -72q82 -59 82 -182q0 -168 -108 -264q-88 -78 -202 -100.5t-286 -22.5t-270 39q-14 -102 -14 -197.5t26 -161.5q47 -113 217 -112.5t476 43.5l-7 -33q-217 -59 -477 -59q-193 0 -252 141 q-33 74 -32.5 187.5zM221 535q16 -2 43 -7.5t107 -11.5t152.5 -6t163.5 14.5t159.5 43t120.5 87.5q66 74 65.5 183.5t-76 165t-245.5 55.5q-139 0 -256 -47q-66 -25 -136 -127q-18 -29 -38 -94q-41 -129 -60 -256zM471 1503h53l205 -272h-29z" />
<glyph unicode="&#xe9;" horiz-adv-x="1099" d="M153.5 314.5q0.5 113.5 22 239.5t38.5 193.5t54 144.5t88 120q119 96 332 96t313 -72q82 -59 82 -182q0 -168 -108 -264q-88 -78 -202 -100.5t-286 -22.5t-270 39q-14 -102 -14 -197.5t26 -161.5q47 -113 217 -112.5t476 43.5l-7 -33q-217 -59 -477 -59q-193 0 -252 141 q-33 74 -32.5 187.5zM221 535q16 -2 43 -7.5t107 -11.5t152.5 -6t163.5 14.5t159.5 43t120.5 87.5q66 74 65.5 183.5t-76 165t-245.5 55.5q-139 0 -256 -47q-66 -25 -136 -127q-18 -29 -38 -94q-41 -129 -60 -256zM700 1231l291 272h53l-315 -272h-29z" />
<glyph unicode="&#xea;" horiz-adv-x="1099" d="M153.5 314.5q0.5 113.5 22 239.5t38.5 193.5t54 144.5t88 120q119 96 332 96t313 -72q82 -59 82 -182q0 -168 -108 -264q-88 -78 -202 -100.5t-286 -22.5t-270 39q-14 -102 -14 -197.5t26 -161.5q47 -113 217 -112.5t476 43.5l-7 -33q-217 -59 -477 -59q-193 0 -252 141 q-33 74 -32.5 187.5zM221 535q16 -2 43 -7.5t107 -11.5t152.5 -6t163.5 14.5t159.5 43t120.5 87.5q66 74 65.5 183.5t-76 165t-245.5 55.5q-139 0 -256 -47q-66 -25 -136 -127q-18 -29 -38 -94q-41 -129 -60 -256zM436 1231l314 266h43l200 -266h-35l-192 235l-293 -235h-37 z" />
<glyph unicode="&#xeb;" horiz-adv-x="1099" d="M153.5 314.5q0.5 113.5 22 239.5t38.5 193.5t54 144.5t88 120q119 96 332 96t313 -72q82 -59 82 -182q0 -168 -108 -264q-88 -78 -202 -100.5t-286 -22.5t-270 39q-14 -102 -14 -197.5t26 -161.5q47 -113 217 -112.5t476 43.5l-7 -33q-217 -59 -477 -59q-193 0 -252 141 q-33 74 -32.5 187.5zM221 535q16 -2 43 -7.5t107 -11.5t152.5 -6t163.5 14.5t159.5 43t120.5 87.5q66 74 65.5 183.5t-76 165t-245.5 55.5q-139 0 -256 -47q-66 -25 -136 -127q-18 -29 -38 -94q-41 -129 -60 -256zM424 1268q6 35 43 35q14 0 22.5 -10.5t6.5 -24.5 q-8 -37 -41 -37q-16 0 -25.5 11t-5.5 26zM946 1268q6 35 43 35q14 0 22.5 -10.5t6.5 -24.5q-8 -37 -41 -37q-16 0 -25.5 11t-5.5 26z" />
<glyph unicode="&#xec;" horiz-adv-x="337" d="M10 1493h53l205 -272h-28zM123 0l172 1087h49l-172 -1087h-49z" />
<glyph unicode="&#xed;" horiz-adv-x="337" d="M123 0l172 1087h49l-172 -1087h-49zM240 1221l290 272h54l-316 -272h-28z" />
<glyph unicode="&#xee;" horiz-adv-x="337" d="M-25 1221l314 266h43l200 -266h-34l-193 235l-293 -235h-37zM123 0l172 1087h49l-172 -1087h-49z" />
<glyph unicode="&#xef;" horiz-adv-x="337" d="M-37 1249q0 43 43 43q16 0 24.5 -10t4.5 -25q-6 -37 -41 -36q-14 0 -22.5 9t-8.5 19zM123 0l172 1087h49l-172 -1087h-49zM485 1257q8 35 41 35t33 -26q0 -45 -43 -45q-14 0 -23.5 11t-7.5 25z" />
<glyph unicode="&#xf0;" horiz-adv-x="1120" d="M145 319.5q0 110.5 19 233.5q43 272 146 403t304 131h144q117 0 184.5 -46t81.5 -89q-10 297 -137 449l-352 -131l-5 28l334 125q-137 135 -366 138l6 43q262 -2 411 -162l281 104l8 -28l-268 -99q137 -176 137 -516q0 -168 -33 -375q-47 -289 -161.5 -408.5 t-292.5 -119.5h-144q-203 0 -262 133q-35 76 -35 186.5zM195 291q0 -96 37.5 -148.5t88 -71t130.5 -18.5h143q188 0 280 144q135 213 136 573q0 106 -60 188q-55 80 -198 80h-144q-154 0 -252 -104.5t-143 -392.5q-18 -154 -18 -250z" />
<glyph unicode="&#xf1;" horiz-adv-x="1105" d="M123 0l172 1087h29v-126q248 145 467 145q156 0 229 -102q57 -78 57 -181q0 -33 -6 -65l-121 -758h-49l121 758q4 31 4 59q0 88 -47 154q-63 86 -193.5 86t-231.5 -29t-235 -96l-147 -932h-49zM395 1292q156 119 234 119q37 0 82 -38t88 -74.5t63.5 -36.5t33.5 2t26.5 7 t26 10t27.5 13.5t24.5 14.5t24.5 16t22.5 15.5t21.5 16.5t18 13l11 -14q-51 -45 -80 -66q-80 -61 -156 -61q-53 0 -123.5 74.5t-111.5 74.5q-68 0 -193 -84q-20 -12 -31 -18z" />
<glyph unicode="&#xf2;" horiz-adv-x="1146" d="M168 307.5q0 116.5 18 235.5q52 325 169.5 440t371.5 115t330 -140q45 -86 45 -205.5t-19 -238.5q-47 -299 -161.5 -411.5t-374.5 -112.5t-334 125q-45 76 -45 192.5zM217 332q0 -76 15.5 -126t41 -84t70.5 -52q78 -31 200 -31t192.5 18.5t131.5 69.5q117 98 166 401 q20 98 20.5 149.5t-6 110t-25.5 116t-69 89.5q-84 55 -214 55.5t-195.5 -15t-131 -65.5t-107.5 -158t-65.5 -255t-23.5 -223zM502 1493h53l205 -272h-29z" />
<glyph unicode="&#xf3;" horiz-adv-x="1146" d="M168 307.5q0 116.5 18 235.5q52 325 169.5 440t371.5 115t330 -140q45 -86 45 -205.5t-19 -238.5q-47 -299 -161.5 -411.5t-374.5 -112.5t-334 125q-45 76 -45 192.5zM217 332q0 -76 15.5 -126t41 -84t70.5 -52q78 -31 200 -31t192.5 18.5t131.5 69.5q117 98 166 401 q20 98 20.5 149.5t-6 110t-25.5 116t-69 89.5q-84 55 -214 55.5t-195.5 -15t-131 -65.5t-107.5 -158t-65.5 -255t-23.5 -223zM731 1221l291 272h53l-315 -272h-29z" />
<glyph unicode="&#xf4;" horiz-adv-x="1146" d="M168 307.5q0 116.5 18 235.5q52 325 169.5 440t371.5 115t330 -140q45 -86 45 -205.5t-19 -238.5q-47 -299 -161.5 -411.5t-374.5 -112.5t-334 125q-45 76 -45 192.5zM217 332q0 -76 15.5 -126t41 -84t70.5 -52q78 -31 200 -31t192.5 18.5t131.5 69.5q117 98 166 401 q20 98 20.5 149.5t-6 110t-25.5 116t-69 89.5q-84 55 -214 55.5t-195.5 -15t-131 -65.5t-107.5 -158t-65.5 -255t-23.5 -223zM467 1221l313 266h43l201 -266h-35l-192 235l-293 -235h-37z" />
<glyph unicode="&#xf5;" horiz-adv-x="1146" d="M168 307.5q0 116.5 18 235.5q52 325 169.5 440t371.5 115t330 -140q45 -86 45 -205.5t-19 -238.5q-47 -299 -161.5 -411.5t-374.5 -112.5t-334 125q-45 76 -45 192.5zM217 332q0 -76 15.5 -126t41 -84t70.5 -52q78 -31 200 -31t192.5 18.5t131.5 69.5q117 98 166 401 q20 98 20.5 149.5t-6 110t-25.5 116t-69 89.5q-84 55 -214 55.5t-195.5 -15t-131 -65.5t-107.5 -158t-65.5 -255t-23.5 -223zM410 1284q153 119 233 119q35 0 81 -38t88 -75t63.5 -37t37 3.5t28.5 7.5t31.5 13t29 15t29 18.5t24.5 17.5t24.5 18.5t22.5 15.5l10 -14 q-121 -100 -163 -113.5t-75.5 -13.5t-78.5 36.5t-86 74.5t-62.5 38t-38 -2t-33 -9t-28.5 -12.5t-32.5 -17.5t-30 -17t-34 -21.5t-32.5 -22.5z" />
<glyph unicode="&#xf6;" horiz-adv-x="1146" d="M168 307.5q0 116.5 18 235.5q52 325 169.5 440t371.5 115t330 -140q45 -86 45 -205.5t-19 -238.5q-47 -299 -161.5 -411.5t-374.5 -112.5t-334 125q-45 76 -45 192.5zM217 332q0 -76 15.5 -126t41 -84t70.5 -52q78 -31 200 -31t192.5 18.5t131.5 69.5q117 98 166 401 q20 98 20.5 149.5t-6 110t-25.5 116t-69 89.5q-84 55 -214 55.5t-195.5 -15t-131 -65.5t-107.5 -158t-65.5 -255t-23.5 -223zM455 1257q6 35 43 35q14 0 22 -10t6 -25q-8 -37 -41 -36q-16 0 -25 11t-5 25zM977 1257q6 35 43 35q14 0 22.5 -10t6.5 -25q-8 -37 -41 -36 q-16 0 -25.5 11t-5.5 25z" />
<glyph unicode="&#xf7;" horiz-adv-x="1138" d="M205 698l8 50h852l-8 -50h-852zM545 326l12 86q4 24 29 24h24q23 0 19 -24l-13 -86q-2 -25 -28 -25h-23q-25 0 -20 25zM653 1012l13 88q1 24 28 24h25q23 0 18 -24l-12 -88q-2 -23 -29 -23h-22q-25 0 -21 23z" />
<glyph unicode="&#xf8;" horiz-adv-x="1105" d="M104 0l93 102q-49 72 -49.5 196t20.5 253q51 324 168 435.5t350.5 111.5t321.5 -94l75 83h37l-96 -106q59 -84 59 -252q0 -94 -18 -217q-47 -299 -157.5 -409.5t-358.5 -111.5t-334 91l-74 -82h-37zM199 309.5q0 -102.5 34 -164.5l742 820q-70 84 -277 84 q-104 0 -169.5 -15.5t-132 -67t-108.5 -159t-65.5 -251.5t-23.5 -246.5zM250 121q66 -82 289 -82q106 0 176.5 17.5t132.5 68.5q119 96 168 403q18 119 18 231.5t-43 182.5z" />
<glyph unicode="&#xf9;" horiz-adv-x="1103" d="M147 268q0 31 7 64l120 758h50l-121 -758q-4 -31 -4 -60q0 -88 47 -153q63 -86 193 -86t231.5 28.5t234.5 96.5l148 932h49l-172 -1088h-29v127q-248 -145 -465 -145q-156 0 -231 102q-57 78 -58 182zM465 1493h53l205 -272h-29z" />
<glyph unicode="&#xfa;" horiz-adv-x="1103" d="M147 268q0 31 7 64l120 758h50l-121 -758q-4 -31 -4 -60q0 -88 47 -153q63 -86 193 -86t231.5 28.5t234.5 96.5l148 932h49l-172 -1088h-29v127q-248 -145 -465 -145q-156 0 -231 102q-57 78 -58 182zM694 1221l291 272h53l-315 -272h-29z" />
<glyph unicode="&#xfb;" horiz-adv-x="1103" d="M147 268q0 31 7 64l120 758h50l-121 -758q-4 -31 -4 -60q0 -88 47 -153q63 -86 193 -86t231.5 28.5t234.5 96.5l148 932h49l-172 -1088h-29v127q-248 -145 -465 -145q-156 0 -231 102q-57 78 -58 182zM430 1221l313 266h43l201 -266h-35l-192 235l-293 -235h-37z" />
<glyph unicode="&#xfc;" horiz-adv-x="1103" d="M147 268q0 31 7 64l120 758h50l-121 -758q-4 -31 -4 -60q0 -88 47 -153q63 -86 193 -86t231.5 28.5t234.5 96.5l148 932h49l-172 -1088h-29v127q-248 -145 -465 -145q-156 0 -231 102q-57 78 -58 182zM418 1257q8 35 43 35q16 0 24.5 -10t3.5 -25q-6 -37 -40 -36 q-14 0 -23.5 11t-7.5 25zM940 1257q8 35 43 35q16 0 24.5 -10t4.5 -25q-6 -37 -41 -36q-14 0 -23.5 11t-7.5 25z" />
<glyph unicode="&#xfd;" horiz-adv-x="1097" d="M193 1087h49l168 -849q37 -186 194 -187l420 879q47 104 57 172h31q4 -15 4 -33q0 -59 -45 -156l-436 -911q-160 -352 -316 -494q-66 -59 -120 -59v29q41 0 95 53t103 129q94 152 156 287l27 53q-174 16 -218 225zM645 1210l291 273h53l-315 -273h-29z" />
<glyph unicode="&#xfe;" horiz-adv-x="1087" d="M55 -553l342 2155h49l-102 -637q55 37 212 89t251 52q287 0 287 -410q0 -82 -17.5 -184t-45 -189t-77.5 -171q-98 -172 -325 -172q-82 0 -213 21.5t-215 57.5l-97 -612h-49zM207 88q201 -59 430 -59q164 0 256 125t135 397q16 100 16 202.5t-38 178.5q-63 125 -207 125 q-115 0 -269 -53q-47 -16 -63 -21.5t-68.5 -25t-58.5 -21.5z" />
<glyph unicode="&#xff;" horiz-adv-x="1097" d="M193 1087h49l168 -849q37 -186 194 -187l420 879q47 104 57 172h31q4 -15 4 -33q0 -59 -45 -156l-436 -911q-160 -352 -316 -494q-66 -59 -120 -59v29q41 0 95 53t103 129q94 152 156 287l27 53q-174 16 -218 225zM379 1315q6 35 42 35t30 -35q-8 -37 -41 -37 q-16 0 -24.5 11.5t-6.5 25.5zM901 1315q6 35 42 35t30 -35q-8 -37 -41 -37q-16 0 -24.5 11.5t-6.5 25.5z" />
<glyph unicode="&#x100;" horiz-adv-x="1316" d="M92 0l799 1499h70l299 -1499h-50l-104 518h-682l-274 -518h-58zM451 567h645l-176 885zM690 1632l4 31h516l-4 -31h-516z" />
<glyph unicode="&#x101;" d="M162 352.5q0 104.5 23.5 229.5t62.5 223t81 151.5t100 88t101 45t90.5 16.5t107.5 6t177 -29.5t193 -101.5l-144 -981h-28l2 123q-63 -41 -191.5 -89t-218.5 -48t-145.5 15t-106.5 53t-73 104q-31 90 -31 194.5zM211 358q0 -326 276 -325q78 0 130.5 12t72 15t65.5 21.5 t54 21.5t62.5 27t56.5 24l119 821q-145 90 -320 90q-252 0 -367 -152q-92 -119 -137 -409q-12 -80 -12 -146zM465 1235l4 31h516l-4 -31h-516z" />
<glyph unicode="&#x102;" horiz-adv-x="1316" d="M92 0l799 1499h70l299 -1499h-50l-104 518h-682l-274 -518h-58zM451 567h645l-176 885zM745 1825q0 18 5 41h28q-4 -19 -4 -35q0 -66 45 -118t125 -52q94 0 164 59q70 57 84 146h29q-18 -109 -99.5 -171.5t-173.5 -62.5t-147.5 57.5t-55.5 135.5z" />
<glyph unicode="&#x103;" d="M162 352.5q0 104.5 23.5 229.5t62.5 223t81 151.5t100 88t101 45t90.5 16.5t107.5 6t177 -29.5t193 -101.5l-144 -981h-28l2 123q-63 -41 -191.5 -89t-218.5 -48t-145.5 15t-106.5 53t-73 104q-31 90 -31 194.5zM211 358q0 -326 276 -325q78 0 130.5 12t72 15t65.5 21.5 t54 21.5t62.5 27t56.5 24l119 821q-145 90 -320 90q-252 0 -367 -152q-92 -119 -137 -409q-12 -80 -12 -146zM520 1427q0 18 2 41h29q-2 -18 -2 -34q0 -66 45 -118t125 -52q94 0 163.5 58t82.5 146h28q-16 -109 -97 -171t-173 -62t-147.5 57.5t-55.5 134.5z" />
<glyph unicode="&#x104;" horiz-adv-x="1888" d="M301 0l799 1499h69l299 -1499h-49l-104 518h-682l-275 -518h-57zM659 567h646l-177 885zM1233 -225q0 141 203 225h24q-117 -45 -166 -129q-23 -43 -22.5 -80t22.5 -70q45 -63 168 -63h8l-4 -29q-25 -4 -47 -4q-86 0 -136 47.5t-50 102.5z" />
<glyph unicode="&#x105;" d="M162 352.5q0 104.5 23.5 229.5t62.5 223t81 151.5t100 88t101 45t90.5 16.5t107.5 6t177 -29.5t193 -101.5l-144 -981h-28l2 123q-63 -41 -191.5 -89t-218.5 -48t-145.5 15t-106.5 53t-73 104q-31 90 -31 194.5zM211 358q0 -326 276 -325q78 0 130.5 12t72 15t65.5 21.5 t54 21.5t62.5 27t56.5 24l119 821q-145 90 -320 90q-252 0 -367 -152q-92 -119 -137 -409q-12 -80 -12 -146zM727 -225q0 141 203 225h24q-70 -27 -116 -72q-68 -61 -68 -137q0 -74 68 -108q47 -25 116 -25h11l-4 -29q-25 -2 -46 -2q-88 0 -138 46.5t-50 101.5z" />
<glyph unicode="&#x106;" horiz-adv-x="1155" d="M215 492q0 125 27.5 297t66.5 298.5t108.5 229t176 151t271.5 48.5t423 -50l-4 -28q-29 4 -54.5 6t-58 5t-72.5 6t-81 5q-123 6 -168 6q-160 0 -262 -57q-213 -123 -299 -659q-23 -143 -23 -256q0 -457 361 -457q193 0 377 18l61 6l-4 -28q-250 -45 -445 -45 q-401 0 -401 504zM860 1638l291 273h53l-315 -273h-29z" />
<glyph unicode="&#x107;" horiz-adv-x="1005" d="M161.5 343q0.5 101 22.5 216q53 340 176 449q60 53 121.5 71.5t190.5 18.5t356 -54l-6 -28q-217 33 -347 33t-184.5 -18.5t-105.5 -72.5q-104 -102 -154 -421q-20 -102 -20 -150.5t3 -99.5t18.5 -107.5t54.5 -87.5q66 -53 162 -53q170 0 374 33l66 10l-4 -33 q-209 -57 -430 -59q-219 0 -267 162q-27 90 -26.5 191zM698 1221l291 272h53l-315 -272h-29z" />
<glyph unicode="&#x108;" horiz-adv-x="1155" d="M215 492q0 125 27.5 297t66.5 298.5t108.5 229t176 151t271.5 48.5t423 -50l-4 -28q-29 4 -54.5 6t-58 5t-72.5 6t-81 5q-123 6 -168 6q-160 0 -262 -57q-213 -123 -299 -659q-23 -143 -23 -256q0 -457 361 -457q193 0 377 18l61 6l-4 -28q-250 -45 -445 -45 q-401 0 -401 504zM596 1638l313 267h43l201 -267h-35l-192 236l-293 -236h-37z" />
<glyph unicode="&#x109;" horiz-adv-x="1005" d="M161.5 343q0.5 101 22.5 216q53 340 176 449q60 53 121.5 71.5t190.5 18.5t356 -54l-6 -28q-217 33 -347 33t-184.5 -18.5t-105.5 -72.5q-104 -102 -154 -421q-20 -102 -20 -150.5t3 -99.5t18.5 -107.5t54.5 -87.5q66 -53 162 -53q170 0 374 33l66 10l-4 -33 q-209 -57 -430 -59q-219 0 -267 162q-27 90 -26.5 191zM373 1221l313 266h43l201 -266h-35l-193 235l-292 -235h-37z" />
<glyph unicode="&#x10a;" horiz-adv-x="1155" d="M215 492q0 125 27.5 297t66.5 298.5t108.5 229t176 151t271.5 48.5t423 -50l-4 -28q-29 4 -54.5 6t-58 5t-72.5 6t-81 5q-123 6 -168 6q-160 0 -262 -57q-213 -123 -299 -659q-23 -143 -23 -256q0 -457 361 -457q193 0 377 18l61 6l-4 -28q-250 -45 -445 -45 q-401 0 -401 504zM821 1663l21 127q3 25 28 25h23q25 0 20 -25l-20 -127q-4 -25 -29 -25h-22q-25 0 -21 25z" />
<glyph unicode="&#x10b;" horiz-adv-x="1005" d="M161.5 343q0.5 101 22.5 216q53 340 176 449q60 53 121.5 71.5t190.5 18.5t356 -54l-6 -28q-217 33 -347 33t-184.5 -18.5t-105.5 -72.5q-104 -102 -154 -421q-20 -102 -20 -150.5t3 -99.5t18.5 -107.5t54.5 -87.5q66 -53 162 -53q170 0 374 33l66 10l-4 -33 q-209 -57 -430 -59q-219 0 -267 162q-27 90 -26.5 191zM553 1206l20 127q4 25 29 25h23q25 0 20 -25l-20 -127q-4 -25 -29 -24h-23q-25 0 -20 24z" />
<glyph unicode="&#x10c;" horiz-adv-x="1155" d="M215 492q0 125 27.5 297t66.5 298.5t108.5 229t176 151t271.5 48.5t423 -50l-4 -28q-29 4 -54.5 6t-58 5t-72.5 6t-81 5q-123 6 -168 6q-160 0 -262 -57q-213 -123 -299 -659q-23 -143 -23 -256q0 -457 361 -457q193 0 377 18l61 6l-4 -28q-250 -45 -445 -45 q-401 0 -401 504zM637 1905h35l192 -236l293 236h37l-313 -267h-43z" />
<glyph unicode="&#x10d;" horiz-adv-x="1005" d="M161.5 343q0.5 101 22.5 216q53 340 176 449q60 53 121.5 71.5t190.5 18.5t356 -54l-6 -28q-217 33 -347 33t-184.5 -18.5t-105.5 -72.5q-104 -102 -154 -421q-20 -102 -20 -150.5t3 -99.5t18.5 -107.5t54.5 -87.5q66 -53 162 -53q170 0 374 33l66 10l-4 -33 q-209 -57 -430 -59q-219 0 -267 162q-27 90 -26.5 191zM516 1487h35l192 -236l293 236h37l-313 -266h-43z" />
<glyph unicode="&#x10e;" horiz-adv-x="1347" d="M164 0l237 1499h517q133 0 225 -52t137 -132q76 -131 76 -338q0 -104 -28 -255t-77 -275.5t-123.5 -228t-185.5 -161t-248 -57.5h-530zM221 49h473q133 0 240.5 64.5t175.5 173.5q131 207 172 458q23 135 23 242q0 180 -62 289q-98 174 -336 174h-465zM670 1898h35 l192 -235l293 235h37l-314 -266h-43z" />
<glyph unicode="&#x10f;" horiz-adv-x="1107" d="M168 387q0 98 14 168q88 549 467 549q76 0 190.5 -22.5t200.5 -59.5l93 586h45l-254 -1608h-27l-2 121q-51 -41 -187.5 -87t-238.5 -46t-172 53t-96 135q-33 113 -33 211zM217 373q0 -137 49 -215q76 -121 221 -121q174 0 412 113l135 843q-225 61 -387 62 q-242 0 -348 -256q-43 -106 -62.5 -229t-19.5 -197zM1255 1190l29 274l23 138h51l-23 -138l-55 -274h-25z" />
<glyph unicode="&#x110;" horiz-adv-x="1404" d="M150 750l4 28h133l114 721h517q133 0 225 -52t137 -132q76 -131 76 -344q0 -106 -26.5 -253t-76 -273t-125.5 -228q-160 -217 -434 -217h-530l119 750h-133zM221 49h473q133 0 240.5 64.5t175.5 173.5q131 207 172 458q23 135 23 242q0 180 -62 289q-98 174 -336 174 h-465l-106 -672h326l-5 -28h-325z" />
<glyph unicode="&#x111;" horiz-adv-x="1067" d="M170 389q0 98 14 168q88 547 469 547q76 0 189.5 -22.5t199.5 -59.5l48 291h-271l4 28h271l43 267h45l-43 -267h170l-4 -28h-170l-209 -1313h-27v121q-51 -41 -188.5 -87t-239.5 -46t-172 54t-94 138q-35 111 -35 209zM219 345.5q0 -103.5 47 -183.5q76 -125 217 -125 q182 0 420 113l133 843q-225 61 -391 62q-332 0 -412 -516q-14 -90 -14 -193.5z" />
<glyph unicode="&#x112;" horiz-adv-x="1148" d="M195 186q0 35 6 76l155 981q23 139 103 197.5t182 58.5h14l607 -20l-5 -29h-608q-209 0 -243 -217l-74 -465l733 -10l-4 -29l-737 -10l-74 -467q-6 -35 -6 -62q0 -76 48 -111.5t154 -35.5h588l-4 -29l-592 -20h-16q-227 0 -227 192zM618 1632l5 31h516l-4 -31h-517z" />
<glyph unicode="&#x113;" horiz-adv-x="1099" d="M153.5 314.5q0.5 113.5 22 239.5t38.5 193.5t54 144.5t88 120q119 96 332 96t313 -72q82 -59 82 -182q0 -168 -108 -264q-88 -78 -202 -100.5t-286 -22.5t-270 39q-14 -102 -14 -197.5t26 -161.5q47 -113 217 -112.5t476 43.5l-7 -33q-217 -59 -477 -59q-193 0 -252 141 q-33 74 -32.5 187.5zM221 535q16 -2 43 -7.5t107 -11.5t152.5 -6t163.5 14.5t159.5 43t120.5 87.5q66 74 65.5 183.5t-76 165t-245.5 55.5q-139 0 -256 -47q-66 -25 -136 -127q-18 -29 -38 -94q-41 -129 -60 -256zM457 1231l4 31h516l-4 -31h-516z" />
<glyph unicode="&#x116;" horiz-adv-x="1148" d="M195 186q0 35 6 76l155 981q23 139 103 197.5t182 58.5h14l607 -20l-5 -29h-608q-209 0 -243 -217l-74 -465l733 -10l-4 -29l-737 -10l-74 -467q-6 -35 -6 -62q0 -76 48 -111.5t154 -35.5h588l-4 -29l-592 -20h-16q-227 0 -227 192zM823 1657l21 127q3 24 28 24h23 q25 0 20 -24l-20 -127q-4 -25 -29 -25h-22q-25 0 -21 25z" />
<glyph unicode="&#x117;" horiz-adv-x="1099" d="M153.5 314.5q0.5 113.5 22 239.5t38.5 193.5t54 144.5t88 120q119 96 332 96t313 -72q82 -59 82 -182q0 -168 -108 -264q-88 -78 -202 -100.5t-286 -22.5t-270 39q-14 -102 -14 -197.5t26 -161.5q47 -113 217 -112.5t476 43.5l-7 -33q-217 -59 -477 -59q-193 0 -252 141 q-33 74 -32.5 187.5zM221 535q16 -2 43 -7.5t107 -11.5t152.5 -6t163.5 14.5t159.5 43t120.5 87.5q66 74 65.5 183.5t-76 165t-245.5 55.5q-139 0 -256 -47q-66 -25 -136 -127q-18 -29 -38 -94q-41 -129 -60 -256zM682 1255l20 127q4 25 29 25h23q25 0 20 -25l-20 -127 q-4 -25 -29 -24h-23q-25 0 -20 24z" />
<glyph unicode="&#x118;" horiz-adv-x="1148" d="M195 186q0 35 6 76l155 981q23 139 103 197.5t182 58.5h14l607 -20l-5 -29h-608q-209 0 -243 -217l-74 -465l733 -10l-4 -29l-737 -10l-74 -467q-6 -35 -6 -62q0 -76 48 -111.5t154 -35.5h588l-4 -29l-592 -20h-16q-227 0 -227 192zM801 -211q0 141 203 225h24 q-70 -27 -117 -71q-68 -63 -67 -138q0 -74 67 -108q47 -25 119 -25h8l-4 -28q-23 -4 -45 -4q-86 0 -137 47t-51 102z" />
<glyph unicode="&#x119;" horiz-adv-x="1099" d="M153.5 314.5q0.5 113.5 22 239.5t38.5 193.5t54 144.5t88 120q119 96 332 96t313 -72q82 -59 82 -182q0 -168 -108 -264q-88 -78 -202 -100.5t-286 -22.5t-270 39q-14 -102 -14 -197.5t26 -161.5q47 -113 217 -112.5t476 43.5l-7 -33q-217 -59 -477 -59q-193 0 -252 141 q-33 74 -32.5 187.5zM221 535q16 -2 43 -7.5t107 -11.5t152.5 -6t163.5 14.5t159.5 43t120.5 87.5q66 74 65.5 183.5t-76 165t-245.5 55.5q-139 0 -256 -47q-66 -25 -136 -127q-18 -29 -38 -94q-41 -129 -60 -256zM686 -180q0 141 203 225h24q-70 -27 -116 -72 q-68 -61 -68 -137q0 -74 68 -108q47 -25 118 -25h9l-4 -29q-23 -2 -46 -2q-86 0 -137 46.5t-51 101.5z" />
<glyph unicode="&#x11a;" horiz-adv-x="1148" d="M195 186q0 35 6 76l155 981q23 139 103 197.5t182 58.5h14l607 -20l-5 -29h-608q-209 0 -243 -217l-74 -465l733 -10l-4 -29l-737 -10l-74 -467q-6 -35 -6 -62q0 -76 48 -111.5t154 -35.5h588l-4 -29l-592 -20h-16q-227 0 -227 192zM641 1898h35l192 -235l293 235h37 l-313 -266h-43z" />
<glyph unicode="&#x11b;" horiz-adv-x="1099" d="M153.5 314.5q0.5 113.5 22 239.5t38.5 193.5t54 144.5t88 120q119 96 332 96t313 -72q82 -59 82 -182q0 -168 -108 -264q-88 -78 -202 -100.5t-286 -22.5t-270 39q-14 -102 -14 -197.5t26 -161.5q47 -113 217 -112.5t476 43.5l-7 -33q-217 -59 -477 -59q-193 0 -252 141 q-33 74 -32.5 187.5zM221 535q16 -2 43 -7.5t107 -11.5t152.5 -6t163.5 14.5t159.5 43t120.5 87.5q66 74 65.5 183.5t-76 165t-245.5 55.5q-139 0 -256 -47q-66 -25 -136 -127q-18 -29 -38 -94q-41 -129 -60 -256zM477 1497h35l193 -235l292 235h37l-313 -266h-43z" />
<glyph unicode="&#x11c;" horiz-adv-x="1310" d="M219 381q0 150 30 341t52.5 287.5t65.5 200t100 165t147.5 101.5t189.5 40t258 -17.5t263 -38.5l-6 -39l-86 13q-262 33 -418 32q-238 0 -345.5 -172t-164.5 -540q-35 -199 -35 -333t29 -216q63 -166 301 -166q141 0 412 76l90 26l94 604h-438l6 29q86 23 251 23t238 -6 l-125 -791h-28v111q-72 -35 -229.5 -78t-269.5 -43t-185.5 25.5t-114.5 82t-61.5 121t-20.5 162.5zM565 1638l314 267h43l200 -267h-35l-192 236l-293 -236h-37z" />
<glyph unicode="&#x11d;" horiz-adv-x="1089" d="M76 -508l4 29l463 -31h18q90 0 185.5 72.5t119.5 224.5l43 272q-96 -37 -226 -58t-210 -21q-305 0 -305 329q0 113 18 254q86 537 463 537q162 0 469 -27l-203 -1286q-29 -178 -133 -262t-213 -84q-16 0 -34 2zM217.5 329.5q-0.5 -104.5 30.5 -173.5q55 -127 231 -127 q131 0 223.5 21.5t212.5 49.5l152 940l-408 11h-10q-166 0 -270 -129t-143 -367q-18 -121 -18.5 -225.5zM453 1223l313 266h43l201 -266h-35l-193 235l-293 -235h-36z" />
<glyph unicode="&#x11e;" horiz-adv-x="1310" d="M219 381q0 150 30 341t52.5 287.5t65.5 200t100 165t147.5 101.5t189.5 40t258 -17.5t263 -38.5l-6 -39l-86 13q-262 33 -418 32q-238 0 -345.5 -172t-164.5 -540q-35 -199 -35 -333t29 -216q63 -166 301 -166q141 0 412 76l90 26l94 604h-438l6 29q86 23 251 23t238 -6 l-125 -791h-28v111q-72 -35 -229.5 -78t-269.5 -43t-185.5 25.5t-114.5 82t-61.5 121t-20.5 162.5zM641 1831q0 18 4 41h29q-4 -19 -4 -35q0 -66 45 -118t127 -52q92 0 161.5 58.5t83.5 146.5h29q-18 -109 -99 -171.5t-173 -62.5t-147.5 57.5t-55.5 135.5z" />
<glyph unicode="&#x11f;" horiz-adv-x="1089" d="M76 -508l4 29l463 -31h18q90 0 185.5 72.5t119.5 224.5l43 272q-96 -37 -226 -58t-210 -21q-305 0 -305 329q0 113 18 254q86 537 463 537q162 0 469 -27l-203 -1286q-29 -178 -133 -262t-213 -84q-16 0 -34 2zM217.5 329.5q-0.5 -104.5 30.5 -173.5q55 -127 231 -127 q131 0 223.5 21.5t212.5 49.5l152 940l-408 11h-10q-166 0 -270 -129t-143 -367q-18 -121 -18.5 -225.5zM508 1415q0 18 4 41h29q-4 -19 -4 -35q0 -66 45 -118t127 -52q92 0 161.5 58.5t83.5 146.5h29q-18 -109 -99 -171t-173.5 -62t-147.5 57t-55 135z" />
<glyph unicode="&#x120;" horiz-adv-x="1310" d="M219 381q0 150 30 341t52.5 287.5t65.5 200t100 165t147.5 101.5t189.5 40t258 -17.5t263 -38.5l-6 -39l-86 13q-262 33 -418 32q-238 0 -345.5 -172t-164.5 -540q-35 -199 -35 -333t29 -216q63 -166 301 -166q141 0 412 76l90 26l94 604h-438l6 29q86 23 251 23t238 -6 l-125 -791h-28v111q-72 -35 -229.5 -78t-269.5 -43t-185.5 25.5t-114.5 82t-61.5 121t-20.5 162.5zM850 1663l20 127q4 25 29 25h23q25 0 20 -25l-20 -127q-4 -25 -29 -25h-23q-25 0 -20 25z" />
<glyph unicode="&#x121;" horiz-adv-x="1089" d="M76 -508l4 29l463 -31h18q90 0 185.5 72.5t119.5 224.5l43 272q-96 -37 -226 -58t-210 -21q-305 0 -305 329q0 113 18 254q86 537 463 537q162 0 469 -27l-203 -1286q-29 -178 -133 -262t-213 -84q-16 0 -34 2zM217.5 329.5q-0.5 -104.5 30.5 -173.5q55 -127 231 -127 q131 0 223.5 21.5t212.5 49.5l152 940l-408 11h-10q-166 0 -270 -129t-143 -367q-18 -121 -18.5 -225.5zM698 1247l21 127q4 25 29 25h22q25 0 21 -25l-21 -127q-4 -25 -29 -24h-22q-25 0 -21 24z" />
<glyph unicode="&#x122;" horiz-adv-x="1310" d="M219 381q0 150 30 341t52.5 287.5t65.5 200t100 165t147.5 101.5t189.5 40t258 -17.5t263 -38.5l-6 -39l-86 13q-262 33 -418 32q-238 0 -345.5 -172t-164.5 -540q-35 -199 -35 -333t29 -216q63 -166 301 -166q141 0 412 76l90 26l94 604h-438l6 29q86 23 251 23t238 -6 l-125 -791h-28v111q-72 -35 -229.5 -78t-269.5 -43t-185.5 25.5t-114.5 82t-61.5 121t-20.5 162.5zM602 -412l2 11q29 0 35 28l12 86h-10q-23 0 -18 25l18 115q4 23 25 22h18q23 0 18 -22l-32 -207q-4 -33 -20.5 -46.5t-24 -13.5t-23.5 2z" />
<glyph unicode="&#x123;" horiz-adv-x="1060" d="M78 -508l4 29l463 -31h18q90 0 185.5 72.5t119.5 224.5l43 272q-96 -37 -226 -58t-210 -21q-305 0 -305 329q0 113 18 254q86 537 463 537q162 0 469 -27l-202 -1286q-29 -178 -133.5 -262t-213.5 -84q-16 0 -34 2zM219.5 329.5q-0.5 -104.5 30.5 -173.5 q55 -127 231 -127q131 0 223.5 21.5t213.5 49.5l151 940l-407 11h-11q-166 0 -270 -129t-143 -367q-18 -121 -18.5 -225.5zM752 1245l28 201q6 33 21.5 46t22.5 13t24 -2l-2 -10q-29 0 -35 -29l-10 -73h10q23 0 20 -23l-18 -123q-4 -25 -27 -24h-16q-23 0 -18 24z" />
<glyph unicode="&#x124;" horiz-adv-x="1333" d="M174 0l238 1499h49l-119 -749h901l119 749h49l-237 -1499h-50l111 700h-901l-111 -700h-49zM653 1632l314 266h43l200 -266h-34l-193 236l-293 -236h-37z" />
<glyph unicode="&#x125;" horiz-adv-x="1105" d="M123 0l254 1606h49l-102 -645q248 145 473 145q156 0 227 -102q53 -78 53 -179q0 -33 -6 -67l-121 -758h-49l121 758q4 33 4 61q0 92 -47 156q-63 82 -193.5 82t-231.5 -29t-235 -96l-147 -932h-49zM133 1729l313 266h43l201 -266h-35l-192 235l-293 -235h-37z" />
<glyph unicode="&#x126;" horiz-adv-x="1243" d="M174 0l174 1100h-133l4 30h133l60 369h49l-60 -369h861l59 369h49l-59 -369h133l-4 -30h-133l-174 -1100h-50l111 700h-860l-111 -700h-49zM342 750h860l55 350h-860z" />
<glyph unicode="&#x127;" horiz-adv-x="1105" d="M123 0l205 1292h-144l4 29h144l45 285h49l-45 -285h295l-4 -29h-295l-53 -331q248 145 467 145q156 0 229 -102q57 -78 57 -181q0 -33 -6 -65l-121 -758h-49l121 758q4 33 4 61q0 92 -47 156q-63 82 -193.5 82t-231.5 -29t-235 -96l-147 -932h-49z" />
<glyph unicode="&#x128;" horiz-adv-x="393" d="M184 1706q154 119 236 119q41 0 124 -75t113 -75q70 0 199 94q18 12 21 15l10 -15q-53 -45 -80 -65q-84 -61 -156 -62q-45 0 -125 75t-103.5 75t-38.5 -2t-32.5 -9t-30 -12.5t-32 -17.5t-29.5 -18q-27 -12 -67 -43zM223 0l238 1499h49l-238 -1499h-49z" />
<glyph unicode="&#x129;" horiz-adv-x="337" d="M33 1294q153 119 235 119q41 0 124 -74.5t114 -74.5q70 0 199 92q18 14 20 16l10 -14q-53 -45 -80 -66q-84 -61 -155 -61q-45 0 -125 74.5t-103.5 74.5t-39 -2t-33 -9t-29.5 -12t-31.5 -17.5t-29.5 -16.5q-27 -14 -68 -45zM145 0l172 1087h50l-172 -1087h-50z" />
<glyph unicode="&#x12a;" horiz-adv-x="393" d="M184 0l238 1499h49l-238 -1499h-49zM211 1632l4 31h516l-4 -31h-516z" />
<glyph unicode="&#x12b;" horiz-adv-x="337" d="M76 1221l4 30h516l-4 -30h-516zM123 0l172 1087h49l-172 -1087h-49z" />
<glyph unicode="&#x12e;" horiz-adv-x="393" d="M-4 -225q0 141 203 225h24q-70 -27 -117 -72q-68 -61 -67 -137q0 -74 67 -108q47 -25 119 -25h8l-4 -29q-23 -2 -45 -2q-86 0 -137 46.5t-51 101.5zM184 0l238 1499h49l-238 -1499h-49z" />
<glyph unicode="&#x12f;" horiz-adv-x="294" d="M-66 -225q0 141 203 225h25q-70 -27 -117 -72q-68 -61 -68 -137q0 -74 68 -108q47 -25 119 -25h8l-4 -29q-23 -2 -45 -2q-86 0 -137.5 46.5t-51.5 101.5zM123 0l172 1087h49l-172 -1087h-49zM322 1315l12 86q1 24 28 24h25q23 0 19 -24l-13 -86q-4 -25 -28 -25h-23 q-25 0 -20 25z" />
<glyph unicode="&#x130;" horiz-adv-x="393" d="M184 0l238 1499h49l-238 -1499h-49zM436 1657l21 127q3 24 28 24h23q25 0 20 -24l-20 -127q-4 -25 -29 -25h-22q-25 0 -21 25z" />
<glyph unicode="&#x131;" horiz-adv-x="337" d="M123 0l172 1087h49l-172 -1087h-49z" />
<glyph unicode="&#x134;" horiz-adv-x="653" d="M78 43l12 29q98 -33 176 -33q240 0 289 299l184 1161h49l-184 -1161q-33 -221 -153 -301q-72 -47 -179 -47q-121 0 -194 53zM506 1632l313 266h43l201 -266h-35l-192 236l-293 -236h-37z" />
<glyph unicode="&#x135;" horiz-adv-x="258" d="M53 -553l260 1640h49l-174 -1095q-55 -362 -108 -545h-27zM72 1221l313 266h43l201 -266h-35l-193 237l-292 -237h-37z" />
<glyph unicode="&#x136;" horiz-adv-x="1081" d="M164 0l237 1499h50l-115 -723h313l602 723h62l-619 -745l383 -754h-57l-371 727h-319l-115 -727h-51zM516 -401l2 10q29 0 35 29l12 86h-10q-23 0 -18 24l18 113q4 25 25 24h18q23 0 18 -24l-32 -205q-4 -33 -20.5 -46t-24 -13t-23.5 2z" />
<glyph unicode="&#x137;" horiz-adv-x="970" d="M123 -4l254 1601h49l-158 -993q158 0 284 43t206 117q145 137 200 319h52q-104 -377 -467 -489l352 -598h-57l-342 584q-100 -23 -154.5 -23t-79.5 2l-90 -563h-49zM377 -401l2 10q29 0 35 29l12 86h-10q-23 0 -19 24l19 113q4 25 24 24h19q23 0 18 -24l-33 -205 q-4 -33 -20 -46t-23.5 -13t-23.5 2z" />
<glyph unicode="&#x138;" horiz-adv-x="905" d="M123 0l172 1087h49l-82 -516h236l481 516h63l-503 -546l301 -541h-60l-291 522h-235l-82 -522h-49z" />
<glyph unicode="&#x139;" horiz-adv-x="1120" d="M197 190q0 31 6 68l196 1241h50l-197 -1241q-6 -34 -6 -61q0 -76 49 -112t154 -36h565l-8 -49h-555q-117 0 -189 41q-66 39 -65 149zM438 1632l291 273h53l-315 -273h-29z" />
<glyph unicode="&#x13a;" horiz-adv-x="641" d="M170 242q0 63 12 145l193 1217h49l-193 -1217q-12 -74 -12 -126t5 -83t20.5 -56.5t27 -37.5t35.5 -21q33 -12 113 -24t94 -12l-4 -27h-133q-207 0 -207 242zM406 1726l290 273h54l-316 -273h-28z" />
<glyph unicode="&#x13b;" horiz-adv-x="1120" d="M197 190q0 31 6 68l196 1241h50l-197 -1241q-6 -34 -6 -61q0 -76 49 -112t154 -36h565l-8 -49h-555q-117 0 -189 41q-66 39 -65 149zM528 -401l2 10q29 0 35 29l13 86h-11q-23 0 -18 24l18 113q4 25 25 24h18q23 0 19 -24l-33 -205q-4 -33 -20.5 -46t-23.5 -13t-24 2z " />
<glyph unicode="&#x13c;" horiz-adv-x="641" d="M197 242q0 63 12 145l192 1217h50l-193 -1217q-12 -74 -12 -126t5 -83t20.5 -56.5t26.5 -37.5t34 -21q35 -12 114.5 -24t94.5 -12l-4 -27h-134q-207 0 -206 242zM244 -401l2 10q29 0 35 29l12 86h-10q-23 0 -19 24l19 113q4 25 24 24h19q23 0 18 -24l-33 -205 q-4 -33 -20.5 -46t-23.5 -13t-23 2z" />
<glyph unicode="&#x13d;" horiz-adv-x="1120" d="M197 182q0 35 6 76l196 1241h50l-197 -1241q-6 -34 -6 -61q0 -76 49 -112t154 -36h565l-8 -49h-566q-127 0 -194 51q-49 37 -49 131zM584 1169l30 275l21 137h51l-20 -137l-58 -275h-24z" />
<glyph unicode="&#x13e;" horiz-adv-x="641" d="M170 242q0 63 12 145l193 1217h49l-193 -1217q-12 -74 -12 -126t5 -83t20.5 -56.5t27 -37.5t35.5 -21q33 -12 113 -24t94 -12l-4 -27h-133q-207 0 -207 242zM578 1190l30 274l21 138h51l-21 -138l-57 -274h-24z" />
<glyph unicode="&#x141;" horiz-adv-x="1120" d="M111 737l6 43l182 74l102 645h50l-99 -625l262 107l-8 -41l-262 -106l-90 -576q-6 -34 -6 -61q0 -76 49 -112t154 -36h565l-8 -49h-559q-117 0 -185 41q-66 39 -65 149q0 31 6 68l88 553z" />
<glyph unicode="&#x142;" horiz-adv-x="641" d="M106 817l7 43l155 74l107 670h49l-102 -643l294 141l-8 -41l-293 -143l-84 -531q-12 -127 -12 -179t23.5 -88t51.5 -50.5t117 -28.5t103 -14l-4 -27h-143q-199 0 -199 236q0 66 14 151l80 506z" />
<glyph unicode="&#x143;" horiz-adv-x="1314" d="M164 0l237 1499h52l675 -1411l226 1411h49l-238 -1499h-49l-678 1413l-225 -1413h-49zM909 1632l291 273h53l-315 -273h-29z" />
<glyph unicode="&#x144;" horiz-adv-x="1105" d="M123 0l172 1087h29v-126q248 145 467 145q156 0 229 -102q57 -78 57 -181q0 -33 -6 -65l-121 -758h-49l121 758q4 31 4 59q0 88 -47 154q-63 86 -193.5 86t-231.5 -29t-235 -96l-147 -932h-49zM717 1229l291 272h53l-316 -272h-28z" />
<glyph unicode="&#x145;" horiz-adv-x="1314" d="M164 0l237 1499h52l675 -1411l226 1411h49l-238 -1499h-49l-678 1413l-225 -1413h-49zM602 -401l2 10q29 0 35 29l12 86h-10q-23 0 -18 24l18 113q4 25 25 24h18q23 0 18 -24l-32 -205q-4 -33 -20.5 -46t-24 -13t-23.5 2z" />
<glyph unicode="&#x146;" horiz-adv-x="1105" d="M123 0l172 1087h29v-126q248 145 467 145q156 0 229 -102q57 -78 57 -181q0 -33 -6 -65l-121 -758h-49l121 758q4 31 4 59q0 88 -47 154q-63 86 -193.5 86t-231.5 -29t-235 -96l-147 -932h-49zM453 -401l2 10q29 0 34 29l13 86h-10q-23 0 -19 24l19 113q4 25 24 24h19 q23 0 18 -24l-33 -205q-4 -33 -20.5 -46t-23.5 -13t-23 2z" />
<glyph unicode="&#x147;" horiz-adv-x="1314" d="M164 0l237 1499h52l675 -1411l226 1411h49l-238 -1499h-49l-678 1413l-225 -1413h-49zM688 1898h35l192 -235l293 235h37l-313 -266h-43z" />
<glyph unicode="&#x148;" horiz-adv-x="1105" d="M123 0l172 1087h29v-126q248 145 467 145q156 0 229 -102q57 -78 57 -181q0 -33 -6 -65l-121 -758h-49l121 758q4 31 4 59q0 88 -47 154q-63 86 -193.5 86t-231.5 -29t-235 -96l-147 -932h-49zM496 1495h34l193 -235l293 235h37l-314 -266h-43z" />
<glyph unicode="&#x14a;" horiz-adv-x="1273" d="M164 0l237 1499h52l639 -1401l221 1401h49l-264 -1671q-18 -117 -47 -186.5t-79 -107.5t-109.5 -49t-157.5 -11l6 37q145 16 180 30q119 45 158 285l26 174l-639 1401l-221 -1401h-51z" />
<glyph unicode="&#x14b;" horiz-adv-x="1134" d="M123 0l172 1087h24l5 -126q90 47 143 71q164 74 312.5 74t232.5 -102q63 -82 63 -187q0 -29 -4 -59l-149 -942q-45 -283 -363 -318l-18 31q289 47 331 289l150 940q4 23 4 45q0 88 -65.5 171t-198.5 83q-184 0 -443 -131l-147 -926h-49z" />
<glyph unicode="&#x14c;" horiz-adv-x="1400" d="M209 418q0 139 32.5 341t81 343t101.5 221t136 122t159 53t185.5 11t175 -9t128 -37.5t95.5 -82.5q70 -113 69 -303q0 -137 -31.5 -343t-76.5 -340t-98.5 -213t-134.5 -122t-160.5 -55t-202.5 -12t-198 13t-141.5 58.5t-93 130.5t-26.5 224zM260 362.5q0 -59.5 20.5 -135 t78 -116.5t130 -55.5t188.5 -14.5t192.5 14.5t147 56.5t118.5 119q100 162 155 508q31 190 31 324.5t-24.5 214.5t-86 120t-128 51t-155.5 11t-132 -3t-97.5 -12t-91.5 -30.5t-80 -55.5t-73.5 -88t-61.5 -128t-55.5 -175.5t-49 -257t-25.5 -222t-1 -126zM678 1632l4 31h516 l-4 -31h-516z" />
<glyph unicode="&#x14d;" horiz-adv-x="1146" d="M168 307.5q0 116.5 18 235.5q52 325 169.5 440t371.5 115t330 -140q45 -86 45 -205.5t-19 -238.5q-47 -299 -161.5 -411.5t-374.5 -112.5t-334 125q-45 76 -45 192.5zM217 332q0 -76 15.5 -126t41 -84t70.5 -52q78 -31 200 -31t192.5 18.5t131.5 69.5q117 98 166 401 q20 98 20.5 149.5t-6 110t-25.5 116t-69 89.5q-84 55 -214 55.5t-195.5 -15t-131 -65.5t-107.5 -158t-65.5 -255t-23.5 -223zM487 1221l5 30h516l-4 -30h-517z" />
<glyph unicode="&#x150;" horiz-adv-x="1400" d="M209 418q0 139 32.5 341t81 343t101.5 221t136 122t159 53t185.5 11t175 -9t128 -37.5t95.5 -82.5q70 -113 69 -303q0 -137 -31.5 -343t-76.5 -340t-98.5 -213t-134.5 -122t-160.5 -55t-202.5 -12t-198 13t-141.5 58.5t-93 130.5t-26.5 224zM260 362.5q0 -59.5 20.5 -135 t78 -116.5t130 -55.5t188.5 -14.5t192.5 14.5t147 56.5t118.5 119q100 162 155 508q31 190 31 324.5t-24.5 214.5t-86 120t-128 51t-155.5 11t-132 -3t-97.5 -12t-91.5 -30.5t-80 -55.5t-73.5 -88t-61.5 -128t-55.5 -175.5t-49 -257t-25.5 -222t-1 -126zM778 1632l291 273 h53l-315 -273h-29zM1063 1632l291 273h53l-315 -273h-29z" />
<glyph unicode="&#x151;" horiz-adv-x="1146" d="M168 307.5q0 116.5 18 235.5q52 325 169.5 440t371.5 115t330 -140q45 -86 45 -205.5t-19 -238.5q-47 -299 -161.5 -411.5t-374.5 -112.5t-334 125q-45 76 -45 192.5zM217 332q0 -76 15.5 -126t41 -84t70.5 -52q78 -31 200 -31t192.5 18.5t131.5 69.5q117 98 166 401 q20 98 20.5 149.5t-6 110t-25.5 116t-69 89.5q-84 55 -214 55.5t-195.5 -15t-131 -65.5t-107.5 -158t-65.5 -255t-23.5 -223zM588 1221l291 272h53l-316 -272h-28zM872 1221l291 272h54l-316 -272h-29z" />
<glyph unicode="&#x152;" horiz-adv-x="2099" d="M207 418q0 139 32.5 341t81 343t101.5 221t136 122t158.5 53t196.5 11q209 0 315.5 -60t133.5 -245q14 156 95 225.5t198 69.5h14l543 -20l-4 -29h-547q-209 0 -244 -217l-74 -465l672 -10l-4 -29l-676 -10l-73 -467q-6 -35 -7 -62q0 -76 48.5 -111.5t154.5 -35.5h527 l-5 -29l-530 -20h-20q-111 0 -168.5 51t-57.5 141q0 39 10 86q-82 -172 -206.5 -226t-341.5 -54q-123 0 -198 13t-141.5 58.5t-93 130.5t-26.5 224zM258 362.5q0 -59.5 20.5 -135t78 -116.5t130 -55.5t188.5 -14.5t192.5 14.5t147 56.5t120.5 119q98 162 153 508 q31 190 31 324.5t-24.5 214.5t-86 120t-128 51t-155.5 11t-132 -3t-97.5 -12t-91.5 -30.5t-80 -55.5t-73.5 -88t-61.5 -128t-55.5 -175.5t-49 -257t-25.5 -222t-1 -126z" />
<glyph unicode="&#x153;" horiz-adv-x="1978" d="M168 307.5q0 116.5 18 235.5q51 326 169 440.5t370 114.5q180 0 269 -70t106 -213q49 143 153 217q111 76 326 76q369 0 369 -254q0 -168 -109 -264q-88 -78 -201.5 -100.5t-285.5 -22.5t-271 39q-16 -104 -16 -197q0 -270 233 -274h15q168 0 473 43l-6 -33 q-217 -59 -477 -59q-135 0 -204 66.5t-79 207.5q-57 -147 -167 -208.5t-304 -61.5q-262 0 -336 125q-45 76 -45 192.5zM217 332q0 -76 15.5 -126t41 -84t70.5 -52q78 -31 200 -31t192.5 18.5t131.5 69.5q117 98 166 401q20 98 20.5 149.5t-6 110t-25.5 116t-69 89.5 q-84 55 -214 55.5t-195.5 -15t-131 -65.5t-107.5 -158t-65.5 -255t-23.5 -223zM1087 535q45 -8 145.5 -17.5t147.5 -9.5t120 9t164 33.5t155 88.5q78 78 77.5 193.5t-76 171t-226 55.5t-238.5 -32t-141.5 -102.5t-81.5 -159.5t-46 -230z" />
<glyph unicode="&#x154;" horiz-adv-x="1253" d="M154 0l237 1499h565q162 0 230 -72q76 -80 76 -200q0 -61 -11 -146q-45 -276 -164 -354q-59 -39 -107 -51t-120 -14l223 -662h-53l-223 662q-481 8 -496 20l-108 -682h-49zM315 711h516q70 0 121.5 13t104.5 50q106 80 143 316q10 90 10 142t-19.5 91t-40 63.5 t-56.5 38.5q-66 23 -146 23h-516zM823 1632l291 273h53l-315 -273h-29z" />
<glyph unicode="&#x155;" horiz-adv-x="804" d="M123 0l172 1087h24l3 -137q92 49 146 74t146.5 50.5t187.5 25.5t140 -17l-8 -47q-66 14 -130.5 14.5t-108.5 -6t-72.5 -12.5t-78.5 -24.5t-68.5 -26.5t-81 -35.5t-79.5 -36.5l-143 -909h-49zM627 1223l291 272h53l-316 -272h-28z" />
<glyph unicode="&#x156;" horiz-adv-x="1253" d="M154 0l237 1499h565q162 0 230 -72q76 -80 76 -200q0 -61 -11 -146q-45 -276 -164 -354q-59 -39 -107 -51t-120 -14l223 -662h-53l-223 662q-481 8 -496 20l-108 -682h-49zM315 711h516q70 0 121.5 13t104.5 50q106 80 143 316q10 90 10 142t-19.5 91t-40 63.5 t-56.5 38.5q-66 23 -146 23h-516zM543 -401l2 10q29 0 35 29l12 86h-10q-23 0 -19 24l19 113q4 25 24 24h19q23 0 18 -24l-33 -205q-4 -33 -20.5 -46t-23.5 -13t-23 2z" />
<glyph unicode="&#x157;" horiz-adv-x="804" d="M162 -401l2 10q29 0 35 29l12 86h-10q-23 0 -19 24l19 113q4 25 24 24h19q23 0 18 -24l-33 -205q-4 -33 -20 -46t-23.5 -13t-23.5 2zM227 0l172 1087h25l2 -137q92 49 146.5 74t146.5 50.5t187 25.5t141 -17l-9 -47q-66 14 -130 14.5t-108 -6t-73 -12.5t-79 -24.5 t-68.5 -26.5t-81 -35.5t-78.5 -36.5l-144 -909h-49z" />
<glyph unicode="&#x158;" horiz-adv-x="1253" d="M154 0l237 1499h565q162 0 230 -72q76 -80 76 -200q0 -61 -11 -146q-45 -276 -164 -354q-59 -39 -107 -51t-120 -14l223 -662h-53l-223 662q-481 8 -496 20l-108 -682h-49zM315 711h516q70 0 121.5 13t104.5 50q106 80 143 316q10 90 10 142t-19.5 91t-40 63.5 t-56.5 38.5q-66 23 -146 23h-516zM602 1898h35l192 -235l293 235h37l-313 -266h-43z" />
<glyph unicode="&#x159;" horiz-adv-x="804" d="M123 0l172 1087h24l3 -137q92 49 146 74t146.5 50.5t187.5 25.5t140 -17l-8 -47q-66 14 -130.5 14.5t-108.5 -6t-72.5 -12.5t-78.5 -24.5t-68.5 -26.5t-81 -35.5t-79.5 -36.5l-143 -909h-49zM403 1489h35l193 -236l293 236h37l-314 -266h-43z" />
<glyph unicode="&#x15a;" horiz-adv-x="1157" d="M162 14l4 31q133 -12 485 -12q252 0 340 141q37 59 49 145l21 140q6 37 6 67q0 82 -41 125q-55 59 -207 60h-229q-225 0 -283 94q-35 59 -35 117.5t11 97.5l22 135q33 207 145.5 281.5t317.5 74.5t438 -38l-4 -27l-452 16h-27q-152 0 -246 -68.5t-123 -246.5l-22 -135 q-6 -39 -6 -72q0 -90 56 -135t212 -45h233q188 0 246 -84q43 -59 43 -152q0 -35 -6 -75l-20 -140q-33 -209 -168 -272q-117 -53 -283 -53q-86 0 -250 9t-227 21zM825 1634l291 273h53l-315 -273h-29z" />
<glyph unicode="&#x15b;" horiz-adv-x="1032" d="M131 10l4 29h500q162 0 213 84q25 41 35 108l16 101q2 16 2 33q0 57 -40 104t-144 47h-268q-158 0 -205 39t-47 123q0 35 6 78l14 94q20 129 94 188.5t230 59.5q283 0 471 -19l-6 -28h-474q-127 0 -188 -50.5t-78 -162.5l-14 -95q-6 -33 -6 -58.5t5 -43.5t12 -31.5 t23.5 -21.5t30 -12.5t40 -7.5t44.5 -3h318q119 0 176 -59.5t57 -138.5q0 -23 -4 -48l-16 -100q-29 -178 -154 -213q-59 -16 -155 -16q-303 0 -492 20zM649 1221l291 272h53l-315 -272h-29z" />
<glyph unicode="&#x15c;" horiz-adv-x="1157" d="M162 14l4 31q133 -12 485 -12q252 0 340 141q37 59 49 145l21 140q6 37 6 67q0 82 -41 125q-55 59 -207 60h-229q-225 0 -283 94q-35 59 -35 117.5t11 97.5l22 135q33 207 145.5 281.5t317.5 74.5t438 -38l-4 -27l-452 16h-27q-152 0 -246 -68.5t-123 -246.5l-22 -135 q-6 -39 -6 -72q0 -90 56 -135t212 -45h233q188 0 246 -84q43 -59 43 -152q0 -35 -6 -75l-20 -140q-33 -209 -168 -272q-117 -53 -283 -53q-86 0 -250 9t-227 21zM500 1634l313 267h43l201 -267h-35l-193 236l-292 -236h-37z" />
<glyph unicode="&#x15d;" horiz-adv-x="1032" d="M131 10l4 29h500q162 0 213 84q25 41 35 108l16 101q2 16 2 33q0 57 -40 104t-144 47h-268q-158 0 -205 39t-47 123q0 35 6 78l14 94q20 129 94 188.5t230 59.5q283 0 471 -19l-6 -28h-474q-127 0 -188 -50.5t-78 -162.5l-14 -95q-6 -33 -6 -58.5t5 -43.5t12 -31.5 t23.5 -21.5t30 -12.5t40 -7.5t44.5 -3h318q119 0 176 -59.5t57 -138.5q0 -23 -4 -48l-16 -100q-29 -178 -154 -213q-59 -16 -155 -16q-303 0 -492 20zM385 1221l313 266h43l201 -266h-35l-192 235l-293 -235h-37z" />
<glyph unicode="&#x15e;" horiz-adv-x="1157" d="M162 14l4 31q133 -12 485 -12q252 0 340 141q37 59 49 145l21 140q6 37 6 67q0 82 -41 125q-55 59 -207 60h-229q-225 0 -283 94q-35 59 -35 117.5t11 97.5l22 135q33 207 145.5 281.5t317.5 74.5t438 -38l-4 -27l-452 16h-27q-152 0 -246 -68.5t-123 -246.5l-22 -135 q-6 -39 -6 -72q0 -90 56 -135t212 -45h233q188 0 246 -84q43 -59 43 -152q0 -35 -6 -75l-20 -140q-33 -209 -168 -272q-117 -53 -283 -53q-86 0 -250 9t-227 21zM340 -371l2 15l70 10q68 10 100.5 24.5t63 68.5t45.5 161h34q-25 -158 -76 -218.5t-176 -60.5h-63z" />
<glyph unicode="&#x15f;" horiz-adv-x="1032" d="M131 10l4 29h500q162 0 213 84q25 41 35 108l16 101q2 16 2 33q0 57 -40 104t-144 47h-268q-158 0 -205 39t-47 123q0 35 6 78l14 94q20 129 94 188.5t230 59.5q283 0 471 -19l-6 -28h-474q-127 0 -188 -50.5t-78 -162.5l-14 -95q-6 -33 -6 -58.5t5 -43.5t12 -31.5 t23.5 -21.5t30 -12.5t40 -7.5t44.5 -3h318q119 0 176 -59.5t57 -138.5q0 -23 -4 -48l-16 -100q-29 -178 -154 -213q-59 -16 -155 -16q-303 0 -492 20zM258 -360l2 14l70 10q106 14 137 49q39 45 52 97.5t20 107.5h34q-25 -160 -75.5 -219t-175.5 -59h-64z" />
<glyph unicode="&#x160;" horiz-adv-x="1157" d="M162 14l4 31q133 -12 485 -12q252 0 340 141q37 59 49 145l21 140q6 37 6 67q0 82 -41 125q-55 59 -207 60h-229q-225 0 -283 94q-35 59 -35 117.5t11 97.5l22 135q33 207 145.5 281.5t317.5 74.5t438 -38l-4 -27l-452 16h-27q-152 0 -246 -68.5t-123 -246.5l-22 -135 q-6 -39 -6 -72q0 -90 56 -135t212 -45h233q188 0 246 -84q43 -59 43 -152q0 -35 -6 -75l-20 -140q-33 -209 -168 -272q-117 -53 -283 -53q-86 0 -250 9t-227 21zM608 1901h35l193 -236l292 236h37l-313 -267h-43z" />
<glyph unicode="&#x161;" horiz-adv-x="1032" d="M131 10l4 29h500q162 0 213 84q25 41 35 108l16 101q2 16 2 33q0 57 -40 104t-144 47h-268q-158 0 -205 39t-47 123q0 35 6 78l14 94q20 129 94 188.5t230 59.5q283 0 471 -19l-6 -28h-474q-127 0 -188 -50.5t-78 -162.5l-14 -95q-6 -33 -6 -58.5t5 -43.5t12 -31.5 t23.5 -21.5t30 -12.5t40 -7.5t44.5 -3h318q119 0 176 -59.5t57 -138.5q0 -23 -4 -48l-16 -100q-29 -178 -154 -213q-59 -16 -155 -16q-303 0 -492 20zM436 1487h35l193 -236l292 236h37l-313 -266h-43z" />
<glyph unicode="&#x162;" horiz-adv-x="1292" d="M283 1450l8 49h1102l-9 -49h-532l-229 -1450h-50l230 1450h-520zM285 -379l2 14l69 11q68 10 100.5 24.5t63.5 68.5t45 161h35q-25 -158 -76 -218.5t-176 -60.5h-63z" />
<glyph unicode="&#x163;" horiz-adv-x="704" d="M98 -352l2 14l70 10q121 16 156 74q37 61 53 180h35q-25 -160 -76 -219t-176 -59h-64zM188 1040l7 33l174 17l63 303h33l-47 -303h358l-8 -50h-358l-105 -655q-12 -74 -12 -126t5 -83t20.5 -56.5t26.5 -37.5t36 -21q33 -12 112.5 -24t94.5 -12l-4 -27h-129 q-211 0 -211 246q0 61 12 141l104 655h-172z" />
<glyph unicode="&#x164;" horiz-adv-x="1292" d="M285 1450l8 49h1102l-9 -49h-532l-229 -1450h-50l230 1450h-520zM629 1898h35l192 -235l293 235h37l-314 -266h-43z" />
<glyph unicode="&#x165;" horiz-adv-x="704" d="M188 1040l7 33l174 17l63 303h33l-47 -303h358l-8 -50h-358l-105 -655q-12 -74 -12 -126t5 -83t20.5 -56.5t26.5 -37.5t36 -21q33 -12 112.5 -24t94.5 -12l-4 -27h-129q-211 0 -211 246q0 61 12 141l104 655h-172zM621 1223l28 274l23 137h51l-23 -137l-55 -274h-24z" />
<glyph unicode="&#x166;" horiz-adv-x="1210" d="M285 1450l8 49h1020l-8 -49h-492l-92 -582h266l-4 -28h-266l-133 -840h-49l133 840h-267l5 28h266l92 582h-479z" />
<glyph unicode="&#x167;" horiz-adv-x="704" d="M133 651l4 29h166l57 360h-172l7 33l174 17l63 303h33l-47 -303h358l-8 -50h-358l-58 -360h256l-4 -29h-256l-41 -262q-14 -92 -14 -144t11 -85t21.5 -54.5t36.5 -31.5q37 -16 125 -30.5t103 -14.5l-4 -27h-148q-195 0 -194 234q0 68 14 153l41 262h-166z" />
<glyph unicode="&#x168;" horiz-adv-x="1394" d="M244 385q0 115 24 270l133 844h50l-134 -844q-27 -164 -26.5 -221t3.5 -97t9 -85t25.5 -78t36 -56.5t50.5 -37.5t56.5 -23.5t67.5 -11.5q76 -6 147.5 -6t115.5 3t99 17.5t94 39t82 69.5t74 111q74 152 106 376l134 844h49l-133 -844q-35 -207 -70 -296t-59.5 -139 t-58.5 -85t-61.5 -60.5t-68.5 -41t-68.5 -24.5t-72.5 -13q-70 -6 -211 -6t-217 30q-176 68 -176 365zM606 1696q154 119 234 119q35 0 81 -37t89 -75t62.5 -38t32.5 2t27.5 7t26.5 10.5t26.5 13.5t25 14t25.5 16.5t22.5 15.5t21.5 16.5t18 13.5l11 -15 q-119 -100 -162 -113.5t-73 -13.5t-64.5 23.5t-61.5 52.5q-72 74 -110 74q-70 0 -191 -80q-25 -16 -33 -23z" />
<glyph unicode="&#x169;" horiz-adv-x="1103" d="M147 268q0 31 7 64l120 758h50l-121 -758q-4 -31 -4 -60q0 -88 47 -153q63 -86 193 -86t231.5 28.5t234.5 96.5l148 932h49l-172 -1088h-29v127q-248 -145 -465 -145q-156 0 -231 102q-57 78 -58 182zM373 1284q155 119 233 119q37 0 82 -38t88 -75t63.5 -37t37 3.5 t30 7.5t30.5 13t27.5 15t29 18.5t25.5 17.5t25.5 18.5t20.5 15.5l10 -14q-119 -100 -162 -113.5t-76.5 -13.5t-77.5 36.5t-85 74.5t-63.5 38t-38 -2t-33 -9t-29.5 -12.5t-31.5 -17.5t-30 -17t-34 -21.5t-33.5 -22.5z" />
<glyph unicode="&#x16a;" horiz-adv-x="1394" d="M244 385q0 115 24 270l133 844h50l-134 -844q-27 -164 -26.5 -221t3.5 -97t9 -85t25.5 -78t36 -56.5t50.5 -37.5t56.5 -23.5t67.5 -11.5q76 -6 147.5 -6t115.5 3t99 17.5t94 39t82 69.5t74 111q74 152 106 376l134 844h49l-133 -844q-35 -207 -70 -296t-59.5 -139 t-58.5 -85t-61.5 -60.5t-68.5 -41t-68.5 -24.5t-72.5 -13q-70 -6 -211 -6t-217 30q-176 68 -176 365zM684 1632l4 31h516l-4 -31h-516z" />
<glyph unicode="&#x16b;" horiz-adv-x="1103" d="M147 268q0 31 7 64l120 758h50l-121 -758q-4 -31 -4 -60q0 -88 47 -153q63 -86 193 -86t231.5 28.5t234.5 96.5l148 932h49l-172 -1088h-29v127q-248 -145 -465 -145q-156 0 -231 102q-57 78 -58 182zM451 1221l4 30h516l-4 -30h-516z" />
<glyph unicode="&#x16c;" horiz-adv-x="1394" d="M244 385q0 115 24 270l133 844h50l-134 -844q-27 -164 -26.5 -221t3.5 -97t9 -85t25.5 -78t36 -56.5t50.5 -37.5t56.5 -23.5t67.5 -11.5q76 -6 147.5 -6t115.5 3t99 17.5t94 39t82 69.5t74 111q74 152 106 376l134 844h49l-133 -844q-35 -207 -70 -296t-59.5 -139 t-58.5 -85t-61.5 -60.5t-68.5 -41t-68.5 -24.5t-72.5 -13q-70 -6 -211 -6t-217 30q-176 68 -176 365zM739 1825q0 18 4 41h29q-2 -19 -2 -35q0 -66 45 -118t125 -52q94 0 162.5 58.5t83.5 146.5h28q-16 -109 -98 -171.5t-173 -62.5t-147.5 57.5t-56.5 135.5z" />
<glyph unicode="&#x16d;" horiz-adv-x="1103" d="M147 268q0 31 7 64l120 758h50l-121 -758q-4 -31 -4 -60q0 -88 47 -153q63 -86 193 -86t231.5 28.5t234.5 96.5l148 932h49l-172 -1088h-29v127q-248 -145 -465 -145q-156 0 -231 102q-57 78 -58 182zM508 1413q0 18 2 41h29q-2 -19 -2 -35q0 -66 45 -118t125 -52 q94 0 163.5 58.5t81.5 146.5h29q-16 -109 -97 -171t-173.5 -62t-147.5 57t-55 135z" />
<glyph unicode="&#x16e;" horiz-adv-x="1394" d="M244 385q0 115 24 270l133 844h50l-134 -844q-27 -164 -26.5 -221t3.5 -97t9 -85t25.5 -78t36 -56.5t50.5 -37.5t56.5 -23.5t67.5 -11.5q76 -6 147.5 -6t115.5 3t99 17.5t94 39t82 69.5t74 111q74 152 106 376l134 844h49l-133 -844q-35 -207 -70 -296t-59.5 -139 t-58.5 -85t-61.5 -60.5t-68.5 -41t-68.5 -24.5t-72.5 -13q-70 -6 -211 -6t-217 30q-176 68 -176 365zM764 1806q0 109 80 177.5t167 68.5t131 -55t44 -119q0 -78 -41 -133q-82 -113 -201 -113q-88 0 -134 54.5t-46 119.5zM795 1810q0 -53 39.5 -100t101 -47t106.5 25 q115 61 115 184q0 55 -39 102t-100.5 47t-106.5 -24q-116 -64 -116 -187z" />
<glyph unicode="&#x16f;" horiz-adv-x="1103" d="M147 268q0 31 7 64l120 758h50l-121 -758q-4 -31 -4 -60q0 -88 47 -153q63 -86 193 -86t231.5 28.5t234.5 96.5l148 932h49l-172 -1088h-29v127q-248 -145 -465 -145q-156 0 -231 102q-57 78 -58 182zM532 1395q0 109 80 177t166 68t130 -55t44 -119q0 -111 -77.5 -178 t-163.5 -67t-132.5 54t-46.5 120zM563 1399q0 -53 40 -100.5t114 -47.5t133 52q74 66 74 157q0 55 -39 102.5t-100.5 47.5t-104.5 -25q-117 -63 -117 -186z" />
<glyph unicode="&#x170;" horiz-adv-x="1394" d="M244 385q0 115 24 270l133 844h50l-134 -844q-27 -164 -26.5 -221t3.5 -97t9 -85t25.5 -78t36 -56.5t50.5 -37.5t56.5 -23.5t67.5 -11.5q76 -6 147.5 -6t115.5 3t99 17.5t94 39t82 69.5t74 111q74 152 106 376l134 844h49l-133 -844q-35 -207 -70 -296t-59.5 -139 t-58.5 -85t-61.5 -60.5t-68.5 -41t-68.5 -24.5t-72.5 -13q-70 -6 -211 -6t-217 30q-176 68 -176 365zM784 1632l291 273h53l-315 -273h-29zM1069 1632l291 273h53l-315 -273h-29z" />
<glyph unicode="&#x171;" horiz-adv-x="1103" d="M147 268q0 31 7 64l120 758h50l-121 -758q-4 -31 -4 -60q0 -88 47 -153q63 -86 193 -86t231.5 28.5t234.5 96.5l148 932h49l-172 -1088h-29v127q-248 -145 -465 -145q-156 0 -231 102q-57 78 -58 182zM553 1221l291 272h53l-315 -272h-29zM838 1221l290 272h54l-316 -272 h-28z" />
<glyph unicode="&#x172;" horiz-adv-x="1394" d="M244 385q0 115 24 270l133 844h50l-134 -844q-27 -164 -26.5 -221t3.5 -97t9 -85t25.5 -78t36 -56.5t50.5 -37.5t56.5 -23.5t67.5 -11.5q76 -6 147.5 -6t115.5 3t99 17.5t94 39t82 69.5t74 111q74 152 106 376l134 844h49l-133 -844q-35 -207 -70 -296t-59.5 -139 t-58.5 -85t-61.5 -60.5t-68.5 -41t-68.5 -24.5t-72.5 -13q-70 -6 -211 -6t-217 30q-176 68 -176 365zM489 -233q0 141 203 225h25q-70 -27 -117 -72q-68 -61 -68 -137q0 -74 68 -109q47 -25 119 -24h8l-4 -29q-23 -2 -45 -2q-86 0 -137.5 46.5t-51.5 101.5z" />
<glyph unicode="&#x173;" horiz-adv-x="1304" d="M147 268q0 31 7 64l120 758h50l-121 -758q-4 -31 -4 -60q0 -88 47 -153q63 -86 193 -86t231.5 28.5t234.5 96.5l148 932h49l-172 -1088h-29v127q-248 -145 -465 -145q-156 0 -231 102q-57 78 -58 182zM702 -223q0 141 203 225h25q-117 -45 -164 -129q-25 -43 -25 -80 t23 -69q45 -63 168 -64h8l-4 -29q-25 -4 -47 -4q-86 0 -136.5 47.5t-50.5 102.5z" />
<glyph unicode="&#x174;" horiz-adv-x="2007" d="M307 1499h49l291 -1448l733 1448h54l-308 -616l199 -834l735 1450h54l-758 -1499h-70l-196 811l-414 -811h-70zM952 1632l314 266h43l200 -266h-34l-193 236l-293 -236h-37z" />
<glyph unicode="&#x175;" horiz-adv-x="1650" d="M193 1087h49l260 -1021l489 845q74 129 80 174h31q2 -8 2 -18q0 -55 -64 -170l-129 -223l158 -613l496 852q74 127 80 177h30q2 -8 2 -19q0 -55 -63 -170l-522 -901h-56l-159 614l-357 -614h-53zM686 1221l313 266h43l201 -266h-35l-192 235l-293 -235h-37z" />
<glyph unicode="&#x176;" horiz-adv-x="1286" d="M307 1499h55l320 -901l651 901h60l-693 -967l-84 -532h-49l84 532zM592 1632l313 266h43l201 -266h-35l-192 236l-293 -236h-37z" />
<glyph unicode="&#x177;" horiz-adv-x="1097" d="M193 1087h49l168 -849q37 -186 194 -187l420 879q47 104 57 172h31q4 -15 4 -33q0 -59 -45 -156l-436 -911q-160 -352 -316 -494q-66 -59 -120 -59v29q41 0 95 53t103 129q94 152 156 287l27 53q-174 16 -218 225zM387 1225l313 266h43l201 -266h-35l-192 235l-293 -235 h-37z" />
<glyph unicode="&#x178;" horiz-adv-x="1286" d="M307 1499h55l320 -901l651 901h60l-693 -967l-84 -532h-49l84 532zM580 1669q8 35 43 35q16 0 24 -10.5t4 -24.5q-6 -37 -41 -37q-14 0 -23 11.5t-7 25.5zM1102 1669q8 35 43 35q16 0 24.5 -10.5t4.5 -24.5q-6 -37 -41 -37q-14 0 -23.5 11.5t-7.5 25.5z" />
<glyph unicode="&#x179;" horiz-adv-x="1038" d="M72 0l8 49l1104 1401h-883l8 49h948l-8 -49l-1104 -1401h883l-8 -49h-948zM791 1632l290 273h54l-316 -273h-28z" />
<glyph unicode="&#x17a;" horiz-adv-x="919" d="M92 2l8 49l867 987h-742l8 49h811l-8 -49l-868 -987h713l-9 -49h-780zM645 1221l291 272h53l-315 -272h-29z" />
<glyph unicode="&#x17b;" horiz-adv-x="1038" d="M72 0l8 49l1104 1401h-883l8 49h948l-8 -49l-1104 -1401h883l-8 -49h-948zM707 1618l20 127q4 24 29 24h22q25 0 21 -24l-21 -127q-4 -25 -28 -25h-23q-25 0 -20 25z" />
<glyph unicode="&#x17c;" horiz-adv-x="919" d="M92 2l8 49l867 987h-742l8 49h811l-8 -49l-868 -987h713l-9 -49h-780zM629 1245l20 127q4 25 29 25h22q25 0 21 -25l-21 -127q-4 -25 -28 -24h-23q-25 0 -20 24z" />
<glyph unicode="&#x17d;" horiz-adv-x="1038" d="M72 0l8 49l1104 1401h-883l8 49h948l-8 -49l-1104 -1401h883l-8 -49h-948zM569 1898h35l193 -235l293 235h36l-313 -266h-43z" />
<glyph unicode="&#x17e;" horiz-adv-x="919" d="M92 2l8 49l867 987h-742l8 49h811l-8 -49l-868 -987h713l-9 -49h-780zM424 1487h35l192 -236l293 236h37l-313 -266h-43z" />
<glyph unicode="&#x192;" horiz-adv-x="1087" d="M-16 -393l10 24h153q111 0 189 99q84 111 121 202q47 125 86 248l215 682h-209l16 51h209l41 123q8 25 28.5 89.5t30 90t29 82t31.5 80.5l35 70q23 45 41 65.5t44.5 50t53.5 42.5q72 33 156 32.5t157 -24.5l-10 -25h-180q-68 0 -121 -38t-99 -131t-67.5 -149.5 t-45.5 -128t-25 -77.5t-4 -14.5t-5 -14.5l-41 -125h295l-16 -49h-295l-215 -682q-86 -279 -150 -387q-123 -209 -301 -211q-127 0 -157 25z" />
<glyph unicode="&#x2c6;" horiz-adv-x="684" d="M135 1087l314 267h43l200 -267h-35l-192 236l-293 -236h-37z" />
<glyph unicode="&#x2da;" horiz-adv-x="718" d="M283 1257q0 111 80.5 179.5t166.5 68.5t131.5 -54t45.5 -120q0 -111 -79 -178.5t-165 -67.5t-133 54.5t-47 117.5zM315 1264q0 -53 40 -100.5t114 -47.5t133 51q74 66 74 158q0 55 -39 102.5t-112.5 47.5t-135.5 -54q-74 -65 -74 -157z" />
<glyph unicode="&#x2dc;" horiz-adv-x="1015" d="M274 1171q154 119 236 119q41 0 124 -74.5t114 -74.5q70 0 198 92q18 14 21 16l10 -14q-53 -45 -80 -66q-84 -61 -156 -61q-45 0 -124.5 74.5t-103.5 74.5t-39 -2t-32.5 -9l-30 -12t-32 -17.5t-29.5 -16.5q-27 -14 -67 -45z" />
<glyph unicode="&#x3a9;" horiz-adv-x="1609" d="M145 0l5 25l391 24q-229 190 -275 402q-22 104 -22 187t16 181q113 694 741 694q532 0 533 -524q0 -98 -18 -213q-33 -197 -159 -396.5t-337 -332.5l385 -22l-4 -25h-467l8 49q229 137 359.5 330.5t164.5 408.5q18 131 18.5 222.5t-26 173.5t-78.5 145q-109 135 -381 135 q-338 0 -499 -202q-145 -176 -195 -478q-12 -80 -12 -182q0 -276 311 -553l-8 -49h-451z" />
<glyph unicode="&#x3c0;" horiz-adv-x="1271" d="M188 1038l9 49h1024l-9 -49h-264l-110 -698q-12 -70 -13 -129q0 -170 158 -170h170l-4 -29q-111 -23 -164 -22q-131 0 -178 78q-31 47 -31 121.5t12 150.5l111 698h-485l-164 -1038h-49l164 1038h-177z" />
<glyph unicode="&#x1e02;" horiz-adv-x="1208" d="M164 0l237 1499h519q215 0 288 -90q51 -66 52 -174q0 -201 -127 -334q-96 -102 -201 -115q86 -20 151.5 -111t65.5 -198q0 -35 -6 -74q-63 -403 -461 -403h-518zM221 51h469q346 0 406 367q4 29 4 57q0 104 -76 194.5t-211 90.5h-10h-469zM342 809h469q143 0 250.5 89 t138.5 239q12 57 12 104q0 94 -49 139q-72 70 -252 70h-469zM807 1657l20 127q4 24 29 24h23q25 0 20 -24l-20 -127q-4 -25 -29 -25h-23q-25 0 -20 25z" />
<glyph unicode="&#x1e03;" d="M123 0l254 1608h45l-92 -586q98 37 221 59.5t201 22.5q303 0 303 -373q0 -334 -152 -567q-53 -82 -137 -129t-186.5 -47t-228.5 46t-163 87l-38 -121h-27zM195 150q205 -113 383 -113q141 0 254.5 125t154.5 377q14 123 14 179t-2 79q-4 100 -47 157.5t-93 79t-120 21.5 q-166 0 -411 -62zM389 1755l21 127q3 25 28 25h23q25 0 20 -25l-20 -127q-4 -25 -29 -24h-22q-25 0 -21 24z" />
<glyph unicode="&#x1e0a;" horiz-adv-x="1347" d="M164 0l237 1499h517q133 0 225 -52t137 -132q76 -131 76 -338q0 -104 -28 -255t-77 -275.5t-123.5 -228t-185.5 -161t-248 -57.5h-530zM221 49h473q133 0 240.5 64.5t175.5 173.5q131 207 172 458q23 135 23 242q0 180 -62 289q-98 174 -336 174h-465zM834 1657l20 127 q4 24 29 24h22q25 0 21 -24l-21 -127q-4 -25 -28 -25h-23q-25 0 -20 25z" />
<glyph unicode="&#x1e0b;" horiz-adv-x="1067" d="M168 387q0 98 14 168q88 549 467 549q76 0 190.5 -22.5t200.5 -59.5l93 586h45l-254 -1608h-27l-2 121q-51 -41 -187.5 -87t-238.5 -46t-172 53t-96 135q-33 113 -33 211zM217 373q0 -137 49 -215q76 -121 221 -121q174 0 412 113l135 843q-225 61 -387 62 q-242 0 -348 -256q-43 -106 -62.5 -229t-19.5 -197zM1139 1716l20 127q2 25 27 25h22q25 0 23 -25l-21 -127q-4 -25 -28 -24h-23q-25 0 -20 24z" />
<glyph unicode="&#x1e1e;" horiz-adv-x="1136" d="M164 0l192 1225q25 162 100.5 218t184.5 56h16l607 -20l-4 -29h-613q-104 0 -162.5 -51t-76.5 -166l-74 -465l735 -10l-6 -29l-735 -10l-115 -719h-49zM856 1657l21 127q3 24 28 24h23q25 0 20 -24l-20 -127q-4 -25 -29 -25h-22q-25 0 -21 25z" />
<glyph unicode="&#x1e1f;" horiz-adv-x="735" d="M188 1038l5 29l182 20l31 203q0 25 16 94.5t24.5 83t21.5 41t30.5 40t41 28.5t54.5 23.5t65.5 9.5t121.5 2t169 -25l-4 -26h-291q-96 0 -138 -67t-62 -204l-31 -203h364l-8 -49h-364l-164 -1038h-49l164 1038h-179zM682 1757l20 127q4 25 29 25h23q25 0 20 -25l-20 -127 q-4 -25 -29 -24h-23q-25 0 -20 24z" />
<glyph unicode="&#x1e40;" horiz-adv-x="1576" d="M145 0l404 1499h69l216 -1415l651 1415h80l-66 -1499h-51l65 1436l-663 -1436h-57l-211 1425l-385 -1425h-52zM1047 1657l20 127q4 24 29 24h22q25 0 21 -24l-21 -127q-4 -25 -28 -25h-23q-25 0 -20 25z" />
<glyph unicode="&#x1e41;" horiz-adv-x="1886" d="M123 0l172 1087h29v-126q248 145 457.5 145t273.5 -168q96 63 245.5 115.5t266.5 52.5q156 0 229 -102q57 -78 57 -181q0 -33 -6 -65l-121 -758h-49l121 758q4 31 4 59q0 88 -47 154q-63 86 -196 86q-205 0 -496 -144q12 -45 12 -85t-4 -70l-121 -758h-49l121 758 q4 31 4 59q0 88 -47 154q-63 86 -193.5 86t-231.5 -29t-235 -96l-147 -932h-49zM1085 1253l19 127q4 25 29 25h22q25 0 21 -25l-19 -127q-4 -25 -29 -24h-22q-25 0 -21 24z" />
<glyph unicode="&#x1e56;" horiz-adv-x="1196" d="M154 0l237 1499h565q168 0 232 -65q74 -80 74 -181q0 -59 -11 -163q-35 -209 -108 -297q-37 -45 -72 -74t-84 -39q-78 -18 -155.5 -18t-296 8t-224.5 12l-108 -682h-49zM315 711h516q135 0 226 67q111 82 143 314q10 90 10 142t-19.5 91t-40 63.5t-56.5 36.5 q-59 23 -146 23h-516zM807 1657l20 127q4 24 29 24h23q25 0 20 -24l-20 -127q-4 -25 -29 -25h-23q-25 0 -20 25z" />
<glyph unicode="&#x1e57;" horiz-adv-x="1079" d="M35 -553l260 1632q131 21 465 21q188 0 260 -150q45 -94 45 -205.5t-18.5 -226.5t-49 -209t-84.5 -172q-104 -158 -331 -157q-80 0 -198 21.5t-204 57.5l-96 -612h-49zM186 92q242 -63 412 -63t264 129t137 391q14 88 14.5 184t-34.5 180q-57 137 -231 138h-410z M686 1247l21 127q3 25 28 25h23q25 0 20 -25l-20 -127q-4 -25 -29 -24h-22q-25 0 -21 24z" />
<glyph unicode="&#x1e60;" horiz-adv-x="1157" d="M162 14l4 31q133 -12 485 -12q252 0 340 141q37 59 49 145l21 140q6 37 6 67q0 82 -41 125q-55 59 -207 60h-229q-225 0 -283 94q-35 59 -35 117.5t11 97.5l22 135q33 207 145.5 281.5t317.5 74.5t438 -38l-4 -27l-452 16h-27q-152 0 -246 -68.5t-123 -246.5l-22 -135 q-6 -39 -6 -72q0 -90 56 -135t212 -45h233q188 0 246 -84q43 -59 43 -152q0 -35 -6 -75l-20 -140q-33 -209 -168 -272q-117 -53 -283 -53q-86 0 -250 9t-227 21zM786 1659l21 127q4 24 29 24h22q25 0 21 -24l-21 -127q-4 -25 -29 -25h-22q-25 0 -21 25z" />
<glyph unicode="&#x1e61;" horiz-adv-x="1032" d="M131 10l4 29h500q162 0 213 84q25 41 35 108l16 101q2 16 2 33q0 57 -40 104t-144 47h-268q-158 0 -205 39t-47 123q0 35 6 78l14 94q20 129 94 188.5t230 59.5q283 0 471 -19l-6 -28h-474q-127 0 -188 -50.5t-78 -162.5l-14 -95q-6 -33 -6 -58.5t5 -43.5t12 -31.5 t23.5 -21.5t30 -12.5t40 -7.5t44.5 -3h318q119 0 176 -59.5t57 -138.5q0 -23 -4 -48l-16 -100q-29 -178 -154 -213q-59 -16 -155 -16q-303 0 -492 20zM631 1245l20 127q4 25 29 25h22q25 0 21 -25l-21 -127q-4 -25 -28 -24h-23q-25 0 -20 24z" />
<glyph unicode="&#x1e6a;" horiz-adv-x="1292" d="M285 1450l8 49h1102l-9 -49h-532l-229 -1450h-50l230 1450h-520zM834 1657l20 127q4 24 29 24h22q25 0 21 -24l-21 -127q-4 -25 -28 -25h-23q-25 0 -20 25z" />
<glyph unicode="&#x1e6b;" horiz-adv-x="704" d="M188 1040l7 33l174 17l63 303h33l-47 -303h358l-8 -50h-358l-105 -655q-12 -74 -12 -126t5 -83t20.5 -56.5t26.5 -37.5t36 -21q33 -12 112.5 -24t94.5 -12l-4 -27h-129q-211 0 -211 246q0 61 12 141l104 655h-172zM449 1540l20 127q4 25 29 25h22q25 0 21 -25l-21 -127 q-4 -25 -28 -24h-23q-25 0 -20 24z" />
<glyph unicode="&#x1e80;" horiz-adv-x="2007" d="M307 1499h49l291 -1448l733 1448h54l-308 -616l199 -834l735 1450h54l-758 -1499h-70l-196 811l-414 -811h-70zM987 1905h53l205 -273h-28z" />
<glyph unicode="&#x1e81;" horiz-adv-x="1650" d="M193 1087h49l260 -1021l489 845q74 129 80 174h31q2 -8 2 -18q0 -55 -64 -170l-129 -223l158 -613l496 852q74 127 80 177h30q2 -8 2 -19q0 -55 -63 -170l-522 -901h-56l-159 614l-357 -614h-53zM762 1493h53l205 -272h-29z" />
<glyph unicode="&#x1e82;" horiz-adv-x="2007" d="M307 1499h49l291 -1448l733 1448h54l-308 -616l199 -834l735 1450h54l-758 -1499h-70l-196 811l-414 -811h-70zM1217 1632l290 273h54l-316 -273h-28z" />
<glyph unicode="&#x1e83;" horiz-adv-x="1650" d="M193 1087h49l260 -1021l489 845q74 129 80 174h31q2 -8 2 -18q0 -55 -64 -170l-129 -223l158 -613l496 852q74 127 80 177h30q2 -8 2 -19q0 -55 -63 -170l-522 -901h-56l-159 614l-357 -614h-53zM922 1210l290 273h54l-316 -273h-28z" />
<glyph unicode="&#x1e84;" horiz-adv-x="2007" d="M307 1499h49l291 -1448l733 1448h54l-308 -616l199 -834l735 1450h54l-758 -1499h-70l-196 811l-414 -811h-70zM940 1669q8 35 43 35q16 0 24.5 -10.5t4.5 -24.5q-6 -37 -41 -37q-14 0 -23.5 11.5t-7.5 25.5zM1462 1669q8 35 43 35q16 0 24.5 -10.5t4.5 -24.5 q-6 -37 -41 -37q-14 0 -23.5 11.5t-7.5 25.5z" />
<glyph unicode="&#x1e85;" horiz-adv-x="1650" d="M193 1087h49l260 -1021l489 845q74 129 80 174h31q2 -8 2 -18q0 -55 -64 -170l-129 -223l158 -613l496 852q74 127 80 177h30q2 -8 2 -19q0 -55 -63 -170l-522 -901h-56l-159 614l-357 -614h-53zM653 1257q6 35 43 35q14 0 22.5 -10t6.5 -25q-8 -37 -41 -36 q-16 0 -25.5 11t-5.5 25zM1176 1257q6 35 43 35q14 0 22 -10t6 -25q-8 -37 -41 -36q-16 0 -25.5 11t-4.5 25z" />
<glyph unicode="&#x1ef2;" horiz-adv-x="1286" d="M307 1499h55l320 -901l651 901h60l-693 -967l-84 -532h-49l84 532zM627 1905h53l205 -273h-29z" />
<glyph unicode="&#x1ef3;" horiz-adv-x="1097" d="M193 1087h49l168 -849q37 -186 194 -187l420 879q47 104 57 172h31q4 -15 4 -33q0 -59 -45 -156l-436 -911q-160 -352 -316 -494q-66 -59 -120 -59v29q41 0 95 53t103 129q94 152 156 287l27 53q-174 16 -218 225zM442 1497h54l204 -272h-28z" />
<glyph unicode="&#x2000;" horiz-adv-x="1026" />
<glyph unicode="&#x2001;" horiz-adv-x="2052" />
<glyph unicode="&#x2002;" horiz-adv-x="1026" />
<glyph unicode="&#x2003;" horiz-adv-x="2052" />
<glyph unicode="&#x2004;" horiz-adv-x="684" />
<glyph unicode="&#x2005;" horiz-adv-x="513" />
<glyph unicode="&#x2006;" horiz-adv-x="342" />
<glyph unicode="&#x2007;" horiz-adv-x="342" />
<glyph unicode="&#x2008;" horiz-adv-x="256" />
<glyph unicode="&#x2009;" horiz-adv-x="410" />
<glyph unicode="&#x200a;" horiz-adv-x="114" />
<glyph unicode="&#x2010;" horiz-adv-x="677" d="M123 569l8 49h582l-8 -49h-582z" />
<glyph unicode="&#x2011;" horiz-adv-x="677" d="M123 569l8 49h582l-8 -49h-582z" />
<glyph unicode="&#x2012;" horiz-adv-x="677" d="M123 569l8 49h582l-8 -49h-582z" />
<glyph unicode="&#x2013;" horiz-adv-x="884" d="M123 563l8 51h969l-8 -51h-969z" />
<glyph unicode="&#x2014;" horiz-adv-x="1517" d="M121 567l8 51h1425l-8 -51h-1425z" />
<glyph unicode="&#x2018;" horiz-adv-x="346" d="M324 1206l34 213q6 45 28 63.5t31 18.5t32 -4l-5 -14h-2q-37 0 -43 -39l-10 -76h14q12 0 19.5 -9t5.5 -24l-20 -129q-4 -33 -35 -32h-25q-29 0 -24 32z" />
<glyph unicode="&#x2019;" horiz-adv-x="346" d="M324 1176l2 14h4q35 0 41 37l12 78h-14q-31 0 -27 30l25 131q4 33 34 33h23q31 0 27 -33l-37 -215q-6 -45 -27.5 -62.5t-31 -17.5t-31.5 5z" />
<glyph unicode="&#x201a;" horiz-adv-x="346" d="M119 -131l2 14h4q35 0 41 39l12 78h-14q-31 0 -27 31l21 129q6 35 37 35h22q31 0 25 -35l-33 -213q-8 -45 -28.5 -63.5t-31 -18.5t-30.5 4z" />
<glyph unicode="&#x201c;" horiz-adv-x="522" d="M313 1206l33 213q8 45 28.5 63.5t30 18.5t29.5 -4l-2 -14h-4q-33 0 -39 -39l-12 -76h12q14 0 22.5 -9t6.5 -24l-21 -129q-6 -33 -39 -32h-22q-29 0 -23 32zM510 1206l33 213q8 45 28.5 63.5t30.5 18.5t31 -4l-2 -14h-4q-35 0 -41 -39l-13 -76h15q12 0 20 -9t6 -24 l-20 -129q-6 -33 -37 -32h-22q-31 0 -25 32z" />
<glyph unicode="&#x201d;" horiz-adv-x="520" d="M313 1176l2 14q37 -2 43 37l13 78h-13q-31 0 -24 30l20 131q4 33 35 33h23q31 0 26 -33l-35 -215q-6 -45 -27.5 -62.5t-30.5 -17.5t-32 5zM510 1176l2 14h4q35 0 41 37l12 78h-14q-31 0 -25 30l21 131q4 33 35 33h24q29 0 25 -33l-35 -215q-6 -45 -27.5 -62.5t-31 -17.5 t-31.5 5z" />
<glyph unicode="&#x201e;" horiz-adv-x="520" d="M109 -127l2 14h2q35 0 41 39l12 78h-12q-31 0 -27 31l20 129q6 35 37 35h23q31 0 24 -35l-32 -213q-8 -45 -28.5 -63.5t-31 -18.5t-30.5 4zM305 -127l2 14h4q35 0 41 39l13 78h-15q-31 0 -26 31l20 129q6 35 37 35h25q25 0 24 -25q0 -4 -2 -10l-33 -213 q-8 -45 -28.5 -63.5t-30.5 -18.5t-31 4z" />
<glyph unicode="&#x2020;" horiz-adv-x="1060" d="M231 1049l5 28l329 8l88 492h29l-68 -492l326 -8l-4 -28l-330 -11l-198 -1185h-29l178 1185z" />
<glyph unicode="&#x2021;" horiz-adv-x="907" d="M199 397l4 29l334 8l92 604l-328 11l6 28l328 8l88 492h29l-68 -492l328 -8l-6 -28l-328 -11l-103 -604l332 -8l-4 -29l-336 -10l-90 -534h-28l79 534z" />
<glyph unicode="&#x2022;" horiz-adv-x="690" d="M283 733q0 8 2 17l8 61q10 72 80 72h49q61 0 61 -56q0 -8 -2 -16l-8 -61q-10 -66 -84 -66h-49q-57 0 -57 49z" />
<glyph unicode="&#x2026;" horiz-adv-x="1503" d="M301 25l23 127q3 24 28 24h23q25 0 20 -24l-22 -127q-4 -25 -27 -25h-24q-25 0 -21 25zM858 25l23 127q3 24 28 24h25q23 0 18 -24l-22 -127q-4 -25 -27 -25h-22q-27 0 -23 25zM1411 25l23 127q3 24 28 24h25q23 0 18 -24l-22 -127q-4 -25 -27 -25h-22q-27 0 -23 25z" />
<glyph unicode="&#x202f;" horiz-adv-x="410" />
<glyph unicode="&#x2030;" horiz-adv-x="2754" d="M164 874.5q0 57.5 6 96.5l43 272q20 135 86.5 195.5t216.5 60.5h207q145 0 195 -61q33 -41 32.5 -97.5t-6.5 -97.5l-43 -272q-20 -137 -84.5 -196.5t-214.5 -59.5h-207q-147 0 -196 59q-35 43 -35 100.5zM195 879q0 -133 200 -134h207q125 0 186.5 47.5t81.5 178.5 l43 272q6 39 6.5 89t-28.5 85q-41 51 -170 51h-207q-127 0 -188.5 -47t-81.5 -178l-43 -272q-6 -41 -6 -92zM395 0l1135 1499h43l-1135 -1499h-43zM1044 166q0 57 7 96l43 273q20 137 84.5 196.5t214.5 59.5h206q147 0 197 -62q35 -41 35 -98.5t-6 -95.5l-43 -273 q-20 -137 -86 -196.5t-215 -59.5h-207q-145 0 -195 60q-35 43 -35 100zM1075 170q0 -133 199 -133h207q125 0 187.5 47t82.5 178l43 273q6 37 6 88q0 137 -201 137h-206q-127 0 -187.5 -47t-81.5 -178l-43 -273q-6 -41 -6 -92zM1915 159.5q0 57.5 6 96.5l43 272 q20 137 85.5 196.5t215.5 59.5h207q145 0 194 -59q35 -43 35 -100.5t-6 -96.5l-43 -272q-20 -137 -85.5 -196.5t-215.5 -59.5h-207q-145 0 -194 61q-35 41 -35 98.5zM1946 164q0 -133 198 -133h207q125 0 187.5 47t82.5 178l43 272q6 37 7 88q0 137 -201 138h-207 q-127 0 -187.5 -47.5t-80.5 -178.5l-43 -272q-6 -41 -6 -92z" />
<glyph unicode="&#x2039;" horiz-adv-x="567" d="M78 725l487 416l31 -33l-455 -387l336 -389l-35 -33z" />
<glyph unicode="&#x203a;" horiz-adv-x="768" d="M217 334l465 395l-326 383l33 29l356 -416l-499 -426z" />
<glyph unicode="&#x2044;" horiz-adv-x="1544" d="M184 0l1041 1577h41l-1041 -1577h-41z" />
<glyph unicode="&#x205f;" horiz-adv-x="513" />
<glyph unicode="&#x20ac;" horiz-adv-x="1490" d="M143 557l4 29l183 6l45 289l-178 6l4 26l180 9q35 223 102 342q143 252 471 252q219 0 435 -41l-5 -29q-287 20 -414.5 20t-213.5 -31.5t-140.5 -79.5t-93.5 -122q-63 -123 -92 -311l582 -7l-4 -28l-584 -6l-45 -289l579 -8l-4 -29h-313q-276 0 -270 -6q-12 -72 -13 -133 q0 -141 64 -236q94 -139 299 -143h76q154 0 313 16l64 8l-7 -30q-190 -43 -442 -43q-150 0 -250 65q-102 72 -133 170q-33 104 -33 181t13 145z" />
<glyph unicode="&#x2122;" horiz-adv-x="1288" d="M96 1470l4 29h531l-4 -29h-250l-109 -686h-28l108 686h-252zM598 784l168 715h20l193 -670l379 670h24l-49 -715h-24l43 650l-367 -650h-20l-189 652l-151 -652h-27z" />
<glyph unicode="&#x2202;" horiz-adv-x="1386" d="M182.5 363.5q-0.5 54.5 7.5 101.5q37 229 177.5 332.5t406.5 103.5t416 -113q20 129 20 263.5t-51 240.5q-82 174 -350 174q-193 0 -397 -114l-9 24q129 78 214 109t206 31q438 0 439 -484q0 -109 -25 -257t-71 -282.5t-118.5 -252t-186 -184t-232.5 -66.5t-201 30 q-180 66 -229 234q-16 55 -16.5 109.5zM231 377q0 -145 88 -230q111 -109 297 -108q113 0 208.5 56.5t154.5 136t106 186.5q68 158 99 342q-53 33 -177 62.5t-233 29.5q-231 0 -366.5 -88t-167.5 -297q-9 -47 -9 -90z" />
<glyph unicode="&#x2206;" horiz-adv-x="1527" d="M41 0l930 1499h41l430 -1499h-1401zM131 49h1243l-391 1374z" />
<glyph unicode="&#x220f;" horiz-adv-x="1185" d="M217 0l229 1450h-176l9 49h1093l-8 -49h-178l-230 -1450h-49l230 1450h-641l-230 -1450h-49z" />
<glyph unicode="&#x2211;" horiz-adv-x="1017" d="M16 -410l9 56l579 905l-293 899l8 49h996l-8 -49h-938l299 -905l-576 -899h928l-8 -56h-996z" />
<glyph unicode="&#x221a;" d="M131 684l8 49h211l185 -649l800 1554h49l-841 -1638h-37l-191 684h-184z" />
<glyph unicode="&#x221e;" horiz-adv-x="1415" d="M111 600q0 43 9 108.5t18 104.5t34 91t57 79q84 70 238 70q113 0 212 -96.5t152 -211.5q84 106 215.5 207t225.5 101t148.5 -24.5t78.5 -57.5q41 -53 41 -162q0 -39 -12 -121t-31.5 -136t-56.5 -106q-74 -102 -260 -102q-125 0 -221.5 99.5t-143.5 215.5 q-86 -129 -201.5 -221t-240.5 -92t-189.5 51.5t-70.5 130.5q-2 29 -2 72zM162 580.5q0 -64.5 28 -111.5q45 -74 183 -74q197 0 426 307q-158 301 -332 302q-145 0 -207.5 -66t-89.5 -236q-8 -57 -8 -121.5zM848 702q53 -129 140.5 -218t191.5 -89q147 0 210.5 77t86.5 226 q10 61 10 123t-25 109q-37 74 -186 74q-84 0 -212 -95.5t-216 -206.5z" />
<glyph unicode="&#x222b;" horiz-adv-x="786" d="M-16 -397l4 28h196q133 0 189 136q45 117 84 380q2 23 4 33l135 856q49 309 82 404q80 195 240 198q131 0 206 -20l-4 -29h-200q-98 0 -144 -69q-27 -43 -43 -73t-33 -106q-27 -109 -36 -190q-14 -94 -19 -115l-135 -856q-47 -299 -70 -375q-68 -223 -249 -223t-207 21z " />
<glyph unicode="&#x2248;" horiz-adv-x="968" d="M182 514q154 119 236 119q41 0 124 -75t113 -75q70 0 199 95q18 12 20 14l11 -14q-53 -45 -82 -66q-82 -61 -154 -61q-45 0 -125 74.5t-103.5 74.5t-38.5 -2t-32.5 -9t-30 -12.5t-32 -17.5t-29.5 -18q-27 -12 -68 -43zM240 874q154 119 235 119q41 0 123 -74.5t113 -74.5 q76 0 221 108l10 -14q-53 -45 -82 -66q-82 -61 -153 -61q-45 0 -125 75t-103.5 75t-39 -2.5t-33 -9.5t-29.5 -12t-31.5 -17.5t-30.5 -18.5q-27 -12 -67 -43z" />
<glyph unicode="&#x2260;" horiz-adv-x="1140" d="M256 434l8 49h275l368 482h-567l8 49h596l119 153h37l-119 -153h242l-9 -49h-270l-369 -482h564l-9 -49h-593l-136 -176h-36l135 176h-244z" />
<glyph unicode="&#x2264;" horiz-adv-x="1161" d="M205 262l8 49h774l-8 -49h-774zM301 870l6 41l770 394l-10 -58l-702 -358l585 -385l-8 -51z" />
<glyph unicode="&#x2265;" horiz-adv-x="925" d="M135 262l8 49h775l-9 -49h-774zM233 453l9 57l706 385l-590 356l11 54l643 -394l-6 -41z" />
<glyph unicode="&#x25fc;" horiz-adv-x="1085" d="M0 0v1085h1085v-1085h-1085z" />
</font>
</defs>
</svg>
