<?xml version="1.0" standalone="no"?>
<!DOCTYPE svg PUBLIC "-//W3C//DTD SVG 1.1//EN" "http://www.w3.org/Graphics/SVG/1.1/DTD/svg11.dtd" >
<svg xmlns="http://www.w3.org/2000/svg">
<metadata></metadata>
<defs>
<font id="exodemibolditalic" horiz-adv-x="1339" >
<font-face units-per-em="2048" ascent="1638" descent="-410" />
<missing-glyph horiz-adv-x="512" />
<glyph horiz-adv-x="0" />
<glyph unicode="&#xd;" horiz-adv-x="2048" />
<glyph unicode=" "  horiz-adv-x="512" />
<glyph unicode="&#x09;" horiz-adv-x="512" />
<glyph unicode="&#xa0;" horiz-adv-x="512" />
<glyph unicode="!" horiz-adv-x="550" d="M154 47l26 160q7 51 58 51h155q45 0 39 -51l-26 -160q-6 -47 -54 -47h-155q-20 0 -32.5 13.5t-10.5 33.5zM229 408l152 1089h250l-197 -1089h-205z" />
<glyph unicode="&#x22;" horiz-adv-x="862" d="M342 1087l20 275l23 137h231l-22 -137l-64 -275h-188zM678 1087l20 275l23 137h231l-22 -137l-64 -275h-188z" />
<glyph unicode="#" horiz-adv-x="1449" d="M104 446l52 164h315l90 281h-317l53 164h321l146 444h164l-146 -444h283l145 444h164l-145 -444h356l-53 -164h-356l-91 -283h357l-49 -164h-365l-145 -444h-164l145 444l-284 2l-146 -446h-164l146 446h-312zM635 610l287 -2l90 283h-287z" />
<glyph unicode="$" horiz-adv-x="1169" d="M147 41l31 178q16 0 109.5 -4t189.5 -7t150.5 -3t77 2t48 8t48 18.5t43.5 28.5q41 33 51 94l16 103q12 78 1 109.5t-41.5 42t-84.5 10.5h-215q-156 0 -229 71q-74 72 -86 162q-8 47 -8 87t6 79l20 131q37 240 213 315q96 41 242 45l29 177h155l-28 -181q182 -12 366 -51 l-30 -186q-432 20 -506 20t-131.5 -34.5t-75.5 -137.5l-14 -96q-4 -29 -4.5 -45t2 -36.5t18.5 -41.5q33 -41 139 -41h219q168 0 234 -92q59 -84 59 -182q0 -31 -10 -125l-18 -115q-57 -360 -461 -360h-29l-27 -168h-155l28 174q-199 14 -342 51z" />
<glyph unicode="%" horiz-adv-x="1972" d="M219 928q0 29 6 61l41 258q20 135 87 193.5t227 58.5h206q137 0 191 -67q41 -47 41 -134q0 -33 -6 -71l-41 -258q-16 -94 -47 -148q-66 -106 -265 -106h-206q-129 0 -189 71q-45 55 -45 142zM401.5 954.5q-0.5 -24.5 15 -44t79.5 -19.5h172q70 0 95 22.5t36 85.5l32 215 q6 27 6.5 42.5t-3.5 33.5q-10 33 -95 33h-170q-70 0 -95 -22.5t-36 -86.5l-32 -215q-4 -20 -4.5 -44.5zM436 0l1147 1499h182l-1140 -1499h-189zM1194 211q0 29 4 61l41 258q20 135 87 195.5t226 60.5h207q231 0 232 -202q0 -33 -6 -72l-39 -258q-23 -139 -90.5 -195.5 t-225.5 -56.5h-207q-127 0 -186 70q-43 53 -43 139zM1374 239.5q0 -22.5 12 -36.5q20 -25 84 -25h170q70 0 95.5 22.5t36.5 86.5l32 215q4 27 4 51.5t-13 40.5t-83 16h-170q-70 0 -95.5 -22.5t-35.5 -85.5l-33 -215q-4 -25 -4 -47.5z" />
<glyph unicode="&#x26;" horiz-adv-x="1341" d="M117 379q0 207 217 371l188 143l-88 154q-47 86 -47 161q0 25 6 49q20 96 93 160t163 74q121 10 191.5 10t146.5 -6t227 -41l-26 -168h-367q-190 0 -190 -92q0 -49 45 -125l313 -547l277 242l71 -88l-143 -246l-96 -92l196 -338h-256l-120 205l-152 -129 q-106 -88 -252 -88q-78 0 -156 30q-113 43 -177 148.5t-64 212.5zM340 395q0 -51 35 -102q59 -86 157 -86q70 0 136 53l143 125l-193 322l-147 -113q-131 -98 -131 -199z" />
<glyph unicode="'" horiz-adv-x="430" d="M291 1087l20 275l23 137h239l-22 -137l-64 -275h-196z" />
<glyph unicode="(" horiz-adv-x="739" d="M209 315q0 356 123 697q63 180 133 301q143 254 242 360l41 45h239q-55 -68 -139 -195.5t-147.5 -249.5t-130 -299t-94 -329.5t-30 -233.5t-2.5 -143.5t12.5 -157t33 -190.5t47.5 -166q55 -145 88 -200l14 -27h-229q-92 135 -154 387q-47 193 -47 401z" />
<glyph unicode=")" horiz-adv-x="743" d="M-33 -473q55 63 138 190t146.5 248t130.5 301t96.5 350t29.5 254q0 248 -33 398q-59 258 -133 397l-29 53h232q90 -141 151 -395q47 -197 47 -408q0 -342 -120 -690q-61 -180 -129 -303q-139 -250 -232 -352l-41 -43h-254z" />
<glyph unicode="*" horiz-adv-x="882" d="M268 1159l17 103l293 53l-17 -166zM346 850l92 278l156 -38l-158 -271zM555 963l113 139l198 -184l-71 -84zM580 1473l104 36l104 -247l-163 -66zM684 1169l270 160l39 -88l-225 -199z" />
<glyph unicode="+" horiz-adv-x="1013" d="M178 625l35 209h319l52 321h209l-52 -321h324l-35 -209h-323l-52 -322h-209l52 322h-320z" />
<glyph unicode="," horiz-adv-x="538" d="M129 -180l14 86q29 0 45.5 11t20.5 20.5t6 25.5l6 37h-22q-23 0 -35 13.5t-8 37.5l24 154q8 55 60 55h147q41 0 41 -41v-14l-37 -228q-10 -59 -41 -98q-51 -68 -166 -67q-18 0 -30 4z" />
<glyph unicode="-" horiz-adv-x="724" d="M123 489l35 209h643l-35 -209h-643z" />
<glyph unicode="." horiz-adv-x="542" d="M154 47l26 160q7 51 58 51h151q43 0 43 -37v-14l-26 -160q-8 -47 -58 -47h-151q-23 0 -34 13.5t-9 33.5z" />
<glyph unicode="/" horiz-adv-x="892" d="M10 -147l848 1724h248l-848 -1724h-248z" />
<glyph unicode="0" horiz-adv-x="1296" d="M168 276q0 35 8 76l125 787q58 360 410 360h336q96 0 164.5 -30.5t101.5 -79.5q55 -82 55 -177q0 -33 -8 -65l-125 -795q-31 -180 -128 -266t-271 -86h-336q-170 0 -260 88q-72 68 -72 188zM414 335.5q0 -20.5 3 -36.5t10 -28.5t14.5 -20.5t19.5 -13.5t21.5 -7.5t25.5 -4 q20 -2 38 -2h17h248q164 0 190 158l117 737q4 25 4 59.5t-25.5 66.5t-111.5 32h-260q-166 0 -190 -158l-117 -735q-4 -27 -4 -47.5z" />
<glyph unicode="1" horiz-adv-x="751" d="M254 1169l25 158q86 0 191 63.5t146 108.5h234l-236 -1499h-237l198 1241q-45 -33 -135 -52.5t-186 -19.5z" />
<glyph unicode="2" horiz-adv-x="1206" d="M84 0l35 211q387 238 661 481q104 94 184.5 196.5t92.5 180.5q4 31 4 64q0 162 -223 161h-564l29 179q317 47 625 47q139 0 229 -68t115.5 -155t25.5 -145t-6 -114.5t-45 -136.5t-86 -145.5t-123.5 -141t-133 -125t-140.5 -112.5q-98 -76 -211 -154h602l-35 -223h-1036z " />
<glyph unicode="3" horiz-adv-x="1202" d="M70 43l28 168h553q215 0 240 158l14 86q12 84 -8 118q-16 29 -33.5 36t-29 11.5t-31.5 6.5q-29 4 -72 6l-438 16l31 191l442 18q106 4 149 34t60.5 59.5t23.5 72.5l15 98q4 20 4 42t-8.5 47.5t-38.5 41.5q-49 27 -137 27h-580l25 166q176 59 452 59q102 0 217 -2 q156 -4 244 -106q70 -80 70 -193q0 -33 -7 -67l-18 -121q-39 -236 -195 -271q109 -47 109 -221q0 -45 -6 -94l-19 -100q-53 -344 -432 -344h-119h-39t-68 1t-75.5 2t-66.5 4t-72 7t-61 10q-59 10 -123 33z" />
<glyph unicode="4" horiz-adv-x="1257" d="M106 459l742 1040h274l-651 -921h438l60 372l96 156h170l-84 -528h162l-29 -185l-170 -45l-53 -344h-242l53 344h-714z" />
<glyph unicode="5" horiz-adv-x="1226" d="M137 39l31 184h594q90 0 133 49.5t51 112.5l27 164q4 27 4 49q0 121 -129 121h-234q-84 0 -129 -57q-27 -31 -32 -76h-226l189 913h895l-35 -223h-666l-82 -395q72 59 258 59q31 0 84.5 -2t63.5 -4q150 -4 225 -111q59 -80 60 -192q0 -35 -7 -72l-32 -227 q-31 -188 -154 -275q-92 -66 -266 -67h-121q-223 0 -502 49z" />
<glyph unicode="6" horiz-adv-x="1255" d="M205 455q0 150 30.5 345t83 337.5t118 218.5t130 111.5t136 39.5t143.5 4q242 0 489 -43l-26 -180h-543q-63 0 -114.5 -43t-84.5 -115q-55 -124 -82 -276q231 45 471 45q160 0 228 -78q66 -76 65 -168q0 -37 -8 -104l-37 -246q-27 -170 -129 -236.5t-272 -66.5h-295 q-70 0 -122 20.5t-95 75.5q-86 109 -86 359zM436.5 474q-0.5 -73 8 -111.5t24.5 -73.5q33 -70 123 -70h213q152 0 174 143l27 181q6 29 6 60.5t-21.5 55t-105.5 23.5h-428q-20 -135 -20.5 -208z" />
<glyph unicode="7" horiz-adv-x="1128" d="M254 1276l35 223h956l49 -119l-733 -1380h-266l688 1276h-729z" />
<glyph unicode="8" horiz-adv-x="1282" d="M174 274q0 29 8 74l25 168q23 131 119 186q43 25 98 33q-139 55 -139 232q0 35 6 69l20 133q33 203 150 277q104 63 280 63h308q221 0 280 -168q16 -51 16.5 -103t-6.5 -97l-20 -119q-4 -51 -35 -104q-59 -102 -162 -121q123 -35 123 -236q0 -29 -6 -53l-29 -184 q-39 -244 -202 -297q-78 -27 -201 -27h-305q-207 0 -281 106q-47 68 -47 168zM418 310.5q0 -21.5 10 -46.5q20 -49 141 -47h232q92 0 139 55q27 31 33 80l28 168q2 16 2.5 47t-29.5 63t-97 32h-250q-156 0 -178 -142l-27 -168q-4 -20 -4 -41.5zM522 977q0 -51 36 -80t99 -29 h250q88 0 124 39t46 105l19 112q6 35 6 74t-24.5 67.5t-106.5 28.5h-232q-98 0 -139 -37.5t-57 -132.5l-17 -112q-4 -19 -4 -35z" />
<glyph unicode="9" horiz-adv-x="1253" d="M158 39l28 180h543q51 0 95 30t73 75t53 106q37 98 60 221q-231 -43 -473 -43q-160 0 -226 80q-63 80 -63 170q0 37 6 107l35 231q29 172 130 241.5t271 69.5h295q305 0 305 -465q0 -262 -69 -534q-76 -297 -228 -428q-86 -74 -184 -80t-178 -6q-250 0 -473 45z M483 914.5q0 -21.5 6 -44.5q16 -45 121 -45h428q18 129 18.5 197t-7 129t-45 99t-101.5 38h-215q-150 0 -172 -143l-27 -180q-6 -29 -6 -50.5z" />
<glyph unicode=":" horiz-adv-x="544" d="M154 47l26 160q7 51 58 51h151q43 0 43 -37v-14l-26 -160q-8 -47 -58 -47h-151q-23 0 -34 13.5t-9 33.5zM287 879l24 159q7 52 58 52h151q43 0 43 -37v-15l-24 -159q-8 -47 -60 -48h-151q-23 0 -34 12.5t-7 35.5z" />
<glyph unicode=";" horiz-adv-x="544" d="M129 -180l14 86q29 0 45.5 11t20.5 20.5t6 25.5l6 37h-22q-20 0 -33.5 15.5t-9.5 35.5l24 154q2 25 19.5 40t40.5 15h147q41 0 41 -41v-14l-37 -228q-10 -59 -41 -98q-51 -68 -166 -67q-18 0 -30 4zM289 879l24 159q9 52 58 52h151q45 0 45 -37q0 -6 -2 -15l-24 -159 q-8 -47 -58 -48h-151q-23 0 -34 13.5t-9 34.5z" />
<glyph unicode="&#x3c;" horiz-adv-x="937" d="M182 608l37 230l815 309l-35 -229l-550 -203l485 -213l-37 -223z" />
<glyph unicode="=" horiz-adv-x="956" d="M102 397l35 209h875l-35 -209h-875zM170 834l35 208h874l-35 -208h-874z" />
<glyph unicode="&#x3e;" horiz-adv-x="940" d="M131 279l37 231l557 221l-494 199l37 217l717 -309l-35 -230z" />
<glyph unicode="?" horiz-adv-x="1107" d="M238 1294l28 172q301 49 492 50q47 0 94 -3q137 0 229 -59q143 -94 144 -270q0 -35 -6 -70l-27 -186q-33 -213 -166 -289q-98 -53 -252 -53q-56 0 -117 6l-28 -193h-205l59 375q84 -2 148.5 -2t113 2t91.5 19.5t76.5 57.5t43.5 101l23 146q4 27 4 49q0 70 -43 108.5 t-176 38.5h-526zM346 47l25 160q8 51 57 51h152q45 0 45 -37q0 -6 -2 -14l-25 -160q-8 -47 -57 -47h-152q-23 0 -35 13.5t-8 33.5z" />
<glyph unicode="@" horiz-adv-x="1814" d="M106 -37q0 43 9 90l159 1014q31 197 149 295t337 98h753q324 0 324 -325q0 -51 -10 -111l-103 -688q-27 -176 -122 -256q-90 -74 -254 -74h-160l-49 117q-109 -131 -289 -131q-328 0 -328 391q0 88 17 192q82 541 460 541q328 0 465 -133l-112 -774q82 0 120.5 33.5 t55.5 150.5l96 645q20 129 -14 174q-23 31 -49 37q-37 8 -88 8h-754q-137 0 -191 -79q-41 -63 -53 -140l-158 -997q-6 -33 -6 -77t25 -85q37 -59 158 -59h790l-24 -146q-276 -55 -598 -55h-195q-139 0 -227 62q-133 94 -134 282zM725 383q0 -68 14 -111q29 -80 138 -79 q88 0 153.5 29.5t130.5 101.5l88 567q-102 25 -195 24.5t-124 -9.5t-61.5 -34.5t-55.5 -66.5t-45 -109.5t-31.5 -156.5t-11.5 -156z" />
<glyph unicode="A" horiz-adv-x="1386" d="M78 0l760 1499h262l264 -1499h-242l-67 362h-531l-184 -362h-262zM627 580h399l-100 606z" />
<glyph unicode="B" horiz-adv-x="1224" d="M139 0l238 1499h596q180 0 264 -88q90 -94 90 -237q0 -43 -4 -89q-16 -129 -85 -207.5t-167 -99.5q76 -12 129 -114q39 -74 39 -177q0 -39 -4 -79q-29 -217 -144.5 -312.5t-351.5 -95.5h-600zM412 217h356q192 0 229 225q4 31 4 77t-24 93q-39 70 -137 70h-355zM518 891 h348q93 0 148 49q76 70 76 225q0 45 -36 82t-122 37h-350z" />
<glyph unicode="C" horiz-adv-x="1173" d="M195 524q0 115 26.5 278t68.5 293t113 228q140 193 437 193q252 0 506 -68l-31 -188q-235 32 -423 32h-11h-22.5h-26t-34 -1t-47 -6t-49 -14t-47 -27.5t-48 -45.5t-44 -67.5t-41.5 -94.5q-43 -125 -66.5 -267t-23.5 -243.5t27 -171.5q49 -135 213 -143h131t354 16 l-29 -186q-176 -53 -483 -53q-152 0 -233 45q-217 115 -217 491z" />
<glyph unicode="D" horiz-adv-x="1351" d="M139 0l238 1497q0 2 590 2q215 0 315 -131q96 -127 111 -301q4 -57 4 -100q0 -123 -21 -246q-59 -369 -209.5 -545t-425.5 -176h-602zM412 219h338q158 0 255 143.5t134 382.5q22 126 22 231v9q0 297 -250 297h-331z" />
<glyph unicode="E" horiz-adv-x="1150" d="M172 225q0 29 4 62l148 925q44 287 329 287q8 0 290 -10t364 -23l-31 -194h-598q-74 0 -98 -37q-20 -31 -27 -78l-47 -295l612 -20l-31 -195l-618 -18l-47 -301q-3 -18 -3 -32q0 -50 32 -63q31 -12 81 -12h580l-33 -192q-68 -8 -487 -29l-139 -6h-39t-74 12 q-168 43 -168 219z" />
<glyph unicode="F" horiz-adv-x="1155" d="M135 0l189 1198q27 164 117.5 232.5t215.5 68.5q8 0 289 -10t363 -23l-29 -194h-600q-68 0 -92.5 -31t-32.5 -84l-45 -297l612 -20l-30 -195l-621 -20l-98 -625h-238z" />
<glyph unicode="G" horiz-adv-x="1253" d="M223.5 787.5q26.5 148.5 57 256t79 201.5t111.5 150q136 118 367 118h4h10q231 0 510 -65l-29 -184q-72 10 -223 22q-164 12 -238.5 12t-109.5 -6t-85 -36.5t-85 -86.5q-86 -135 -127 -419q-23 -138 -23 -242q0 -295 224 -295h2q66 0 144.5 26.5t123.5 53.5l47 26l53 310 h-260l25 153q145 49 366 49q63 0 138 -4l-131 -827h-175l-47 111q-53 -51 -145 -86q-100 -37 -213 -37t-193 45q-204 114 -204 481q0 125 26.5 273.5z" />
<glyph unicode="H" horiz-adv-x="1323" d="M145 0l238 1499h238l-107 -663h588l106 663h238l-238 -1499h-237l98 614h-588l-98 -614h-238z" />
<glyph unicode="I" horiz-adv-x="499" d="M152 0l237 1499h238l-238 -1499h-237z" />
<glyph unicode="J" horiz-adv-x="731" d="M68 45l34 182q105 -14 154 -14q22 0 33 3q35 9 64.5 21.5t47.5 36.5q41 55 56 144l172 1081h237l-184 -1161q-35 -231 -156 -301q-84 -47 -232 -47t-226 55z" />
<glyph unicode="K" horiz-adv-x="1232" d="M139 0l238 1499h229l-102 -643h137l506 643h291l-590 -768l352 -731h-274l-297 639h-158l-100 -639h-232z" />
<glyph unicode="L" horiz-adv-x="1087" d="M176 215q0 31 4 64l197 1220h235l-186 -1169q-2 -15 -2 -28q0 -53 33 -66q29 -13 82 -13h555l-35 -223h-623q-129 0 -194.5 59.5t-65.5 155.5z" />
<glyph unicode="M" horiz-adv-x="1675" d="M117 0l358 1499h320l135 -1106l473 1106h332l-107 -1499h-235l84 1083l-471 -1083h-263l-133 1081l-254 -1081h-239z" />
<glyph unicode="N" horiz-adv-x="1361" d="M139 0l238 1499h235l480 -1063l168 1063h237l-237 -1499h-234l-481 1055l-166 -1055h-240z" />
<glyph unicode="O" horiz-adv-x="1363" d="M197 433q0 54 1 117.5t21.5 192.5t44 224.5t49 168t61.5 129t68.5 95.5t78.5 66.5t87 44t97.5 24.5t103.5 11t122 3t137 -7t124.5 -28.5t103.5 -58.5q98 -84 125 -237q13 -70 13 -126v-22q0 -46 -2 -98q-2 -66 -24 -208t-52.5 -250.5t-66.5 -185.5t-86 -131.5t-99 -86 t-117 -50.5q-111 -29 -231 -29q-2 1 -4 1q-122 0 -184 6t-125.5 26.5t-104.5 53.5q-100 80 -129 229q-12 72 -12 126zM434 453q0 -133 64 -185q41 -31 94 -42t146 -11t159 19.5t121 76.5q102 102 153 428q25 160 25 235t-3 117t-22.5 81.5t-40 62t-61.5 33.5q-61 18 -138 18 t-105.5 -1t-66.5 -7t-61.5 -16.5t-52.5 -30t-47 -47.5q-53 -80 -78 -164q-86 -291 -86 -567z" />
<glyph unicode="P" horiz-adv-x="1220" d="M131 0l238 1499h626q150 0 248 -96q86 -82 86 -260q0 -143 -37 -254t-67.5 -158t-67.5 -81t-76 -48q-84 -29 -141 -29l-63 2h-50t-194 15.5t-166 21.5l-98 -612h-238zM494 791h374q82 0 135 53t76 200q8 41 8 66t-4 54.5t-14 55t-33 37.5q-37 25 -90 25h-375z" />
<glyph unicode="Q" horiz-adv-x="1370" d="M201 436.5q0 55.5 1 117.5t21.5 192.5t44 225.5t50 166.5t61.5 128t68.5 95.5t79.5 66.5t86 43t97.5 24.5t104.5 11t121 2t137.5 -8t125 -29.5t104.5 -58.5q96 -84 122 -237q12 -72 13 -128v-38q0 -39 -1 -82q-1 -66 -22.5 -208t-53.5 -251t-68 -184.5t-86 -130t-98 -85 t-118 -49.5q-109 -29 -230 -29q-2 0 -5 1q-123 0 -183.5 6t-124 26.5t-106.5 55.5q-100 80 -127 229q-14 72 -14 127.5zM438 453q0 -133 66 -185q39 -31 92 -42t147.5 -11t159 19.5t119.5 76.5q102 102 154 428q27 161 27 246q0 86 -10 128q-9 40 -19.5 68.5t-33 48t-43 31 t-55.5 17.5q-53 8 -120.5 8t-100.5 -2t-73.5 -9t-65.5 -22.5t-55.5 -42t-51.5 -67.5q-50 -105 -79 -230q-57 -258 -58 -460zM610 -112q0 34 2 44h142q53 -77 172 -77q68 0 157 26l-32 -207q-61 -16 -123 -16t-121 16q-129 37 -174 133q-23 47 -23 81z" />
<glyph unicode="R" horiz-adv-x="1241" d="M131 0l238 1499h635q168 0 256 -115q66 -86 65 -243q0 -176 -43 -282.5t-74.5 -147.5t-79 -68t-71 -33t-53.5 -10l213 -600h-267l-184 584l-301 22l-96 -606h-238zM498 795h370q213 0 213 327q0 78 -18 111q-31 49 -111 49h-379z" />
<glyph unicode="S" horiz-adv-x="1179" d="M152 41l28 186q166 -20 506 -20q215 0 238 149l16 103q4 31 4 63.5t-14 57.5q-23 41 -113 41h-235q-170 0 -244 70.5t-84 154.5q-6 43 -6 79t6 79l22 149q43 291 285 344q72 14 122 14h58h4q129 0 286 -16t249 -39l-29 -186q-428 18 -469 18h-53q-96 0 -148.5 -29.5 t-68.5 -140.5l-14 -96q-6 -41 -6 -66q0 -16 2 -24q6 -24 11 -34.5t19.5 -19t23.5 -12.5t32 -6q29 -2 71 -2h240q158 0 225 -86q68 -86 68 -186q0 -47 -6 -109l-17 -137q-10 -96 -48 -166t-84 -105.5t-114 -56.5q-95 -28 -226 -28h-9q-338 0 -528 57z" />
<glyph unicode="T" horiz-adv-x="1198" d="M262 1276l37 223h1083l-36 -223h-428l-203 -1276h-238l203 1276h-418z" />
<glyph unicode="U" d="M219 414q0 100 19 239l135 846h239l-137 -868q-16 -98 -16 -186.5t30 -141.5q53 -90 227.5 -90t260.5 95t121 323l137 868h240l-134 -889q-51 -324 -201.5 -472t-451.5 -148q-272 0 -375 131q-94 119 -94 293z" />
<glyph unicode="V" horiz-adv-x="1392" d="M293 1499h250l182 -1169l573 1169h267l-754 -1499h-266z" />
<glyph unicode="W" horiz-adv-x="2062" d="M293 1499h246l186 -1161l551 1161h258l-219 -450l110 -717l557 1167h254l-725 -1499h-260l-106 670l-328 -670h-272z" />
<glyph unicode="X" horiz-adv-x="1286" d="M70 0l559 760l-326 739h256l232 -549l403 549h272l-573 -780l315 -719h-258l-219 526l-387 -526h-274z" />
<glyph unicode="Y" horiz-adv-x="1325" d="M293 1499h256l205 -739l469 739h274l-661 -1010l-78 -489h-238l78 489z" />
<glyph unicode="Z" horiz-adv-x="1144" d="M61 0l35 223l895 1053h-729l37 223h1024l-37 -223l-880 -1053h714l-35 -223h-1024z" />
<glyph unicode="[" horiz-adv-x="673" d="M129 -176q0 51 10 113l228 1413q29 172 111 251.5t272 79.5h163l-32 -208h-129q-41 0 -70 -13q-63 -29 -82 -149l-223 -1389q-10 -49 -10 -75.5t6 -55.5q12 -55 100 -55h131l-33 -209h-174q-80 0 -135 29q-133 68 -133 268z" />
<glyph unicode="\" horiz-adv-x="876" d="M283 1577h235l303 -1724h-235z" />
<glyph unicode="]" horiz-adv-x="669" d="M-33 -473l33 209h129q63 0 100 34.5t54 127.5l219 1388q8 51 8 90t-12 60q-23 37 -95 37h-129l35 208h166q154 0 215 -90q57 -86 58 -186q0 -39 -9 -121l-217 -1425q-23 -150 -92 -234q-82 -98 -285 -98h-178z" />
<glyph unicode="^" horiz-adv-x="792" d="M258 1087l272 275h189l160 -275h-172l-93 144l-149 -144h-207z" />
<glyph unicode="_" horiz-adv-x="1378" d="M45 -2l35 209h1298l-35 -209h-1298z" />
<glyph unicode="`" horiz-adv-x="512" d="M250 1368h221l178 -281h-170z" />
<glyph unicode="a" horiz-adv-x="1107" d="M146 327q0 3 -1 6q1 125 23 256q22 134 64 228t87.5 147.5t107.5 85t111.5 43t97.5 14.5t115.5 3t206 -29.5t211.5 -99.5l-143 -979h-180l-37 115q-45 -47 -147.5 -88t-194.5 -41t-155.5 28.5t-110.5 100.5q-55 82 -55 210zM381 388.5q0 -64.5 16 -107.5 q29 -84 126.5 -84t163 24.5t142.5 75.5l89 586q-96 31 -165 31h-2q-69 0 -105 -7.5t-59.5 -15.5t-56 -30.5t-55.5 -59.5q-51 -90 -78 -260q-16 -88 -16 -152.5z" />
<glyph unicode="b" horiz-adv-x="1136" d="M104 0l254 1608h236l-92 -580q184 76 368 76q82 0 144.5 -35t95.5 -88q49 -90 49 -250q0 -164 -51 -364q-39 -158 -85 -219.5t-91 -96.5q-80 -63 -213 -63q-106 0 -209.5 42t-151.5 85l-65 -115h-189zM385 276q135 -77 295 -77q90 0 141 80.5t80 265.5q21 111 21 174v5 q0 59 -11 93q-20 88 -120 88q-164 0 -314 -45z" />
<glyph unicode="c" horiz-adv-x="1009" d="M150 337q0 118 21.5 245t57 227t74.5 156.5t93.5 88t102.5 41t125.5 9.5t221 -17.5t248.5 -46.5l-25 -153q-227 16 -341 16t-138.5 -4t-55 -23.5t-51.5 -58.5q-45 -90 -80 -278q-18 -125 -18 -186.5t21.5 -98.5t54.5 -51.5t100 -14.5q154 0 350 17l66 4l-25 -156 q-121 -39 -224 -52t-179 -13h-98q-168 2 -250 143q-51 88 -51 206z" />
<glyph unicode="d" horiz-adv-x="1126" d="M168 576q16 90 36.5 162.5t55.5 145t81 118t115.5 74t150.5 28.5t179.5 -20.5t171.5 -55.5l93 580h235l-256 -1608h-188l-31 115q-63 -47 -165.5 -87t-197 -40t-162 50t-96.5 130q-39 110 -39 212q0 104 17 196zM393 393q0 -194 126 -194h1q160 0 318 77l92 584 q-133 45 -299 45q-55 0 -92 -26q-86 -59 -131 -334q-15 -86 -15 -152z" />
<glyph unicode="e" horiz-adv-x="1077" d="M143 341q0 116 21.5 231.5t40 179t46.5 126t66.5 101.5t94.5 70q106 59 309 59q412 0 412 -274q0 -135 -59.5 -224.5t-137.5 -126.5q-145 -71 -301 -71h-4q-78 0 -147.5 9t-94.5 19q-10 -63 -10 -116.5t20 -83.5q33 -53 144 -56q39 -2 143.5 -2t323.5 35l-27 -172 q-211 -61 -461 -61q-43 0 -86 2q-195 6 -258 157q-35 82 -35 198zM412 600q51 -6 101 -6t84 1t87 11t93 28.5t73 53.5q43 47 43 109.5t-39 86t-147 23.5q-147 0 -207 -67q-51 -59 -72 -156q-4 -20 -10 -48t-6 -36z" />
<glyph unicode="f" horiz-adv-x="827" d="M174 893l27 158l190 36l21 119q25 152 65 238q84 164 285 164q168 0 278 -49l-22 -144h-203h-2q-88 0 -117.5 -47t-54.5 -205l-12 -76h291l-31 -194h-291l-147 -893h-238l145 893h-184z" />
<glyph unicode="g" horiz-adv-x="1136" d="M53 -508l25 158h485q78 0 134.5 50t70.5 144l35 226q-154 -78 -293 -78t-214 45t-108 125q-35 93 -35 203q0 113 19 225q43 262 163 388t306 126q145 0 305 -18.5t252 -36.5l-194 -1225q-31 -203 -140.5 -293t-255.5 -90q-27 0 -57 2zM389 362q0 -172 150 -172 q106 0 166.5 13.5t123.5 34.5l109 671h-276q-195 0 -250 -344q-2 -4 -6 -35q-17 -109 -17 -168z" />
<glyph unicode="h" horiz-adv-x="1120" d="M104 0l254 1604h238l-102 -637q6 4 38.5 23.5t63.5 35.5t81 38.5t100 32t122 9.5t133 -31q104 -51 127 -198q2 -27 2 -62t-8 -78l-117 -737h-237l116 739q4 25 5 47q0 119 -121 119q-94 0 -162 -23.5t-168 -78.5l-127 -803h-238z" />
<glyph unicode="i" horiz-adv-x="438" d="M100 0l172 1087h238l-172 -1087h-238zM283 1253l24 156q7 51 58 51h174q39 0 39 -39q0 -6 -3 -12l-22 -156q-6 -47 -55 -47h-174q-20 0 -32 12q-10 11 -9 29v6z" />
<glyph unicode="j" horiz-adv-x="477" d="M33 -553l260 1640h237l-174 -1095q-51 -344 -153 -545h-170zM303 1253l25 156q6 51 57 51h174q39 0 39 -41v-10l-25 -156q-8 -47 -55 -47h-174q-23 0 -34 12q-8 10 -8 24q0 5 1 11z" />
<glyph unicode="k" horiz-adv-x="1054" d="M104 0l254 1602h238l-147 -926q135 45 276 169t172 242h256q-47 -170 -176 -304t-252 -193l362 -590h-270l-315 518l-78 -2l-82 -516h-238z" />
<glyph unicode="l" horiz-adv-x="616" d="M152 272q0 51 10 115l192 1217h238l-186 -1188q-11 -65 -11 -108q0 -58 19 -79q18 -23 61 -34q125 -39 131 -39l-24 -156h-168q-262 0 -262 272z" />
<glyph unicode="m" horiz-adv-x="1808" d="M104 0l172 1087h185l35 -122q8 6 47 29.5t51 29.5t45 23.5t53.5 23.5t50.5 14q53 17 139 17h2q84 0 154 -44t92 -114q231 158 441 158q154 0 225 -103q51 -74 51 -182q0 -41 -8 -86l-115 -731h-237l117 733q2 23 2 56.5t-29 72.5t-113 39q-166 0 -309 -96q0 -2 -5 -38 t-5 -38l-117 -729h-237l116 733q2 20 2 44t-10 54q-25 70 -114 70t-151.5 -22.5t-166.5 -79.5l-125 -799h-238z" />
<glyph unicode="n" horiz-adv-x="1120" d="M104 0l172 1087h185l35 -120q6 4 49 29.5t83 47t111.5 42t151.5 20.5t141 -31q104 -51 127 -198q2 -27 2 -62t-8 -78l-117 -737h-237l116 739q4 25 5 47q0 119 -121 119q-94 0 -162 -23.5t-168 -78.5l-127 -803h-238z" />
<glyph unicode="o" horiz-adv-x="1146" d="M173.5 583q21.5 132 62 237.5t110.5 169t163 87t234 23.5q264 0 359 -144q61 -92 61 -256q0 -86 -16 -190q-49 -303 -167 -411.5t-391.5 -108.5t-371.5 131q-65 89 -65 247q0 83 21.5 215zM389 383q0 -49 8.5 -82t22.5 -55.5t45 -34.5q45 -19 123 -19h8q84 1 125 9 t81 41.5t64.5 101.5t40.5 174q21 120 21 180v7q0 55 -8 92q-8 39 -37 61q-49 41 -146.5 41t-142.5 -12.5t-84 -51t-61.5 -110.5t-41 -182.5t-18.5 -159.5z" />
<glyph unicode="p" horiz-adv-x="1140" d="M16 -553l265 1606q228 43 550 43q330 0 330 -430q0 -78 -16 -158q-35 -254 -145.5 -390t-319.5 -136q-78 0 -171 19t-157 58l-98 -612h-238zM381 227q106 -49 207.5 -49t144.5 19.5t76 56.5q63 74 100 293q12 82 13 145q0 209 -148 209h-282z" />
<glyph unicode="q" horiz-adv-x="1132" d="M172 569q43 274 161.5 403.5t315.5 129.5q285 0 547 -55l-252 -1600h-237l96 612q-159 -80 -295 -80q-1 0 -2 1q-137 0 -211 43t-107 122q-37 91 -37 202q0 113 21 222zM387 369.5q0 -31.5 2 -63.5t9.5 -47t18.5 -33.5t27 -26.5q41 -20 96 -21h13q48 0 84 4q76 6 192 43 l107 682h-283q-190 0 -243 -354q-23 -152 -23 -183.5z" />
<glyph unicode="r" horiz-adv-x="862" d="M104 0l172 1087h193l23 -137q68 47 112.5 74t116.5 51.5t156 24.5t114 -15l-37 -231q-53 8 -154.5 8t-177 -25.5t-163.5 -95.5l-117 -741h-238z" />
<glyph unicode="s" horiz-adv-x="1040" d="M121 35l24 155h531q86 0 100 84l12 76q4 12 5 31q0 55 -78 55h-266q-147 0 -220 72q-53 55 -53 154q0 33 6 71l17 101q23 135 99.5 202.5t232 67.5t324.5 -11.5t228 -35.5l-24 -158h-508q-63 0 -87 -25.5t-30 -64.5l-10 -74q-3 -19 -3 -33q0 -35 17 -45q18 -10 43 -9 t29 1h272q141 0 205 -84q47 -61 47 -149q0 -27 -4 -56l-18 -127q-25 -160 -125 -208q-80 -41 -210 -41t-319.5 14t-236.5 37z" />
<glyph unicode="t" horiz-adv-x="770" d="M168 895l22 143l195 52l92 303h193l-47 -303h270l-31 -195h-270l-76 -479q-10 -64 -10 -108q0 -59 18 -81q18 -20 62 -32q127 -39 133 -39l-25 -156h-176q-254 0 -254 270q0 53 10 117l80 508h-186z" />
<glyph unicode="u" horiz-adv-x="1118" d="M135 258q0 43 8 94l115 735h238l-117 -739q-4 -29 -4 -66.5t26.5 -67.5t107.5 -30t148.5 22.5t169.5 80.5l125 800h238l-172 -1087h-187l-30 119q-78 -47 -121 -70.5t-117 -45t-151 -21.5q-170 0 -232 100q-45 72 -45 176z" />
<glyph unicode="v" horiz-adv-x="1079" d="M178 1087h250l154 -817l303 613q49 102 61 207h213q8 -39 8 -80q0 -92 -49 -193l-422 -817h-293z" />
<glyph unicode="w" horiz-adv-x="1673" d="M178 1087h248l147 -808l306 600q49 102 61 206h205q10 -41 10 -98t-31 -131l-43 -96l93 -475l313 598q49 102 61 207h207q10 -43 10 -86q0 -94 -51 -187l-446 -817h-256l-94 475l-238 -475h-277z" />
<glyph unicode="x" horiz-adv-x="1136" d="M41 0l471 557l-299 530h281l184 -358l297 358h293l-471 -569l288 -518h-274l-182 348l-287 -348h-301z" />
<glyph unicode="y" horiz-adv-x="1142" d="M180 1087h246l92 -792q10 -80 109 -80h8l317 670q37 80 54 207h213q10 -41 10 -84q0 -92 -47 -195l-387 -811q-141 -301 -306 -434q-143 -115 -296 -143v167q121 70 200.5 171.5t149.5 236.5q-100 0 -173 60.5t-89 197.5z" />
<glyph unicode="z" horiz-adv-x="956" d="M82 2l31 207l624 670h-542l28 208h854l-28 -208l-609 -668h498l-33 -209h-823z" />
<glyph unicode="{" horiz-adv-x="655" d="M127 559l31 189q2 0 20.5 1t23.5 1t21.5 2t22.5 3t20.5 5t20.5 9t16 12t16 16q12 23 17 45l76 479q29 182 147.5 271t335.5 89l-35 -208h-4q-92 0 -145.5 -50.5t-73.5 -179.5l-66 -412q-27 -162 -219 -188q82 -14 122 -59t40 -99q0 -14 -4 -28l-76 -473q-8 -53 -8 -109 q0 -147 145 -147q8 0 15 2l-33 -203q-115 0 -196 36t-117 93q-57 92 -58 207q0 45 11 92l77 483q2 10 2 19q0 45 -37.5 74.5t-93.5 29.5q-6 0 -14 -2z" />
<glyph unicode="|" horiz-adv-x="503" d="M125 -147l272 1724h209l-272 -1724h-209z" />
<glyph unicode="}" horiz-adv-x="649" d="M-33 -473l33 201h4q92 0 145.5 51t71.5 170l74 457q25 150 215 184q-113 14 -148 96q-10 27 -10 51.5t2 42.5l68 426q10 63 10 121q0 145 -143 146h-15l35 208q111 0 190 -36.5t115 -98.5q55 -96 56 -211q0 -45 -11 -92l-65 -448q-2 -8 -2 -17q0 -47 41 -75.5t100 -28.5 h6l-30 -189q-94 2 -121 -14q-49 -29 -58 -80l-81 -500q-33 -190 -147 -277t-335 -87z" />
<glyph unicode="~" horiz-adv-x="870" d="M274 1190q4 4 29 25.5t32 26.5t29.5 22.5t33 23.5t32 17.5t35.5 15.5t34.5 8t54.5 4t93.5 -35.5t97.5 -35.5h20.5t59.5 14q49 18 125 67l31 -108q-4 -4 -20.5 -19.5t-31 -28.5t-43 -35t-50.5 -34q-57 -31 -107.5 -31t-117 36t-99.5 36t-61.5 -7t-45 -14.5t-50 -24.5 t-50.5 -26z" />
<glyph unicode="&#xa1;" horiz-adv-x="561" d="M63 -551l201 1090h205l-143 -1090h-263zM274 733v10l25 156q6 43 57 47h146q20 -2 32.5 -17.5t8.5 -35.5l-23 -150q-10 -45 -51 -51h-158q-37 2 -37 41z" />
<glyph unicode="&#xa2;" horiz-adv-x="995" d="M133 335q0 118 21.5 247t58.5 230t76 157.5t96 87t102 38t79 7.5t52 -2l33 198h158l-35 -206q176 -18 303 -56l-24 -151q-225 14 -340 14t-139.5 -4t-55.5 -22.5t-51 -55.5q-45 -92 -80 -278q-16 -125 -16 -186.5t20.5 -98.5t53 -51.5t100.5 -14.5q154 0 350 17l66 4 l-25 -156q-147 -57 -340 -63l-27 -187h-157l28 185q-174 2 -256 141q-51 88 -51 206z" />
<glyph unicode="&#xa3;" horiz-adv-x="1202" d="M86 0l31 186l145 37l68 432h-140l21 127l147 43l31 203q45 283 168 377q45 35 83 53.5t99 26.5q88 14 210 14.5t329 -24.5l70 -9l-29 -188h-381q-166 0 -226.5 -47t-84.5 -209l-31 -199l483 -32l-20 -136h-492l-67 -432h651l-37 -223h-1028z" />
<glyph unicode="&#xa4;" horiz-adv-x="929" d="M150 367l110 94q-33 70 -33 137q0 123 74 215l-82 94l107 90l77 -90q92 59 202 59.5t183 -59.5l113 97l84 -101l-117 -100q27 -57 27 -123q0 -137 -88 -244l88 -100l-109 -94l-88 104q-76 -47 -179 -47t-179 57l-107 -94zM377 606q0 -57 39 -106q41 -51 121.5 -51t136 51 t71.5 133q4 18 4.5 54t-38.5 84t-119 48q-86 0 -143 -51q-72 -66 -72 -162z" />
<glyph unicode="&#xa5;" horiz-adv-x="1273" d="M233 295l25 149h301l12 84h-301l27 152h248l-273 819h254l203 -676l463 676h285l-596 -819h290l-26 -152h-336l-12 -84h336l-25 -149h-332l-41 -295h-237l41 295h-306z" />
<glyph unicode="&#xa6;" horiz-adv-x="505" d="M125 -147l106 671h209l-106 -671h-209zM287 879l110 698h209l-110 -698h-209z" />
<glyph unicode="&#xa7;" horiz-adv-x="1114" d="M174 23l27 170h508q51 0 79.5 14t36.5 59l15 107q10 59 -29 71q-18 4 -55 5h-287q-137 0 -201.5 60t-64.5 150q0 27 4 56l14 92q12 82 42 132t106 73q-86 51 -86 157q0 25 4 54l16 114q39 268 326 269q104 0 298.5 -13.5t262.5 -25.5l-25 -170h-518q-47 0 -73.5 -19.5 t-34.5 -64.5l-15 -96q-2 -11 -2 -19q0 -63 84 -63h293q143 0 203.5 -63.5t60.5 -151.5q0 -25 -4 -52l-16 -90q-25 -174 -139 -200q82 -23 81 -138q0 -29 -6 -65l-18 -129q-27 -164 -111 -215q-74 -47 -201.5 -47t-319 13t-255.5 26zM446 700q0 -49 89 -49h245q88 0 107 41 q6 16 12 49l14 97q5 25 5 45q0 51 -93 51h-245q-61 0 -84 -19.5t-31 -80.5l-16 -95q-2 -16 -3 -39z" />
<glyph unicode="&#xa8;" horiz-adv-x="921" d="M274 1159q0 72 43 109t90.5 37t73 -30t25.5 -51.5t-3 -38t-15.5 -38t-30.5 -37.5q-37 -33 -85 -33t-73 30t-25 52zM797 1159q0 72 43 109t90 37t72.5 -30t25.5 -51.5t-3 -38t-15.5 -38t-30.5 -37.5q-37 -33 -85 -33t-72.5 30t-24.5 52z" />
<glyph unicode="&#xa9;" horiz-adv-x="1638" d="M195 553q0 299 106 571q63 162 193 269q126 106 333 106h490q236 0 321 -203q51 -117 52 -299q0 -121 -23 -264q-55 -344 -199.5 -538.5t-371.5 -194.5h-490q-190 0 -289 133q-94 129 -112 303q-10 76 -10 117zM360 609.5q0 -54.5 3.5 -119t29 -147.5t84 -133t141.5 -50 h492q133 0 238 147q119 168 168 557q10 90 10 168q0 307 -219 307h-504q-244 0 -354 -295q-45 -119 -67 -249.5t-22 -185zM563 581q0 95 17.5 200.5t52.5 193.5t84 134t102 65.5t109.5 19.5t118.5 -6q147 -14 258 -43l-21 -135q-168 25 -338 24q-109 0 -162 -125 q-25 -63 -38 -147t-13 -137.5t12 -92.5q25 -72 115 -71q152 0 354 33l-20 -136q-168 -57 -387 -57q-133 0 -201 113q-43 72 -43 167z" />
<glyph unicode="&#xaa;" horiz-adv-x="749" d="M137 541l21 135h645l-21 -135h-645zM201 1038q0 158 55 275q29 61 61.5 96t77.5 55.5t77 26.5t60.5 8t72.5 2t147.5 -22.5t150.5 -67.5l-92 -639h-119l-28 105q-51 -74 -172 -105q-37 -8 -79 -8t-85 20.5t-78 69.5q-49 66 -49 184zM375 1059q0 -129 96 -129q104 0 207 92 l43 309q-66 20 -115 20.5t-73.5 -6t-43 -15.5t-43.5 -32q-47 -43 -65 -165q-6 -41 -6 -74z" />
<glyph unicode="&#xab;" horiz-adv-x="1167" d="M201 725l487 416l121 -140l-342 -292l250 -291l-152 -119zM623 725l487 416l121 -140l-342 -292l250 -291l-152 -119z" />
<glyph unicode="&#xac;" horiz-adv-x="1034" d="M160 504l33 201h874l-61 -379h-201l26 178h-671z" />
<glyph unicode="&#xad;" horiz-adv-x="724" d="M119 489l33 209h643l-33 -209h-643z" />
<glyph unicode="&#xae;" horiz-adv-x="1638" d="M195 553q0 299 106 571q63 162 193 269q126 106 333 106h490q236 0 321 -203q51 -117 52 -299q0 -121 -23 -264q-55 -344 -199.5 -538.5t-371.5 -194.5h-490q-190 0 -289 133q-94 129 -112 303q-10 76 -10 117zM360 609.5q0 -54.5 3.5 -119t29 -147.5t84 -133t141.5 -50 h492q133 0 238 147q119 168 168 557q10 90 10 168q0 307 -219 307h-504q-244 0 -354 -295q-45 -119 -67 -249.5t-22 -185zM561 313l139 875h369q100 0 170 -53q66 -49 66 -166q0 -27 -5 -58q-23 -193 -147 -241q-16 -6 -68 -19l127 -338h-182l-123 334l-123 25l-57 -359 h-166zM803 791h186q80 0 106.5 23.5t34 73.5t7.5 79q0 61 -109 61h-186z" />
<glyph unicode="&#xaf;" horiz-adv-x="770" d="M258 1087l25 150h598l-25 -150h-598z" />
<glyph unicode="&#xb0;" horiz-adv-x="581" d="M287 1291q0 87 64.5 149.5t150.5 62.5t143 -59.5t57 -140.5q0 -92 -62 -152.5t-149.5 -60.5t-145.5 57t-58 144zM397 1286q0 -33 28 -60.5t61.5 -27.5t56.5 12q51 29 51 86q0 55 -47 84q-20 12 -47 12.5t-50.5 -13t-38 -37t-14.5 -56.5z" />
<glyph unicode="&#xb1;" horiz-adv-x="1042" d="M121 156l33 209h852l-33 -209h-852zM223 786l31 209h319l52 320h209l-52 -320h324l-31 -209h-323l-54 -323h-209l54 323h-320z" />
<glyph unicode="&#xb2;" horiz-adv-x="804" d="M143 729l27 166q4 4 54 37t72.5 48t76 52t84 60.5t78 61.5t76 68.5t58 65.5t46 66.5t20.5 56.5t4 55.5t-25.5 56t-111.5 25.5h-336q-2 0 17 107l6 33q236 37 395 36q94 0 156 -51q94 -80 94 -205q0 -82 -38 -157.5t-76 -123.5t-88 -97.5t-89 -80t-82 -62.5t-55 -42h340 l-29 -176h-674z" />
<glyph unicode="&#xb3;" horiz-adv-x="831" d="M145 758l25 137h340q143 0 158 100l6 33q2 14 2 40t-27.5 47.5t-91.5 23.5l-266 8l24 149l269 13q139 6 153 100l4 33q2 14 2 36.5t-24.5 41t-97.5 18.5h-359l21 135q119 41 319 41h111q115 -2 168 -67.5t53 -141.5q0 -23 -4 -45l-10 -65q-12 -74 -48 -123t-88 -62 q78 -37 78 -151q0 -25 -4 -49l-8 -52q-18 -119 -90 -179t-209 -60h-6h-78h-24.5t-43.5 1t-49 2t-41.5 3t-44 5t-39.5 5q-37 8 -80 23z" />
<glyph unicode="&#xb4;" horiz-adv-x="495" d="M207 1087l242 281h231l-303 -281h-170z" />
<glyph unicode="&#xb5;" horiz-adv-x="1208" d="M68 -553l260 1640h237l-116 -739q-5 -25 -5 -45q0 -119 121 -119q94 0 162 22.5t168 80.5l127 800h238l-173 -1087h-184l-33 119q-8 -2 -53 -26.5t-56 -31t-49 -24t-59 -23.5q-158 -45 -258 2l-90 -569h-237z" />
<glyph unicode="&#xb6;" horiz-adv-x="1183" d="M225 985.5q0 26.5 4 52.5l29 191q43 270 367 270h761l-28 -190h-121l-207 -1309h-188l209 1313h-158l-295 -1866h-186l206 1315q-2 0 -15 -7t-28 -12q-37 -16 -98 -16t-119 29q-104 49 -127 174q-6 29 -6 55.5zM418 1001.5q0 -18.5 6 -39t29 -30.5q33 -18 82 -19h106 l66 402h-105q-82 0 -114.5 -31t-45.5 -98l-22 -148q-2 -18 -2 -36.5z" />
<glyph unicode="&#xb7;" horiz-adv-x="542" d="M258 707l25 159q6 52 57 52h152q45 0 45 -37q0 -6 -2 -15l-25 -159q-8 -47 -57 -48h-152q-23 0 -35 13.5t-8 34.5z" />
<glyph unicode="&#xb8;" horiz-adv-x="503" d="M29 -360l18 104l100 31q43 18 60.5 51t28.5 98h172q-25 -160 -82.5 -222t-184.5 -62h-112z" />
<glyph unicode="&#xb9;" horiz-adv-x="569" d="M229 1458l19 127q70 0 153.5 48t110.5 81h184l-157 -985h-187l127 782q-33 -25 -102.5 -39t-147.5 -14z" />
<glyph unicode="&#xba;" horiz-adv-x="790" d="M162 545l20 133h649l-20 -133h-649zM225 1028q0 49 8 109q35 215 119 293q84 77 281 77q117 0 186 -37q111 -57 111 -235q0 -55 -10 -123q-33 -199 -115 -274.5t-272.5 -75.5t-260.5 92q-47 61 -47 174zM403 1045.5q0 -23.5 2.5 -39t6.5 -30.5t15 -24.5t20.5 -15.5 t27.5 -8q29 -6 74 -6t67.5 4t49.5 22q51 31 73 178q10 68 10.5 107t-4 62.5t-26.5 33.5q-33 18 -97.5 18.5t-90 -5t-51 -28t-40 -66.5t-26 -111.5t-11.5 -91z" />
<glyph unicode="&#xbb;" horiz-adv-x="1161" d="M156 440l344 297l-242 281l143 123l363 -422l-485 -420zM582 440l344 297l-242 281l145 123l361 -422l-483 -420z" />
<glyph unicode="&#xbc;" horiz-adv-x="1933" d="M229 1253l19 127q70 0 153.5 48.5t110.5 80.5h184l-157 -985h-187l127 783q-33 -25 -102.5 -39.5t-147.5 -14.5zM379 0l1132 1577h183l-1133 -1577h-182zM1118 295l488 686h206l-405 -582h264l35 224l68 100h131l-52 -324h107l-23 -149l-114 -33l-33 -217h-182l34 217 h-483z" />
<glyph unicode="&#xbd;" horiz-adv-x="2054" d="M229 1253l19 127q70 0 153.5 48.5t110.5 80.5h184l-157 -985h-187l127 783q-33 -25 -102.5 -39.5t-147.5 -14.5zM362 0l1133 1577h182l-1132 -1577h-183zM1311 0l26 166q4 4 55.5 37t73 48t75.5 52t84 60.5t77 61.5t75.5 68.5t59.5 65.5t47.5 66.5t19.5 57.5t3 45.5 t-6 41.5q-18 49 -132 49h-333q-4 0 14 107l6 32q236 37 395 37q94 0 156 -51q94 -80 94 -205q0 -92 -46 -178t-103.5 -146.5t-104.5 -102.5t-104 -85t-68 -51h338l-26 -176h-676z" />
<glyph unicode="&#xbe;" horiz-adv-x="2164" d="M145 553l25 137h340q143 0 158 101l6 32q2 14 2 40t-27.5 47.5t-91.5 23.5l-266 8l24 150l269 12q139 6 153 100l4 33q2 14 2 36.5t-24.5 41t-97.5 18.5h-359l21 135q119 41 319 41h111q115 -2 168 -67.5t53 -141.5q0 -23 -4 -45l-10 -65q-12 -74 -48.5 -123t-87.5 -61 q78 -37 78 -154q0 -23 -4 -47l-8 -51q-18 -119 -90 -179.5t-209 -60.5h-8h-47h-51.5t-45.5 1t-49 2t-41.5 3t-44 5t-39.5 5q-37 8 -80 23zM582 0l1132 1577h182l-1132 -1577h-182zM1296 295l488 686h207l-406 -582h264l35 224l70 100h131l-53 -324h106l-22 -149l-115 -33 l-31 -217h-184l35 217h-484z" />
<glyph unicode="&#xbf;" horiz-adv-x="1103" d="M37 -213q0 35 6 72l27 170q33 215 166 290q100 57 256 58q53 0 110 -6l31 192h205l-60 -375q-86 2 -149.5 2t-127 -3t-123 -45t-73.5 -132l-22 -145q-6 -27 -6.5 -57.5t16.5 -65.5q31 -74 203 -74h526l-27 -170q-301 -51 -491 -51q-47 0 -94 2q-137 0 -230 62 q-143 96 -143 276zM645 741v15l27 159q6 48 55 48h154q23 0 34 -13.5t9 -34.5l-27 -159q-6 -51 -57 -51h-154q-41 0 -41 36z" />
<glyph unicode="&#xc0;" horiz-adv-x="1386" d="M78 0l760 1499h262l264 -1499h-242l-67 362h-531l-184 -362h-262zM627 580h399l-100 606zM676 1913h219l180 -281h-170z" />
<glyph unicode="&#xc1;" horiz-adv-x="1386" d="M78 0l760 1499h262l264 -1499h-242l-67 362h-531l-184 -362h-262zM627 580h399l-100 606zM905 1632l242 281h231l-303 -281h-170z" />
<glyph unicode="&#xc2;" horiz-adv-x="1386" d="M78 0l760 1499h262l264 -1499h-242l-67 362h-531l-184 -362h-262zM627 580h399l-100 606zM680 1632l272 273h189l159 -273h-165l-99 148l-162 -148h-194z" />
<glyph unicode="&#xc3;" horiz-adv-x="1386" d="M78 0l760 1499h262l264 -1499h-242l-67 362h-531l-184 -362h-262zM627 580h399l-100 606zM655 1735q78 66 141.5 102.5t122 35.5t120 -35t76.5 -35t37 -1t89.5 26.5t91.5 47.5l31 -109q-4 -2 -32.5 -24.5t-37 -28.5t-34 -23.5t-39 -23.5t-35.5 -16q-90 -43 -197 18 q-61 35 -96 35q-63 0 -102 -18.5t-48.5 -23.5t-28 -15.5t-26.5 -14.5z" />
<glyph unicode="&#xc4;" horiz-adv-x="1386" d="M78 0l760 1499h262l264 -1499h-242l-67 362h-531l-184 -362h-262zM627 580h399l-100 606zM633 1716q0 72 43 108t90 36t72.5 -29t25.5 -51.5t-3 -39t-15 -38t-29 -35.5q-39 -35 -86 -35t-72.5 31t-25.5 53zM1155 1716q0 72 43 108t90 36t72.5 -29t25.5 -51.5t-3 -39 t-15 -38t-29 -35.5q-39 -35 -86 -35t-72.5 31t-25.5 53z" />
<glyph unicode="&#xc5;" horiz-adv-x="1386" d="M78 0l760 1499h262l264 -1499h-242l-67 362h-531l-184 -362h-262zM627 580h399l-100 606zM788 1683q0 -74 54.5 -131t140.5 -57q119 0 188 107q35 53 35 122q0 74 -52 130.5t-124 56.5t-122 -28t-85 -80t-35 -120zM902 1710q3 33 34 61.5t71 28.5t64.5 -26.5t24.5 -66.5 t-33 -69.5t-65.5 -29.5t-54 12t-33 34.5t-8.5 55.5z" />
<glyph unicode="&#xc6;" horiz-adv-x="2009" d="M51 0l783 1200q117 178 241 240q119 59 236 59h90q20 0 310 -10t372 -23l-31 -194h-602q-74 0 -94 -37q-18 -27 -27 -74l-49 -307l614 -23l-30 -192l-623 -21l-45 -294q-12 -78 29 -95q31 -12 82 -12h579l-33 -190q-66 -10 -485 -29l-139 -6q-12 -2 -39 -2t-74 12 q-121 27 -160 121q-14 35 -14 68.5t4 58.5l27 176h-373l-281 -426h-268zM737 641h271l92 557z" />
<glyph unicode="&#xc7;" horiz-adv-x="1173" d="M195 524q0 115 26.5 278t68.5 293t113 228q140 193 437 193q252 0 506 -68l-31 -188q-242 33 -434 32h-22.5h-26t-34 -1t-46 -6t-49 -14t-47 -27.5t-47 -45.5t-43 -67.5t-42.5 -94.5q-43 -125 -65.5 -268t-22.5 -243.5t25 -170.5q47 -135 211 -143h131t354 16l-29 -186 q-176 -53 -483 -53q-152 0 -233 45q-217 115 -217 491zM371 -360l16 106l100 31q57 16 74 78q8 25 14 69h175q-25 -158 -83.5 -221t-185.5 -63h-110z" />
<glyph unicode="&#xc8;" horiz-adv-x="1150" d="M172 225q0 29 4 62l148 925q44 287 329 287q8 0 290 -10t364 -23l-31 -194h-598q-74 0 -98 -37q-20 -31 -27 -78l-47 -295l612 -20l-31 -195l-618 -18l-47 -301q-12 -78 29 -95q31 -12 81 -12h580l-33 -192q-68 -8 -487 -29l-139 -6h-39t-74 12q-168 43 -168 219z M565 1901h221l179 -279h-170z" />
<glyph unicode="&#xc9;" horiz-adv-x="1150" d="M172 225q0 29 4 62l148 925q44 287 329 287q8 0 290 -10t364 -23l-31 -194h-598q-74 0 -98 -37q-20 -31 -27 -78l-47 -295l612 -20l-31 -195l-618 -18l-47 -301q-12 -78 29 -95q31 -12 81 -12h580l-33 -192q-68 -8 -487 -29l-139 -6h-39t-74 12q-168 43 -168 219z M795 1622l241 279h230l-303 -279h-168z" />
<glyph unicode="&#xca;" horiz-adv-x="1150" d="M172 225q0 29 4 62l148 925q44 287 329 287q8 0 290 -10t364 -23l-31 -194h-598q-74 0 -98 -37q-20 -31 -27 -78l-47 -295l612 -20l-31 -195l-618 -18l-47 -301q-12 -78 29 -95q31 -12 81 -12h580l-33 -192q-68 -8 -487 -29l-139 -6h-39t-74 12q-168 43 -168 219z M571 1622l271 274h188l160 -274h-170l-92 143l-150 -143h-207z" />
<glyph unicode="&#xcb;" horiz-adv-x="1150" d="M172 225q0 29 4 62l148 925q44 287 329 287q8 0 290 -10t364 -23l-31 -194h-598q-74 0 -98 -37q-20 -31 -27 -78l-47 -295l612 -20l-31 -195l-618 -18l-47 -301q-12 -78 29 -95q31 -12 81 -12h580l-33 -192q-68 -8 -487 -29l-139 -6h-39t-74 12q-168 43 -168 219z M502 1694q0 72 44 108.5t91 36.5t71.5 -29.5t24.5 -50.5q0 -72 -43 -109.5t-90 -37.5t-72.5 29.5t-25.5 52.5zM1024 1694q0 72 44 108.5t91 36.5t71.5 -29.5t24.5 -50.5q0 -72 -43 -109.5t-90 -37.5t-72.5 29.5t-25.5 52.5z" />
<glyph unicode="&#xcc;" horiz-adv-x="499" d="M152 0l237 1499h238l-238 -1499h-237zM215 1913h219l180 -281h-170z" />
<glyph unicode="&#xcd;" horiz-adv-x="499" d="M152 0l237 1499h238l-238 -1499h-237zM444 1632l242 281h232l-304 -281h-170z" />
<glyph unicode="&#xce;" horiz-adv-x="499" d="M152 0l237 1499h238l-238 -1499h-237zM219 1632l273 273h188l160 -273h-166l-99 148l-161 -148h-195z" />
<glyph unicode="&#xcf;" horiz-adv-x="499" d="M152 0l237 1499h238l-238 -1499h-237zM173 1747q7 47 46 80t86 33t72.5 -29t25.5 -51q0 -72 -43 -110t-78.5 -38t-55 9.5t-31.5 25.5q-29 33 -22 80zM695 1747q7 47 46 80t86 33t73 -29t26 -51q0 -72 -43 -110t-79 -38t-55.5 9.5t-31.5 25.5q-29 33 -22 80z" />
<glyph unicode="&#xd0;" horiz-adv-x="1347" d="M115 700l20 127h133l107 670q0 2 596 2q215 0 313 -133q96 -131 109 -305q4 -53 4 -96q0 -123 -21 -244q-61 -360 -209.5 -540.5t-418.5 -180.5h-611l111 700h-133zM410 219h342q154 0 251 143.5t134 382.5q23 135 22 242q0 295 -237 295h-344l-72 -455h250l-21 -127 h-250z" />
<glyph unicode="&#xd1;" horiz-adv-x="1361" d="M139 0l238 1499h235l480 -1063l168 1063h237l-237 -1499h-234l-481 1055l-166 -1055h-240zM614 1729q121 102 197 126q88 27 184 -24q61 -35 76.5 -35h30t59.5 14q90 29 129 60l31 -109q-4 -4 -32.5 -25.5t-37 -27.5t-33 -24.5t-39 -24.5t-36.5 -17q-90 -41 -197 21 q-61 35 -96 35t-62.5 -7.5t-48 -16.5t-30 -14t-33 -17.5t-31.5 -16.5z" />
<glyph unicode="&#xd2;" horiz-adv-x="1363" d="M197 433q0 54 1 117.5t21.5 192.5t44 224.5t49 168t61.5 129t68.5 95.5t78.5 66.5t87 44t97.5 24.5t103.5 11t122 3t137 -7t124.5 -28.5t103.5 -58.5q98 -84 125 -237q12 -70 12.5 -125.5t-1.5 -121t-24 -207.5t-52.5 -250.5t-66.5 -185.5t-86 -131.5t-99 -86t-117 -50.5 q-113 -29 -235.5 -28.5t-184 6.5t-125 26.5t-104.5 53.5q-100 80 -129 229q-12 72 -12 126zM434 453q0 -133 64 -185q41 -31 94 -42t146 -11t159 19.5t121 76.5q102 102 153 428q25 164 25 249t-8 125t-19.5 68.5t-34 48t-43 31t-55.5 17.5q-51 8 -116.5 8t-94 -1t-66.5 -7 t-61.5 -16.5t-52.5 -30t-47 -47.5q-53 -80 -78 -164q-86 -291 -86 -567zM629 1913h219l180 -281h-170z" />
<glyph unicode="&#xd3;" horiz-adv-x="1363" d="M197 433q0 54 1 117.5t21.5 192.5t44 224.5t49 168t61.5 129t68.5 95.5t78.5 66.5t87 44t97.5 24.5t103.5 11t122 3t137 -7t124.5 -28.5t103.5 -58.5q98 -84 125 -237q12 -70 12.5 -125.5t-1.5 -121t-24 -207.5t-52.5 -250.5t-66.5 -185.5t-86 -131.5t-99 -86t-117 -50.5 q-113 -29 -235.5 -28.5t-184 6.5t-125 26.5t-104.5 53.5q-100 80 -129 229q-12 72 -12 126zM434 453q0 -133 64 -185q41 -31 94 -42t146 -11t159 19.5t121 76.5q102 102 153 428q25 164 25 249t-8 125t-19.5 68.5t-34 48t-43 31t-55.5 17.5q-51 8 -116.5 8t-94 -1t-66.5 -7 t-61.5 -16.5t-52.5 -30t-47 -47.5q-53 -80 -78 -164q-86 -291 -86 -567zM858 1632l242 281h231l-303 -281h-170z" />
<glyph unicode="&#xd4;" horiz-adv-x="1363" d="M197 433q0 54 1 117.5t21.5 192.5t44 224.5t49 168t61.5 129t68.5 95.5t78.5 66.5t87 44t97.5 24.5t103.5 11t122 3t137 -7t124.5 -28.5t103.5 -58.5q98 -84 125 -237q12 -70 12.5 -125.5t-1.5 -121t-24 -207.5t-52.5 -250.5t-66.5 -185.5t-86 -131.5t-99 -86t-117 -50.5 q-113 -29 -235.5 -28.5t-184 6.5t-125 26.5t-104.5 53.5q-100 80 -129 229q-12 72 -12 126zM434 453q0 -133 64 -185q41 -31 94 -42t146 -11t159 19.5t121 76.5q102 102 153 428q25 164 25 249t-8 125t-19.5 68.5t-34 48t-43 31t-55.5 17.5q-51 8 -116.5 8t-94 -1t-66.5 -7 t-61.5 -16.5t-52.5 -30t-47 -47.5q-53 -80 -78 -164q-86 -291 -86 -567zM633 1632l272 273h189l159 -273h-166l-98 148l-162 -148h-194z" />
<glyph unicode="&#xd5;" horiz-adv-x="1363" d="M197 433q0 54 1 117.5t21.5 192.5t44 224.5t49 168t61.5 129t68.5 95.5t78.5 66.5t87 44t97.5 24.5t103.5 11t122 3t137 -7t124.5 -28.5t103.5 -58.5q98 -84 125 -237q12 -70 12.5 -125.5t-1.5 -121t-24 -207.5t-52.5 -250.5t-66.5 -185.5t-86 -131.5t-99 -86t-117 -50.5 q-113 -29 -235.5 -28.5t-184 6.5t-125 26.5t-104.5 53.5q-100 80 -129 229q-12 72 -12 126zM434 453q0 -133 64 -185q41 -31 94 -42t146 -11t159 19.5t121 76.5q102 102 153 428q25 164 25 249t-8 125t-19.5 68.5t-34 48t-43 31t-55.5 17.5q-51 8 -116.5 8t-94 -1t-66.5 -7 t-61.5 -16.5t-52.5 -30t-47 -47.5q-53 -80 -78 -164q-86 -291 -86 -567zM608 1735q88 74 123 92t51.5 25.5t30.5 11.5q74 23 126 -2t83 -41.5t46 -17.5t36.5 -1t88.5 26.5t93 47.5l29 -109q-4 -2 -32 -24.5t-36 -28.5t-33.5 -23.5t-39 -23.5t-35.5 -16q-90 -43 -199 18 q-59 35 -94 35t-63.5 -7t-49 -16.5t-29 -13.5t-33 -17.5t-32.5 -17.5z" />
<glyph unicode="&#xd6;" horiz-adv-x="1363" d="M197 433q0 54 1 117.5t21.5 192.5t44 224.5t49 168t61.5 129t68.5 95.5t78.5 66.5t87 44t97.5 24.5t103.5 11t122 3t137 -7t124.5 -28.5t103.5 -58.5q98 -84 125 -237q12 -70 12.5 -125.5t-1.5 -121t-24 -207.5t-52.5 -250.5t-66.5 -185.5t-86 -131.5t-99 -86t-117 -50.5 q-113 -29 -235.5 -28.5t-184 6.5t-125 26.5t-104.5 53.5q-100 80 -129 229q-12 72 -12 126zM434 453q0 -133 64 -185q41 -31 94 -42t146 -11t159 19.5t121 76.5q102 102 153 428q25 164 25 249t-8 125t-19.5 68.5t-34 48t-43 31t-55.5 17.5q-51 8 -116.5 8t-94 -1t-66.5 -7 t-61.5 -16.5t-52.5 -30t-47 -47.5q-53 -80 -78 -164q-86 -291 -86 -567zM586.5 1747q7.5 47 46.5 80t86 33t72.5 -29t25.5 -51q0 -72 -43 -110t-79 -38t-55 9.5t-32 25.5q-29 33 -21.5 80zM1108.5 1747q7.5 47 46.5 80t86 33t72.5 -29t25.5 -51q0 -72 -43 -110t-78.5 -38 t-55 9.5t-32.5 25.5q-29 33 -21.5 80z" />
<glyph unicode="&#xd7;" horiz-adv-x="942" d="M176 504l260 225l-186 225l160 142l188 -226l276 236l125 -150l-276 -239l192 -228l-159 -133l-189 224l-264 -230z" />
<glyph unicode="&#xd8;" horiz-adv-x="1363" d="M106 0l142 170q-59 109 -59.5 267.5t22 299t47.5 235.5t50.5 166.5t60 128t68.5 95.5t80 66.5t87 43t96 23.5q90 14 220 14q258 0 366 -84l60 74h143l-127 -153q68 -113 68 -326q0 -131 -24 -286.5t-55.5 -264.5t-67.5 -184.5t-85 -130t-98 -86t-119 -48.5 q-111 -29 -260.5 -28.5t-243.5 19t-158 73.5l-69 -84h-144zM432 526q0 -80 12 -125l680 836q-35 31 -88 40t-119.5 9t-96 -1t-66.5 -7t-60.5 -16.5t-52.5 -30t-48.5 -48t-41 -68.5t-37.5 -94t-31.5 -124t-33 -180.5t-17.5 -190.5zM485 281q60 -66 242 -66q100 0 165.5 19.5 t121.5 76.5q100 102 151 428q25 154 25 245t-14 142z" />
<glyph unicode="&#xd9;" d="M219 414q0 100 19 239l135 846h239l-137 -868q-16 -98 -16 -186.5t30 -141.5q53 -90 227.5 -90t260.5 95t121 323l137 868h240l-134 -889q-51 -324 -201.5 -472t-451.5 -148q-272 0 -375 131q-94 119 -94 293zM631 1913h219l180 -281h-170z" />
<glyph unicode="&#xda;" d="M219 414q0 100 19 239l135 846h239l-137 -868q-16 -98 -16 -186.5t30 -141.5q53 -90 227.5 -90t260.5 95t121 323l137 868h240l-134 -889q-51 -324 -201.5 -472t-451.5 -148q-272 0 -375 131q-94 119 -94 293zM860 1632l242 281h231l-303 -281h-170z" />
<glyph unicode="&#xdb;" d="M219 414q0 100 19 239l135 846h239l-137 -868q-16 -98 -16 -186.5t30 -141.5q53 -90 227.5 -90t260.5 95t121 323l137 868h240l-134 -889q-51 -324 -201.5 -472t-451.5 -148q-272 0 -375 131q-94 119 -94 293zM635 1632l272 273h189l159 -273h-165l-99 148l-162 -148 h-194z" />
<glyph unicode="&#xdc;" d="M219 414q0 100 19 239l135 846h239l-137 -868q-16 -98 -16 -186.5t30 -141.5q53 -90 227.5 -90t260.5 95t121 323l137 868h240l-134 -889q-51 -324 -201.5 -472t-451.5 -148q-272 0 -375 131q-94 119 -94 293zM588 1716q0 72 43 108t90 36t72.5 -29t25.5 -51.5t-3 -39 t-15.5 -38t-28.5 -35.5q-39 -35 -86 -35t-72.5 31t-25.5 53zM1110 1716q0 72 43 108t90 36t72.5 -29t25.5 -51.5t-2 -34.5t-8 -27.5t-16 -28t-21.5 -23.5t-25.5 -17q-29 -16 -68 -16.5t-64.5 30.5t-25.5 53z" />
<glyph unicode="&#xdd;" horiz-adv-x="1325" d="M293 1499h256l205 -739l469 739h274l-661 -1010l-78 -489h-238l78 489zM831 1632l242 281h232l-304 -281h-170z" />
<glyph unicode="&#xde;" horiz-adv-x="1124" d="M104 0l236 1493h238l-46 -289h338q96 0 160 -40t90 -89q51 -94 51 -209q0 -49 -10 -117.5t-26.5 -131t-40 -107.5t-47 -79t-56.5 -54.5t-60.5 -33.5t-66.5 -21q-68 -10 -164 -11q-197 0 -301 41l-57 -352h-238zM426 528h281q49 0 78.5 7.5t58.5 31.5q53 43 78 201 q6 31 6 49.5t-3 41t-6.5 46t-18.5 38.5t-26.5 24.5t-29.5 13.5q-31 6 -64 6h-282z" />
<glyph unicode="&#xdf;" horiz-adv-x="1169" d="M104 0l185 1159q51 334 356 414q86 23 199.5 22.5t204.5 -26.5q158 -51 208 -187q18 -47 18.5 -79.5t-3.5 -73.5t-27 -105q-49 -133 -155 -219q-18 -12 -78 -47t-86 -63q-37 -41 -37 -84t29.5 -69t79 -45t98.5 -44t73.5 -69t24.5 -77.5t-4 -58.5l-10 -74 q-31 -190 -195 -256q-84 -35 -155.5 -34.5t-110.5 2.5t-75 8t-59.5 9t-59.5 10t-44 10l27 174l278 -13q57 0 100.5 32t53.5 91l10 53q2 8 2 15q0 59 -106 98q-49 18 -97.5 41t-72 67t-23.5 78q0 141 66 222q47 57 188 139q125 82 125 225q0 70 -47 100.5t-171 30.5 t-198.5 -61.5t-99.5 -220.5l-174 -1094h-238z" />
<glyph unicode="&#xe0;" horiz-adv-x="1107" d="M145.5 327q-0.5 128 22 262t64.5 228t87.5 147.5t107.5 85t111.5 43t97.5 14.5t91 3t122 -9t175 -41t145 -79l-143 -979h-180l-37 115q-45 -47 -147.5 -88t-194.5 -41t-155.5 28.5t-110.5 100.5q-55 82 -55.5 210zM381 388.5q0 -64.5 16 -107.5q29 -84 126.5 -84 t163 24.5t142.5 75.5l89 586q-98 31 -167 30.5t-105 -7.5t-59.5 -15t-56 -30.5t-55.5 -59.5q-51 -90 -78 -260q-16 -88 -16 -152.5zM414 1513h219l180 -280h-170z" />
<glyph unicode="&#xe1;" horiz-adv-x="1107" d="M145.5 327q-0.5 128 22 262t64.5 228t87.5 147.5t107.5 85t111.5 43t97.5 14.5t91 3t122 -9t175 -41t145 -79l-143 -979h-180l-37 115q-45 -47 -147.5 -88t-194.5 -41t-155.5 28.5t-110.5 100.5q-55 82 -55.5 210zM381 388.5q0 -64.5 16 -107.5q29 -84 126.5 -84 t163 24.5t142.5 75.5l89 586q-98 31 -167 30.5t-105 -7.5t-59.5 -15t-56 -30.5t-55.5 -59.5q-51 -90 -78 -260q-16 -88 -16 -152.5zM655 1233l244 280h229l-303 -280h-170z" />
<glyph unicode="&#xe2;" horiz-adv-x="1107" d="M145.5 327q-0.5 128 22 262t64.5 228t87.5 147.5t107.5 85t111.5 43t97.5 14.5t91 3t122 -9t175 -41t145 -79l-143 -979h-180l-37 115q-45 -47 -147.5 -88t-194.5 -41t-155.5 28.5t-110.5 100.5q-55 82 -55.5 210zM381 388.5q0 -64.5 16 -107.5q29 -84 126.5 -84 t163 24.5t142.5 75.5l89 586q-98 31 -167 30.5t-105 -7.5t-59.5 -15t-56 -30.5t-55.5 -59.5q-51 -90 -78 -260q-16 -88 -16 -152.5zM418 1233l272 274h189l159 -274h-166l-98 147l-162 -147h-194z" />
<glyph unicode="&#xe3;" horiz-adv-x="1107" d="M145.5 327q-0.5 128 22 262t64.5 228t87.5 147.5t107.5 85t111.5 43t97.5 14.5t91 3t122 -9t175 -41t145 -79l-143 -979h-180l-37 115q-45 -47 -147.5 -88t-194.5 -41t-155.5 28.5t-110.5 100.5q-55 82 -55.5 210zM381 388.5q0 -64.5 16 -107.5q29 -84 126.5 -84 t163 24.5t142.5 75.5l89 586q-98 31 -167 30.5t-105 -7.5t-59.5 -15t-56 -30.5t-55.5 -59.5q-51 -90 -78 -260q-16 -88 -16 -152.5zM403 1335q78 66 140.5 103t121 36t120 -35t78 -35t38 -1t89 27.5t91.5 48.5l29 -111q-2 -2 -30.5 -24.5t-37 -28.5t-34 -23.5t-39 -23.5 t-35.5 -17q-90 -41 -197 19q-61 35 -96 35t-62.5 -7.5t-48 -16.5t-29.5 -13t-33 -17.5t-32 -17.5z" />
<glyph unicode="&#xe4;" horiz-adv-x="1107" d="M145.5 327q-0.5 128 22 262t64.5 228t87.5 147.5t107.5 85t111.5 43t97.5 14.5t91 3t122 -9t175 -41t145 -79l-143 -979h-180l-37 115q-45 -47 -147.5 -88t-194.5 -41t-155.5 28.5t-110.5 100.5q-55 82 -55.5 210zM369 1317q0 72 44 108.5t91 36.5t71.5 -29.5t24.5 -52.5 q0 -72 -43 -109.5t-90 -37.5t-72.5 30.5t-25.5 53.5zM381 388.5q0 -64.5 16 -107.5q29 -84 126.5 -84t163 24.5t142.5 75.5l89 586q-98 31 -167 30.5t-105 -7.5t-59.5 -15t-56 -30.5t-55.5 -59.5q-51 -90 -78 -260q-16 -88 -16 -152.5zM891 1317q0 72 44 108.5t91 36.5 t71.5 -29.5t24.5 -52.5q0 -72 -43 -109.5t-90 -37.5t-72.5 30.5t-25.5 53.5z" />
<glyph unicode="&#xe5;" horiz-adv-x="1107" d="M145.5 327q-0.5 128 22 262t64.5 228t87.5 147.5t107.5 85t111.5 43t97.5 14.5t91 3t122 -9t175 -41t145 -79l-143 -979h-180l-37 115q-45 -47 -147.5 -88t-194.5 -41t-155.5 28.5t-110.5 100.5q-55 82 -55.5 210zM381 388.5q0 -64.5 16 -107.5q29 -84 126.5 -84 t163 24.5t142.5 75.5l89 586q-98 31 -167 30.5t-105 -7.5t-59.5 -15t-56 -30.5t-55.5 -59.5q-51 -90 -78 -260q-16 -88 -16 -152.5zM565 1421q0 98 76 168q66 62 152 62t138 -57.5t52 -131.5q0 -70 -35 -123q-70 -106 -188 -106q-88 0 -141.5 57.5t-53.5 130.5zM678 1437 q0 -40 24.5 -65.5t64.5 -25.5t71 26q35 33 34.5 73t-25 66.5t-64.5 26.5t-72.5 -30.5t-32.5 -70.5z" />
<glyph unicode="&#xe6;" horiz-adv-x="1777" d="M86 335q0 126 19.5 234.5t41 178t49 120t55.5 89t62.5 63t64.5 41t68 26.5q98 23 185 23q236 0 381 -78q116 76 319 76q422 0 422 -277q0 -133 -59.5 -222t-134.5 -126q-150 -72 -306 -71q-78 0 -148.5 9t-92.5 19q-10 -63 -10.5 -116.5t18.5 -83.5q33 -53 143 -56 q39 -2 140.5 -2t322.5 35l-29 -172q-211 -61 -454 -61q-43 0 -84 2q-184 6 -252 143q-59 -63 -180 -103t-215.5 -40t-159 31.5t-111.5 105.5q-55 86 -55 212zM322 381q0 -64 12 -100q29 -86 143 -86q84 0 169 23.5t120 62.5q-2 31 -2 102.5t30.5 237.5t79.5 256 q-121 35 -189.5 34.5t-100 -6.5t-55 -14t-56.5 -31.5t-53 -60.5q-53 -88 -80 -260q-18 -94 -18 -158zM1032 600q53 -6 103.5 -6t83 1t87 11t94.5 28.5t70 53.5q43 47 43 109.5t-37.5 86t-148.5 23.5q-147 0 -205 -67q-51 -59 -73 -156q-4 -20 -9.5 -48t-7.5 -36z" />
<glyph unicode="&#xe7;" horiz-adv-x="1011" d="M152 337q0 118 19 232.5t47 204.5t62.5 147.5t69.5 94.5t82 54t88 23.5t118 6.5t213 -15.5t245 -48.5l-25 -153q-225 16 -340 16t-138.5 -4t-55 -22.5t-50.5 -55.5q-47 -92 -79 -278q-18 -125 -18.5 -186.5t20 -98.5t53.5 -51.5t102 -14.5q152 0 348 17l66 4l-25 -156 q-80 -33 -176 -48t-143 -16t-99.5 -1h-80.5q-170 2 -252 143q-51 88 -51 206zM276 -362l17 106l102 31q43 16 59.5 49t26.5 100h174q-27 -160 -84 -223t-184 -63h-111z" />
<glyph unicode="&#xe8;" horiz-adv-x="1077" d="M143 341q0 116 23.5 242t46.5 197.5t61.5 139t96.5 106.5q123 82 350 82q412 0 412 -274q0 -135 -59.5 -224.5t-137.5 -126.5q-147 -72 -305 -71q-78 0 -147.5 9t-94.5 19q-10 -61 -10 -96q0 -104 51 -137q37 -20 94.5 -22.5t162 -2.5t323.5 35l-27 -172 q-211 -61 -461 -61q-43 0 -86 2q-195 6 -258 157q-35 82 -35 198zM412 600q53 -6 101 -6t87 2t74 8t72.5 19.5t66.5 31.5q80 53 80 152q0 55 -33 72q-49 29 -153 28q-147 0 -207 -67q-51 -59 -72 -156q-4 -20 -10 -48t-6 -36zM424 1511h221l178 -280h-170z" />
<glyph unicode="&#xe9;" horiz-adv-x="1077" d="M143 341q0 116 23.5 242t46.5 197.5t61.5 139t96.5 106.5q123 82 350 82q412 0 412 -274q0 -135 -59.5 -224.5t-137.5 -126.5q-147 -72 -305 -71q-78 0 -147.5 9t-94.5 19q-10 -61 -10 -96q0 -104 51 -137q37 -20 94.5 -22.5t162 -2.5t323.5 35l-27 -172 q-211 -61 -461 -61q-43 0 -86 2q-195 6 -258 157q-35 82 -35 198zM412 600q53 -6 101 -6t87 2t74 8t72.5 19.5t66.5 31.5q80 53 80 152q0 55 -33 72q-49 29 -153 28q-147 0 -207 -67q-51 -59 -72 -156q-4 -20 -10 -48t-6 -36zM653 1231l244 280h229l-303 -280h-170z" />
<glyph unicode="&#xea;" horiz-adv-x="1077" d="M143 341q0 116 23.5 242t46.5 197.5t61.5 139t96.5 106.5q123 82 350 82q412 0 412 -274q0 -135 -59.5 -224.5t-137.5 -126.5q-147 -72 -305 -71q-78 0 -147.5 9t-94.5 19q-10 -61 -10 -96q0 -104 51 -137q37 -20 94.5 -22.5t162 -2.5t323.5 35l-27 -172 q-211 -61 -461 -61q-43 0 -86 2q-195 6 -258 157q-35 82 -35 198zM412 600q53 -6 101 -6t87 2t74 8t72.5 19.5t66.5 31.5q80 53 80 152q0 55 -33 72q-49 29 -153 28q-147 0 -207 -67q-51 -59 -72 -156q-4 -20 -10 -48t-6 -36zM430 1231l270 272h189l160 -272h-166l-99 147 l-161 -147h-193z" />
<glyph unicode="&#xeb;" horiz-adv-x="1077" d="M143 341q0 116 23.5 242t46.5 197.5t61.5 139t96.5 106.5q123 82 350 82q412 0 412 -274q0 -135 -59.5 -224.5t-137.5 -126.5q-147 -72 -305 -71q-78 0 -147.5 9t-94.5 19q-10 -61 -10 -96q0 -104 51 -137q37 -20 94.5 -22.5t162 -2.5t323.5 35l-27 -172 q-211 -61 -461 -61q-43 0 -86 2q-195 6 -258 157q-35 82 -35 198zM381 1315q0 72 43 107.5t91 35.5t72.5 -28.5t24.5 -51t-3 -39t-15 -38t-29 -35.5q-39 -35 -86 -35t-72.5 30.5t-25.5 53.5zM412 600q53 -6 101 -6t87 2t74 8t72.5 19.5t66.5 31.5q80 53 80 152q0 55 -33 72 q-49 29 -153 28q-147 0 -207 -67q-51 -59 -72 -156q-4 -20 -10 -48t-6 -36zM903 1315q0 72 43 107.5t91 35.5t73 -28.5t25 -51t-3.5 -39t-15.5 -38t-29 -35.5q-39 -35 -86 -35t-72.5 30.5t-25.5 53.5z" />
<glyph unicode="&#xec;" horiz-adv-x="438" d="M90 1503h219l180 -280h-170zM94 0l172 1087h238l-172 -1087h-238z" />
<glyph unicode="&#xed;" horiz-adv-x="438" d="M94 0l172 1087h238l-172 -1087h-238zM317 1223l242 280h232l-304 -280h-170z" />
<glyph unicode="&#xee;" horiz-adv-x="438" d="M90 1223l270 274h189l162 -274h-168l-97 147l-161 -147h-195zM94 0l172 1087h238l-172 -1087h-238z" />
<glyph unicode="&#xef;" horiz-adv-x="438" d="M37 1307q0 72 43 108.5t91 36.5t72.5 -29.5t24.5 -52.5q0 -72 -43 -109.5t-90 -37.5t-72.5 30.5t-25.5 53.5zM94 0l172 1087h238l-172 -1087h-238zM560 1337q7 47 46 81t87 34t73 -29.5t25 -52.5q0 -72 -43 -109.5t-79 -37.5t-55.5 9t-31.5 25q-29 33 -22 80z" />
<glyph unicode="&#xf0;" horiz-adv-x="1101" d="M133 379q0 82 17 170q49 285 152.5 411.5t307.5 126.5h152q117 0 145 -22q-20 139 -94 223l-272 -112l-37 120l186 76q-78 35 -211 35h-43l31 197q313 0 471 -123l221 92l39 -121l-168 -68q121 -170 121 -491q0 -170 -39 -415t-146.5 -361.5t-306.5 -116.5h-221 q-305 0 -305 379zM373 358q0 -98 61 -125q23 -8 43.5 -8h24.5h162h23.5t49 9.5t56.5 39.5q55 59 86 258q20 117 20 177.5t-10 87.5q-23 68 -127 67h-152q-61 0 -98 -24q-82 -54 -125 -308q-14 -121 -14 -174z" />
<glyph unicode="&#xf1;" horiz-adv-x="1120" d="M104 0l172 1087h185l35 -120q6 4 49 29.5t83 47t111.5 42t151.5 20.5t141 -31q104 -51 127 -198q2 -27 2 -62t-8 -78l-117 -737h-237l116 739q4 25 5 47q0 119 -121 119q-119 0 -217 -45q-45 -20 -113 -57l-127 -803h-238zM428 1331q78 66 141.5 102.5t122 35.5 t118.5 -34.5t76.5 -34.5t38 -1t89 26.5t92.5 47.5l31 -109q-4 -2 -33 -24.5t-37 -28.5t-33.5 -23.5t-39 -24t-36.5 -16.5q-90 -43 -196 19q-61 35 -96 34.5t-63 -7.5t-48 -16t-29.5 -13t-33 -17.5t-31.5 -17.5z" />
<glyph unicode="&#xf2;" horiz-adv-x="1146" d="M152 373q0 78 21.5 210t62 237.5t110.5 169t163 87t234 23.5q264 0 359 -144q61 -92 61 -256q0 -86 -16 -190q-49 -303 -167 -411.5t-391.5 -108.5t-371.5 131q-66 90 -65 252zM389 377.5q0 -62.5 12.5 -99t42.5 -55.5q49 -33 142.5 -31.5t134.5 9.5t81 41.5t64.5 101.5 t40.5 174q20 121 20.5 180.5t-8 98.5t-36.5 61q-49 41 -146.5 41t-142.5 -12.5t-84 -51t-61.5 -110.5t-41 -178.5t-18.5 -169zM440 1503h219l181 -280h-170z" />
<glyph unicode="&#xf3;" horiz-adv-x="1146" d="M152 373q0 78 21.5 210t62 237.5t110.5 169t163 87t234 23.5q264 0 359 -144q61 -92 61 -256q0 -86 -16 -190q-49 -303 -167 -411.5t-391.5 -108.5t-371.5 131q-66 90 -65 252zM389 377.5q0 -62.5 12.5 -99t42.5 -55.5q49 -33 142.5 -31.5t134.5 9.5t81 41.5t64.5 101.5 t40.5 174q20 121 20.5 180.5t-8 98.5t-36.5 61q-49 41 -146.5 41t-142.5 -12.5t-84 -51t-61.5 -110.5t-41 -178.5t-18.5 -169zM674 1223l244 280h229l-303 -280h-170z" />
<glyph unicode="&#xf4;" horiz-adv-x="1146" d="M152 373q0 78 21.5 210t62 237.5t110.5 169t163 87t234 23.5q264 0 359 -144q61 -92 61 -256q0 -86 -16 -190q-49 -303 -167 -411.5t-391.5 -108.5t-371.5 131q-66 90 -65 252zM389 377.5q0 -62.5 12.5 -99t42.5 -55.5q49 -33 142.5 -31.5t134.5 9.5t81 41.5t64.5 101.5 t40.5 174q20 121 20.5 180.5t-8 98.5t-36.5 61q-49 41 -146.5 41t-142.5 -12.5t-84 -51t-61.5 -110.5t-41 -178.5t-18.5 -169zM442 1223l273 274h188l160 -274h-166l-98 147l-162 -147h-195z" />
<glyph unicode="&#xf5;" horiz-adv-x="1146" d="M152 373q0 78 21.5 210t62 237.5t110.5 169t163 87t234 23.5q264 0 359 -144q61 -92 61 -256q0 -86 -16 -190q-49 -303 -167 -411.5t-391.5 -108.5t-371.5 131q-66 90 -65 252zM389 377.5q0 -62.5 12.5 -99t42.5 -55.5q49 -33 142.5 -31.5t134.5 9.5t81 41.5t64.5 101.5 t40.5 174q20 121 20.5 180.5t-8 98.5t-36.5 61q-49 41 -146.5 41t-142.5 -12.5t-84 -51t-61.5 -110.5t-41 -178.5t-18.5 -169zM422 1325q76 66 139.5 102.5t121.5 35.5t119.5 -34.5t77 -34.5t31 -1t58.5 14q90 29 129 59l30 -108q-8 -4 -29.5 -21.5t-30.5 -24.5t-29.5 -22.5 t-33 -21.5t-32 -16.5t-33.5 -16.5q-39 -12 -82 -11t-104.5 35.5t-96 34.5t-62.5 -7t-48.5 -16t-29.5 -13.5t-32.5 -17.5t-31.5 -17z" />
<glyph unicode="&#xf6;" horiz-adv-x="1146" d="M152 373q0 78 21.5 210t62 237.5t110.5 169t163 87t234 23.5q264 0 359 -144q61 -92 61 -256q0 -86 -16 -190q-49 -303 -167 -411.5t-391.5 -108.5t-371.5 131q-66 90 -65 252zM389 377.5q0 -62.5 12.5 -99t42.5 -55.5q49 -33 142.5 -31.5t134.5 9.5t81 41.5t64.5 101.5 t40.5 174q20 121 20.5 180.5t-8 98.5t-36.5 61q-49 41 -146.5 41t-142.5 -12.5t-84 -51t-61.5 -110.5t-41 -178.5t-18.5 -169zM399 1307q0 72 44 108.5t91.5 36.5t72 -29.5t24.5 -52.5q0 -72 -43 -109.5t-90 -37.5t-73 30.5t-26 53.5zM922.5 1337q7.5 47 47.5 81t87 34 t71.5 -29.5t24.5 -52.5q0 -72 -43 -109.5t-78 -37.5t-55.5 9t-32.5 25q-29 33 -21.5 80z" />
<glyph unicode="&#xf7;" horiz-adv-x="1032" d="M184 618l33 209h860l-33 -209h-860zM451 330l22 129q6 49 57 49h134q41 0 41 -37v-12l-23 -129q-6 -47 -55 -47h-133q-20 0 -32.5 13t-10.5 34zM555 975l18 127q9 51 58 51h133q43 0 43 -37q0 -6 -2 -14l-19 -127q-8 -47 -57 -47h-133q-23 0 -34 12t-7 35z" />
<glyph unicode="&#xf8;" horiz-adv-x="1150" d="M74 0l129 137q-49 82 -49 193.5t21.5 247t62.5 242t111.5 169t162.5 86t258 23.5t266 -66l49 55h150l-123 -133q57 -88 57 -243q0 -88 -18 -199q-49 -303 -168 -412.5t-395 -109.5q-209 0 -314 71l-57 -61h-143zM397.5 421q-0.5 -44 8.5 -71l466 512q-43 33 -130 33 t-125.5 -7t-73.5 -27.5t-58 -61.5q-47 -86 -77 -271q-10 -63 -10.5 -107zM438 233q41 -43 143.5 -43t143.5 9.5t81 43t63.5 101.5t40 165t16.5 152.5t-13 88.5z" />
<glyph unicode="&#xf9;" horiz-adv-x="1118" d="M135 258q0 43 8 94l115 735h238l-117 -739q-4 -29 -4 -66.5t26.5 -67.5t107.5 -30t148.5 22.5t169.5 80.5l125 800h238l-172 -1087h-187l-30 119q-78 -47 -121 -70.5t-117 -45t-151 -21.5q-170 0 -232 100q-45 72 -45 176zM432 1503h219l180 -280h-169z" />
<glyph unicode="&#xfa;" horiz-adv-x="1118" d="M135 258q0 43 8 94l115 735h238l-117 -739q-4 -29 -4 -66.5t26.5 -67.5t107.5 -30t148.5 22.5t169.5 80.5l125 800h238l-172 -1087h-187l-30 119q-78 -47 -121 -70.5t-117 -45t-151 -21.5q-170 0 -232 100q-45 72 -45 176zM662 1223l241 280h230l-302 -280h-169z" />
<glyph unicode="&#xfb;" horiz-adv-x="1118" d="M135 258q0 43 8 94l115 735h238l-117 -739q-4 -29 -4 -66.5t26.5 -67.5t107.5 -30t148.5 22.5t169.5 80.5l125 800h238l-172 -1087h-187l-30 119q-78 -47 -121 -70.5t-117 -45t-151 -21.5q-170 0 -232 100q-45 72 -45 176zM436 1223l273 274h188l160 -274h-166l-98 147 l-162 -147h-195z" />
<glyph unicode="&#xfc;" horiz-adv-x="1118" d="M135 258q0 43 8 94l115 735h238l-117 -739q-4 -29 -4 -66.5t26.5 -67.5t107.5 -30t148.5 22.5t169.5 80.5l125 800h238l-172 -1087h-187l-30 119q-78 -47 -121 -70.5t-117 -45t-151 -21.5q-170 0 -232 100q-45 72 -45 176zM387 1307q0 72 44 108.5t91 36.5t71.5 -29.5 t24.5 -52.5q0 -72 -43 -109.5t-90 -37.5t-72.5 30.5t-25.5 53.5zM910.5 1337q7.5 47 47 81t87 34t72 -29.5t24.5 -52.5q0 -72 -43 -109.5t-78 -37.5t-54.5 9t-33.5 25q-29 33 -21.5 80z" />
<glyph unicode="&#xfd;" horiz-adv-x="1142" d="M180 1087h246l90 -792q8 -53 59 -74q8 -2 15.5 -3t14.5 -2t13.5 -1h10.5h6l317 670q37 80 54 207h213q10 -41 10 -84q0 -92 -47 -195l-387 -811q-205 -434 -486 -545q-55 -23 -116 -32v167q121 70 200.5 171.5t149.5 236.5q-100 0 -173 60.5t-89 197.5zM643 1214l242 279 h231l-303 -279h-170z" />
<glyph unicode="&#xfe;" horiz-adv-x="1132" d="M33 -553l344 2155h237l-102 -635q116 81 270 118q57 12 125 12.5t129 -46.5q111 -84 129 -312q4 -31 4 -84t-12 -123.5t-21.5 -117.5t-26.5 -107.5t-38.5 -104.5t-55.5 -89t-77 -74q-94 -63 -229 -64q-76 0 -173.5 20.5t-168.5 57.5l-97 -606h-237zM393 217 q53 -18 84 -23.5t40 -7.5t30.5 -4t28 -2t29 -2t25.5 -2t28 -1l26 -1q84 0 143.5 78t87.5 287q11 80 11 143q0 207 -115 207q-139 0 -324 -84z" />
<glyph unicode="&#xff;" horiz-adv-x="1142" d="M180 1087h246l90 -792q8 -53 59 -74q8 -2 15.5 -3t14.5 -2t13.5 -1h10.5h6l317 670q37 80 54 207h213q10 -41 10 -84q0 -92 -47 -195l-387 -811q-205 -434 -486 -545q-55 -23 -116 -32v167q121 70 200.5 171.5t149.5 236.5q-100 0 -173 60.5t-89 197.5zM373 1305.5 q8 56.5 47 89t87 32.5t72.5 -29.5t24.5 -49.5q0 -72 -43 -110t-82 -38t-63 14q-51 35 -43 91.5zM895 1282q0 72 43 108.5t91 36.5t72.5 -29.5t24.5 -49.5q0 -72 -43 -110t-90 -38t-72.5 30t-25.5 52z" />
<glyph unicode="&#x100;" horiz-adv-x="1386" d="M78 0l760 1499h262l264 -1499h-242l-67 362h-531l-184 -362h-262zM627 580h399l-100 606zM692 1632l23 150h598l-23 -150h-598z" />
<glyph unicode="&#x101;" horiz-adv-x="1107" d="M145.5 327q-0.5 128 22 262t64.5 228t87.5 147.5t107.5 85t111.5 43t97.5 14.5t91 3t122 -9t175 -41t145 -79l-143 -979h-180l-37 115q-45 -47 -147.5 -88t-194.5 -41t-155.5 28.5t-110.5 100.5q-55 82 -55.5 210zM381 388.5q0 -64.5 16 -107.5q29 -84 126.5 -84 t163 24.5t142.5 75.5l89 586q-98 31 -167 30.5t-105 -7.5t-59.5 -15t-56 -30.5t-55.5 -59.5q-51 -90 -78 -260q-16 -88 -16 -152.5zM430 1233l25 151h598l-25 -151h-598z" />
<glyph unicode="&#x102;" horiz-adv-x="1386" d="M78 0l760 1499h262l264 -1499h-242l-67 362h-531l-184 -362h-262zM627 580h399l-100 606zM793 1839q0 12 2 25h108q-2 -10 -2 -37t26.5 -56.5t78.5 -29.5h4q125 0 141 123h111q-29 -231 -256 -232q-94 0 -153.5 59.5t-59.5 147.5z" />
<glyph unicode="&#x103;" horiz-adv-x="1107" d="M145.5 327q-0.5 128 22 262t64.5 228t87.5 147.5t107.5 85t111.5 43t97.5 14.5t91 3t122 -9t175 -41t145 -79l-143 -979h-180l-37 115q-45 -47 -147.5 -88t-194.5 -41t-155.5 28.5t-110.5 100.5q-55 82 -55.5 210zM381 388.5q0 -64.5 16 -107.5q29 -84 126.5 -84 t163 24.5t142.5 75.5l89 586q-98 31 -167 30.5t-105 -7.5t-59.5 -15t-56 -30.5t-55.5 -59.5q-51 -90 -78 -260q-16 -88 -16 -152.5zM530 1442v24h109v-36.5t26.5 -56.5t77.5 -30h5q123 0 141 123h108q-14 -115 -79.5 -173t-168 -58t-161 59.5t-58.5 147.5z" />
<glyph unicode="&#x104;" horiz-adv-x="1517" d="M213 0l760 1499h264l262 -1499h-242l-67 362h-531l-184 -362h-262zM762 580h401l-100 606zM1149 -221q0 139 186 221h103q-133 -92 -133 -166q0 -68 92 -67h16l-22 -144q-29 -6 -56 -6q-78 0 -132 48t-54 114z" />
<glyph unicode="&#x105;" horiz-adv-x="1032" d="M115 327q0 128 22.5 262t64.5 228t88 147.5t108.5 85t111.5 43t96 14.5t114.5 3t207 -29.5t213.5 -99.5l-144 -979h-180l-37 115q-47 -47 -148.5 -88t-193.5 -41t-156.5 28.5t-111.5 100.5q-55 82 -55 210zM352.5 388.5q-0.5 -64.5 14.5 -107.5q31 -84 128 -84 t161.5 24.5t144.5 75.5l88 586q-98 31 -167 30.5t-104.5 -7.5t-59 -15t-56.5 -30.5t-56 -59.5q-51 -90 -77 -260q-16 -88 -16.5 -152.5zM670 -221q0 139 186 221h102q-133 -92 -133 -166q0 -68 93 -67h16l-23 -144q-31 -6 -55 -6q-78 0 -132 48t-54 114z" />
<glyph unicode="&#x106;" horiz-adv-x="1173" d="M195 524q0 238 77 514q70 246 195 357q139 121 382 121t497 -70l-31 -186q-242 33 -434 32h-22.5h-26t-34 -1t-47 -6t-49 -14t-47 -27.5t-48 -45.5t-44 -67.5t-41.5 -94.5q-43 -125 -66.5 -267t-23.5 -243.5t27 -171.5q49 -135 213 -143h131t354 16l-29 -186 q-176 -53 -483 -53q-152 0 -233 45q-217 115 -217 491zM836 1638l241 279h230l-301 -279h-170z" />
<glyph unicode="&#x107;" horiz-adv-x="1009" d="M152 337q0 118 21.5 245t57 227t74.5 156.5t93.5 88t102.5 41t126 9.5t222 -17.5t247 -46.5l-25 -153q-225 16 -339 16t-139.5 -4t-56 -23.5t-49.5 -58.5q-47 -90 -79 -278q-18 -125 -18.5 -186.5t20 -98.5t53.5 -51.5t102 -14.5q152 0 348 17l66 4l-25 -156 q-121 -39 -223 -52t-179 -13h-97q-170 2 -252 143q-51 88 -51 206zM637 1225l244 280h229l-303 -280h-170z" />
<glyph unicode="&#x108;" horiz-adv-x="1173" d="M195 524q0 238 77 514q70 246 195 357q139 121 382 121t497 -70l-31 -186q-242 33 -434 32h-22.5h-26t-34 -1t-47 -6t-49 -14t-47 -27.5t-48 -45.5t-44 -67.5t-41.5 -94.5q-43 -125 -66.5 -267t-23.5 -243.5t27 -171.5q49 -135 213 -143h131t354 16l-29 -186 q-176 -53 -483 -53q-152 0 -233 45q-217 115 -217 491zM598 1638l272 275h189l160 -275h-166l-99 148l-161 -148h-195z" />
<glyph unicode="&#x109;" horiz-adv-x="1009" d="M150 337q0 118 21.5 245t57 227t74.5 156.5t93.5 88t102.5 41t125.5 9.5t221 -17.5t248.5 -46.5l-25 -153q-227 16 -341 16t-138.5 -4t-55 -23.5t-51.5 -58.5q-45 -90 -80 -278q-18 -125 -18 -186.5t21.5 -98.5t54.5 -51.5t100 -14.5q154 0 350 17l66 4l-25 -156 q-199 -66 -454 -65h-47q-168 2 -250 143q-51 88 -51 206zM422 1225l270 274h189l159 -274h-166l-98 147l-160 -147h-194z" />
<glyph unicode="&#x10a;" horiz-adv-x="1173" d="M195 524q0 238 77 514q70 246 195 357q139 121 382 121t497 -70l-31 -186q-242 33 -434 32h-22.5h-26t-34 -1t-47 -6t-49 -14t-47 -27.5t-48 -45.5t-44 -67.5t-41.5 -94.5q-43 -125 -66.5 -267t-23.5 -243.5t27 -171.5q49 -135 213 -143h131t354 16l-29 -186 q-176 -53 -483 -53q-152 0 -233 45q-217 115 -217 491zM782 1686l23 139q8 51 57 51h131q47 0 39 -51l-22 -139q-6 -47 -54 -48h-131q-23 0 -34 13.5t-9 34.5z" />
<glyph unicode="&#x10b;" horiz-adv-x="1009" d="M150 337q0 118 21.5 245t57 227t74.5 156.5t93.5 88t102.5 41t125.5 9.5t221 -17.5t248.5 -46.5l-25 -153q-227 16 -341 16t-138.5 -4t-55 -23.5t-51.5 -58.5q-45 -90 -80 -278q-18 -125 -18 -186.5t21.5 -98.5t54.5 -51.5t100 -14.5q154 0 350 17l66 4l-25 -156 q-199 -66 -454 -65h-47q-168 2 -250 143q-51 88 -51 206zM627 1272l22 139q9 51 58 51h131q47 0 39 -51l-23 -139q-6 -47 -53 -47h-131q-20 0 -32.5 13t-10.5 34z" />
<glyph unicode="&#x10c;" horiz-adv-x="1173" d="M195 524q0 238 77 514q70 246 195 357q139 121 382 121t497 -70l-31 -186q-242 33 -434 32h-22.5h-26t-34 -1t-47 -6t-49 -14t-47 -27.5t-48 -45.5t-44 -67.5t-41.5 -94.5q-43 -125 -66.5 -267t-23.5 -243.5t27 -171.5q49 -135 213 -143h131t354 16l-29 -186 q-176 -53 -483 -53q-152 0 -233 45q-217 115 -217 491zM670 1913h166l100 -148l160 148h192l-270 -275h-184z" />
<glyph unicode="&#x10d;" horiz-adv-x="1009" d="M150 337q0 118 21.5 245t57 227t74.5 156.5t93.5 88t102.5 41t125.5 9.5t221 -17.5t248.5 -46.5l-25 -153q-227 16 -341 16t-138.5 -4t-55 -23.5t-51.5 -58.5q-45 -90 -80 -278q-18 -125 -18 -186.5t21.5 -98.5t54.5 -51.5t100 -14.5q154 0 350 17l66 4l-25 -156 q-199 -66 -454 -65h-47q-168 2 -250 143q-51 88 -51 206zM481 1499h168l101 -147l157 147h195l-271 -274h-186z" />
<glyph unicode="&#x10e;" horiz-adv-x="1351" d="M160 0l237 1497q0 2 590 2q215 0 316 -131q98 -127 110 -301q4 -57 4 -100q0 -123 -20 -246q-59 -369 -210 -545t-425 -176h-602zM432 219h340q156 0 253 143.5t136 382.5q20 131 21 240q0 297 -248 297h-334zM662 1898h165l101 -147l159 147h193l-270 -272h-185z" />
<glyph unicode="&#x10f;" horiz-adv-x="1423" d="M151.5 361.5q0.5 105.5 16.5 203t36.5 175t55.5 149.5t81 117t114.5 71.5t150.5 26.5t180.5 -20.5t171.5 -55.5l93 580h235l-256 -1608h-188l-31 113q-63 -45 -165.5 -85t-197 -40t-162 45t-96.5 123q-39 100 -38.5 205.5zM393 393q0 -195 127 -194q160 0 318 77l92 584 q-133 45 -299 45q-55 0 -92 -26q-86 -59 -131 -334q-15 -86 -15 -152zM1378 1188l23 274l20 137h181l-21 -137l-65 -274h-138z" />
<glyph unicode="&#x110;" horiz-adv-x="1347" d="M156 700l20 127h133l107 670q0 2 594 2q215 0 313 -133q98 -131 111 -305q2 -53 2 -96q0 -123 -19 -244q-61 -360 -210.5 -540.5t-420.5 -180.5h-608l111 700h-133zM449 219h344q154 0 250 143.5t135 382.5q20 135 20 242q0 295 -237 295h-343l-71 -455h248l-21 -127 h-248z" />
<glyph unicode="&#x111;" horiz-adv-x="1132" d="M151.5 363.5q0.5 105.5 19.5 216t47 202.5t79 170q96 152 299 152t362 -76l33 219h-229l20 125h232l37 236h235l-37 -236h137l-20 -125h-137l-199 -1247h-188l-31 113q-63 -45 -165.5 -85t-197 -40t-162 45t-96.5 123q-39 102 -38.5 207.5zM393 393q0 -195 127 -194 q160 0 318 77l92 584q-133 45 -299 45q-55 0 -92 -26q-86 -59 -131 -334q-15 -86 -15 -152z" />
<glyph unicode="&#x112;" horiz-adv-x="1150" d="M172 225q0 29 4 62l148 925q44 287 329 287q8 0 290 -10t364 -23l-31 -194h-598q-74 0 -98 -37q-20 -31 -27 -78l-47 -295l612 -20l-31 -195l-618 -18l-47 -301q-12 -78 29 -95q31 -12 81 -12h580l-33 -192q-68 -8 -487 -29l-139 -6h-39t-74 12q-168 43 -168 219z M567 1622l25 152h598l-25 -152h-598z" />
<glyph unicode="&#x113;" horiz-adv-x="1077" d="M143 341q0 116 23.5 242t46.5 197.5t61.5 139t96.5 106.5q123 82 350 82q412 0 412 -274q0 -135 -59.5 -224.5t-137.5 -126.5q-147 -72 -305 -71q-78 0 -147.5 9t-94.5 19q-10 -61 -10 -96q0 -104 51 -137q37 -20 94.5 -22.5t162 -2.5t323.5 35l-27 -172 q-211 -61 -461 -61q-43 0 -86 2q-195 6 -258 157q-35 82 -35 198zM412 600q53 -6 101 -6t87 2t74 8t72.5 19.5t66.5 31.5q80 53 80 152q0 55 -33 72q-49 29 -153 28q-147 0 -207 -67q-51 -59 -72 -156q-4 -20 -10 -48t-6 -36zM436 1225l25 149h598l-25 -149h-598z" />
<glyph unicode="&#x116;" horiz-adv-x="1150" d="M172 225q0 29 4 62l148 925q44 287 329 287q8 0 290 -10t364 -23l-31 -194h-598q-74 0 -98 -37q-20 -31 -27 -78l-47 -295l612 -20l-31 -195l-618 -18l-47 -301q-12 -78 29 -95q31 -12 81 -12h580l-33 -192q-68 -8 -487 -29l-139 -6h-39t-74 12q-168 43 -168 219z M786 1679l23 140q6 51 57 51h131q47 0 39 -51l-22 -140q-6 -47 -53 -47h-132q-23 0 -35 13.5t-8 33.5z" />
<glyph unicode="&#x117;" horiz-adv-x="1077" d="M143 341q0 116 23.5 242t46.5 197.5t61.5 139t96.5 106.5q123 82 350 82q412 0 412 -274q0 -135 -59.5 -224.5t-137.5 -126.5q-147 -72 -305 -71q-78 0 -147.5 9t-94.5 19q-10 -61 -10 -96q0 -104 51 -137q37 -20 94.5 -22.5t162 -2.5t323.5 35l-27 -172 q-211 -61 -461 -61q-43 0 -86 2q-195 6 -258 157q-35 82 -35 198zM412 600q53 -6 101 -6t87 2t74 8t72.5 19.5t66.5 31.5q80 53 80 152q0 55 -33 72q-49 29 -153 28q-147 0 -207 -67q-51 -59 -72 -156q-4 -20 -10 -48t-6 -36zM633 1278l22 139q7 51 58 51h131q45 0 39 -51 l-23 -139q-6 -47 -53 -47h-131q-23 0 -35 13t-8 34z" />
<glyph unicode="&#x118;" horiz-adv-x="1144" d="M178 225q0 29 4 62l148 925q46 287 329 287q8 0 290 -10t364 -23l-31 -194h-598q-72 0 -98 -37q-18 -31 -27 -78l-47 -295l614 -20l-32 -195l-619 -18l-47 -301q-12 -78 29 -95q31 -12 84 -12h577l-33 -192q-68 -8 -487 -29l-139 -6h-38t-75 12q-168 43 -168 219z M797 -195q0 141 188 224h100q-133 -92 -133 -166q0 -68 95 -68h16l-25 -143q-29 -6 -55 -6q-78 0 -132 46.5t-54 112.5z" />
<glyph unicode="&#x119;" horiz-adv-x="1077" d="M145 341q0 116 20.5 225.5t36 165.5t37 112.5t50 94.5t68.5 71.5t92 54.5q110 43 274 43q412 0 412 -274q0 -135 -59.5 -224.5t-135.5 -126.5q-150 -72 -305 -71q-80 0 -149.5 9t-92.5 19q-10 -63 -10 -116.5t18 -83.5q33 -53 144 -56q39 -2 143.5 -2t325.5 35l-29 -172 q-211 -61 -459 -61q-43 0 -88 2q-195 6 -258 157q-35 82 -35 198zM414 600q49 -6 86 -6t92 1t116.5 15.5t116.5 53.5q70 53 70 143q0 53 -39 76.5t-147 23.5q-147 0 -205 -67q-51 -59 -74 -156q-4 -20 -9 -48t-7 -36zM696 -178q0 141 189 223h100q-133 -92 -133 -166 q0 -68 94 -67h17l-25 -144q-29 -6 -55 -6q-78 0 -132.5 47t-54.5 113z" />
<glyph unicode="&#x11a;" horiz-adv-x="1150" d="M172 225q0 29 4 62l148 925q44 287 329 287q8 0 290 -10t364 -23l-31 -194h-598q-74 0 -98 -37q-20 -31 -27 -78l-47 -295l612 -20l-31 -195l-618 -18l-47 -301q-12 -78 29 -95q31 -12 81 -12h580l-33 -192q-68 -8 -487 -29l-139 -6h-39t-74 12q-168 43 -168 219z M637 1905h166l102 -146l158 146h194l-272 -273h-184z" />
<glyph unicode="&#x11b;" horiz-adv-x="1077" d="M143 341q0 116 23.5 242t46.5 197.5t61.5 139t96.5 106.5q123 82 350 82q412 0 412 -274q0 -135 -59.5 -224.5t-137.5 -126.5q-147 -72 -305 -71q-78 0 -147.5 9t-94.5 19q-10 -61 -10 -96q0 -104 51 -137q37 -20 94.5 -22.5t162 -2.5t323.5 35l-27 -172 q-211 -61 -461 -61q-43 0 -86 2q-195 6 -258 157q-35 82 -35 198zM412 600q53 -6 101 -6t87 2t74 8t72.5 19.5t66.5 31.5q80 53 80 152q0 55 -33 72q-49 29 -153 28q-147 0 -207 -67q-51 -59 -72 -156q-4 -20 -10 -48t-6 -36zM485 1503h166l103 -145l157 145h195l-272 -272 h-185z" />
<glyph unicode="&#x11c;" horiz-adv-x="1253" d="M197 518q0 207 73 486q55 217 142 325q100 127 247 164q80 20 133.5 20h59.5q231 0 510 -65l-29 -184q-72 10 -223 22q-164 12 -238.5 12t-109.5 -6t-85 -36.5t-85 -86.5q-86 -135 -127 -419q-23 -138 -23 -242q0 -295 224 -295h2q66 0 144.5 26.5t123.5 53.5l47 26 l53 310h-260l25 153q145 49 366 49q63 0 138 -4l-131 -827h-175l-47 111q-53 -51 -145 -86q-100 -37 -213 -37t-193 45q-205 115 -204 485zM582 1636l272 275h188l160 -275h-166l-98 148l-162 -148h-194z" />
<glyph unicode="&#x11d;" horiz-adv-x="1136" d="M53 -508l25 158h485q78 0 134.5 50t70.5 144l35 226q-154 -78 -293 -78t-214 45t-108 125q-35 94 -34.5 206.5t18.5 221.5q43 262 163 388t306 126q295 0 557 -55l-194 -1225q-31 -203 -140.5 -293t-255.5 -90q-27 0 -57 2zM389 362q0 -172 150 -172q84 0 141 9.5 t149 38.5l109 671h-276q-195 0 -250 -344q-2 -4 -6 -35q-17 -109 -17 -168zM453 1227l270 274h188l160 -274h-166l-98 147l-162 -147h-192z" />
<glyph unicode="&#x11e;" horiz-adv-x="1253" d="M197 518q0 207 73 486q55 217 142 325q100 127 247 164q80 20 133.5 20h59.5q231 0 510 -65l-29 -184q-72 10 -223 22q-164 12 -238.5 12t-109.5 -6t-85 -36.5t-85 -86.5q-86 -135 -127 -419q-23 -138 -23 -242q0 -295 224 -295h2q66 0 144.5 26.5t123.5 53.5l47 26 l53 310h-260l25 153q145 49 366 49q63 0 138 -4l-131 -827h-175l-47 111q-53 -51 -145 -86q-100 -37 -213 -37t-193 45q-205 115 -204 485zM692 1843q0 12 2 27h109q-2 -12 -2 -29.5t12 -42.5q23 -53 94 -53h4q123 0 140 125h110q-14 -117 -80.5 -175.5t-168 -58.5 t-161 59.5t-59.5 147.5z" />
<glyph unicode="&#x11f;" horiz-adv-x="1136" d="M53 -508l25 158h485q78 0 134.5 50t70.5 144l35 226q-154 -78 -293 -78t-214 45t-108 125q-35 94 -34.5 206.5t18.5 221.5q43 262 163 388t306 126q295 0 557 -55l-194 -1225q-31 -203 -140.5 -293t-255.5 -90q-27 0 -57 2zM389 362q0 -172 150 -172q84 0 141 9.5 t149 38.5l109 671h-276q-195 0 -250 -344q-2 -4 -6 -35q-17 -109 -17 -168zM573 1434v24h111q-2 -10 -2 -36.5t26.5 -56.5t77.5 -30h5q125 0 141 123h108q-14 -115 -79.5 -173t-168 -58t-161 59.5t-58.5 147.5z" />
<glyph unicode="&#x120;" horiz-adv-x="1253" d="M197 518q0 207 73 486q55 217 142 325q100 127 247 164q80 20 133.5 20h59.5q231 0 510 -65l-29 -184q-72 10 -223 22q-164 12 -238.5 12t-109.5 -6t-85 -36.5t-85 -86.5q-86 -135 -127 -419q-23 -138 -23 -242q0 -295 224 -295h2q66 0 144.5 26.5t123.5 53.5l47 26 l53 310h-260l25 153q145 49 366 49q63 0 138 -4l-131 -827h-175l-47 111q-53 -51 -145 -86q-100 -37 -213 -37t-193 45q-205 115 -204 485zM795 1686l22 139q6 51 57 51h132q47 0 38 -51l-22 -139q-6 -47 -53 -48h-131q-23 0 -35 13.5t-8 34.5z" />
<glyph unicode="&#x121;" horiz-adv-x="1136" d="M53 -508l25 158h485q78 0 134.5 50t70.5 144l35 226q-154 -78 -293 -78t-214 45t-108 125q-35 94 -34.5 206.5t18.5 221.5q43 262 163 388t306 126q295 0 557 -55l-194 -1225q-31 -203 -140.5 -293t-255.5 -90q-27 0 -57 2zM389 362q0 -172 150 -172q84 0 141 9.5 t149 38.5l109 671h-276q-195 0 -250 -344q-2 -4 -6 -35q-17 -109 -17 -168zM676 1274l22 139q7 51 58 51h131q47 0 39 -51l-23 -139q-6 -47 -53 -47h-131q-23 0 -34 13t-9 34z" />
<glyph unicode="&#x122;" horiz-adv-x="1253" d="M197 518q0 207 73 486q55 217 142 325q100 127 247 164q80 20 133.5 20h59.5q231 0 510 -65l-29 -184q-72 10 -223 22q-164 12 -238.5 12t-109.5 -6t-85 -36.5t-85 -86.5q-86 -135 -127 -419q-23 -138 -23 -242q0 -295 224 -295h2q66 0 144.5 26.5t123.5 53.5l47 26 l53 310h-260l25 153q145 49 366 49q63 0 138 -4l-131 -827h-175l-47 111q-53 -51 -145 -86q-100 -37 -213 -37t-193 45q-205 115 -204 485zM522 -539l13 78q41 -2 49 12q12 20 16 39l6 33h-20q-20 0 -31.5 12.5t-7.5 32.5l20 139q8 49 56 50h133q37 0 37 -37q0 -6 -2 -13 l-33 -204q-8 -53 -35 -88q-47 -59 -150 -60q-16 0 -28 2z" />
<glyph unicode="&#x123;" horiz-adv-x="1191" d="M70 -508l26 158h486q78 0 133 50t71 144l35 226q-156 -78 -294 -78t-213.5 45t-106.5 125q-37 94 -37 206.5t20 221.5q43 262 163 388t304 126q147 0 307 -18.5t253 -36.5l-195 -1225q-33 -203 -141.5 -293t-253.5 -90q-29 0 -58 2zM408 362q0 -172 147 -172 q106 0 167.5 13.5t125.5 34.5l106 671h-274q-197 0 -252 -344q0 -4 -4 -35q-16 -109 -16 -168zM682 1260v14l31 205q8 53 36.5 88t61.5 46t55.5 13t35.5 2t28 -4l20 -4l-12 -78q-27 0 -41 -8q-20 -12 -25 -43l-6 -33h21q45 0 39 -45l-21 -139q-10 -49 -55 -49h-133 q-35 0 -35 35z" />
<glyph unicode="&#x124;" horiz-adv-x="1323" d="M145 0l238 1499h238l-107 -663h588l106 663h238l-238 -1499h-237l98 614h-588l-98 -614h-238zM627 1632l270 273h188l160 -273h-166l-98 148l-162 -148h-192z" />
<glyph unicode="&#x125;" horiz-adv-x="1120" d="M92 0l254 1604h238l-103 -637q6 4 39 23.5t63.5 35.5t81 38.5t100.5 32t121.5 9.5t133.5 -31q104 -51 127 -198q4 -27 4 -62t-10 -78l-117 -737h-238l117 739q4 25 4 47q0 119 -121 119q-92 0 -159.5 -23.5t-169.5 -78.5l-127 -803h-238zM160 1726l272 275h189l159 -275 h-166l-98 148l-162 -148h-194z" />
<glyph unicode="&#x126;" horiz-adv-x="1337" d="M145 0l168 1059h-127l19 125h127l51 315h238l-52 -315h588l51 315h238l-51 -315h125l-19 -125h-125l-168 -1059h-237l100 614h-588l-100 -614h-238zM516 840h588l35 219h-588z" />
<glyph unicode="&#x127;" horiz-adv-x="1130" d="M123 0l196 1241h-145l21 127h145l37 236h241l-38 -236h247l-20 -127h-246l-45 -274q16 10 60.5 33.5t62.5 33.5t57 27q96 45 193 45h4q86 0 147 -31q104 -51 127 -198q4 -27 4 -62t-8 -78l-119 -737h-237l119 739q2 25 2 45q0 121 -129 120t-307 -101l-127 -803h-242z " />
<glyph unicode="&#x128;" horiz-adv-x="499" d="M152 0l237 1499h238l-238 -1499h-237zM195 1735q78 66 141 102.5t121.5 35.5t119 -35t77 -35t38 -1t89 26.5t91.5 47.5l29 -109q-2 -2 -30.5 -24.5t-37 -28.5t-34 -23.5t-38.5 -23.5t-36 -16q-90 -43 -197 18q-61 35 -96 35t-62.5 -7t-48 -16.5t-29.5 -13.5t-32.5 -17.5 t-32.5 -17.5z" />
<glyph unicode="&#x129;" horiz-adv-x="438" d="M49 1325q76 66 139.5 102.5t122 35.5t120 -34.5t76.5 -34.5t30.5 -1t58.5 14q90 29 129 59l31 -108q-4 -2 -33 -24.5t-37 -29t-32.5 -23.5t-39 -23.5t-34.5 -16.5q-90 -43 -199 19q-61 35 -96 34.5t-62.5 -7.5t-48 -16t-30 -13.5t-33 -17.5t-31.5 -17zM94 0l172 1087h238 l-172 -1087h-238z" />
<glyph unicode="&#x12a;" horiz-adv-x="499" d="M88 0l238 1499h237l-237 -1499h-238zM152 1626l24 150h598l-24 -150h-598z" />
<glyph unicode="&#x12b;" horiz-adv-x="438" d="M94 0l172 1087h238l-172 -1087h-238zM102 1223l23 151h598l-23 -151h-598z" />
<glyph unicode="&#x12e;" horiz-adv-x="499" d="M43 -221q0 139 186 221h101q-131 -92 -131 -166q0 -68 92 -67h16l-24 -144q-29 -6 -56 -6q-76 0 -130 48t-54 114zM152 0l237 1499h238l-238 -1499h-237z" />
<glyph unicode="&#x12f;" horiz-adv-x="438" d="M-47 -213q0 141 186 223h103q-133 -92 -133 -166q0 -68 94 -67h14l-22 -146q-29 -4 -56 -4q-78 0 -132 47t-54 113zM100 0l172 1087h238l-172 -1087h-238zM283 1253l24 156q7 51 58 51h174q39 0 39 -39q0 -6 -3 -12l-22 -156q-6 -47 -55 -47h-174q-20 0 -31.5 12.5 t-9.5 34.5z" />
<glyph unicode="&#x130;" horiz-adv-x="499" d="M152 0l237 1499h238l-238 -1499h-237zM422 1679l24 140q6 51 58 51h131q39 0 39 -41v-10l-25 -140q-6 -47 -53 -47h-131q-20 0 -32.5 13.5t-10.5 33.5z" />
<glyph unicode="&#x131;" horiz-adv-x="438" d="M94 0l172 1087h238l-172 -1087h-238z" />
<glyph unicode="&#x134;" horiz-adv-x="731" d="M68 45l34 182q152 -20 187 -11t64.5 21.5t47.5 36.5q41 55 56 144l172 1081h237l-184 -1161q-35 -231 -156 -301q-84 -47 -232 -47t-226 55zM459 1632l270 273h189l159 -273h-166l-98 148l-162 -148h-192z" />
<glyph unicode="&#x135;" horiz-adv-x="466" d="M35 -553l260 1640h244l-174 -1095q-51 -344 -154 -545h-176zM106 1221l271 278h188l162 -278h-172l-100 143l-156 -143h-193z" />
<glyph unicode="&#x136;" horiz-adv-x="1232" d="M139 0l238 1499h229l-102 -643h137l506 643h291l-590 -768l352 -731h-274l-297 639h-158l-100 -639h-232zM467 -528l12 77q51 -2 62 37q2 6 4 15l4 32h-19q-20 0 -31.5 12.5t-6.5 35.5l20 137q8 49 55 49h133q35 0 35 -37v-12l-33 -205q-8 -53 -34 -88q-49 -59 -150 -60 q-16 0 -31 3z" />
<glyph unicode="&#x137;" horiz-adv-x="1054" d="M104 -4l254 1601h238l-147 -925q84 29 179 93t172 151.5t97 166.5h256q-47 -170 -176 -304t-252 -193l362 -590h-270l-315 518l-78 -2l-82 -516h-238zM410 -528l12 77q25 0 39 9q20 12 24 43l7 32h-21q-20 0 -31.5 12.5t-7.5 35.5l23 137q8 49 53 49h133q37 0 37 -37v-12 l-33 -205q-8 -53 -37 -88q-47 -59 -149 -60q-16 0 -29 3z" />
<glyph unicode="&#x138;" horiz-adv-x="1132" d="M104 0l172 1087h238l-70 -452h142l399 452h287l-473 -561l288 -526h-270l-242 442h-161l-72 -442h-238z" />
<glyph unicode="&#x139;" horiz-adv-x="1087" d="M63 215q0 31 7 64l194 1220h238l-187 -1169q-12 -78 29 -94q31 -13 82 -13h555l-35 -223h-620q-129 0 -196 59.5t-67 155.5zM313 1622l242 279h231l-303 -279h-170z" />
<glyph unicode="&#x13a;" horiz-adv-x="616" d="M117 272q0 51 10 115l192 1217h238l-188 -1188q-27 -160 16 -195q18 -16 99 -40.5t87 -24.5l-24 -156h-168q-262 0 -262 272zM373 1726l241 281h230l-301 -281h-170z" />
<glyph unicode="&#x13b;" horiz-adv-x="1087" d="M176 215q0 31 4 64l197 1220h235l-186 -1169q-10 -78 31 -94q29 -13 82 -13h555l-35 -223h-623q-129 0 -194.5 59.5t-65.5 155.5zM446 -528l13 77q25 0 39 9q20 12 24 43l6 32h-20q-20 0 -31.5 12.5t-7.5 35.5l23 137q8 49 53 49h133q37 0 37 -37v-12l-33 -205 q-8 -53 -37 -88q-47 -59 -149 -60q-16 0 -29 3z" />
<glyph unicode="&#x13c;" horiz-adv-x="616" d="M152 272q0 51 10 115l192 1217h238l-186 -1188q-25 -150 8 -187q18 -23 61 -34q125 -39 131 -39l-24 -156h-168q-262 0 -262 272zM164 -528l14 77q39 -2 47 13q14 20 17 39l6 32h-21q-20 0 -31.5 12.5t-7.5 35.5l23 137q8 49 53 49h133q37 0 37 -37q0 -6 -2 -12l-31 -205 q-10 -53 -36 -88q-47 -59 -150 -60q-16 0 -29 3z" />
<glyph unicode="&#x13d;" horiz-adv-x="1087" d="M176 215q0 31 4 64l197 1220h235l-186 -1169q-10 -78 31 -94q29 -13 82 -13h555l-35 -223h-623q-129 0 -194.5 59.5t-65.5 155.5zM715 1169l20 275l23 137h180l-23 -137l-63 -275h-137z" />
<glyph unicode="&#x13e;" horiz-adv-x="696" d="M154 270q0 53 10 117l192 1217h238l-188 -1188q-25 -150 8 -187q18 -23 61 -34q127 -39 133 -39l-24 -156h-176q-254 0 -254 270zM692 1188l21 274l22 137h180l-22 -137l-64 -274h-137z" />
<glyph unicode="&#x141;" horiz-adv-x="1089" d="M72 637l22 139l176 70l103 653h237l-88 -551l269 107l-25 -137l-264 -109l-78 -479q-10 -78 29 -94q31 -13 82 -13h557l-35 -223h-621q-129 0 -195.5 59.5t-66.5 157.5q0 29 6 62l68 428z" />
<glyph unicode="&#x142;" horiz-adv-x="718" d="M147 731l23 139l162 66l106 668h242l-90 -564l274 109l-22 -137l-273 -111l-82 -485q-25 -150 9 -187q18 -20 61 -34q127 -39 133 -39l-24 -156h-168q-143 0 -215 92q-47 63 -47 178q0 53 10 117l65 412z" />
<glyph unicode="&#x143;" horiz-adv-x="1361" d="M139 0l238 1499h235l480 -1063l168 1063h237l-237 -1499h-234l-481 1055l-166 -1055h-240zM872 1632l242 281h232l-304 -281h-170z" />
<glyph unicode="&#x144;" horiz-adv-x="1120" d="M104 0l172 1087h185l35 -120q6 4 49 29.5t83 47t111.5 42t151.5 20.5t141 -31q104 -51 127 -198q2 -27 2 -62t-8 -78l-117 -737h-237l116 739q4 25 5 47q0 119 -121 119q-119 0 -217 -45q-45 -20 -113 -57l-127 -803h-238zM680 1229l244 278h229l-303 -278h-170z" />
<glyph unicode="&#x145;" horiz-adv-x="1361" d="M139 0l238 1499h235l480 -1063l168 1063h237l-237 -1499h-234l-481 1055l-166 -1055h-240zM547 -528l12 77q25 0 39 9q20 12 25 43l6 32h-21q-20 0 -31.5 12.5t-7.5 35.5l23 137q8 49 53 49h133q37 0 37 -37v-12l-33 -205q-8 -53 -37 -88q-47 -59 -149 -60q-16 0 -29 3z " />
<glyph unicode="&#x146;" horiz-adv-x="1120" d="M104 0l172 1087h185l35 -120q6 4 49 29.5t83 47t111.5 42t151.5 20.5t141 -31q104 -51 127 -198q2 -27 2 -62t-8 -78l-117 -737h-237l116 739q4 25 5 47q0 119 -121 119q-119 0 -217 -45q-45 -20 -113 -57l-127 -803h-238zM399 -528l13 77q27 0 41 9q18 12 24 43l6 32 h-20q-20 0 -31.5 12.5t-7.5 35.5l20 137q8 49 56 49h133q37 0 37 -37q0 -6 -2 -12l-31 -205q-10 -53 -37 -88q-47 -59 -149 -60q-16 0 -29 3z" />
<glyph unicode="&#x147;" horiz-adv-x="1361" d="M139 0l238 1499h235l480 -1063l168 1063h237l-237 -1499h-234l-481 1055l-166 -1055h-240zM692 1905h166l100 -146l158 146h195l-271 -273h-186z" />
<glyph unicode="&#x148;" horiz-adv-x="1120" d="M104 0l172 1087h185l35 -120q6 4 49 29.5t83 47t111.5 42t151.5 20.5t141 -31q104 -51 127 -198q2 -27 2 -62t-8 -78l-117 -737h-237l116 739q4 25 5 47q0 119 -121 119q-119 0 -217 -45q-45 -20 -113 -57l-127 -803h-238zM506 1503h166l100 -147l160 147h192l-270 -274 h-184z" />
<glyph unicode="&#x14a;" horiz-adv-x="1361" d="M139 0l238 1499h235l480 -1059l168 1059h237l-262 -1657q-33 -197 -162 -291q-66 -45 -148.5 -61t-114.5 -16h-57.5h-66.5l29 174q14 2 50 8t53.5 9t47 12.5t46 23.5t36.5 35q37 39 51 129l23 143l-477 1045l-166 -1053h-240z" />
<glyph unicode="&#x14b;" horiz-adv-x="1138" d="M104 0l172 1087h185l35 -120q10 6 68.5 38.5t78 42t65.5 28t87 24.5t108.5 6t128.5 -31q104 -51 127 -198q2 -27 2 -62t-8 -80l-117 -735l-26 -156q-29 -152 -111 -233q-84 -84 -149 -109q-98 -37 -179 -51l-49 127q139 57 180 107q53 63 70 151l143 903q4 25 5 47 q0 119 -121 119q-94 0 -162 -23.5t-168 -78.5l-127 -803h-238z" />
<glyph unicode="&#x14c;" horiz-adv-x="1363" d="M197 433q0 54 1 117.5t21.5 192.5t44 224.5t49 168t61.5 129t68.5 95.5t78.5 66.5t87 44t97.5 24.5t103.5 11t122 3t137 -7t124.5 -28.5t103.5 -58.5q98 -84 125 -237q12 -70 12.5 -125.5t-1.5 -121t-24 -207.5t-52.5 -250.5t-66.5 -185.5t-86 -131.5t-99 -86t-117 -50.5 q-113 -29 -235.5 -28.5t-184 6.5t-125 26.5t-104.5 53.5q-100 80 -129 229q-12 72 -12 126zM434 453q0 -133 64 -185q41 -31 94 -42t146 -11t159 19.5t121 76.5q102 102 153 428q25 164 25 249t-8 125t-19.5 68.5t-34 48t-43 31t-55.5 17.5q-51 8 -116.5 8t-94 -1t-66.5 -7 t-61.5 -16.5t-52.5 -30t-47 -47.5q-53 -80 -78 -164q-86 -291 -86 -567zM653 1626l25 150h598l-25 -150h-598z" />
<glyph unicode="&#x14d;" horiz-adv-x="1146" d="M152 373q0 78 21.5 210t62 237.5t110.5 169t163 87t234 23.5q264 0 359 -144q61 -92 61 -256q0 -86 -16 -190q-49 -303 -167 -411.5t-391.5 -108.5t-371.5 131q-66 90 -65 252zM389 377.5q0 -62.5 12.5 -99t42.5 -55.5q49 -33 142.5 -31.5t134.5 9.5t81 41.5t64.5 101.5 t40.5 174q20 121 20.5 180.5t-8 98.5t-36.5 61q-49 41 -146.5 41t-142.5 -12.5t-84 -51t-61.5 -110.5t-41 -178.5t-18.5 -169zM465 1223l22 151h598l-22 -151h-598z" />
<glyph unicode="&#x150;" horiz-adv-x="1363" d="M197 433q0 54 1 117.5t21.5 192.5t44 224.5t49 168t61.5 129t68.5 95.5t78.5 66.5t87 44t97.5 24.5t103.5 11t122 3t137 -7t124.5 -28.5t103.5 -58.5q98 -84 125 -237q12 -70 12.5 -125.5t-1.5 -121t-24 -207.5t-52.5 -250.5t-66.5 -185.5t-86 -131.5t-99 -86t-117 -50.5 q-113 -29 -235.5 -28.5t-184 6.5t-125 26.5t-104.5 53.5q-100 80 -129 229q-12 72 -12 126zM434 453q0 -133 64 -185q41 -31 94 -42t146 -11t159 19.5t121 76.5q102 102 153 428q25 164 25 249t-8 125t-19.5 68.5t-34 48t-43 31t-55.5 17.5q-51 8 -116.5 8t-94 -1t-66.5 -7 t-61.5 -16.5t-52.5 -30t-47 -47.5q-53 -80 -78 -164q-86 -291 -86 -567zM707 1632l241 281h232l-303 -281h-170zM1010 1632l241 281h232l-303 -281h-170z" />
<glyph unicode="&#x151;" horiz-adv-x="1146" d="M152 373q0 78 21.5 210t62 237.5t110.5 169t163 87t234 23.5q264 0 359 -144q61 -92 61 -256q0 -86 -16 -190q-49 -303 -167 -411.5t-391.5 -108.5t-371.5 131q-66 90 -65 252zM389 377.5q0 -62.5 12.5 -99t42.5 -55.5q49 -33 142.5 -31.5t134.5 9.5t81 41.5t64.5 101.5 t40.5 174q20 121 20.5 180.5t-8 98.5t-36.5 61q-49 41 -146.5 41t-142.5 -12.5t-84 -51t-61.5 -110.5t-41 -178.5t-18.5 -169zM526 1223l242 280h231l-303 -280h-170zM829 1223l244 280h230l-304 -280h-170z" />
<glyph unicode="&#x152;" horiz-adv-x="2152" d="M166 433q0 54 1 117.5t20.5 187.5t40 211t45 156t51 124t60.5 96t66.5 71.5t75.5 50t81 33t89 19.5q84 10 240 10q254 0 358 -135q74 125 248 125q14 0 299 -10t367 -23l-31 -194h-598q-68 0 -92.5 -31t-32.5 -84l-47 -295l612 -20l-28 -195l-621 -18l-47 -301 q-12 -78 29 -95q29 -12 82 -12h577l-31 -192q-68 -8 -485 -29l-141 -6h-46t-97.5 26.5t-94.5 88.5q-80 -70 -184.5 -93.5t-219 -23.5t-175 6t-124 26.5t-106.5 53.5q-100 80 -127 229q-14 72 -14 126zM403 453q0 -133 66 -185q39 -31 92 -42t146.5 -11t159 19.5t120.5 76.5 q102 102 154 428q27 164 26.5 249t-9.5 125t-19.5 68.5t-33 48t-43 31t-54.5 17.5q-53 8 -118 8t-94.5 -1t-66.5 -7t-60.5 -16.5t-52 -30t-49.5 -47.5q-53 -80 -78 -164q-86 -291 -86 -567z" />
<glyph unicode="&#x153;" horiz-adv-x="1828" d="M137 377q0 78 21.5 210t62.5 237.5t110.5 168t163 85t234.5 22.5q246 0 338 -133q118 141 401 141q412 0 412 -274q0 -135 -59.5 -224.5t-137.5 -126.5q-150 -72 -305 -71q-78 0 -148.5 9t-92.5 19q-10 -63 -10.5 -116.5t18.5 -83.5q33 -55 143 -56q264 0 469 33 l-28 -172q-211 -61 -459 -61q-43 0 -88 2q-162 4 -224 116q-117 -113 -387 -112.5t-366 133.5q-68 90 -68 254zM375 383q0 -49 8 -82t22.5 -55.5t45.5 -34.5q47 -20 131 -20.5t125 9t80.5 43t64.5 101.5t41 174q20 121 20 180.5t-8 98.5t-37 61q-49 41 -146 41t-142 -12.5 t-84 -51t-61.5 -110.5t-41 -182.5t-18.5 -159.5zM1157 600q53 -6 103.5 -6t83 1t87 11t94.5 28.5t70 53.5q43 47 43 109.5t-37.5 86t-148.5 23.5q-145 0 -205 -69q-51 -59 -73 -156q-4 -20 -8.5 -43t-6.5 -25q0 -8 -2 -14z" />
<glyph unicode="&#x154;" horiz-adv-x="1241" d="M123 0l237 1499h635q168 0 256 -115q66 -86 66 -243q0 -176 -43 -282.5t-76 -147.5t-79 -68t-69.5 -33t-56.5 -10l215 -600h-266l-186 584l-299 22l-97 -606h-237zM487 795h373q213 0 213 327q0 78 -20 111q-29 49 -109 49h-379zM762 1628l242 281h231l-303 -281h-170z " />
<glyph unicode="&#x155;" horiz-adv-x="862" d="M209 0l172 1087h192l23 -137q68 47 113 74t117.5 51.5t155.5 24.5t116 -15l-37 -231q-55 8 -156.5 8t-177.5 -25.5t-162 -95.5l-119 -741h-237zM676 1225l242 278h231l-303 -278h-170z" />
<glyph unicode="&#x156;" horiz-adv-x="1241" d="M131 0l238 1499h635q168 0 256 -115q66 -86 65 -243q0 -176 -43 -282.5t-74.5 -147.5t-79 -68t-71 -33t-53.5 -10l213 -600h-267l-184 584l-301 22l-96 -606h-238zM487 -528l15 77q25 0 39 9q20 12 24 43l6 32h-20q-20 0 -31.5 12.5t-7.5 35.5l20 137q10 49 56 49h133 q37 0 37 -37q0 -6 -2 -12l-31 -205q-10 -53 -37 -88q-47 -59 -149 -60q-16 0 -29 3zM498 795h370q213 0 213 327q0 78 -18 111q-31 49 -111 49h-379z" />
<glyph unicode="&#x157;" horiz-adv-x="862" d="M106 -528l13 77q39 -2 49 13q12 20 16 39l4 32h-20q-20 0 -30.5 12.5t-6.5 35.5l21 137q8 49 55 49h131q37 0 37 -37v-12l-33 -205q-8 -53 -37 -88q-47 -59 -147 -60q-18 0 -31 3zM172 0l172 1087h193l22 -137q68 47 113 74t117.5 51.5t155.5 24.5t116 -15l-37 -231 q-55 8 -139 8t-140 -10q-106 -23 -219 -111l-116 -741h-238z" />
<glyph unicode="&#x158;" horiz-adv-x="1241" d="M131 0l238 1499h635q168 0 256 -115q66 -86 65 -243q0 -176 -43 -282.5t-74.5 -147.5t-79 -68t-71 -33t-53.5 -10l213 -600h-267l-184 584l-301 22l-96 -606h-238zM498 795h370q213 0 213 327q0 78 -18 111q-31 49 -111 49h-379zM602 1905h166l100 -146l158 146h195 l-271 -273h-186z" />
<glyph unicode="&#x159;" horiz-adv-x="862" d="M104 0l172 1087h193l23 -137q68 47 112.5 74t116.5 51.5t156 24.5t114 -15l-37 -231q-53 8 -138 8t-138 -10q-106 -23 -219 -111l-117 -741h-238zM389 1497h166l102 -147l158 147h195l-273 -272h-184z" />
<glyph unicode="&#x15a;" horiz-adv-x="1179" d="M135 41l29 186q166 -20 506 -20q215 0 237 149l17 103q6 31 6 61.5t-12 52.5q-23 47 -117 48h-236q-168 0 -242.5 70.5t-84.5 154.5q-6 43 -6.5 79t6.5 79l22 149q39 254 219 324q94 35 228 34h20h2q129 0 285.5 -16t249.5 -39l-29 -186q-426 18 -467 18h-55 q-96 0 -147.5 -29.5t-69.5 -140.5l-15 -96q-10 -66 -3 -89.5t12.5 -34.5t18.5 -19.5t22.5 -12.5t31.5 -6q29 -2 74 -2h237q158 0 226 -86t67 -186q0 -47 -6 -109l-14 -137q-12 -96 -50 -166t-84 -105.5t-114 -56.5q-98 -29 -235 -28q-336 0 -529 57zM748 1634l241 281h230 l-301 -281h-170z" />
<glyph unicode="&#x15b;" horiz-adv-x="1040" d="M143 35l27 155h530q86 0 101 84l12 76q10 57 -22 76q-18 10 -52 10h-266q-150 0 -219 72q-53 55 -53 154q0 33 6 71l16 101q23 135 98.5 202.5t231.5 67.5t326 -11.5t229 -35.5l-27 -158h-506q-63 0 -86.5 -25.5t-29.5 -64.5l-13 -74q-10 -63 17 -78q18 -10 42.5 -9 t29.5 1h272q141 0 205 -84q47 -61 47 -149q0 -27 -4 -56l-19 -127q-25 -160 -125 -208q-80 -41 -210 -41t-319 14t-239 37zM635 1229l242 280h229l-301 -280h-170z" />
<glyph unicode="&#x15c;" horiz-adv-x="1179" d="M152 41l28 186q166 -20 506 -20q215 0 238 149l16 103q4 31 4 63.5t-14 57.5q-23 41 -113 41h-235q-170 0 -244 70.5t-84 154.5q-6 43 -6 79t6 79l22 149q39 254 220 324q92 35 227 34h18h4q129 0 286 -16t249 -39l-29 -186q-428 18 -469 18h-53q-96 0 -148.5 -29.5 t-68.5 -140.5l-14 -96q-10 -66 -4 -89.5t11 -34.5t19.5 -19.5t23.5 -12.5t32 -6q29 -2 71 -2h240q158 0 225 -86q68 -86 68 -186q0 -47 -6 -109l-17 -137q-10 -96 -48 -166t-84 -105.5t-114 -56.5q-98 -29 -235 -28q-338 0 -528 57zM528 1636l273 273h188l160 -273h-166 l-98 146l-162 -146h-195z" />
<glyph unicode="&#x15d;" horiz-adv-x="1040" d="M121 35l24 155h531q86 0 100 84l12 76q10 57 -20 76q-18 10 -53 10h-266q-147 0 -220 72q-53 55 -53 154q0 33 6 71l17 101q23 135 99.5 202.5t232 67.5t324.5 -11.5t228 -35.5l-24 -158h-508q-102 0 -117 -90l-10 -74q-10 -63 14 -78q18 -10 43 -9t29 1h272 q141 0 205 -84q47 -61 47 -149q0 -27 -4 -56l-18 -127q-25 -160 -125 -208q-80 -41 -210 -41t-319.5 14t-236.5 37zM397 1229l273 274h188l160 -274h-166l-98 147l-162 -147h-195z" />
<glyph unicode="&#x15e;" horiz-adv-x="1179" d="M152 41l28 186q166 -20 506 -20q215 0 238 149l16 103q4 31 4 63.5t-14 57.5q-23 41 -113 41h-235q-170 0 -244 70.5t-84 154.5q-6 43 -6 79t6 79l22 149q39 254 220 324q92 35 227 34h18h4q129 0 286 -16t249 -39l-29 -186q-428 18 -469 18h-53q-96 0 -148.5 -29.5 t-68.5 -140.5l-14 -96q-10 -66 -4 -89.5t11 -34.5t19.5 -19.5t23.5 -12.5t32 -6q29 -2 71 -2h240q158 0 225 -86q68 -86 68 -186q0 -47 -6 -109l-17 -137q-10 -96 -48 -166t-84 -105.5t-114 -56.5q-98 -29 -235 -28q-338 0 -528 57zM362 -377l17 105l102 30q55 23 72 80 q8 25 14 70h174q-16 -109 -47 -168q-55 -117 -221 -117h-111z" />
<glyph unicode="&#x15f;" horiz-adv-x="1040" d="M121 35l24 155h531q86 0 100 84l12 76q10 57 -20 76q-18 10 -53 10h-266q-147 0 -220 72q-53 55 -53 154q0 33 6 71l17 101q23 135 99.5 202.5t232 67.5t324.5 -11.5t228 -35.5l-24 -158h-508q-102 0 -117 -90l-10 -74q-10 -63 14 -78q18 -10 43 -9t29 1h272 q141 0 205 -84q47 -61 47 -149q0 -27 -4 -56l-18 -127q-25 -160 -125 -208q-80 -41 -210 -41t-319.5 14t-236.5 37zM270 -365l19 105l100 31q43 18 60.5 51t27.5 98h172q-25 -160 -82 -222.5t-184 -62.5h-113z" />
<glyph unicode="&#x160;" horiz-adv-x="1179" d="M152 41l28 186q166 -20 506 -20q215 0 238 149l16 103q4 31 4 63.5t-14 57.5q-23 41 -113 41h-235q-170 0 -244 70.5t-84 154.5q-6 43 -6 79t6 79l22 149q39 254 220 324q92 35 227 34h18h4q129 0 286 -16t249 -39l-29 -186q-428 18 -469 18h-53q-96 0 -148.5 -29.5 t-68.5 -140.5l-14 -96q-10 -66 -4 -89.5t11 -34.5t19.5 -19.5t23.5 -12.5t32 -6q29 -2 71 -2h240q158 0 225 -86q68 -86 68 -186q0 -47 -6 -109l-17 -137q-10 -96 -48 -166t-84 -105.5t-114 -56.5q-98 -29 -235 -28q-338 0 -528 57zM592 1909h166l100 -148l160 148h194 l-272 -273h-184z" />
<glyph unicode="&#x161;" horiz-adv-x="1040" d="M121 35l24 155h531q86 0 100 84l12 76q10 57 -20 76q-18 10 -53 10h-266q-147 0 -220 72q-53 55 -53 154q0 33 6 71l17 101q23 135 99.5 202.5t232 67.5t324.5 -11.5t228 -35.5l-24 -158h-508q-102 0 -117 -90l-10 -74q-10 -63 14 -78q18 -10 43 -9t29 1h272 q141 0 205 -84q47 -61 47 -149q0 -27 -4 -56l-18 -127q-25 -160 -125 -208q-80 -41 -210 -41t-319.5 14t-236.5 37zM434 1503h168l100 -147l158 147h195l-273 -274h-184z" />
<glyph unicode="&#x162;" horiz-adv-x="1198" d="M219 1276l37 223h1083l-36 -223h-429l-202 -1276h-238l203 1276h-418zM248 -377l18 107l101 30q45 18 59 47q18 41 29 103h172q-25 -160 -82.5 -223.5t-184.5 -63.5h-112z" />
<glyph unicode="&#x163;" horiz-adv-x="770" d="M135 -379l19 105l100 30q55 23 72 82q8 25 14 68h174q-25 -160 -82 -222.5t-184 -62.5h-113zM152 895l22 143l195 52l90 303h194l-47 -303h268l-30 -195h-271l-73 -479q-25 -162 16 -197q16 -14 97 -38.5t87 -24.5l-22 -156h-176q-254 0 -254 270q0 53 10 117l78 508 h-184z" />
<glyph unicode="&#x164;" horiz-adv-x="1198" d="M262 1276l37 223h1083l-36 -223h-428l-203 -1276h-238l203 1276h-418zM594 1905h166l102 -146l158 146h194l-272 -273h-184z" />
<glyph unicode="&#x165;" horiz-adv-x="819" d="M139 895l23 143l192 52l92 303h195l-49 -303h270l-31 -195h-270l-76 -477q-10 -74 -10 -113t11.5 -60.5t25.5 -30.5t91 -33.5t85 -24.5l-24 -156h-177q-137 0 -206 94q-47 63 -48 178q0 53 11 117l80 506h-185zM745 1227l25 274l18 137h183l-21 -137l-67 -274h-138z" />
<glyph unicode="&#x166;" horiz-adv-x="1212" d="M262 1276l37 223h1083l-36 -223h-428l-62 -381h217l-18 -125h-217l-123 -770h-238l123 770h-217l18 125h217l62 381h-418z" />
<glyph unicode="&#x167;" horiz-adv-x="757" d="M145 535l21 124h151l37 236h-186l22 143l195 52l90 303h195l-47 -303h270l-31 -195h-270l-37 -236h186l-20 -124h-186l-19 -117q-12 -74 -12 -113t11 -60.5t25.5 -30.5t93.5 -33.5t85 -24.5l-25 -156h-176q-137 0 -207 94q-47 63 -47 178q0 53 10 117l23 146h-152z" />
<glyph unicode="&#x168;" d="M219 414q0 100 19 239l135 846h239l-137 -868q-16 -98 -16 -186.5t30 -141.5q53 -90 227.5 -90t260.5 95t121 323l137 868h240l-134 -889q-51 -324 -201.5 -472t-451.5 -148q-272 0 -375 131q-94 119 -94 293zM610 1735q76 66 139.5 102.5t122 35.5t120 -35t77.5 -35 t37.5 -1t88.5 26.5t91 47.5l31 -109q-4 -2 -33 -24.5t-36 -28.5t-32.5 -23.5t-39 -23.5t-35.5 -16q-80 -37 -162 2q-39 16 -69.5 33.5t-47 17.5h-27t-31 -4t-34.5 -7t-34.5 -12.5t-30 -13.5t-33 -17.5t-31.5 -17.5z" />
<glyph unicode="&#x169;" horiz-adv-x="1118" d="M135 258q0 43 8 94l115 735h238l-117 -739q-4 -29 -4 -66.5t26.5 -67.5t107.5 -30t148.5 22.5t169.5 80.5l125 800h238l-172 -1087h-187l-30 119q-78 -47 -121 -70.5t-117 -45t-151 -21.5q-170 0 -232 100q-45 72 -45 176zM412 1325q76 66 139 102.5t111.5 35.5t80 -12 t51 -23.5t44 -22.5t37 -11t26.5 -1t57 14q90 29 129 59l31 -108q-4 -2 -32.5 -24.5t-37 -29t-33 -23.5t-37.5 -23.5t-36 -16.5q-80 -37 -162 2q-39 16 -69.5 33.5t-47 17.5h-26.5t-30.5 -3t-35 -7t-35 -13t-29.5 -13.5t-32.5 -17.5t-32.5 -17z" />
<glyph unicode="&#x16a;" d="M219 414q0 100 19 239l135 846h239l-137 -868q-16 -98 -16 -186.5t30 -141.5q53 -90 227.5 -90t260.5 95t121 323l137 868h240l-134 -889q-51 -324 -201.5 -472t-451.5 -148q-272 0 -375 131q-94 119 -94 293zM647 1632l23 150h598l-23 -150h-598z" />
<glyph unicode="&#x16b;" horiz-adv-x="1118" d="M135 258q0 43 8 94l115 735h238l-117 -739q-4 -29 -4 -66.5t26.5 -67.5t107.5 -30t148.5 22.5t169.5 80.5l125 800h238l-172 -1087h-187l-30 119q-78 -47 -121 -70.5t-117 -45t-151 -21.5q-170 0 -232 100q-45 72 -45 176zM446 1223l25 151h598l-25 -151h-598z" />
<glyph unicode="&#x16c;" d="M219 414q0 100 19 239l135 846h239l-137 -868q-16 -98 -16 -186.5t30 -141.5q53 -90 227.5 -90t260.5 95t121 323l137 868h240l-134 -889q-51 -324 -201.5 -472t-451.5 -148q-272 0 -375 131q-94 119 -94 293zM748 1839q0 12 2 25h108q-2 -10 -2 -37t26.5 -56.5 t78.5 -29.5h4q125 0 141 123h111q-14 -115 -81 -173.5t-168.5 -58.5t-160.5 59.5t-59 147.5z" />
<glyph unicode="&#x16d;" horiz-adv-x="1118" d="M135 258q0 43 8 94l115 735h238l-117 -739q-4 -29 -4 -66.5t26.5 -67.5t107.5 -30t148.5 22.5t169.5 80.5l125 800h238l-172 -1087h-187l-30 119q-78 -47 -121 -70.5t-117 -45t-151 -21.5q-170 0 -232 100q-45 72 -45 176zM549 1430v24h110q-2 -10 -2 -36.5t27 -56.5 t78 -30h4q125 0 141 123h111q-14 -115 -81 -173t-168 -58t-160.5 59t-59.5 148z" />
<glyph unicode="&#x16e;" d="M219 414q0 100 19 239l135 846h239l-137 -868q-16 -98 -16 -186.5t30 -141.5q53 -90 227.5 -90t260.5 95t121 323l137 868h240l-134 -889q-51 -324 -201.5 -472t-451.5 -148q-272 0 -375 131q-94 119 -94 293zM770 1819q0 100 69.5 164.5t155.5 64.5t138.5 -57.5 t52.5 -130.5q0 -100 -68.5 -164t-154.5 -64t-139.5 56.5t-53.5 130.5zM882 1846q-3 -34 8 -55.5t32.5 -33.5t54.5 -12t65.5 29.5t32.5 69.5t-23.5 66.5t-63.5 26.5t-71.5 -28.5t-34.5 -62.5z" />
<glyph unicode="&#x16f;" horiz-adv-x="1118" d="M135 258q0 43 8 94l115 735h238l-117 -739q-4 -29 -4 -66.5t26.5 -67.5t107.5 -30t148.5 22.5t169.5 80.5l125 800h238l-172 -1087h-187l-30 119q-78 -47 -121 -70.5t-117 -45t-151 -21.5q-170 0 -232 100q-45 72 -45 176zM569 1411q0 98 71 162.5t157 64.5t138 -56 t52 -132q0 -98 -68.5 -162.5t-155.5 -64.5t-140.5 56t-53.5 132zM682 1426q0 -40 24.5 -65.5t64.5 -25.5t69.5 28t33 57.5t-3 48t-17.5 30.5t-28.5 20.5t-47 8.5t-62.5 -31t-33 -71z" />
<glyph unicode="&#x170;" d="M219 414q0 100 19 239l135 846h239l-137 -868q-16 -98 -16 -186.5t30 -141.5q53 -90 227.5 -90t260.5 95t121 323l137 868h240l-134 -889q-51 -324 -201.5 -472t-451.5 -148q-272 0 -375 131q-94 119 -94 293zM709 1632l241 281h232l-303 -281h-170zM1012 1632l241 281 h232l-303 -281h-170z" />
<glyph unicode="&#x171;" horiz-adv-x="1118" d="M135 258q0 43 8 94l115 735h238l-117 -739q-4 -29 -4 -66.5t26.5 -67.5t107.5 -30t148.5 22.5t169.5 80.5l125 800h238l-172 -1087h-187l-30 119q-78 -47 -121 -70.5t-117 -45t-151 -21.5q-170 0 -232 100q-45 72 -45 176zM510 1223l242 280h229l-301 -280h-170z M813 1223l242 280h231l-303 -280h-170z" />
<glyph unicode="&#x172;" d="M219 414q0 100 19 239l135 846h239l-137 -868q-16 -98 -16 -186.5t30 -141.5q53 -90 227.5 -90t260.5 95t121 323l137 868h240l-134 -889q-51 -324 -201.5 -472t-451.5 -148q-272 0 -375 131q-94 119 -94 293zM459 -221q0 141 188 223h101q-133 -92 -134 -166 q0 -68 95 -67h16l-25 -146q-29 -4 -55 -4q-78 0 -132 47t-54 113z" />
<glyph unicode="&#x173;" horiz-adv-x="1175" d="M135 258q0 43 8 94l115 735h238l-117 -739q-4 -29 -4 -66.5t26.5 -67.5t107.5 -30t148.5 22.5t169.5 80.5l125 800h238l-172 -1087h-187l-30 119q-78 -47 -121 -70.5t-117 -45t-151 -21.5q-170 0 -232 100q-45 72 -45 176zM688 -223q0 139 186 221h103 q-133 -92 -133 -166q0 -68 94 -68h14l-22 -143q-29 -6 -56 -6q-78 0 -132 48t-54 114z" />
<glyph unicode="&#x174;" horiz-adv-x="2062" d="M293 1499h246l186 -1161l551 1161h258l-219 -450l110 -717l557 1167h254l-725 -1499h-260l-106 670l-328 -670h-272zM946 1632l271 273h188l160 -273h-166l-99 148l-161 -148h-193z" />
<glyph unicode="&#x175;" horiz-adv-x="1673" d="M178 1087h248l147 -808l306 600q49 102 61 206h205q10 -41 10 -98t-31 -131l-43 -96l93 -475l313 598q49 102 61 207h207q10 -43 10 -86q0 -94 -51 -187l-446 -817h-256l-94 475l-238 -475h-277zM682 1221l270 274h189l159 -274h-165l-99 147l-162 -147h-192z" />
<glyph unicode="&#x176;" horiz-adv-x="1325" d="M293 1499h256l205 -739l469 739h274l-661 -1010l-78 -489h-238l78 489zM606 1632l271 273h188l162 -273h-168l-96 148l-162 -148h-195z" />
<glyph unicode="&#x177;" horiz-adv-x="1142" d="M180 1087h246l90 -792q8 -53 59 -74q8 -2 15.5 -3t14.5 -2t13.5 -1h10.5h6l317 670q37 80 54 207h213q10 -41 10 -84q0 -92 -47 -195l-387 -811q-205 -434 -486 -545q-55 -23 -116 -32v167q121 70 200.5 171.5t149.5 236.5q-100 0 -173 60.5t-89 197.5zM412 1221l272 274 h188l160 -274h-166l-98 147l-162 -147h-194z" />
<glyph unicode="&#x178;" horiz-adv-x="1325" d="M236 1499h256l204 -739l469 739h275l-662 -1010l-78 -489h-237l78 489zM500 1708q0 72 44 108.5t91 36.5t71.5 -29.5t24.5 -49.5q0 -72 -43 -110t-90 -38t-72.5 30t-25.5 52zM1022 1708q0 72 44 108.5t91 36.5t71.5 -29.5t24.5 -49.5q0 -72 -43 -110t-90 -38t-72.5 30 t-25.5 52z" />
<glyph unicode="&#x179;" horiz-adv-x="1144" d="M199 0l37 223l894 1053h-729l35 223h1024l-35 -223l-880 -1053h715l-37 -223h-1024zM883 1626l241 279h232l-303 -279h-170z" />
<glyph unicode="&#x17a;" horiz-adv-x="956" d="M145 2l29 207l627 670h-545l31 208h854l-31 -208l-606 -668h497l-32 -209h-824zM649 1217l242 278h231l-303 -278h-170z" />
<glyph unicode="&#x17b;" horiz-adv-x="1144" d="M61 0l35 223l895 1053h-729l37 223h1024l-37 -223l-880 -1053h714l-35 -223h-1024zM725 1679l23 140q8 51 57 51h131q47 0 39 -51l-23 -140q-6 -47 -53 -47h-131q-20 0 -32.5 13.5t-10.5 33.5z" />
<glyph unicode="&#x17c;" horiz-adv-x="956" d="M82 2l31 207l624 670h-542l28 208h854l-28 -208l-609 -668h498l-33 -209h-823zM567 1270l23 139q6 51 57 51h131q45 0 39 -51l-22 -139q-8 -47 -54 -47h-131q-23 0 -35 13t-8 34z" />
<glyph unicode="&#x17d;" horiz-adv-x="1144" d="M61 0l35 223l895 1053h-729l37 223h1024l-37 -223l-880 -1053h714l-35 -223h-1024zM565 1905h166l100 -146l160 146h195l-273 -273h-184z" />
<glyph unicode="&#x17e;" horiz-adv-x="956" d="M82 2l31 207l624 670h-542l28 208h854l-28 -208l-609 -668h498l-33 -209h-823zM406 1497h167l101 -147l157 147h195l-270 -274h-187z" />
<glyph unicode="&#x192;" horiz-adv-x="1013" d="M-23 -367l37 150h148q139 0 207 285q10 45 22 112l125 604h-188l47 197h190l8 55q90 430 267 551q74 51 178 51q100 0 194 -43q18 -8 19 -8l-37 -149h-143q-72 0 -115 -64q-49 -68 -68 -135q-29 -94 -53 -203l-10 -57h256l-47 -195h-256l-125 -604q-72 -346 -182 -477 q-100 -121 -263 -121q-59 0 -124.5 17.5t-86.5 33.5z" />
<glyph unicode="&#x2c6;" horiz-adv-x="659" d="M115 1087l270 273h188l160 -273h-166l-98 148l-160 -148h-194z" />
<glyph unicode="&#x2da;" horiz-adv-x="581" d="M272 1274q0 100 71 164.5t157 64.5t138 -57t52 -131q0 -100 -68.5 -164t-154.5 -64t-140.5 56.5t-54.5 130.5zM385 1291q0 -40 24.5 -66.5t64.5 -26.5t71 29q35 31 35 70.5t-24 67.5t-64.5 28t-73.5 -31t-33 -71z" />
<glyph unicode="&#x2dc;" horiz-adv-x="878" d="M258 1190q78 66 140.5 102.5t121 35.5t119.5 -34.5t87 -35t58.5 7t61.5 20.5q68 27 90 45l29 -108q-2 -2 -31 -24.5t-37 -29t-33.5 -24t-39 -23.5t-36.5 -16q-90 -43 -196 18q-62 35 -96.5 35t-62 -7t-48 -16.5t-30 -13.5t-33 -17t-31.5 -18z" />
<glyph unicode="&#x3a9;" horiz-adv-x="1570" d="M125 0l33 203l248 20q-183 144 -183 420q0 188 70 379q31 92 93.5 184t145 158t208.5 107.5t273.5 41.5t255 -38.5t173.5 -108.5q147 -156 147 -397q0 -86 -10 -178q-33 -201 -98.5 -331t-216.5 -239l231 -20l-33 -201h-495l37 225q160 102 227 215q74 121 108 348 q12 78 13 146q0 356 -361 356q-123 0 -219 -44t-156 -120q-113 -145 -143 -348q-20 -123 -20 -167t3 -88t23 -89q47 -102 162 -209l-37 -225h-479z" />
<glyph unicode="&#x3c0;" horiz-adv-x="1314" d="M170 864l37 223h1147l-35 -223h-215l-78 -495q-6 -39 -6 -77t21.5 -68.5t99.5 -30.5h170l-23 -140q-104 -63 -246.5 -63t-214.5 90q-49 63 -49 176q0 47 8 104l80 504h-297l-135 -864h-237l135 864h-162z" />
<glyph unicode="&#x1e02;" horiz-adv-x="1224" d="M139 0l238 1499h598q178 0 262 -88q90 -94 90 -237q0 -43 -4 -89q-16 -129 -85 -207.5t-167 -99.5q76 -12 129 -114q39 -74 39 -177q0 -39 -4 -79q-29 -217 -144.5 -312.5t-351.5 -95.5h-600zM412 217h356q193 0 229 225q4 31 4 77t-24 93q-39 70 -137 70h-355zM520 891 h346q188 0 219 196q4 33 4.5 78t-35.5 81t-122 36h-350zM750 1679l22 140q6 51 57 51h132q47 0 38 -51l-22 -140q-6 -47 -53 -47h-131q-23 0 -34 13.5t-9 33.5z" />
<glyph unicode="&#x1e03;" horiz-adv-x="1136" d="M96 0l254 1608h236l-90 -580q84 35 185 55.5t173 20.5q299 0 299 -367q0 -186 -57 -399q-49 -174 -138 -260q-94 -90 -247 -90q-106 0 -209 42t-150 85l-65 -115h-191zM377 276q135 -77 297 -77q90 0 141 80.5t80 265.5q18 111 18 174t-8 98q-23 88 -121 88 q-164 0 -313 -45zM379 1790l22 139q9 51 58 51h131q47 0 39 -51l-23 -139q-6 -47 -53 -47h-131q-20 0 -32.5 12t-10.5 35z" />
<glyph unicode="&#x1e0a;" horiz-adv-x="1351" d="M139 0l238 1497q0 2 590 2q215 0 315 -131q96 -127 111 -301q4 -57 4 -100q0 -123 -21 -246q-59 -369 -209.5 -545t-425.5 -176h-602zM412 219h338q158 0 255 143.5t134 382.5q23 131 22 240q0 297 -250 297h-331zM756 1669l22 139q7 52 58 52h131q45 0 39 -52l-23 -139 q-6 -47 -53 -47h-131q-23 0 -35 12.5t-8 34.5z" />
<glyph unicode="&#x1e0b;" horiz-adv-x="1126" d="M151.5 383q0.5 104 16.5 193.5t36.5 162t55.5 145t81 118t115.5 74t150.5 28.5t179.5 -20.5t171.5 -55.5l93 580h235l-256 -1608h-188l-31 115q-63 -47 -165.5 -87t-197 -40t-162 50t-96.5 130q-39 111 -38.5 215zM393 393q0 -195 127 -194q160 0 318 77l92 584 q-133 45 -299 45q-55 0 -92 -26q-86 -59 -131 -334q-15 -86 -15 -152zM1081 1780l23 139q6 51 57 51h131q39 0 39 -41v-10l-22 -139q-8 -47 -54 -47h-131q-23 0 -35 12t-8 35z" />
<glyph unicode="&#x1e1e;" horiz-adv-x="1155" d="M135 0l189 1196q18 113 71.5 183.5t119 95t108.5 24.5t323.5 -10t364.5 -23l-31 -194h-600q-68 0 -92.5 -31t-32.5 -84l-45 -297l612 -20l-30 -195l-621 -20l-98 -625h-238zM774 1679l23 140q6 51 57 51h131q45 0 39 -51l-23 -140q-6 -47 -53 -47h-131q-23 0 -35 13.5 t-8 33.5z" />
<glyph unicode="&#x1e1f;" horiz-adv-x="827" d="M174 893l27 158l190 36l21 119q35 223 118 312.5t261 89.5q63 0 135.5 -15.5t113.5 -33.5l-22 -144h-203h-2q-88 0 -117.5 -47t-54.5 -205l-12 -76h291l-31 -194h-291l-147 -893h-238l145 893h-184zM690 1778l23 139q8 51 57 51h131q47 0 39 -51l-22 -139q-6 -47 -54 -47 h-131q-20 0 -32.5 13t-10.5 34z" />
<glyph unicode="&#x1e40;" horiz-adv-x="1675" d="M117 0l358 1499h320l135 -1106l473 1106h332l-107 -1499h-235l84 1083l-471 -1083h-263l-133 1081l-254 -1081h-239zM1018 1679l24 140q7 51 58 51h131q45 0 39 -51l-25 -140q-6 -47 -53 -47h-131q-20 0 -32.5 13.5t-10.5 33.5z" />
<glyph unicode="&#x1e41;" horiz-adv-x="1808" d="M104 0l172 1087h185l35 -122q8 6 47 29.5t51 29.5t45 23.5t53.5 23.5t50.5 14q53 16 139.5 16.5t156 -43.5t91.5 -114q231 158 441 158q154 0 225 -103q51 -74 51 -182q0 -41 -8 -86l-115 -731h-237l117 733q2 23 2 56.5t-29 72.5t-86 39t-98 -5t-82 -17 q-74 -20 -156 -74q0 -2 -2 -21q-8 -51 -8 -55l-117 -729h-237l116 733q2 20 2 44t-10 54q-25 70 -114 70t-151.5 -22.5t-166.5 -79.5l-125 -799h-238zM999 1272l23 139q8 51 57 51h131q47 0 39 -51l-22 -139q-6 -47 -53 -47h-132q-20 0 -32.5 13t-10.5 34z" />
<glyph unicode="&#x1e56;" horiz-adv-x="1220" d="M131 0l238 1499h626q150 0 248 -96q86 -82 86 -260q0 -143 -37 -254t-67.5 -158t-67.5 -81t-76 -48q-84 -29 -141 -29l-63 2h-50t-194 15.5t-166 21.5l-98 -612h-238zM494 791h374q82 0 135.5 53t75.5 200q6 63 6 97.5t-10 60t-21.5 40.5t-31.5 24q-33 16 -76 16h-375z M745 1679l23 140q6 51 57 51h131q45 0 39 -51l-22 -140q-6 -47 -53 -47h-132q-23 0 -35 13.5t-8 33.5z" />
<glyph unicode="&#x1e57;" horiz-adv-x="1140" d="M16 -553l265 1606q228 43 550 43q330 0 330 -430q0 -78 -16 -158q-35 -254 -145.5 -390t-319.5 -136q-78 0 -171 19t-157 58l-98 -612h-238zM381 227q106 -49 207.5 -49t144.5 19.5t76 56.5q63 74 100 293q12 82 13 145q0 209 -148 209h-282zM627 1276l22 139q7 51 58 51 h131q45 0 39 -51l-25 -139q-6 -47 -53 -47h-131q-20 0 -32.5 12t-8.5 35z" />
<glyph unicode="&#x1e60;" horiz-adv-x="1179" d="M152 41l28 186q166 -20 506 -20q215 0 238 149l16 103q4 31 4 63.5t-14 57.5q-23 41 -113 41h-235q-170 0 -244 70.5t-84 154.5q-6 43 -6 79t6 79l22 149q39 254 220 324q92 35 227 34h18h4q129 0 286 -16t249 -39l-29 -186q-428 18 -469 18h-53q-96 0 -148.5 -29.5 t-68.5 -140.5l-14 -96q-10 -66 -4 -89.5t11 -34.5t19.5 -19.5t23.5 -12.5t32 -6q29 -2 71 -2h240q158 0 225 -86q68 -86 68 -186q0 -47 -6 -109l-17 -137q-10 -96 -48 -166t-84 -105.5t-114 -56.5q-98 -29 -235 -28q-338 0 -528 57zM735 1696l23 139q6 51 57 51h131 q47 0 39 -51l-22 -139q-6 -47 -54 -47h-131q-23 0 -34 12t-9 35z" />
<glyph unicode="&#x1e61;" horiz-adv-x="1040" d="M121 35l24 155h531q86 0 100 84l12 76q10 57 -20 76q-18 10 -53 10h-266q-147 0 -220 72q-53 55 -53 154q0 33 6 71l17 101q23 135 99.5 202.5t232 67.5t324.5 -11.5t228 -35.5l-24 -158h-508q-102 0 -117 -90l-10 -74q-10 -63 14 -78q18 -10 43 -9t29 1h272 q141 0 205 -84q47 -61 47 -149q0 -27 -4 -56l-18 -127q-25 -160 -125 -208q-80 -41 -210 -41t-319.5 14t-236.5 37zM573 1274l25 139q6 51 57 51h131q45 0 39 -51l-24 -139q-6 -47 -53 -47h-132q-20 0 -32.5 13t-10.5 34z" />
<glyph unicode="&#x1e6a;" horiz-adv-x="1198" d="M262 1276l37 223h1083l-36 -223h-428l-203 -1276h-238l203 1276h-418zM754 1679l24 140q7 51 58 51h131q45 0 39 -51l-25 -140q-6 -47 -53 -47h-131q-20 0 -32.5 13.5t-10.5 33.5z" />
<glyph unicode="&#x1e6b;" horiz-adv-x="770" d="M168 895l22 143l195 52l92 303h193l-47 -303h270l-31 -195h-270l-76 -479q-25 -162 16 -197q18 -14 99.5 -38.5t87.5 -24.5l-25 -156h-176q-254 0 -254 270q0 53 10 117l80 508h-186zM494 1563l22 139q8 51 57 51h132q47 0 38 -51l-22 -139q-6 -47 -53 -47h-131 q-20 0 -32.5 13t-10.5 34z" />
<glyph unicode="&#x1e80;" horiz-adv-x="2062" d="M293 1499h246l186 -1161l551 1161h258l-219 -450l110 -717l557 1167h254l-725 -1499h-260l-106 670l-328 -670h-272zM971 1913h221l178 -281h-170z" />
<glyph unicode="&#x1e81;" horiz-adv-x="1673" d="M178 1087h248l147 -808l306 600q49 102 61 206h205q10 -41 10 -98t-31 -131l-43 -96l93 -475l313 598q49 102 61 207h207q10 -43 10 -86q0 -94 -51 -187l-446 -817h-256l-94 475l-238 -475h-277zM688 1499h219l180 -278h-169z" />
<glyph unicode="&#x1e82;" horiz-adv-x="2062" d="M293 1499h246l186 -1161l551 1161h258l-219 -450l110 -717l557 1167h254l-725 -1499h-260l-106 670l-328 -670h-272zM1200 1632l244 281h229l-303 -281h-170z" />
<glyph unicode="&#x1e83;" horiz-adv-x="1673" d="M178 1087h248l147 -808l306 600q49 102 61 206h205q10 -41 10 -98t-31 -131l-43 -96l93 -475l313 598q49 102 61 207h207q10 -43 10 -86q0 -94 -51 -187l-446 -817h-256l-94 475l-238 -475h-277zM924 1217l241 280h232l-303 -280h-170z" />
<glyph unicode="&#x1e84;" horiz-adv-x="2062" d="M293 1499h246l186 -1161l551 1161h258l-219 -450l110 -717l557 1167h254l-725 -1499h-260l-106 670l-328 -670h-272zM934 1716q0 72 44 108t91 36t71.5 -29t24.5 -51.5t-2 -39t-14 -38t-31 -35.5q-39 -35 -86 -35t-72.5 31t-25.5 53zM1456 1716q0 72 44 108t91 36t72 -29 t25 -51.5t-2.5 -39t-14.5 -38t-31 -35.5q-39 -35 -86 -35t-72.5 31t-25.5 53z" />
<glyph unicode="&#x1e85;" horiz-adv-x="1673" d="M178 1087h248l147 -808l306 600q49 102 61 206h205q10 -41 10 -98t-31 -131l-43 -96l93 -475l313 598q49 102 61 207h207q10 -43 10 -86q0 -94 -51 -187l-446 -817h-256l-94 475l-238 -475h-277zM647 1326q8 56 47 90t87 34t73 -29.5t25 -52.5q0 -72 -43 -109.5 t-82 -37.5t-64 16q-51 33 -43 89zM1169.5 1326q8.5 56 47 90t87 34t73 -29.5t24.5 -52.5q0 -72 -43 -109.5t-82 -37.5t-64 16q-51 33 -42.5 89z" />
<glyph unicode="&#x1ef2;" horiz-adv-x="1325" d="M293 1499h256l205 -739l469 739h274l-661 -1010l-78 -489h-238l78 489zM602 1913h219l180 -281h-170z" />
<glyph unicode="&#x1ef3;" horiz-adv-x="1142" d="M180 1087h246l90 -792q8 -53 59 -74q8 -2 15.5 -3t14.5 -2t13.5 -1h10.5h6l317 670q37 80 54 207h213q10 -41 10 -84q0 -92 -47 -195l-387 -811q-205 -434 -486 -545q-55 -23 -116 -32v167q121 70 200.5 171.5t149.5 236.5q-100 0 -173 60.5t-89 197.5zM430 1499h219 l180 -278h-170z" />
<glyph unicode="&#x2000;" horiz-adv-x="1024" />
<glyph unicode="&#x2001;" horiz-adv-x="2048" />
<glyph unicode="&#x2002;" horiz-adv-x="1024" />
<glyph unicode="&#x2003;" horiz-adv-x="2048" />
<glyph unicode="&#x2004;" horiz-adv-x="682" />
<glyph unicode="&#x2005;" horiz-adv-x="512" />
<glyph unicode="&#x2006;" horiz-adv-x="341" />
<glyph unicode="&#x2007;" horiz-adv-x="341" />
<glyph unicode="&#x2008;" horiz-adv-x="256" />
<glyph unicode="&#x2009;" horiz-adv-x="409" />
<glyph unicode="&#x200a;" horiz-adv-x="113" />
<glyph unicode="&#x2010;" horiz-adv-x="724" d="M123 489l35 209h643l-35 -209h-643z" />
<glyph unicode="&#x2011;" horiz-adv-x="724" d="M123 489l35 209h643l-35 -209h-643z" />
<glyph unicode="&#x2012;" horiz-adv-x="724" d="M123 489l35 209h643l-35 -209h-643z" />
<glyph unicode="&#x2013;" horiz-adv-x="929" d="M123 483l33 211h968l-32 -211h-969z" />
<glyph unicode="&#x2014;" horiz-adv-x="1507" d="M123 487l35 211h1425l-35 -211h-1425z" />
<glyph unicode="&#x2018;" horiz-adv-x="536" d="M309 1057q0 8 2 18l37 246q10 66 43 107.5t73 56t68.5 18.5t44 4t27.5 -2l25 -4l-17 -96h-2q-66 0 -75 -68l-9 -49h25q25 0 37 -13t8 -40l-25 -160q-8 -59 -65 -59h-154q-43 0 -43 41z" />
<glyph unicode="&#x2019;" horiz-adv-x="536" d="M313 1020l15 98q31 0 49 13.5t22 25.5t7 29l8 47h-25q-23 0 -36 14.5t-9 40.5l27 160q8 59 63 59h154q45 0 45 -41q0 -8 -2 -18l-39 -246q-10 -66 -43 -108.5t-72 -57.5q-61 -23 -95 -22.5t-44 2.5z" />
<glyph unicode="&#x201a;" horiz-adv-x="536" d="M115 -215l16 98q31 0 49.5 13.5t21.5 25.5t7 31l8 45h-24q-25 0 -37.5 14.5t-8.5 40.5l27 162q8 59 64 59h153q45 0 45 -43q0 -8 -2 -16l-39 -248q-12 -66 -44 -107.5t-70 -58.5q-61 -23 -95 -22.5t-45 2.5z" />
<glyph unicode="&#x201c;" horiz-adv-x="860" d="M297 1055q0 8 2 18l37 246q10 66 43 108.5t71.5 57t68.5 18.5t45.5 4t25.5 -2l24 -4l-14 -98h-2q-66 0 -76 -68l-8 -49h25q25 0 37 -13t8 -40l-25 -160q-8 -59 -65 -59h-154q-43 0 -43 41zM647 1055v18l39 246q10 66 43 108.5t72 57t68.5 18.5t45 4t25.5 -2l25 -4 l-15 -98h-2q-66 0 -78 -68l-6 -49h25q25 0 37 -13t8 -40l-25 -160q-10 -59 -65 -59h-154q-43 0 -43 41z" />
<glyph unicode="&#x201d;" horiz-adv-x="860" d="M299 1018l16 100q29 -2 47.5 12.5t22.5 25.5t8 30l6 45h-22q-25 0 -38 14.5t-9 40.5l26 162q10 59 64 59h153q45 0 45 -43v-16l-40 -248q-10 -66 -43 -107.5t-72 -58.5q-61 -23 -95 -22.5t-44 2.5zM649 1018l17 100q45 -2 57 19q14 25 20 49l7 45h-23q-25 0 -38 14.5 t-9 40.5l27 162q10 59 63 59h154q45 0 45 -43v-16l-41 -248q-10 -66 -43 -107.5t-72 -58.5q-61 -23 -95 -22.5t-44 2.5z" />
<glyph unicode="&#x201e;" horiz-adv-x="858" d="M102 -213l17 98q29 -2 47 12.5t22.5 25.5t6.5 30l8 47h-25q-23 0 -36 14.5t-9 40.5l27 160q8 59 63 59h154q45 0 45 -41q0 -8 -2 -18l-39 -246q-10 -66 -43 -108.5t-72 -57.5q-61 -23 -95 -22.5t-44 2.5zM453 -213l14 98q31 -2 49.5 12.5t22.5 25.5t6 30l8 47h-25 q-23 0 -36 14.5t-9 40.5l27 160q8 59 63 59h154q45 0 45 -41q0 -8 -2 -18l-39 -246q-10 -66 -43 -108.5t-72 -57.5q-61 -23 -95 -22.5t-44 2.5z" />
<glyph unicode="&#x2020;" horiz-adv-x="1021" d="M219 954l31 187l276 22l86 414h207l-45 -414l266 -22l-30 -187l-275 -24l-192 -1077h-207l151 1077z" />
<glyph unicode="&#x2021;" horiz-adv-x="960" d="M184 319l31 187l281 26l57 398l-266 24l28 187l277 22l86 414h205l-43 -414l266 -22l-29 -187l-276 -24l-68 -398l273 -26l-31 -187l-287 -24l-80 -442h-207l62 440z" />
<glyph unicode="&#x2022;" horiz-adv-x="630" d="M252 659q0 6 2 15l33 213q4 33 25.5 52t54.5 19h200q61 0 62 -55q0 -6 -2 -16l-33 -213q-10 -66 -84 -66h-201q-57 0 -57 51z" />
<glyph unicode="&#x2026;" horiz-adv-x="1589" d="M283 47l24 160q9 51 58 51h151q45 0 45 -37q0 -6 -2 -14l-24 -160q-8 -47 -60 -47h-151q-20 0 -32.5 13.5t-8.5 33.5zM840 47l24 160q9 51 58 51h151q45 0 45 -37q0 -6 -2 -14l-24 -160q-8 -47 -60 -47h-151q-20 0 -32.5 13.5t-8.5 33.5zM1397 47l24 160q9 51 58 51h151 q45 0 45 -37q0 -6 -2 -14l-24 -160q-8 -47 -60 -47h-151q-20 0 -32.5 13.5t-8.5 33.5z" />
<glyph unicode="&#x202f;" horiz-adv-x="409" />
<glyph unicode="&#x2030;" horiz-adv-x="2744" d="M156 928q0 29 4 61l41 258q20 135 86.5 193.5t226.5 58.5h207q231 0 231 -201q0 -35 -6 -73l-41 -258q-23 -141 -89 -196.5t-222 -55.5h-207q-127 0 -188 71q-43 55 -43 142zM336 952q0 -22 12 -37q20 -25 84 -24h170q72 0 96.5 22.5t34.5 85.5l33 215q4 27 4 51.5 t-13.5 41t-80.5 16.5h-172q-68 0 -94.5 -22.5t-36.5 -86.5l-33 -215q-4 -25 -4 -47zM371 0l1147 1499h184l-1143 -1499h-188zM1128 213q0 31 5 63l41 259q23 135 88 193t225 58h207q231 0 231 -202q0 -33 -6 -72l-41 -258q-20 -139 -88 -195.5t-223 -56.5h-209 q-127 0 -187 72q-43 53 -43 139zM1311 242q0 -25 15 -44.5t79 -19.5h170q90 0 113 45q12 20 18 64l35 215q4 27 4 51.5t-14.5 40.5t-83.5 16h-170q-68 0 -94.5 -22.5t-34.5 -85.5l-35 -215q-2 -20 -2 -45zM1987 215q0 29 6 61l41 259q20 135 86.5 193t224.5 58h207 q231 0 231 -202q0 -33 -4 -72l-41 -258q-23 -139 -90.5 -195.5t-222.5 -56.5h-207q-127 0 -186 72q-45 55 -45 141zM2169 242q0 -25 15.5 -44.5t78.5 -19.5h170q90 0 113 45q12 20 18 64l35 215q4 27 4 51.5t-14.5 40.5t-81.5 16h-172q-68 0 -93.5 -22.5t-35.5 -85.5 l-35 -215q-2 -20 -2 -45z" />
<glyph unicode="&#x2039;" horiz-adv-x="598" d="M53 725l488 416l121 -140l-334 -286l241 -283l-151 -133z" />
<glyph unicode="&#x203a;" horiz-adv-x="733" d="M201 440l336 287l-240 283l152 131l360 -422l-490 -420z" />
<glyph unicode="&#x2044;" horiz-adv-x="591" d="M-156 0l967 1526h180l-966 -1526h-181z" />
<glyph unicode="&#x205f;" horiz-adv-x="512" />
<glyph unicode="&#x20ac;" horiz-adv-x="1452" d="M125 516l20 123l168 16l27 164l-164 17l19 114l167 21q29 182 82 276q23 43 68 98.5t101.5 89t141.5 57.5t181 24t256 -20.5t264 -49.5l-29 -176q-307 29 -421.5 28.5t-161.5 -9.5t-81 -22.5t-59.5 -40t-41 -50t-27.5 -62.5q-18 -55 -35 -143l477 -17l-18 -123l-481 -12 l-27 -164l477 -16l-20 -123q-285 -6 -414 -12l-68 -4q-8 -68 -8 -114t17.5 -80t38 -55.5t55.5 -33.5q59 -20 130.5 -20t142.5 4t132 10q129 12 205 22l33 5l-27 -172q-223 -78 -543 -78q-133 0 -219 41q-98 45 -137 106q-68 104 -67.5 189.5t10.5 175.5z" />
<glyph unicode="&#x2122;" horiz-adv-x="1292" d="M84 1348l25 151h559l-25 -151h-194l-89 -564h-167l88 564h-197zM606 784l182 715h164l76 -442l195 442h182l-35 -715h-168l27 392l-162 -392h-143l-60 392l-92 -392h-166z" />
<glyph unicode="&#x2202;" horiz-adv-x="1298" d="M164 406q0 37 6 73q35 230 188.5 351.5t375.5 121.5t323 -116q8 80 8 143q0 141 -43 211q-63 102 -223 102q-106 0 -212 -31.5t-179 -72.5l-21 168q213 127 332 149q57 10 123 11q260 0 379 -209q84 -143 84 -351q0 -90 -17 -192q-57 -362 -223 -568t-447 -206 q-215 0 -346 141q-109 115 -108 275zM401 422q0 -88 63.5 -149.5t178.5 -61.5q70 0 130.5 36t101 88t71.5 118q55 113 72 213q-104 66 -265 65.5t-245 -72.5q-107 -90 -107 -237z" />
<glyph unicode="&#x2206;" horiz-adv-x="1474" d="M35 0l874 1499h156l375 -1499h-1405zM414 217h770l-232 938z" />
<glyph unicode="&#x220f;" horiz-adv-x="1327" d="M197 0l200 1276h-161l36 223h1258l-35 -223h-164l-203 -1276h-237l203 1276h-459l-201 -1276h-237z" />
<glyph unicode="&#x2211;" horiz-adv-x="1181" d="M4 -410l37 230l553 733l-324 723l37 223h1077l-36 -223h-791l326 -744l-525 -712h760l-37 -230h-1077z" />
<glyph unicode="&#x221a;" horiz-adv-x="1325" d="M117 524l35 224h305l139 -422l702 1312h252l-864 -1638h-229l-187 524h-153z" />
<glyph unicode="&#x221e;" horiz-adv-x="1378" d="M98 659q0 27 2 54q35 340 410 340q203 0 313 -203q158 203 385 203q96 0 163 -33t95 -84q45 -84 45 -182q0 -35 -6 -70q-41 -338 -409 -338q-225 0 -324 205q-72 -104 -161 -154.5t-196.5 -50.5t-170.5 33q-145 74 -146 280zM293 664q0 -131 143 -132q53 0 104.5 28 t81 56.5t72.5 81.5q-55 117 -139 154q-33 14 -66 14q-102 0 -143 -45q-53 -55 -53 -157zM907 698q27 -51 47.5 -81.5t63.5 -57.5t96 -27q172 0 197 166q4 25 4 60q0 109 -148 108q-125 0 -260 -168z" />
<glyph unicode="&#x222b;" horiz-adv-x="905" d="M-23 -367l25 150h148q88 0 135 100q39 84 53 165t22 132l136 856q96 602 403 602q123 0 201 -41q16 -8 22 -10l-24 -149h-144q-102 0 -151 -131q-41 -104 -70 -271l-135 -856q-55 -352 -164 -487q-90 -111 -238.5 -111t-218.5 51z" />
<glyph unicode="&#x2248;" horiz-adv-x="1058" d="M168 524q59 45 97 71t102.5 50.5t125 24.5t145.5 -38t133 -38t82 8t51.5 15.5t62.5 28t63 28.5l31 -113q-4 -2 -42 -30.5t-50.5 -37t-46 -30t-54.5 -27.5q-66 -25 -118 -24.5t-139 39t-142 38.5t-96 -11t-92.5 -33.5t-85.5 -32.5zM227 893q57 43 95 68.5t102.5 51 t126 25.5t146.5 -37.5t133.5 -37.5t81 7t51 14t62.5 28.5t65 29.5l28 -112q-8 -8 -35.5 -28.5t-41 -30t-40 -27t-45 -26.5t-43.5 -19q-47 -18 -101 -18.5t-142 38.5t-142.5 39t-95.5 -12t-92 -33.5t-88 -32.5z" />
<glyph unicode="&#x2260;" horiz-adv-x="1089" d="M246 397l35 217h305l164 213h-435l33 215h559l109 142h139l-108 -142h176l-35 -215h-299l-164 -213h430l-35 -217h-555l-125 -164h-139l125 164h-180z" />
<glyph unicode="&#x2264;" horiz-adv-x="1101" d="M188 184l31 195h770l-31 -195h-770zM285 788l37 228l813 295l-37 -228l-545 -192l485 -199l-37 -219z" />
<glyph unicode="&#x2265;" horiz-adv-x="892" d="M115 184l30 195h770l-30 -195h-770zM158 469l37 231l557 203l-498 191l37 213l721 -295l-37 -230z" />
<glyph unicode="&#x25fc;" horiz-adv-x="1085" d="M0 0v1085h1085v-1085h-1085z" />
</font>
</defs>
</svg>
