<?xml version="1.0" encoding="utf-8"?>
<!-- Generator: Adobe Illustrator 15.1.0, SVG Export Plug-In . SVG Version: 6.00 Build 0)  -->
<!DOCTYPE svg PUBLIC "-//W3C//DTD SVG 1.1//EN" "http://www.w3.org/Graphics/SVG/1.1/DTD/svg11.dtd">
<svg version="1.1" id="Layer_1" xmlns="http://www.w3.org/2000/svg" xmlns:xlink="http://www.w3.org/1999/xlink" x="0px" y="0px"
	 width="300px" height="300px" viewBox="0 0 300 300" enable-background="new 0 0 300 300" xml:space="preserve">
<g id="PRODUCTIVITY">
	<g id="CIRCLES">
		<g opacity="0.7">
			<g>
				<g>
					<path fill="#00ADEE" d="M135.954,127.04c10.553-0.627,20.916-0.531,30.838,0.183c10.088,0.726,20.017,2.112,29.428,4.099
						c9.84,2.078,19.382,4.872,28.124,8.358c9.402,3.75,18.137,8.406,25.461,13.995c8.123,6.198,13.873,13.046,16.995,20.269
						c3.499,8.099,3.693,16.666,0.168,25.149c-3.948,9.499-12.484,18.725-25.816,26.657c-14.58,8.675-34.244,15.426-58.061,18.875
						c-24.649,3.569-49.603,3.016-72.361-0.996c-21.896-3.858-40.373-10.678-54.146-19.364
						c-12.585-7.938-20.737-17.123-24.234-26.721c-3.117-8.554-2.473-17.272,1.815-25.692c3.802-7.467,10.165-14.072,18.045-19.692
						c7.16-5.107,15.713-9.503,25.021-13.097c8.677-3.351,18.207-6.082,28.203-8.107
						C115.001,129.017,125.245,127.676,135.954,127.04z M180.491,238.139c22.015-3.082,40.342-9.136,54.112-16.962
						c12.673-7.203,21-15.637,25.095-24.384c3.684-7.867,3.883-15.865,0.932-23.476c-2.648-6.829-7.831-13.339-15.334-19.263
						c-6.796-5.365-15.004-9.854-23.91-13.481c-8.306-3.382-17.421-6.099-26.855-8.124c-9.038-1.94-18.597-3.294-28.324-4.004
						c-9.573-0.699-19.577-0.793-29.761-0.179c-10.328,0.623-20.193,1.934-29.386,3.827c-9.588,1.974-18.694,4.631-26.944,7.883
						c-8.826,3.479-16.874,7.719-23.537,12.628c-7.301,5.378-13.085,11.669-16.374,18.738c-3.686,7.926-3.904,16.075-0.599,24.018
						c3.683,8.848,11.656,17.255,23.646,24.471c13.038,7.847,30.287,13.969,50.552,17.42
						C134.804,240.826,157.768,241.319,180.491,238.139"/>
				</g>
			</g>
		</g>
		<g opacity="0.5">
			<g>
				<g enable-background="new    ">
					<g>
						<path fill="#00ADEE" d="M138.875,142.187c8.355-0.54,16.576-0.457,24.423,0.157c7.95,0.622,15.702,1.802,22.944,3.482
							c7.501,1.739,14.611,4.051,20.921,6.894c6.672,3.007,12.58,6.67,17.156,10.963c4.942,4.639,7.914,9.616,8.857,14.708
							c1.024,5.523-0.343,11.164-4.161,16.556c-4.12,5.818-11.035,11.262-20.622,15.786c-10.151,4.791-22.996,8.411-37.944,10.225
							c-15.27,1.854-30.599,1.567-44.766-0.521c-13.832-2.04-26.001-5.717-35.698-10.542c-9.15-4.554-15.844-10.006-19.705-15.92
							c-3.572-5.472-4.662-11.252-3.132-17.043c1.404-5.312,4.897-10.161,9.793-14.4c4.558-3.947,10.392-7.418,17.034-10.31
							c6.292-2.739,13.413-5.004,21.052-6.703C122.409,143.877,130.423,142.732,138.875,142.187z M169.075,217.527
							c13.966-1.66,26.019-4.979,35.609-9.386c9.089-4.177,15.725-9.221,19.769-14.638c3.762-5.041,5.229-10.338,4.432-15.548
							c-0.738-4.823-3.414-9.557-7.99-13.984c-4.251-4.113-9.808-7.634-16.127-10.531c-5.989-2.747-12.771-4.984-19.946-6.67
							c-6.939-1.63-14.382-2.778-22.026-3.383c-7.549-0.597-15.46-0.678-23.5-0.153c-8.129,0.531-15.827,1.644-22.902,3.237
							c-7.313,1.646-14.108,3.84-20.086,6.486c-6.296,2.788-11.79,6.126-16.038,9.91c-4.548,4.051-7.727,8.668-8.896,13.707
							c-1.269,5.467-0.057,10.9,3.479,16.021c3.806,5.51,10.239,10.565,18.927,14.772c9.172,4.441,20.603,7.814,33.535,9.682
							C140.54,218.959,154.829,219.221,169.075,217.527"/>
					</g>
					<g enable-background="new    ">
						<defs>
							<path id="SVGID_1_" enable-background="new    " d="M138.875,142.187c8.355-0.54,16.576-0.457,24.423,0.157
								c7.95,0.622,15.702,1.802,22.944,3.482c7.501,1.739,14.611,4.051,20.921,6.894c6.672,3.007,12.58,6.67,17.156,10.963
								c-4.576-4.293-10.484-7.956-17.156-10.963c-6.31-2.843-13.42-5.155-20.921-6.894c-7.242-1.68-14.994-2.86-22.944-3.482
								C155.451,141.73,147.231,141.647,138.875,142.187z"/>
						</defs>
						<clipPath id="SVGID_2_">
							<use xlink:href="#SVGID_1_"  overflow="visible"/>
						</clipPath>
						<g clip-path="url(#SVGID_2_)" enable-background="new    ">
							<path fill="#005777" d="M138.875,142.187c6.402-0.413,12.71-0.461,18.822-0.187c6.146,0.275,12.179,0.881,17.97,1.785
								c5.902,0.921,11.63,2.165,17.025,3.707c5.568,1.591,10.851,3.521,15.651,5.771c-4.801-2.251-10.083-4.18-15.651-5.771
								c-5.396-1.542-11.123-2.786-17.025-3.707c-5.791-0.904-11.823-1.509-17.97-1.785
								C151.586,141.725,145.278,141.773,138.875,142.187"/>
							<path fill="#005778" d="M208.344,153.263c0.121,0.057,0.242,0.114,0.363,0.171c0.121,0.058,0.242,0.115,0.362,0.174
								c0.12,0.058,0.241,0.115,0.36,0.174c0.121,0.059,0.24,0.117,0.36,0.176c-0.12-0.059-0.239-0.117-0.36-0.176
								c-0.119-0.059-0.24-0.116-0.36-0.174c-0.12-0.059-0.241-0.116-0.362-0.174C208.586,153.377,208.465,153.319,208.344,153.263"
								/>
							<path fill="#005778" d="M209.79,153.957c0.107,0.053,0.215,0.106,0.321,0.159c0.107,0.054,0.215,0.107,0.321,0.161
								s0.213,0.107,0.319,0.162c0.106,0.054,0.213,0.108,0.318,0.163c-0.105-0.055-0.212-0.109-0.318-0.163
								c-0.106-0.055-0.213-0.108-0.319-0.162s-0.214-0.107-0.321-0.16C210.005,154.063,209.897,154.01,209.79,153.957"/>
							<path fill="#005879" d="M211.07,154.603L211.07,154.603c0.046,0.023,0.092,0.047,0.138,0.07
								c0.046,0.024,0.091,0.048,0.137,0.071s0.092,0.048,0.138,0.071c0.045,0.024,0.091,0.048,0.137,0.072
								c-0.046-0.024-0.092-0.048-0.137-0.072c-0.046-0.023-0.092-0.048-0.138-0.071s-0.091-0.047-0.137-0.071
								C211.162,154.649,211.116,154.626,211.07,154.603"/>
							<path fill="#005879" d="M211.619,154.888c0.045,0.023,0.091,0.048,0.136,0.071c0.046,0.024,0.091,0.048,0.137,0.072
								c0.045,0.024,0.091,0.048,0.136,0.072c0.046,0.024,0.091,0.049,0.136,0.072c-0.045-0.023-0.09-0.048-0.136-0.072
								c-0.045-0.024-0.091-0.048-0.136-0.072c-0.046-0.024-0.091-0.048-0.137-0.072
								C211.71,154.936,211.664,154.911,211.619,154.888"/>
							<path fill="#005879" d="M212.163,155.176c0.046,0.024,0.091,0.049,0.136,0.073s0.09,0.049,0.136,0.073
								c0.045,0.024,0.09,0.049,0.135,0.073s0.09,0.049,0.135,0.073c-0.045-0.024-0.09-0.049-0.135-0.073s-0.09-0.049-0.135-0.073
								c-0.046-0.024-0.091-0.049-0.136-0.073S212.209,155.2,212.163,155.176"/>
							<path fill="#00597A" d="M212.704,155.469c0.045,0.024,0.09,0.049,0.135,0.074c0.045,0.024,0.09,0.049,0.135,0.073
								c0.044,0.025,0.089,0.05,0.134,0.074c0.045,0.025,0.089,0.05,0.134,0.074c-0.045-0.024-0.089-0.049-0.134-0.074
								c-0.045-0.024-0.09-0.049-0.134-0.074c-0.045-0.024-0.09-0.049-0.135-0.073C212.794,155.518,212.749,155.493,212.704,155.469
								"/>
							<path fill="#00597A" d="M213.241,155.765c0.045,0.025,0.089,0.05,0.134,0.075c0.045,0.024,0.089,0.05,0.134,0.075
								c0.044,0.024,0.089,0.05,0.133,0.075c0.044,0.024,0.089,0.05,0.133,0.075c-0.044-0.025-0.089-0.051-0.133-0.075
								c-0.044-0.025-0.089-0.051-0.133-0.075c-0.045-0.025-0.089-0.051-0.134-0.075C213.33,155.814,213.286,155.79,213.241,155.765
								"/>
							<path fill="#00597B" d="M213.774,156.065L213.774,156.065c0.044,0.025,0.089,0.05,0.133,0.075s0.088,0.051,0.132,0.076
								c0.045,0.025,0.089,0.051,0.133,0.076s0.088,0.051,0.132,0.076c-0.044-0.025-0.088-0.051-0.132-0.076
								s-0.088-0.051-0.133-0.076c-0.044-0.025-0.088-0.051-0.132-0.076S213.818,156.091,213.774,156.065"/>
							<path fill="#005A7B" d="M214.304,156.369c0.036,0.021,0.072,0.042,0.108,0.063c0.036,0.021,0.072,0.042,0.109,0.063
								c0.035,0.021,0.072,0.042,0.107,0.063c0.037,0.021,0.072,0.042,0.108,0.063c-0.036-0.021-0.071-0.043-0.108-0.063
								c-0.035-0.021-0.071-0.043-0.107-0.063c-0.037-0.021-0.073-0.043-0.109-0.063
								C214.376,156.411,214.34,156.391,214.304,156.369"/>
							<path fill="#005A7C" d="M214.737,156.623c0.024,0.014,0.048,0.028,0.071,0.042s0.047,0.028,0.071,0.042
								c0.023,0.014,0.047,0.028,0.07,0.042c0.024,0.015,0.048,0.028,0.071,0.042c-0.023-0.014-0.048-0.027-0.071-0.042
								c-0.023-0.014-0.047-0.028-0.07-0.042c-0.024-0.014-0.048-0.028-0.071-0.042S214.762,156.637,214.737,156.623"/>
							<path fill="#005A7C" d="M215.021,156.791c0.023,0.015,0.047,0.028,0.07,0.043c0.023,0.014,0.047,0.027,0.07,0.042
								c0.024,0.014,0.048,0.028,0.071,0.042c0.023,0.015,0.047,0.028,0.07,0.043c-0.023-0.015-0.047-0.028-0.07-0.043
								c-0.023-0.014-0.047-0.028-0.071-0.042c-0.023-0.015-0.047-0.028-0.07-0.042
								C215.068,156.819,215.045,156.806,215.021,156.791"/>
							<path fill="#005A7C" d="M215.304,156.961c0.023,0.014,0.047,0.028,0.07,0.042c0.023,0.015,0.047,0.028,0.07,0.043
								s0.047,0.028,0.07,0.043c0.023,0.014,0.047,0.028,0.07,0.042c-0.023-0.014-0.047-0.028-0.07-0.042
								c-0.023-0.015-0.047-0.028-0.07-0.043s-0.047-0.028-0.07-0.043C215.351,156.989,215.327,156.975,215.304,156.961"/>
							<path fill="#005B7D" d="M215.585,157.131L215.585,157.131c0.023,0.015,0.047,0.029,0.07,0.043
								c0.022,0.015,0.046,0.029,0.069,0.043c0.023,0.015,0.047,0.029,0.07,0.043c0.023,0.015,0.047,0.029,0.069,0.043
								c-0.022-0.014-0.046-0.028-0.069-0.043c-0.023-0.014-0.047-0.028-0.07-0.043c-0.023-0.014-0.047-0.028-0.07-0.043
								C215.632,157.16,215.608,157.146,215.585,157.131"/>
							<path fill="#005B7D" d="M215.864,157.303c0.023,0.015,0.047,0.029,0.07,0.043c0.023,0.015,0.046,0.029,0.069,0.044
								c0.023,0.014,0.047,0.028,0.069,0.043c0.023,0.015,0.047,0.029,0.07,0.043c-0.023-0.014-0.047-0.028-0.07-0.043
								c-0.022-0.015-0.046-0.029-0.069-0.043c-0.023-0.015-0.046-0.029-0.069-0.044
								C215.911,157.332,215.888,157.317,215.864,157.303"/>
							<path fill="#005B7E" d="M216.144,157.476L216.144,157.476c0.022,0.015,0.046,0.029,0.069,0.044
								c0.022,0.015,0.046,0.028,0.069,0.043c0.022,0.015,0.046,0.029,0.069,0.044c0.022,0.015,0.046,0.029,0.069,0.044
								c-0.023-0.015-0.047-0.029-0.069-0.044c-0.023-0.015-0.047-0.029-0.069-0.044c-0.023-0.015-0.047-0.028-0.069-0.043
								C216.189,157.505,216.166,157.49,216.144,157.476"/>
							<path fill="#005C7E" d="M216.421,157.65c0.022,0.014,0.046,0.028,0.068,0.043c0.023,0.015,0.046,0.029,0.069,0.044
								s0.046,0.029,0.069,0.044c0.022,0.015,0.046,0.029,0.068,0.044c-0.022-0.015-0.046-0.029-0.068-0.044
								c-0.023-0.015-0.046-0.029-0.069-0.044s-0.046-0.029-0.069-0.044C216.467,157.679,216.443,157.664,216.421,157.65"/>
							<path fill="#005C7E" d="M216.696,157.825c0.023,0.015,0.046,0.029,0.069,0.044c0.022,0.015,0.046,0.029,0.068,0.044
								s0.046,0.029,0.068,0.044c0.023,0.015,0.046,0.029,0.068,0.045c-0.022-0.016-0.045-0.03-0.068-0.045
								c-0.022-0.015-0.046-0.029-0.068-0.044c-0.023-0.015-0.046-0.029-0.068-0.044C216.742,157.854,216.72,157.84,216.696,157.825
								"/>
							<path fill="#005C7F" d="M216.971,158.002c0.023,0.015,0.046,0.029,0.068,0.044c0.023,0.015,0.046,0.029,0.068,0.044
								c0.023,0.016,0.046,0.03,0.068,0.045c0.023,0.015,0.046,0.029,0.068,0.044c-0.022-0.015-0.045-0.029-0.068-0.044
								c-0.022-0.015-0.045-0.029-0.067-0.045c-0.023-0.015-0.046-0.029-0.069-0.044
								C217.017,158.031,216.994,158.017,216.971,158.002"/>
							<path fill="#005D7F" d="M217.244,158.179c0.023,0.016,0.046,0.03,0.068,0.045s0.046,0.03,0.068,0.045
								s0.045,0.029,0.067,0.045c0.022,0.015,0.046,0.029,0.068,0.044c-0.022-0.015-0.046-0.029-0.068-0.044
								c-0.022-0.016-0.045-0.03-0.067-0.045s-0.046-0.03-0.068-0.045S217.268,158.194,217.244,158.179"/>
							<path fill="#005D80" d="M217.517,158.357L217.517,158.357c0.022,0.016,0.045,0.03,0.067,0.045
								c0.022,0.016,0.045,0.03,0.068,0.045c0.022,0.016,0.045,0.03,0.067,0.046c0.022,0.015,0.045,0.029,0.067,0.045
								c-0.022-0.016-0.045-0.03-0.067-0.045c-0.022-0.016-0.045-0.03-0.067-0.046c-0.023-0.015-0.046-0.029-0.068-0.045
								C217.562,158.388,217.539,158.373,217.517,158.357"/>
							<path fill="#005D80" d="M217.787,158.538c0.022,0.015,0.045,0.03,0.067,0.045s0.045,0.03,0.067,0.045
								c0.022,0.016,0.045,0.03,0.067,0.046c0.022,0.015,0.045,0.03,0.067,0.045c-0.022-0.015-0.045-0.03-0.067-0.045
								c-0.022-0.016-0.045-0.03-0.067-0.046c-0.022-0.015-0.045-0.03-0.067-0.045S217.81,158.553,217.787,158.538"/>
							<path fill="#005D81" d="M218.057,158.719L218.057,158.719c0.015,0.011,0.03,0.021,0.045,0.031
								c0.016,0.01,0.03,0.021,0.046,0.03c0.015,0.011,0.03,0.021,0.045,0.031c0.016,0.011,0.03,0.021,0.046,0.031
								c-0.016-0.011-0.03-0.021-0.046-0.031c-0.015-0.01-0.03-0.021-0.045-0.03c-0.016-0.011-0.03-0.021-0.046-0.031
								C218.087,158.739,218.071,158.729,218.057,158.719"/>
							<path fill="#005E81" d="M218.238,158.843c0.014,0.01,0.028,0.02,0.042,0.028c0.015,0.01,0.028,0.02,0.043,0.029
								c0.014,0.01,0.028,0.02,0.042,0.029s0.028,0.02,0.042,0.029c-0.014-0.01-0.028-0.02-0.042-0.029s-0.028-0.02-0.042-0.029
								c-0.015-0.01-0.028-0.02-0.043-0.029C218.267,158.862,218.252,158.853,218.238,158.843"/>
							<path fill="#005E81" d="M218.407,158.959c0.015,0.009,0.028,0.019,0.042,0.028c0.015,0.01,0.028,0.02,0.043,0.029
								c0.014,0.01,0.027,0.02,0.042,0.029c0.014,0.01,0.028,0.02,0.042,0.029c-0.014-0.01-0.028-0.02-0.042-0.029
								c-0.015-0.01-0.028-0.02-0.042-0.029c-0.015-0.01-0.028-0.02-0.043-0.029C218.436,158.978,218.422,158.968,218.407,158.959"
								/>
							<path fill="#005E82" d="M218.576,159.075c0.014,0.01,0.028,0.02,0.042,0.028c0.014,0.01,0.028,0.02,0.042,0.029
								s0.028,0.02,0.042,0.029s0.028,0.02,0.042,0.029l0,0c-0.014-0.01-0.028-0.02-0.042-0.029s-0.028-0.02-0.042-0.029
								s-0.028-0.02-0.042-0.029C218.604,159.095,218.59,159.085,218.576,159.075"/>
							<path fill="#005F82" d="M218.744,159.191L218.744,159.191c0.014,0.01,0.028,0.02,0.042,0.029s0.028,0.02,0.042,0.029
								s0.027,0.02,0.042,0.029c0.014,0.01,0.027,0.02,0.042,0.029c-0.015-0.01-0.028-0.02-0.042-0.029
								c-0.015-0.01-0.028-0.02-0.042-0.029s-0.028-0.02-0.042-0.029S218.758,159.201,218.744,159.191"/>
							<path fill="#005F83" d="M218.912,159.309c0.014,0.01,0.027,0.021,0.041,0.03s0.028,0.02,0.042,0.029s0.028,0.02,0.042,0.029
								s0.027,0.02,0.041,0.029l0,0c-0.014-0.01-0.027-0.02-0.041-0.029s-0.028-0.02-0.042-0.029s-0.028-0.02-0.042-0.029
								S218.926,159.318,218.912,159.309"/>
							<path fill="#005F83" d="M219.078,159.427c0.015,0.01,0.028,0.02,0.042,0.029c0.014,0.011,0.027,0.021,0.042,0.03
								c0.014,0.01,0.027,0.02,0.041,0.029s0.028,0.02,0.042,0.029l0,0c-0.014-0.01-0.028-0.02-0.042-0.029s-0.027-0.02-0.041-0.029
								c-0.015-0.01-0.028-0.02-0.042-0.03C219.106,159.446,219.093,159.437,219.078,159.427"/>
							<path fill="#006083" d="M219.245,159.545c0.014,0.01,0.027,0.021,0.041,0.03s0.028,0.02,0.042,0.029s0.027,0.02,0.041,0.03
								c0.014,0.01,0.027,0.02,0.041,0.029c-0.014-0.01-0.027-0.02-0.041-0.029c-0.014-0.011-0.027-0.021-0.041-0.03
								s-0.028-0.02-0.042-0.029S219.259,159.555,219.245,159.545"/>
							<path fill="#006084" d="M219.41,159.664c0.015,0.01,0.028,0.02,0.042,0.029c0.014,0.011,0.027,0.021,0.041,0.03
								s0.027,0.02,0.041,0.03c0.014,0.01,0.028,0.02,0.042,0.029c-0.014-0.01-0.028-0.02-0.042-0.029
								c-0.014-0.011-0.027-0.021-0.041-0.03s-0.027-0.02-0.041-0.03C219.438,159.684,219.425,159.674,219.41,159.664"/>
							<path fill="#006084" d="M219.576,159.783c0.014,0.01,0.027,0.021,0.041,0.03s0.027,0.02,0.041,0.029
								c0.014,0.011,0.027,0.021,0.041,0.03s0.027,0.021,0.041,0.03c-0.014-0.01-0.027-0.021-0.041-0.03s-0.027-0.02-0.041-0.03
								c-0.014-0.01-0.027-0.02-0.041-0.029S219.59,159.793,219.576,159.783"/>
							<path fill="#006085" d="M219.74,159.903c0.014,0.01,0.027,0.02,0.041,0.03c0.014,0.01,0.027,0.02,0.041,0.029
								c0.014,0.011,0.027,0.021,0.041,0.03c0.014,0.011,0.027,0.021,0.041,0.03c-0.014-0.01-0.027-0.02-0.041-0.03
								c-0.014-0.01-0.027-0.02-0.041-0.03c-0.014-0.01-0.027-0.02-0.041-0.029C219.768,159.923,219.754,159.913,219.74,159.903"/>
							<path fill="#006185" d="M219.904,160.023c0.014,0.01,0.027,0.021,0.041,0.03s0.027,0.021,0.041,0.03s0.027,0.02,0.04,0.03
								c0.014,0.01,0.027,0.02,0.041,0.03c-0.014-0.011-0.027-0.021-0.041-0.03c-0.013-0.011-0.026-0.021-0.04-0.03
								s-0.027-0.021-0.041-0.03S219.918,160.033,219.904,160.023"/>
							<path fill="#006186" d="M220.067,160.145L220.067,160.145c0.014,0.01,0.027,0.02,0.041,0.03
								c0.014,0.01,0.027,0.02,0.041,0.03c0.013,0.01,0.026,0.02,0.04,0.03c0.014,0.01,0.027,0.021,0.041,0.03
								c-0.014-0.01-0.027-0.021-0.041-0.03c-0.014-0.011-0.027-0.021-0.04-0.03c-0.014-0.011-0.027-0.021-0.041-0.03
								C220.095,160.164,220.081,160.154,220.067,160.145"/>
							<path fill="#006186" d="M220.23,160.266c0.014,0.01,0.027,0.021,0.04,0.03c0.014,0.011,0.027,0.021,0.041,0.03
								c0.014,0.011,0.027,0.021,0.04,0.031c0.014,0.01,0.027,0.02,0.041,0.03c-0.014-0.011-0.027-0.021-0.041-0.03
								c-0.013-0.011-0.026-0.021-0.04-0.031c-0.014-0.01-0.027-0.02-0.041-0.03C220.258,160.286,220.244,160.275,220.23,160.266"/>
							<path fill="#006286" d="M220.393,160.388c0.014,0.01,0.027,0.021,0.04,0.03c0.014,0.01,0.027,0.021,0.041,0.03
								c0.013,0.011,0.026,0.021,0.04,0.031c0.014,0.01,0.027,0.021,0.04,0.03c-0.013-0.01-0.026-0.021-0.04-0.03
								c-0.014-0.011-0.027-0.021-0.04-0.031c-0.014-0.01-0.027-0.021-0.041-0.03C220.42,160.408,220.406,160.397,220.393,160.388"
								/>
							<path fill="#006287" d="M220.554,160.51c0.014,0.01,0.027,0.021,0.04,0.03c0.014,0.011,0.027,0.021,0.041,0.031
								c0.013,0.01,0.026,0.021,0.04,0.03c0.014,0.011,0.026,0.021,0.04,0.031c-0.014-0.011-0.026-0.021-0.04-0.031
								c-0.014-0.01-0.027-0.021-0.04-0.03c-0.014-0.011-0.027-0.021-0.041-0.031C220.581,160.53,220.567,160.52,220.554,160.51"/>
							<path fill="#006287" d="M220.715,160.633c0.014,0.01,0.026,0.021,0.04,0.03c0.014,0.011,0.026,0.021,0.04,0.031
								c0.014,0.01,0.026,0.021,0.04,0.03c0.014,0.011,0.026,0.021,0.04,0.031c-0.014-0.01-0.026-0.021-0.04-0.031
								c-0.014-0.01-0.026-0.021-0.04-0.03c-0.014-0.011-0.026-0.021-0.04-0.031C220.741,160.653,220.729,160.643,220.715,160.633"
								/>
							<path fill="#006388" d="M220.875,160.756L220.875,160.756c0.014,0.011,0.026,0.021,0.04,0.031
								c0.014,0.01,0.026,0.021,0.04,0.03c0.014,0.011,0.026,0.021,0.04,0.031c0.013,0.011,0.026,0.021,0.04,0.031
								c-0.014-0.011-0.027-0.021-0.04-0.031c-0.014-0.01-0.026-0.021-0.04-0.031c-0.014-0.01-0.026-0.021-0.04-0.03
								C220.901,160.776,220.889,160.767,220.875,160.756"/>
							<path fill="#006388" d="M221.035,160.88c0.013,0.011,0.026,0.021,0.039,0.031c0.014,0.01,0.026,0.021,0.04,0.03
								c0.014,0.011,0.026,0.021,0.04,0.031c0.013,0.011,0.026,0.021,0.039,0.031c-0.013-0.01-0.026-0.021-0.039-0.031
								c-0.014-0.01-0.026-0.021-0.04-0.031c-0.013-0.01-0.026-0.021-0.04-0.03C221.062,160.9,221.048,160.891,221.035,160.88"/>
							<path fill="#006388" d="M221.193,161.004c0.018,0.014,0.034,0.026,0.051,0.04c0.017,0.013,0.033,0.026,0.05,0.039
								c0.018,0.014,0.034,0.026,0.051,0.04s0.033,0.026,0.05,0.04l0,0c-0.017-0.014-0.033-0.026-0.05-0.04s-0.033-0.026-0.051-0.04
								c-0.017-0.013-0.033-0.026-0.05-0.039C221.228,161.03,221.211,161.018,221.193,161.004"/>
							<path fill="#006388" d="M221.395,161.163L221.395,161.163c0.006,0.005,0.013,0.01,0.019,0.015
								c0.007,0.005,0.013,0.01,0.019,0.015c0.007,0.005,0.013,0.01,0.019,0.015c0.007,0.005,0.013,0.01,0.019,0.015
								c-0.006-0.005-0.012-0.01-0.019-0.015c-0.006-0.005-0.012-0.01-0.019-0.015c-0.006-0.005-0.012-0.01-0.019-0.015
								C221.407,161.173,221.4,161.168,221.395,161.163"/>
							<path fill="#006388" d="M221.469,161.222c0.007,0.005,0.013,0.01,0.019,0.015c0.007,0.006,0.013,0.01,0.019,0.016
								c0.007,0.005,0.013,0.01,0.019,0.015c0.007,0.005,0.013,0.01,0.019,0.015c-0.006-0.005-0.012-0.01-0.019-0.015
								c-0.006-0.005-0.012-0.01-0.019-0.015c-0.006-0.006-0.012-0.01-0.019-0.016C221.481,161.231,221.476,161.227,221.469,161.222
								"/>
							<path fill="#006287" d="M221.543,161.281c0.007,0.005,0.013,0.01,0.019,0.015c0.007,0.005,0.013,0.01,0.019,0.015
								c0.007,0.005,0.013,0.01,0.019,0.016c0.007,0.005,0.013,0.01,0.019,0.015c-0.006-0.005-0.012-0.01-0.019-0.015
								c-0.006-0.006-0.012-0.011-0.019-0.016c-0.006-0.005-0.012-0.01-0.019-0.015C221.556,161.291,221.55,161.286,221.543,161.281
								"/>
							<path fill="#006287" d="M221.617,161.341L221.617,161.341c0.006,0.005,0.013,0.01,0.019,0.015s0.013,0.01,0.019,0.015
								s0.013,0.01,0.019,0.015s0.013,0.01,0.019,0.016c-0.006-0.006-0.013-0.011-0.019-0.016s-0.013-0.01-0.019-0.015
								s-0.013-0.01-0.019-0.015S221.623,161.346,221.617,161.341"/>
							<path fill="#006286" d="M221.691,161.4c0.006,0.005,0.012,0.01,0.019,0.015c0.006,0.005,0.012,0.01,0.019,0.015
								c0.006,0.005,0.012,0.01,0.018,0.015c0.007,0.005,0.013,0.011,0.019,0.016l0,0c-0.006-0.005-0.012-0.011-0.018-0.016
								c-0.007-0.005-0.013-0.01-0.019-0.015c-0.007-0.005-0.013-0.01-0.019-0.015C221.703,161.41,221.697,161.405,221.691,161.4"/>
							<path fill="#006186" d="M221.765,161.46c0.007,0.005,0.013,0.01,0.019,0.015c0.007,0.005,0.013,0.01,0.019,0.015
								s0.013,0.01,0.019,0.015c0.006,0.006,0.012,0.011,0.019,0.016c-0.007-0.005-0.013-0.01-0.019-0.016
								c-0.006-0.005-0.013-0.01-0.019-0.015s-0.012-0.01-0.019-0.015C221.777,161.47,221.771,161.465,221.765,161.46"/>
							<path fill="#006186" d="M221.839,161.52c0.006,0.005,0.012,0.01,0.019,0.015c0.006,0.005,0.012,0.01,0.018,0.015
								c0.007,0.005,0.013,0.011,0.019,0.016c0.007,0.005,0.013,0.01,0.019,0.015c-0.006-0.005-0.012-0.01-0.019-0.015
								c-0.006-0.005-0.012-0.011-0.019-0.016c-0.006-0.005-0.012-0.01-0.018-0.015C221.851,161.529,221.845,161.524,221.839,161.52
								"/>
							<path fill="#006185" d="M221.912,161.579c0.006,0.005,0.013,0.01,0.019,0.015s0.012,0.011,0.019,0.016
								c0.006,0.005,0.012,0.01,0.018,0.015c0.007,0.005,0.013,0.01,0.019,0.015c-0.006-0.005-0.012-0.01-0.019-0.015
								c-0.006-0.005-0.012-0.01-0.018-0.015c-0.007-0.005-0.013-0.011-0.019-0.016S221.918,161.584,221.912,161.579"/>
							<path fill="#006085" d="M221.985,161.639L221.985,161.639c0.006,0.006,0.013,0.011,0.019,0.016s0.012,0.01,0.019,0.015
								c0.006,0.005,0.012,0.01,0.018,0.015c0.007,0.006,0.013,0.011,0.019,0.016c-0.006-0.005-0.012-0.01-0.019-0.016
								c-0.006-0.005-0.012-0.01-0.018-0.015c-0.007-0.005-0.013-0.01-0.019-0.015S221.991,161.645,221.985,161.639"/>
							<path fill="#006084" d="M222.059,161.699c0.006,0.005,0.013,0.01,0.019,0.015s0.012,0.011,0.019,0.016
								c0.006,0.005,0.012,0.01,0.018,0.015s0.013,0.01,0.019,0.015c-0.006-0.005-0.013-0.01-0.019-0.015s-0.012-0.01-0.018-0.015
								c-0.007-0.005-0.013-0.011-0.019-0.016S222.064,161.704,222.059,161.699"/>
							<path fill="#006084" d="M222.132,161.759L222.132,161.759c0.006,0.006,0.012,0.011,0.019,0.016
								c0.006,0.005,0.012,0.01,0.018,0.015s0.013,0.011,0.019,0.016s0.012,0.01,0.019,0.015c-0.007-0.005-0.013-0.01-0.019-0.015
								s-0.013-0.011-0.019-0.016s-0.012-0.01-0.018-0.015C222.144,161.77,222.138,161.765,222.132,161.759"/>
							<path fill="#006083" d="M222.205,161.819c0.006,0.005,0.012,0.011,0.018,0.016s0.013,0.01,0.019,0.015
								s0.012,0.01,0.018,0.016c0.007,0.005,0.013,0.01,0.019,0.015c-0.006-0.005-0.012-0.01-0.019-0.015
								c-0.006-0.006-0.012-0.011-0.018-0.016s-0.013-0.01-0.019-0.015S222.211,161.824,222.205,161.819"/>
							<path fill="#005F83" d="M222.277,161.88c0.006,0.005,0.012,0.01,0.019,0.015c0.006,0.006,0.012,0.011,0.018,0.016
								s0.013,0.01,0.019,0.016c0.006,0.005,0.012,0.01,0.018,0.015c-0.006-0.005-0.012-0.01-0.018-0.015
								c-0.006-0.006-0.013-0.011-0.019-0.016s-0.012-0.01-0.018-0.016C222.289,161.89,222.283,161.885,222.277,161.88"/>
							<path fill="#005F83" d="M222.35,161.94c0.007,0.005,0.013,0.01,0.019,0.015c0.006,0.006,0.012,0.011,0.019,0.016
								c0.006,0.005,0.012,0.01,0.018,0.016c0.006,0.005,0.012,0.01,0.019,0.015c-0.007-0.005-0.013-0.01-0.019-0.015
								c-0.006-0.006-0.012-0.011-0.018-0.016c-0.007-0.005-0.013-0.01-0.019-0.016C222.362,161.95,222.356,161.945,222.35,161.94"
								/>
							<path fill="#005F82" d="M222.423,162.001c0.006,0.005,0.012,0.01,0.018,0.016c0.006,0.005,0.012,0.01,0.019,0.015
								c0.006,0.005,0.012,0.011,0.018,0.016s0.012,0.01,0.019,0.015c-0.007-0.005-0.013-0.01-0.019-0.015s-0.012-0.011-0.018-0.016
								c-0.007-0.005-0.013-0.01-0.019-0.015C222.435,162.011,222.429,162.006,222.423,162.001"/>
							<path fill="#005E82" d="M222.495,162.062c0.006,0.005,0.012,0.011,0.018,0.016s0.012,0.01,0.019,0.015
								c0.006,0.006,0.012,0.011,0.018,0.016s0.012,0.01,0.018,0.016l0,0c-0.006-0.006-0.012-0.011-0.018-0.016
								s-0.012-0.01-0.018-0.016c-0.007-0.005-0.013-0.01-0.019-0.015S222.501,162.066,222.495,162.062"/>
							<path fill="#005E81" d="M222.566,162.123c0.007,0.005,0.013,0.01,0.019,0.015s0.012,0.011,0.018,0.016
								c0.007,0.005,0.013,0.01,0.019,0.015c0.006,0.006,0.012,0.011,0.018,0.016c-0.006-0.005-0.012-0.01-0.018-0.016
								c-0.006-0.005-0.012-0.01-0.019-0.015c-0.006-0.005-0.012-0.011-0.018-0.016S222.573,162.128,222.566,162.123"/>
							<path fill="#005E81" d="M222.639,162.184c0.006,0.005,0.012,0.01,0.019,0.016c0.006,0.005,0.012,0.01,0.018,0.015
								s0.012,0.011,0.018,0.016c0.007,0.005,0.013,0.01,0.019,0.016c-0.006-0.006-0.012-0.011-0.019-0.016
								c-0.006-0.005-0.012-0.011-0.018-0.016s-0.012-0.01-0.018-0.015C222.65,162.193,222.645,162.188,222.639,162.184"/>
							<path fill="#005D81" d="M222.711,162.245c0.006,0.005,0.012,0.01,0.018,0.015c0.006,0.006,0.012,0.011,0.018,0.016
								c0.007,0.005,0.013,0.01,0.019,0.016c0.006,0.005,0.012,0.01,0.018,0.015c-0.006-0.005-0.012-0.01-0.018-0.015
								c-0.006-0.006-0.012-0.011-0.019-0.016c-0.006-0.005-0.012-0.01-0.018-0.016C222.723,162.255,222.717,162.25,222.711,162.245
								"/>
							<path fill="#005D80" d="M222.782,162.306c0.006,0.005,0.012,0.011,0.019,0.016c0.006,0.005,0.012,0.01,0.018,0.016
								c0.006,0.005,0.012,0.01,0.018,0.015c0.006,0.006,0.012,0.011,0.018,0.016c-0.006-0.005-0.012-0.01-0.018-0.016
								c-0.006-0.005-0.012-0.01-0.018-0.015c-0.006-0.006-0.012-0.011-0.018-0.016
								C222.794,162.316,222.788,162.311,222.782,162.306"/>
							<path fill="#005D80" d="M222.854,162.367c0.006,0.005,0.013,0.011,0.019,0.016s0.012,0.01,0.018,0.016
								c0.006,0.005,0.012,0.01,0.018,0.015c0.006,0.006,0.012,0.011,0.019,0.016c-0.007-0.005-0.013-0.01-0.019-0.016
								c-0.006-0.005-0.012-0.01-0.018-0.015c-0.006-0.006-0.012-0.011-0.018-0.016S222.859,162.372,222.854,162.367"/>
							<path fill="#005D7F" d="M222.926,162.429c0.006,0.005,0.012,0.011,0.018,0.016s0.012,0.01,0.018,0.016
								c0.006,0.005,0.012,0.01,0.018,0.015c0.006,0.006,0.012,0.011,0.018,0.016c-0.006-0.005-0.012-0.01-0.018-0.016
								c-0.006-0.005-0.012-0.01-0.018-0.015c-0.006-0.006-0.012-0.011-0.018-0.016S222.932,162.434,222.926,162.429"/>
							<path fill="#005C7F" d="M222.996,162.49c0.006,0.005,0.013,0.011,0.019,0.016s0.012,0.01,0.018,0.016
								c0.006,0.005,0.012,0.01,0.018,0.015c0.006,0.006,0.012,0.011,0.018,0.016c-0.006-0.005-0.012-0.01-0.018-0.016
								c-0.006-0.005-0.012-0.01-0.018-0.015c-0.006-0.006-0.012-0.011-0.018-0.016S223.002,162.495,222.996,162.49"/>
							<path fill="#005C7E" d="M223.067,162.552c0.006,0.005,0.012,0.011,0.018,0.016s0.013,0.011,0.019,0.016
								s0.012,0.01,0.018,0.016c0.006,0.005,0.012,0.01,0.018,0.016l0,0c-0.006-0.006-0.012-0.011-0.018-0.016
								c-0.006-0.006-0.012-0.011-0.018-0.016s-0.013-0.011-0.019-0.016S223.073,162.557,223.067,162.552"/>
							<path fill="#005C7E" d="M223.139,162.614L223.139,162.614c0.006,0.005,0.012,0.01,0.018,0.015
								c0.006,0.006,0.012,0.011,0.018,0.016c0.006,0.006,0.012,0.011,0.018,0.016s0.012,0.011,0.018,0.016
								c-0.006-0.005-0.012-0.011-0.018-0.016s-0.012-0.01-0.018-0.016c-0.006-0.005-0.012-0.01-0.018-0.016
								C223.15,162.624,223.145,162.619,223.139,162.614"/>
							<path fill="#005B7E" d="M223.209,162.676c0.006,0.005,0.012,0.01,0.018,0.016c0.006,0.005,0.012,0.01,0.018,0.016
								c0.006,0.005,0.012,0.01,0.019,0.016c0.006,0.005,0.012,0.01,0.018,0.016c-0.006-0.006-0.012-0.011-0.019-0.016
								c-0.006-0.006-0.012-0.011-0.018-0.016c-0.006-0.006-0.012-0.011-0.018-0.016
								C223.221,162.686,223.215,162.681,223.209,162.676"/>
							<path fill="#005B7D" d="M223.28,162.738c0.006,0.005,0.012,0.01,0.018,0.015c0.006,0.006,0.012,0.011,0.018,0.016
								c0.006,0.006,0.012,0.011,0.018,0.016s0.012,0.011,0.018,0.016c-0.006-0.005-0.012-0.011-0.018-0.016
								s-0.012-0.01-0.018-0.016c-0.006-0.005-0.012-0.01-0.018-0.016C223.292,162.748,223.286,162.743,223.28,162.738"/>
							<path fill="#005B7D" d="M223.351,162.8c0.006,0.005,0.012,0.011,0.018,0.016s0.012,0.011,0.018,0.016
								s0.012,0.011,0.018,0.016s0.012,0.011,0.018,0.016l0,0c-0.006-0.005-0.012-0.011-0.018-0.016s-0.012-0.011-0.018-0.016
								s-0.012-0.011-0.018-0.016S223.356,162.805,223.351,162.8"/>
							<path fill="#005A7C" d="M223.421,162.862L223.421,162.862c0.006,0.005,0.012,0.011,0.018,0.016s0.012,0.011,0.018,0.016
								s0.012,0.011,0.018,0.016s0.012,0.011,0.017,0.016c-0.005-0.005-0.011-0.011-0.017-0.016s-0.012-0.011-0.018-0.016
								s-0.012-0.011-0.018-0.016S223.427,162.867,223.421,162.862"/>
							<path fill="#005A7C" d="M223.491,162.925L223.491,162.925c0.005,0.005,0.011,0.011,0.017,0.016s0.012,0.011,0.018,0.016
								s0.012,0.011,0.018,0.016s0.012,0.011,0.018,0.016c-0.006-0.005-0.012-0.011-0.018-0.016s-0.012-0.011-0.018-0.016
								s-0.012-0.011-0.018-0.016S223.496,162.93,223.491,162.925"/>
							<path fill="#005A7C" d="M223.561,162.987c0.006,0.005,0.012,0.011,0.018,0.016s0.012,0.011,0.018,0.016
								s0.012,0.011,0.018,0.016s0.012,0.011,0.018,0.016c-0.006-0.005-0.012-0.011-0.018-0.016s-0.012-0.011-0.018-0.016
								s-0.012-0.011-0.018-0.016S223.566,162.992,223.561,162.987"/>
							<path fill="#005A7B" d="M223.631,163.05c0.006,0.005,0.012,0.011,0.018,0.016c0.005,0.005,0.011,0.011,0.017,0.016
								s0.012,0.011,0.018,0.016s0.012,0.011,0.018,0.016c-0.006-0.005-0.012-0.011-0.018-0.016s-0.012-0.011-0.018-0.016
								s-0.011-0.011-0.017-0.016S223.637,163.055,223.631,163.05"/>
							<path fill="#00597B" d="M223.7,163.112c0.006,0.006,0.012,0.011,0.018,0.016c0.006,0.006,0.012,0.011,0.018,0.016
								c0.005,0.006,0.011,0.011,0.017,0.017c0.006,0.005,0.012,0.01,0.018,0.016c-0.006-0.006-0.012-0.011-0.018-0.016
								c-0.006-0.006-0.011-0.011-0.017-0.017c-0.006-0.005-0.012-0.01-0.018-0.016C223.712,163.123,223.706,163.118,223.7,163.112"
								/>
							<path fill="#00597A" d="M223.77,163.176c0.006,0.005,0.012,0.01,0.018,0.016c0.006,0.005,0.012,0.01,0.018,0.016
								c0.006,0.005,0.012,0.011,0.017,0.016c0.006,0.005,0.012,0.011,0.018,0.016c-0.006-0.005-0.012-0.011-0.018-0.016
								c-0.005-0.005-0.011-0.011-0.017-0.016c-0.006-0.006-0.012-0.011-0.018-0.016
								C223.781,163.186,223.775,163.181,223.77,163.176"/>
							<path fill="#00597A" d="M223.839,163.238c0.006,0.006,0.012,0.011,0.018,0.016c0.006,0.006,0.012,0.011,0.018,0.016
								c0.005,0.006,0.011,0.011,0.017,0.017c0.006,0.005,0.012,0.01,0.018,0.016c-0.006-0.006-0.012-0.011-0.018-0.016
								c-0.006-0.006-0.012-0.011-0.017-0.017c-0.006-0.005-0.012-0.01-0.018-0.016
								C223.851,163.249,223.845,163.244,223.839,163.238"/>
							<path fill="#005879" d="M223.908,163.302c0.006,0.005,0.012,0.011,0.018,0.016s0.011,0.011,0.017,0.016
								c0.006,0.006,0.012,0.011,0.018,0.016c0.006,0.006,0.012,0.011,0.018,0.017c-0.006-0.006-0.012-0.011-0.018-0.017
								c-0.006-0.005-0.012-0.01-0.018-0.016c-0.005-0.005-0.011-0.011-0.017-0.016S223.914,163.307,223.908,163.302"/>
							<path fill="#005879" d="M223.978,163.365c0.006,0.005,0.011,0.01,0.017,0.016c0.006,0.005,0.012,0.011,0.018,0.016
								s0.012,0.011,0.018,0.016c0.005,0.006,0.011,0.011,0.017,0.016c-0.006-0.005-0.012-0.01-0.017-0.016
								c-0.006-0.005-0.012-0.011-0.018-0.016s-0.012-0.011-0.018-0.016C223.988,163.375,223.983,163.37,223.978,163.365"/>
							<path fill="#005879" d="M224.046,163.428c0.006,0.006,0.012,0.011,0.018,0.017c0.006,0.005,0.011,0.011,0.017,0.016
								s0.012,0.011,0.018,0.016c0.006,0.006,0.012,0.011,0.018,0.016c-0.006-0.005-0.012-0.01-0.018-0.016
								c-0.006-0.005-0.012-0.011-0.018-0.016s-0.011-0.011-0.017-0.016C224.058,163.438,224.052,163.434,224.046,163.428"/>
							<path fill="#005778" d="M224.115,163.491c0.005,0.006,0.011,0.011,0.017,0.017c0.006,0.005,0.012,0.011,0.018,0.016
								c0.005,0.005,0.011,0.011,0.017,0.016c0.006,0.006,0.012,0.011,0.018,0.017l0,0c-0.006-0.006-0.012-0.011-0.018-0.017
								c-0.006-0.005-0.012-0.011-0.017-0.016c-0.006-0.005-0.012-0.011-0.018-0.016
								C224.126,163.502,224.12,163.497,224.115,163.491"/>
							<path fill="#005778" d="M224.184,163.556L224.184,163.556c0.006,0.005,0.011,0.01,0.017,0.016
								c0.006,0.005,0.012,0.011,0.018,0.016c0.005,0.006,0.011,0.011,0.017,0.017c0.006,0.005,0.012,0.01,0.018,0.016
								c-0.006-0.006-0.012-0.011-0.018-0.016c-0.006-0.006-0.012-0.011-0.017-0.017c-0.006-0.005-0.012-0.011-0.018-0.016
								C224.194,163.565,224.189,163.561,224.184,163.556"/>
							<path fill="#005777" d="M224.252,163.619c0.006,0.005,0.011,0.011,0.017,0.016c0.006,0.006,0.012,0.011,0.018,0.016
								c0.005,0.006,0.011,0.011,0.017,0.017c0.006,0.005,0.012,0.011,0.018,0.016c-0.006-0.005-0.012-0.011-0.018-0.016
								c-0.006-0.006-0.012-0.011-0.017-0.017c-0.006-0.005-0.012-0.01-0.018-0.016C224.263,163.63,224.258,163.624,224.252,163.619
								"/>
						</g>
					</g>
				</g>
			</g>
		</g>
		<g>
			<g>
				<g>
					<path fill="#00ADEE" d="M134.13,118.562c11.926-0.67,23.624-0.567,34.845,0.197c11.434,0.779,22.753,2.269,33.578,4.418
						c11.388,2.26,22.59,5.321,33.056,9.179c11.38,4.195,22.266,9.471,31.822,15.903c10.797,7.268,19.1,15.464,24.479,24.305
						c6.182,10.161,8.521,21.204,6.197,32.454c-2.684,12.981-11.521,25.998-27.29,37.527
						c-17.756,12.981-43.289,23.364-75.452,28.768c-33.72,5.666-68.13,4.782-99.109-1.563c-29.383-6.019-53.18-16.452-69.762-29.385
						C11.776,228.887,3.472,215.99,1.408,202.939c-1.785-11.283,1.138-22.46,8.322-32.959c6.208-9.074,15.132-16.925,25.475-23.478
						c9.243-5.856,19.846-10.823,31.075-14.835c10.356-3.7,21.522-6.689,33.071-8.889
						C110.339,120.685,122.004,119.243,134.13,118.562z M191.312,261.203c29.437-4.719,53.112-13.841,69.933-25.349
						c15.08-10.317,23.933-22.076,27.124-33.922c2.792-10.363,1.2-20.625-4.089-30.146c-4.637-8.348-12.122-16.137-22.083-23.087
						c-8.865-6.186-19.097-11.284-29.882-15.351c-9.951-3.753-20.663-6.739-31.597-8.949c-10.412-2.104-21.328-3.566-32.372-4.331
						c-10.847-0.75-22.159-0.852-33.689-0.193c-11.716,0.67-22.969,2.084-33.543,4.135c-11.094,2.151-21.775,5.068-31.63,8.67
						c-10.652,3.894-20.631,8.695-29.23,14.333c-9.575,6.277-17.686,13.756-23.109,22.341c-6.227,9.855-8.361,20.26-6.071,30.67
						c2.624,11.928,10.988,23.596,25.114,33.884c15.767,11.482,37.891,20.665,64.838,25.93
						C129.303,265.363,160.579,266.13,191.312,261.203"/>
				</g>
			</g>
		</g>
	</g>
	<g id="YELLOWBOX">
		<polygon fill="#FFD004" points="78.031,96.356 85.73,173.341 133.993,225.453 133.993,140.178 		"/>
		<path fill="#FFD004" d="M135.77,140.178l37.012-13.028c0,0,2.666,10.365,10.364,8.291c0,0,10.067-0.593,13.62-16.285
			l31.386-10.956l-10.362,80.241l-82.02,37.013V140.178z"/>
		<polygon fill="#404C51" points="80.4,94.283 135.03,137.957 162.419,127.89 162.419,71.781 		"/>
		<path fill="#404C51" d="M164.195,127.076V71.781l62.476,34.05l-31.238,11.844c0,0-3.7,16.193-14.063,16.138
			c0,0-5.331,0.147-7.402-9.623L164.195,127.076z"/>
		<g>
			<g>
				<g enable-background="new    ">
					<g>
						<polygon opacity="0.502" fill="#404C51" points="197.745,175.865 197.367,179.883 192.698,187.73 193.268,181.319 						"/>
					</g>
					<g>
						<polygon fill="#404C51" points="203.109,154.312 201.703,168.608 193.471,180.365 194.594,167.734 199.521,162.421 
							200.016,157.19 						"/>
					</g>
					<g>
						<polygon fill="#404C51" points="187.592,190.25 189.693,191.979 187.117,196.023 180.54,199.352 178.393,197.627 
							180.97,193.518 						"/>
					</g>
					<g>
						<polygon opacity="0.502" fill="#404C51" points="189.032,187.342 191.636,189.606 190.336,191.029 188.83,188.938 
							179.854,193.354 177.813,197.27 176.545,197.101 179.919,191.794 						"/>
					</g>
					<g>
						<polygon opacity="0.502" fill="#404C51" points="171.509,188.24 175.864,189.662 175.426,196.254 171.255,192.433 						"/>
					</g>
					<g>
						<polygon fill="#404C51" points="191.473,164.606 193.455,168.832 191.823,187.467 189.604,185.833 184.613,188.191 
							179.504,190.737 176.694,194.908 177.995,175.803 180.955,169.225 182.725,169.626 182.557,171.901 180.536,184.324 
							182.752,186.213 184.845,185.233 186.921,184.217 189.539,180.07 189.4,168.845 189.586,166.596 						"/>
					</g>
					<g>
						<polygon fill="#404C51" points="198.629,135.847 202.477,142.399 195.497,146.939 192.638,138.12 						"/>
					</g>
					<g>
						<polygon fill="#404C51" points="192.272,138.258 194.521,149.402 188.216,168.172 188.671,179.737 181.391,183.165 
							183.989,170.032 180.079,155.28 184.379,141.253 						"/>
					</g>
					<g>
						<polygon fill="#404C51" points="168.922,168.906 172.21,169.161 171.881,174.644 176.79,175.736 175.926,188.741 
							168.08,184.042 						"/>
					</g>
					<g>
						<polygon fill="#404C51" points="184.059,141.375 179.364,153.43 171.902,154.574 177.65,143.805 						"/>
					</g>
					<g>
						<polygon fill="#404C51" points="167.011,156.522 178.854,154.713 182.92,168.138 168.691,167.666 						"/>
					</g>
				</g>
				<g>
					<polygon fill="#404C51" points="206.746,140.699 203.648,152.846 189.703,165.162 195.903,147.813 					"/>
				</g>
			</g>
		</g>
		<g>
			<g>
				<g enable-background="new    ">
					<g>
						<path fill="#FFD100" d="M101.988,157.878c0.009,0.091,0.02,0.182,0.031,0.272c0.012,0.09,0.024,0.181,0.037,0.271
							s0.027,0.181,0.042,0.271c0.015,0.09,0.031,0.18,0.047,0.27l0.003-0.003c-0.017-0.09-0.032-0.18-0.047-0.27
							c-0.015-0.09-0.029-0.18-0.042-0.269c-0.013-0.09-0.025-0.18-0.036-0.27c-0.011-0.089-0.021-0.179-0.03-0.269L101.988,157.878
							z"/>
					</g>
					<g>
						<path fill="#FFD100" d="M102.143,154.404c0.017-0.069,0.034-0.139,0.053-0.205c0.019-0.067,0.038-0.133,0.059-0.196
							c0.02-0.064,0.041-0.127,0.063-0.188c0.022-0.062,0.044-0.12,0.068-0.179l0.002,0.007c-0.023,0.059-0.046,0.118-0.068,0.179
							c-0.021,0.061-0.042,0.123-0.062,0.187s-0.039,0.129-0.057,0.195c-0.018,0.067-0.035,0.136-0.052,0.205L102.143,154.404z"/>
					</g>
					<g>
						<path fill="#FFD100" d="M103.322,162.497c0.1,0.19,0.205,0.374,0.312,0.549c0.108,0.176,0.219,0.342,0.334,0.498
							c0.114,0.157,0.232,0.304,0.354,0.438c0.122,0.136,0.246,0.26,0.374,0.371c-0.128-0.111-0.253-0.235-0.375-0.37
							c-0.122-0.136-0.24-0.281-0.355-0.438c-0.115-0.156-0.226-0.322-0.333-0.497C103.524,162.872,103.421,162.688,103.322,162.497
							z"/>
					</g>
					<g>
						<path fill="#FFD100" d="M105.279,152.656c-0.131-0.104-0.261-0.189-0.389-0.261c-0.127-0.07-0.253-0.124-0.377-0.163
							s-0.244-0.062-0.362-0.07c-0.118-0.008-0.233-0.001-0.345,0.021l0.004,0.013c0.112-0.021,0.228-0.029,0.345-0.022
							c0.118,0.007,0.239,0.029,0.361,0.066c0.123,0.037,0.248,0.09,0.375,0.159S105.148,152.554,105.279,152.656z"/>
					</g>
					<g>
						<path fill="#CFD7D8" d="M105.142,155.496c0.228,0.185,0.441,0.447,0.631,0.765c0.19,0.318,0.357,0.691,0.493,1.095
							c0.136,0.404,0.24,0.838,0.304,1.278s0.089,0.886,0.066,1.313c-0.023,0.424-0.091,0.789-0.194,1.086
							c-0.103,0.296-0.241,0.523-0.405,0.674c-0.163,0.149-0.352,0.222-0.555,0.209s-0.422-0.11-0.647-0.302
							c-0.223-0.189-0.431-0.454-0.616-0.771c-0.185-0.315-0.347-0.683-0.478-1.078c-0.132-0.395-0.233-0.818-0.297-1.247
							c-0.063-0.429-0.09-0.863-0.07-1.281c0.02-0.42,0.083-0.784,0.182-1.082c0.099-0.3,0.232-0.533,0.392-0.691
							c0.16-0.159,0.345-0.242,0.547-0.24C104.696,155.226,104.915,155.313,105.142,155.496z M104.874,160.845
							c0.168,0.143,0.332,0.215,0.483,0.224c0.152,0.009,0.293-0.046,0.415-0.158c0.122-0.112,0.225-0.282,0.302-0.503
							s0.127-0.492,0.144-0.808c0.017-0.318-0.002-0.65-0.05-0.979c-0.048-0.327-0.126-0.65-0.227-0.951s-0.226-0.578-0.367-0.815
							s-0.3-0.434-0.47-0.572c-0.168-0.137-0.332-0.203-0.483-0.206c-0.151-0.003-0.29,0.058-0.41,0.175
							c-0.12,0.117-0.22,0.291-0.294,0.514c-0.074,0.222-0.123,0.493-0.137,0.808c-0.015,0.312,0.004,0.638,0.053,0.958
							c0.048,0.321,0.125,0.638,0.224,0.934s0.221,0.57,0.359,0.807S104.707,160.704,104.874,160.845"/>
					</g>
					<g>
						<path fill="#FFD100" d="M107.355,160.544c-0.034,0.608-0.132,1.13-0.282,1.553c-0.149,0.421-0.349,0.743-0.584,0.954
							c-0.234,0.211-0.505,0.311-0.796,0.289c-0.291-0.021-0.603-0.164-0.922-0.439c0.319,0.274,0.63,0.416,0.92,0.438
							c0.292,0.021,0.561-0.08,0.795-0.291c0.235-0.211,0.435-0.533,0.583-0.955c0.149-0.422,0.248-0.943,0.281-1.552
							c0.034-0.61-0.002-1.249-0.094-1.88c-0.093-0.632-0.243-1.254-0.438-1.833c-0.195-0.578-0.436-1.112-0.709-1.566
							c-0.272-0.454-0.578-0.828-0.904-1.09c0.327,0.262,0.632,0.636,0.906,1.09c0.274,0.455,0.515,0.989,0.71,1.567
							c0.196,0.58,0.346,1.202,0.439,1.834S107.388,159.933,107.355,160.544z"/>
					</g>
					<g>
						<path fill="#FFD100" d="M106.16,164.953c0.151-0.013,0.297-0.05,0.437-0.112c0.14-0.062,0.273-0.15,0.399-0.261
							c0.126-0.111,0.245-0.245,0.355-0.403c0.11-0.157,0.211-0.338,0.303-0.54l4.119,12.243c-0.061,0.064-0.122,0.128-0.183,0.188
							s-0.124,0.12-0.187,0.177s-0.126,0.111-0.19,0.164s-0.129,0.104-0.194,0.152c-0.065,0.05-0.132,0.098-0.198,0.144
							c-0.067,0.045-0.134,0.088-0.202,0.128c-0.068,0.041-0.136,0.079-0.205,0.115s-0.138,0.069-0.208,0.102L106.16,164.953z"/>
					</g>
					<g>
						<path fill="#FFD100" d="M114.888,164.836c-0.002,0.16-0.005,0.32-0.009,0.479c-0.004,0.159-0.009,0.318-0.016,0.477
							s-0.014,0.316-0.022,0.474c-0.009,0.157-0.019,0.314-0.03,0.471c-0.011,0.155-0.023,0.31-0.036,0.462
							c-0.013,0.152-0.027,0.303-0.042,0.452s-0.032,0.297-0.049,0.443c-0.017,0.146-0.036,0.29-0.055,0.434l-6.708-5.651
							c0.032-0.12,0.062-0.244,0.088-0.373s0.051-0.262,0.072-0.4c0.021-0.138,0.039-0.28,0.054-0.427
							c0.015-0.147,0.027-0.299,0.036-0.454c0.009-0.156,0.015-0.314,0.017-0.473c0.002-0.159,0.001-0.319-0.003-0.48
							c-0.004-0.16-0.012-0.322-0.022-0.483c-0.011-0.162-0.024-0.325-0.041-0.487L114.888,164.836z"/>
					</g>
					<g>
						<path fill="#FFD100" d="M107.958,158.163c-0.062-0.336-0.136-0.668-0.221-0.994c-0.084-0.326-0.18-0.646-0.285-0.955
							s-0.219-0.609-0.342-0.896s-0.254-0.562-0.394-0.821l5.212-5.083c0.124,0.303,0.244,0.61,0.361,0.921
							c0.118,0.312,0.231,0.627,0.342,0.947c0.11,0.319,0.218,0.642,0.321,0.968c0.104,0.327,0.204,0.656,0.3,0.988L107.958,158.163
							z"/>
					</g>
				</g>
				<g enable-background="new    ">
					<g enable-background="new    ">
						<defs>
							<path id="SVGID_3_" enable-background="new    " d="M91.509,150.798c-0.009-0.022-0.059-0.144-0.129-0.347
								c-0.069-0.203-0.158-0.488-0.244-0.838c-0.086-0.35-0.169-0.764-0.228-1.226s-0.093-0.973-0.081-1.516
								c-0.012,0.543,0.022,1.054,0.081,1.516s0.142,0.876,0.228,1.226c0.085,0.35,0.174,0.635,0.244,0.838
								C91.45,150.654,91.5,150.776,91.509,150.798z"/>
						</defs>
						<clipPath id="SVGID_4_">
							<use xlink:href="#SVGID_3_"  overflow="visible"/>
						</clipPath>
						<g clip-path="url(#SVGID_4_)" enable-background="new    ">
							<path fill="#21282A" d="M91.509,150.798c-0.009-0.022-0.059-0.144-0.129-0.347c-0.069-0.203-0.158-0.488-0.244-0.838
								c-0.086-0.35-0.169-0.764-0.228-1.226s-0.093-0.973-0.081-1.516c-0.012,0.543,0.022,1.054,0.081,1.516
								s0.142,0.876,0.228,1.226c0.085,0.35,0.174,0.635,0.244,0.838C91.45,150.654,91.5,150.776,91.509,150.798"/>
						</g>
					</g>
					<g enable-background="new    ">
						<defs>
							<path id="SVGID_5_" enable-background="new    " d="M95.015,162.642c-0.178-0.754-0.342-1.516-0.49-2.282
								c-0.147-0.767-0.28-1.539-0.396-2.313c-0.116-0.775-0.216-1.554-0.299-2.334c-0.083-0.78-0.15-1.562-0.199-2.344
								c0.049,0.781,0.115,1.563,0.199,2.344c0.083,0.78,0.183,1.559,0.299,2.334c0.116,0.774,0.249,1.547,0.396,2.313
								C94.673,161.126,94.837,161.888,95.015,162.642z"/>
						</defs>
						<clipPath id="SVGID_6_">
							<use xlink:href="#SVGID_5_"  overflow="visible"/>
						</clipPath>
						<g clip-path="url(#SVGID_6_)" enable-background="new    ">
							<path fill="#21282A" d="M95.015,162.642c-0.178-0.754-0.342-1.516-0.49-2.282c-0.147-0.767-0.28-1.539-0.396-2.313
								c-0.116-0.775-0.216-1.554-0.299-2.334c-0.083-0.78-0.15-1.562-0.199-2.344c0.049,0.781,0.115,1.563,0.199,2.344
								c0.083,0.78,0.183,1.559,0.299,2.334c0.116,0.774,0.249,1.547,0.396,2.313C94.673,161.126,94.837,161.888,95.015,162.642"/>
						</g>
					</g>
					<g enable-background="new    ">
						<defs>
							<path id="SVGID_7_" enable-background="new    " d="M98.291,164.954c0.047,0.144,0.094,0.287,0.143,0.429
								c0.048,0.142,0.097,0.282,0.146,0.422c0.049,0.14,0.099,0.278,0.149,0.416c0.05,0.139,0.101,0.275,0.153,0.411
								c-0.052-0.136-0.103-0.272-0.153-0.411c-0.05-0.138-0.1-0.276-0.149-0.416c-0.049-0.14-0.098-0.28-0.146-0.422
								C98.385,165.241,98.337,165.098,98.291,164.954z"/>
						</defs>
						<clipPath id="SVGID_8_">
							<use xlink:href="#SVGID_7_"  overflow="visible"/>
						</clipPath>
						<g clip-path="url(#SVGID_8_)" enable-background="new    ">
							<path fill="#21282A" d="M98.291,164.954c0.047,0.144,0.094,0.287,0.143,0.429c0.048,0.142,0.097,0.282,0.146,0.422
								c0.049,0.14,0.099,0.278,0.149,0.416c0.05,0.139,0.101,0.275,0.153,0.411c-0.052-0.136-0.103-0.272-0.153-0.411
								c-0.05-0.138-0.1-0.276-0.149-0.416c-0.049-0.14-0.098-0.28-0.146-0.422C98.385,165.241,98.337,165.098,98.291,164.954"/>
						</g>
					</g>
					<g enable-background="new    ">
						<defs>
							<path id="SVGID_9_" enable-background="new    " d="M101.691,178.176c-0.376-0.511-0.743-1.048-1.099-1.609
								c-0.354-0.558-0.698-1.14-1.031-1.742c-0.332-0.601-0.652-1.222-0.96-1.861c-0.308-0.637-0.604-1.292-0.887-1.963
								c0.283,0.671,0.579,1.326,0.887,1.963c0.308,0.64,0.628,1.261,0.96,1.861c0.333,0.603,0.676,1.185,1.031,1.742
								C100.948,177.128,101.315,177.665,101.691,178.176z"/>
						</defs>
						<clipPath id="SVGID_10_">
							<use xlink:href="#SVGID_9_"  overflow="visible"/>
						</clipPath>
						<g clip-path="url(#SVGID_10_)" enable-background="new    ">
							<path fill="#21282A" d="M101.691,178.176c-0.376-0.511-0.743-1.048-1.099-1.609c-0.354-0.558-0.698-1.14-1.031-1.742
								c-0.332-0.601-0.652-1.222-0.96-1.861c-0.308-0.637-0.604-1.292-0.887-1.963c0.283,0.671,0.579,1.326,0.887,1.963
								c0.308,0.64,0.628,1.261,0.96,1.861c0.333,0.603,0.676,1.185,1.031,1.742C100.948,177.128,101.315,177.665,101.691,178.176"
								/>
						</g>
					</g>
					<g enable-background="new    ">
						<defs>
							<path id="SVGID_11_" enable-background="new    " d="M96.378,149.687c-0.012,0.134-0.022,0.27-0.032,0.406
								s-0.019,0.273-0.027,0.412c-0.008,0.138-0.015,0.277-0.021,0.418c-0.007,0.141-0.012,0.282-0.017,0.425
								c0.005-0.143,0.01-0.284,0.017-0.425c0.006-0.141,0.014-0.28,0.021-0.418c0.008-0.139,0.018-0.275,0.027-0.412
								S96.366,149.821,96.378,149.687z"/>
						</defs>
						<clipPath id="SVGID_12_">
							<use xlink:href="#SVGID_11_"  overflow="visible"/>
						</clipPath>
						<g clip-path="url(#SVGID_12_)" enable-background="new    ">
							<path fill="#21282A" d="M96.378,149.687c-0.012,0.134-0.022,0.27-0.032,0.406s-0.019,0.273-0.027,0.412
								c-0.008,0.138-0.015,0.277-0.021,0.418c-0.007,0.141-0.012,0.282-0.017,0.425c0.005-0.143,0.01-0.284,0.017-0.425
								c0.006-0.141,0.014-0.28,0.021-0.418c0.008-0.139,0.018-0.275,0.027-0.412S96.366,149.821,96.378,149.687"/>
						</g>
					</g>
					<g>
						<path fill="#404C51" d="M121.556,168.132c0.013,0.03,0.083,0.195,0.177,0.467s0.213,0.648,0.323,1.101
							c0.111,0.453,0.213,0.981,0.274,1.554s0.081,1.188,0.027,1.815c-0.054,0.633-0.169,1.127-0.312,1.514
							c-0.142,0.385-0.312,0.661-0.476,0.859c-0.164,0.197-0.322,0.316-0.444,0.388c-0.121,0.071-0.206,0.095-0.221,0.099
							l-3.101-1.767c-0.155,0.73-0.333,1.422-0.532,2.074c-0.198,0.649-0.416,1.259-0.652,1.828c-0.236,0.566-0.49,1.092-0.76,1.577
							c-0.269,0.482-0.555,0.924-0.855,1.323l1.391,5.488c0,0.029,0,0.188-0.019,0.419c-0.018,0.232-0.054,0.537-0.124,0.859
							c-0.07,0.321-0.174,0.66-0.329,0.96c-0.154,0.299-0.359,0.558-0.63,0.723c-0.191,0.115-0.385,0.164-0.574,0.165
							c-0.189,0.002-0.374-0.044-0.547-0.115c-0.173-0.072-0.335-0.17-0.479-0.275c-0.145-0.105-0.271-0.219-0.374-0.318
							c-0.044-0.043-0.083-0.084-0.118-0.12c-0.035-0.036-0.064-0.069-0.087-0.097c-0.024-0.027-0.042-0.049-0.056-0.065
							c-0.013-0.016-0.02-0.024-0.021-0.026l-2.049-4.857c-0.38,0.07-0.768,0.1-1.163,0.087c-0.393-0.012-0.791-0.065-1.195-0.16
							c-0.401-0.095-0.809-0.23-1.22-0.408c-0.409-0.177-0.821-0.396-1.237-0.655l-0.652,3.987
							c-0.009,0.011-0.058,0.075-0.145,0.145s-0.212,0.146-0.374,0.182c-0.161,0.036-0.357,0.033-0.587-0.055
							c-0.229-0.088-0.492-0.259-0.786-0.559c-0.29-0.296-0.542-0.648-0.757-1.014c-0.215-0.363-0.395-0.739-0.538-1.082
							c-0.144-0.342-0.253-0.65-0.328-0.881c-0.075-0.229-0.116-0.382-0.123-0.409l-0.193-4.705
							c-0.376-0.511-0.743-1.048-1.099-1.609c-0.354-0.558-0.698-1.14-1.031-1.742c-0.332-0.601-0.652-1.222-0.96-1.861
							c-0.308-0.637-0.604-1.292-0.887-1.963l-1.914,0.755c-0.001-0.001-0.007-0.004-0.018-0.012s-0.025-0.019-0.045-0.034
							c-0.02-0.015-0.043-0.034-0.071-0.059c-0.027-0.024-0.059-0.053-0.094-0.087c-0.082-0.079-0.18-0.187-0.291-0.325
							c-0.11-0.139-0.232-0.311-0.359-0.52c-0.126-0.208-0.258-0.455-0.389-0.744c-0.13-0.288-0.26-0.62-0.382-0.999
							c-0.172-0.537-0.29-1.047-0.371-1.512s-0.125-0.885-0.147-1.24c-0.022-0.356-0.022-0.648-0.017-0.857
							c0.005-0.21,0.017-0.336,0.02-0.358l1.378-2.366c-0.178-0.754-0.342-1.516-0.49-2.282c-0.147-0.767-0.28-1.539-0.396-2.313
							c-0.116-0.775-0.216-1.554-0.299-2.334c-0.083-0.78-0.15-1.562-0.199-2.344l-2.123-2.57c-0.009-0.022-0.059-0.144-0.129-0.347
							c-0.069-0.203-0.158-0.488-0.244-0.838c-0.086-0.35-0.169-0.764-0.228-1.226s-0.093-0.973-0.081-1.516
							c0.012-0.538,0.067-0.98,0.145-1.343c0.078-0.363,0.177-0.645,0.277-0.861c0.1-0.216,0.199-0.366,0.277-0.464
							c0.078-0.098,0.132-0.144,0.142-0.152l2.195,0.991c0.091-0.69,0.2-1.357,0.326-1.997c0.126-0.643,0.27-1.259,0.43-1.849
							c0.161-0.592,0.338-1.156,0.531-1.69c0.194-0.537,0.405-1.045,0.63-1.521l-1.233-4.934c-0.001-0.028-0.009-0.179-0.007-0.409
							c0.002-0.23,0.015-0.538,0.054-0.877c0.039-0.34,0.104-0.713,0.213-1.072c0.109-0.36,0.261-0.707,0.473-0.994
							c0.16-0.215,0.329-0.354,0.496-0.438c0.168-0.084,0.335-0.113,0.493-0.108c0.158,0.005,0.307,0.044,0.437,0.097
							c0.13,0.052,0.242,0.118,0.326,0.175c0.027,0.018,0.05,0.035,0.071,0.05c0.021,0.015,0.038,0.029,0.052,0.041
							c0.014,0.012,0.025,0.021,0.033,0.028c0.007,0.006,0.012,0.011,0.013,0.011l1.886,4.294c0.339-0.221,0.691-0.403,1.054-0.545
							c0.366-0.143,0.743-0.246,1.13-0.305c0.39-0.06,0.79-0.077,1.2-0.048c0.413,0.029,0.834,0.103,1.264,0.225l0.676-4.942
							c0.011-0.018,0.068-0.116,0.169-0.239c0.101-0.125,0.246-0.275,0.43-0.398c0.185-0.124,0.409-0.22,0.67-0.235
							c0.262-0.015,0.56,0.053,0.89,0.258c0.335,0.209,0.625,0.507,0.869,0.839c0.245,0.333,0.446,0.699,0.605,1.043
							c0.159,0.344,0.277,0.666,0.357,0.909s0.122,0.408,0.129,0.438l0.171,5.656c0.444,0.471,0.88,0.981,1.306,1.529
							c0.428,0.55,0.846,1.138,1.252,1.759c0.409,0.624,0.805,1.282,1.189,1.971c0.385,0.691,0.758,1.413,1.116,2.162l2.685-1.504
							c0.001,0,0.006,0.003,0.017,0.008c0.01,0.005,0.024,0.012,0.042,0.022s0.041,0.023,0.068,0.04
							c0.026,0.016,0.057,0.036,0.091,0.059c0.108,0.073,0.25,0.181,0.415,0.332c0.165,0.151,0.351,0.347,0.545,0.595
							s0.399,0.551,0.598,0.915c0.199,0.365,0.394,0.792,0.571,1.289c0.236,0.667,0.389,1.299,0.485,1.875
							c0.096,0.575,0.135,1.093,0.144,1.53c0.008,0.437-0.013,0.792-0.039,1.046c-0.025,0.253-0.053,0.404-0.059,0.432l-2.147,3.123
							c0.22,0.904,0.419,1.818,0.596,2.741c0.177,0.922,0.331,1.851,0.461,2.781c0.13,0.932,0.237,1.864,0.319,2.795
							c0.082,0.929,0.138,1.855,0.168,2.775L121.556,168.132z M114.629,168.527c0.019-0.144,0.038-0.288,0.055-0.434
							c0.018-0.146,0.034-0.294,0.049-0.443s0.029-0.3,0.042-0.452c0.013-0.152,0.025-0.307,0.036-0.462
							c0.011-0.156,0.021-0.312,0.029-0.471c0.009-0.157,0.016-0.314,0.022-0.474c0.006-0.158,0.012-0.317,0.016-0.477
							s0.007-0.319,0.009-0.479c0.011-0.956-0.019-1.926-0.085-2.901c-0.067-0.978-0.172-1.959-0.312-2.938
							c-0.14-0.979-0.315-1.955-0.522-2.918s-0.446-1.912-0.715-2.84c-0.096-0.333-0.196-0.662-0.3-0.988s-0.211-0.649-0.321-0.969
							c-0.111-0.319-0.225-0.635-0.342-0.946c-0.118-0.312-0.238-0.619-0.362-0.922c-0.402-0.984-0.837-1.921-1.3-2.8
							c-0.462-0.875-0.951-1.69-1.464-2.435c-0.51-0.74-1.042-1.41-1.593-1.997c-0.547-0.583-1.111-1.085-1.688-1.495
							c-0.573-0.406-1.134-0.705-1.679-0.901c-0.542-0.195-1.067-0.291-1.573-0.292c-0.502-0.001-0.984,0.091-1.443,0.269
							c-0.455,0.177-0.887,0.438-1.292,0.78c-0.124,0.104-0.245,0.216-0.364,0.335c-0.118,0.119-0.234,0.245-0.347,0.377
							c-0.113,0.133-0.223,0.272-0.33,0.419s-0.211,0.299-0.313,0.459c-0.281,0.444-0.541,0.94-0.775,1.484
							c-0.234,0.542-0.443,1.131-0.626,1.766c-0.182,0.632-0.338,1.309-0.466,2.028c-0.127,0.716-0.227,1.475-0.296,2.273
							c-0.012,0.134-0.022,0.27-0.032,0.406s-0.019,0.273-0.027,0.412c-0.008,0.138-0.015,0.277-0.021,0.418
							c-0.007,0.141-0.012,0.282-0.017,0.425c-0.004,0.142-0.008,0.284-0.011,0.427c-0.003,0.142-0.005,0.284-0.006,0.427
							s-0.001,0.286,0,0.429c0.001,0.143,0.002,0.286,0.005,0.43c0.014,0.854,0.059,1.714,0.132,2.573
							c0.073,0.858,0.175,1.718,0.303,2.572c0.128,0.854,0.282,1.703,0.461,2.542s0.382,1.669,0.608,2.484
							c0.041,0.146,0.082,0.29,0.124,0.436c0.042,0.145,0.084,0.288,0.127,0.432c0.043,0.145,0.087,0.287,0.132,0.43
							c0.045,0.143,0.09,0.285,0.136,0.427c0.047,0.144,0.094,0.287,0.143,0.429c0.048,0.142,0.097,0.282,0.146,0.422
							c0.049,0.14,0.099,0.278,0.149,0.416c0.05,0.139,0.101,0.275,0.153,0.411c0.337,0.892,0.702,1.752,1.092,2.572
							c0.392,0.823,0.81,1.607,1.25,2.342c0.442,0.737,0.909,1.426,1.396,2.054c0.49,0.632,1.001,1.204,1.531,1.704
							c0.533,0.504,1.063,0.915,1.587,1.237c0.527,0.323,1.047,0.556,1.556,0.7c0.513,0.146,1.014,0.2,1.5,0.169
							c0.489-0.032,0.961-0.153,1.413-0.36c0.069-0.031,0.139-0.065,0.208-0.102s0.137-0.073,0.205-0.113
							c0.068-0.04,0.135-0.083,0.202-0.127c0.067-0.044,0.133-0.091,0.199-0.139c0.065-0.051,0.13-0.103,0.194-0.156
							c0.064-0.054,0.128-0.109,0.191-0.167c0.063-0.057,0.125-0.116,0.187-0.178c0.062-0.061,0.123-0.123,0.183-0.188
							c0.34-0.364,0.659-0.792,0.953-1.281c0.296-0.491,0.567-1.045,0.81-1.658c0.244-0.616,0.46-1.293,0.643-2.027
							C114.363,170.175,114.514,169.379,114.629,168.527"/>
					</g>
				</g>
				<g>
					<path fill="#26A9E0" d="M108.122,159.298c0.017,0.162,0.03,0.325,0.041,0.487c0.01,0.161,0.018,0.323,0.022,0.483
						c0.004,0.161,0.005,0.321,0.003,0.48c-0.002,0.158-0.007,0.316-0.017,0.473c-0.009,0.155-0.021,0.307-0.036,0.454
						c-0.015,0.146-0.033,0.289-0.054,0.427c-0.021,0.139-0.045,0.271-0.072,0.4s-0.056,0.253-0.088,0.373
						c-0.019,0.07-0.038,0.139-0.059,0.205c-0.021,0.067-0.042,0.132-0.064,0.195c-0.022,0.063-0.046,0.126-0.07,0.186
						s-0.049,0.118-0.074,0.175c-0.091,0.202-0.193,0.383-0.303,0.54c-0.11,0.158-0.229,0.292-0.355,0.403
						c-0.126,0.11-0.259,0.198-0.399,0.261c-0.14,0.062-0.286,0.1-0.437,0.112c-0.113,0.01-0.229,0.005-0.348-0.016
						c-0.118-0.02-0.239-0.054-0.362-0.103c-0.123-0.05-0.247-0.114-0.372-0.194c-0.125-0.079-0.252-0.174-0.38-0.285
						c-0.128-0.112-0.253-0.236-0.375-0.372s-0.24-0.282-0.355-0.439c-0.114-0.156-0.226-0.323-0.333-0.499
						c-0.107-0.175-0.211-0.358-0.312-0.55l-4.442,4.137c-0.052-0.136-0.103-0.273-0.153-0.411s-0.1-0.275-0.149-0.415
						c-0.049-0.139-0.097-0.278-0.145-0.419c-0.047-0.14-0.094-0.28-0.141-0.422c-0.047-0.145-0.093-0.288-0.138-0.433
						c-0.045-0.145-0.089-0.288-0.133-0.433s-0.086-0.289-0.128-0.434c-0.042-0.146-0.083-0.29-0.124-0.436l4.375-4.268
						c-0.016-0.091-0.031-0.181-0.045-0.271c-0.014-0.09-0.028-0.18-0.041-0.27c-0.013-0.09-0.024-0.18-0.036-0.27
						c-0.011-0.089-0.021-0.179-0.03-0.269l-5.728-4.825c-0.002-0.144-0.004-0.287-0.005-0.43c0-0.144,0-0.286,0-0.429
						s0.003-0.285,0.006-0.428c0.003-0.142,0.007-0.284,0.011-0.426c0.005-0.144,0.01-0.284,0.017-0.425
						c0.007-0.141,0.014-0.28,0.022-0.418c0.008-0.138,0.018-0.275,0.027-0.412c0.01-0.136,0.021-0.271,0.032-0.405l5.765,4.718
						c0.018-0.068,0.036-0.137,0.055-0.202c0.019-0.066,0.039-0.131,0.059-0.194c0.021-0.062,0.042-0.125,0.063-0.186
						c0.022-0.061,0.044-0.12,0.068-0.179l-3.846-11.51c0.102-0.16,0.206-0.313,0.313-0.459c0.107-0.146,0.217-0.287,0.33-0.419
						c0.113-0.133,0.229-0.259,0.347-0.378c0.119-0.119,0.24-0.23,0.364-0.335l3.911,11.64c0.113-0.019,0.229-0.023,0.348-0.015
						c0.119,0.009,0.24,0.031,0.363,0.069c0.123,0.038,0.249,0.092,0.376,0.162c0.128,0.069,0.257,0.155,0.389,0.259
						c0.132,0.104,0.261,0.223,0.388,0.354s0.25,0.273,0.37,0.429c0.121,0.154,0.237,0.321,0.351,0.497
						c0.113,0.177,0.223,0.363,0.328,0.559c0.139,0.26,0.271,0.534,0.394,0.821s0.237,0.587,0.342,0.896s0.2,0.629,0.285,0.955
						c0.085,0.326,0.159,0.658,0.221,0.994c0.018,0.094,0.034,0.188,0.049,0.282c0.016,0.095,0.03,0.189,0.044,0.284
						s0.026,0.189,0.038,0.284C108.101,159.108,108.112,159.203,108.122,159.298z M104.769,162.898
						c0.32,0.275,0.633,0.419,0.923,0.44c0.292,0.022,0.562-0.078,0.797-0.288c0.236-0.211,0.435-0.533,0.584-0.954
						c0.149-0.423,0.248-0.944,0.282-1.553c0.033-0.611-0.002-1.25-0.095-1.882s-0.243-1.254-0.438-1.834
						c-0.195-0.578-0.436-1.112-0.709-1.566c-0.273-0.454-0.578-0.828-0.905-1.09c-0.324-0.259-0.638-0.381-0.927-0.38
						c-0.288,0-0.553,0.121-0.78,0.35c-0.226,0.228-0.415,0.562-0.555,0.988c-0.139,0.426-0.229,0.943-0.255,1.54
						c-0.027,0.594,0.01,1.212,0.102,1.82c0.091,0.609,0.235,1.211,0.422,1.771c0.187,0.562,0.417,1.084,0.679,1.534
						C104.156,162.247,104.451,162.626,104.769,162.898"/>
				</g>
			</g>
		</g>
		<polygon fill="#404C51" points="162.419,70.042 79.295,91.582 52.609,19.185 137.445,11.859 		"/>
		<g>
			<g>
				<g enable-background="new    ">
					<g>
						<path fill="#FFD004" d="M85.856,60.681c0.151-0.028,0.29-0.031,0.417-0.009c0.127,0.022,0.243,0.069,0.347,0.143
							c0.104,0.073,0.196,0.171,0.277,0.295s0.149,0.273,0.207,0.449l1.238,3.8c0.052,0.161,0.079,0.305,0.08,0.433
							s-0.022,0.239-0.072,0.334c-0.049,0.096-0.124,0.174-0.224,0.237c-0.1,0.062-0.225,0.108-0.375,0.139l-3.116,0.618
							c-0.067,0.013-0.133,0.02-0.197,0.021c-0.064,0.001-0.126-0.005-0.188-0.017c-0.061-0.012-0.12-0.03-0.177-0.055
							c-0.057-0.025-0.112-0.056-0.165-0.093c-0.056-0.04-0.107-0.083-0.154-0.129c-0.047-0.047-0.09-0.098-0.129-0.153
							c-0.039-0.054-0.073-0.113-0.104-0.175c-0.031-0.062-0.057-0.128-0.08-0.198l-1.24-3.835
							c-0.057-0.177-0.089-0.335-0.095-0.474c-0.006-0.139,0.013-0.259,0.058-0.361s0.115-0.185,0.211-0.249s0.217-0.11,0.363-0.137
							L85.856,60.681z"/>
					</g>
					<g enable-background="new    ">
						<defs>
							<path id="SVGID_13_" enable-background="new    " d="M85.856,60.681c0.151-0.028,0.29-0.031,0.417-0.009
								c0.127,0.022,0.243,0.069,0.347,0.143c0.104,0.073,0.196,0.171,0.277,0.295s0.149,0.273,0.207,0.449
								c-0.057-0.176-0.126-0.325-0.207-0.449s-0.173-0.222-0.277-0.295c-0.104-0.073-0.219-0.121-0.347-0.143
								C86.146,60.649,86.007,60.652,85.856,60.681z"/>
						</defs>
						<clipPath id="SVGID_14_">
							<use xlink:href="#SVGID_13_"  overflow="visible"/>
						</clipPath>
						<g clip-path="url(#SVGID_14_)" enable-background="new    ">
							<path fill="#856C02" d="M85.856,60.681c0.151-0.028,0.29-0.031,0.417-0.009c0.127,0.022,0.243,0.069,0.347,0.143
								c0.104,0.073,0.196,0.171,0.277,0.295s0.149,0.273,0.207,0.449c-0.057-0.176-0.126-0.325-0.207-0.449
								s-0.173-0.222-0.277-0.295c-0.104-0.073-0.219-0.121-0.347-0.143C86.146,60.649,86.007,60.652,85.856,60.681"/>
						</g>
					</g>
					<g enable-background="new    ">
						<defs>
							<path id="SVGID_15_" enable-background="new    " d="M88.216,66.295c0.056-0.049,0.1-0.105,0.132-0.168
								c0.033-0.063,0.055-0.134,0.065-0.212c0.01-0.078,0.009-0.164-0.003-0.256c-0.012-0.093-0.036-0.192-0.07-0.299
								c0.035,0.107,0.058,0.207,0.07,0.299c0.012,0.092,0.013,0.178,0.003,0.256c-0.011,0.078-0.032,0.149-0.065,0.212
								C88.316,66.19,88.272,66.246,88.216,66.295z"/>
						</defs>
						<clipPath id="SVGID_16_">
							<use xlink:href="#SVGID_15_"  overflow="visible"/>
						</clipPath>
						<g clip-path="url(#SVGID_16_)" enable-background="new    ">
							<path fill="#856C02" d="M88.341,65.359c0.035,0.107,0.058,0.207,0.07,0.299c0.012,0.092,0.013,0.178,0.003,0.256
								c-0.011,0.078-0.032,0.149-0.065,0.212c-0.033,0.063-0.077,0.12-0.132,0.168c0.056-0.049,0.1-0.105,0.132-0.168
								c0.033-0.063,0.055-0.134,0.065-0.212c0.01-0.078,0.009-0.164-0.003-0.256C88.399,65.565,88.375,65.466,88.341,65.359"/>
						</g>
					</g>
				</g>
				<g>
					<path fill="#FFD004" d="M108.116,31.65l17.405,27.362l-4.724,0.937l-3.866-6.106l-7.845,1.455l0.44,6.886l-5.043,1
						l-1.579-30.794L108.116,31.65z M108.641,50.105l5.557-0.977l-6.179-9.903L108.641,50.105"/>
				</g>
				<g enable-background="new    ">
					<g enable-background="new    ">
						<defs>
							<path id="SVGID_17_" enable-background="new    " d="M136.587,36.514c0.309,0.877,0.557,1.687,0.742,2.429
								c0.186,0.743,0.309,1.419,0.37,2.028c0.061,0.609,0.059,1.151-0.005,1.626c-0.064,0.476-0.191,0.884-0.381,1.225
								c0.19-0.341,0.317-0.749,0.381-1.225c0.064-0.475,0.066-1.017,0.005-1.626c-0.061-0.609-0.184-1.285-0.37-2.028
								C137.144,38.201,136.896,37.391,136.587,36.514z"/>
						</defs>
						<clipPath id="SVGID_18_">
							<use xlink:href="#SVGID_17_"  overflow="visible"/>
						</clipPath>
						<g clip-path="url(#SVGID_18_)" enable-background="new    ">
							<path fill="#856C02" d="M136.587,36.514c0.309,0.877,0.557,1.687,0.742,2.429c0.186,0.743,0.309,1.419,0.37,2.028
								c0.061,0.609,0.059,1.151-0.005,1.626c-0.064,0.476-0.191,0.884-0.381,1.225c0.19-0.341,0.317-0.749,0.381-1.225
								c0.064-0.475,0.066-1.017,0.005-1.626c-0.061-0.609-0.184-1.285-0.37-2.028C137.144,38.201,136.896,37.391,136.587,36.514"/>
						</g>
					</g>
					<g enable-background="new    ">
						<defs>
							<path id="SVGID_19_" enable-background="new    " d="M132.424,37.251c-0.134-0.381-0.268-0.731-0.403-1.049
								c-0.135-0.318-0.271-0.604-0.407-0.859s-0.273-0.477-0.411-0.667c-0.138-0.191-0.276-0.35-0.416-0.477
								c0.14,0.126,0.278,0.286,0.416,0.477c0.138,0.19,0.275,0.413,0.411,0.667s0.272,0.541,0.407,0.859
								C132.156,36.52,132.291,36.87,132.424,37.251z"/>
						</defs>
						<clipPath id="SVGID_20_">
							<use xlink:href="#SVGID_19_"  overflow="visible"/>
						</clipPath>
						<g clip-path="url(#SVGID_20_)" enable-background="new    ">
							<path fill="#856C02" d="M132.424,37.251c-0.134-0.381-0.268-0.731-0.403-1.049c-0.135-0.318-0.271-0.604-0.407-0.859
								s-0.273-0.477-0.411-0.667c-0.138-0.191-0.276-0.35-0.416-0.477c0.14,0.126,0.278,0.286,0.416,0.477
								c0.138,0.19,0.275,0.413,0.411,0.667s0.272,0.541,0.407,0.859C132.156,36.52,132.291,36.87,132.424,37.251"/>
						</g>
					</g>
					<g>
						<path fill="#FFD004" d="M135.978,45.214l7.944,10.15l-4.663,0.925l-7.346-9.915l-3.934,0.125l3.904,11.252l-4.333,0.859
							l-9.769-28.331l9.844-1.396c0.484-0.068,0.949-0.095,1.396-0.078c0.446,0.017,0.874,0.075,1.284,0.176
							c0.409,0.102,0.801,0.245,1.176,0.431c0.374,0.186,0.731,0.414,1.072,0.685c0.408,0.318,0.798,0.691,1.17,1.117
							s0.726,0.907,1.062,1.441s0.654,1.123,0.955,1.766c0.3,0.643,0.583,1.341,0.849,2.093c0.309,0.877,0.557,1.687,0.742,2.429
							c0.186,0.743,0.309,1.419,0.37,2.028c0.061,0.609,0.059,1.151-0.005,1.626c-0.064,0.476-0.191,0.884-0.381,1.225
							c-0.061,0.11-0.119,0.21-0.174,0.301c-0.055,0.091-0.108,0.172-0.158,0.245s-0.098,0.135-0.144,0.188
							s-0.088,0.098-0.129,0.132c-0.042,0.033-0.088,0.068-0.139,0.106c-0.051,0.039-0.106,0.08-0.167,0.124
							c-0.061,0.044-0.126,0.091-0.196,0.14S136.059,45.16,135.978,45.214z M133.002,40.389c0.038-0.14,0.055-0.309,0.05-0.51
							s-0.032-0.432-0.08-0.693c-0.048-0.262-0.118-0.554-0.209-0.876c-0.091-0.322-0.205-0.675-0.339-1.059
							c-0.134-0.381-0.268-0.731-0.403-1.049c-0.135-0.318-0.271-0.604-0.407-0.859s-0.273-0.477-0.411-0.667
							c-0.138-0.191-0.276-0.35-0.416-0.477c-0.14-0.127-0.284-0.235-0.434-0.324s-0.305-0.159-0.465-0.209
							c-0.16-0.051-0.326-0.082-0.497-0.094s-0.347-0.004-0.529,0.024l-5.068,0.766l2.744,7.909l5.06-0.845
							c0.196-0.033,0.372-0.079,0.528-0.139c0.156-0.06,0.293-0.133,0.41-0.22c0.117-0.087,0.214-0.187,0.292-0.3
							S132.964,40.528,133.002,40.389"/>
					</g>
					<g enable-background="new    ">
						<defs>
							<path id="SVGID_21_" enable-background="new    " d="M137.312,43.821c-0.061,0.11-0.119,0.21-0.174,0.301
								c-0.055,0.091-0.108,0.172-0.158,0.245s-0.098,0.135-0.144,0.188s-0.088,0.098-0.129,0.132
								c0.041-0.035,0.084-0.079,0.129-0.132s0.093-0.116,0.144-0.188s0.103-0.154,0.158-0.245
								C137.194,44.031,137.252,43.931,137.312,43.821z"/>
						</defs>
						<clipPath id="SVGID_22_">
							<use xlink:href="#SVGID_21_"  overflow="visible"/>
						</clipPath>
						<g clip-path="url(#SVGID_22_)" enable-background="new    ">
							<path fill="#856C02" d="M137.312,43.821c-0.061,0.11-0.119,0.21-0.174,0.301c-0.055,0.091-0.108,0.172-0.158,0.245
								s-0.098,0.135-0.144,0.188s-0.088,0.098-0.129,0.132c0.041-0.035,0.084-0.079,0.129-0.132s0.093-0.116,0.144-0.188
								s0.103-0.154,0.158-0.245C137.194,44.031,137.252,43.931,137.312,43.821"/>
						</g>
					</g>
					<g enable-background="new    ">
						<defs>
							<path id="SVGID_23_" enable-background="new    " d="M131.822,41.38c-0.018,0.004-0.036,0.009-0.054,0.013
								c-0.018,0.004-0.037,0.008-0.055,0.012s-0.037,0.007-0.056,0.011s-0.038,0.007-0.058,0.01c0.02-0.003,0.039-0.007,0.058-0.01
								s0.038-0.007,0.056-0.011s0.037-0.008,0.055-0.012C131.786,41.389,131.804,41.385,131.822,41.38z"/>
						</defs>
						<clipPath id="SVGID_24_">
							<use xlink:href="#SVGID_23_"  overflow="visible"/>
						</clipPath>
						<g clip-path="url(#SVGID_24_)" enable-background="new    ">
							<path fill="#856C02" d="M131.599,41.426c0.02-0.003,0.039-0.007,0.058-0.01s0.038-0.007,0.056-0.011s0.037-0.008,0.055-0.012
								c0.019-0.004,0.036-0.008,0.054-0.013c-0.018,0.004-0.036,0.009-0.054,0.013c-0.018,0.004-0.037,0.008-0.055,0.012
								s-0.037,0.007-0.056,0.011S131.618,41.422,131.599,41.426"/>
						</g>
					</g>
				</g>
				<g enable-background="new    ">
					<g enable-background="new    ">
						<defs>
							<path id="SVGID_25_" enable-background="new    " d="M99.567,56.935c0.07,0.212,0.136,0.417,0.198,0.613
								s0.119,0.386,0.171,0.568s0.102,0.357,0.146,0.525c0.044,0.168,0.084,0.329,0.121,0.484
								c-0.036-0.155-0.076-0.316-0.121-0.484c-0.044-0.168-0.093-0.343-0.146-0.525s-0.11-0.372-0.171-0.568
								S99.637,57.146,99.567,56.935z"/>
						</defs>
						<clipPath id="SVGID_26_">
							<use xlink:href="#SVGID_25_"  overflow="visible"/>
						</clipPath>
						<g clip-path="url(#SVGID_26_)" enable-background="new    ">
							<path fill="#856C02" d="M99.567,56.935c0.07,0.212,0.136,0.417,0.198,0.613s0.119,0.386,0.171,0.568s0.102,0.357,0.146,0.525
								c0.044,0.168,0.084,0.329,0.121,0.484c-0.036-0.155-0.076-0.316-0.121-0.484c-0.044-0.168-0.093-0.343-0.146-0.525
								s-0.11-0.372-0.171-0.568S99.637,57.146,99.567,56.935"/>
						</g>
					</g>
					<g enable-background="new    ">
						<defs>
							<path id="SVGID_27_" enable-background="new    " d="M99.873,63.156c-0.01,0.015-0.02,0.03-0.03,0.045
								s-0.02,0.029-0.03,0.044s-0.021,0.029-0.031,0.043c-0.011,0.015-0.021,0.029-0.032,0.043
								c0.011-0.014,0.021-0.028,0.032-0.043c0.01-0.014,0.021-0.029,0.031-0.043s0.021-0.029,0.03-0.044
								S99.863,63.171,99.873,63.156z"/>
						</defs>
						<clipPath id="SVGID_28_">
							<use xlink:href="#SVGID_27_"  overflow="visible"/>
						</clipPath>
						<g clip-path="url(#SVGID_28_)" enable-background="new    ">
							<path fill="#856C02" d="M99.873,63.156c-0.01,0.015-0.02,0.03-0.03,0.045s-0.02,0.029-0.03,0.044s-0.021,0.029-0.031,0.043
								c-0.011,0.015-0.021,0.029-0.032,0.043c0.011-0.014,0.021-0.028,0.032-0.043c0.01-0.014,0.021-0.029,0.031-0.043
								s0.021-0.029,0.03-0.044S99.863,63.171,99.873,63.156"/>
						</g>
					</g>
					<g enable-background="new    ">
						<defs>
							<path id="SVGID_29_" enable-background="new    " d="M99.749,63.332c-0.166,0.202-0.366,0.39-0.6,0.563
								c-0.233,0.173-0.501,0.333-0.804,0.477c-0.302,0.145-0.639,0.275-1.01,0.391c-0.372,0.116-0.778,0.218-1.219,0.306
								c0.441-0.088,0.848-0.19,1.219-0.306c0.371-0.116,0.708-0.246,1.01-0.391c0.302-0.144,0.57-0.303,0.804-0.477
								C99.383,63.722,99.583,63.534,99.749,63.332z"/>
						</defs>
						<clipPath id="SVGID_30_">
							<use xlink:href="#SVGID_29_"  overflow="visible"/>
						</clipPath>
						<g clip-path="url(#SVGID_30_)" enable-background="new    ">
							<path fill="#856C02" d="M99.749,63.332c-0.166,0.202-0.366,0.39-0.6,0.563c-0.233,0.173-0.501,0.333-0.804,0.477
								c-0.302,0.145-0.639,0.275-1.01,0.391c-0.372,0.116-0.778,0.218-1.219,0.306c0.441-0.088,0.848-0.19,1.219-0.306
								c0.371-0.116,0.708-0.246,1.01-0.391c0.302-0.144,0.57-0.303,0.804-0.477C99.383,63.722,99.583,63.534,99.749,63.332"/>
						</g>
					</g>
					<g enable-background="new    ">
						<defs>
							<path id="SVGID_31_" enable-background="new    " d="M96.116,65.068c-0.44,0.087-0.866,0.146-1.276,0.176
								c-0.411,0.03-0.806,0.031-1.186,0.002c-0.381-0.028-0.746-0.085-1.096-0.172c-0.35-0.086-0.685-0.202-1.003-0.347
								c0.318,0.145,0.653,0.26,1.003,0.347c0.35,0.086,0.715,0.144,1.096,0.172c0.38,0.028,0.775,0.027,1.186-0.002
								C95.25,65.214,95.676,65.155,96.116,65.068z"/>
						</defs>
						<clipPath id="SVGID_32_">
							<use xlink:href="#SVGID_31_"  overflow="visible"/>
						</clipPath>
						<g clip-path="url(#SVGID_32_)" enable-background="new    ">
							<path fill="#856C02" d="M96.116,65.068c-0.44,0.087-0.866,0.146-1.276,0.176c-0.411,0.03-0.806,0.031-1.186,0.002
								c-0.381-0.028-0.746-0.085-1.096-0.172c-0.35-0.086-0.685-0.202-1.003-0.347c0.318,0.145,0.653,0.26,1.003,0.347
								c0.35,0.086,0.715,0.144,1.096,0.172c0.38,0.028,0.775,0.027,1.186-0.002C95.25,65.214,95.676,65.155,96.116,65.068"/>
						</g>
					</g>
					<g>
						<path fill="#FFD004" d="M91.931,33.945l7.636,22.989c0.07,0.212,0.136,0.417,0.198,0.613s0.119,0.386,0.171,0.568
							s0.102,0.357,0.146,0.525c0.044,0.168,0.084,0.329,0.121,0.484c0.035,0.152,0.065,0.312,0.091,0.479
							c0.025,0.167,0.045,0.341,0.06,0.522c0.015,0.181,0.024,0.37,0.028,0.565c0.004,0.196,0.002,0.398-0.005,0.608
							c-0.006,0.209-0.023,0.409-0.052,0.599c-0.029,0.189-0.069,0.369-0.122,0.539c-0.052,0.17-0.116,0.33-0.191,0.479
							c-0.075,0.149-0.163,0.289-0.262,0.417c-0.166,0.202-0.366,0.39-0.6,0.563c-0.233,0.173-0.501,0.333-0.804,0.477
							c-0.302,0.145-0.639,0.275-1.01,0.391c-0.372,0.116-0.778,0.218-1.219,0.306c-0.44,0.087-0.866,0.146-1.276,0.176
							c-0.411,0.03-0.806,0.031-1.186,0.002c-0.381-0.028-0.746-0.085-1.096-0.172c-0.35-0.086-0.685-0.202-1.003-0.347l-1.43-4.585
							c0.21-0.016,0.406-0.033,0.588-0.05s0.351-0.036,0.506-0.055c0.155-0.019,0.297-0.038,0.426-0.057
							c0.128-0.019,0.244-0.039,0.346-0.058c0.104-0.02,0.201-0.038,0.291-0.057c0.089-0.018,0.17-0.035,0.245-0.052
							c0.074-0.017,0.14-0.033,0.199-0.049s0.111-0.032,0.155-0.047c0.377-0.087,0.681-0.245,0.911-0.472s0.387-0.524,0.47-0.891
							c0.083-0.367,0.094-0.804,0.031-1.311c-0.062-0.507-0.197-1.084-0.405-1.732L87.07,34.635L91.931,33.945z"/>
					</g>
				</g>
			</g>
		</g>
	</g>
</g>
</svg>
