<?xml version="1.0" encoding="utf-8"?>
<!-- Generator: Adobe Illustrator 15.1.0, SVG Export Plug-In . SVG Version: 6.00 Build 0)  -->
<!DOCTYPE svg PUBLIC "-//W3C//DTD SVG 1.1//EN" "http://www.w3.org/Graphics/SVG/1.1/DTD/svg11.dtd">
<svg version="1.1" id="Layer_1" xmlns="http://www.w3.org/2000/svg" xmlns:xlink="http://www.w3.org/1999/xlink" x="0px" y="0px"
	 width="87.318px" height="83.411px" viewBox="0 0 87.318 83.411" enable-background="new 0 0 87.318 83.411" xml:space="preserve">
<g id="DRAGDROP">
	<path fill="#27AAE1" d="M47.303,33.088h-9.331v3.109h8.293v0.572h3.11v-1.608l0,0h-2.074l0,0l0,0v-2.073H47.303L47.303,33.088z
		 M33.825,33.088h-9.33v3.109h9.33V33.088L33.825,33.088z M20.348,33.088h-9.331v3.109h9.331V33.088L20.348,33.088z M6.872,33.088
		H2.175c-1.146,0-2.073,0.928-2.073,2.073v1.375H3.21v-0.339h3.662V33.088L6.872,33.088z M3.21,40.682H0.101v9.331H3.21V40.682
		L3.21,40.682z M3.21,54.161H0.101v9.33H3.21V54.161L3.21,54.161z M3.21,67.638H0.101v9.331H3.21V67.638L3.21,67.638z M2.175,80.292
		l-1.913,0.803c0.178,0.421,0.487,0.77,0.878,0.996l0,0c0.002,0,0.007,0.002,0.01,0.004l0,0c0.002,0.002,0.005,0.004,0.007,0.005
		l0,0c0.005,0.004,0.01,0.006,0.015,0.009l0,0c0.013,0.006,0.022,0.014,0.035,0.02l0,0c0.003,0,0.005,0.002,0.008,0.004l0,0
		c0.002,0.002,0.005,0.004,0.008,0.004l0,0c0.005,0.004,0.013,0.006,0.018,0.01l0,0c0.002,0.001,0.005,0.003,0.007,0.004l0,0
		c0.005,0.001,0.008,0.002,0.01,0.004l0,0c0.002,0.001,0.006,0.004,0.008,0.004l0,0c0.002,0.002,0.005,0.004,0.01,0.006l0,0
		c0.002,0,0.005,0.002,0.007,0.004l0,0c0.002,0.002,0.005,0.002,0.007,0.002l0,0c0.005,0.004,0.008,0.004,0.01,0.004l0,0
		c0.002,0.004,0.005,0.004,0.008,0.006l0,0c0.002,0.002,0.005,0.003,0.01,0.004l0,0c0.002,0.001,0.005,0.003,0.007,0.004l0,0
		c0.002,0.001,0.005,0.004,0.01,0.004l0,0c0.002,0.001,0.005,0.002,0.007,0.004v0.001c0.002,0,0.005,0.001,0.008,0.003l0,0
		C1.35,82.2,1.353,82.2,1.355,82.202l0,0c0.002,0.002,0.005,0.002,0.01,0.004l0,0c0.002,0,0.005,0.002,0.008,0.004l0,0
		c0.002,0,0.005,0.002,0.007,0.004l0,0c0.005,0,0.008,0.002,0.011,0.004l0,0c0.002,0,0.005,0.002,0.01,0.004l0,0
		c0.002,0.001,0.005,0.002,0.007,0.002v0.001c0.003,0.002,0.005,0.003,0.01,0.004l0,0c0.002,0,0.005,0.002,0.007,0.003l0,0
		c0.002,0.001,0.006,0.002,0.011,0.004l0,0c0.002,0.001,0.005,0.002,0.007,0.004l0,0c0.005,0,0.008,0.001,0.01,0.002l0,0
		c0.002,0.002,0.005,0.004,0.007,0.004l0,0c0.005,0,0.007,0.002,0.01,0.002c0,0.002,0,0.002,0,0.002
		c0.003,0,0.006,0.002,0.008,0.002h0.002c0.002,0.002,0.005,0.004,0.007,0.004l0,0c0.003,0,0.008,0.002,0.01,0.004l0,0
		c0.002,0,0.005,0.002,0.007,0.002l0,0c0.005,0.002,0.008,0.002,0.011,0.004l0,0c0.002,0.001,0.005,0.003,0.01,0.003l0,0
		c0.002,0.001,0.005,0.002,0.008,0.004l0,0c0.005,0.001,0.007,0.001,0.01,0.002l0,0c0.002,0.001,0.005,0.003,0.007,0.004
		c0.003,0,0.003,0,0.003,0h0.002l0,0c0.003,0.001,0.006,0.001,0.006,0.001l0,0c0.002,0.002,0.002,0.002,0.005,0.003l0,0
		c0.002,0,0.002,0.001,0.005,0.001l0,0c0.003,0,0.003,0,0.005,0l0,0c0,0.001,0.002,0.001,0.005,0.004l0,0h0.002H1.58l0.002,0.002
		l0,0c0.002,0,0.005,0,0.005,0l0,0c0.002,0,0.002,0.002,0.005,0.002l0,0c0.002,0.002,0.002,0.002,0.006,0.002l0,0h0.002
		c0.002,0,0.002,0,0.002,0s0.002,0.002,0.005,0.002l0,0l0.002,0.002c0,0,0,0,0.002,0h0.002v0.002c0.002,0,0.002,0,0.005,0.002l0,0
		c0.002,0,0.002,0,0.005,0l0,0c0.003,0,0.003,0,0.005,0l0,0c0,0.002,0.002,0.002,0.005,0.002l0,0l0.002,0.002c0,0,0,0,0.003,0h0.002
		l0,0c0.002,0,0.002,0.002,0.005,0.002l0,0c0.003,0,0.005,0,0.005,0l0,0c0.002,0.003,0.002,0.003,0.005,0.003l0,0
		c0.002,0.001,0.002,0.001,0.005,0.002l0,0c0.002,0,0.002,0,0.005,0l0,0c0,0,0.002,0.002,0.005,0.002l0,0l0.002,0.001
		c0,0,0,0,0.002,0l0.002,0.001l0,0c0.002,0,0.002,0.001,0.006,0.001l0,0c0.002,0,0.002,0,0.005,0l0,0
		c0.002,0.002,0.002,0.002,0.005,0.002l0,0c0.002,0.001,0.002,0.001,0.005,0.001l0,0c0.002,0.001,0.002,0.001,0.005,0.001v0.001
		c0,0,0.002,0,0.005,0l0,0c0,0,0.002,0,0.002,0.002h0.002l0.002,0.001l0,0c0.002,0,0.005,0,0.005,0.001l0,0c0.002,0,0.006,0,0.006,0
		v0.002c0.003,0,0.003,0,0.005,0l0,0c0.002,0,0.002,0,0.005,0.001l0,0c0.002,0,0.002,0,0.005,0.002l0,0c0.002,0,0.002,0,0.005,0l0,0
		c0,0,0.003,0,0.005,0.002l0,0c0,0,0.002,0,0.005,0l0,0h0.002c0,0,0,0,0.002,0l0.002,0.002c0,0,0,0,0.002,0h0.004l0,0
		c0.002,0.002,0.002,0.002,0.005,0.002c0,0,0,0,0.002,0l0.002,0.002l0,0c0.002,0,0.002,0,0.005,0l0,0c0.002,0,0.002,0,0.005,0l0,0
		c0.002,0,0.002,0,0.005,0.002l0,0c0.002,0,0.002,0,0.005,0l0,0c0,0,0.002,0.002,0.005,0.002l0,0h0.002c0.003,0,0.003,0,0.003,0
		l0.002,0.002h0.003h0.002c0.002,0,0.002,0,0.002,0H1.81c0,0,0.002,0,0.002,0.002h0.002l0,0c0.002,0,0.005,0,0.005,0l0,0
		c0.002,0,0.002,0,0.005,0.002l0,0c0.002,0,0.002,0,0.005,0l0,0c0.002,0,0.002,0,0.005,0l0,0c0.002,0,0.002,0,0.005,0l0,0
		c0.002,0,0.002,0.002,0.005,0.002l0,0c0,0,0.003,0,0.006,0l0,0c0.002,0.002,0.002,0.002,0.005,0.002l0,0
		c0.002,0,0.002,0.001,0.005,0.001l0,0c0,0,0.002,0,0.005,0l0,0c0,0,0.002,0.001,0.005,0.001l0,0l0.002,0.002h0.002h0.002h0.003
		H1.88l0,0c0.002,0,0.005,0.001,0.005,0.001l0,0c0.003,0,0.006,0,0.006,0l0,0c0.002,0,0.005,0.001,0.005,0.001s0,0,0.003,0H1.9
		v0.002c0.002,0,0.005,0,0.005,0l0,0c0.002,0,0.002,0,0.005,0c0,0.001,0,0.001,0,0.001c0.002,0,0.002,0,0.005,0l0,0
		c0.003,0,0.003,0,0.005,0l0,0c0.002,0,0.002,0,0.005,0l0,0c0.002,0,0.002,0,0.006,0.001l0,0c0.002,0,0.002,0,0.005,0l0,0
		c0.003,0,0.003,0.001,0.005,0.001l0,0c0.002,0,0.002,0,0.005,0l0,0c0.002,0,0.002,0,0.005,0.002l0,0c0,0,0.002,0,0.005,0l0,0
		c0.002,0,0.002,0,0.005,0.001l0,0c0,0,0.002,0,0.005,0l0,0c0,0,0.002,0,0.006,0l0,0h0.002c0.002,0,0.002,0,0.002,0
		c0.003,0,0.003,0,0.005,0l0,0c0,0,0.002,0.001,0.005,0.001l0,0h0.002c0.002,0,0.002,0,0.002,0H1.99c0.002,0,0.002,0,0.002,0
		l0.002,0.002h0.003h0.002H2.03h0.002c0,0,0,0,0.002,0l0.002,0.001h0.002H2.04c0.003,0,0.003,0,0.003,0h0.002
		c0.002,0,0.002,0,0.002,0s0.002,0,0.002,0.001h0.002h0.003h0.002h0.002l0,0c0.003,0,0.005,0,0.005,0s0,0,0.002,0h0.002l0,0
		c0.002,0,0.005,0,0.005,0s0,0,0.002,0h0.002l0,0c0.003,0,0.005,0,0.005,0h0.01h0.002c0,0,0,0,0.002,0l0.003,0.001h0.002H2.1l0,0
		c0.003,0,0.005,0,0.005,0H2.11h0.002l0,0c0.002,0,0.005,0,0.005,0s0,0,0.002,0h0.002l0,0c0.002,0.002,0.005,0.002,0.005,0.002H2.13
		h0.002c0,0,0,0,0.002,0h0.003h0.002H2.14l0,0c0.003,0,0.005,0,0.005,0H2.15h0.002l0,0c0.002,0,0.005,0,0.005,0s0,0,0.002,0h0.002
		l0,0c0.002,0,0.005,0,0.005,0s0,0,0.002,0c0,0,0.002,0,0.005,0v-2.08H2.175z M9.071,79.252H2.175l0,0l0,0v1.037l0,0v2.074h6.896
		V79.252L9.071,79.252z M22.549,79.252h-9.331v3.111h9.331V79.252L22.549,79.252z M36.025,79.252h-9.328v3.111h9.328V79.252
		L36.025,79.252z M47.303,79.252h-7.132v3.111h7.132V80.29l0,0V79.252L47.303,79.252z M47.303,80.29v2.076h0.002
		c0.004,0,0.004,0,0.004,0h0.002c0,0,0,0,0.002,0h0.002l0,0c0.004,0,0.004,0,0.006,0l0,0c0.002,0,0.002,0,0.006,0l0,0
		c0.002,0,0.002,0,0.004,0l0,0h0.002c0.004,0,0.004,0,0.004,0h0.002l0,0c0.002,0,0.007,0,0.007,0l0,0c0.002,0,0.002,0,0.004,0l0,0
		c0.002,0,0.002,0,0.006-0.003l0,0h0.002c0.002,0,0.002,0,0.002,0h0.004l0,0c0.002,0,0.004,0,0.004,0l0,0c0.002,0,0.002,0,0.006,0
		l0,0c0.002,0,0.002,0,0.004,0l0,0c0.002,0,0.002,0,0.006,0l0,0l0.002-0.001h0.003h0.004l0,0c0.002,0,0.002,0,0.004,0l0,0
		c0.002,0,0.002,0,0.006,0l0,0h0.002h0.002h0.004c0.002,0,0.002,0,0.002,0h0.002c0,0,0,0,0.002,0c0,0,0,0,0.004,0l0,0
		c0.002,0,0.002,0,0.004,0l0,0c0.005,0,0.005,0,0.005-0.001c0.002,0,0.002,0,0.002,0h0.002c0,0,0,0,0.002,0c0,0,0,0,0.004,0l0,0
		c0.002,0,0.002,0,0.004,0l0,0c0.004,0,0.004,0,0.006-0.001l0,0h0.002h0.002h0.004c0,0,0,0,0.002,0c0,0,0.002,0,0.002-0.002l0,0
		c0.002,0,0.002,0,0.006,0l0,0c0.002,0,0.002,0,0.005,0l0,0h0.004c0.002,0,0.002,0,0.002,0l0.002-0.001l0,0c0.002,0,0.002,0,0.006,0
		l0,0c0.002,0,0.002,0,0.004,0l0,0h0.004h0.002h0.002l0,0c0.002,0,0.006-0.001,0.006-0.001s0,0,0.002,0c0,0,0,0,0.002,0l0,0
		c0.004,0,0.004-0.002,0.007-0.002l0,0h0.002c0.002,0,0.002,0,0.002,0h0.004l0,0c0.002-0.001,0.002-0.001,0.004-0.001l0,0
		c0.002,0,0.002,0,0.006,0v-0.001h0.002h0.002h0.004c0,0,0,0,0.002,0c0,0,0,0,0.002,0l0,0c0.002,0,0.008-0.001,0.01-0.001l0,0h0.005
		h0.002l0.002-0.002l0,0c0.002,0,0.002,0,0.006,0v-0.001c0.002,0,0.002,0,0.002,0c0.002,0,0.002,0,0.002,0h0.004h0.002l0.002-0.001
		l0,0c0.002,0,0.002,0,0.006,0l0,0c0.002,0,0.002,0,0.004,0l0,0c0.004,0,0.004,0,0.004-0.002c0.002,0,0.002,0,0.002,0h0.003l0,0
		c0.002-0.001,0.002-0.001,0.006-0.001l0,0c0.002,0,0.002,0,0.002,0c0.002,0,0.002-0.002,0.002-0.002H47.6c0,0,0,0,0.004,0h0.002
		c0,0,0,0,0.002,0c0,0,0,0,0.004,0l0,0c0.002-0.002,0.002-0.002,0.004-0.002l0,0h0.002h0.004h0.002l0,0
		c0.002-0.002,0.006-0.002,0.006-0.002l0,0c0.002,0,0.002,0,0.004,0l0,0h0.003h0.004l0.002-0.002l0,0
		c0.002-0.002,0.002-0.002,0.006-0.002l0,0c0.002,0,0.002,0,0.004,0l0,0h0.002h0.004c0,0,0,0,0.002,0l0,0
		c0.002,0,0.002-0.002,0.004-0.002l0,0c0.004,0,0.004,0,0.006-0.002l0,0h0.002c0,0,0,0,0.004,0h0.003l0,0
		c0.002,0,0.002-0.002,0.004-0.002l0,0c0.004,0,0.004,0,0.004,0h0.002h0.002l0,0c0.004,0,0.004,0,0.006,0l0,0
		c0.002-0.002,0.002-0.002,0.002-0.002c0.002,0,0.002,0,0.002,0l0.004-0.002h0.002c0,0,0,0,0.002,0l0,0c0.004,0,0.004,0,0.006,0l0,0
		c0.002,0,0.002,0,0.004,0c0,0,0,0,0-0.002h0.005c0,0,0,0,0.002-0.002h0.002l0,0c0.004,0,0.004-0.001,0.006-0.001l0,0
		c0-0.001,0.002-0.001,0.002-0.001s0,0,0.002,0h0.004l0,0c0.002,0,0.002-0.002,0.004-0.002l0,0c0.002,0,0.002,0,0.002-0.001h0.004
		l0.002-0.001c0.002,0,0.002,0,0.002,0s0,0,0.004,0v-0.002c0.002,0,0.002,0,0.005,0l0,0h0.002c0.004,0,0.004,0,0.004,0l0.002-0.001
		v-0.001c0.002,0,0.002,0,0.006,0l0,0l0.002-0.001c0.002,0,0.002,0,0.002-0.002h0.002l0,0c0.004,0,0.006-0.001,0.008-0.001
		c0.004,0,0.004,0,0.004,0c0-0.001,0.002-0.001,0.002-0.001s0,0,0.002,0l0.002-0.001l0,0c0.005-0.002,0.005-0.002,0.007-0.002l0,0
		h0.002c0,0,0,0,0.002,0l0.004-0.001c0-0.001,0-0.001,0-0.001c0.002,0,0.002,0,0.004,0v-0.002h0.004c0,0,0,0,0.002,0l0.002-0.002
		l0,0c0.002,0,0.002,0,0.006,0l0,0h0.002c0,0,0,0,0.002,0l0.004-0.002l0,0c0.002,0,0.002,0,0.005-0.002l0,0c0.002,0,0.002,0,0.006,0
		l0,0h0.002c0,0,0,0,0.002,0c0-0.002,0-0.002,0.004-0.002l0,0c0.002-0.002,0.002-0.002,0.004-0.002l0,0h0.002
		c0,0,0-0.002,0.004-0.002c0,0,0,0,0.002-0.002l0,0c0.002,0,0.002,0,0.006,0l0,0h0.002l0,0c0.002-0.002,0.002-0.002,0.004-0.002l0,0
		c0,0,0.005-0.002,0.007-0.002l0,0h0.002c0,0,0,0,0.002,0c0,0,0,0,0.004-0.002l0,0c0.002,0,0.002-0.001,0.004-0.001l0,0l0.004-0.002
		c0,0,0,0,0.002-0.001c0,0,0.002,0,0.004-0.001c0.004,0,0.004,0,0.004,0s0.002,0,0.002-0.001l0,0
		c0.002-0.002,0.002-0.002,0.006-0.002l0,0c0-0.001,0.002-0.001,0.002-0.001h0.002l0.003-0.001l0,0c0.004,0,0.004-0.002,0.006-0.002
		l0,0c0.002,0,0.002-0.001,0.002-0.001c0.004,0,0.004,0,0.004,0l0.002-0.001l0,0c0.002,0,0.002-0.001,0.004-0.001l0,0l0.004-0.002
		c0,0,0,0,0.002,0c0-0.001,0.002-0.001,0.002-0.001v-0.001c0.002,0,0.002,0,0.006,0l0,0l0.002-0.003l0,0
		c0.002,0,0.006-0.002,0.009-0.002c0.002,0,0.002,0,0.002,0l0.002-0.002l0,0c0.004,0,0.006-0.002,0.008-0.002
		c0.004,0,0.004,0,0.004,0l0.002-0.002l0,0c0.002,0,0.002,0,0.004,0l0,0l0.004-0.002h0.002H48v-0.002c0.004,0,0.004,0,0.006-0.002
		l0,0h0.002l0,0c0.002-0.002,0.007-0.002,0.011-0.004l0,0l0.004-0.002l0,0c0.002,0,0.004-0.002,0.006-0.003h0.004
		c0,0,0-0.001,0.002-0.001l0,0c0.002-0.001,0.004-0.001,0.008-0.003l0,0c0.002-0.001,0.002-0.001,0.004-0.002l0,0l0.004-0.002l0,0
		c0.003,0,0.003,0,0.005-0.001l0,0c0.002,0,0.002-0.001,0.006-0.001l0,0c0-0.001,0.002-0.001,0.002-0.001v-0.002
		c0.002,0,0.002,0,0.006,0l0,0c0.002-0.001,0.004-0.002,0.006-0.004l0,0c0.004-0.002,0.004-0.002,0.006-0.002l0,0
		c0.002,0,0.006-0.002,0.008-0.004l0,0l0.002-0.002l0,0c0.002,0,0.007-0.002,0.011-0.002l0,0l0.002-0.002l0,0
		c0.004,0,0.006-0.002,0.008-0.004c0,0,0,0,0.004,0c0.002,0,0.004-0.002,0.006-0.004l0,0h0.004l0,0
		c0.002-0.002,0.004-0.004,0.008-0.005l0,0c0.002,0,0.002,0,0.005,0v-0.001c0.002-0.001,0.006-0.003,0.008-0.004l0,0
		c0,0,0.002,0,0.006-0.001l0,0c0.002-0.002,0.004-0.003,0.006-0.004l0,0l0.004-0.001l0,0c0.002-0.002,0.004-0.003,0.008-0.004l0,0
		c0.002-0.002,0.004-0.003,0.006-0.004h0.005c0,0,0-0.002,0.002-0.002l0,0c0.002-0.002,0.004-0.002,0.008-0.004l0,0
		c0.002-0.002,0.002-0.002,0.004-0.002l0,0c0.004,0,0.006-0.002,0.008-0.002c0,0,0,0,0-0.002l0.002-0.002l0,0
		c0.004,0,0.006-0.002,0.008-0.004l0,0c0.006-0.002,0.008-0.004,0.015-0.004c0,0,0,0,0-0.002c0.002-0.001,0.004-0.001,0.008-0.003
		l0,0c0.002-0.001,0.002-0.001,0.004-0.002l0,0c0.002-0.002,0.006-0.003,0.008-0.004l0,0l0.002-0.001v-0.002
		c0.004,0,0.006-0.001,0.008-0.002l0,0c0.002-0.002,0.002-0.003,0.006-0.003l0,0c0.003-0.001,0.005-0.002,0.007-0.005l0,0
		c0.004,0,0.008-0.002,0.012-0.006l0,0c0.004,0,0.006-0.004,0.012-0.006l0,0c0.01-0.006,0.021-0.011,0.029-0.017l0,0
		c0.004-0.001,0.008-0.004,0.01-0.005l0,0c0.004-0.002,0.006-0.004,0.008-0.005l0,0c0.004,0,0.004,0,0.006-0.003l0,0
		c0.003-0.002,0.005-0.002,0.009-0.002l0,0l0.002-0.004l0,0c0.002-0.002,0.006-0.002,0.008-0.004l0,0
		c0.002-0.004,0.008-0.004,0.012-0.008l0,0c0.004-0.002,0.006-0.002,0.01-0.006v-0.001c0.238-0.142,0.445-0.329,0.609-0.555l0,0
		c0.012-0.019,0.027-0.036,0.039-0.054l0,0c0.006-0.008,0.01-0.015,0.012-0.021h0.004c0-0.003,0.002-0.006,0.004-0.008l0,0v-0.003
		c0,0,0,0,0.005,0c0-0.005,0.002-0.005,0.002-0.007v-0.002c0.002-0.002,0.002-0.002,0.002-0.002v0.006
		c0.002-0.004,0.002-0.006,0.006-0.008l0,0c0,0,0.002-0.002,0.002-0.004l0,0c0.002-0.002,0.002-0.005,0.006-0.007v-0.001
		c0-0.002,0-0.002,0.002-0.003l0,0c0-0.003,0.002-0.005,0.002-0.008c0,0,0,0,0.002,0c0-0.002,0.004-0.005,0.004-0.007l0,0
		c0.002-0.002,0.002-0.004,0.002-0.004l0,0c0.002-0.002,0.002-0.004,0.006-0.008l0,0c0,0,0-0.002,0.002-0.002v-0.002
		c0-0.002,0.003-0.005,0.005-0.006c0-0.001,0-0.001,0-0.001s0-0.003,0-0.004l0.004-0.001v-0.003l0,0
		c0.002-0.001,0.002-0.002,0.002-0.002v-0.002c0.002-0.001,0.002-0.002,0.002-0.002v-0.002c0-0.001,0.004-0.001,0.004-0.003l0,0
		l0.002-0.004v0.002c0-0.002,0-0.004,0.002-0.004l0,0c0,0,0-0.002,0-0.004c0.002,0,0.002,0,0.002,0c0-0.002,0-0.002,0-0.002
		s0,0,0-0.002c0.004-0.002,0.004-0.002,0.004-0.002l0,0l0.002-0.004c0-0.002,0-0.002,0-0.002l0.002-0.002c0-0.001,0-0.001,0-0.001
		s0-0.003,0.002-0.004c0,0,0,0,0-0.001c0,0,0-0.001,0-0.003c0.004,0,0.004-0.001,0.004-0.001s0,0,0-0.001v-0.002
		c0.002-0.002,0.002-0.002,0.002-0.002v-0.001L47.303,80.29L47.303,80.29z M49.378,67.872h-3.11v9.332h3.11V67.872L49.378,67.872z
		 M49.378,54.394h-3.11v9.331h3.11V54.394L49.378,54.394z M49.378,40.917h-3.11v9.33h3.11V40.917L49.378,40.917z M47.303,33.088
		v2.073h2.073C49.378,34.016,48.45,33.088,47.303,33.088L47.303,33.088z"/>
	<polygon fill="#27AAE1" points="56.329,38.811 62.102,61.811 68.233,55.679 77.489,64.934 79.973,62.454 82.454,59.971 
		73.198,50.715 79.331,44.583 	"/>
	<path fill="#27AAE1" d="M85.143,1.045H40.014c-1.146,0-2.074,0.929-2.074,2.074v45.129c0,1.146,0.928,2.072,2.074,2.072h17.067
		l-2.766-11.005l-0.842-3.359l3.358,0.843l23,5.773l3.547,0.889l-2.586,2.588l-4.271,4.271h8.619c1.146,0,2.073-0.928,2.073-2.072
		V3.12C87.218,1.974,86.29,1.045,85.143,1.045z"/>
</g>
</svg>
