<?xml version="1.0" encoding="utf-8"?>
<!-- Generator: Adobe Illustrator 15.1.0, SVG Export Plug-In . SVG Version: 6.00 Build 0)  -->
<!DOCTYPE svg PUBLIC "-//W3C//DTD SVG 1.1//EN" "http://www.w3.org/Graphics/SVG/1.1/DTD/svg11.dtd">
<svg version="1.1" id="Layer_1" xmlns="http://www.w3.org/2000/svg" xmlns:xlink="http://www.w3.org/1999/xlink" x="0px" y="0px"
	 width="141.083px" height="141.083px" viewBox="0 0 141.083 141.083" enable-background="new 0 0 141.083 141.083"
	 xml:space="preserve">
<g>
	<path fill="#CFD7D8" d="M135.558,4c0.843,0,1.525,0.684,1.525,1.525v130.032c0,0.843-0.683,1.525-1.525,1.525H5.525
		C4.683,137.083,4,136.4,4,135.558V5.525C4,4.684,4.683,4,5.525,4H135.558 M135.558,0H5.525C2.479,0,0,2.479,0,5.525v130.032
		c0,3.047,2.479,5.525,5.525,5.525h130.032c3.047,0,5.525-2.479,5.525-5.525V5.525C141.083,2.479,138.604,0,135.558,0L135.558,0z"/>
	<g>
		<path fill="#CFD7D8" d="M23.262,66.031v-21.96h9.27c2.18,0,3.785,0.535,4.815,1.604c1.029,1.07,1.545,2.516,1.545,4.336
			c0,1.079-0.266,2.085-0.795,3.015c-0.53,0.93-1.295,1.465-2.295,1.604c1.42,0.24,2.439,1.08,3.06,2.521
			c0.32,0.7,0.48,1.47,0.48,2.31c0,2.24-0.54,3.896-1.62,4.965c-1.08,1.07-2.78,1.605-5.1,1.605H23.262z M28.182,52.531h4.02
			c0.601,0,1.061-0.185,1.381-0.555c0.319-0.37,0.479-0.91,0.479-1.62s-0.18-1.225-0.54-1.545s-0.8-0.48-1.32-0.48h-4.02V52.531z
			 M28.182,61.771h4.229c1.34,0,2.011-0.85,2.011-2.55c0-0.78-0.16-1.42-0.48-1.921c-0.32-0.499-0.83-0.75-1.53-0.75h-4.229V61.771z
			"/>
		<path fill="#CFD7D8" d="M41.292,66.031v-21.96h9.689c1.98,0,3.53,0.53,4.65,1.59c1.119,1.061,1.68,2.84,1.68,5.34
			c0,2.141-0.311,3.7-0.93,4.681c-0.381,0.6-0.75,1.01-1.11,1.229c-0.42,0.24-0.87,0.45-1.35,0.63l3.989,8.49h-5.579l-3.271-8.07
			l-2.85-0.42v8.49H41.292z M46.241,53.762h4.17c0.761,0,1.271-0.19,1.53-0.57s0.391-1.08,0.391-2.101c0-1.02-0.15-1.734-0.45-2.145
			s-0.791-0.615-1.471-0.615h-4.17V53.762z"/>
		<path fill="#CFD7D8" d="M59.111,66.031l7.17-21.96h5.699l6.931,21.96h-5.13l-1.44-4.41h-6.63l-1.44,4.41H59.111z M66.911,57.361
			h4.35l-2.069-6.99L66.911,57.361z"/>
		<path fill="#CFD7D8" d="M80.831,66.031v-21.96h4.979l7.62,12.87v-12.87h4.92v21.96h-4.92l-7.649-12.66v12.66H80.831z"/>
		<path fill="#CFD7D8" d="M101.141,66.031v-21.96h9.75c1.2,0,2.25,0.205,3.149,0.615c0.9,0.41,1.625,0.944,2.176,1.604
			c0.55,0.66,0.994,1.48,1.335,2.46c0.6,1.7,0.899,3.83,0.899,6.391c0,7.26-2.52,10.89-7.56,10.89H101.141z M106.061,61.771h4.38
			c1.1,0,1.89-0.55,2.37-1.65c0.479-1.1,0.72-2.67,0.72-4.71s-0.13-3.57-0.39-4.59c-0.261-1.021-0.601-1.689-1.021-2.01
			s-0.979-0.48-1.68-0.48h-4.38V61.771z"/>
		<path fill="#CFD7D8" d="M35.411,87.591v-17.52h4.92v15.93c0,0.761,0.21,1.221,0.63,1.38c0.3,0.12,0.71,0.181,1.23,0.181h6.93v4.47
			h-8.97c-1.421,0-2.565-0.345-3.436-1.035C35.846,90.307,35.411,89.172,35.411,87.591z"/>
		<path fill="#CFD7D8" d="M50.411,85.102c-0.141-1.36-0.21-2.71-0.21-4.051c0-1.339,0.079-2.574,0.239-3.704s0.375-2.09,0.646-2.881
			c0.27-0.789,0.625-1.465,1.064-2.024c0.44-0.56,0.891-1,1.351-1.32c0.46-0.319,1.02-0.57,1.68-0.75
			c1.06-0.3,2.195-0.45,3.405-0.45s2.109,0.03,2.7,0.091c0.59,0.06,1.22,0.18,1.89,0.359s1.23,0.431,1.68,0.75
			c0.45,0.32,0.896,0.761,1.335,1.32c0.44,0.56,0.79,1.229,1.051,2.01c0.56,1.74,0.84,3.99,0.84,6.75c0,3.341-0.471,5.91-1.41,7.71
			c-0.48,0.96-1.25,1.74-2.31,2.34c-1.08,0.601-2.82,0.9-5.221,0.9c-2.44,0-4.17-0.28-5.189-0.84c-1.101-0.58-1.881-1.33-2.34-2.25
			C50.951,87.781,50.551,86.462,50.411,85.102z M55.676,76.102c-0.17,0.5-0.305,1.16-0.405,1.979c-0.1,0.82-0.149,1.745-0.149,2.775
			s0.015,1.83,0.045,2.399c0.03,0.57,0.079,1.096,0.149,1.575c0.07,0.48,0.175,0.875,0.315,1.186c0.14,0.31,0.305,0.58,0.495,0.81
			c0.189,0.23,0.435,0.405,0.735,0.525c0.579,0.22,1.31,0.33,2.189,0.33s1.561-0.085,2.04-0.256c0.48-0.169,0.885-0.499,1.215-0.989
			s0.556-1.145,0.675-1.965c0.12-0.82,0.181-1.88,0.181-3.181c0-1.3-0.045-2.345-0.136-3.135c-0.09-0.79-0.22-1.444-0.39-1.965
			c-0.17-0.52-0.425-0.905-0.765-1.155c-0.341-0.25-0.71-0.42-1.11-0.51s-0.935-0.135-1.604-0.135c-0.671,0-1.195,0.035-1.575,0.104
			c-0.38,0.07-0.75,0.23-1.11,0.48C56.111,75.227,55.846,75.602,55.676,76.102z"/>
		<path fill="#CFD7D8" d="M70.631,87.651c-0.3-1.04-0.495-2.075-0.585-3.105c-0.09-1.029-0.135-2.239-0.135-3.63
			c0-1.39,0.06-2.609,0.18-3.66c0.12-1.05,0.335-2.06,0.645-3.029c0.311-0.97,0.735-1.766,1.275-2.386
			c1.16-1.339,2.81-2.01,4.95-2.01c2.14,0,3.725,0.061,4.755,0.181c1.03,0.119,2.415,0.399,4.155,0.84v3.81
			c-0.021,0-0.11-0.01-0.271-0.03c-0.16-0.02-0.375-0.049-0.645-0.09c-0.271-0.04-0.581-0.079-0.931-0.12
			c-0.35-0.039-0.745-0.079-1.185-0.12c-0.44-0.039-0.891-0.079-1.35-0.119c-1.021-0.061-2.021-0.091-3-0.091
			c-1.5,0-2.485,0.48-2.955,1.44c-0.471,0.96-0.705,2.78-0.705,5.46c0,2.78,0.189,4.56,0.569,5.34c0.32,0.641,0.83,1.03,1.53,1.17
			c0.34,0.08,0.78,0.12,1.32,0.12s1.064-0.114,1.575-0.345c0.51-0.229,0.874-0.455,1.095-0.675l0.3-0.36v-3.18h-2.34v-3.09
			c1.04-0.48,2.779-0.721,5.22-0.721c0.64,0,1.32,0.021,2.04,0.061v12.72h-3.479l-1.38-1.47c-0.32,0.359-0.641,0.64-0.961,0.84
			c-0.8,0.521-2.05,0.78-3.75,0.78c-2.08,0-3.649-0.67-4.71-2.011C71.341,89.531,70.931,88.691,70.631,87.651z"/>
		<path fill="#CFD7D8" d="M88.751,85.102c-0.141-1.36-0.21-2.71-0.21-4.051c0-1.339,0.079-2.574,0.239-3.704s0.375-2.09,0.646-2.881
			c0.27-0.789,0.625-1.465,1.064-2.024c0.44-0.56,0.891-1,1.351-1.32c0.46-0.319,1.02-0.57,1.68-0.75
			c1.06-0.3,2.195-0.45,3.405-0.45s2.109,0.03,2.7,0.091c0.59,0.06,1.22,0.18,1.89,0.359s1.23,0.431,1.68,0.75
			c0.45,0.32,0.896,0.761,1.335,1.32c0.44,0.56,0.79,1.229,1.051,2.01c0.56,1.74,0.84,3.99,0.84,6.75c0,3.341-0.471,5.91-1.41,7.71
			c-0.48,0.96-1.25,1.74-2.31,2.34c-1.08,0.601-2.82,0.9-5.221,0.9c-2.44,0-4.17-0.28-5.189-0.84c-1.101-0.58-1.881-1.33-2.34-2.25
			C89.291,87.781,88.891,86.462,88.751,85.102z M94.016,76.102c-0.17,0.5-0.305,1.16-0.405,1.979c-0.1,0.82-0.149,1.745-0.149,2.775
			s0.015,1.83,0.045,2.399c0.03,0.57,0.079,1.096,0.149,1.575c0.07,0.48,0.175,0.875,0.315,1.186c0.14,0.31,0.305,0.58,0.495,0.81
			c0.189,0.23,0.435,0.405,0.735,0.525c0.579,0.22,1.31,0.33,2.189,0.33s1.561-0.085,2.04-0.256c0.48-0.169,0.885-0.499,1.215-0.989
			s0.556-1.145,0.675-1.965c0.12-0.82,0.181-1.88,0.181-3.181c0-1.3-0.045-2.345-0.136-3.135c-0.09-0.79-0.22-1.444-0.39-1.965
			c-0.17-0.52-0.425-0.905-0.765-1.155c-0.341-0.25-0.71-0.42-1.11-0.51s-0.935-0.135-1.604-0.135c-0.671,0-1.195,0.035-1.575,0.104
			c-0.38,0.07-0.75,0.23-1.11,0.48C94.451,75.227,94.186,75.602,94.016,76.102z"/>
	</g>
</g>
</svg>
