<?xml version="1.0" encoding="utf-8"?>
<!-- Generator: Adobe Illustrator 15.1.0, SVG Export Plug-In . SVG Version: 6.00 Build 0)  -->
<!DOCTYPE svg PUBLIC "-//W3C//DTD SVG 1.1//EN" "http://www.w3.org/Graphics/SVG/1.1/DTD/svg11.dtd">
<svg version="1.1" id="Layer_1" xmlns="http://www.w3.org/2000/svg" xmlns:xlink="http://www.w3.org/1999/xlink" x="0px" y="0px"
	 width="193.594px" height="149.062px" viewBox="0 0 193.594 149.062" enable-background="new 0 0 193.594 149.062"
	 xml:space="preserve">
<g>
	<path fill="#A2ABB3" d="M3.272,78.064C1.468,78.064,0,76.596,0,74.791c0-1.805,1.468-3.272,3.272-3.272
		c1.806,0,3.274,1.468,3.274,3.272C6.547,76.596,5.078,78.064,3.272,78.064z M3.272,72.518C2.02,72.518,1,73.538,1,74.791
		c0,1.254,1.02,2.273,2.272,2.273c1.254,0,2.274-1.021,2.274-2.273C5.547,73.538,4.526,72.518,3.272,72.518z"/>
	<path fill="#A2ABB3" d="M51.319,149.062c-1.805,0-3.272-1.47-3.272-3.273s1.468-3.272,3.272-3.272c1.806,0,3.274,1.469,3.274,3.272
		S53.125,149.062,51.319,149.062z M51.319,143.516c-1.253,0-2.272,1.02-2.272,2.272s1.02,2.273,2.272,2.273
		c1.254,0,2.274-1.021,2.274-2.273S52.573,143.516,51.319,143.516z"/>
	<polygon fill="#A2ABB3" points="48.547,146.289 34.817,146.289 24.047,133.708 24.047,75.291 6.047,75.291 6.047,74.291 
		24.047,74.291 24.047,2.773 48.547,2.773 48.547,3.773 25.047,3.773 25.047,133.339 35.277,145.289 48.547,145.289 	"/>
	<path fill="#A2ABB3" d="M51.319,6.547c-1.805,0-3.272-1.468-3.272-3.272C48.047,1.469,49.515,0,51.319,0
		c1.806,0,3.274,1.468,3.274,3.273C54.593,5.078,53.125,6.547,51.319,6.547z M51.319,1c-1.253,0-2.272,1.021-2.272,2.273
		s1.02,2.272,2.272,2.272c1.254,0,2.274-1.02,2.274-2.272S52.573,1,51.319,1z"/>
	<path fill="#A2ABB3" d="M190.32,77.804c-1.805,0-3.273-1.469-3.273-3.272c0-1.806,1.469-3.273,3.273-3.273
		c1.806,0,3.272,1.468,3.272,3.273C193.594,76.336,192.126,77.804,190.32,77.804z M190.32,72.258c-1.254,0-2.273,1.021-2.273,2.273
		c0,1.254,1.021,2.272,2.273,2.272c1.254,0,2.272-1.02,2.272-2.272C192.594,73.278,191.574,72.258,190.32,72.258z"/>
	<path fill="#A2ABB3" d="M142.273,6.547c-1.806,0-3.273-1.468-3.273-3.272C139,1.469,140.469,0,142.273,0
		c1.806,0,3.272,1.468,3.272,3.273C145.546,5.078,144.079,6.547,142.273,6.547z M142.273,1C141.021,1,140,2.02,140,3.273
		s1.021,2.272,2.273,2.272c1.254,0,2.272-1.02,2.272-2.272S143.527,1,142.273,1z"/>
	<polygon fill="#A2ABB3" points="169.547,146.633 145.047,146.633 145.047,145.633 168.547,145.633 168.547,16.068 158.316,4.117 
		145.047,4.117 145.047,3.117 158.777,3.117 169.547,15.698 169.547,74.115 187.547,74.115 187.547,75.115 169.547,75.115 	"/>
	<path fill="#A2ABB3" d="M142.273,149.062c-1.806,0-3.273-1.47-3.273-3.273s1.469-3.272,3.273-3.272
		c1.806,0,3.272,1.469,3.272,3.272S144.079,149.062,142.273,149.062z M142.273,143.516c-1.254,0-2.273,1.02-2.273,2.272
		s1.021,2.273,2.273,2.273c1.254,0,2.272-1.021,2.272-2.273S143.527,143.516,142.273,143.516z"/>
</g>
</svg>
