<?xml version="1.0" encoding="utf-8"?>
<!-- Generator: Adobe Illustrator 15.1.0, SVG Export Plug-In . SVG Version: 6.00 Build 0)  -->
<!DOCTYPE svg PUBLIC "-//W3C//DTD SVG 1.1//EN" "http://www.w3.org/Graphics/SVG/1.1/DTD/svg11.dtd">
<svg version="1.1" id="Layer_1" xmlns="http://www.w3.org/2000/svg" xmlns:xlink="http://www.w3.org/1999/xlink" x="0px" y="0px"
	 width="87.318px" height="83.411px" viewBox="0 0 87.318 83.411" enable-background="new 0 0 87.318 83.411" xml:space="preserve">
<path fill="#889597" d="M67.322,67.199L54.594,54.471c2.583-3.411,4.116-7.656,4.116-12.254c0-11.222-9.129-20.352-20.352-20.352
	c-11.222,0-20.351,9.129-20.351,20.352c0,11.222,9.129,20.352,20.351,20.352c4.424,0,8.518-1.424,11.861-3.828l12.781,12.78
	c0.597,0.597,1.38,0.896,2.16,0.896c0.783,0,1.566-0.299,2.163-0.896C68.516,70.328,68.516,68.392,67.322,67.199z M24.121,42.217
	c0-7.851,6.386-14.238,14.237-14.238s14.239,6.388,14.239,14.238c0,7.852-6.388,14.238-14.239,14.238S24.121,50.069,24.121,42.217z"
	/>
</svg>
