<?xml version="1.0" standalone="no"?>
<!DOCTYPE svg PUBLIC "-//W3C//DTD SVG 1.1//EN" "http://www.w3.org/Graphics/SVG/1.1/DTD/svg11.dtd" >
<svg xmlns="http://www.w3.org/2000/svg">
<metadata></metadata>
<defs>
<font id="exothin" horiz-adv-x="1130" >
<font-face units-per-em="2048" ascent="1638" descent="-410" />
<missing-glyph horiz-adv-x="573" />
<glyph horiz-adv-x="0" />
<glyph unicode="&#xd;" horiz-adv-x="1861" />
<glyph unicode=" "  horiz-adv-x="573" />
<glyph unicode="&#x09;" horiz-adv-x="573" />
<glyph unicode="&#xa0;" horiz-adv-x="573" />
<glyph unicode="!" horiz-adv-x="532" d="M227 25v127q0 25 25 24h22q25 0 25 -24v-127q0 -25 -25 -25h-22q-25 0 -25 25zM240 1497h45l-11 -1096h-24z" />
<glyph unicode="&#x22;" horiz-adv-x="536" d="M141 1362v137h52v-137l-13 -275h-24zM346 1362v137h51v-137l-12 -275h-25z" />
<glyph unicode="#" horiz-adv-x="1339" d="M55 512l4 25h367l66 419h-367l6 25h365l84 518h24l-84 -518h381l82 518h25l-82 -518h362l-4 -25h-364l-66 -421h363l-5 -25h-362l-80 -510h-25l80 510l-381 2l-79 -512h-25l80 512h-365zM451 537l378 -2l66 421h-379z" />
<glyph unicode="$" horiz-adv-x="1198" d="M152 1012v135q0 217 105 290.5t292 73.5h31v177h36v-179q182 -10 365 -36v-27l-434 16h-29q-150 0 -233.5 -65.5t-83.5 -249.5v-135q0 -145 74.5 -198.5t226.5 -53.5h213q188 0 260 -79t72 -222v-140q0 -246 -185 -307q-92 -29 -211 -28h-35v-164h-36v166 q-287 10 -392 28v31q135 -12 461 -12q168 0 258 60.5t90 225.5v140q0 133 -65.5 192.5t-216.5 59.5h-209q-254 0 -322 133q-32 68 -32 168z" />
<glyph unicode="%" horiz-adv-x="1953" d="M117 971v272q0 135 57 195.5t207 60.5h207q145 0 202.5 -60.5t57.5 -195.5v-272q0 -135 -57.5 -195.5t-206.5 -60.5h-207q-145 0 -202.5 60.5t-57.5 195.5zM147 971q0 -129 53.5 -177.5t176.5 -48.5h207q125 0 179 47.5t54 178.5v272q0 123 -50 174t-179 51h-207 q-127 0 -180.5 -47t-53.5 -178v-272zM496 0l897 1499h43l-897 -1499h-43zM1108 262v273q0 135 57.5 195.5t206.5 60.5h207q145 0 202.5 -60.5t57.5 -195.5v-273q0 -135 -57.5 -195.5t-206.5 -60.5h-207q-145 0 -202.5 60.5t-57.5 195.5zM1139 262q0 -129 53 -177t176 -48 h207q125 0 179 47t54 178v273q0 123 -50 174t-179 51h-207q-127 0 -180 -47t-53 -178v-273z" />
<glyph unicode="&#x26;" horiz-adv-x="1337" d="M92 424q0 182 168 326l176 149l-129 174q-72 94 -71 172q0 98 65.5 158.5t139 79t207.5 18.5t347 -18v-29h-415q-102 0 -182.5 -41t-106.5 -119q-6 -18 -6 -39q0 -66 63 -153l592 -803l315 305l19 -16l-141 -176l-160 -152l192 -260h-63l-168 227l-148 -137 q-104 -102 -249 -102q-211 0 -351 180q-94 129 -94 256zM141 424q0 -113 91.5 -234.5t242.5 -148.5q31 -4 60 -4q117 0 213 86l153 143l-436 590l-160 -133q-164 -135 -164 -299z" />
<glyph unicode="'" horiz-adv-x="231" d="M90 1362v137h51v-137l-12 -275h-25z" />
<glyph unicode="(" horiz-adv-x="645" d="M207 656q0 169 33.5 339t81.5 301q96 264 178 408l32 57h56q-39 -61 -105.5 -203.5t-110.5 -265.5t-80 -296t-36 -336.5t35 -340t82 -305.5q100 -266 182 -391l35 -53h-58l-34 53q-23 33 -79.5 145.5t-99.5 233.5t-77.5 303t-34.5 351z" />
<glyph unicode=")" horiz-adv-x="643" d="M55 -430q41 57 106.5 191.5t109.5 255t80 300t36 343t-34 333.5t-83 301q-102 270 -180 410l-35 57h56q12 -23 34.5 -61.5t79 -160.5t99.5 -245t77.5 -296t34.5 -342t-33.5 -349t-80.5 -307q-96 -260 -179 -381l-32 -49h-56z" />
<glyph unicode="*" horiz-adv-x="960" d="M139 1212v29l291 8v-49zM303 838l68 274l53 -8l-94 -275zM422 1481l27 8l137 -252l-49 -23zM489 1014l25 47l242 -170l-17 -23zM580 1130l229 170l16 -24l-209 -184z" />
<glyph unicode="+" horiz-adv-x="1067" d="M139 705v49h369v370h49v-370h373v-49h-373v-371h-49v371h-369z" />
<glyph unicode="," horiz-adv-x="350" d="M141 27v127q0 27 25 26h20q25 0 25 -26v-230q0 -37 -15.5 -51t-24.5 -14t-26 2v12q33 0 33 31v96h-12q-25 0 -25 27z" />
<glyph unicode="-" horiz-adv-x="692" d="M55 569v49h582v-49h-582z" />
<glyph unicode="." horiz-adv-x="352" d="M141 25v127q0 25 25 24h22q25 0 25 -24v-127q0 -25 -25 -25h-22q-25 0 -25 25z" />
<glyph unicode="/" horiz-adv-x="724" d="M55 -147l576 1724h39l-576 -1724h-39z" />
<glyph unicode="0" horiz-adv-x="1355" d="M193 332v835q0 160 99 246t253 86h274q178 0 261 -91t83 -241v-835q0 -332 -344 -332h-274q-154 0 -253 80t-99 252zM242 332q0 -139 80.5 -211t222.5 -72h274q295 0 295 283v835q0 283 -295 283h-274q-139 0 -221 -75t-82 -208v-835z" />
<glyph unicode="1" horiz-adv-x="724" d="M111 1298v27l344 174h49v-1499h-49v1444z" />
<glyph unicode="2" horiz-adv-x="1224" d="M111 1468v31q162 20 561 21q416 0 415 -430q0 -104 -86 -246t-189 -255.5t-256 -248.5t-215 -184.5t-136 -106.5h882v-49h-962v47q2 2 72.5 58.5t100.5 81t110.5 92t126 109.5t120 113.5t119.5 123t101.5 121t87.5 122.5q74 131 73 224q0 203 -95 289.5t-273 86.5h-557z " />
<glyph unicode="3" horiz-adv-x="1228" d="M82 1454v29q119 23 305 22.5t285 -2.5q176 -2 264 -95t88 -243v-141q0 -164 -131 -240q-55 -31 -115 -36q66 -8 148 -72q41 -33 69.5 -92.5t28.5 -132.5v-121q0 -344 -365 -344q-455 0 -565 22l4 29h557q315 0 316 293v121q0 72 -32 127t-81 84q-94 55 -199 59l-438 14 v29l438 12q133 2 224.5 63.5t91.5 184.5v141q0 143 -86 216t-221 73h-586z" />
<glyph unicode="4" horiz-adv-x="1177" d="M55 485l629 1014h55l-624 -1016h774v484l20 153h29v-637h184v-28l-184 -21v-430h-49v430h-809z" />
<glyph unicode="5" horiz-adv-x="1329" d="M211 12v29h623q117 0 200.5 79t83.5 224v195q0 141 -74 221q-70 74 -213 74h-313q-94 0 -175 -78t-81 -178h-49l45 921h866v-49h-819l-35 -702q20 39 89 87t165 48h310q334 0 333 -340v-203q0 -98 -32.5 -171t-85.5 -108q-104 -70 -215 -69q-475 0 -623 20z" />
<glyph unicode="6" horiz-adv-x="1302" d="M180 746.5q0 412.5 98.5 588.5t253.5 176q397 0 558 -18v-31h-551q-92 0 -158 -67.5t-96 -177.5q-55 -197 -56 -410q193 23 580 22q190 0 260 -77.5t70 -221.5v-227q0 -305 -330 -305h-244q-88 0 -154.5 37t-119.5 125q-111 174 -111 586.5zM229 778q0 -731 336 -731h244 q283 0 283 252v231q0 147 -73 197.5t-210 50.5h-580z" />
<glyph unicode="7" horiz-adv-x="1095" d="M82 1450v49h897l33 -47l-488 -1452h-57l487 1450h-872z" />
<glyph unicode="8" horiz-adv-x="1341" d="M207 315v203q0 106 66.5 169t138.5 63q-205 35 -205 272v133q0 195 94 274.5t266 79.5h238q168 0 250 -84t82 -270v-133q0 -88 -53.5 -163t-135.5 -81q188 -53 189 -262v-201q0 -94 -33 -160.5t-88 -97.5q-96 -57 -213 -57h-236q-100 0 -171.5 25.5t-107.5 59.5t-55 83 q-26 67 -26 147zM256 309q0 -135 85 -197.5t226 -62.5h236q113 0 198.5 62.5t85.5 197.5v215q0 154 -104 191q-74 27 -174 26h-264q-96 0 -192.5 -53t-96.5 -164v-215zM256 1012q0 -150 96 -191q76 -33 193 -33h264q135 0 206.5 70t71.5 154v139q0 166 -68.5 237.5 t-213.5 71.5h-238q-166 0 -238.5 -73.5t-72.5 -235.5v-139z" />
<glyph unicode="9" horiz-adv-x="1302" d="M166 969v227q0 305 330 305h243q88 0 155 -37t122 -125q109 -174 108.5 -586.5t-98.5 -588.5t-254 -176q-397 0 -557 18v31h551q92 0 157.5 67.5t96.5 178.5q55 197 55 409q-193 -23 -579 -22q-190 0 -260 78t-70 221zM213 969q0 -147 72.5 -197.5t210.5 -50.5h579 q0 731 -336 731h-243q-283 0 -283 -252v-231z" />
<glyph unicode=":" horiz-adv-x="362" d="M141 25v127q0 25 25 24h22q25 0 25 -24v-127q0 -25 -25 -25h-22q-25 0 -25 25zM141 932v129q0 25 25 24h22q25 0 25 -24v-129q0 -23 -25 -23h-22q-25 0 -25 23z" />
<glyph unicode=";" horiz-adv-x="352" d="M141 27v127q0 27 25 26h20q25 0 25 -26v-230q0 -37 -15.5 -51t-24.5 -14t-26 2v12q33 0 33 31v96h-12q-25 0 -25 27zM141 932v129q0 25 25 24h22q25 0 25 -24v-129q0 -23 -25 -23h-22q-25 0 -25 23z" />
<glyph unicode="&#x3c;" horiz-adv-x="983" d="M139 707v41l705 393v-56l-643 -358l643 -381v-57z" />
<glyph unicode="=" horiz-adv-x="985" d="M55 434v49h875v-49h-875zM55 965v49h875v-49h-875z" />
<glyph unicode="&#x3e;" horiz-adv-x="983" d="M139 289v57l643 381l-643 358v56l705 -393v-41z" />
<glyph unicode="?" horiz-adv-x="1089" d="M55 1464v29q178 20 516 20h19q215 0 302 -92t87 -286v-207q0 -205 -127 -277q-90 -51 -266 -51q-70 0 -154 8v-209h-53v250h217q166 0 250 64.5t84 214.5v207q0 182 -83 255.5t-278 73.5h-514zM369 25v127q0 25 24 24h25q23 0 22 -24v-127q0 -25 -22 -25h-25 q-24 0 -24 25z" />
<glyph unicode="@" horiz-adv-x="1773" d="M180 0v713q0 154 76 239q33 37 102.5 67t165.5 30h410q129 0 221 -67t92 -220v-762h-33l-14 131l-31 -16q-268 -133 -430 -133h-6q-109 0 -183.5 67.5t-72.5 171.5v109q0 125 69.5 198.5t194.5 73.5h457q2 78 2 117t-2 39q0 123 -71.5 182t-198.5 59h-404 q-295 0 -295 -286v-713q0 -166 86 -239.5t209 -73.5h654q313 0 313 313v1049q0 152 -80 243.5t-233 91.5h-797v29q100 20 463 21h127h207q168 -4 265 -101.5t97 -283.5v-1049q0 -365 -362 -365h-654q-160 0 -252 94.5t-92 270.5zM524 280q0 -44 2 -47q0 -92 61.5 -147 t166.5 -55h8q80 0 211 42t225 87v413l-446 -20q-76 -4 -142 -41q-84 -45 -84 -186q-2 -2 -2 -46z" />
<glyph unicode="A" horiz-adv-x="1349" d="M125 0l561 1499h70l536 -1499h-53l-186 518h-682l-193 -518h-53zM389 567h645l-313 883z" />
<glyph unicode="B" horiz-adv-x="1226" d="M221 0v1499h518q213 0 301 -97t88 -257t-79.5 -253t-184.5 -106q90 -20 180.5 -116.5t90.5 -251.5q0 -418 -396 -418h-518zM270 51h469q346 0 346 371q0 141 -100 239.5t-235 98.5h-11h-469v-709zM270 809h469q147 0 242 84q98 88 98 249t-84 234.5t-256 73.5h-469v-641z " />
<glyph unicode="C" horiz-adv-x="1167" d="M152 754q0 190 19 320t73 237q104 205 405 205q174 0 438 -50v-28q-29 4 -54 6t-59 5t-74 6t-81 5q-123 6 -170 6q-160 0 -252 -57q-196 -122 -196 -654v-5q0 -713 450 -713q190 0 375 18l61 6v-28q-242 -45 -438 -45q-497 0 -497 766z" />
<glyph unicode="D" horiz-adv-x="1374" d="M221 0v1499h518q133 0 232.5 -50t155 -126t90.5 -182q53 -172 53 -351.5t-31 -306.5t-91.5 -237.5t-167 -178t-241.5 -67.5h-518zM270 49h469q123 0 219.5 65.5t151.5 170.5q111 209 111 460q0 354 -124 529.5t-358 175.5h-469v-1401z" />
<glyph unicode="E" horiz-adv-x="1191" d="M221 252v981q0 141 72 203.5t174 62.5h12l608 -20v-29h-608q-209 0 -209 -217v-465l736 -10v-29l-736 -10v-467q0 -127 61.5 -168t168.5 -41h587v-29l-585 -20h-39t-67 7t-85 32q-90 53 -90 219z" />
<glyph unicode="F" horiz-adv-x="1191" d="M221 0v1233q0 141 72 203.5t174 62.5h12l608 -20v-29h-608q-209 0 -209 -217v-465l736 -10v-29l-736 -10v-719h-49z" />
<glyph unicode="G" horiz-adv-x="1269" d="M152 745.5q0 110.5 3 184.5t14 156.5t29.5 142t52.5 117t81 92.5q102 78 290.5 78t485.5 -56v-39l-88 13q-264 33 -391 33q-2 0 -4 -1q-127 0 -199 -32.5t-115 -89t-69 -148.5q-41 -154 -41 -442q0 -393 85 -554t322 -161q141 0 400 76l86 26v604h-439v29q82 23 248 23 t240 -6v-791h-29l-16 111q-66 -35 -216.5 -78t-263 -43t-190.5 24.5t-127 80t-80 117.5t-45 158.5t-19 180.5t-5 194.5z" />
<glyph unicode="H" horiz-adv-x="1359" d="M221 0v1499h49v-749h901v749h50v-1499h-50v700h-901v-700h-49z" />
<glyph unicode="I" horiz-adv-x="409" d="M221 0v1499h49v-1499h-49z" />
<glyph unicode="J" horiz-adv-x="714" d="M96 43l8 29q115 -33 160 -33t86 3t81 31.5t67.5 95.5t27.5 169v1161h49v-1161q0 -223 -106 -301q-63 -47 -170 -47q-119 0 -203 53z" />
<glyph unicode="K" horiz-adv-x="1214" d="M221 0v1499h49v-723h312l493 723h60l-508 -747l508 -752h-62l-493 727h-308v-727h-51z" />
<glyph unicode="L" horiz-adv-x="1144" d="M221 258v1241h49v-1241q0 -127 62.5 -168t167.5 -41h565v-49h-565q-117 0 -189 41q-90 51 -90 217z" />
<glyph unicode="M" horiz-adv-x="1632" d="M152 0l165 1499h74l436 -1415l428 1415h78l172 -1499h-49l-166 1440l-434 -1440h-55l-443 1440l-157 -1440h-49z" />
<glyph unicode="N" horiz-adv-x="1361" d="M221 0v1499h51l902 -1405v1405h49v-1499h-49l-904 1405v-1405h-49z" />
<glyph unicode="O" horiz-adv-x="1382" d="M180 741.5q0 204.5 24.5 347t65.5 225.5t116 127t149.5 56t183 12t175.5 -8t134.5 -34.5t109.5 -79t74 -136.5q66 -160 66 -512q0 -375 -86 -549q-39 -82 -111.5 -126t-151.5 -58t-202 -14t-198.5 12t-149.5 54t-113 123t-62.5 218.5t-23.5 342zM229 710.5 q0 -155.5 18.5 -278.5t51.5 -201.5t97.5 -119.5t139 -55.5t205.5 -14.5t216 24.5t152 97.5t93.5 212t26.5 333.5t-13.5 314.5t-44 198.5t-68.5 127t-100.5 73t-122 31.5t-139 7t-121.5 -3t-95.5 -12t-87.5 -30.5t-70.5 -55.5t-59 -88t-42 -128t-28 -175.5t-8.5 -257z" />
<glyph unicode="P" horiz-adv-x="1196" d="M166 0v1499h565q72 0 126 -13t114 -52q121 -82 121 -344q0 -119 -25 -204t-57.5 -128t-88 -65.5t-93 -26.5t-103.5 -4t-285 8t-225 12v-682h-49zM215 711h516q145 0 227 76.5t82 291.5q0 266 -133 334q-72 35 -176 35h-516v-737z" />
<glyph unicode="Q" horiz-adv-x="1382" d="M180 741.5q0 204.5 24.5 347t65.5 225.5t116 127t149.5 56t183 12t175.5 -8t134.5 -34.5t109.5 -79t74 -136.5q66 -160 66 -512q0 -375 -86 -549q-39 -82 -111.5 -126t-151.5 -58t-202 -14t-198.5 12t-149.5 54t-113 123t-62.5 218.5t-23.5 342zM229 710.5 q0 -155.5 18.5 -278.5t51.5 -201.5t97.5 -119.5t139 -55.5t205.5 -14.5t216 24.5t152 97.5t93.5 212t26.5 333.5t-13.5 314.5t-44 198.5t-68.5 127t-100.5 73t-122 31.5t-139 7t-121.5 -3t-95.5 -12t-87.5 -30.5t-70.5 -55.5t-59 -88t-42 -128t-28 -175.5t-8.5 -257z M713 -68h28q29 -78 91.5 -114.5t125 -36.5t144.5 22v-49q-69 -23 -107 -23q-1 0 -2 1q-39 0 -47 2q-80 2 -147.5 54t-85.5 144z" />
<glyph unicode="R" horiz-adv-x="1175" d="M166 0v1499h565q72 0 126 -13t114 -52q121 -82 121 -344q0 -272 -109 -359q-53 -41 -101 -54t-116 -15l330 -662h-52l-331 662q-479 8 -498 20v-682h-49zM215 711h516q70 0 119 13t96 50q94 80 94 316q0 256 -133 323q-72 35 -176 35h-516v-737z" />
<glyph unicode="S" horiz-adv-x="1200" d="M180 1012v135q0 207 101.5 285.5t306.5 78.5t442 -38v-27l-455 16h-26q-150 0 -235 -68.5t-85 -246.5v-135q0 -150 73 -201t228 -51h234q188 0 260 -79t72 -222v-140q0 -209 -125 -278q-102 -57 -273 -57q-86 0 -250.5 9t-230.5 21v31q135 -12 481 -12q162 0 255.5 61.5 t93.5 224.5v140q0 133 -66 192.5t-217 59.5h-229q-225 0 -297 92q-35 45 -46.5 92t-11.5 117z" />
<glyph unicode="T" horiz-adv-x="1236" d="M96 1450v49h1061v-49h-512v-1450h-49v1450h-500z" />
<glyph unicode="U" horiz-adv-x="1398" d="M221 655v844h49v-844q0 -197 18.5 -277.5t31 -125.5t38 -78t45 -56.5t56.5 -37.5t61.5 -23.5t69.5 -11.5q76 -6 153.5 -6t127 5t108.5 24.5t96 60.5t72 107q63 125 63 419v844h50v-844q0 -209 -24 -297t-40 -138t-46 -85t-53.5 -60.5t-63.5 -41t-66.5 -24.5t-73.5 -13 q-68 -6 -208 -6t-220 30q-176 66 -223 351q-21 118 -21 284z" />
<glyph unicode="V" horiz-adv-x="1349" d="M125 1499h53l518 -1450l543 1450h53l-561 -1499h-69z" />
<glyph unicode="W" horiz-adv-x="1988" d="M125 1499h53l518 -1450l502 1450h53l-211 -616l334 -834l508 1450h49l-520 -1499h-70l-327 811l-283 -811h-69z" />
<glyph unicode="X" horiz-adv-x="1157" d="M125 1499h63l422 -704l426 704h64l-457 -756l447 -743h-64l-416 690l-415 -690h-64l449 743z" />
<glyph unicode="Y" horiz-adv-x="1267" d="M125 1499h55l467 -903l508 903h55l-538 -967v-532h-49v532z" />
<glyph unicode="Z" horiz-adv-x="1124" d="M96 0v49l887 1401h-887v49h948v-49l-886 -1401h886v-49h-948z" />
<glyph unicode="[" horiz-adv-x="669" d="M236 -78v1450q0 119 45 221q27 59 86 95t147 36h102v-49h-102q-106 0 -167.5 -73.5t-61.5 -229.5v-1450q0 -135 55 -219t174 -84h102v-49h-102q-88 0 -147.5 36t-85.5 95q-45 102 -45 221z" />
<glyph unicode="\" horiz-adv-x="724" d="M55 1577h39l576 -1724h-39z" />
<glyph unicode="]" horiz-adv-x="669" d="M55 -381h103q119 0 174 84t55 219v1450q0 156 -61.5 229.5t-167.5 73.5h-103v49h103q88 0 147.5 -35.5t85.5 -95.5q45 -102 45 -221v-1450q0 -119 -45 -221q-27 -59 -86 -95t-147 -36h-103v49z" />
<glyph unicode="^" horiz-adv-x="833" d="M139 1087l271 267h41l245 -267h-37l-229 236l-254 -236h-37z" />
<glyph unicode="_" horiz-adv-x="1347" d="M55 -2v49h1237v-49h-1237z" />
<glyph unicode="`" horiz-adv-x="411" d="M55 1360h54l247 -273h-28z" />
<glyph unicode="a" horiz-adv-x="1064" d="M111 258v125q0 129 72.5 200.5t199.5 71.5h372h124q2 68 2 102t-2 36q0 270 -279 270q-147 0 -455 -47v28q258 63 476 64q133 0 220 -78t87 -237v-793h-31l-18 131l-33 -14q-295 -129 -463 -129q-117 0 -194.5 71.5t-77.5 198.5zM160 268q0 -119 65 -174q70 -57 155 -57 t205 29.5t206 60.5l88 33v467l-496 -21q-223 -8 -223 -223v-115z" />
<glyph unicode="b" d="M166 0v1608h45v-586q92 37 210 59.5t193 22.5q379 0 379 -565q0 -209 -78 -369q-41 -84 -117.5 -133t-179 -49t-231.5 46t-174 87l-20 -121h-27zM213 150q221 -113 401 -113q141 0 235.5 125t94.5 395t-90 384t-247.5 114t-393.5 -62v-843z" />
<glyph unicode="c" horiz-adv-x="1026" d="M139 545q0 172 24.5 285.5t76 170t111 77t187.5 20.5t363 -54v-28q-223 33 -353 33t-180.5 -18.5t-93.5 -72.5q-86 -100 -86 -421q0 -303 91 -408q43 -51 94 -70.5t129 -19.5q150 0 352 33l64 10v-33q-201 -57 -422 -59q-84 0 -142.5 20.5t-111 76.5t-78 171t-25.5 287z " />
<glyph unicode="d" d="M139 539q0 565 377 565q76 0 194.5 -22.5t211.5 -59.5v586h43v-1608h-27l-20 121q-45 -41 -174.5 -87t-231.5 -46t-179 49t-116 133q-78 162 -78 369zM188 561q0 -283 92 -403q92 -121 236 -121q180 0 402 113v843q-236 61 -402 62q-72 0 -125 -21.5t-102 -75.5 q-101 -109 -101 -397z" />
<glyph unicode="e" horiz-adv-x="1077" d="M197 948q47 109 196 137q61 11 153 11h16q82 0 130 -6q53 -6 111.5 -27t89.5 -59q74 -92 74 -293q0 -115 -68 -157t-211 -42h-500q0 -299 88 -393q45 -47 95.5 -63.5t173.5 -16.5t401 41v-33q-207 -57 -434 -57q-219 0 -296 126q-77 125 -77 409q0 289 58 423zM188 559 h500q172 0 211 68q19 34 19 118q0 79 -22 147q-22 69 -73 102.5t-109.5 43t-185.5 9.5t-199.5 -34t-106.5 -136.5t-34 -317.5z" />
<glyph unicode="f" horiz-adv-x="786" d="M55 1038v29l178 20v203q0 166 43 242q18 31 56.5 54.5t91.5 23.5q225 0 307 -23v-26h-291q-96 0 -126.5 -67t-30.5 -204v-203h364v-49h-364v-1038h-50v1038h-178z" />
<glyph unicode="g" horiz-adv-x="1171" d="M125 -45l25 215q-19 25 -19 76t45 94t129 45q-178 72 -178 320q0 203 83 295t269 92h639v-29l-227 -21q125 -90 125 -337q0 -115 -60 -222q-33 -57 -104.5 -93t-173.5 -36h-320q-39 0 -88 -14q-94 -27 -94 -102q0 -55 54.5 -85t109.5 -30h422q141 0 219 -74t78 -199v-108 q0 -295 -307 -295h-308q-147 0 -233 83t-86 232v193zM176 135v-373q0 -80 30 -137t77 -84q82 -45 161 -45h308q258 0 258 246v108q0 100 -58.5 163t-189.5 63h-418q-49 0 -91 15t-60 30zM176 705q0 -299 289 -299h209q154 0 223.5 84.5t69.5 231t-60.5 233.5t-144.5 87h-303 q-160 0 -221.5 -86.5t-61.5 -250.5z" />
<glyph unicode="h" d="M166 0v1606h49v-645q221 145 442 145q156 0 246 -102.5t90 -245.5v-758h-49v758q0 133 -76.5 216t-207 83t-226.5 -29t-219 -96v-932h-49z" />
<glyph unicode="i" horiz-adv-x="348" d="M139 1274v127q0 24 23 24h2h22q23 0 23 -24v-127q0 -25 -23 -25h-22q-25 0 -25 25zM147 0v1087h50v-1087h-50z" />
<glyph unicode="j" horiz-adv-x="403" d="M166 1274v127q0 24 22 24h2h23q25 0 25 -24v-127q0 -25 -25 -25h-23q-24 0 -24 25zM178 -553v1640h49v-1095v-212t-22 -333h-27z" />
<glyph unicode="k" horiz-adv-x="1019" d="M166 0v1602h49v-953h123l549 438h78l-578 -464l576 -623h-72l-553 600h-123v-600h-49z" />
<glyph unicode="l" horiz-adv-x="610" d="M166 387v1217h49v-1217q0 -252 96 -309q33 -18 47.5 -21.5t98.5 -16.5t98 -13v-27h-137q-129 0 -190.5 93t-61.5 294z" />
<glyph unicode="m" horiz-adv-x="1906" d="M166 0v1087h29l20 -126q221 145 433 145t302 -168q86 66 226.5 117t257.5 51q156 0 245.5 -102.5t89.5 -245.5v-758h-49v758q0 127 -77.5 213t-208.5 86q-205 0 -473 -144q33 -78 32 -155v-758h-49v758q0 127 -78 213t-207 86t-225 -29t-219 -96v-932h-49z" />
<glyph unicode="n" d="M166 0v1087h29l20 -126q221 145 442 145q156 0 246 -102.5t90 -245.5v-758h-49v758q0 127 -78 213t-207 86t-225 -29t-219 -96v-932h-49z" />
<glyph unicode="o" horiz-adv-x="1173" d="M139 541.5q0 314.5 98.5 435.5t351.5 121t350 -134.5t97 -435.5t-97 -419.5t-356 -118.5t-351.5 118.5t-92.5 433zM188 535.5q0 -166.5 24 -266t79 -148.5t120.5 -65.5t173 -16.5t176 18.5t124.5 69.5q102 100 102 401q0 322 -110 426q-55 55 -122 75t-170.5 20 t-167 -15.5t-120.5 -65.5t-83 -158t-26 -274.5z" />
<glyph unicode="p" d="M166 -549v1636h27l22 -120q45 41 173 87t230.5 46t179 -49.5t117.5 -132.5q78 -160 78 -369q0 -565 -379 -565q-76 0 -192.5 22.5t-208.5 59.5v-615h-47zM215 94q236 -61 392.5 -61t246.5 113.5t90 384t-94 395.5t-236 125q-178 0 -399 -113v-844z" />
<glyph unicode="q" horiz-adv-x="1142" d="M139 549.5q0 263.5 94.5 407t282.5 143.5q311 0 463 -25v-1628h-49v612q-90 -37 -212 -58t-219.5 -21t-173 41.5t-116.5 121.5q-70 143 -70 406.5zM188 549q0 -262 73 -391t245 -129t424 63v959h-414q-328 0 -328 -502z" />
<glyph unicode="r" horiz-adv-x="868" d="M166 0v1087h24l25 -137q84 47 134 73t138 51.5t183.5 25.5t142.5 -17v-47q-69 14 -133 14q-5 0 -9 1q-58 -1 -98 -7q-43 -6 -70.5 -12t-75.5 -25.5t-64.5 -26.5t-75 -36t-72.5 -35v-909h-49z" />
<glyph unicode="s" horiz-adv-x="1032" d="M111 743v95q0 131 64.5 195.5t217.5 64.5q281 0 473 -19v-28h-473q-127 0 -180 -50.5t-53 -162.5v-95q0 -92 37 -139q31 -39 196 -39h262q121 0 194 -60.5t73 -172.5v-101q0 -160 -86 -204q-70 -37 -181 -37q-305 0 -499 20v29h499q162 0 199 84q18 41 18 108v101 q0 80 -56 132t-161 52h-262q-160 0 -221 40t-61 187z" />
<glyph unicode="t" horiz-adv-x="716" d="M55 1040v33l172 17l17 303h32v-303h359v-50h-359v-655q0 -252 97 -307q33 -20 47 -23.5t98 -16.5t98 -13v-27h-137q-129 0 -190.5 93t-61.5 294v655h-172z" />
<glyph unicode="u" d="M139 332v758h49v-758q0 -127 78 -213t207 -86t225.5 28.5t219.5 96.5v932h49v-1088h-29l-20 127q-221 -145 -443 -145q-156 0 -246 102.5t-90 245.5z" />
<glyph unicode="v" horiz-adv-x="1064" d="M55 1087h49l424 -1019l433 1019h49l-455 -1087h-53z" />
<glyph unicode="w" horiz-adv-x="1591" d="M55 1087h51l402 -1026l391 1026h49l-151 -407l278 -619l414 1026h47l-434 -1087h-53l-277 623l-237 -623h-54z" />
<glyph unicode="x" horiz-adv-x="983" d="M66 0l393 545l-393 542h65l361 -497l360 497h66l-394 -542l394 -545h-66l-360 498l-361 -498h-65z" />
<glyph unicode="y" horiz-adv-x="1083" d="M57 1087h54l303 -849q68 -186 207 -187l350 1036h51l-477 -1431l-94 -209h-25l178 553q-172 8 -239 225z" />
<glyph unicode="z" horiz-adv-x="972" d="M82 1038v49h811v-49l-717 -987h717v-49h-778v49l712 987h-745z" />
<glyph unicode="{" horiz-adv-x="622" d="M55 655v56q185 16 185 149v483q0 276 161 351q68 31 166 30v-49q-141 0 -209.5 -75.5t-68.5 -256.5v-483q0 -72 -47 -119t-117 -57q68 -10 115 -58t47 -112v-592q0 -170 67.5 -236.5t212.5 -66.5v-49q-217 0 -280 119q-31 57 -40 108t-9 125v584q0 70 -55.5 109.5 t-114.5 39.5h-13z" />
<glyph unicode="|" horiz-adv-x="520" d="M238 -147v1724h49v-1724h-49z" />
<glyph unicode="}" horiz-adv-x="622" d="M55 -381q145 0 213 66.5t68 236.5v592q0 63 47 111.5t115 58.5q-70 10 -117 57t-47 119v483q0 180 -68.5 256t-210.5 76v49q197 0 269 -118q59 -100 59 -263v-483q0 -133 184 -149v-56h-12q-59 0 -114.5 -40t-55.5 -109v-584q0 -74 -9 -125t-40 -108q-63 -119 -281 -119 v49z" />
<glyph unicode="~" horiz-adv-x="968" d="M139 1171q86 74 133 96.5t86 22.5t132.5 -74.5t123.5 -74.5q74 0 205 108l12 -14q-41 -41 -69 -64q-72 -63 -148 -63q-45 0 -136 74.5t-114.5 74.5t-39 -2t-32 -9t-26.5 -11t-30.5 -17.5t-27.5 -18.5t-30.5 -22.5t-30.5 -21.5z" />
<glyph unicode="&#xa1;" horiz-adv-x="546" d="M229 793v129q0 20 25 20h22q25 0 25 -20v-129q0 -27 -25 -27h-22q-25 0 -25 27zM244 -553l10 1098h25l10 -1098h-45z" />
<glyph unicode="&#xa2;" horiz-adv-x="999" d="M111 525q0 163 19.5 265.5t50 162t83.5 92t107.5 43t132.5 10.5v168h37v-170q166 -10 333 -52v-28q-223 33 -353 33t-181 -18.5t-94 -72.5q-86 -100 -86 -421q0 -305 90 -408q45 -51 96 -70.5t129 -19.5q147 0 350 33l64 10v-33q-178 -51 -348 -57v-160h-37v158 q-100 0 -162.5 17.5t-120 71.5t-84 168.5t-26.5 277.5z" />
<glyph unicode="&#xa3;" horiz-adv-x="1230" d="M139 0v29l148 20v668h-148v28l148 17v272q0 266 100 367q63 63 137 78q106 20 230 20l340 -18v-29h-336q-115 0 -183.5 -12.5t-128 -54.5t-85 -126.5t-25.5 -224.5v-272l594 -17v-28h-594v-668h754v-49h-951z" />
<glyph unicode="&#xa4;" horiz-adv-x="954" d="M141 967l19 18l94 -96q94 88 224 88t222 -80l93 90l18 -20l-90 -88q94 -94 94 -230.5t-84 -236.5l78 -78l-21 -19l-73 78q-96 -100 -237.5 -100t-237.5 106l-80 -80l-17 17l80 82q-78 98 -78 228t93 226zM176 640q0 -128 88 -222t215 -94t216 94t89 223t-89 217t-215 88 t-215 -89t-89 -217z" />
<glyph unicode="&#xa5;" horiz-adv-x="1196" d="M55 1499h60l463 -790l501 790h62l-537 -842h422v-28h-424v-195h424v-28h-424v-406h-49v406h-401v28h401v195h-401v28h399z" />
<glyph unicode="&#xa6;" horiz-adv-x="524" d="M238 -147v671h49v-671h-49zM238 879v698h49v-698h-49z" />
<glyph unicode="&#xa7;" horiz-adv-x="1144" d="M152 723v127q0 170 112 190q-113 20 -112 168v144q0 137 75.5 195.5t190.5 58.5q305 0 500 -21v-29h-500q-217 0 -217 -204v-144q0 -90 49 -118.5t168 -28.5h305q168 0 221 -45t51 -164v-127q0 -51 -5 -84t-30.5 -63.5t-70.5 -34.5q68 -14 86 -57.5t18 -110.5v-150 q0 -160 -92 -205q-76 -37 -190 -36q-289 0 -484 20v29h484q119 0 176 42t57 150v150q0 92 -38 119.5t-183 27.5h-305q-147 0 -191 21q-75 35 -75 180zM201 723q0 -41 14 -98q4 -16 21.5 -26.5t26.5 -17t42 -8.5t47 -2h371q152 0 186.5 23.5t34.5 130.5v127q0 100 -42 131 t-179 31h-305q-162 0 -187 -35q-31 -45 -30 -131v-125z" />
<glyph unicode="&#xa8;" horiz-adv-x="868" d="M139 1191q0 36 35 36t35 -36t-35 -36t-35 36zM659 1192q0 35 36 35t36 -36t-35 -36q-16 0 -26.5 10.5t-10.5 26.5z" />
<glyph unicode="&#xa9;" horiz-adv-x="1769" d="M152 750.5q0 111.5 13 210t48 199t88 174t142 119.5t202 46h524q115 0 201 -54t131 -133t74 -188q43 -162 43 -368.5t-46 -372.5t-150.5 -274.5t-252.5 -108.5h-524q-133 0 -234.5 78t-154.5 198.5t-78.5 241.5t-25.5 232.5zM180 737q0 -250 111 -467q55 -106 147 -173.5 t207 -67.5h524q182 0 301 191.5t119 533.5q0 207 -39 361.5t-136 254.5t-245 100h-524q-150 0 -260 -94q-205 -174 -205 -639zM512 738.5q0 242.5 80 349t215 106.5q170 0 364 -35v-18q-172 25 -364 24q-266 0 -266 -424q0 -203 62.5 -307t203.5 -104q238 0 377 32v-18 q-154 -43 -377 -43q-137 0 -216 97.5t-79 340z" />
<glyph unicode="&#xaa;" horiz-adv-x="737" d="M82 596v27h573v-27h-573zM82 948v94q0 84 55.5 134.5t149.5 50.5q166 -2 248.5 -2t82.5 2v47v18q0 188 -221 189q-135 0 -291 -33v20q141 45 316 45q98 0 163.5 -52t65.5 -158v-529h-20l-13 100l-22 -10q-195 -98 -294 -98t-159.5 48t-60.5 134zM117 954q0 -156 182 -155 q55 0 135 24.5t131 48.5l53 25v309l-319 -8q-182 0 -182 -168v-76z" />
<glyph unicode="&#xab;" horiz-adv-x="1122" d="M139 725l418 418l37 -35l-385 -383l397 -391l-37 -37zM516 725l422 418l33 -35l-385 -383l397 -391l-37 -37z" />
<glyph unicode="&#xac;" horiz-adv-x="1089" d="M139 575v50h811v-299h-49v249h-762z" />
<glyph unicode="&#xad;" horiz-adv-x="753" d="M55 569v49h643v-49h-643z" />
<glyph unicode="&#xae;" horiz-adv-x="1769" d="M152 750.5q0 111.5 13 210t48 199t88 174t142 119.5t202 46h524q115 0 201 -54t131 -133t74 -188q43 -162 43 -368.5t-46 -372.5t-150.5 -274.5t-252.5 -108.5h-524q-133 0 -234.5 78t-154.5 198.5t-78.5 241.5t-25.5 232.5zM180 737q0 -250 111 -467q55 -106 147 -173.5 t207 -67.5h524q182 0 301 191.5t119 533.5q0 207 -39 361.5t-136 254.5t-245 100h-524q-150 0 -260 -94q-205 -174 -205 -639zM584 313v875h362q119 0 186.5 -54.5t67.5 -203.5q0 -102 -33 -146q-18 -23 -33.5 -38t-43 -22t-41.5 -11q-25 -4 -76 -4l227 -396h-35l-227 394 l-326 10v-404h-28zM612 735h346q113 0 163 38t50 160t-54 174t-159 52h-346v-424z" />
<glyph unicode="&#xaf;" horiz-adv-x="792" d="M139 1087v31h516v-31h-516z" />
<glyph unicode="&#xb0;" horiz-adv-x="692" d="M139 1294q0 88 61.5 149.5t147.5 61.5t145.5 -61.5t59.5 -149.5t-59.5 -148.5t-145.5 -60.5t-147.5 60.5t-61.5 148.5zM168 1294.5q0 -73.5 53 -126t127 -52.5t125 52.5t51 126t-51 127t-125 53.5t-127 -53.5t-53 -127z" />
<glyph unicode="&#xb1;" horiz-adv-x="1095" d="M156 281v49h790v-49h-790zM156 842v49h370v371h49v-371h371v-49h-371v-371h-49v371h-370z" />
<glyph unicode="&#xb2;" horiz-adv-x="841" d="M84 1700l2 2q119 14 375 14q266 0 266 -278q0 -109 -109 -244q-119 -152 -301 -305q-45 -37 -66.5 -53.5t-53.5 -42.5l-35 -27h563v-37h-633v29q31 20 94.5 73.5t119.5 100.5t92 82t86.5 83t81 89t61.5 84q61 84 61 162q0 119 -51 183t-188 64h-363z" />
<glyph unicode="&#xb3;" horiz-adv-x="894" d="M82 1669v21q84 16 401 16q127 0 187.5 -62.5t60.5 -162.5v-72q0 -78 -60.5 -130t-109.5 -56q49 -10 109.5 -63.5t60.5 -137.5v-57q0 -119 -58.5 -181.5t-201.5 -62.5q-276 0 -381 22v15h365q129 0 183 46t54 169v47q0 86 -69.5 134t-159.5 50l-291 8v21l291 8 q98 4 165.5 50t67.5 120v72q0 186 -217 186h-397z" />
<glyph unicode="&#xb4;" horiz-adv-x="411" d="M55 1087l248 273h53l-272 -273h-29z" />
<glyph unicode="&#xb5;" horiz-adv-x="1269" d="M250 -553v1643h49v-758q0 -127 78 -213t207 -86t225 28.5t219 96.5v932h49v-1088h-28l-21 127q-221 -145 -430 -145t-299 157v-694h-49z" />
<glyph unicode="&#xb6;" horiz-adv-x="1171" d="M111 1022v190q0 137 95 212t224 75h686v-53h-141v-1446h-49v1450h-336v-2003h-49v1301q-31 -20 -99 -21h-12q-152 0 -235.5 84t-83.5 211zM160 1026q0 -78 32.5 -132t81.5 -79q86 -39 156 -39h111v674h-111q-127 0 -198.5 -68.5t-71.5 -173.5v-182z" />
<glyph unicode="&#xb7;" horiz-adv-x="540" d="M236 770v25q0 25 24 24h23q25 0 24 -24v-25q0 -25 -24 -25h-23q-24 0 -24 25z" />
<glyph unicode="&#xb8;" horiz-adv-x="546" d="M139 -340l66 10q49 8 73.5 16.5t51 33t35 70.5t8.5 83v51h35q0 -158 -41 -218t-166 -60h-62v14z" />
<glyph unicode="&#xb9;" horiz-adv-x="522" d="M45 1573v18l262 113h37v-975h-37v938z" />
<glyph unicode="&#xba;" horiz-adv-x="780" d="M82 1137q0 215 60.5 293.5t250 78.5t246.5 -77.5t57 -294.5t-58 -295t-245.5 -78t-249 79t-61.5 294zM106 596v27h574v-27h-574zM115 1104q0 -174 56 -240.5t220 -66.5t218.5 62.5t54.5 271t-50.5 277.5t-220.5 69q-115 0 -170 -26t-81.5 -99.5t-26.5 -247.5z" />
<glyph unicode="&#xbb;" horiz-adv-x="1122" d="M139 334l398 391l-385 383l32 35l422 -418l-430 -428zM516 334l397 391l-385 383l37 35l418 -418l-430 -428z" />
<glyph unicode="&#xbc;" horiz-adv-x="1794" d="M45 1368v18l262 113h37v-975h-37v938zM434 0l791 1577h37l-791 -1577h-37zM985 362l389 611h41l-377 -592h543v248l18 98h19v-346h121v-16l-121 -23v-340h-37v340h-588z" />
<glyph unicode="&#xbd;" horiz-adv-x="1933" d="M45 1368v18l262 113h37v-975h-37v938zM408 0l790 1577h37l-791 -1577h-36zM1180 973l2 2q118 14 374 14q266 0 267 -278q0 -109 -107 -244q-121 -152 -303 -303q-45 -39 -66.5 -55.5t-56.5 -42.5l-33 -27h564v-37h-633v29q31 20 94.5 73.5t119.5 100.5t92 82t86 83t81 89 t63 86q59 82 60 160q0 119 -51.5 183t-188.5 64h-362z" />
<glyph unicode="&#xbe;" horiz-adv-x="2050" d="M82 1464v21q84 16 401 16q127 0 187.5 -62.5t60.5 -162.5v-72q0 -78 -60.5 -130t-109.5 -56q49 -10 109.5 -63.5t60.5 -137.5v-57q0 -119 -58.5 -181.5t-201.5 -62.5q-276 0 -381 23v14h365q129 0 183 46t54 169v47q0 86 -69.5 134t-159.5 50l-291 9v20l291 8 q98 4 165.5 50.5t67.5 119.5v72q0 186 -217 186h-397zM676 0l790 1577h37l-790 -1577h-37zM1155 362l389 611h41l-377 -592h541v248l20 98h17v-346h123v-16l-123 -23v-340h-37v340h-586z" />
<glyph unicode="&#xbf;" horiz-adv-x="1085" d="M109 37q0 205 127 276q90 51 266 52q70 0 153 -9v209h54v-250h-217q-166 0 -250 -64.5t-84 -213.5v-209q0 -182 83 -255t277 -73h514v-28q-178 -20 -516 -21h-18q-215 0 -302 91t-87 286v209zM647 811v127q0 25 23 25h24q25 0 25 -25v-127q0 -25 -25 -25h-24 q-23 0 -23 25z" />
<glyph unicode="&#xc0;" horiz-adv-x="1349" d="M125 0l561 1499h70l536 -1499h-53l-186 518h-682l-193 -518h-53zM389 567h645l-313 883zM434 1905h53l248 -273h-28z" />
<glyph unicode="&#xc1;" horiz-adv-x="1349" d="M125 0l561 1499h70l536 -1499h-53l-186 518h-682l-193 -518h-53zM389 567h645l-313 883zM707 1632l247 273h54l-273 -273h-28z" />
<glyph unicode="&#xc2;" horiz-adv-x="1349" d="M125 0l561 1499h70l536 -1499h-53l-186 518h-682l-193 -518h-53zM389 567h645l-313 883zM442 1632l271 266h41l245 -266h-36l-230 236l-254 -236h-37z" />
<glyph unicode="&#xc3;" horiz-adv-x="1349" d="M125 0l561 1499h70l536 -1499h-53l-186 518h-682l-193 -518h-53zM375 1696q86 74 133 96.5t86 22.5t132 -75t124 -75q74 0 205 109l12 -15q-41 -41 -68 -63q-74 -63 -149 -64q-45 0 -136 75t-115 75t-39 -2t-31.5 -9.5t-26.5 -11.5t-30.5 -17t-28 -18.5t-31 -23 t-29.5 -21.5zM389 567h645l-313 883z" />
<glyph unicode="&#xc4;" horiz-adv-x="1349" d="M125 0l561 1499h70l536 -1499h-53l-186 518h-682l-193 -518h-53zM389 567h645l-313 883zM426 1668q0 15 9 25.5t24.5 10.5t26 -10.5t10.5 -22.5t-7 -20q-8 -18 -26.5 -18.5t-27.5 10t-9 25.5zM946 1669q0 14 10.5 24.5t25.5 10.5t24.5 -10.5t9.5 -21.5t-2 -17t-6 -13 q-10 -10 -25.5 -10t-26 11.5t-10.5 25.5z" />
<glyph unicode="&#xc5;" horiz-adv-x="1349" d="M125 0l561 1499h70l536 -1499h-53l-186 518h-682l-193 -518h-53zM389 567h645l-313 883zM514 1719.5q0 -72.5 27.5 -121t76 -76t120 -27.5t131 60.5t59.5 148.5t-59.5 149.5t-145.5 61.5t-147.5 -61.5t-61.5 -134zM543 1704q0 74 53 127t127 53t125 -53t51 -127t-51 -126 t-125 -52t-127 52t-53 126z" />
<glyph unicode="&#xc6;" horiz-adv-x="1910" d="M82 0l770 1208q106 168 152 211q82 80 229 80h24l549 -20v-29h-549q-90 0 -116.5 -10t-43 -16.5t-25.5 -23t-14 -25.5t-7 -34l-2 -36q-2 -12 -1 -44t1 -49v-444l675 -10v-29l-675 -10v-467q0 -127 61 -168t168 -41h528v-29l-528 -20h-18q-111 0 -186 49t-75 205v268h-528 l-328 -516h-61zM504 565h495v781z" />
<glyph unicode="&#xc7;" horiz-adv-x="1167" d="M152 754q0 190 19 320t73 237q104 205 405 205q174 0 438 -50v-28q-29 4 -54 6t-59 5t-74 6t-81 5q-123 6 -170 6q-160 0 -252 -57q-197 -123 -196 -659q0 -713 450 -713q190 0 375 18l61 6v-28q-242 -45 -438 -45q-497 0 -497 766zM436 -338l66 10q49 8 73.5 16.5t51 33 t35 70.5t8.5 83v51h35q0 -158 -41 -218t-166 -60h-62v14z" />
<glyph unicode="&#xc8;" horiz-adv-x="1191" d="M221 252v981q0 141 72 203.5t174 62.5h12l608 -20v-29h-608q-209 0 -209 -217v-465l736 -10v-29l-736 -10v-467q0 -127 61.5 -168t168.5 -41h587v-29l-585 -20h-39t-67 7t-85 32q-90 53 -90 219zM410 1894h53l248 -272h-29z" />
<glyph unicode="&#xc9;" horiz-adv-x="1191" d="M221 252v981q0 141 72 203.5t174 62.5h12l608 -20v-29h-608q-209 0 -209 -217v-465l736 -10v-29l-736 -10v-467q0 -127 61.5 -168t168.5 -41h587v-29l-585 -20h-39t-67 7t-85 32q-90 53 -90 219zM680 1622l248 272h53l-272 -272h-29z" />
<glyph unicode="&#xca;" horiz-adv-x="1191" d="M221 252v981q0 141 72 203.5t174 62.5h12l608 -20v-29h-608q-209 0 -209 -217v-465l736 -10v-29l-736 -10v-467q0 -127 61.5 -168t168.5 -41h587v-29l-585 -20h-39t-67 7t-85 32q-90 53 -90 219zM410 1632l270 266h41l246 -266h-37l-230 236l-254 -236h-36z" />
<glyph unicode="&#xcb;" horiz-adv-x="1191" d="M221 252v981q0 141 72 203.5t174 62.5h12l608 -20v-29h-608q-209 0 -209 -217v-465l736 -10v-29l-736 -10v-467q0 -127 61.5 -168t168.5 -41h587v-29l-585 -20h-39t-67 7t-85 32q-90 53 -90 219zM367 1725.5q0 35.5 34.5 35.5t34.5 -35.5t-34.5 -35.5t-34.5 35.5z M887 1726q0 35 35.5 35t35.5 -35.5t-34 -35.5q-14 0 -25.5 11t-11.5 25z" />
<glyph unicode="&#xcc;" horiz-adv-x="409" d="M-41 1905h53l248 -273h-29zM221 0v1499h49v-1499h-49z" />
<glyph unicode="&#xcd;" horiz-adv-x="409" d="M221 0v1499h49v-1499h-49zM231 1632l248 273h53l-272 -273h-29z" />
<glyph unicode="&#xce;" horiz-adv-x="409" d="M-33 1632l271 266h41l245 -266h-37l-229 236l-254 -236h-37zM221 0v1499h49v-1499h-49z" />
<glyph unicode="&#xcf;" horiz-adv-x="409" d="M-49 1672q0 11 9 21.5t24.5 10.5t25.5 -10.5t10 -21.5t-3 -17t-7 -11.5t-11 -8.5t-14.5 -3t-14.5 3t-11 8.5t-6 11.5t-2 17zM221 0v1499h49v-1499h-49zM471 1669q0 14 10.5 24.5t25.5 10.5t24.5 -10.5t9.5 -21.5t-2 -17t-7 -13q-10 -10 -25 -10t-25.5 11.5t-10.5 25.5z " />
<glyph unicode="&#xd0;" horiz-adv-x="1374" d="M88 750v28h133v721h498q133 0 232.5 -50t154.5 -126t90 -182q53 -172 53 -351.5t-30.5 -306.5t-91 -237.5t-167 -178t-241.5 -67.5h-498v750h-133zM270 49h449q123 0 219 65.5t152 170.5q111 209 110 460q0 354 -124 529.5t-357 175.5h-449v-672h326v-28h-326v-701z" />
<glyph unicode="&#xd1;" horiz-adv-x="1361" d="M221 0v1499h51l902 -1405v1405h49v-1499h-49l-904 1405v-1405h-49zM377 1696q102 92 145 105.5t78 13.5t127 -75t126 -75t80 22.5t63.5 37t60.5 49.5l12 -15q-98 -98 -158 -117q-29 -10 -67.5 -10t-128.5 75t-113.5 75t-39 -2t-33 -9.5t-27.5 -11.5t-29.5 -17t-27 -18.5 t-32 -23t-28.5 -21.5z" />
<glyph unicode="&#xd2;" horiz-adv-x="1382" d="M180 741.5q0 204.5 24.5 347t65.5 225.5t116 127t149.5 56t183 12t175.5 -8t134.5 -34.5t109.5 -79t74 -136.5q66 -160 66 -512q0 -375 -86 -549q-39 -82 -111.5 -126t-151.5 -58t-202 -14t-198.5 12t-149.5 54t-113 123t-62.5 218.5t-23.5 342zM229 710.5 q0 -155.5 18.5 -278.5t51.5 -201.5t97.5 -119.5t139 -55.5t205.5 -14.5t216 24.5t152 97.5t93.5 212t26.5 333.5t-13.5 314.5t-44 198.5t-68.5 127t-100.5 73t-122 31.5t-139 7t-121.5 -3t-95.5 -12t-87.5 -30.5t-70.5 -55.5t-59 -88t-42 -128t-28 -175.5t-8.5 -257z M442 1905h54l247 -273h-28z" />
<glyph unicode="&#xd3;" horiz-adv-x="1382" d="M180 741.5q0 204.5 24.5 347t65.5 225.5t116 127t149.5 56t183 12t175.5 -8t134.5 -34.5t109.5 -79t74 -136.5q66 -160 66 -512q0 -375 -86 -549q-39 -82 -111.5 -126t-151.5 -58t-202 -14t-198.5 12t-149.5 54t-113 123t-62.5 218.5t-23.5 342zM229 710.5 q0 -155.5 18.5 -278.5t51.5 -201.5t97.5 -119.5t139 -55.5t205.5 -14.5t216 24.5t152 97.5t93.5 212t26.5 333.5t-13.5 314.5t-44 198.5t-68.5 127t-100.5 73t-122 31.5t-139 7t-121.5 -3t-95.5 -12t-87.5 -30.5t-70.5 -55.5t-59 -88t-42 -128t-28 -175.5t-8.5 -257z M715 1632l248 273h53l-273 -273h-28z" />
<glyph unicode="&#xd4;" horiz-adv-x="1382" d="M180 741.5q0 204.5 24.5 347t65.5 225.5t116 127t149.5 56t183 12t175.5 -8t134.5 -34.5t109.5 -79t74 -136.5q66 -160 66 -512q0 -375 -86 -549q-39 -82 -111.5 -126t-151.5 -58t-202 -14t-198.5 12t-149.5 54t-113 123t-62.5 218.5t-23.5 342zM229 710.5 q0 -155.5 18.5 -278.5t51.5 -201.5t97.5 -119.5t139 -55.5t205.5 -14.5t216 24.5t152 97.5t93.5 212t26.5 333.5t-13.5 314.5t-44 198.5t-68.5 127t-100.5 73t-122 31.5t-139 7t-121.5 -3t-95.5 -12t-87.5 -30.5t-70.5 -55.5t-59 -88t-42 -128t-28 -175.5t-8.5 -257z M451 1632l270 266h41l246 -266h-37l-230 236l-254 -236h-36z" />
<glyph unicode="&#xd5;" horiz-adv-x="1382" d="M180 741.5q0 204.5 24.5 347t65.5 225.5t116 127t149.5 56t183 12t175.5 -8t134.5 -34.5t109.5 -79t74 -136.5q66 -160 66 -512q0 -375 -86 -549q-39 -82 -111.5 -126t-151.5 -58t-202 -14t-198.5 12t-149.5 54t-113 123t-62.5 218.5t-23.5 342zM229 710.5 q0 -155.5 18.5 -278.5t51.5 -201.5t97.5 -119.5t139 -55.5t205.5 -14.5t216 24.5t152 97.5t93.5 212t26.5 333.5t-13.5 314.5t-44 198.5t-68.5 127t-100.5 73t-122 31.5t-139 7t-121.5 -3t-95.5 -12t-87.5 -30.5t-70.5 -55.5t-59 -88t-42 -128t-28 -175.5t-8.5 -257z M383 1696q86 74 133 96.5t86 22.5t132 -75t124 -75q74 0 205 109l12 -15q-41 -41 -67 -63q-74 -63 -150 -64q-45 0 -136 75t-114.5 75t-39 -2t-32 -9.5t-26.5 -11.5t-30.5 -17t-28 -18.5t-31 -23t-29.5 -21.5z" />
<glyph unicode="&#xd6;" horiz-adv-x="1382" d="M180 741.5q0 204.5 24.5 347t65.5 225.5t116 127t149.5 56t183 12t175.5 -8t134.5 -34.5t109.5 -79t74 -136.5q66 -160 66 -512q0 -375 -86 -549q-39 -82 -111.5 -126t-151.5 -58t-202 -14t-198.5 12t-149.5 54t-113 123t-62.5 218.5t-23.5 342zM229 710.5 q0 -155.5 18.5 -278.5t51.5 -201.5t97.5 -119.5t139 -55.5t205.5 -14.5t216 24.5t152 97.5t93.5 212t26.5 333.5t-13.5 314.5t-44 198.5t-68.5 127t-100.5 73t-122 31.5t-139 7t-121.5 -3t-95.5 -12t-87.5 -30.5t-70.5 -55.5t-59 -88t-42 -128t-28 -175.5t-8.5 -257z M434 1668q0 15 9.5 25.5t24.5 10.5t25.5 -10.5t10.5 -22.5t-6 -20q-8 -18 -26.5 -18.5t-28 10t-9.5 25.5zM954 1669q0 14 10.5 24.5t26 10.5t24.5 -10.5t9 -21.5t-2 -17t-6 -13q-10 -10 -25.5 -10t-26 11.5t-10.5 25.5z" />
<glyph unicode="&#xd7;" horiz-adv-x="897" d="M156 467l262 262l-262 262l34 35l263 -262l262 262l35 -35l-263 -262l263 -262l-35 -35l-262 262l-263 -262z" />
<glyph unicode="&#xd8;" horiz-adv-x="1382" d="M180 705q0 426 90 610q41 82 116 126t149.5 56t206.5 12t227.5 -22.5t158.5 -89.5l66 102h37l-82 -127q129 -166 129 -633q0 -375 -86 -549q-39 -82 -111.5 -126t-151.5 -58t-214 -14t-228.5 20.5t-156.5 83.5l-64 -96h-37l78 121q-127 158 -127 584zM229 739 q0 -428 109 -571l762 1184q-57 66 -145.5 87t-190.5 21t-144 -3t-95.5 -12t-87.5 -30.5t-70.5 -55.5t-59 -88t-41.5 -128q-37 -136 -37 -404zM358 143q58 -57 145 -79.5t228 -22.5t226 24.5t152 97.5t93.5 212t26.5 364q0 430 -109 586z" />
<glyph unicode="&#xd9;" horiz-adv-x="1398" d="M221 655v844h49v-844q0 -197 18.5 -277.5t31 -125.5t38 -78t45 -56.5t56.5 -37.5t61.5 -23.5t69.5 -11.5q76 -6 153.5 -6t127 5t108.5 24.5t96 60.5t72 107q63 125 63 419v844h50v-844q0 -209 -24 -297t-40 -138t-46 -85t-53.5 -60.5t-63.5 -41t-66.5 -24.5t-73.5 -13 q-68 -6 -208 -6t-220 30q-176 66 -223 351q-21 118 -21 284zM455 1905h53l246 -273h-29z" />
<glyph unicode="&#xda;" horiz-adv-x="1398" d="M221 655v844h49v-844q0 -197 18.5 -277.5t31 -125.5t38 -78t45 -56.5t56.5 -37.5t61.5 -23.5t69.5 -11.5q76 -6 153.5 -6t127 5t108.5 24.5t96 60.5t72 107q63 125 63 419v844h50v-844q0 -209 -24 -297t-40 -138t-46 -85t-53.5 -60.5t-63.5 -41t-66.5 -24.5t-73.5 -13 q-68 -6 -208 -6t-220 30q-176 66 -223 351q-21 118 -21 284zM725 1632l250 273h53l-274 -273h-29z" />
<glyph unicode="&#xdb;" horiz-adv-x="1398" d="M221 655v844h49v-844q0 -197 18.5 -277.5t31 -125.5t38 -78t45 -56.5t56.5 -37.5t61.5 -23.5t69.5 -11.5q76 -6 153.5 -6t127 5t108.5 24.5t96 60.5t72 107q63 125 63 419v844h50v-844q0 -209 -24 -297t-40 -138t-46 -85t-53.5 -60.5t-63.5 -41t-66.5 -24.5t-73.5 -13 q-68 -6 -208 -6t-220 30q-176 66 -223 351q-21 118 -21 284zM463 1632l270 266h41l246 -266h-37l-229 236l-254 -236h-37z" />
<glyph unicode="&#xdc;" horiz-adv-x="1398" d="M221 655v844h49v-844q0 -197 18.5 -277.5t31 -125.5t38 -78t45 -56.5t56.5 -37.5t61.5 -23.5t69.5 -11.5q76 -6 153.5 -6t127 5t108.5 24.5t96 60.5t72 107q63 125 63 419v844h50v-844q0 -209 -24 -297t-40 -138t-46 -85t-53.5 -60.5t-63.5 -41t-66.5 -24.5t-73.5 -13 q-68 -6 -208 -6t-220 30q-176 66 -223 351q-21 118 -21 284zM444 1668q0 36 35 36t35 -36t-35 -36t-35 36zM965 1669q0 35 35.5 35t35.5 -36t-35 -36q-14 0 -25 11.5t-11 25.5z" />
<glyph unicode="&#xdd;" horiz-adv-x="1267" d="M125 1499h55l467 -903l508 903h55l-538 -967v-532h-49v532zM653 1632l248 273h53l-272 -273h-29z" />
<glyph unicode="&#xde;" horiz-adv-x="1134" d="M166 0v1493h49v-289h444q360 0 361 -436q0 -328 -168 -420q-53 -29 -96 -36t-97 -7q-365 8 -444 21v-326h-49zM215 354h444q154 0 233 94.5t79 323.5q0 266 -144 342q-76 41 -168 41h-444v-801z" />
<glyph unicode="&#xdf;" horiz-adv-x="1159" d="M166 0v1159q0 188 108.5 310t317.5 122q145 0 242.5 -35.5t136.5 -93.5q49 -68 49 -139.5t-22.5 -134t-68.5 -123.5t-102 -100q-39 -31 -99 -72t-85 -59q-66 -49 -65.5 -117t54.5 -99.5t132 -41t155.5 -22.5t133 -58t55.5 -129v-97q0 -137 -87 -211.5t-237 -74.5 q-201 0 -354 30v29q195 -10 315.5 -10t179 23.5t85.5 62.5q49 72 49 151v97q2 70 -52.5 104.5t-133 43.5t-156.5 20.5t-133.5 53.5t-55.5 118.5t40 119.5t126 102.5t123 85t84 93.5q72 100 72 199.5t-72 156.5q-96 78 -291.5 78t-295 -100.5t-99.5 -282.5v-1159h-49z" />
<glyph unicode="&#xe0;" horiz-adv-x="1064" d="M111 258v125q0 129 72.5 200.5t199.5 71.5h372h124q2 68 2 102t-2 36q0 270 -279 270q-147 0 -455 -47v28q258 63 476 64q133 0 220 -78t87 -237v-793h-31l-18 131l-33 -14q-295 -129 -463 -129q-117 0 -194.5 71.5t-77.5 198.5zM160 268q0 -119 65 -174q70 -57 155 -57 t205 29.5t206 60.5l88 33v467l-496 -21q-223 -8 -223 -223v-115zM268 1503h54l247 -272h-28z" />
<glyph unicode="&#xe1;" horiz-adv-x="1064" d="M111 258v125q0 129 72.5 200.5t199.5 71.5h372h124q2 68 2 102t-2 36q0 270 -279 270q-147 0 -455 -47v28q258 63 476 64q133 0 220 -78t87 -237v-793h-31l-18 131l-33 -14q-295 -129 -463 -129q-117 0 -194.5 71.5t-77.5 198.5zM160 268q0 -119 65 -174q70 -57 155 -57 t205 29.5t206 60.5l88 33v467l-496 -21q-223 -8 -223 -223v-115zM528 1231l248 272h53l-272 -272h-29z" />
<glyph unicode="&#xe2;" horiz-adv-x="1064" d="M111 258v125q0 129 72.5 200.5t199.5 71.5h372h124q2 68 2 102t-2 36q0 270 -279 270q-147 0 -455 -47v28q258 63 476 64q133 0 220 -78t87 -237v-793h-31l-18 131l-33 -14q-295 -129 -463 -129q-117 0 -194.5 71.5t-77.5 198.5zM160 268q0 -119 65 -174q70 -57 155 -57 t205 29.5t206 60.5l88 33v467l-496 -21q-223 -8 -223 -223v-115zM272 1231l271 266h41l245 -266h-36l-230 235l-254 -235h-37z" />
<glyph unicode="&#xe3;" horiz-adv-x="1064" d="M111 258v125q0 129 72.5 200.5t199.5 71.5h372h124q2 68 2 102t-2 36q0 270 -279 270q-147 0 -455 -47v28q258 63 476 64q133 0 220 -78t87 -237v-793h-31l-18 131l-33 -14q-295 -129 -463 -129q-117 0 -194.5 71.5t-77.5 198.5zM160 268q0 -119 65 -174q70 -57 155 -57 t205 29.5t206 60.5l88 33v467l-496 -21q-223 -8 -223 -223v-115zM195 1315q86 74 133 96.5t86 22.5t132 -75t124 -75q74 0 204 109l13 -15q-41 -41 -68 -63q-74 -63 -149 -64q-45 0 -136.5 75t-115 75t-38.5 -2t-31.5 -9.5t-27 -11.5t-31 -17t-27.5 -18.5t-30.5 -22.5 t-29.5 -22z" />
<glyph unicode="&#xe4;" horiz-adv-x="1064" d="M111 258v125q0 129 72.5 200.5t199.5 71.5h372h124q2 68 2 102t-2 36q0 270 -279 270q-147 0 -455 -47v28q258 63 476 64q133 0 220 -78t87 -237v-793h-31l-18 131l-33 -14q-295 -129 -463 -129q-117 0 -194.5 71.5t-77.5 198.5zM160 268q0 -119 65 -174q70 -57 155 -57 t205 29.5t206 60.5l88 33v467l-496 -21q-223 -8 -223 -223v-115zM254 1334q0 36 35 36t35 -36t-35 -36t-35 36zM774 1335q0 35 36 35t36 -36t-35 -36q-16 0 -26.5 10.5t-10.5 26.5z" />
<glyph unicode="&#xe5;" horiz-adv-x="1064" d="M111 258v125q0 129 72.5 200.5t199.5 71.5h372h124q2 68 2 102t-2 36q0 270 -279 270q-147 0 -455 -47v28q258 63 476 64q133 0 220 -78t87 -237v-793h-31l-18 131l-33 -14q-295 -129 -463 -129q-117 0 -194.5 71.5t-77.5 198.5zM160 268q0 -119 65 -174q70 -57 155 -57 t205 29.5t206 60.5l88 33v467l-496 -21q-223 -8 -223 -223v-115zM334 1378q0 88 61.5 149.5t147.5 61.5t145.5 -61.5t59.5 -149.5t-59.5 -148.5t-145.5 -60.5t-147.5 60.5t-61.5 148.5zM362 1378.5q0 -73.5 53.5 -126t127 -52.5t125 52.5t51.5 126t-51.5 127t-125 53.5 t-127 -53.5t-53.5 -127z" />
<glyph unicode="&#xe6;" horiz-adv-x="1820" d="M111 258v59q0 129 72.5 201t199.5 72h372h124q2 100 2 150.5t-2 52.5q0 270 -279 270q-147 0 -455 -47v28q258 63 478 64q106 0 187 -53.5t108 -163.5q29 117 118.5 160t257.5 43q217 0 271 -29q84 -43 106 -102q39 -92 39 -217t-68.5 -167t-211.5 -42h-500 q-2 -57 -2 -108.5t3 -115t13 -120t45 -91t92 -49.5q166 -41 609 25v-33q-203 -57 -451 -57q-190 0 -260 57q-33 29 -45 43t-25 41l-37 -14q-315 -127 -489 -127q-117 0 -194.5 71.5t-77.5 198.5zM160 268q0 -119 65 -174q70 -57 154 -57t205 33.5t207 68.5l88 35v379 l-496 -12q-223 -6 -223 -224v-49zM930 584h500q180 0 215 67q16 33 16 96.5t-8 117t-32 88t-45.5 53t-72.5 26.5q-80 12 -207 12q-227 0 -294.5 -86t-71.5 -374z" />
<glyph unicode="&#xe7;" horiz-adv-x="1026" d="M139 545q0 172 24.5 285.5t76 170t111 77t187.5 20.5t363 -54v-28q-223 33 -353 33t-180.5 -18.5t-93.5 -72.5q-86 -100 -86 -421q0 -303 91 -408q43 -51 94 -70.5t129 -19.5q150 0 352 33l64 10v-33q-201 -57 -422 -59q-84 0 -142.5 20.5t-111 76.5t-78 171t-25.5 287z M326 -336l67 10q49 8 74 16.5t51.5 33t34.5 70.5t8 83v51h35q0 -158 -41 -218t-166 -60h-63v14z" />
<glyph unicode="&#xe8;" horiz-adv-x="1077" d="M139.5 528.5q0.5 286.5 57.5 419.5q47 109 196 137q61 10 153.5 10.5t145.5 -5t111.5 -27t89.5 -59.5q74 -92 74 -293q0 -115 -68 -157t-211 -42h-500q0 -299 88 -393q45 -47 95.5 -63.5t173.5 -16.5t401 41v-33q-207 -57 -434 -57q-219 0 -296 126t-76.5 412.5zM188 559 h500q172 0 211 68q18 33 18.5 114.5t-21.5 150.5t-73 102.5t-109.5 43t-185.5 9.5t-199.5 -34t-106.5 -136.5t-34 -317.5zM297 1483h53l248 -273h-29z" />
<glyph unicode="&#xe9;" horiz-adv-x="1077" d="M139.5 528.5q0.5 286.5 57.5 419.5q47 109 196 137q61 10 153.5 10.5t145.5 -5t111.5 -27t89.5 -59.5q74 -92 74 -293q0 -115 -68 -157t-211 -42h-500q0 -299 88 -393q45 -47 95.5 -63.5t173.5 -16.5t401 41v-33q-207 -57 -434 -57q-219 0 -296 126t-76.5 412.5zM188 559 h500q172 0 211 68q18 33 18.5 114.5t-21.5 150.5t-73 102.5t-109.5 43t-185.5 9.5t-199.5 -34t-106.5 -136.5t-34 -317.5zM557 1210l248 273h53l-272 -273h-29z" />
<glyph unicode="&#xea;" horiz-adv-x="1077" d="M139.5 528.5q0.5 286.5 57.5 419.5q47 109 196 137q61 10 153.5 10.5t145.5 -5t111.5 -27t89.5 -59.5q74 -92 74 -293q0 -115 -68 -157t-211 -42h-500q0 -299 88 -393q45 -47 95.5 -63.5t173.5 -16.5t401 41v-33q-207 -57 -434 -57q-219 0 -296 126t-76.5 412.5zM188 559 h500q172 0 211 68q18 33 18.5 114.5t-21.5 150.5t-73 102.5t-109.5 43t-185.5 9.5t-199.5 -34t-106.5 -136.5t-34 -317.5zM276 1210l271 267h41l246 -267h-37l-230 236l-254 -236h-37z" />
<glyph unicode="&#xeb;" horiz-adv-x="1077" d="M139.5 528.5q0.5 286.5 57.5 419.5q47 109 196 137q61 10 153.5 10.5t145.5 -5t111.5 -27t89.5 -59.5q74 -92 74 -293q0 -115 -68 -157t-211 -42h-500q0 -299 88 -393q45 -47 95.5 -63.5t173.5 -16.5t401 41v-33q-207 -57 -434 -57q-219 0 -296 126t-76.5 412.5zM188 559 h500q172 0 211 68q18 33 18.5 114.5t-21.5 150.5t-73 102.5t-109.5 43t-185.5 9.5t-199.5 -34t-106.5 -136.5t-34 -317.5zM272 1314q0 36 35 36t35 -36t-35 -36t-35 36zM793 1315q0 35 35.5 35t35.5 -36t-35 -36q-14 0 -25 10.5t-11 26.5z" />
<glyph unicode="&#xec;" horiz-adv-x="380" d="M-96 1493h53l248 -272h-29zM166 0v1087h49v-1087h-49z" />
<glyph unicode="&#xed;" horiz-adv-x="380" d="M166 0v1087h49v-1087h-49zM176 1221l248 272h53l-272 -272h-29z" />
<glyph unicode="&#xee;" horiz-adv-x="380" d="M-88 1221l270 266h41l246 -266h-37l-229 235l-254 -235h-37zM166 0v1087h49v-1087h-49z" />
<glyph unicode="&#xef;" horiz-adv-x="380" d="M-106 1257.5q0 16.5 10 25.5t25.5 9t24.5 -9t9 -22.5t-4 -21.5q-8 -18 -26.5 -18t-28.5 10t-10 26.5zM166 0v1087h49v-1087h-49zM414 1256.5q0 15.5 11 25.5t26.5 10t25.5 -9t10 -22.5t-6 -21.5q-8 -18 -26.5 -18t-29.5 10t-11 25.5z" />
<glyph unicode="&#xf0;" horiz-adv-x="1105" d="M111 535.5q0 279.5 82.5 415.5t281.5 136h143q117 0 192 -46t95 -89q-55 295 -209 449l-329 -131l-11 28l316 125q-160 135 -389 138v43q260 0 438 -162l262 104l12 -28l-250 -99q242 -256 242 -878q0 -291 -96 -416t-273 -125h-143q-205 0 -284.5 128t-79.5 407.5z M160 539.5q0 -150.5 20.5 -248.5t63.5 -149.5t97 -70t134 -18.5h143q188 0 259 144q61 131 61 344q0 276 -80 389q-33 45 -94.5 76.5t-145.5 31.5h-143q-74 0 -127 -20.5t-98 -72.5t-67.5 -153.5t-22.5 -252z" />
<glyph unicode="&#xf1;" d="M166 0v1087h29l20 -126q221 145 442 145q156 0 246 -102.5t90 -245.5v-758h-49v758q0 127 -78 213t-207 86t-225 -29t-219 -96v-932h-49zM233 1292q86 74 133.5 96.5t86.5 22.5t132 -74.5t124 -74.5q74 0 204 108l13 -14q-41 -41 -70 -66q-72 -61 -147 -61 q-45 0 -136.5 74.5t-115 74.5t-39 -2t-31.5 -9t-26.5 -11t-31 -17.5t-27.5 -18.5t-30.5 -22.5t-29.5 -21.5z" />
<glyph unicode="&#xf2;" horiz-adv-x="1173" d="M139 541.5q0 314.5 98.5 435.5t351.5 121t350 -134.5t97 -435.5t-97 -419.5t-356 -118.5t-351.5 118.5t-92.5 433zM188 535.5q0 -166.5 24 -266t79 -148.5t120.5 -65.5t173 -16.5t176 18.5t124.5 69.5q102 100 102 401q0 322 -110 426q-55 55 -122 75t-170.5 20 t-167 -15.5t-120.5 -65.5t-83 -158t-26 -274.5zM299 1493h53l248 -272h-29z" />
<glyph unicode="&#xf3;" horiz-adv-x="1173" d="M139 541.5q0 314.5 98.5 435.5t351.5 121t350 -134.5t97 -435.5t-97 -419.5t-356 -118.5t-351.5 118.5t-92.5 433zM188 535.5q0 -166.5 24 -266t79 -148.5t120.5 -65.5t173 -16.5t176 18.5t124.5 69.5q102 100 102 401q0 322 -110 426q-55 55 -122 75t-170.5 20 t-167 -15.5t-120.5 -65.5t-83 -158t-26 -274.5zM571 1221l248 272h53l-272 -272h-29z" />
<glyph unicode="&#xf4;" horiz-adv-x="1173" d="M139 541.5q0 314.5 98.5 435.5t351.5 121t350 -134.5t97 -435.5t-97 -419.5t-356 -118.5t-351.5 118.5t-92.5 433zM188 535.5q0 -166.5 24 -266t79 -148.5t120.5 -65.5t173 -16.5t176 18.5t124.5 69.5q102 100 102 401q0 322 -110 426q-55 55 -122 75t-170.5 20 t-167 -15.5t-120.5 -65.5t-83 -158t-26 -274.5zM307 1221l271 266h40l246 -266h-37l-229 235l-254 -235h-37z" />
<glyph unicode="&#xf5;" horiz-adv-x="1173" d="M139 541.5q0 314.5 98.5 435.5t351.5 121t350 -134.5t97 -435.5t-97 -419.5t-356 -118.5t-351.5 118.5t-92.5 433zM188 535.5q0 -166.5 24 -266t79 -148.5t120.5 -65.5t173 -16.5t176 18.5t124.5 69.5q102 100 102 401q0 322 -110 426q-55 55 -122 75t-170.5 20 t-167 -15.5t-120.5 -65.5t-83 -158t-26 -274.5zM240 1284q86 74 133 96.5t86 22.5t132 -75t124 -75q74 0 205 109l12 -14q-41 -41 -68 -66q-74 -61 -149 -61q-45 0 -136.5 74.5t-115 74.5t-38.5 -2t-31.5 -9t-27 -11.5t-31 -17.5t-27.5 -18t-30.5 -22.5t-29.5 -21.5z" />
<glyph unicode="&#xf6;" horiz-adv-x="1173" d="M139 541.5q0 314.5 98.5 435.5t351.5 121t350 -134.5t97 -435.5t-97 -419.5t-356 -118.5t-351.5 118.5t-92.5 433zM188 535.5q0 -166.5 24 -266t79 -148.5t120.5 -65.5t173 -16.5t176 18.5t124.5 69.5q102 100 102 401q0 322 -110 426q-55 55 -122 75t-170.5 20 t-167 -15.5t-120.5 -65.5t-83 -158t-26 -274.5zM291 1260.5q0 13.5 9 22.5t24.5 9t25.5 -9t10 -22.5t-5 -21.5t-13 -13t-17.5 -5t-17.5 5t-12 13t-4 21.5zM811 1254.5q0 13.5 4 21.5q10 16 29 16q37 0 37 -35q0 -23 -12.5 -29.5t-25 -6.5t-22.5 10t-10 23.5z" />
<glyph unicode="&#xf7;" horiz-adv-x="1128" d="M139 698v50h852v-50h-852zM537 326v86q0 25 24 24h23q25 0 24 -24v-86q0 -25 -24 -25h-23q-24 0 -24 25zM537 1012v88q0 25 24 24h23q25 0 24 -24v-88q0 -23 -24 -23h-23q-24 0 -24 23z" />
<glyph unicode="&#xf8;" horiz-adv-x="1173" d="M139.5 535.5q-0.5 320.5 98 441.5t331 121t334.5 -94l64 83h37l-80 -106q113 -127 112.5 -440.5t-97.5 -432t-340 -118.5t-343 92l-59 -82h-37l76 102q-96 113 -96.5 433.5zM188 528q0 -272 80 -381l606 818q-84 84 -288 84q-104 0 -168 -15.5t-121 -66.5 q-109 -97 -109 -439zM287 123q82 -84 299 -84q106 0 173.5 17.5t123.5 68.5q104 96 104 396t-94 421z" />
<glyph unicode="&#xf9;" d="M139 332v758h49v-758q0 -127 78 -213t207 -86t225.5 28.5t219.5 96.5v932h49v-1088h-29l-20 127q-221 -145 -443 -145q-156 0 -246 102.5t-90 245.5zM266 1493h53l248 -272h-28z" />
<glyph unicode="&#xfa;" d="M139 332v758h49v-758q0 -127 78 -213t207 -86t225.5 28.5t219.5 96.5v932h49v-1088h-29l-20 127q-221 -145 -443 -145q-156 0 -246 102.5t-90 245.5zM539 1221l247 272h54l-273 -272h-28z" />
<glyph unicode="&#xfb;" d="M139 332v758h49v-758q0 -127 78 -213t207 -86t225.5 28.5t219.5 96.5v932h49v-1088h-29l-20 127q-221 -145 -443 -145q-156 0 -246 102.5t-90 245.5zM274 1221l271 266h41l245 -266h-36l-230 235l-254 -235h-37z" />
<glyph unicode="&#xfc;" d="M139 332v758h49v-758q0 -127 78 -213t207 -86t225.5 28.5t219.5 96.5v932h49v-1088h-29l-20 127q-221 -145 -443 -145q-156 0 -246 102.5t-90 245.5zM258 1257.5q0 16.5 9 25.5t24.5 9t26 -9t10.5 -22.5t-6 -21.5q-8 -18 -27 -18t-28 10t-9 26.5zM778 1254.5 q0 13.5 4 21.5q10 16 29 16q37 0 37 -35q0 -23 -12.5 -29.5t-24.5 -6.5t-22.5 10t-10.5 23.5z" />
<glyph unicode="&#xfd;" horiz-adv-x="1083" d="M57 1087h54l303 -849q68 -186 207 -187l350 1036h51l-477 -1431l-94 -209h-25l178 553q-172 8 -239 225zM524 1221l250 272h53l-274 -272h-29z" />
<glyph unicode="&#xfe;" horiz-adv-x="1150" d="M193 -553v2155h49v-637q49 37 198.5 89t246.5 52t170 -47t110 -129q74 -158 73 -383q0 -313 -94 -449q-37 -51 -104.5 -84.5t-153.5 -33.5t-221 21.5t-225 57.5v-612h-49zM242 88q211 -59 442 -59q164 0 235.5 125t71.5 389t-83 389t-224 125q-27 0 -57.5 -4t-54 -7.5 t-60.5 -14.5t-54.5 -16t-60.5 -20.5t-52 -18.5t-55 -21.5t-48 -18.5v-848z" />
<glyph unicode="&#xff;" horiz-adv-x="1083" d="M57 1087h54l303 -849q68 -186 207 -187l350 1036h51l-477 -1431l-94 -209h-25l178 553q-172 8 -239 225zM244 1256.5q0 35.5 34.5 35.5t34.5 -35.5t-34.5 -35.5t-34.5 35.5zM764 1257q0 35 36 35t36 -35.5t-35 -35.5q-14 0 -25.5 10t-11.5 26z" />
<glyph unicode="&#x100;" horiz-adv-x="1349" d="M125 0l561 1499h70l536 -1499h-53l-186 518h-682l-193 -518h-53zM389 567h645l-313 883zM463 1632v31h516v-31h-516z" />
<glyph unicode="&#x101;" horiz-adv-x="1064" d="M111 258v125q0 129 72.5 200.5t199.5 71.5h372h124q2 68 2 102t-2 36q0 270 -279 270q-147 0 -455 -47v28q258 63 476 64q133 0 220 -78t87 -237v-793h-31l-18 131l-33 -14q-295 -129 -463 -129q-117 0 -194.5 71.5t-77.5 198.5zM160 268q0 -119 65 -174q70 -57 155 -57 t205 29.5t206 60.5l88 33v467l-496 -21q-223 -8 -223 -223v-115zM285 1231v31h516v-31h-516z" />
<glyph unicode="&#x102;" horiz-adv-x="1349" d="M125 0l561 1499h70l536 -1499h-53l-186 518h-682l-193 -518h-53zM389 567h645l-313 883zM502 1866h28q0 -86 59.5 -145.5t139.5 -59.5q94 0 154.5 58.5t60.5 146.5h29q0 -109 -73 -171.5t-164 -62.5t-162.5 65t-71.5 169z" />
<glyph unicode="&#x103;" horiz-adv-x="1064" d="M111 258v125q0 129 72.5 200.5t199.5 71.5h372h124q2 68 2 102t-2 36q0 270 -279 270q-147 0 -455 -47v28q258 63 476 64q133 0 220 -78t87 -237v-793h-31l-18 131l-33 -14q-295 -129 -463 -129q-117 0 -194.5 71.5t-77.5 198.5zM160 268q0 -119 65 -174q70 -57 155 -57 t205 29.5t206 60.5l88 33v467l-496 -21q-223 -8 -223 -223v-115zM317 1464h29q0 -86 60.5 -145t140.5 -59q94 0 153.5 58t59.5 146h28q0 -109 -71.5 -171t-163.5 -62t-164 64.5t-72 168.5z" />
<glyph unicode="&#x104;" horiz-adv-x="1349" d="M125 0l561 1499h70l536 -1499h-53l-186 518h-682l-193 -518h-53zM389 567h645l-313 883zM1087 -191.5q0 50.5 40 101.5t128 90h25q-66 -27 -110 -75t-44 -120q0 -23 16.5 -60.5t70 -62t122.5 -24.5h11v-29q-20 -2 -53 -2t-85.5 18.5t-83.5 61.5q-37 51 -37 101.5z" />
<glyph unicode="&#x105;" horiz-adv-x="1148" d="M150 258v125q0 129 72.5 200.5t199.5 71.5h372h124v102v36q0 270 -279 270q-147 0 -455 -47v28q258 63 475 64q133 0 220.5 -78t87.5 -237v-793h-31l-18 131l-33 -14q-295 -129 -463 -129q-117 0 -194.5 71.5t-77.5 198.5zM199 268q0 -119 67 -174q68 -57 153 -57 t204.5 29.5t207.5 60.5l87 33v467l-496 -21q-223 -8 -223 -223v-115zM772 -193.5q0 31.5 23 74.5q39 72 147 119h25q-82 -33 -119 -89t-37 -112.5t61.5 -98.5t149.5 -42h10v-29q-20 -2 -61 -2t-101.5 33t-87.5 90q-10 25 -10 56.5z" />
<glyph unicode="&#x106;" horiz-adv-x="1167" d="M152 754q0 190 19 320t73 237q104 205 405 205q174 0 438 -50v-28q-29 4 -54 6t-59 5t-74 6t-81 5q-123 6 -170 6q-160 0 -252 -57q-197 -123 -196 -659q0 -713 450 -713q190 0 375 18l61 6v-28q-242 -45 -438 -45q-497 0 -497 766zM649 1638l248 273h53l-272 -273h-29z " />
<glyph unicode="&#x107;" horiz-adv-x="1026" d="M139 545q0 172 24.5 285.5t76 170t111 77t187.5 20.5t363 -54v-28q-223 33 -353 33t-180.5 -18.5t-93.5 -72.5q-86 -100 -86 -421q0 -303 91 -408q43 -51 94 -70.5t129 -19.5q150 0 352 33l64 10v-33q-201 -57 -422 -59q-84 0 -142.5 20.5t-111 76.5t-78 171t-25.5 287z M543 1221l248 272h53l-273 -272h-28z" />
<glyph unicode="&#x108;" horiz-adv-x="1167" d="M152 754q0 190 19 320t73 237q104 205 405 205q174 0 438 -50v-28q-29 4 -54 6t-59 5t-74 6t-81 5q-123 6 -170 6q-160 0 -252 -57q-197 -123 -196 -659q0 -713 450 -713q190 0 375 18l61 6v-28q-242 -45 -438 -45q-497 0 -497 766zM406 1638l270 267h41l246 -267h-37 l-230 236l-254 -236h-36z" />
<glyph unicode="&#x109;" horiz-adv-x="1026" d="M139 545q0 172 24.5 285.5t76 170t111 77t187.5 20.5t363 -54v-28q-223 33 -353 33t-180.5 -18.5t-93.5 -72.5q-86 -100 -86 -421q0 -303 91 -408q43 -51 94 -70.5t129 -19.5q150 0 352 33l64 10v-33q-201 -57 -422 -59q-84 0 -142.5 20.5t-111 76.5t-78 171t-25.5 287z M272 1221l271 266h41l245 -266h-36l-230 235l-254 -235h-37z" />
<glyph unicode="&#x10a;" horiz-adv-x="1167" d="M152 754q0 190 19 320t73 237q104 205 405 205q174 0 438 -50v-28q-29 4 -54 6t-59 5t-74 6t-81 5q-123 6 -170 6q-160 0 -252 -57q-197 -123 -196 -659q0 -713 450 -713q190 0 375 18l61 6v-28q-242 -45 -438 -45q-497 0 -497 766zM676 1663v127q0 25 24 25h21 q25 0 24 -25v-127q0 -25 -24 -25h-21q-24 0 -24 25z" />
<glyph unicode="&#x10b;" horiz-adv-x="1026" d="M139 545q0 172 24.5 285.5t76 170t111 77t187.5 20.5t363 -54v-28q-223 33 -353 33t-180.5 -18.5t-93.5 -72.5q-86 -100 -86 -421q0 -303 91 -408q43 -51 94 -70.5t129 -19.5q150 0 352 33l64 10v-33q-201 -57 -422 -59q-84 0 -142.5 20.5t-111 76.5t-78 171t-25.5 287z M528 1245v127q0 25 25 25h25q25 0 24 -25v-127q0 -25 -24 -24h-25q-25 -1 -25 24z" />
<glyph unicode="&#x10c;" horiz-adv-x="1167" d="M152 754q0 190 19 320t73 237q104 205 405 205q174 0 438 -50v-28q-29 4 -54 6t-59 5t-74 6t-81 5q-123 6 -170 6q-160 0 -252 -57q-197 -123 -196 -659q0 -713 450 -713q190 0 375 18l61 6v-28q-242 -45 -438 -45q-497 0 -497 766zM416 1905h33l231 -236l256 236h37 l-271 -267h-45z" />
<glyph unicode="&#x10d;" horiz-adv-x="1026" d="M139 545q0 172 24.5 285.5t76 170t111 77t187.5 20.5t363 -54v-28q-223 33 -353 33t-180.5 -18.5t-93.5 -72.5q-86 -100 -86 -421q0 -303 91 -408q43 -51 94 -70.5t129 -19.5q150 0 352 33l64 10v-33q-201 -57 -422 -59q-84 0 -142.5 20.5t-111 76.5t-78 171t-25.5 287z M305 1487h33l231 -236l256 236h37l-270 -266h-45z" />
<glyph unicode="&#x10e;" horiz-adv-x="1374" d="M221 0v1499h518q133 0 232.5 -50t155 -126t90.5 -182q53 -172 53 -351.5t-31 -306.5t-91.5 -237.5t-167 -178t-241.5 -67.5h-518zM270 49h469q123 0 219.5 65.5t151.5 170.5q111 209 111 460q0 354 -124 529.5t-358 175.5h-469v-1401zM453 1888h32l232 -235l256 235h37 l-271 -266h-45z" />
<glyph unicode="&#x10f;" d="M139 539q0 565 377 565q76 0 194.5 -22.5t211.5 -59.5v586h43v-1608h-27l-20 121q-45 -41 -174.5 -87t-231.5 -46t-179 49t-116 133q-78 162 -78 369zM188.5 564q-0.5 -285 92 -406t235.5 -121q180 0 402 113v843q-236 61 -402 62q-72 0 -125 -21.5t-102 -75.5 q-100 -109 -100.5 -394zM1096 1464v138h51v-138l-12 -274h-25z" />
<glyph unicode="&#x110;" horiz-adv-x="1374" d="M88 750v28h133v721h498q133 0 232.5 -50t154.5 -126t90 -182q53 -172 53 -351.5t-30.5 -306.5t-91 -237.5t-167 -178t-241.5 -67.5h-498v750h-133zM270 49h449q123 0 219 65.5t152 170.5q111 209 110 460q0 354 -124 529.5t-357 175.5h-449v-672h326v-28h-326v-701z" />
<glyph unicode="&#x111;" d="M139 539q0 565 379 565q76 0 193.5 -22.5t210.5 -59.5v291h-271v28h271v267h45v-267h170v-28h-170v-1313h-27l-20 121q-45 -41 -174.5 -87t-231.5 -46t-179 49t-118 133q-78 160 -78 369zM188 557q0 -270 94.5 -395t235.5 -125q180 0 402 113v843q-236 61 -393.5 61.5 t-248 -113.5t-90.5 -384z" />
<glyph unicode="&#x112;" horiz-adv-x="1191" d="M221 252v981q0 141 72 203.5t174 62.5h12l608 -20v-29h-608q-209 0 -209 -217v-465l736 -10v-29l-736 -10v-467q0 -127 61.5 -168t168.5 -41h587v-29l-585 -20h-39t-67 7t-85 32q-90 53 -90 219zM426 1628v31h516v-31h-516z" />
<glyph unicode="&#x113;" horiz-adv-x="1077" d="M139.5 528.5q0.5 286.5 57.5 419.5q47 109 196 137q61 10 153.5 10.5t145.5 -5t111.5 -27t89.5 -59.5q74 -92 74 -293q0 -115 -68 -157t-211 -42h-500q0 -299 88 -393q45 -47 95.5 -63.5t173.5 -16.5t401 41v-33q-207 -57 -434 -57q-219 0 -296 126t-76.5 412.5zM188 559 h500q172 0 211 68q18 33 18.5 114.5t-21.5 150.5t-73 102.5t-109.5 43t-185.5 9.5t-199.5 -34t-106.5 -136.5t-34 -317.5zM295 1221v30h516v-30h-516z" />
<glyph unicode="&#x116;" horiz-adv-x="1191" d="M221 252v981q0 141 72 203.5t174 62.5h12l608 -20v-29h-608q-209 0 -209 -217v-465l736 -10v-29l-736 -10v-467q0 -127 61.5 -168t168.5 -41h587v-29l-585 -20h-39t-67 7t-85 32q-90 53 -90 219zM649 1657v127q0 25 25 24h22q25 0 25 -24v-127q0 -25 -25 -25h-22 q-25 0 -25 25z" />
<glyph unicode="&#x117;" horiz-adv-x="1077" d="M139.5 528.5q0.5 286.5 57.5 419.5q47 109 196 137q61 10 153.5 10.5t145.5 -5t111.5 -27t89.5 -59.5q74 -92 74 -293q0 -115 -68 -157t-211 -42h-500q0 -299 88 -393q45 -47 95.5 -63.5t173.5 -16.5t401 41v-33q-207 -57 -434 -57q-219 0 -296 126t-76.5 412.5zM188 559 h500q172 0 211 68q18 33 18.5 114.5t-21.5 150.5t-73 102.5t-109.5 43t-185.5 9.5t-199.5 -34t-106.5 -136.5t-34 -317.5zM557 1245v127q0 25 25 25h24q25 0 25 -25v-127q0 -25 -25 -24h-24q-25 -1 -25 24z" />
<glyph unicode="&#x118;" horiz-adv-x="1191" d="M221 252v981q0 141 72 203.5t174 62.5h12l608 -20v-29h-608q-209 0 -209 -217v-465l736 -10v-29l-736 -10v-467q0 -127 61.5 -168t168.5 -41h587v-29l-585 -20h-39t-67 7t-85 32q-90 53 -90 219zM895 -175q0 50 40 101t128 90h24q-66 -27 -109.5 -74.5t-43.5 -121.5 q0 -23 16.5 -59.5t69.5 -61.5t123 -25h10v-28q-20 -4 -53 -4t-85 19.5t-83 62.5q-37 51 -37 101z" />
<glyph unicode="&#x119;" horiz-adv-x="1077" d="M139.5 528.5q0.5 286.5 57.5 419.5q47 109 196 137q61 10 153.5 10.5t145.5 -5t111.5 -27t89.5 -59.5q74 -92 74 -293q0 -115 -68 -157t-211 -42h-500q0 -299 88 -393q45 -47 95.5 -63.5t173.5 -16.5t401 41v-33q-207 -57 -434 -57q-219 0 -296 126t-76.5 412.5zM188 559 h500q172 0 211 68q18 33 18.5 114.5t-21.5 150.5t-73 102.5t-109.5 43t-185.5 9.5t-199.5 -34t-106.5 -136.5t-34 -317.5zM752 -146.5q0 31.5 22 74.5q39 72 148 119h24q-82 -33 -118.5 -89t-36.5 -112.5t61 -98.5t149 -42h11v-29q-20 -2 -61.5 -2t-102 33t-86.5 92 q-10 23 -10 54.5z" />
<glyph unicode="&#x11a;" horiz-adv-x="1191" d="M221 252v981q0 141 72 203.5t174 62.5h12l608 -20v-29h-608q-209 0 -209 -217v-465l736 -10v-29l-736 -10v-467q0 -127 61.5 -168t168.5 -41h587v-29l-585 -20h-39t-67 7t-85 32q-90 53 -90 219zM420 1888h33l231 -235l256 235h37l-270 -266h-45z" />
<glyph unicode="&#x11b;" horiz-adv-x="1077" d="M139.5 528.5q0.5 286.5 57.5 419.5q47 109 196 137q61 10 153.5 10.5t145.5 -5t111.5 -27t89.5 -59.5q74 -92 74 -293q0 -115 -68 -157t-211 -42h-500q0 -299 88 -393q45 -47 95.5 -63.5t173.5 -16.5t401 41v-33q-207 -57 -434 -57q-219 0 -296 126t-76.5 412.5zM188 559 h500q172 0 211 68q18 33 18.5 114.5t-21.5 150.5t-73 102.5t-109.5 43t-185.5 9.5t-199.5 -34t-106.5 -136.5t-34 -317.5zM313 1487h33l232 -236l256 236h36l-270 -266h-45z" />
<glyph unicode="&#x11c;" horiz-adv-x="1269" d="M152 745.5q0 110.5 3 184.5t14 156.5t29.5 142t52.5 117t81 92.5q102 78 290.5 78t485.5 -56v-39l-88 13q-268 33 -395 32.5t-199 -33t-115 -89t-69 -148.5q-41 -154 -41 -442q0 -393 85 -554t322 -161q141 0 400 76l86 26v604h-439v29q82 23 248 23t240 -6v-791h-29 l-16 111q-66 -35 -216.5 -78t-263 -43t-190.5 24.5t-127 80t-80 117.5t-45 158.5t-19 180.5t-5 194.5zM391 1638l271 267h40l246 -267h-37l-229 236l-254 -236h-37z" />
<glyph unicode="&#x11d;" horiz-adv-x="1171" d="M125 -45l25 215q-19 25 -19 76t45 94t129 45q-178 72 -178 320q0 203 83 295t269 92h639v-29l-227 -21q125 -90 125 -337q0 -115 -60 -222q-33 -57 -104.5 -93t-173.5 -36h-320q-39 0 -88 -14q-94 -27 -94 -102q0 -55 54.5 -85t109.5 -30h422q141 0 219 -74t78 -199v-108 q0 -295 -307 -295h-308q-147 0 -233 83t-86 232v193zM176 135v-373q0 -80 30 -137t77 -84q82 -45 161 -45h308q258 0 258 246v108q0 100 -58.5 163t-189.5 63h-418q-49 0 -91 15t-60 30zM176 705q0 -299 289 -299h209q154 0 223.5 84.5t69.5 231t-60.5 233.5t-144.5 87h-303 q-160 0 -221.5 -86.5t-61.5 -250.5zM301 1223l270 266h41l246 -266h-37l-229 235l-254 -235h-37z" />
<glyph unicode="&#x11e;" horiz-adv-x="1269" d="M152 745.5q0 110.5 3 184.5t14 156.5t29.5 142t52.5 117t81 92.5q102 78 290.5 78t485.5 -56v-39l-88 13q-268 33 -395 32.5t-199 -33t-115 -89t-69 -148.5q-41 -154 -41 -442q0 -393 85 -554t322 -161q141 0 400 76l86 26v604h-439v29q82 23 248 23t240 -6v-791h-29 l-16 111q-66 -35 -216.5 -78t-263 -43t-190.5 24.5t-127 80t-80 117.5t-45 158.5t-19 180.5t-5 194.5zM465 1872h29q0 -86 59 -145.5t139 -59.5q94 0 154.5 58.5t60.5 146.5h29q0 -109 -72.5 -171.5t-164 -62.5t-163 65t-71.5 169z" />
<glyph unicode="&#x11f;" horiz-adv-x="1171" d="M125 -45l25 215q-19 25 -19 76t45 94t129 45q-178 72 -178 320q0 203 83 295t269 92h639v-29l-227 -21q125 -90 125 -337q0 -115 -60 -222q-33 -57 -104.5 -93t-173.5 -36h-320q-39 0 -88 -14q-94 -27 -94 -102q0 -55 54.5 -85t109.5 -30h422q141 0 219 -74t78 -199v-108 q0 -295 -307 -295h-308q-147 0 -233 83t-86 232v193zM176 135v-373q0 -80 30 -137t77 -84q82 -45 161 -45h308q258 0 258 246v108q0 100 -58.5 163t-189.5 63h-418q-49 0 -91 15t-60 30zM176 705q0 -299 289 -299h209q154 0 223.5 84.5t69.5 231t-60.5 233.5t-144.5 87h-303 q-160 0 -221.5 -86.5t-61.5 -250.5zM336 1454h29q0 -86 59 -145.5t139 -59.5q94 0 154.5 58.5t60.5 146.5h29q0 -109 -72.5 -171t-164 -62t-163 64.5t-71.5 168.5z" />
<glyph unicode="&#x120;" horiz-adv-x="1269" d="M152 745.5q0 110.5 3 184.5t14 156.5t29.5 142t52.5 117t81 92.5q102 78 290.5 78t485.5 -56v-39l-88 13q-268 33 -395 32.5t-199 -33t-115 -89t-69 -148.5q-41 -154 -41 -442q0 -393 85 -554t322 -161q141 0 400 76l86 26v604h-439v29q82 23 248 23t240 -6v-791h-29 l-16 111q-66 -35 -216.5 -78t-263 -43t-190.5 24.5t-127 80t-80 117.5t-45 158.5t-19 180.5t-5 194.5zM664 1663v127q0 25 24 25h25q25 0 24 -25v-127q0 -25 -24 -25h-25q-24 0 -24 25z" />
<glyph unicode="&#x121;" horiz-adv-x="1171" d="M125 -45l25 215q-19 25 -19 76t45 94t129 45q-178 72 -178 320q0 203 83 295t269 92h639v-29l-227 -21q125 -90 125 -337q0 -115 -60 -222q-33 -57 -104.5 -93t-173.5 -36h-320q-39 0 -88 -14q-94 -27 -94 -102q0 -55 54.5 -85t109.5 -30h422q141 0 219 -74t78 -199v-108 q0 -295 -307 -295h-308q-147 0 -233 83t-86 232v193zM176 135v-373q0 -80 30 -137t77 -84q82 -45 161 -45h308q258 0 258 246v108q0 100 -58.5 163t-189.5 63h-418q-49 0 -91 15t-60 30zM176 705q0 -299 289 -299h209q154 0 223.5 84.5t69.5 231t-60.5 233.5t-144.5 87h-303 q-160 0 -221.5 -86.5t-61.5 -250.5zM553 1245v127q0 25 25 25h24q25 0 25 -25v-127q0 -25 -25 -24h-24q-25 -1 -25 24z" />
<glyph unicode="&#x122;" horiz-adv-x="1269" d="M152 745.5q0 110.5 3 184.5t14 156.5t29.5 142t52.5 117t81 92.5q102 78 290.5 78t485.5 -56v-39l-88 13q-268 33 -395 32.5t-199 -33t-115 -89t-69 -148.5q-41 -154 -41 -442q0 -393 85 -554t322 -161q141 0 400 76l86 26v604h-439v29q82 23 248 23t240 -6v-791h-29 l-16 111q-66 -35 -216.5 -78t-263 -43t-190.5 24.5t-127 80t-80 117.5t-45 158.5t-19 180.5t-5 194.5zM645 -147q0 23 23 22h18q23 0 23 -22v-207q0 -33 -14.5 -46.5t-22.5 -13.5t-23 2v11q29 0 29 28v86h-10q-23 0 -23 25v115z" />
<glyph unicode="&#x123;" horiz-adv-x="1171" d="M125 -45l25 211q-23 23 -23 80t46 98t132 41q-178 72 -178 320q0 203 83 295t269 92h639v-29l-227 -21q125 -90 125 -337q0 -250 -193 -326q-61 -25 -145 -25h-320q-115 0 -157 -49q-23 -25 -23 -61.5t39 -65.5q57 -43 141 -55l404 -51q129 -16 213 -73.5t84 -168.5v-68 q0 -158 -82 -239q-76 -76 -225 -76h-308q-147 0 -233 83t-86 232v193zM176 137v-375q0 -176 139 -237q61 -29 129 -29h308q117 0 187.5 64.5t70.5 201.5v58q0 88 -60.5 135t-181.5 63l-422 58q-98 12 -151 49zM176 705q0 -299 289 -299h209q221 0 278 188q14 51 15 111 q0 164 -60.5 250.5t-144.5 86.5h-303q-160 0 -221.5 -86.5t-61.5 -250.5zM557 1235v207q0 33 14.5 46t22.5 13t22 -2v-10q-31 0 -30 -29v-86h12q23 0 23 -24v-115q0 -23 -23 -23h-18q-23 0 -23 23z" />
<glyph unicode="&#x124;" horiz-adv-x="1359" d="M221 0v1499h49v-749h901v749h50v-1499h-50v700h-901v-700h-49zM442 1632l271 266h41l245 -266h-36l-230 236l-254 -236h-37z" />
<glyph unicode="&#x125;" d="M-55 1729l270 266h41l246 -266h-37l-229 235l-254 -235h-37zM207 0v1606h49v-645q221 145 442 145q156 0 246 -102.5t90 -245.5v-758h-49v758q0 133 -77 216t-207 83t-226 -29t-219 -96v-932h-49z" />
<glyph unicode="&#x126;" horiz-adv-x="1359" d="M88 1100v30h133v369h49v-369h901v369h50v-369h133v-30h-133v-1100h-50v700h-901v-700h-49v1100h-133zM270 750h901v350h-901v-350z" />
<glyph unicode="&#x127;" d="M23 1292v29h143v285h49v-285h295v-29h-295v-331q221 145 442 145q156 0 246 -102.5t90 -245.5v-758h-49v758q0 133 -76.5 216t-207 83t-226.5 -29t-219 -96v-932h-49v1292h-143z" />
<glyph unicode="&#x128;" horiz-adv-x="409" d="M-100 1696q86 74 133 96.5t86 22.5t132 -75t124 -75q74 0 205 109l12 -15q-41 -41 -68 -63q-74 -63 -149 -64q-45 0 -136.5 75t-115 75t-38.5 -2t-31.5 -9.5t-27 -11.5t-31 -17t-27.5 -18.5t-30.5 -23t-29.5 -21.5zM221 0v1499h49v-1499h-49z" />
<glyph unicode="&#x129;" horiz-adv-x="380" d="M-156 1284q86 74 133.5 96.5t86 22.5t132 -75t123.5 -75q74 0 205 109l13 -14q-41 -41 -70 -66q-72 -61 -148 -61q-45 0 -136 74.5t-114.5 74.5t-39 -2t-31.5 -9t-26.5 -11.5t-31 -17.5t-27.5 -18t-30.5 -22.5t-29.5 -21.5zM166 0v1087h49v-1087h-49z" />
<glyph unicode="&#x12a;" horiz-adv-x="409" d="M-12 1632v31h516v-31h-516zM221 0v1499h49v-1499h-49z" />
<glyph unicode="&#x12b;" horiz-adv-x="380" d="M-68 1221v30h517v-30h-517zM166 0v1087h49v-1087h-49z" />
<glyph unicode="&#x12e;" horiz-adv-x="409" d="M67.5 -191.5q0.5 50.5 40 101.5t128.5 90h24q-82 -33 -119 -88t-37 -112.5t61.5 -99.5t149.5 -42h11v-29q-20 -2 -53 -2t-85.5 18.5t-83.5 61.5q-37 51 -36.5 101.5zM221 0v1499h49v-1499h-49z" />
<glyph unicode="&#x12f;" horiz-adv-x="348" d="M33 -193.5q0 31.5 24 74.5q37 72 146 119h24q-82 -33 -118.5 -89t-36.5 -112.5t61.5 -98.5t149.5 -42h10v-29q-20 -2 -61.5 -2t-101.5 33t-85 90q-12 25 -12 56.5zM178 1274v127q0 25 25 24h22q23 0 23 -24v-127q0 -25 -23 -25h-22q-25 0 -25 25zM186 0v1087h50v-1087 h-50z" />
<glyph unicode="&#x130;" horiz-adv-x="409" d="M209 1657v127q0 25 24 24h25q25 0 25 -24v-127q0 -25 -25 -25h-25q-24 0 -24 25zM221 0v1499h49v-1499h-49z" />
<glyph unicode="&#x131;" horiz-adv-x="380" d="M166 0v1087h49v-1087h-49z" />
<glyph unicode="&#x134;" horiz-adv-x="714" d="M96 43l8 29q115 -33 160 -33t86 3t81 31.5t67.5 95.5t27.5 169v1161h49v-1161q0 -223 -106 -301q-63 -47 -170 -47q-119 0 -203 53zM272 1632l271 266h41l245 -266h-36l-230 236l-254 -236h-37z" />
<glyph unicode="&#x135;" horiz-adv-x="348" d="M-123 1221l270 266h43l244 -266h-35l-231 237l-254 -237h-37zM143 -553v1640h50v-1095v-212t-23 -333h-27z" />
<glyph unicode="&#x136;" horiz-adv-x="1214" d="M221 0v1499h49v-723h312l493 723h60l-508 -747l508 -752h-62l-493 727h-308v-727h-51zM625 -139q0 23 22 22h19q23 0 22 -22v-207q0 -33 -14.5 -46.5t-22.5 -13.5t-22 3v10q29 0 28 28v86h-10q-23 0 -22 25v115z" />
<glyph unicode="&#x137;" horiz-adv-x="1019" d="M166 0v1602h49v-953h123l549 438h78l-578 -464l576 -623h-72l-553 600h-123v-600h-49zM535 -139q0 25 22 24h18q23 0 23 -24v-205q0 -33 -14.5 -46t-22.5 -13t-22 2v10q29 0 28 29v86h-10q-23 0 -22 24v113z" />
<glyph unicode="&#x138;" horiz-adv-x="968" d="M166 0v1087h49v-516h236l403 516h59l-419 -540l391 -547h-62l-372 522h-236v-522h-49z" />
<glyph unicode="&#x139;" horiz-adv-x="1144" d="M221 258v1241h49v-1241q0 -127 62.5 -168t167.5 -41h565v-49h-565q-117 0 -189 41q-90 51 -90 217zM240 1622l247 272h54l-273 -272h-28z" />
<glyph unicode="&#x13a;" horiz-adv-x="610" d="M166 387v1217h49v-1217q0 -252 96 -309q33 -18 47.5 -21.5t98.5 -16.5t98 -13v-27h-137q-129 0 -190.5 93t-61.5 294zM176 1726l248 273h53l-272 -273h-29z" />
<glyph unicode="&#x13b;" horiz-adv-x="1144" d="M221 258v1241h49v-1241q0 -127 62.5 -168t167.5 -41h565v-49h-565q-117 0 -189 41q-90 51 -90 217zM625 -139q0 25 22 24h19q23 0 22 -24v-205q0 -33 -14.5 -46t-22.5 -13t-22 2v10q29 0 28 29v86h-10q-23 0 -22 24v113z" />
<glyph unicode="&#x13c;" horiz-adv-x="610" d="M166 387v1217h49v-1217q0 -252 96 -309q33 -18 47.5 -21.5t98.5 -16.5t98 -13v-27h-137q-129 0 -190.5 93t-61.5 294zM252 -139q0 25 22 24h19q23 0 22 -24v-205q0 -33 -14 -46t-22.5 -13t-22.5 2v10q29 0 29 29v86h-11q-23 0 -22 24v113z" />
<glyph unicode="&#x13d;" horiz-adv-x="1144" d="M221 258v1241h49v-1241q0 -127 62.5 -168t167.5 -41h565v-49h-565q-117 0 -189 41q-90 51 -90 217zM444 1444v137h52v-137l-13 -275h-24z" />
<glyph unicode="&#x13e;" horiz-adv-x="610" d="M166 387v1217h49v-1217q0 -190 46 -257t163 -85t131 -18v-27h-147q-123 0 -182.5 89t-59.5 298zM420 1464v138h51v-138l-12 -274h-25z" />
<glyph unicode="&#x141;" horiz-adv-x="1144" d="M53 737v43l168 74v645h49v-625l246 107v-41l-246 -106v-576q0 -127 62.5 -168t167.5 -41h565v-49h-565q-117 0 -189 41q-90 51 -90 217v553z" />
<glyph unicode="&#x142;" horiz-adv-x="610" d="M23 817v43l143 74v670h49v-643l272 141l-2 -41l-270 -143v-531q0 -190 46 -257t163 -85t131 -18v-27h-147q-123 0 -182.5 89t-59.5 298v506z" />
<glyph unicode="&#x143;" horiz-adv-x="1361" d="M221 0v1499h51l902 -1405v1405h49v-1499h-49l-904 1405v-1405h-49zM721 1632l250 273h53l-274 -273h-29z" />
<glyph unicode="&#x144;" d="M166 0v1087h29l20 -126q221 145 442 145q156 0 246 -102.5t90 -245.5v-758h-49v758q0 127 -78 213t-207 86t-225 -29t-219 -96v-932h-49zM565 1229l248 272h53l-272 -272h-29z" />
<glyph unicode="&#x145;" horiz-adv-x="1361" d="M221 0v1499h51l902 -1405v1405h49v-1499h-49l-904 1405v-1405h-49zM692 -147q0 23 23 22h18q23 0 23 -22v-207q0 -33 -14.5 -46.5t-22.5 -13.5t-23 2v11q29 0 29 28v86h-10q-23 0 -23 25v115z" />
<glyph unicode="&#x146;" d="M166 0v1087h29l20 -126q221 145 442 145q156 0 246 -102.5t90 -245.5v-758h-49v758q0 127 -78 213t-207 86t-225 -29t-219 -96v-932h-49zM549 -139q0 25 22 24h19q23 0 22 -24v-205q0 -33 -14 -46t-22.5 -13t-22.5 2v10q29 0 29 29v86h-11q-23 0 -22 24v113z" />
<glyph unicode="&#x147;" horiz-adv-x="1361" d="M221 0v1499h51l902 -1405v1405h49v-1499h-49l-904 1405v-1405h-49zM442 1898h33l234 -235l254 235h36l-270 -266h-45z" />
<glyph unicode="&#x148;" d="M166 0v1087h29l20 -126q221 145 442 145q156 0 246 -102.5t90 -245.5v-758h-49v758q0 127 -78 213t-207 86t-225 -29t-219 -96v-932h-49zM301 1495h33l231 -235l256 235h37l-270 -266h-45z" />
<glyph unicode="&#x14a;" horiz-adv-x="1361" d="M221 0v1499h51l902 -1401v1401h49v-1671q0 -117 -17.5 -186.5t-61.5 -107.5t-101.5 -49t-155.5 -11v37q14 2 56 6t69.5 9t65.5 23.5t55 49.5q41 78 41 227v174l-902 1401v-1401h-51z" />
<glyph unicode="&#x14b;" horiz-adv-x="1159" d="M166 0v1087h24l25 -126q82 47 133 71q150 74 298.5 74t247.5 -103.5t99 -244.5v-942q0 -283 -311 -318l-25 31q131 23 208 89.5t79 199.5v940q0 115 -87 207t-212 92t-219 -34t-211 -97v-926h-49z" />
<glyph unicode="&#x14c;" horiz-adv-x="1382" d="M180 741.5q0 204.5 24.5 347t65.5 225.5t116 127t149.5 56t183 12t175.5 -8t134.5 -34.5t109.5 -79t74 -136.5q66 -160 66 -512q0 -375 -86 -549q-39 -82 -111.5 -126t-151.5 -58t-202 -14t-198.5 12t-149.5 54t-113 123t-62.5 218.5t-23.5 342zM229 710.5 q0 -155.5 18.5 -278.5t51.5 -201.5t97.5 -119.5t139 -55.5t205.5 -14.5t216 24.5t152 97.5t93.5 212t26.5 333.5t-13.5 314.5t-44 198.5t-68.5 127t-100.5 73t-122 31.5t-139 7t-121.5 -3t-95.5 -12t-87.5 -30.5t-70.5 -55.5t-59 -88t-42 -128t-28 -175.5t-8.5 -257z M471 1632v31h516v-31h-516z" />
<glyph unicode="&#x14d;" horiz-adv-x="1173" d="M139 541.5q0 314.5 98.5 435.5t351.5 121t350 -134.5t97 -435.5t-97 -419.5t-356 -118.5t-351.5 118.5t-92.5 433zM188 535.5q0 -166.5 24 -266t79 -148.5t120.5 -65.5t173 -16.5t176 18.5t124.5 69.5q102 100 102 401q0 322 -110 426q-55 55 -122 75t-170.5 20 t-167 -15.5t-120.5 -65.5t-83 -158t-26 -274.5zM328 1221v30h516v-30h-516z" />
<glyph unicode="&#x150;" horiz-adv-x="1382" d="M180 741.5q0 204.5 24.5 347t65.5 225.5t116 127t149.5 56t183 12t175.5 -8t134.5 -34.5t109.5 -79t74 -136.5q66 -160 66 -512q0 -375 -86 -549q-39 -82 -111.5 -126t-151.5 -58t-202 -14t-198.5 12t-149.5 54t-113 123t-62.5 218.5t-23.5 342zM229 710.5 q0 -155.5 18.5 -278.5t51.5 -201.5t97.5 -119.5t139 -55.5t205.5 -14.5t216 24.5t152 97.5t93.5 212t26.5 333.5t-13.5 314.5t-44 198.5t-68.5 127t-100.5 73t-122 31.5t-139 7t-121.5 -3t-95.5 -12t-87.5 -30.5t-70.5 -55.5t-59 -88t-42 -128t-28 -175.5t-8.5 -257z M573 1632l246 273h53l-270 -273h-29zM856 1632l250 273h53l-274 -273h-29z" />
<glyph unicode="&#x151;" horiz-adv-x="1173" d="M139 541.5q0 314.5 98.5 435.5t351.5 121t350 -134.5t97 -435.5t-97 -419.5t-356 -118.5t-351.5 118.5t-92.5 433zM188 535.5q0 -166.5 24 -266t79 -148.5t120.5 -65.5t173 -16.5t176 18.5t124.5 69.5q102 100 102 401q0 322 -110 426q-55 55 -122 75t-170.5 20 t-167 -15.5t-120.5 -65.5t-83 -158t-26 -274.5zM430 1221l246 272h53l-270 -272h-29zM713 1221l250 272h53l-275 -272h-28z" />
<glyph unicode="&#x152;" horiz-adv-x="2158" d="M180 741.5q0 204.5 24.5 347t65.5 225.5t116 127t149.5 56t186.5 12t180.5 -9t135.5 -38q133 -59 189 -248q0 150 69.5 217.5t176.5 67.5h12l547 -20v-29h-547q-209 0 -209 -217q0 -313 2 -465l672 -10v-29l-672 -10l-2 -467q0 -127 61.5 -168t167.5 -41h527v-29 l-527 -20h-24q-113 0 -183.5 57.5t-70.5 227.5q-55 -172 -170 -229.5t-328 -57.5q-125 0 -200.5 12t-149.5 54t-113 123t-62.5 218.5t-23.5 342zM229 710.5q0 -155.5 18.5 -278.5t51.5 -201.5t97.5 -119.5t139 -55.5t193.5 -14.5q203 0 305.5 56.5t147.5 208t45 395 t-20.5 369.5t-55.5 204t-100.5 119t-137 54t-161.5 13t-132 -3t-95.5 -12t-87.5 -30.5t-70.5 -55.5t-59 -88t-42 -128t-28 -175.5t-8.5 -257z" />
<glyph unicode="&#x153;" horiz-adv-x="1925" d="M139 541.5q0 314.5 98.5 435.5t348.5 121q182 0 282.5 -67.5t137.5 -209.5q31 168 118.5 221.5t276.5 53.5q86 0 139 -5.5t111.5 -27t89.5 -59.5q74 -92 74 -293q0 -115 -68 -157t-211 -42h-500q0 -299 88 -393q45 -47 95.5 -63.5t173.5 -16.5t401 41v-33 q-207 -57 -434 -57q-162 0 -241 63.5t-109 204.5q-37 -145 -135.5 -206.5t-288.5 -61.5q-262 0 -354.5 118.5t-92.5 433zM188 535.5q0 -166.5 24 -266t79 -148.5t120.5 -65.5t173 -16.5t176 18.5t124.5 69.5q102 100 102 401q0 322 -110 426q-55 55 -122 75t-170.5 20 t-167 -15.5t-120.5 -65.5t-83 -158t-26 -274.5zM1036 559h500q172 0 211 68q18 33 18 114.5t-21.5 150.5t-72.5 102.5t-109.5 43t-185.5 9.5t-199.5 -34t-106.5 -136.5t-34 -317.5z" />
<glyph unicode="&#x154;" horiz-adv-x="1175" d="M166 0v1499h565q72 0 126 -13t114 -52q121 -82 121 -344q0 -272 -109 -359q-53 -41 -101 -54t-116 -15l330 -662h-52l-331 662q-479 8 -498 20v-682h-49zM215 711h516q70 0 119 13t96 50q94 80 94 316q0 256 -133 323q-72 35 -176 35h-516v-737zM575 1622l248 272h54 l-273 -272h-29z" />
<glyph unicode="&#x155;" horiz-adv-x="868" d="M166 0v1087h24l25 -137q84 47 134 73t138 51.5t183.5 25.5t142.5 -17v-47q-70 14 -133.5 14.5t-106.5 -6t-70.5 -12.5t-75.5 -25.5t-64.5 -26.5t-75 -36t-72.5 -35v-909h-49zM475 1223l248 272h53l-272 -272h-29z" />
<glyph unicode="&#x156;" horiz-adv-x="1175" d="M166 0v1499h565q72 0 126 -13t114 -52q121 -82 121 -344q0 -272 -109 -359q-53 -41 -101 -54t-116 -15l330 -662h-52l-331 662q-479 8 -498 20v-682h-49zM215 711h516q70 0 119 13t96 50q94 80 94 316q0 256 -133 323q-72 35 -176 35h-516v-737zM563 -139q0 25 23 24h18 q23 0 23 -24v-205q0 -33 -14.5 -46t-22.5 -13t-23 2v10q29 0 29 29v86h-10q-23 0 -23 24v113z" />
<glyph unicode="&#x157;" horiz-adv-x="868" d="M150 -139q0 25 22 24h18q23 0 23 -24v-205q0 -33 -14.5 -46t-22.5 -13t-22 2v10q29 0 28 29v86h-10q-23 0 -22 24v113zM158 0v1087h24l25 -137q84 47 134 73t138 51.5t183.5 25.5t142.5 -17v-47q-70 14 -133.5 14.5t-106.5 -6t-70.5 -12.5t-75.5 -25.5t-64.5 -26.5 t-75 -36t-72.5 -35v-909h-49z" />
<glyph unicode="&#x158;" horiz-adv-x="1175" d="M166 0v1499h565q72 0 126 -13t114 -52q121 -82 121 -344q0 -272 -109 -359q-53 -41 -101 -54t-116 -15l330 -662h-52l-331 662q-479 8 -498 20v-682h-49zM215 711h516q70 0 119 13t96 50q94 80 94 316q0 256 -133 323q-72 35 -176 35h-516v-737zM332 1888h33l231 -235 l256 235h37l-271 -266h-45z" />
<glyph unicode="&#x159;" horiz-adv-x="868" d="M166 0v1087h24l25 -137q84 47 134 73t138 51.5t183.5 25.5t142.5 -17v-47q-70 14 -133.5 14.5t-106.5 -6t-70.5 -12.5t-75.5 -25.5t-64.5 -26.5t-75 -36t-72.5 -35v-909h-49zM211 1489h33l231 -236l256 236h37l-270 -266h-45z" />
<glyph unicode="&#x15a;" horiz-adv-x="1200" d="M180 1012v135q0 207 101.5 285.5t306.5 78.5t442 -38v-27l-455 16h-26q-150 0 -235 -68.5t-85 -246.5v-135q0 -150 73 -201t228 -51h234q188 0 260 -79t72 -222v-140q0 -209 -125 -278q-102 -57 -273 -57q-86 0 -250.5 9t-230.5 21v31q135 -12 481 -12q162 0 255.5 61.5 t93.5 224.5v140q0 133 -66 192.5t-217 59.5h-229q-225 0 -297 92q-35 45 -46.5 92t-11.5 117zM621 1634l247 273h54l-273 -273h-28z" />
<glyph unicode="&#x15b;" horiz-adv-x="1032" d="M111 743v95q0 131 64.5 195.5t217.5 64.5q281 0 473 -19v-28h-473q-127 0 -180 -50.5t-53 -162.5v-95q0 -92 37 -139q31 -39 196 -39h262q121 0 194 -60.5t73 -172.5v-101q0 -160 -86 -204q-70 -37 -181 -37q-305 0 -499 20v29h499q162 0 199 84q18 41 18 108v101 q0 80 -56 132t-161 52h-262q-160 0 -221 40t-61 187zM518 1231l248 272h53l-272 -272h-29z" />
<glyph unicode="&#x15c;" horiz-adv-x="1200" d="M180 1012v135q0 207 101.5 285.5t306.5 78.5t442 -38v-27l-455 16h-26q-150 0 -235 -68.5t-85 -246.5v-135q0 -150 73 -201t228 -51h234q188 0 260 -79t72 -222v-140q0 -209 -125 -278q-102 -57 -273 -57q-86 0 -250.5 9t-230.5 21v31q135 -12 481 -12q162 0 255.5 61.5 t93.5 224.5v140q0 133 -66 192.5t-217 59.5h-229q-225 0 -297 92q-35 45 -46.5 92t-11.5 117zM348 1634l270 267h41l246 -267h-37l-229 236l-254 -236h-37z" />
<glyph unicode="&#x15d;" horiz-adv-x="1032" d="M111 743v95q0 131 64.5 195.5t217.5 64.5q281 0 473 -19v-28h-473q-127 0 -180 -50.5t-53 -162.5v-95q0 -92 37 -139q31 -39 196 -39h262q121 0 194 -60.5t73 -172.5v-101q0 -160 -86 -204q-70 -37 -181 -37q-305 0 -499 20v29h499q162 0 199 84q18 41 18 108v101 q0 80 -56 132t-161 52h-262q-160 0 -221 40t-61 187zM231 1221l271 266h41l245 -266h-36l-230 235l-254 -235h-37z" />
<glyph unicode="&#x15e;" horiz-adv-x="1200" d="M180 1012v135q0 207 101.5 285.5t306.5 78.5t442 -38v-27l-455 16h-26q-150 0 -235 -68.5t-85 -246.5v-135q0 -150 73 -201t228 -51h234q188 0 260 -79t72 -222v-140q0 -209 -125 -278q-102 -57 -273 -57q-86 0 -250.5 9t-230.5 21v31q135 -12 481 -12q162 0 255.5 61.5 t93.5 224.5v140q0 133 -66 192.5t-217 59.5h-229q-225 0 -297 92q-35 45 -46.5 92t-11.5 117zM426 -356l66 10q49 8 73.5 16t51 33t34.5 71t8 83v51h35q0 -158 -41 -218.5t-166 -60.5h-61v15z" />
<glyph unicode="&#x15f;" horiz-adv-x="1032" d="M111 743v95q0 131 64.5 195.5t217.5 64.5q281 0 473 -19v-28h-473q-127 0 -180 -50.5t-53 -162.5v-95q0 -92 37 -139q31 -39 196 -39h262q121 0 194 -60.5t73 -172.5v-101q0 -160 -86 -204q-70 -37 -181 -37q-305 0 -499 20v29h499q162 0 199 84q18 41 18 108v101 q0 80 -56 132t-161 52h-262q-160 0 -221 40t-61 187zM299 -344l66 10q49 8 73.5 16.5t51 33t34.5 70.5t8 83v51h35q0 -158 -41 -218t-166 -60h-61v14z" />
<glyph unicode="&#x160;" horiz-adv-x="1200" d="M180 1012v135q0 207 101.5 285.5t306.5 78.5t442 -38v-27l-455 16h-26q-150 0 -235 -68.5t-85 -246.5v-135q0 -150 73 -201t228 -51h234q188 0 260 -79t72 -222v-140q0 -209 -125 -278q-102 -57 -273 -57q-86 0 -250.5 9t-230.5 21v31q135 -12 481 -12q162 0 255.5 61.5 t93.5 224.5v140q0 133 -66 192.5t-217 59.5h-229q-225 0 -297 92q-35 45 -46.5 92t-11.5 117zM381 1901h33l231 -236l256 236h37l-270 -267h-45z" />
<glyph unicode="&#x161;" horiz-adv-x="1032" d="M111 743v95q0 131 64.5 195.5t217.5 64.5q281 0 473 -19v-28h-473q-127 0 -180 -50.5t-53 -162.5v-95q0 -92 37 -139q31 -39 196 -39h262q121 0 194 -60.5t73 -172.5v-101q0 -160 -86 -204q-70 -37 -181 -37q-305 0 -499 20v29h499q162 0 199 84q18 41 18 108v101 q0 80 -56 132t-161 52h-262q-160 0 -221 40t-61 187zM256 1497h33l231 -235l256 235h37l-270 -266h-45z" />
<glyph unicode="&#x162;" horiz-adv-x="1236" d="M96 1450v49h1061v-49h-512v-1450h-49v1450h-500zM369 -356l65 10q49 8 73.5 16t51.5 33t35 71t8 83v51h35q0 -158 -41 -218.5t-166 -60.5h-61v15z" />
<glyph unicode="&#x163;" horiz-adv-x="716" d="M55 1040v33l172 17l17 303h32v-303h359v-50h-359v-655q0 -252 97 -307q33 -20 47 -23.5t98 -16.5t98 -13v-27h-137q-129 0 -190.5 93t-61.5 294v655h-172zM168 -369l65 11q49 8 74 16t51.5 32.5t34.5 70.5t8 83v52h35q0 -158 -41 -218.5t-166 -60.5h-61v14z" />
<glyph unicode="&#x164;" horiz-adv-x="1236" d="M96 1450v49h1061v-49h-512v-1450h-49v1450h-500zM348 1898h33l231 -235l256 235h37l-270 -266h-45z" />
<glyph unicode="&#x165;" horiz-adv-x="690" d="M55 1040v33l172 17l17 303h32v-303h359v-50h-359v-651q0 -248 89 -305q33 -20 49 -23q158 -33 202 -32v-27h-149q-121 0 -180.5 89t-59.5 298v651h-172zM444 1497v137h52v-137l-13 -274h-24z" />
<glyph unicode="&#x166;" horiz-adv-x="1236" d="M96 1450v49h1061v-49h-512v-582h307v-28h-307v-840h-49v840h-266v28h266v582h-500z" />
<glyph unicode="&#x167;" horiz-adv-x="690" d="M55 1040v33l172 17l17 303h32v-303h359v-50h-359v-360h256v-29h-256v-262q0 -248 89 -305q33 -20 49 -23q158 -33 202 -32v-27h-149q-121 0 -180.5 89t-59.5 298v262h-166v29h166v360h-172z" />
<glyph unicode="&#x168;" horiz-adv-x="1398" d="M221 655v844h49v-844q0 -197 18.5 -277.5t31 -125.5t38 -78t45 -56.5t56.5 -37.5t61.5 -23.5t69.5 -11.5q76 -6 153.5 -6t127 5t108.5 24.5t96 60.5t72 107q63 125 63 419v844h50v-844q0 -209 -24 -297t-40 -138t-46 -85t-53.5 -60.5t-63.5 -41t-66.5 -24.5t-73.5 -13 q-68 -6 -208 -6t-220 30q-176 66 -223 351q-21 118 -21 284zM393 1696q104 92 147.5 105.5t78 13.5t127 -75t126 -75t79.5 22.5t63.5 37t58.5 49.5l12 -15q-96 -98 -155 -117q-29 -10 -68 -10t-129 75t-123 75q-43 0 -69.5 -13.5t-35.5 -17.5t-25.5 -15.5t-23.5 -17.5 t-26.5 -19t-28.5 -20z" />
<glyph unicode="&#x169;" d="M139 332v758h49v-758q0 -127 78 -213t207 -86t225.5 28.5t219.5 96.5v932h49v-1088h-29l-20 127q-221 -145 -443 -145q-156 0 -246 102.5t-90 245.5zM207 1284q86 74 133 96.5t86 22.5t132 -75t124 -75q74 0 205 109l12 -14q-41 -41 -68 -66q-74 -61 -149 -61 q-45 0 -136 74.5t-114.5 74.5t-39 -2t-32 -9t-26.5 -11.5t-30.5 -17.5t-28 -18t-31 -22.5t-29.5 -21.5z" />
<glyph unicode="&#x16a;" horiz-adv-x="1398" d="M221 655v844h49v-844q0 -197 18.5 -277.5t31 -125.5t38 -78t45 -56.5t56.5 -37.5t61.5 -23.5t69.5 -11.5q76 -6 153.5 -6t127 5t108.5 24.5t96 60.5t72 107q63 125 63 419v844h50v-844q0 -209 -24 -297t-40 -138t-46 -85t-53.5 -60.5t-63.5 -41t-66.5 -24.5t-73.5 -13 q-68 -6 -208 -6t-220 30q-176 66 -223 351q-21 118 -21 284zM483 1632v31h516v-31h-516z" />
<glyph unicode="&#x16b;" d="M139 332v758h49v-758q0 -127 78 -213t207 -86t225.5 28.5t219.5 96.5v932h49v-1088h-29l-20 127q-221 -145 -443 -145q-156 0 -246 102.5t-90 245.5zM295 1221v30h516v-30h-516z" />
<glyph unicode="&#x16c;" horiz-adv-x="1398" d="M221 655v844h49v-844q0 -197 18.5 -277.5t31 -125.5t38 -78t45 -56.5t56.5 -37.5t61.5 -23.5t69.5 -11.5q76 -6 153.5 -6t127 5t108.5 24.5t96 60.5t72 107q63 125 63 419v844h50v-844q0 -209 -24 -297t-40 -138t-46 -85t-53.5 -60.5t-63.5 -41t-66.5 -24.5t-73.5 -13 q-68 -6 -208 -6t-220 30q-176 66 -223 351q-21 118 -21 284zM504 1866h28q0 -57 29 -104.5t75 -74t99 -26.5q92 0 151.5 58.5t59.5 146.5h29q0 -129 -105 -197q-59 -37 -141 -37t-153.5 65t-71.5 169z" />
<glyph unicode="&#x16d;" d="M139 332v758h49v-758q0 -127 78 -213t207 -86t225.5 28.5t219.5 96.5v932h49v-1088h-29l-20 127q-221 -145 -443 -145q-156 0 -246 102.5t-90 245.5zM317 1454h29q0 -86 59.5 -145.5t139.5 -59.5q94 0 154.5 58.5t60.5 146.5h28q0 -109 -72.5 -171t-163.5 -62t-163 64.5 t-72 168.5z" />
<glyph unicode="&#x16e;" horiz-adv-x="1398" d="M221 655v844h49v-844q0 -197 18.5 -277.5t31 -125.5t38 -78t45 -56.5t56.5 -37.5t61.5 -23.5t69.5 -11.5q76 -6 153.5 -6t127 5t108.5 24.5t96 60.5t72 107q63 125 63 419v844h50v-844q0 -209 -24 -297t-40 -138t-46 -85t-53.5 -60.5t-63.5 -41t-66.5 -24.5t-73.5 -13 q-68 -6 -208 -6t-220 30q-176 66 -223 351q-21 118 -21 284zM532 1841q0 57 29 105.5t77 77t118.5 28.5t130 -61.5t59.5 -149.5t-59.5 -148.5t-130 -60.5t-118.5 28t-77 76t-29 105zM561 1841q0 -74 53.5 -126t127 -52t125 52t51.5 126t-51.5 127t-125 53t-127 -53 t-53.5 -127z" />
<glyph unicode="&#x16f;" d="M139 332v758h49v-758q0 -127 78 -213t207 -86t225.5 28.5t219.5 96.5v932h49v-1088h-29l-20 127q-221 -145 -443 -145q-156 0 -246 102.5t-90 245.5zM346 1429.5q0 88.5 61.5 149.5t147.5 61t145.5 -61t59.5 -149.5t-59.5 -148.5t-145.5 -60t-147.5 60t-61.5 148.5z M375 1429.5q0 -73.5 53 -126t127 -52.5t125 52.5t51 126t-51 127t-125 53.5t-127 -53.5t-53 -127z" />
<glyph unicode="&#x170;" horiz-adv-x="1398" d="M221 655v844h49v-844q0 -197 18.5 -277.5t31 -125.5t38 -78t45 -56.5t56.5 -37.5t61.5 -23.5t69.5 -11.5q76 -6 153.5 -6t127 5t108.5 24.5t96 60.5t72 107q63 125 63 419v844h50v-844q0 -209 -24 -297t-40 -138t-46 -85t-53.5 -60.5t-63.5 -41t-66.5 -24.5t-73.5 -13 q-68 -6 -208 -6t-220 30q-176 66 -223 351q-21 118 -21 284zM584 1632l247 273h54l-273 -273h-28zM868 1632l248 273h53l-272 -273h-29z" />
<glyph unicode="&#x171;" d="M139 332v758h49v-758q0 -127 78 -213t207 -86t225.5 28.5t219.5 96.5v932h49v-1088h-29l-20 127q-221 -145 -443 -145q-156 0 -246 102.5t-90 245.5zM397 1221l246 272h53l-270 -272h-29zM680 1221l250 272h53l-274 -272h-29z" />
<glyph unicode="&#x172;" horiz-adv-x="1398" d="M221 655v844h49v-844q0 -197 18.5 -277.5t31 -125.5t38 -78t45 -56.5t56.5 -37.5t61.5 -23.5t69.5 -11.5q76 -6 153.5 -6t127 5t108.5 24.5t96 60.5t72 107q63 125 63 419v844h50v-844q0 -209 -24 -297t-40 -138t-46 -85t-53.5 -60.5t-63.5 -41t-66.5 -24.5t-73.5 -13 q-68 -6 -208 -6t-220 30q-176 66 -223 351q-21 118 -21 284zM561 -201.5q0 31.5 25 74.5q37 72 145 119h25q-82 -33 -119 -89.5t-37 -112.5t61.5 -98t149.5 -42h10v-29q-20 -2 -61 -2t-101.5 33t-85.5 90q-12 25 -12 56.5z" />
<glyph unicode="&#x173;" horiz-adv-x="1300" d="M188 332v758h50v-758q0 -127 77.5 -213t206.5 -86t225.5 28.5t219.5 96.5v932h49v-1088h-29l-20 127q-221 -145 -443 -145q-156 0 -246 102.5t-90 245.5zM821 -191.5q0 31.5 23 74.5q39 72 147 119h25q-82 -33 -119 -89t-37 -112.5t61.5 -98.5t149.5 -42h10v-29 q-20 -2 -61 -2t-101.5 33t-87.5 92q-10 23 -10 54.5z" />
<glyph unicode="&#x174;" horiz-adv-x="1988" d="M125 1499h53l518 -1450l502 1450h53l-211 -616l334 -834l508 1450h49l-520 -1499h-70l-327 811l-283 -811h-69zM750 1632l270 266h41l246 -266h-37l-230 236l-254 -236h-36z" />
<glyph unicode="&#x175;" horiz-adv-x="1591" d="M55 1087h51l402 -1026l391 1026h49l-151 -407l278 -619l414 1026h47l-434 -1087h-53l-277 623l-237 -623h-54zM537 1221l270 266h41l246 -266h-37l-230 235l-254 -235h-36z" />
<glyph unicode="&#x176;" horiz-adv-x="1267" d="M125 1499h55l467 -903l508 903h55l-538 -967v-532h-49v532zM389 1632l270 266h41l246 -266h-37l-229 236l-254 -236h-37z" />
<glyph unicode="&#x177;" horiz-adv-x="1083" d="M57 1087h54l303 -849q68 -186 207 -187l350 1036h51l-477 -1431l-94 -209h-25l178 553q-172 8 -239 225zM262 1221l270 266h41l246 -266h-37l-229 235l-254 -235h-37z" />
<glyph unicode="&#x178;" horiz-adv-x="1267" d="M125 1499h55l467 -903l508 903h55l-538 -967v-532h-49v532zM373 1668q0 15 9 25.5t24.5 10.5t25.5 -10.5t10 -22.5t-6 -20q-8 -18 -26.5 -18.5t-27.5 10t-9 25.5zM893 1669q0 14 10 24.5t25.5 10.5t25 -10.5t9.5 -21.5t-2.5 -17t-6.5 -13q-10 -10 -25.5 -10t-25.5 11.5 t-10 25.5z" />
<glyph unicode="&#x179;" horiz-adv-x="1124" d="M96 0v49l887 1401h-887v49h948v-49l-886 -1401h886v-49h-948zM598 1632l246 273h53l-270 -273h-29z" />
<glyph unicode="&#x17a;" horiz-adv-x="972" d="M82 1038v49h811v-49l-717 -987h717v-49h-778v49l712 987h-745zM475 1210l248 273h53l-272 -273h-29z" />
<glyph unicode="&#x17b;" horiz-adv-x="1124" d="M96 0v49l887 1401h-887v49h948v-49l-886 -1401h886v-49h-948zM535 1657v127q0 25 24 24h23q25 0 24 -24v-127q0 -25 -24 -25h-23q-24 0 -24 25z" />
<glyph unicode="&#x17c;" horiz-adv-x="972" d="M82 1038v49h811v-49l-717 -987h717v-49h-778v49l712 987h-745zM451 1245v127q0 25 24 25h25q25 0 24 -25v-127q0 -25 -24 -24h-25q-24 -1 -24 24z" />
<glyph unicode="&#x17d;" horiz-adv-x="1124" d="M96 0v49l887 1401h-887v49h948v-49l-886 -1401h886v-49h-948zM291 1898h33l233 -235l254 235h37l-270 -266h-46z" />
<glyph unicode="&#x17e;" horiz-adv-x="972" d="M82 1038v49h811v-49l-717 -987h717v-49h-778v49l712 987h-745zM254 1487h33l231 -236l256 236h37l-270 -266h-45z" />
<glyph unicode="&#x192;" horiz-adv-x="1230" d="M55 -393l6 24h154q111 0 174 99q63 104 86 198q31 133 49 252l107 682h-209l8 51h209l20 123q51 307 93 412q78 190 237 190q113 0 187 -24l-7 -25h-180q-133 0 -194 -168q-51 -147 -86 -385l-21 -125h295l-8 -49h-295l-107 -682q-12 -76 -17 -109.5t-21.5 -110.5 t-32 -117t-44 -98t-61.5 -89q-82 -74 -193.5 -74t-148.5 25z" />
<glyph unicode="&#x2c6;" horiz-adv-x="833" d="M139 1087l271 267h41l245 -267h-37l-229 236l-254 -236h-37z" />
<glyph unicode="&#x2da;" horiz-adv-x="692" d="M139 1294q0 88 61.5 149.5t147.5 61.5t145.5 -61.5t59.5 -149.5t-59.5 -148.5t-145.5 -60.5t-147.5 60.5t-61.5 148.5zM168 1294.5q0 -73.5 53 -126t127 -52.5t125 52.5t51 126t-51 127t-125 53.5t-127 -53.5t-53 -127z" />
<glyph unicode="&#x2dc;" horiz-adv-x="968" d="M139 1171q86 74 133 96.5t86 22.5t132.5 -74.5t123.5 -74.5q74 0 205 108l12 -14q-41 -41 -69 -64q-72 -63 -148 -63q-45 0 -136 74.5t-114.5 74.5t-39 -2t-32 -9t-26.5 -11t-30.5 -17.5t-27.5 -18.5t-30.5 -22.5t-30.5 -21.5z" />
<glyph unicode="&#x3a9;" horiz-adv-x="1624" d="M176 796.5q0 102.5 14.5 194.5t55.5 191.5t108.5 170t185 115.5t271.5 45q623 0 623 -729q0 -199 -93.5 -402.5t-281.5 -334.5l385 -22v-25h-467v49q209 137 308 330.5t99 408.5q0 287 -110 469q-129 207 -463 207q-338 0 -467 -204q-119 -184 -119 -482 q0 -227 92.5 -388t321.5 -341v-49h-451v25l375 24q-248 186 -325 387q-37 99 -49.5 178.5t-12.5 182z" />
<glyph unicode="&#x3c0;" horiz-adv-x="1234" d="M55 1038v49h1024v-49h-264v-698q0 -160 45 -229.5t148 -69.5h170v-29q-106 -23 -170 -22q-129 0 -185.5 76.5t-56.5 273.5v698h-485v-1038h-50v1038h-176z" />
<glyph unicode="&#x1e02;" horiz-adv-x="1226" d="M221 0v1499h518q213 0 301 -97t88 -257t-79.5 -253t-184.5 -106q90 -20 180.5 -116.5t90.5 -251.5q0 -418 -396 -418h-518zM270 51h469q346 0 346 371q0 141 -100 239.5t-235 98.5h-11h-469v-709zM270 809h469q147 0 242 84q98 88 98 249t-84 234.5t-256 73.5h-469v-641z M623 1657v127q0 25 24 24h21q25 0 24 -24v-127q0 -25 -24 -25h-21q-24 0 -24 25z" />
<glyph unicode="&#x1e03;" d="M156 1755v127q0 25 24 25h21q25 0 24 -25v-127q0 -25 -24 -24h-21q-24 -1 -24 24zM166 0v1608h45v-586q92 37 210 59.5t193 22.5q379 0 379 -565q0 -209 -78 -369q-41 -84 -117.5 -133t-179 -49t-231.5 46t-174 87l-20 -121h-27zM213 150q221 -113 401 -113 q141 0 235.5 125t94.5 395t-90 384t-247.5 114t-393.5 -62v-843z" />
<glyph unicode="&#x1e0a;" horiz-adv-x="1374" d="M221 0v1499h518q133 0 232.5 -50t155 -126t90.5 -182q53 -172 53 -351.5t-31 -306.5t-91.5 -237.5t-167 -178t-241.5 -67.5h-518zM270 49h469q123 0 219.5 65.5t151.5 170.5q111 209 111 460q0 354 -124 529.5t-358 175.5h-469v-1401zM664 1657v127q0 25 24 24h21 q25 0 24 -24v-127q0 -25 -24 -25h-21q-24 0 -24 25z" />
<glyph unicode="&#x1e0b;" d="M139 539q0 565 377 565q76 0 194.5 -22.5t211.5 -59.5v586h43v-1608h-27l-20 121q-45 -41 -174.5 -87t-231.5 -46t-179 49t-116 133q-78 162 -78 369zM188.5 564q-0.5 -285 92 -406t235.5 -121q180 0 402 113v843q-236 61 -402 62q-72 0 -125 -21.5t-102 -75.5 q-100 -109 -100.5 -394zM909 1755v127q0 25 25 25h22q25 0 25 -25v-127q0 -25 -25 -24h-22q-25 -1 -25 24z" />
<glyph unicode="&#x1e1e;" horiz-adv-x="1191" d="M221 0v1233q0 141 72 203.5t174 62.5h12l608 -20v-29h-608q-209 0 -209 -217v-465l736 -10v-29l-736 -10v-719h-49zM590 1716v127q0 25 24 25h23q25 0 25 -25v-127q0 -25 -25 -24h-23q-24 -1 -24 24z" />
<glyph unicode="&#x1e1f;" horiz-adv-x="786" d="M55 1038v29l178 20v203q0 166 43 242q18 31 56.5 54.5t91.5 23.5q225 0 307 -23v-26h-291q-96 0 -126.5 -67t-30.5 -204v-203h364v-49h-364v-1038h-50v1038h-178zM463 1757v127q0 25 24 25h21q25 0 24 -25v-127q0 -25 -24 -24h-21q-24 -1 -24 24z" />
<glyph unicode="&#x1e40;" horiz-adv-x="1632" d="M152 0l165 1499h74l436 -1415l428 1415h78l172 -1499h-49l-166 1440l-434 -1440h-55l-443 1440l-157 -1440h-49zM791 1657v127q0 25 24 24h21q25 0 24 -24v-127q0 -25 -24 -25h-21q-24 0 -24 25z" />
<glyph unicode="&#x1e41;" horiz-adv-x="1906" d="M166 0v1087h29l20 -126q221 145 433 145t302 -168q86 66 226.5 117t257.5 51q156 0 245.5 -102.5t89.5 -245.5v-758h-49v758q0 127 -77.5 213t-208.5 86q-205 0 -473 -144q33 -78 32 -155v-758h-49v758q0 127 -78 213t-207 86t-225 -29t-219 -96v-932h-49zM874 1253v127 q0 25 25 25h23q25 0 24 -25v-127q0 -25 -24 -24h-23q-25 -1 -25 24z" />
<glyph unicode="&#x1e56;" horiz-adv-x="1196" d="M166 0v1499h565q72 0 126 -13t114 -52q121 -82 121 -344q0 -119 -25 -204t-57.5 -128t-88 -65.5t-93 -26.5t-103.5 -4t-285 8t-225 12v-682h-49zM215 711h516q145 0 227 76.5t82 291.5q0 266 -133 334q-72 35 -176 35h-516v-737zM584 1739v127q0 25 24 24h23q25 0 24 -24 v-127q0 -25 -24 -25h-23q-24 0 -24 25z" />
<glyph unicode="&#x1e57;" d="M166 -549v1636h27l22 -120q45 41 173 87t230.5 46t179 -49.5t117.5 -132.5q78 -160 78 -369q0 -565 -379 -565q-76 0 -192.5 22.5t-208.5 59.5v-615h-47zM215 94q236 -61 392.5 -61t246.5 113.5t90 384t-94 395.5t-236 125q-178 0 -399 -113v-844zM545 1247v127 q0 25 24 25h25q25 0 24 -25v-127q0 -25 -24 -24h-25q-24 -1 -24 24z" />
<glyph unicode="&#x1e60;" horiz-adv-x="1200" d="M180 1012v135q0 207 101.5 285.5t306.5 78.5t442 -38v-27l-455 16h-26q-150 0 -235 -68.5t-85 -246.5v-135q0 -150 73 -201t228 -51h234q188 0 260 -79t72 -222v-140q0 -209 -125 -278q-102 -57 -273 -57q-86 0 -250.5 9t-230.5 21v31q135 -12 481 -12q162 0 255.5 61.5 t93.5 224.5v140q0 133 -66 192.5t-217 59.5h-229q-225 0 -297 92q-35 45 -46.5 92t-11.5 117zM610 1659v127q0 25 25 24h20q25 0 25 -24v-127q0 -25 -25 -25h-20q-25 0 -25 25z" />
<glyph unicode="&#x1e61;" horiz-adv-x="1032" d="M111 743v95q0 131 64.5 195.5t217.5 64.5q281 0 473 -19v-28h-473q-127 0 -180 -50.5t-53 -162.5v-95q0 -92 37 -139q31 -39 196 -39h262q121 0 194 -60.5t73 -172.5v-101q0 -160 -86 -204q-70 -37 -181 -37q-305 0 -499 20v29h499q162 0 199 84q18 41 18 108v101 q0 80 -56 132t-161 52h-262q-160 0 -221 40t-61 187zM487 1245v127q0 25 25 25h25q25 0 24 -25v-127q0 -25 -24 -24h-25q-25 -1 -25 24z" />
<glyph unicode="&#x1e6a;" horiz-adv-x="1236" d="M96 1450v49h1061v-49h-512v-1450h-49v1450h-500zM590 1657v127q0 25 24 24h21q25 0 24 -24v-127q0 -25 -24 -25h-21q-24 0 -24 25z" />
<glyph unicode="&#x1e6b;" horiz-adv-x="716" d="M55 1040v33l172 17l17 303h32v-303h359v-50h-359v-655q0 -252 97 -307q33 -20 47 -23.5t98 -16.5t98 -13v-27h-137q-129 0 -190.5 93t-61.5 294v655h-172zM225 1540v127q0 25 25 25h24q25 0 25 -25v-127q0 -25 -25 -24h-24q-25 -1 -25 24z" />
<glyph unicode="&#x1e80;" horiz-adv-x="1988" d="M125 1499h53l518 -1450l502 1450h53l-211 -616l334 -834l508 1450h49l-520 -1499h-70l-327 811l-283 -811h-69zM741 1905h54l247 -273h-28z" />
<glyph unicode="&#x1e81;" horiz-adv-x="1591" d="M55 1087h51l402 -1026l391 1026h49l-151 -407l278 -619l414 1026h47l-434 -1087h-53l-277 623l-237 -623h-54zM528 1493h54l249 -272h-28z" />
<glyph unicode="&#x1e82;" horiz-adv-x="1988" d="M125 1499h53l518 -1450l502 1450h53l-211 -616l334 -834l508 1450h49l-520 -1499h-70l-327 811l-283 -811h-69zM1014 1632l248 273h53l-273 -273h-28z" />
<glyph unicode="&#x1e83;" horiz-adv-x="1591" d="M55 1087h51l402 -1026l391 1026h49l-151 -407l278 -619l414 1026h47l-434 -1087h-53l-277 623l-237 -623h-54zM803 1221l246 272h53l-271 -272h-28z" />
<glyph unicode="&#x1e84;" horiz-adv-x="1988" d="M125 1499h53l518 -1450l502 1450h53l-211 -616l334 -834l508 1450h49l-520 -1499h-70l-327 811l-283 -811h-69zM733 1668q0 15 9.5 25.5t24.5 10.5t25.5 -10.5t10.5 -21.5t-3 -17t-7 -13q-10 -10 -25.5 -10t-25 10.5t-9.5 25.5zM1253 1669q0 14 10.5 24.5t26 10.5 t24.5 -10.5t9 -22.5t-4 -20q-8 -18 -26.5 -18.5t-29 11t-10.5 25.5z" />
<glyph unicode="&#x1e85;" horiz-adv-x="1591" d="M55 1087h51l402 -1026l391 1026h49l-151 -407l278 -619l414 1026h47l-434 -1087h-53l-277 623l-237 -623h-54zM520 1256.5q0 35.5 35 35.5t35 -35.5t-35 -35.5t-35 35.5zM1040 1257q0 35 36 35t36 -35.5t-35 -35.5q-16 0 -26.5 10t-10.5 26z" />
<glyph unicode="&#x1ef2;" horiz-adv-x="1267" d="M125 1499h55l467 -903l508 903h55l-538 -967v-532h-49v532zM381 1905h53l248 -273h-29z" />
<glyph unicode="&#x1ef3;" horiz-adv-x="1083" d="M57 1087h54l303 -849q68 -186 207 -187l350 1036h51l-477 -1431l-94 -209h-25l178 553q-172 8 -239 225zM254 1493h53l246 -272h-29z" />
<glyph unicode="&#x2000;" horiz-adv-x="1026" />
<glyph unicode="&#x2001;" horiz-adv-x="2052" />
<glyph unicode="&#x2002;" horiz-adv-x="1026" />
<glyph unicode="&#x2003;" horiz-adv-x="2052" />
<glyph unicode="&#x2004;" horiz-adv-x="684" />
<glyph unicode="&#x2005;" horiz-adv-x="513" />
<glyph unicode="&#x2006;" horiz-adv-x="342" />
<glyph unicode="&#x2007;" horiz-adv-x="342" />
<glyph unicode="&#x2008;" horiz-adv-x="256" />
<glyph unicode="&#x2009;" horiz-adv-x="410" />
<glyph unicode="&#x200a;" horiz-adv-x="114" />
<glyph unicode="&#x2010;" horiz-adv-x="692" d="M55 569v49h582v-49h-582z" />
<glyph unicode="&#x2011;" horiz-adv-x="692" d="M55 569v49h582v-49h-582z" />
<glyph unicode="&#x2012;" horiz-adv-x="692" d="M55 569v49h582v-49h-582z" />
<glyph unicode="&#x2013;" horiz-adv-x="1079" d="M55 563v51h969v-51h-969z" />
<glyph unicode="&#x2014;" horiz-adv-x="1536" d="M55 567v51h1426v-51h-1426z" />
<glyph unicode="&#x2018;" horiz-adv-x="346" d="M133 1206v213q0 45 18.5 63.5t28.5 17.5t31 -3v-14q-39 2 -39 -39v-76h14q12 0 21.5 -9t9.5 -24v-129q0 -33 -31 -32h-24q-29 0 -29 32z" />
<glyph unicode="&#x2019;" horiz-adv-x="346" d="M131 1335l2 131q0 33 31 33h22q31 0 31 -33l-2 -215q0 -45 -17.5 -62.5t-28.5 -17.5t-32 5v14q39 -2 39 37v78h-14q-31 0 -31 30z" />
<glyph unicode="&#x201a;" horiz-adv-x="346" d="M133 31v129q0 35 31 35h22q31 0 31 -35v-213q0 -45 -18.5 -63.5t-29.5 -17.5t-30 3v14q39 -2 39 39v78h-14q-31 0 -31 31z" />
<glyph unicode="&#x201c;" horiz-adv-x="522" d="M121 1206v213q0 45 18.5 63.5t28.5 17.5t29 -3v-14q-37 2 -37 -39v-76h12q14 0 23.5 -9t9.5 -24v-129q0 -33 -33 -32h-22q-29 0 -29 32zM317 1206v213q0 45 18.5 63.5t30 17.5t29.5 -3v-14q-39 2 -39 -39v-76h15q14 0 22 -9t8 -24v-129q0 -33 -30 -32h-23q-31 0 -31 32z " />
<glyph unicode="&#x201d;" horiz-adv-x="520" d="M121 1335v131q0 33 31 33h22q31 0 31 -33v-215q0 -45 -17.5 -62.5t-29 -17.5t-31.5 5v14q37 -2 37 37v78h-12q-31 0 -31 30zM317 1335v131q0 33 31 33h25q29 0 28 -33v-215q0 -45 -17 -62.5t-28.5 -17.5t-31.5 5v14q39 -2 38 37v78h-14q-31 0 -31 30z" />
<glyph unicode="&#x201e;" horiz-adv-x="520" d="M121 35v129q0 35 31 35h22q31 0 31 -35v-213q0 -45 -17.5 -63.5t-29 -17.5t-31.5 3v14q37 -2 37 39v78h-12q-31 0 -31 31zM317 35v129q0 35 31 35h25q29 0 28 -35v-213q0 -45 -17 -63.5t-28.5 -17.5t-31.5 3v14q39 -2 38 39v78h-14q-31 0 -31 31z" />
<glyph unicode="&#x2020;" horiz-adv-x="815" d="M55 1049v28l328 8l10 492h29l10 -492l328 -8v-28l-328 -11l-12 -1185h-29l-8 1185z" />
<glyph unicode="&#x2021;" horiz-adv-x="870" d="M55 397v29l332 8l-4 604l-328 11v28l328 8l10 492h29l10 -492l328 -8v-28l-328 -11l-6 -604l334 -8v-29l-334 -10l-6 -534h-29l-4 534z" />
<glyph unicode="&#x2022;" horiz-adv-x="657" d="M236 750v61q0 72 67 72h49q72 0 72 -72v-61q0 -66 -72 -66h-49q-67 0 -67 66z" />
<glyph unicode="&#x2026;" horiz-adv-x="1654" d="M223 25v127q0 25 25 24h22q25 0 25 -24v-127q0 -25 -25 -25h-22q-25 0 -25 25zM780 25v127q0 25 25 24h22q25 0 25 -24v-127q0 -25 -25 -25h-22q-25 0 -25 25zM1337 25v127q0 25 25 24h22q25 0 25 -24v-127q0 -25 -25 -25h-22q-25 0 -25 25z" />
<glyph unicode="&#x202f;" horiz-adv-x="410" />
<glyph unicode="&#x2030;" horiz-adv-x="2824" d="M117 971v272q0 135 57 195.5t207 60.5h207q145 0 202.5 -60.5t57.5 -195.5v-272q0 -135 -57.5 -195.5t-206.5 -60.5h-207q-145 0 -202.5 60.5t-57.5 195.5zM147 971q0 -129 53.5 -177.5t176.5 -48.5h207q125 0 179 47.5t54 178.5v272q0 123 -50 174t-179 51h-207 q-127 0 -180.5 -47t-53.5 -178v-272zM496 0l897 1499h43l-897 -1499h-43zM1108 262v273q0 135 57.5 195.5t206.5 60.5h207q145 0 202.5 -60.5t57.5 -195.5v-273q0 -135 -57.5 -195.5t-206.5 -60.5h-207q-145 0 -202.5 60.5t-57.5 195.5zM1139 262q0 -129 53 -177t176 -48 h207q125 0 179 47t54 178v273q0 123 -50 174t-179 51h-207q-127 0 -180 -47t-53 -178v-273zM1978 262v273q0 135 57.5 195.5t207.5 60.5h206q145 0 203 -60.5t58 -195.5v-273q0 -135 -57.5 -195.5t-207.5 -60.5h-207q-145 0 -202.5 60.5t-57.5 195.5zM2009 262 q0 -129 53.5 -177t175.5 -48h207q125 0 179.5 47t54.5 178v273q0 123 -50.5 174t-179.5 51h-206q-127 0 -180.5 -47t-53.5 -178v-273z" />
<glyph unicode="&#x2039;" horiz-adv-x="724" d="M139 725l422 416l33 -33l-389 -383l401 -391l-37 -35z" />
<glyph unicode="&#x203a;" horiz-adv-x="724" d="M139 334l398 391l-390 383l37 33l422 -416l-434 -426z" />
<glyph unicode="&#x2044;" horiz-adv-x="329" d="M-250 0l791 1577h37l-791 -1577h-37z" />
<glyph unicode="&#x205f;" horiz-adv-x="513" />
<glyph unicode="&#x20ac;" horiz-adv-x="1218" d="M55 557v29l181 6v289l-181 6v26l181 9v36.5t1 63.5t10 100.5t25.5 112.5t51 102.5t86.5 92.5q119 86 321.5 86t423.5 -41v-29q-307 20 -429 20t-203 -31.5t-126 -78.5t-71 -123q-41 -117 -41 -311l581 -7v-28l-581 -6v-289l581 -8v-29h-313q-274 0 -271 -7t3 -13 q0 -205 114.5 -349.5t315.5 -148.5h76q154 0 311 16l61 8v-30q-184 -43 -448 -43q-121 0 -236 65q-70 39 -122 98.5t-86.5 163t-34.5 234.5z" />
<glyph unicode="&#x2122;" horiz-adv-x="1441" d="M55 1470v29h531v-29h-250v-686h-29v686h-252zM666 784l55 715h22l297 -670l273 670h24l64 -715h-25l-59 650l-264 -650h-23l-289 652l-49 -652h-26z" />
<glyph unicode="&#x2202;" horiz-adv-x="1380" d="M158 463.5q0 230.5 125 334t391 103.5t432 -113q0 332 -109.5 505t-378.5 173q-195 0 -378 -114l-13 24q117 78 197 109t201 31q283 0 406.5 -186.5t123.5 -536.5q0 -322 -115 -551q-59 -117 -160.5 -184.5t-234.5 -67.5q-213 0 -350 121.5t-137 352zM207 466 q0 -210 125 -318.5t309 -108.5q113 0 200 55.5t136 136t80 185.5q49 168 49 344q-57 31 -192.5 61.5t-245.5 30.5q-230 0 -345.5 -88t-115.5 -298z" />
<glyph unicode="&#x2206;" horiz-adv-x="1511" d="M55 0l693 1499h40l668 -1499h-1401zM137 49h1239l-606 1372z" />
<glyph unicode="&#x220f;" horiz-adv-x="1204" d="M55 1450v49h1094v-49h-178v-1450h-49v1450h-641v-1450h-50v1450h-176z" />
<glyph unicode="&#x2211;" horiz-adv-x="1161" d="M111 -354l438 907l-438 897v49h995v-49h-936l436 -897l-436 -907h936v-56h-995v56z" />
<glyph unicode="&#x221a;" horiz-adv-x="1212" d="M55 684v49h211l285 -649l557 1554h49l-584 -1638h-36l-301 684h-181z" />
<glyph unicode="&#x221e;" horiz-adv-x="1681" d="M139 690q0 72 4 115t20.5 94t47.5 80q76 74 227 74q104 0 216 -97.5t186 -210.5q66 106 183.5 207t220 101t167 -31t91 -90.5t34.5 -109.5t8 -127t-11 -133t-42 -109q-57 -106 -246 -107q-123 0 -230.5 97.5t-174.5 215.5q-66 -127 -170.5 -220t-215 -93t-172 26.5 t-91 80t-41 109.5t-11.5 128zM188 703.5q0 -164.5 56.5 -236.5t193.5 -72q197 0 377 307q-82 121 -187.5 211.5t-189.5 90.5q-145 0 -197.5 -68t-52.5 -232.5zM864 702q74 -129 175.5 -218t205.5 -89q147 0 198.5 77t51.5 228.5t-50 227.5t-200 76q-84 0 -197.5 -95.5 t-183.5 -206.5z" />
<glyph unicode="&#x222b;" horiz-adv-x="931" d="M55 -369h197q47 0 80 12.5t53.5 49.5t31.5 67.5t17 104.5q6 102 6 315v856q0 315 27 418q45 184 207 184q123 0 203 -20v-29h-201q-68 0 -109 -33.5t-56 -117.5t-18.5 -145.5t-3.5 -135.5v-977v-188q0 -143 -12 -194.5t-28.5 -96.5t-40.5 -66q-59 -53 -146 -53 q-178 0 -207 21v28z" />
<glyph unicode="&#x2248;" horiz-adv-x="968" d="M139 514q86 74 133 96.5t86 22.5t132.5 -75t123.5 -75q74 0 205 109l12 -14q-41 -41 -69 -66q-72 -61 -148 -61q-45 0 -136 74.5t-114.5 74.5t-39 -2t-32 -9t-26.5 -11.5t-30.5 -17.5t-27.5 -18t-30.5 -22.5t-30.5 -21.5zM139 874q86 74 133 96.5t86 22.5t132.5 -74.5 t123.5 -74.5q74 0 205 108l12 -14q-41 -41 -69 -66q-72 -61 -148 -61q-45 0 -136 75t-114.5 75t-39 -2.5t-32 -9.5t-26.5 -11t-30.5 -17.5t-27.5 -18.5t-30.5 -22.5t-30.5 -21.5z" />
<glyph unicode="&#x2260;" horiz-adv-x="985" d="M55 434v49h275l293 482h-568v49h596l94 153h37l-94 -153h242v-49h-271l-292 -482h563v-49h-594l-107 -176h-36l106 176h-244z" />
<glyph unicode="&#x2264;" horiz-adv-x="1046" d="M139 262v49h774v-49h-774zM139 870v41l705 394v-56l-643 -358l643 -381v-57z" />
<glyph unicode="&#x2265;" horiz-adv-x="1046" d="M139 262v49h774v-49h-774zM205 453v57l643 381l-643 358v56l708 -394v-41z" />
<glyph unicode="&#x25fc;" horiz-adv-x="1085" d="M0 0v1085h1085v-1085h-1085z" />
</font>
</defs>
</svg>
