<?xml version="1.0" standalone="no"?>
<!DOCTYPE svg PUBLIC "-//W3C//DTD SVG 1.1//EN" "http://www.w3.org/Graphics/SVG/1.1/DTD/svg11.dtd" >
<svg xmlns="http://www.w3.org/2000/svg">
<metadata></metadata>
<defs>
<font id="exoitalic" horiz-adv-x="1351" >
<font-face units-per-em="2048" ascent="1638" descent="-410" />
<missing-glyph horiz-adv-x="512" />
<glyph horiz-adv-x="0" />
<glyph unicode="&#xd;" horiz-adv-x="2048" />
<glyph unicode=" "  horiz-adv-x="512" />
<glyph unicode="&#x09;" horiz-adv-x="512" />
<glyph unicode="&#xa0;" horiz-adv-x="512" />
<glyph unicode="!" horiz-adv-x="542" d="M174 47l19 117q6 51 57 51h112q41 0 41 -37q0 -6 -2 -14l-18 -117q-6 -47 -53 -47h-113q-49 0 -43 47zM250 410l158 1087h182l-187 -1087h-153z" />
<glyph unicode="&#x22;" horiz-adv-x="780" d="M369 1087l20 275l23 137h153l-22 -137l-64 -275h-110zM645 1087l21 275l22 137h154l-23 -137l-63 -275h-111z" />
<glyph unicode="#" horiz-adv-x="1406" d="M115 475l32 107h326l107 338h-326l37 106h323l150 473h106l-149 -473h340l147 473h107l-148 -473h363l-37 -106h-363l-106 -340h362l-32 -107h-363l-151 -473h-107l152 473l-340 2l-152 -475h-106l151 475h-323zM580 582l338 -2l106 340h-338z" />
<glyph unicode="$" horiz-adv-x="1175" d="M164 35l20 108l488 -12q78 0 145 27q129 51 146 161l22 140q12 84 12 112q0 88 -151 88h-266q-193 0 -263 105q-51 78 -51 176q0 35 6 72l21 135q35 203 147.5 281.5t296.5 82.5l29 177h119l-29 -183q190 -14 383 -43l-18 -119l-488 19h-20q-233 0 -269 -215l-20 -135 q-4 -33 -4 -78t26 -78q37 -45 158 -45h266q100 0 164 -31.5t84 -83.5q29 -63 29 -126.5t-10 -110.5l-23 -140q-20 -133 -102 -213.5t-170 -102t-145.5 -21.5t-82.5 2l-26 -168h-119l29 178q-55 6 -334 41z" />
<glyph unicode="%" horiz-adv-x="1970" d="M231 915q0 27 5 56l43 272q23 139 83 197.5t222 58.5h207q135 0 188 -59q37 -43 37 -125q0 -33 -6 -72l-43 -272q-25 -147 -86.5 -201.5t-216.5 -54.5h-207q-119 0 -172.5 58t-53.5 142zM365 917.5q0 -28.5 19 -49t93 -20.5h207q82 0 109.5 23.5t40.5 99.5l43 272 q4 33 4 60.5t-13.5 45t-97.5 17.5h-207q-86 0 -112.5 -24.5t-38.5 -98.5l-43 -272q-4 -25 -4 -53.5zM461 0l1134 1499h146l-1135 -1499h-145zM1190 201q0 27 4 55l43 272q23 139 83 197.5t222 58.5h207q135 0 188 -59q37 -43 37 -125q0 -33 -6 -72l-43 -272 q-25 -145 -87 -200.5t-218 -55.5h-207q-119 0 -171 57.5t-52 143.5zM1323 201.5q0 -27.5 18.5 -48t92.5 -20.5h206q82 0 111 23.5t41 99.5l43 272q4 31 4 58.5t-14.5 46t-98.5 18.5h-206q-84 0 -111 -24.5t-39 -98.5l-43 -272q-4 -27 -4 -54.5z" />
<glyph unicode="&#x26;" horiz-adv-x="1282" d="M129 371q0 211 219 379l195 149l-101 174q-49 86 -49 158q0 25 8 49q23 90 94.5 145.5t156.5 63.5t165 8q193 0 377 -43l-16 -98h-416q-227 0 -227 -121q0 -53 43 -129l383 -664l272 246l49 -41l-145 -241l-99 -95l185 -311h-156l-133 227l-152 -137q-113 -100 -266 -100 l-145 26q-111 41 -176.5 145t-65.5 210zM270 365q0 -70 47 -127q74 -107 203 -107q92 0 168 68l172 153l-246 414l-176 -135q-168 -125 -168 -266z" />
<glyph unicode="'" horiz-adv-x="380" d="M307 1087l21 275l22 137h154l-23 -137l-63 -275h-111z" />
<glyph unicode="(" horiz-adv-x="686" d="M233 348q0 326 119 672q88 262 252 534q61 102 101 154l40 53h181q-51 -57 -135 -189t-147.5 -252t-131.5 -300q-131 -348 -131 -662.5t102 -588.5q35 -96 66 -148l29 -51h-166q-76 127 -138 401q-41 182 -41 377z" />
<glyph unicode=")" horiz-adv-x="690" d="M-27 -430q51 57 135.5 189t147.5 252t131 300q131 348 131 663t-100 589q-37 96 -66 147l-30 51h165q76 -127 138 -401q41 -182 41 -377q0 -326 -117 -672q-90 -262 -254 -534q-61 -102 -102 -154l-39 -53h-181z" />
<glyph unicode="*" horiz-adv-x="901" d="M285 1159l12 82l295 59l-14 -151zM375 848l92 276l143 -34l-164 -267zM580 975l104 127l195 -187l-54 -65zM592 1468l84 33l117 -241l-150 -64zM698 1169l271 156l26 -72l-217 -198z" />
<glyph unicode="+" horiz-adv-x="1056" d="M205 653l24 152h349l55 350h151l-55 -350h352l-24 -152h-352l-56 -350h-151l55 350h-348z" />
<glyph unicode="," horiz-adv-x="548" d="M156 -180l10 65h4q57 0 70 64l8 51h-23q-45 0 -45 39q0 6 2 12l17 111q10 55 61 55h105q41 0 41 -41q0 -6 -3 -14l-28 -185q-8 -55 -35 -92q-49 -70 -150 -69q-8 0 -34 4z" />
<glyph unicode="-" horiz-adv-x="727" d="M123 518l24 152h644l-25 -152h-643z" />
<glyph unicode="." horiz-adv-x="555" d="M180 47l19 117q6 51 57 51h109q45 0 45 -37q0 -6 -2 -14l-19 -117q-8 -47 -57 -47h-109q-49 0 -43 47z" />
<glyph unicode="/" horiz-adv-x="819" d="M16 -147l848 1724h162l-848 -1724h-162z" />
<glyph unicode="0" horiz-adv-x="1314" d="M188 256q0 35 7 76l133 835q51 332 403 332h336q172 0 244 -98q53 -74 53 -170q0 -31 -6 -64l-133 -835q-29 -178 -126.5 -255t-269.5 -77h-335q-154 0 -240 80q-66 61 -66 176zM340 271.5q0 -25.5 6 -54.5t37 -44t54.5 -18t49.5 -3h367q188 0 219 180l133 835q4 27 4 66 t-28.5 77t-137.5 38h-335q-203 0 -230 -181l-133 -835q-6 -35 -6 -60.5z" />
<glyph unicode="1" horiz-adv-x="739" d="M274 1217l17 108q90 0 183 44t140 87l50 43h147l-233 -1499h-152l209 1305q-43 -33 -136.5 -60.5t-224.5 -27.5z" />
<glyph unicode="2" horiz-adv-x="1218" d="M96 0l23 139q315 195 590 410q180 139 297 282q141 172 141 330q0 205 -229 205h-621l18 113q328 41 631 41q195 0 279 -125q70 -104 69 -248q0 -145 -83 -281.5t-180 -238t-226 -205.5q-186 -154 -367 -270h697l-25 -152h-1014z" />
<glyph unicode="3" horiz-adv-x="1216" d="M100 43l17 96h610q86 0 161 48.5t91 142.5l20 121q8 29 8.5 47t-4 39.5t-5.5 44t-19 39t-29.5 24.5t-37 13.5t-43 6.5t-46.5 3l-495 14l20 119l500 20q215 10 246 203l22 141q4 23 4 41q0 145 -188 146h-637l14 94q172 59 500 59q78 0 162 -2q150 -4 233 -98 q68 -74 68 -180q0 -29 -4 -60l-23 -141q-39 -240 -180 -279q98 -55 98 -204q0 -41 -8 -90l-20 -121q-53 -344 -418 -344h-124t-100.5 1t-75 2t-65.5 4t-69.5 7t-61.5 10q-57 10 -121 33z" />
<glyph unicode="4" horiz-adv-x="1234" d="M113 459l821 1040h190l-753 -956h565l68 424l106 153h76l-92 -577h184l-18 -121l-191 -39l-59 -379h-158l59 379h-741z" />
<glyph unicode="5" horiz-adv-x="1234" d="M162 39l18 113h623q96 0 147 58t64 132l35 217q6 33 6 59q0 143 -156 144h-309q-68 0 -125 -39t-70 -115h-141l186 891h867l-25 -151h-721l-104 -496q61 68 288 68l177 -7q141 0 221 -98q61 -78 61 -188q0 -31 -4 -64l-35 -225q-31 -195 -130 -270.5t-259 -77.5h-131 q-209 0 -483 49z" />
<glyph unicode="6" horiz-adv-x="1271" d="M223 451q0 145 31 335q59 375 190 550t277 175q358 0 612 -38l-18 -113h-592q-61 0 -116.5 -56.5t-94.5 -144.5q-65 -155 -98 -325q371 43 500.5 43t183.5 -19q88 -33 131 -129q14 -37 14 -60.5t-4 -97.5l-41 -268q-49 -303 -379 -303h-301q-295 0 -295 451zM369 442 q0 -297 166 -297h305q70 0 133 37t78 133l39 256q4 27 4 64t-30 63.5t-130 26.5h-539q-26 -166 -26 -283z" />
<glyph unicode="7" horiz-adv-x="1118" d="M274 1348l25 151h940l39 -98l-764 -1401h-180l741 1348h-801z" />
<glyph unicode="8" horiz-adv-x="1294" d="M215 246.5q0 29.5 8 68.5l31 201q16 106 81.5 163.5t147.5 65.5q-63 21 -101 70t-45 89t-7 66.5t4 51.5l22 133q31 199 131.5 276.5t284.5 77.5h299q154 0 227 -92q55 -70 56 -178q0 -39 -6 -84l-23 -133q-6 -88 -84 -174q-47 -53 -117 -68q76 -25 105 -104 q20 -55 20 -95t-4 -65l-31 -201q-33 -207 -153 -266q-57 -31 -108.5 -40t-123.5 -9h-297q-98 0 -164.5 26.5t-96 61.5t-43 82t-13.5 76.5zM369 268q0 -55 36.5 -85.5t151.5 -30.5h297q74 0 134.5 36.5t72.5 120.5l35 215q2 18 2 35q0 55 -39 93t-113 38h-325 q-186 0 -213 -166l-35 -215q-4 -23 -4 -41zM479 975q0 -63 47 -99t117 -36h326q174 0 202 172l23 139q8 45 8 91t-22 73q-33 43 -133 43h-299q-123 0 -173.5 -47t-68.5 -160l-23 -139q-4 -21 -4 -37z" />
<glyph unicode="9" horiz-adv-x="1269" d="M176 39l19 113h591q61 0 116.5 56t92.5 144q68 156 101 326q-371 -43 -501 -43t-183 18q-88 33 -129 129q-16 37 -16.5 60.5t3.5 97.5l41 268q49 303 379 303h301q295 0 295 -450q0 -145 -31 -336q-59 -375 -190 -550t-277 -175q-408 0 -612 39zM416 876.5 q0 -36.5 29.5 -63.5t129.5 -27h539q27 166 27 283q0 297 -166 297h-305q-70 0 -133.5 -37t-77.5 -133l-39 -256q-4 -27 -4 -63.5z" />
<glyph unicode=":" horiz-adv-x="557" d="M180 47l19 117q6 51 57 51h109q45 0 45 -37q0 -6 -2 -14l-19 -117q-8 -47 -57 -47h-109q-49 0 -43 47zM319 911v11l19 116q6 52 57 52h109q45 0 45 -37q0 -6 -2 -15l-19 -116q-8 -47 -59 -48h-109q-41 0 -41 37z" />
<glyph unicode=";" horiz-adv-x="557" d="M156 -180l10 65h4q57 0 70 64l8 51h-23q-20 0 -33.5 16.5t-9.5 34.5l17 111q4 23 21.5 39t39.5 16h105q41 0 41 -41q0 -6 -3 -14l-28 -185q-8 -55 -35 -92q-49 -70 -150 -69q-8 0 -34 4zM324 924l18 116q6 52 57 52h109q45 0 45 -37q0 -6 -2 -15l-19 -116q-8 -47 -57 -47 h-108q-49 0 -43 47z" />
<glyph unicode="&#x3c;" horiz-adv-x="970" d="M203 643l26 164l820 332l-25 -164l-635 -258l551 -277l-27 -153z" />
<glyph unicode="=" horiz-adv-x="956" d="M109 434l26 152h875l-27 -152h-874zM174 862l27 152h874l-26 -152h-875z" />
<glyph unicode="&#x3e;" horiz-adv-x="972" d="M147 287l27 168l647 270l-565 270l27 144l714 -332l-24 -164z" />
<glyph unicode="?" horiz-adv-x="1105" d="M256 1368l18 105q119 16 167 21t117.5 12t92.5 7l144 5q41 0 63 -5q197 0 285 -108q70 -86 69 -199q0 -35 -6 -71l-32 -207q-53 -334 -402 -334q-68 0 -147 12l-19 -98q-16 -100 -14 -109h-154l51 332q96 -2 170 -2t140.5 3t137.5 52.5t87 143.5l33 207q6 35 6 63 q0 80 -48 125t-204 45h-555zM358 47l19 117q6 51 57 51h109q45 0 45 -37q0 -6 -2 -14l-19 -117q-8 -47 -57 -47h-109q-49 0 -43 47z" />
<glyph unicode="@" horiz-adv-x="1777" d="M125 -57q0 37 6 75l166 1049q59 365 420 365h768q168 0 239 -95q53 -70 54 -182q0 -41 -6 -88l-109 -725q-25 -170 -102 -248q-33 -33 -96.5 -60.5t-147.5 -27.5h-111l-47 123q-125 -137 -318.5 -137t-275.5 121q-55 80 -55 239q0 92 21.5 232.5t72.5 255t117 172.5 q117 102 248 102q332 0 465 -127l-121 -829q86 0 133 34.5t65 149.5l109 725q6 41 6 74q0 115 -74 133q-20 4 -47.5 4h-29.5h-783q-209 0 -243 -211l-166 -1049q-6 -35 -7 -63q0 -170 181 -170h790l-16 -96q-276 -55 -598 -56h-201q-158 0 -244 109q-63 84 -63 201zM662 347 q0 -79 22 -124q35 -80 168 -80q82 0 152.5 26t166.5 97l105 666q-123 33 -305 33q-242 -1 -297 -445q-12 -94 -12 -173z" />
<glyph unicode="A" d="M92 0l789 1499h151l289 -1499h-154l-80 418h-608l-221 -418h-166zM559 569h500l-129 717z" />
<glyph unicode="B" horiz-adv-x="1222" d="M164 0l237 1499h580q106 0 180 -37q154 -76 154 -297q0 -29 -4 -61q-33 -266 -244 -326q57 -10 101 -96t44 -190q0 -39 -4 -80q-51 -412 -465 -412h-579zM342 152h426q244 0 287 270q6 37 6 92t-35 113q-49 84 -170 84h-426zM455 862h426q238 0 276 248q6 39 6 70 q0 82 -45 125t-157 43h-429z" />
<glyph unicode="C" horiz-adv-x="1183" d="M215 522q0 106 26.5 265t67.5 290t110.5 235.5t176 154t266.5 49.5t481 -62l-18 -121q-233 31 -442 31q-80 0 -101.5 -1t-67.5 -12.5t-74 -33t-71 -66.5t-71 -108q-74 -160 -102.5 -340t-28.5 -251t2 -106q10 -131 75.5 -215t182.5 -92q41 -2 145.5 -2t372.5 19l-17 -121 q-174 -47 -510 -47q-113 0 -193.5 47t-125.5 121q-84 145 -84 366z" />
<glyph unicode="D" horiz-adv-x="1368" d="M164 0l237 1497q1 2 560 2q131 0 223 -55t135 -137q76 -143 76 -361q0 -98 -21 -203q-129 -743 -651 -743h-559zM340 158h408q188 0 311 169t164 418q20 127 20 248t-43 207q-70 147 -264 148h-408z" />
<glyph unicode="E" horiz-adv-x="1161" d="M197 197q0 25 4 55l155 981q44 266 277 266h24l643 -33l-18 -118h-649q-66 0 -91.5 -31t-33.5 -84l-66 -410l672 -20l-20 -121l-676 -20l-66 -410q-1 -14 -1 -26q0 -56 30 -68q33 -12 84 -13h629l-21 -116l-635 -35h-18q-100 0 -161.5 54t-61.5 149z" />
<glyph unicode="F" horiz-adv-x="1163" d="M164 0l194 1233q44 266 277 266h24l644 -33l-19 -118h-649q-66 0 -91.5 -31t-33.5 -84l-64 -410l670 -20l-18 -121l-678 -20l-105 -662h-151z" />
<glyph unicode="G" horiz-adv-x="1247" d="M219 533.5q0 103.5 26.5 257t67.5 284.5t113 236q134 202 429 202h3h10q147 0 463 -59l-16 -121q-143 20 -319.5 23.5t-200 5.5t-50 -5t-54 -14.5t-56.5 -30t-55.5 -51t-53 -76.5t-51.5 -108q-49 -125 -72.5 -284.5t-23.5 -273t35 -212.5q57 -170 223 -170h4q72 0 171 28 t163 56l63 29l70 393h-346l16 102q195 51 367 52q63 0 137 -6l-125 -791h-117l-20 117q-53 -49 -169 -90t-226.5 -41t-190.5 47q-147 86 -192 299q-23 98 -23 201.5z" />
<glyph unicode="H" horiz-adv-x="1318" d="M174 0l238 1499h151l-112 -698h716l113 698h152l-238 -1499h-152l105 649h-717l-104 -649h-152z" />
<glyph unicode="I" horiz-adv-x="460" d="M184 0l238 1499h151l-237 -1499h-152z" />
<glyph unicode="J" horiz-adv-x="737" d="M78 43l26 111q125 -31 174.5 -31t77 8t64.5 29q72 41 94 178l184 1161h152l-184 -1161q-35 -231 -154 -301q-86 -49 -215 -49q-143 0 -219 55z" />
<glyph unicode="K" horiz-adv-x="1171" d="M164 0l237 1499h152l-107 -672h179l563 672h188l-622 -758l385 -741h-183l-346 676h-186l-107 -676h-153z" />
<glyph unicode="L" horiz-adv-x="1095" d="M199 203q0 25 4 55l200 1241h150l-199 -1241q-3 -17 -3 -31q0 -50 34 -63q31 -12 82 -12h627l-23 -152h-631q-117 0 -179 55.5t-62 147.5z" />
<glyph unicode="M" horiz-adv-x="1642" d="M145 0l336 1499h197l209 -1247l590 1247h206l-122 -1499h-152l107 1227l-584 -1227h-156l-203 1225l-276 -1225h-152z" />
<glyph unicode="N" d="M164 0l237 1499h148l571 -1216l193 1216h151l-237 -1499h-144l-573 1217l-193 -1217h-153z" />
<glyph unicode="O" horiz-adv-x="1366" d="M211 417q0 54 1 116.5t28.5 237.5t76 317.5t102.5 225.5t137 127t162 56t180 12t163.5 -7t124 -27.5t102.5 -55.5q94 -82 121 -231q10 -70 10 -124t-1 -117.5t-24.5 -217.5t-58.5 -274.5t-83 -202.5t-100 -134t-124 -81q-123 -45 -311 -45q-260 0 -365 78 q-98 76 -127 223q-14 70 -14 124zM360 417q0 -52 18.5 -116.5t69 -99.5t112 -46.5t171 -11.5t185 21.5t143.5 85.5q129 121 184 489q27 164 27 275.5t-13.5 158t-26.5 77t-43 52t-52.5 33t-65.5 17.5q-63 6 -146 6t-121 -2t-94.5 -13.5t-87 -35t-70.5 -67.5t-65.5 -110.5 t-51 -164t-48.5 -240.5t-24 -199.5t-1 -108.5z" />
<glyph unicode="P" horiz-adv-x="1218" d="M154 0l237 1499h627q143 0 231 -102q68 -76 68 -223q0 -217 -94 -400q-41 -80 -129 -131q-61 -33 -215 -33q-59 0 -260 15.5t-209 19.5l-105 -645h-151zM426 762h473q98 0 162.5 59.5t93.5 243.5q8 41 8 64.5t-3 51t-7 57.5t-20.5 50.5t-29.5 31.5t-36 17q-31 8 -74 9 h-475z" />
<glyph unicode="Q" horiz-adv-x="1374" d="M219 417q0 54 1 116.5t28.5 237.5t76 317.5t102.5 225.5t137 127t162 56t180.5 12t164 -7t123.5 -27.5t102 -55.5q94 -82 121 -231q10 -70 10 -124t-1 -117.5t-24.5 -217.5t-58 -274.5t-83 -202.5t-100.5 -134t-124 -81q-123 -45 -311 -45q-260 0 -365 78 q-98 76 -127 223q-14 70 -14 124zM369 417q0 -52 18.5 -116.5t68.5 -99.5t111.5 -46.5t171 -11.5t185 21.5t143.5 85.5q129 121 184 489q27 164 27 275.5t-13.5 158t-26.5 77t-43 52t-52.5 33t-65.5 17.5q-63 6 -146 6t-121 -2t-94.5 -13.5t-87 -35t-70.5 -67.5 t-65.5 -110.5t-51 -164t-48 -240.5t-23.5 -199.5t-1 -108.5zM633 -68h106q89 -72 176 -72h1q88 1 161 31l-26 -163q-68 -18 -114 -18.5t-65 -0.5q-92 6 -165.5 66.5t-73.5 156.5z" />
<glyph unicode="R" horiz-adv-x="1249" d="M154 0l237 1499h639q281 0 281 -346q0 -49 -6 -104q-39 -391 -326 -431l217 -618h-166l-203 602l-421 29l-101 -631h-151zM428 762h475q96 0 166 66.5t82 220.5q6 47 6 79.5t-5 70.5t-12 71t-30 49q-39 27 -104 27h-486z" />
<glyph unicode="S" horiz-adv-x="1169" d="M162 33l18 123q148 -21 506 -21q264 0 293 184l22 140q7 45 7 85q0 39 -15 66q-25 49 -131 49h-284q-315 0 -316 263q0 43 8 90l21 135q37 229 168 305q106 59 254 59q207 0 542 -49l-18 -121l-508 19h-33q-106 0 -169.5 -38t-84.5 -175l-20 -135q-6 -43 -6 -76t6 -53.5 t17.5 -36t25.5 -21.5t32.5 -10t39.5 -4h350q90 0 151.5 -31.5t85.5 -83.5q37 -76 37 -137t-8 -100l-23 -140q-14 -90 -53 -154.5t-84 -98t-108 -54.5q-98 -29 -210 -29q-2 1 -4 1q-114 0 -278 17t-231 32z" />
<glyph unicode="T" horiz-adv-x="1185" d="M285 1348l24 151h1041l-25 -151h-451l-212 -1348h-152l213 1348h-438z" />
<glyph unicode="U" horiz-adv-x="1343" d="M260 618l139 881h154l-139 -881q-16 -125 -16.5 -175t-0.5 -62q4 -94 47 -147.5t102.5 -73t158.5 -19.5q205 0 312 105.5t148 371.5l140 881h153l-139 -881q-16 -106 -34.5 -178.5t-62.5 -166t-106.5 -148.5t-171 -95t-252.5 -40q-260 0 -373 149q-75 101 -75 284 q0 91 16 195z" />
<glyph unicode="V" horiz-adv-x="1372" d="M307 1499h160l238 -1255l657 1255h174l-788 -1499h-152z" />
<glyph unicode="W" horiz-adv-x="2052" d="M307 1499h154l239 -1251l662 1251h172l-266 -516l121 -747l661 1263h166l-789 -1499h-151l-125 766l-403 -766h-152z" />
<glyph unicode="X" horiz-adv-x="1230" d="M78 0l565 745l-334 754h160l274 -620l469 620h183l-584 -772l322 -727h-160l-262 594l-451 -594h-182z" />
<glyph unicode="Y" horiz-adv-x="1290" d="M307 1499h160l262 -780l545 780h180l-672 -967l-84 -532h-151l84 532z" />
<glyph unicode="Z" horiz-adv-x="1155" d="M72 0l24 152l1000 1196h-811l24 151h1010l-25 -151l-999 -1196h811l-25 -152h-1009z" />
<glyph unicode="[" horiz-adv-x="657" d="M152 -166q0 55 8 88l235 1487q25 156 92.5 235.5t237.5 79.5h164l-25 -151h-164q-63 0 -100 -35t-53 -129l-236 -1487q-8 -66 -8 -106.5t8 -57.5q18 -37 97 -37h163l-24 -151h-164q-88 0 -143.5 39t-69.5 94q-18 76 -18 131z" />
<glyph unicode="\" horiz-adv-x="800" d="M289 1577h145l303 -1724h-145z" />
<glyph unicode="]" horiz-adv-x="659" d="M-27 -430l25 151h164q63 0 100 35t53 129l236 1487q10 66 10 107t-10 57q-18 37 -96 37h-164l24 151h164q88 0 143.5 -38.5t69.5 -94.5q20 -76 20.5 -131t-10.5 -88l-235 -1487q-25 -156 -92.5 -235.5t-237.5 -79.5h-164z" />
<glyph unicode="^" horiz-adv-x="802" d="M274 1087l283 269h145l170 -269h-141l-106 164l-179 -164h-172z" />
<glyph unicode="_" horiz-adv-x="1378" d="M39 -2l24 152h1299l-25 -152h-1298z" />
<glyph unicode="`" horiz-adv-x="520" d="M256 1360h178l217 -273h-141z" />
<glyph unicode="a" horiz-adv-x="1107" d="M162 336q0 98 24.5 244.5t72.5 256t113.5 163t123 77t112 29.5t120 6t208.5 -30.5t217 -100.5l-143 -981h-109l-22 123q-209 -137 -381 -137q-207 0 -277 106q-59 94 -59 244zM315 342q0 -76 21 -121q39 -84 153.5 -84t194.5 22.5t205 76.5l106 690q-152 41 -231.5 41 t-125.5 -9.5t-73.5 -17.5t-69.5 -35.5t-68 -72t-52.5 -125t-43 -185t-16.5 -180.5z" />
<glyph unicode="b" horiz-adv-x="1134" d="M123 0l254 1608h147l-92 -586q216 82 404 82q301 0 301 -363q0 -143 -50 -360q-14 -61 -48.5 -146t-77.5 -135.5t-112 -81t-149 -30.5q-104 0 -235 49t-174 84l-60 -121h-108zM309 233q219 -94 387 -94q113 0 176.5 99.5t89 270.5t25.5 257q0 186 -164 186 q-195 0 -407 -53z" />
<glyph unicode="c" horiz-adv-x="1015" d="M164 320.5q0 115.5 25.5 263t71.5 265.5t108.5 170t118 67.5t177 15.5t420.5 -58l-16 -110q-283 16 -395.5 16t-138 -5t-57.5 -26.5t-54 -64.5q-49 -94 -81 -261t-32 -245q0 -211 164 -211q193 0 406 17l80 6l-19 -115q-215 -57 -455 -57q-186 0 -272 135 q-51 82 -51 197.5z" />
<glyph unicode="d" horiz-adv-x="1130" d="M168 380q0 93 17.5 187.5t45 184.5t76.5 176t131 131t175.5 45t207 -22.5t199.5 -59.5l94 586h148l-256 -1608h-109l-20 121q-61 -41 -184.5 -87t-220.5 -46t-168 51t-97 131q-39 117 -39 210zM319 373q0 -73 21 -129q39 -104 141 -105q170 0 414 94l104 666 q-195 53 -393 53q-100 0 -166.5 -88.5t-105.5 -324.5q-15 -91 -15 -166z" />
<glyph unicode="e" horiz-adv-x="1075" d="M182 568q26 144 56 229.5t88 163.5q109 147 397 147q207 0 309 -72q86 -59 86 -184q0 -164 -102 -266q-80 -82 -185 -111q-135 -37 -293 -37t-221 27q-16 -96 -16 -160.5t14 -99.5q33 -72 144 -74q53 -4 166.5 -4t343.5 33l-17 -115q-217 -59 -512 -59q-195 0 -254 141 q-31 73 -31 182q0 112 27 259zM334 575q78 -6 112.5 -6t115.5 3t162 21.5t153 70.5q90 61 90 174q0 66 -50.5 92t-180.5 26t-201.5 -24.5t-109.5 -87t-52 -101.5q-23 -68 -39 -168z" />
<glyph unicode="f" horiz-adv-x="825" d="M188 936l19 113l213 38l12 74q41 252 111.5 349.5t242.5 97.5q86 0 244 -49l-14 -101h-230q-102 0 -139 -57.5t-63 -239.5l-13 -74h338l-24 -151h-340l-156 -936h-151l153 936h-203z" />
<glyph unicode="g" horiz-adv-x="1132" d="M76 -508l16 100h529q76 0 133 50.5t71 144.5l43 272q-202 -78 -362 -78q-1 0 -2 1q-162 0 -244 78.5t-88 207.5q-2 31 -2 100.5t16 194.5q41 256 160 396.5t291 140.5q174 0 346 -22.5t195 -24.5l-201 -1266q-29 -180 -131.5 -263t-216.5 -83q-16 0 -33 2zM318 380 q-1 -5 -1 -9q0 -78 9 -105q8 -30 26 -65q33 -70 144 -70q182 0 391 51l123 766h-373q-76 0 -135.5 -47t-91.5 -121q-54 -120 -72 -231q-20 -84 -20 -169z" />
<glyph unicode="h" horiz-adv-x="1114" d="M123 0l254 1606h151l-102 -645q100 68 254 116q82 29 172 29q156 0 229 -102q57 -78 58 -181q0 -33 -6 -65l-121 -758h-152l121 758q4 25 4 47q0 63 -37 106t-117.5 43t-152.5 -16t-117 -33.5t-153 -66.5l-134 -838h-151z" />
<glyph unicode="i" horiz-adv-x="399" d="M123 0l172 1087h151l-172 -1087h-151zM299 1251v11l16 110q7 51 58 51h102q41 0 41 -37q0 -6 -2 -14l-16 -110q-6 -47 -56 -48h-102q-41 0 -41 37z" />
<glyph unicode="j" horiz-adv-x="444" d="M57 -553l260 1640h152l-174 -1095q-47 -317 -139 -545h-99zM322 1262l18 110q6 51 57 51h103q41 0 41 -37q0 -6 -2 -14l-19 -110q-6 -47 -55 -48h-103q-40 0 -40 35v13z" />
<glyph unicode="k" horiz-adv-x="1003" d="M123 0l254 1602h151l-151 -955q143 43 322.5 186.5t201.5 253.5h170q-43 -150 -196.5 -296t-280.5 -201l412 -590h-185l-381 549l-78 -2l-88 -547h-151z" />
<glyph unicode="l" horiz-adv-x="593" d="M172 266q0 55 10 121l193 1217h151l-192 -1217q-12 -66 -12 -105.5t4 -61t18 -36.5q25 -23 125 -46t102 -23l-18 -115h-139q-242 0 -242 266z" />
<glyph unicode="m" horiz-adv-x="1839" d="M123 0l172 1087h106l25 -131q12 6 74.5 40t83 43.5t69.5 28.5t91 25.5t113 6.5t145.5 -50.5t97.5 -125.5q242 176 475 176q135 0 219 -101q68 -76 68 -184q0 -31 -7 -65l-118 -750h-152l119 750q4 20 4 41q0 59 -41 108t-117 49q-129 0 -218 -24.5t-202 -89.5l-131 -834 h-151l119 750q4 20 4 38q0 61 -42 110.5t-118 49.5q-61 0 -93 -5t-46.5 -7t-42 -11.5t-37.5 -11.5t-44 -16t-41 -17t-49 -22.5t-52 -23.5l-132 -834h-151z" />
<glyph unicode="n" horiz-adv-x="1114" d="M123 0l172 1087h106l25 -126q100 68 254 116q82 29 172 29q156 0 229 -102q57 -78 58 -181q0 -33 -6 -65l-121 -758h-152l121 758q4 25 4 45q0 66 -38 108.5t-117.5 42.5t-151.5 -16t-117 -33.5t-153 -66.5l-134 -838h-151z" />
<glyph unicode="o" horiz-adv-x="1155" d="M182 528q51 330 172 450t384 120t358 -140q61 -92 61 -247q0 -82 -16 -183q-51 -307 -165 -422.5t-379 -115.5t-364 125q-65 83 -65 240q0 81 14 173zM317 367.5q0 -60.5 13.5 -99.5t34 -65.5t59.5 -38.5q63 -23 165.5 -23t155 10.5t105.5 48.5t85 117.5t52.5 199.5 t20.5 210t-33 137q-57 82 -246 82q-96 0 -151.5 -12t-106.5 -55t-82 -126t-51.5 -204t-20.5 -181.5z" />
<glyph unicode="p" horiz-adv-x="1144" d="M35 -553l272 1620q225 27 518 27q319 0 320 -404q0 -346 -154 -555q-108 -151 -298 -151h-3q-82 0 -201.5 19.5t-203.5 55.5l-101 -612h-149zM307 184q160 -53 283 -53t174 22.5t92 61.5q84 76 125 324q14 90 14 159q0 244 -178 244h-383z" />
<glyph unicode="q" horiz-adv-x="1132" d="M170 362.5q0 69.5 16 186.5q88 551 465 551q174 0 339 -22.5t188 -24.5l-254 -1606h-152l96 612q-208 -80 -366 -80q-1 0 -2 1q-158 0 -238 75.5t-90 202.5q-2 35 -2 104.5zM317 338.5q0 -62.5 7 -86.5q27 -121 174 -121q182 0 391 51l121 766h-383q-72 0 -128.5 -42 t-88 -110.5t-48 -127t-31 -163t-14.5 -167z" />
<glyph unicode="r" horiz-adv-x="874" d="M123 0l172 1087h106l23 -137q12 6 56 30t60.5 32t55.5 26.5t62.5 25.5t59.5 17.5t68.5 14.5t109.5 4t108 -17l-25 -149q-49 12 -138 12t-162 -16.5t-118 -34.5t-155 -68l-132 -827h-151z" />
<glyph unicode="s" horiz-adv-x="1040" d="M131 18l19 113h561q6 -1 13 -1q33 0 68 26q42 30 50 86l18 110q4 18 4 42t-17.5 47.5t-82.5 23.5h-303q-152 0 -210 53t-58 146q0 33 6 69l16 105q23 137 97.5 203.5t249.5 66.5t509 -33l-18 -117h-535q-115 0 -141 -81q-6 -16 -10 -39l-17 -105q-8 -27 -4 -45t4 -31.5 t11.5 -20.5t15.5 -12.5t19.5 -6.5t21.5 -2t22.5 0t22.5 1h307q131 0 188.5 -65.5t57.5 -149.5q0 -23 -4 -49l-19 -129q-25 -160 -125 -207q-78 -36 -177 -36h-5q-195 0 -555 38z" />
<glyph unicode="t" horiz-adv-x="774" d="M188 938l19 115l209 37l84 303h114l-47 -303h318l-25 -152h-317l-86 -551q-6 -78 -9.5 -103.5t-3.5 -45t14.5 -41t31 -29.5t109.5 -30.5t95 -22.5l-16 -115h-139q-244 0 -244 262q0 55 10 125l86 551h-203z" />
<glyph unicode="u" horiz-adv-x="1112" d="M150 258q0 33 6 72l118 757h152l-119 -757q-4 -31 -4 -56q0 -141 158 -141q137 0 266 51q45 16 154 66l131 837h151l-172 -1087h-106l-25 127q-47 -29 -81 -44t-68.5 -32.5t-52 -24t-50.5 -17.5t-55 -15q-72 -12 -117 -12q-158 0 -231 98q-55 74 -55 178z" />
<glyph unicode="v" horiz-adv-x="1054" d="M193 1087h157l213 -901l381 738q41 84 53 163h121q15 -45 15 -92q0 -46 -25 -96l-469 -899h-190z" />
<glyph unicode="w" horiz-adv-x="1634" d="M193 1087h151l207 -890l383 721q41 84 53 163h111q14 -43 14 -90t-25 -98l-59 -133l111 -551l397 715q41 84 53 163h113q14 -47 14 -94t-24 -94l-506 -899h-150l-118 573l-302 -573h-167z" />
<glyph unicode="x" horiz-adv-x="1073" d="M49 0l481 549l-309 538h174l240 -417l366 417h195l-481 -557l303 -530h-174l-236 410l-354 -410h-205z" />
<glyph unicode="y" horiz-adv-x="1124" d="M193 1087h157l131 -849q8 -45 41 -63.5t49.5 -18.5h18.5l31 2l395 770q37 70 51 164h125q12 -39 12 -88.5t-30 -108.5l-453 -893q-135 -264 -248 -393t-272 -160v109q117 78 207 211q72 106 135 231q-53 0 -105 29q-96 53 -116 196z" />
<glyph unicode="z" horiz-adv-x="933" d="M92 2l19 152l706 782h-604l20 151h811l-20 -151l-694 -782h565l-23 -152h-780z" />
<glyph unicode="{" horiz-adv-x="655" d="M137 635l23 137h45q106 0 137 39q14 18 18 49l76 483q61 381 451 381l-25 -151h-8q-229 0 -266 -230l-76 -483q-12 -70 -67.5 -114t-135.5 -58q72 -10 110 -55t38 -94q0 -12 -2 -25l-82 -508q-8 -55 -8 -98q0 -186 184 -187h20l-24 -151q-139 0 -221 68q-111 94 -111 266 q0 49 8 102l82 500q2 10 2 18q0 49 -47 80t-106 31h-15z" />
<glyph unicode="|" horiz-adv-x="501" d="M152 -147l272 1724h151l-272 -1724h-151z" />
<glyph unicode="}" horiz-adv-x="645" d="M-27 -430l25 151h8q227 0 264 230l78 483q12 70 66.5 114t134.5 58q-72 10 -109 55.5t-37 94.5q0 12 3 24l81 508q9 55 9 98q0 186 -185 187h-20l24 151q139 0 222 -67q111 -94 110 -266q0 -49 -8 -103l-82 -500q-2 -10 -2 -18q0 -49 47 -80t107 -31h14l-23 -137h-45 q-106 0 -137 -39q-14 -18 -18 -49l-78 -483q-61 -381 -449 -381z" />
<glyph unicode="~" horiz-adv-x="897" d="M287 1171q16 12 61 48t66 51q66 41 123 41t116.5 -36t100.5 -36q82 0 204 82l31 -86q-6 -4 -49 -42t-66 -54q-76 -51 -133 -51.5t-120.5 35.5t-100.5 36t-67.5 -11t-69.5 -30.5t-66 -30.5z" />
<glyph unicode="&#xa1;" horiz-adv-x="555" d="M92 -551l195 1088h153l-149 -1088h-199zM301 788l16 111q6 43 58 47h100q18 -2 30.5 -17.5t10.5 -35.5l-16 -105q-10 -41 -49 -51h-115q-39 2 -35 51z" />
<glyph unicode="&#xa2;" horiz-adv-x="1001" d="M145 350q0 86 22.5 218t60.5 238.5t78 166t98.5 90.5t98.5 36t73.5 5t64.5 -2l33 196h123l-35 -206q158 -18 307 -48l-18 -110q-283 16 -395.5 16t-138 -5t-57.5 -26.5t-54 -64.5q-49 -94 -81 -261t-32 -245q0 -211 164 -211q193 0 405 17l80 6l-18 -115 q-164 -45 -336 -55l-27 -187h-123l27 185q-319 4 -320 362z" />
<glyph unicode="&#xa3;" horiz-adv-x="1220" d="M102 0l19 121l153 31l82 524h-147l14 92l154 35l37 231q43 276 166 375q43 33 78.5 50.5t93.5 27.5q82 12 194.5 12.5t331.5 -24.5l72 -9l-19 -116h-383q-205 0 -277.5 -58.5t-105.5 -257.5l-37 -231l549 -35l-14 -92h-555l-82 -524h715l-25 -152h-1014z" />
<glyph unicode="&#xa4;" horiz-adv-x="952" d="M162 362l106 91q-41 75 -41 147q0 23 4 45q16 117 76 186l-76 91l95 73l71 -86q94 61 212 61.5t194 -65.5l115 96l69 -96l-113 -96q31 -61 31 -107.5t-4 -72.5q-16 -117 -80 -195l90 -108l-98 -76l-82 100q-80 -55 -196.5 -55t-192.5 61l-106 -92zM352 602q0 -66 47 -123 q47 -59 136 -59q201 0 245 213q4 23 4 43q0 59 -44 116.5t-136 57.5q-104 0 -168 -59q-84 -76 -84 -189z" />
<glyph unicode="&#xa5;" horiz-adv-x="1230" d="M217 313l19 121h337l15 103h-336l20 120h326l-319 842h159l262 -682l543 682h182l-663 -842h385l-21 -120h-387l-14 -103h385l-18 -121h-381l-41 -313h-152l41 313h-342z" />
<glyph unicode="&#xa6;" horiz-adv-x="503" d="M152 -147l106 671h152l-107 -671h-151zM313 879l111 698h151l-110 -698h-152z" />
<glyph unicode="&#xa7;" horiz-adv-x="1128" d="M190 23l19 112h545q63 0 99 17.5t46 72.5l23 150q4 18 4 42.5t-19.5 39t-87.5 14.5h-354q-123 0 -182.5 56.5t-59.5 140.5q0 27 4 55l21 127q12 82 39.5 128t81.5 62q-70 47 -70 121q0 23 4 47l23 144q41 254 305 254q195 0 555 -39l-17 -113h-561q-57 0 -89 -22.5 t-42 -79.5l-22 -144q-2 -12 -2 -22q0 -74 100 -74h367q127 0 180 -64.5t53 -144.5q0 -25 -4 -51l-21 -127q-25 -170 -112 -182q61 -25 61 -115q0 -25 -4 -53l-22 -150q-25 -150 -91.5 -195.5t-237.5 -45.5t-532 39zM373 678q0 -25 19.5 -40t82.5 -15h367q88 0 110 30 q18 25 25 72l20 127q6 31 7 59q0 51 -107 52h-367q-70 0 -95 -20.5t-38 -94.5l-20 -125q-4 -20 -4 -45z" />
<glyph unicode="&#xa8;" horiz-adv-x="933" d="M289 1163q0 66 40 98.5t83 32.5t65.5 -26.5t22.5 -46.5q0 -66 -39 -100t-82 -34t-66.5 28t-23.5 48zM811 1163q0 66 40 98.5t83 32.5t65.5 -26.5t22.5 -46.5q0 -66 -39 -100t-82 -34t-66.5 28t-23.5 48z" />
<glyph unicode="&#xa9;" horiz-adv-x="1648" d="M211 580q0 92 14 174q113 745 584 745h532q113 0 188 -54t107 -134q47 -113 47 -307q0 -102 -23.5 -254t-66.5 -282t-107.5 -237.5t-156.5 -169t-205 -61.5h-532q-113 0 -191.5 58.5t-117.5 142.5q-72 162 -72 379zM340 610.5q0 -55.5 3 -122t27.5 -155.5t83 -145.5 t142.5 -56.5h545q127 0 235 160q131 199 176 622q4 55 4 98.5t-1 98.5t-20 114.5t-67.5 101.5t-126.5 42h-553q-154 0 -266.5 -135t-165.5 -479q-16 -88 -16 -143.5zM571 574q0 92 15 174q41 254 133 350t231 96q90 0 357 -49l-17 -107q-170 25 -360 25q-164 0 -215 -322 q-17 -70 -17 -127q0 -182 131 -182q147 0 383 33l-16 -107q-213 -57 -387 -57q-131 0 -195 111q-43 70 -43 162z" />
<glyph unicode="&#xaa;" horiz-adv-x="757" d="M147 549l19 119h622l-18 -119h-623zM223 1042.5q0 47.5 6 104.5q55 354 369 354q41 0 148.5 -24.5t154.5 -69.5l-92 -627h-70l-20 115q-41 -45 -117 -84t-135 -39t-102 16.5t-83 57.5t-49.5 95t-9.5 101.5zM346 1047q0 -145 123 -146q63 0 118.5 25.5t139.5 81.5l47 342 q-106 27 -158.5 26.5t-82 -7.5t-51 -17.5t-50.5 -36.5q-59 -51 -80 -197q-6 -38 -6 -71z" />
<glyph unicode="&#xab;" horiz-adv-x="1138" d="M217 725l488 416l94 -111l-375 -319l268 -316l-110 -96zM606 725l488 416l94 -111l-375 -319l268 -316l-110 -96z" />
<glyph unicode="&#xac;" horiz-adv-x="1079" d="M184 524l25 152h874l-55 -350h-151l30 198h-723z" />
<glyph unicode="&#xad;" horiz-adv-x="727" d="M123 518l24 152h644l-25 -152h-643z" />
<glyph unicode="&#xae;" horiz-adv-x="1648" d="M211 580q0 92 14 174q113 745 584 745h532q113 0 188 -54t107 -134q47 -113 47 -307q0 -102 -23.5 -254t-66.5 -282t-107.5 -237.5t-156.5 -169t-205 -61.5h-532q-113 0 -191.5 58.5t-117.5 142.5q-72 162 -72 379zM340 610.5q0 -55.5 3 -122t27.5 -155.5t83 -145.5 t142.5 -56.5h545q127 0 235 160q131 199 176 622q4 55 4 98.5t-1 98.5t-20 114.5t-67.5 101.5t-126.5 42h-553q-154 0 -266.5 -135t-165.5 -479q-16 -88 -16 -143.5zM578 313l139 875h362q94 0 166 -53q70 -49 70 -168q0 -137 -62 -230q-16 -25 -46.5 -42t-45.5 -21 q-57 -16 -88 -17l131 -344h-147l-131 349l-158 24l-59 -373h-131zM782 776h244q80 0 109.5 29t44.5 119q4 25 4 43t-5 39.5t-28 33.5q-33 16 -80 17h-244z" />
<glyph unicode="&#xaf;" horiz-adv-x="802" d="M274 1087l21 130h598l-21 -130h-598z" />
<glyph unicode="&#xb0;" horiz-adv-x="614" d="M303 1294q0 88 61.5 149.5t147.5 61.5t146.5 -61.5t60.5 -149.5t-60.5 -148.5t-146.5 -60.5t-147.5 60.5t-61.5 148.5zM399 1294q0 -45 33 -77.5t79 -32.5t79 32.5t33 78.5t-33 79t-78 33t-79 -34t-34 -79z" />
<glyph unicode="&#xb1;" horiz-adv-x="1077" d="M141 178l25 152h852l-25 -152h-852zM240 793l22 151h348l56 350h151l-55 -350h352l-22 -151h-353l-57 -351h-152l58 351h-348z" />
<glyph unicode="&#xb2;" horiz-adv-x="788" d="M154 729l18 119q16 12 93 64.5t124 86t122 95t121 109.5t86 110.5t46 103.5t6 76t-23.5 65.5t-109.5 30.5h-352q-6 0 10 74l4 23q258 31 361.5 30.5t158.5 -53.5q86 -80 86 -186q0 -20 -4 -39q-16 -106 -89 -213t-147.5 -170.5t-157.5 -126t-93 -72.5h393l-21 -127h-632z " />
<glyph unicode="&#xb3;" horiz-adv-x="829" d="M156 758l16 88l363 2q145 0 165 125l9 47q4 18 4 35q0 102 -121 106l-289 10l16 99l293 12q143 6 162 131l6 45q2 18 2 46t-21.5 52.5t-101.5 24.5h-380l14 88q111 37 354 37h49q113 -2 163 -64.5t50 -136.5q0 -18 -2 -39l-12 -71q-12 -72 -46 -124.5t-77 -68.5 q66 -47 66 -145q0 -16 -2 -35l-9 -57q-18 -119 -83.5 -181.5t-204.5 -62.5h-11.5h-44.5h-86t-50 1t-37.5 3t-42 5t-38.5 7q-31 6 -73 21z" />
<glyph unicode="&#xb4;" horiz-adv-x="495" d="M213 1087l262 273h195l-316 -273h-141z" />
<glyph unicode="&#xb5;" horiz-adv-x="1216" d="M96 -553l260 1640h152l-121 -757q-4 -24 -4 -47q0 -63 38 -106.5t117.5 -43.5t151.5 16.5t117 34t154 66.5l133 837h151l-172 -1087h-106l-25 127q-100 -68 -254 -119q-82 -27 -180 -26.5t-168 51.5l-92 -586h-152z" />
<glyph unicode="&#xb6;" horiz-adv-x="1189" d="M238 975q0 23 4 47l28 190q45 287 369 287h747l-24 -156h-141l-213 -1343h-152l213 1348h-192l-302 -1901h-151l209 1315q-2 0 -17.5 -7t-29.5 -14q-47 -14 -78 -14q-154 0 -219 92q-51 72 -51 156zM391 987q0 -109 141 -108h117l76 475h-111q-170 0 -190 -146l-29 -182 q-4 -23 -4 -39z" />
<glyph unicode="&#xb7;" horiz-adv-x="555" d="M287 725l18 117q6 51 57 51h109q45 0 45 -37q0 -6 -2 -14l-18 -117q-8 -47 -58 -47h-108q-49 0 -43 47z" />
<glyph unicode="&#xb8;" horiz-adv-x="514" d="M45 -354l12 75l113 31q72 29 94 172h137q-25 -160 -77.5 -219t-173.5 -59h-105z" />
<glyph unicode="&#xb9;" horiz-adv-x="567" d="M236 1485l14 86q74 0 147.5 33.5t110.5 68.5l39 35h123l-156 -979h-127l133 825q-89 -69 -284 -69z" />
<glyph unicode="&#xba;" horiz-adv-x="794" d="M170 555l18 119h629l-18 -119h-629zM227 1020q0 49 11 106q35 217 112 299q80 86 265 86t257 -84q51 -59 52 -178q0 -55 -11 -123q-33 -203 -111.5 -283.5t-267 -80.5t-258.5 86q-49 61 -49 172zM356 1039q0 -38 3 -62.5t18.5 -41.5t26 -25.5t38.5 -12.5q37 -8 93.5 -8 t84 3t66.5 23q72 37 100 211q12 78 12.5 117t-8 64.5t-18.5 41t-39 23.5q-43 12 -111.5 12t-101.5 -5t-67.5 -29.5t-54 -77.5t-31 -124t-11.5 -109z" />
<glyph unicode="&#xbb;" horiz-adv-x="1132" d="M166 410l375 319l-269 315l111 97l365 -426l-488 -416zM563 410l375 319l-268 315l110 97l365 -426l-488 -416z" />
<glyph unicode="&#xbc;" horiz-adv-x="1849" d="M236 1280l14 86q74 0 147.5 34t110.5 68l39 35h123l-156 -979h-127l133 826q-89 -70 -284 -70zM352 0l1204 1577h125l-1204 -1577h-125zM1061 295l534 678h152l-459 -594h330l39 248l74 98h69l-55 -346h121l-17 -107l-125 -26l-38 -246h-127l38 246h-497z" />
<glyph unicode="&#xbd;" horiz-adv-x="2015" d="M236 1280l14 86q74 0 147.5 34t110.5 68l39 35h123l-156 -979h-127l133 826q-89 -70 -284 -70zM330 0l1204 1577h125l-1204 -1577h-125zM1298 0l19 119q16 12 93 64.5t124 86t122 95t121 109.5t86 110.5t46 103.5t6 76t-23.5 65.5t-109.5 30.5h-352q-6 0 8 74l6 22 q258 31 361.5 31t160.5 -53q84 -80 84 -186q0 -20 -4 -39q-16 -106 -89 -213t-147.5 -170.5t-157.5 -126t-93 -72.5h393l-21 -127h-633z" />
<glyph unicode="&#xbe;" horiz-adv-x="2084" d="M156 553l16 88l363 2q145 0 165 125l9 47q4 18 4 35q0 102 -121 106l-289 11l16 98l293 12q143 6 162 131l6 45q2 18 2 46t-21.5 52.5t-101.5 24.5h-380l14 88q111 37 354 37h49q113 -2 163 -64.5t50 -136.5q0 -18 -2 -38l-12 -72q-12 -72 -46 -124.5t-77 -68.5 q66 -47 66 -145q0 -16 -2 -35l-9 -57q-18 -119 -83.5 -181.5t-204.5 -62.5h-11.5h-44.5h-86t-50 1t-37.5 3t-42 5t-38.5 7q-31 6 -73 21zM553 0l1204 1577h125l-1204 -1577h-125zM1235 295l534 678h150l-459 -594h332l39 248l74 98h69l-55 -346h119l-17 -107l-123 -26 l-38 -246h-129l41 246h-500z" />
<glyph unicode="&#xbf;" horiz-adv-x="1101" d="M47 -246q0 35 6 72l33 207q53 334 401 334q68 0 148 -13l16 101q18 98 17 106h153l-53 -332q-96 2 -170 2t-140.5 -3t-136 -52t-85.5 -143l-33 -207q-6 -35 -6 -66q0 -78 47 -123t202 -45h555l-16 -104q-98 -14 -223 -27.5t-148 -13.5l-16 2l-145 -6q-35 0 -54 4 q-197 0 -284 111q-68 84 -68 196zM684 782q0 6 2 15l19 116q6 48 53 48h112q49 0 43 -48l-18 -116q-6 -51 -57 -52h-113q-41 0 -41 37z" />
<glyph unicode="&#xc0;" d="M92 0l789 1499h151l289 -1499h-154l-80 418h-608l-221 -418h-166zM559 569h500l-129 717zM653 1905h178l218 -273h-142z" />
<glyph unicode="&#xc1;" d="M92 0l789 1499h151l289 -1499h-154l-80 418h-608l-221 -418h-166zM559 569h500l-129 717zM907 1632l262 273h195l-315 -273h-142z" />
<glyph unicode="&#xc2;" d="M92 0l789 1499h151l289 -1499h-154l-80 418h-608l-221 -418h-166zM559 569h500l-129 717zM678 1632l283 266h145l170 -266h-133l-117 170l-184 -170h-164z" />
<glyph unicode="&#xc3;" d="M92 0l789 1499h151l289 -1499h-154l-80 418h-608l-221 -418h-166zM559 569h500l-129 717zM643 1716q61 45 94 66q96 66 154.5 64.5t97.5 -19t68.5 -33.5t42 -16h24t60.5 16q100 33 131 53l31 -86q-18 -12 -62 -43q-125 -84 -192 -84q-74 0 -123 37q-90 66 -238 -10 q-45 -23 -57 -29z" />
<glyph unicode="&#xc4;" d="M92 0l789 1499h151l289 -1499h-154l-80 418h-608l-221 -418h-166zM559 569h500l-129 717zM629 1708q0 66 39 98.5t82 32.5t65.5 -26.5t22.5 -47t-2 -39t-21 -43.5q-37 -51 -88 -51t-74.5 28t-23.5 48zM1151 1708q0 66 39 98.5t82 32.5t65.5 -26.5t22.5 -47.5 q0 -66 -38 -99.5t-81 -33.5t-66.5 28t-23.5 48z" />
<glyph unicode="&#xc5;" d="M92 0l789 1499h151l289 -1499h-154l-80 418h-608l-221 -418h-166zM559 569h500l-129 717zM782 1683q0 -74 53.5 -131t139.5 -57t155.5 64.5t69.5 164.5q0 76 -51 133.5t-137 57.5t-158 -65.5t-72 -166.5zM882 1712q3 39 38.5 72t82 33t74 -31t27.5 -77t-39 -83 q-35 -33 -74 -33t-63.5 15.5t-36.5 40t-9 63.5z" />
<glyph unicode="&#xc6;" horiz-adv-x="1886" d="M61 0l807 1237q53 82 108.5 137.5t95.5 74.5t58 30q40 22 144 22l102 -2l649 -33l-18 -120h-655q-72 0 -92 -35q-18 -29 -27 -74l-68 -424l672 -20l-18 -121l-680 -21l-64 -403q-12 -78 31 -94q31 -12 82 -13h629l-21 -116l-635 -35h-18q-100 0 -161.5 54t-61.5 149 q0 25 4 55l32 223h-411l-309 -471h-175zM641 623h342l115 688z" />
<glyph unicode="&#xc7;" horiz-adv-x="1183" d="M215 522q0 106 26.5 265t67.5 290t110.5 235.5t176 154t266.5 49.5t481 -62l-18 -121q-233 31 -442 31q-150 0 -180.5 -15.5t-66.5 -37t-57.5 -50t-53 -75.5t-54.5 -109q-49 -141 -74.5 -298.5t-25.5 -228.5t2 -104q8 -131 72.5 -215t181.5 -92q41 -2 145.5 -2t372.5 19 l-17 -121q-174 -47 -510 -47q-113 0 -193.5 47t-125.5 121q-84 145 -84 366zM387 -354l12 75l113 31q70 18 94 172h137q-25 -160 -77.5 -219t-173.5 -59h-105z" />
<glyph unicode="&#xc8;" horiz-adv-x="1161" d="M197 197q0 25 4 55l155 981q44 266 277 266h24l643 -33l-18 -118h-649q-66 0 -91.5 -31t-33.5 -84l-66 -410l672 -20l-20 -121l-676 -20l-66 -410q-8 -80 29 -94q33 -12 84 -13h629l-21 -116l-635 -35h-18q-100 0 -161.5 54t-61.5 149zM571 1894h179l217 -272h-142z" />
<glyph unicode="&#xc9;" horiz-adv-x="1161" d="M197 197q0 25 4 55l155 981q44 266 277 266h24l643 -33l-18 -118h-649q-66 0 -91.5 -31t-33.5 -84l-66 -410l672 -20l-20 -121l-676 -20l-66 -410q-8 -80 29 -94q33 -12 84 -13h629l-21 -116l-635 -35h-18q-100 0 -161.5 54t-61.5 149zM815 1622l262 272h195l-316 -272 h-141z" />
<glyph unicode="&#xca;" horiz-adv-x="1161" d="M197 197q0 25 4 55l155 981q44 266 277 266h24l643 -33l-18 -118h-649q-66 0 -91.5 -31t-33.5 -84l-66 -410l672 -20l-20 -121l-676 -20l-66 -410q-8 -80 29 -94q33 -12 84 -13h629l-21 -116l-635 -35h-18q-100 0 -161.5 54t-61.5 149zM584 1622l282 268h146l170 -268 h-142l-106 164l-178 -164h-172z" />
<glyph unicode="&#xcb;" horiz-adv-x="1161" d="M197 197q0 25 4 55l155 981q44 266 277 266h24l643 -33l-18 -118h-649q-66 0 -91.5 -31t-33.5 -84l-66 -410l672 -20l-20 -121l-676 -20l-66 -410q-8 -80 29 -94q33 -12 84 -13h629l-21 -116l-635 -35h-18q-100 0 -161.5 54t-61.5 149zM518 1698q0 66 40 98.5t83 32.5 t65.5 -26.5t22.5 -47.5q0 -66 -39 -99.5t-82 -33.5t-66.5 27.5t-23.5 48.5zM1040 1698q0 66 40 98.5t83 32.5t65.5 -26.5t22.5 -47.5q0 -66 -38.5 -99.5t-82 -33.5t-67 27.5t-23.5 48.5z" />
<glyph unicode="&#xcc;" horiz-adv-x="460" d="M184 0l238 1499h151l-237 -1499h-152zM195 1905h178l217 -273h-141z" />
<glyph unicode="&#xcd;" horiz-adv-x="460" d="M184 0l238 1499h151l-237 -1499h-152zM449 1632l262 273h194l-315 -273h-141z" />
<glyph unicode="&#xce;" horiz-adv-x="460" d="M184 0l238 1499h151l-237 -1499h-152zM219 1632l283 266h145l170 -266h-133l-117 170l-184 -170h-164z" />
<glyph unicode="&#xcf;" horiz-adv-x="460" d="M170 1708q0 66 39 98.5t82 32.5t65.5 -26.5t22.5 -47t-2 -35t-13.5 -34t-25.5 -33.5q-35 -31 -78 -31t-66.5 28t-23.5 48zM184 0l238 1499h151l-237 -1499h-152zM692 1708q0 66 39 98.5t82 32.5t65.5 -26.5t22.5 -47.5q0 -66 -38 -99.5t-81 -33.5t-66.5 28t-23.5 48z" />
<glyph unicode="&#xd0;" horiz-adv-x="1368" d="M141 709l19 110h133l106 678q0 2 559 2q131 0 223.5 -55t137.5 -137q76 -141 76 -361q0 -98 -21 -203q-129 -743 -653 -743h-559l112 709h-133zM338 158h407q188 0 311.5 169t164.5 418q20 127 20 248t-41 207q-72 147 -266 148h-408l-82 -529h285l-18 -110h-285z" />
<glyph unicode="&#xd1;" d="M164 0l237 1499h148l571 -1216l193 1216h151l-237 -1499h-144l-573 1217l-193 -1217h-153zM604 1706q61 45 92 68q96 63 170 63q58 -4 119.5 -37t74.5 -33h30.5t93.5 30t92 40l31 -86q-18 -12 -62.5 -42t-68.5 -44q-125 -76 -246 -6q-57 35 -94 35t-69 -10.5t-76 -33 t-56 -28.5z" />
<glyph unicode="&#xd2;" horiz-adv-x="1366" d="M211 417q0 54 1 116.5t28.5 237.5t76 317.5t102.5 225.5t137 127t162 56t180 12t163.5 -7t124 -27.5t102.5 -55.5q94 -82 121 -231q10 -70 10 -124t-1 -117.5t-24.5 -217.5t-58.5 -274.5t-83 -202.5t-100 -134t-124 -81q-123 -45 -311 -45q-260 0 -365 78 q-98 76 -127 223q-14 70 -14 124zM360 417q0 -52 18.5 -116.5t69 -99.5t112 -46.5t171 -11.5t185 21.5t143.5 85.5q129 121 184 489q27 164 27 275.5t-13.5 158t-26.5 77t-43 52t-52.5 33t-65.5 17.5q-63 6 -146 6t-121 -2t-94.5 -13.5t-87 -35t-70.5 -67.5t-65.5 -110.5 t-51 -164t-48.5 -240.5t-24 -199.5t-1 -108.5zM612 1905h179l217 -273h-142z" />
<glyph unicode="&#xd3;" horiz-adv-x="1366" d="M211 417q0 54 1 116.5t28.5 237.5t76 317.5t102.5 225.5t137 127t162 56t180 12t163.5 -7t124 -27.5t102.5 -55.5q94 -82 121 -231q10 -70 10 -124t-1 -117.5t-24.5 -217.5t-58.5 -274.5t-83 -202.5t-100 -134t-124 -81q-123 -45 -311 -45q-260 0 -365 78 q-98 76 -127 223q-14 70 -14 124zM360 417q0 -52 18.5 -116.5t69 -99.5t112 -46.5t171 -11.5t185 21.5t143.5 85.5q129 121 184 489q27 164 27 275.5t-13.5 158t-26.5 77t-43 52t-52.5 33t-65.5 17.5q-63 6 -146 6t-121 -2t-94.5 -13.5t-87 -35t-70.5 -67.5t-65.5 -110.5 t-51 -164t-48.5 -240.5t-24 -199.5t-1 -108.5zM866 1632l262 273h195l-315 -273h-142z" />
<glyph unicode="&#xd4;" horiz-adv-x="1366" d="M211 417q0 54 1 116.5t28.5 237.5t76 317.5t102.5 225.5t137 127t162 56t180 12t163.5 -7t124 -27.5t102.5 -55.5q94 -82 121 -231q10 -70 10 -124t-1 -117.5t-24.5 -217.5t-58.5 -274.5t-83 -202.5t-100 -134t-124 -81q-123 -45 -311 -45q-260 0 -365 78 q-98 76 -127 223q-14 70 -14 124zM360 417q0 -52 18.5 -116.5t69 -99.5t112 -46.5t171 -11.5t185 21.5t143.5 85.5q129 121 184 489q27 164 27 275.5t-13.5 158t-26.5 77t-43 52t-52.5 33t-65.5 17.5q-63 6 -146 6t-121 -2t-94.5 -13.5t-87 -35t-70.5 -67.5t-65.5 -110.5 t-51 -164t-48.5 -240.5t-24 -199.5t-1 -108.5zM639 1632l283 266h145l170 -266h-133l-117 170l-184 -170h-164z" />
<glyph unicode="&#xd5;" horiz-adv-x="1366" d="M211 417q0 54 1 116.5t28.5 237.5t76 317.5t102.5 225.5t137 127t162 56t180 12t163.5 -7t124 -27.5t102.5 -55.5q94 -82 121 -231q10 -70 10 -124t-1 -117.5t-24.5 -217.5t-58.5 -274.5t-83 -202.5t-100 -134t-124 -81q-123 -45 -311 -45q-260 0 -365 78 q-98 76 -127 223q-14 70 -14 124zM360 417q0 -52 18.5 -116.5t69 -99.5t112 -46.5t171 -11.5t185 21.5t143.5 85.5q129 121 184 489q27 164 27 275.5t-13.5 158t-26.5 77t-43 52t-52.5 33t-65.5 17.5q-63 6 -146 6t-121 -2t-94.5 -13.5t-87 -35t-70.5 -67.5t-65.5 -110.5 t-51 -164t-48.5 -240.5t-24 -199.5t-1 -108.5zM602 1716q61 45 94 66q96 66 161 63.5t127.5 -35t74.5 -32.5h24.5t59.5 16q100 33 131 53l31 -86q-18 -12 -62 -43q-125 -84 -192 -84q-74 0 -123 37q-90 66 -238 -10q-43 -23 -57 -29z" />
<glyph unicode="&#xd6;" horiz-adv-x="1366" d="M211 417q0 54 1 116.5t28.5 237.5t76 317.5t102.5 225.5t137 127t162 56t180 12t163.5 -7t124 -27.5t102.5 -55.5q94 -82 121 -231q10 -70 10 -124t-1 -117.5t-24.5 -217.5t-58.5 -274.5t-83 -202.5t-100 -134t-124 -81q-123 -45 -311 -45q-260 0 -365 78 q-98 76 -127 223q-14 70 -14 124zM360 417q0 -52 18.5 -116.5t69 -99.5t112 -46.5t171 -11.5t185 21.5t143.5 85.5q129 121 184 489q27 164 27 275.5t-13.5 158t-26.5 77t-43 52t-52.5 33t-65.5 17.5q-63 6 -146 6t-121 -2t-94.5 -13.5t-87 -35t-70.5 -67.5t-65.5 -110.5 t-51 -164t-48.5 -240.5t-24 -199.5t-1 -108.5zM588 1708q0 66 40 98.5t83 32.5t64.5 -26.5t21.5 -47t-2 -39t-21 -43.5q-37 -51 -88 -51t-74.5 28t-23.5 48zM1110 1708q0 66 40 98.5t83 32.5t64.5 -26.5t21.5 -47.5q0 -66 -38 -99.5t-81 -33.5t-66.5 28t-23.5 48z" />
<glyph unicode="&#xd7;" horiz-adv-x="940" d="M190 485l285 246l-205 244l115 98l205 -244l299 258l92 -110l-297 -258l209 -248l-117 -98l-207 248l-286 -246z" />
<glyph unicode="&#xd8;" horiz-adv-x="1366" d="M141 0l127 160q-63 106 -63 301q0 123 28.5 304t76.5 323.5t102.5 225.5t137.5 127t162 56t199 12q260 0 369 -88l61 78h125l-120 -151q68 -111 67 -320q0 -127 -24.5 -290t-59.5 -283.5t-83 -202.5t-100 -134t-126 -81q-121 -45 -309 -45q-268 0 -377 92l-68 -84h-125z M354 466.5q0 -108.5 23 -171.5l805 1005q-43 37 -105.5 47.5t-152.5 10.5t-128 -2t-94.5 -13.5t-87 -35t-70.5 -67.5t-65.5 -110.5t-51.5 -164t-49.5 -244t-23.5 -255zM432 209q74 -66 283 -66q119 0 194.5 21.5t143.5 85.5q129 121 184 489q27 172 27 290t-25 185z" />
<glyph unicode="&#xd9;" horiz-adv-x="1343" d="M244 428q0 86 16 190l139 881h154l-139 -881q-16 -125 -16.5 -175t-0.5 -62q4 -94 47 -147.5t102.5 -73t158.5 -19.5q205 0 312 105.5t148 371.5l140 881h153l-139 -881q-16 -106 -34.5 -178.5t-62.5 -166t-106.5 -148.5t-171 -95t-252.5 -40q-260 0 -373 149 q-76 102 -75 289zM625 1905h178l217 -273h-141z" />
<glyph unicode="&#xda;" horiz-adv-x="1343" d="M244 428q0 86 16 190l139 881h154l-139 -881q-16 -125 -16.5 -175t-0.5 -62q4 -94 47 -147.5t102.5 -73t158.5 -19.5q205 0 312 105.5t148 371.5l140 881h153l-139 -881q-16 -106 -34.5 -178.5t-62.5 -166t-106.5 -148.5t-171 -95t-252.5 -40q-260 0 -373 149 q-76 102 -75 289zM879 1632l262 273h194l-315 -273h-141z" />
<glyph unicode="&#xdb;" horiz-adv-x="1343" d="M244 428q0 86 16 190l139 881h154l-139 -881q-16 -125 -16.5 -175t-0.5 -62q4 -94 47 -147.5t102.5 -73t158.5 -19.5q205 0 312 105.5t148 371.5l140 881h153l-139 -881q-16 -106 -34.5 -178.5t-62.5 -166t-106.5 -148.5t-171 -95t-252.5 -40q-260 0 -373 149 q-76 102 -75 289zM651 1632l283 266h145l170 -266h-133l-117 170l-184 -170h-164z" />
<glyph unicode="&#xdc;" horiz-adv-x="1343" d="M244 428q0 86 16 190l139 881h154l-139 -881q-16 -125 -16.5 -175t-0.5 -62q4 -94 47 -147.5t102.5 -73t158.5 -19.5q205 0 312 105.5t148 371.5l140 881h153l-139 -881q-16 -106 -34.5 -178.5t-62.5 -166t-106.5 -148.5t-171 -95t-252.5 -40q-260 0 -373 149 q-76 102 -75 289zM600 1708q0 66 40 98.5t83 32.5t65.5 -26.5t22.5 -47t-3 -39t-20 -43.5q-39 -51 -90 -51t-74.5 28t-23.5 48zM1122 1708q0 66 40 98.5t83 32.5t65.5 -26.5t22.5 -47.5q0 -66 -39 -99.5t-82 -33.5t-66.5 28t-23.5 48z" />
<glyph unicode="&#xdd;" horiz-adv-x="1290" d="M307 1499h160l262 -780l545 780h180l-672 -967l-84 -532h-151l84 532zM831 1632l263 273h194l-315 -273h-142z" />
<glyph unicode="&#xde;" horiz-adv-x="1136" d="M123 0l235 1493h152l-45 -289h403q94 0 153.5 -39t90.5 -84q53 -78 53 -221q0 -43 -12 -144.5t-54 -198.5t-107.5 -138t-119 -52.5t-137.5 -11.5q-283 0 -403 41l-58 -356h-151zM348 467h404q98 0 153 49q66 57 99 256q6 104 6 134t-17.5 59.5t-32 47t-38.5 25.5 q-39 12 -78 13h-404z" />
<glyph unicode="&#xdf;" horiz-adv-x="1167" d="M123 0l184 1159q31 195 157 313.5t367 118.5q172 0 275.5 -56t128.5 -140q14 -51 14 -95q0 -143 -78 -256q-55 -78 -122 -116q-14 -8 -54.5 -27.5t-61 -33t-48.5 -36.5q-53 -39 -66 -110q-2 -12 -2 -23q0 -78 129 -108q59 -14 117.5 -33.5t89.5 -63.5t31 -81t-4 -62 l-15 -96q-12 -80 -52 -136.5t-95 -84.5q-100 -49 -189.5 -49t-157 7t-132 18t-86.5 14l18 122l360 -10q66 0 115 37t62 98l14 76q2 8 2 14q0 63 -131 99q-59 14 -117.5 35.5t-89.5 68.5t-31 86q0 160 70 240q51 59 229 155q143 80 144 246q0 82 -61.5 116t-212 34 t-246 -59.5t-119.5 -221.5l-185 -1159h-151z" />
<glyph unicode="&#xe0;" horiz-adv-x="1107" d="M162 336q0 98 24.5 244.5t72.5 256t113.5 163t123 77t112 29.5t120 6t208.5 -30.5t217 -100.5l-143 -981h-109l-22 123q-209 -137 -381 -137q-207 0 -277 106q-59 94 -59 244zM315 342q0 -76 21 -121q39 -84 153.5 -84t194.5 22.5t205 76.5l106 690q-152 41 -231.5 41 t-125.5 -9.5t-73.5 -17.5t-69.5 -35.5t-68 -72t-52.5 -125t-43 -185t-16.5 -180.5zM414 1507h178l217 -272h-141z" />
<glyph unicode="&#xe1;" horiz-adv-x="1107" d="M162 336q0 98 24.5 244.5t72.5 256t113.5 163t123 77t112 29.5t120 6t208.5 -30.5t217 -100.5l-143 -981h-109l-22 123q-209 -137 -381 -137q-207 0 -277 106q-59 94 -59 244zM315 342q0 -76 21 -121q39 -84 153.5 -84t194.5 22.5t205 76.5l106 690q-152 41 -231.5 41 t-125.5 -9.5t-73.5 -17.5t-69.5 -35.5t-68 -72t-52.5 -125t-43 -185t-16.5 -180.5zM688 1235l262 272h195l-316 -272h-141z" />
<glyph unicode="&#xe2;" horiz-adv-x="1107" d="M162 336q0 98 24.5 244.5t72.5 256t113.5 163t123 77t112 29.5t120 6t208.5 -30.5t217 -100.5l-143 -981h-109l-22 123q-209 -137 -381 -137q-207 0 -277 106q-59 94 -59 244zM315 342q0 -76 21 -121q39 -84 153.5 -84t194.5 22.5t205 76.5l106 690q-152 41 -231.5 41 t-125.5 -9.5t-73.5 -17.5t-69.5 -35.5t-68 -72t-52.5 -125t-43 -185t-16.5 -180.5zM438 1235l283 266h145l170 -266h-133l-117 170l-184 -170h-164z" />
<glyph unicode="&#xe3;" horiz-adv-x="1107" d="M162 336q0 98 24.5 244.5t72.5 256t113.5 163t123 77t112 29.5t120 6t208.5 -30.5t217 -100.5l-143 -981h-109l-22 123q-209 -137 -381 -137q-207 0 -277 106q-59 94 -59 244zM315 342q0 -76 21 -121q39 -84 153.5 -84t194.5 22.5t205 76.5l106 690q-152 41 -231.5 41 t-125.5 -9.5t-73.5 -17.5t-69.5 -35.5t-68 -72t-52.5 -125t-43 -185t-16.5 -180.5zM420 1319q61 45 94 65q94 66 159.5 64t127 -35t75 -33h30t93 29t93.5 41l30 -86q-18 -12 -63 -43q-123 -84 -191 -84q-63 0 -120.5 35t-90.5 35q-68 0 -131 -33t-75 -39z" />
<glyph unicode="&#xe4;" horiz-adv-x="1107" d="M162 336q0 98 24.5 244.5t72.5 256t113.5 163t123 77t112 29.5t120 6t208.5 -30.5t217 -100.5l-143 -981h-109l-22 123q-209 -137 -381 -137q-207 0 -277 106q-59 94 -59 244zM315 342q0 -76 21 -121q39 -84 153.5 -84t194.5 22.5t205 76.5l106 690q-152 41 -231.5 41 t-125.5 -9.5t-73.5 -17.5t-69.5 -35.5t-68 -72t-52.5 -125t-43 -185t-16.5 -180.5zM388 1331q7 51 43 81t79 30t65.5 -26.5t22.5 -47.5q0 -66 -39 -99.5t-73.5 -33.5t-57.5 14q-47 31 -40 82zM911 1339q8 51 58 82q29 20 67.5 20.5t61 -26t22.5 -47.5q0 -66 -39 -99.5 t-73.5 -33.5t-57.5 14q-47 31 -39 90z" />
<glyph unicode="&#xe5;" horiz-adv-x="1107" d="M162 336q0 98 24.5 244.5t72.5 256t113.5 163t123 77t112 29.5t120 6t208.5 -30.5t217 -100.5l-143 -981h-109l-22 123q-209 -137 -381 -137q-207 0 -277 106q-59 94 -59 244zM315 342q0 -76 21 -121q39 -84 153.5 -84t194.5 22.5t205 76.5l106 690q-152 41 -231.5 41 t-125.5 -9.5t-73.5 -17.5t-69.5 -35.5t-68 -72t-52.5 -125t-43 -185t-16.5 -180.5zM584 1423q0 100 70.5 166t156.5 66t138 -58.5t52 -132.5q0 -100 -70.5 -164.5t-156.5 -64.5t-138 57.5t-52 130.5zM680 1440q0 -45 28.5 -76t74.5 -31t81 33q39 37 39 83t-27.5 76.5 t-73.5 30.5t-81 -32q-41 -39 -41 -84z" />
<glyph unicode="&#xe6;" horiz-adv-x="1847" d="M80 347.5q0 101.5 24.5 226t63.5 223t79 154t95 91t100 48.5q90 23 170 22.5t202 -22t212 -76.5q117 94 335 94t322 -72q84 -59 84 -184q0 -164 -100 -266q-82 -82 -186 -111q-135 -37 -293 -37t-221 27q-16 -96 -16.5 -160.5t16.5 -99.5q31 -72 141 -74q53 -4 168 -4 t344 33l-18 -115q-217 -59 -510 -59q-195 0 -256 143q-63 -51 -190.5 -97t-216.5 -46t-144.5 15t-104.5 53t-69 104q-31 88 -31 189.5zM229 332q0 -74 19 -113q35 -82 182 -82q102 0 216 28t161 73q-4 33 -4 105.5t37 269t100 300.5q-190 51 -307 52q-129 0 -219 -60 q-41 -29 -66 -74q-68 -113 -100 -317q-19 -108 -19 -182zM983 575q78 -6 112.5 -6t115.5 3t162 21.5t155 70.5q88 61 88 174q0 66 -50 92t-180.5 26t-202 -24.5t-109.5 -87t-50 -101.5q-25 -68 -41 -168z" />
<glyph unicode="&#xe7;" horiz-adv-x="1019" d="M168 320.5q0 115.5 25.5 263t71.5 265.5t108.5 170t118 67.5t177.5 15.5t421 -58l-17 -110q-283 16 -395.5 16t-138 -5t-57 -26.5t-54.5 -64.5q-49 -94 -81 -261t-32 -245q0 -211 164 -211q193 0 406 17l80 6l-19 -115q-215 -57 -454 -57q-186 0 -273 135 q-51 82 -51 197.5zM299 -354l12 75l113 31q72 29 94 172h137q-25 -160 -78 -219t-174 -59h-104z" />
<glyph unicode="&#xe8;" horiz-adv-x="1075" d="M155.5 312.5q0.5 111.5 27 256t56 229.5t87.5 163q109 147 397 147q207 0 309 -72q86 -59 86 -184q0 -164 -102 -266q-80 -82 -185 -111q-135 -37 -293 -37t-221 27q-16 -96 -16 -160.5t14 -99.5q33 -72 144 -74q53 -4 166.5 -4t343.5 33l-17 -115q-217 -59 -512 -59 q-195 0 -254 141q-31 74 -30.5 185.5zM334 575q78 -6 112.5 -6t115.5 3t162 21.5t153 70.5q90 61 90 174q0 66 -50.5 92t-180.5 26t-201.5 -24.5t-109.5 -87t-52 -101.5q-23 -68 -39 -168zM418 1503h178l217 -272h-141z" />
<glyph unicode="&#xe9;" horiz-adv-x="1075" d="M155.5 312.5q0.5 111.5 27 256t56 229.5t87.5 163q109 147 397 147q207 0 309 -72q86 -59 86 -184q0 -164 -102 -266q-80 -82 -185 -111q-135 -37 -293 -37t-221 27q-16 -96 -16 -160.5t14 -99.5q33 -72 144 -74q53 -4 166.5 -4t343.5 33l-17 -115q-217 -59 -512 -59 q-195 0 -254 141q-31 74 -30.5 185.5zM334 575q78 -6 112.5 -6t115.5 3t162 21.5t153 70.5q90 61 90 174q0 66 -50.5 92t-180.5 26t-201.5 -24.5t-109.5 -87t-52 -101.5q-23 -68 -39 -168zM672 1231l262 272h194l-315 -272h-141z" />
<glyph unicode="&#xea;" horiz-adv-x="1075" d="M155.5 312.5q0.5 111.5 27 256t56 229.5t87.5 163q109 147 397 147q207 0 309 -72q86 -59 86 -184q0 -164 -102 -266q-80 -82 -185 -111q-135 -37 -293 -37t-221 27q-16 -96 -16 -160.5t14 -99.5q33 -72 144 -74q53 -4 166.5 -4t343.5 33l-17 -115q-217 -59 -512 -59 q-195 0 -254 141q-31 74 -30.5 185.5zM334 575q78 -6 112.5 -6t115.5 3t162 21.5t153 70.5q90 61 90 174q0 66 -50.5 92t-180.5 26t-201.5 -24.5t-109.5 -87t-52 -101.5q-23 -68 -39 -168zM444 1231l283 266h145l170 -266h-133l-116 170l-185 -170h-164z" />
<glyph unicode="&#xeb;" horiz-adv-x="1075" d="M155.5 312.5q0.5 111.5 27 256t56 229.5t87.5 163q109 147 397 147q207 0 309 -72q86 -59 86 -184q0 -164 -102 -266q-80 -82 -185 -111q-135 -37 -293 -37t-221 27q-16 -96 -16 -160.5t14 -99.5q33 -72 144 -74q53 -4 166.5 -4t343.5 33l-17 -115q-217 -59 -512 -59 q-195 0 -254 141q-31 74 -30.5 185.5zM334 575q78 -6 112.5 -6t115.5 3t162 21.5t153 70.5q90 61 90 174q0 66 -50.5 92t-180.5 26t-201.5 -24.5t-109.5 -87t-52 -101.5q-23 -68 -39 -168zM395.5 1339.5q5.5 38.5 41.5 68.5t79 30t64.5 -27t21.5 -47q0 -66 -38 -99.5 t-68.5 -33.5t-45 5t-25.5 15.5t-19 22.5q-16 27 -10.5 65.5zM916.5 1327q7.5 51 43 81t78.5 30t64.5 -27t21.5 -47q0 -66 -37.5 -99.5t-73.5 -33.5t-59 14q-45 31 -37.5 82z" />
<glyph unicode="&#xec;" horiz-adv-x="399" d="M68 1493h178l217 -272h-141zM123 0l172 1087h151l-172 -1087h-151z" />
<glyph unicode="&#xed;" horiz-adv-x="399" d="M123 0l172 1087h151l-172 -1087h-151zM317 1221l263 272h194l-315 -272h-142z" />
<glyph unicode="&#xee;" horiz-adv-x="399" d="M84 1221l283 266h145l170 -266h-133l-117 170l-184 -170h-164zM123 0l172 1087h151l-172 -1087h-151z" />
<glyph unicode="&#xef;" horiz-adv-x="399" d="M27 1303q0 59 38.5 91.5t81.5 32.5t66 -26.5t23 -46.5q0 -66 -38 -99.5t-75 -33.5q-68 0 -88 51q-8 18 -8 31zM123 0l172 1087h151l-172 -1087h-151zM550 1325q3 29 21.5 52.5t45 36.5t61.5 13t57.5 -26.5t22.5 -47t-2 -39t-19.5 -42t-44 -37.5t-54.5 -14t-49.5 14 t-31.5 37.5t-7 52.5z" />
<glyph unicode="&#xf0;" horiz-adv-x="1099" d="M143 353.5q0 95.5 19 174.5q51 301 148 430t298 129h211q115 0 139 -30q-27 172 -108 270l-315 -119l-31 123l237 90q-86 49 -219 49h-39l21 134q270 0 409 -121l256 96l33 -123l-198 -74q125 -190 124 -512q0 -156 -28 -342q-45 -281 -142.5 -404.5t-300.5 -123.5h-221 q-100 0 -167.5 44t-92.5 118q-33 96 -33 191.5zM295 323.5q0 -71.5 26.5 -110.5t55.5 -50t51.5 -11h28.5h221h6q94 0 160.5 74.5t103.5 301.5q20 127 20.5 203t-14.5 117q-31 88 -157 88h-205q-111 0 -174.5 -83t-104.5 -325q-18 -133 -18 -204.5z" />
<glyph unicode="&#xf1;" horiz-adv-x="1114" d="M123 0l172 1087h106l25 -126q100 68 254 116q82 29 172 29q156 0 229 -102q57 -78 58 -181q0 -33 -6 -65l-121 -758h-152l121 758q4 25 4 45q0 66 -38 108.5t-117.5 42.5t-151.5 -16t-117 -33.5t-153 -66.5l-134 -838h-151zM428 1313q61 45 94 65q96 66 161 64t127 -35 t74.5 -33h29t93 30t93.5 40l30 -86q-18 -12 -49.5 -33.5t-53 -36t-48.5 -28.5q-113 -61 -225 6q-55 35 -88 34q-68 0 -131.5 -32.5t-75.5 -38.5z" />
<glyph unicode="&#xf2;" horiz-adv-x="1155" d="M168 360q0 76 14 168q51 330 172 450t384 120t358 -140q61 -92 61 -247q0 -82 -16 -183q-51 -307 -165 -422.5t-379 -115.5t-364 125q-66 84 -65 245zM317 367.5q0 -60.5 13.5 -99.5t34 -65.5t59.5 -38.5q63 -23 165.5 -23t155 10.5t105.5 48.5t85 117.5t52.5 199.5 t20.5 210t-33 137q-57 82 -246 82q-96 0 -151.5 -12t-106.5 -55t-82 -126t-51.5 -204t-20.5 -181.5zM440 1493h178l218 -272h-142z" />
<glyph unicode="&#xf3;" horiz-adv-x="1155" d="M168 360q0 76 14 168q51 330 172 450t384 120t358 -140q61 -92 61 -247q0 -82 -16 -183q-51 -307 -165 -422.5t-379 -115.5t-364 125q-66 84 -65 245zM317 367.5q0 -60.5 13.5 -99.5t34 -65.5t59.5 -38.5q63 -23 165.5 -23t155 10.5t105.5 48.5t85 117.5t52.5 199.5 t20.5 210t-33 137q-57 82 -246 82q-96 0 -151.5 -12t-106.5 -55t-82 -126t-51.5 -204t-20.5 -181.5zM694 1221l262 272h195l-315 -272h-142z" />
<glyph unicode="&#xf4;" horiz-adv-x="1155" d="M168 360q0 76 14 168q51 330 172 450t384 120t358 -140q61 -92 61 -247q0 -82 -16 -183q-51 -307 -165 -422.5t-379 -115.5t-364 125q-66 84 -65 245zM317 367.5q0 -60.5 13.5 -99.5t34 -65.5t59.5 -38.5q63 -23 165.5 -23t155 10.5t105.5 48.5t85 117.5t52.5 199.5 t20.5 210t-33 137q-57 82 -246 82q-96 0 -151.5 -12t-106.5 -55t-82 -126t-51.5 -204t-20.5 -181.5zM467 1221l283 266h145l170 -266h-133l-117 170l-184 -170h-164z" />
<glyph unicode="&#xf5;" horiz-adv-x="1155" d="M168 360q0 76 14 168q51 330 172 450t384 120t358 -140q61 -92 61 -247q0 -82 -16 -183q-51 -307 -165 -422.5t-379 -115.5t-364 125q-66 84 -65 245zM317 367.5q0 -60.5 13.5 -99.5t34 -65.5t59.5 -38.5q63 -23 165.5 -23t155 10.5t105.5 48.5t85 117.5t52.5 199.5 t20.5 210t-33 137q-57 82 -246 82q-96 0 -151.5 -12t-106.5 -55t-82 -126t-51.5 -204t-20.5 -181.5zM430 1305q61 45 94 65q96 66 161 64t127 -35t74.5 -33h25t59.5 16q100 33 131 54l31 -86q-18 -12 -62 -43q-125 -84 -192 -84q-63 0 -121 34.5t-90 34.5 q-68 0 -130.5 -32.5t-76.5 -38.5z" />
<glyph unicode="&#xf6;" horiz-adv-x="1155" d="M168 360q0 76 14 168q51 330 172 450t384 120t358 -140q61 -92 61 -247q0 -82 -16 -183q-51 -307 -165 -422.5t-379 -115.5t-364 125q-66 84 -65 245zM317 367.5q0 -60.5 13.5 -99.5t34 -65.5t59.5 -38.5q63 -23 165.5 -23t155 10.5t105.5 48.5t85 117.5t52.5 199.5 t20.5 210t-33 137q-57 82 -246 82q-96 0 -151.5 -12t-106.5 -55t-82 -126t-51.5 -204t-20.5 -181.5zM417 1317q7 51 43 80.5t79 29.5t64.5 -26.5t21.5 -46.5q0 -66 -38 -99.5t-74 -33.5t-58 14q-45 31 -38 82zM939 1317q7 51 43 80.5t79 29.5t64.5 -26.5t21.5 -46.5 q0 -66 -38 -99.5t-74 -33.5t-58 14q-45 31 -38 82z" />
<glyph unicode="&#xf7;" horiz-adv-x="1058" d="M205 647l24 152h852l-24 -152h-852zM489 354l19 111q6 51 57 51h103q41 0 41 -37q0 -6 -2 -14l-19 -111q-6 -47 -53 -47h-103q-49 0 -43 47zM588 956v11l16 110q7 51 58 51h102q41 0 41 -36q0 -6 -2 -15l-17 -110q-6 -47 -55 -47h-102q-41 0 -41 36z" />
<glyph unicode="&#xf8;" horiz-adv-x="1163" d="M104 0l119 133q-51 82 -51 223q0 78 14 172q51 330 172 450t392 120q174 0 274 -66l49 55h135l-112 -124q66 -92 65 -254q0 -82 -16 -181q-51 -307 -165 -422.5t-380 -115.5q-209 0 -311 76l-60 -66h-125zM322 367.5q0 -66.5 14 -107.5l584 655q-61 31 -173 31 t-167.5 -12t-105.5 -55t-81 -126t-51 -201t-20 -184.5zM393 182q57 -41 180 -41t175.5 10.5t105.5 48.5t85 117.5t52.5 197.5t20.5 199t-23 130z" />
<glyph unicode="&#xf9;" horiz-adv-x="1112" d="M150 258q0 33 6 72l118 757h152l-119 -757q-4 -31 -4 -56q0 -141 158 -141q137 0 266 51q45 16 154 66l131 837h151l-172 -1087h-106l-25 127q-47 -29 -81 -44t-68.5 -32.5t-52 -24t-50.5 -17.5t-55 -15q-72 -12 -117 -12q-158 0 -231 98q-55 74 -55 178zM416 1493h178 l217 -272h-141z" />
<glyph unicode="&#xfa;" horiz-adv-x="1112" d="M150 258q0 33 6 72l118 757h152l-119 -757q-4 -31 -4 -56q0 -141 158 -141q137 0 266 51q45 16 154 66l131 837h151l-172 -1087h-106l-25 127q-47 -29 -81 -44t-68.5 -32.5t-52 -24t-50.5 -17.5t-55 -15q-72 -12 -117 -12q-158 0 -231 98q-55 74 -55 178zM670 1221 l262 272h194l-315 -272h-141z" />
<glyph unicode="&#xfb;" horiz-adv-x="1112" d="M150 258q0 33 6 72l118 757h152l-119 -757q-4 -31 -4 -56q0 -141 158 -141q137 0 266 51q45 16 154 66l131 837h151l-172 -1087h-106l-25 127q-47 -29 -81 -44t-68.5 -32.5t-52 -24t-50.5 -17.5t-55 -15q-72 -12 -117 -12q-158 0 -231 98q-55 74 -55 178zM440 1221 l283 266h145l170 -266h-133l-117 170l-184 -170h-164z" />
<glyph unicode="&#xfc;" horiz-adv-x="1112" d="M150 258q0 33 6 72l118 757h152l-119 -757q-4 -31 -4 -56q0 -141 158 -141q137 0 266 51q45 16 154 66l131 837h151l-172 -1087h-106l-25 127q-47 -29 -81 -44t-68.5 -32.5t-52 -24t-50.5 -17.5t-55 -15q-72 -12 -117 -12q-158 0 -231 98q-55 74 -55 178zM391 1317 q8 51 43 80.5t78 29.5t65.5 -26.5t22.5 -46.5q0 -66 -38 -99.5t-73.5 -33.5t-58.5 14q-47 31 -39 82zM913.5 1317q8.5 51 43 80.5t77.5 29.5t65.5 -26.5t22.5 -46.5q0 -66 -37.5 -99.5t-73.5 -33.5t-59 14q-47 31 -38.5 82z" />
<glyph unicode="&#xfd;" horiz-adv-x="1124" d="M193 1087h157l131 -849q8 -45 41 -63.5t49.5 -18.5h18.5l31 2l395 770q37 70 51 164h125q12 -39 12 -88.5t-30 -108.5l-453 -893q-135 -264 -248 -393t-272 -160v109q117 78 207 211q72 106 135 231q-53 0 -105 29q-96 53 -116 196zM643 1210l262 273h195l-316 -273h-141 z" />
<glyph unicode="&#xfe;" horiz-adv-x="1126" d="M55 -553l342 2155h152l-103 -637q62 39 196 90t237.5 51t173.5 -90q96 -125 96 -334q0 -66 -10.5 -132.5t-15.5 -101t-22.5 -102t-37 -109.5t-54 -96.5t-75.5 -85.5q-104 -76 -244 -75q-78 0 -189.5 21.5t-197.5 57.5l-96 -612h-152zM324 182q92 -29 155 -35l86 -8 q90 -8 137 -8q227 0 283 420q10 74 10 154.5t-24 148.5q-37 102 -119 102h-12q-147 -8 -410 -104z" />
<glyph unicode="&#xff;" horiz-adv-x="1124" d="M193 1087h157l131 -849q8 -45 41 -63.5t49.5 -18.5h18.5l31 2l395 770q37 70 51 164h125q12 -39 12 -88.5t-30 -108.5l-453 -893q-135 -264 -248 -393t-272 -160v109q117 78 207 211q72 106 135 231q-53 0 -105 29q-96 53 -116 196zM365 1286q0 66 39.5 98.5t82.5 32.5 t65.5 -26.5t22.5 -47.5q0 -66 -38.5 -99.5t-81.5 -33.5t-66.5 28t-23.5 48zM887 1286q0 66 40 98.5t83 32.5t65.5 -26.5t22.5 -47.5q0 -66 -39 -99.5t-82 -33.5t-66.5 28t-23.5 48z" />
<glyph unicode="&#x100;" d="M92 0l789 1499h151l289 -1499h-154l-80 418h-608l-221 -418h-166zM559 569h500l-129 717zM678 1632l20 129h598l-20 -129h-598z" />
<glyph unicode="&#x101;" horiz-adv-x="1107" d="M162 336q0 98 24.5 244.5t72.5 256t113.5 163t123 77t112 29.5t120 6t208.5 -30.5t217 -100.5l-143 -981h-109l-22 123q-209 -137 -381 -137q-207 0 -277 106q-59 94 -59 244zM315 342q0 -76 21 -121q39 -84 153.5 -84t194.5 22.5t205 76.5l106 690q-152 41 -231.5 41 t-125.5 -9.5t-73.5 -17.5t-69.5 -35.5t-68 -72t-52.5 -125t-43 -185t-16.5 -180.5zM438 1235l21 129h598l-21 -129h-598z" />
<glyph unicode="&#x102;" d="M92 0l789 1499h151l289 -1499h-154l-80 418h-608l-221 -418h-166zM559 569h500l-129 717zM782 1841v25h95q-2 -12 -2.5 -42t30.5 -64t84 -34h6q135 0 158 140h94q-31 -233 -258 -234q-88 0 -147.5 59.5t-59.5 149.5z" />
<glyph unicode="&#x103;" horiz-adv-x="1107" d="M162 336q0 98 24.5 244.5t72.5 256t113.5 163t123 77t112 29.5t120 6t208.5 -30.5t217 -100.5l-143 -981h-109l-22 123q-209 -137 -381 -137q-207 0 -277 106q-59 94 -59 244zM315 342q0 -76 21 -121q39 -84 153.5 -84t194.5 22.5t205 76.5l106 690q-152 41 -231.5 41 t-125.5 -9.5t-73.5 -17.5t-69.5 -35.5t-68 -72t-52.5 -125t-43 -185t-16.5 -180.5zM561 1444q0 12 2 24h94q-2 -12 -2 -41.5t31 -63.5t84 -34h6q135 0 158 139h94q-33 -233 -258 -233q-88 0 -148.5 59.5t-60.5 149.5z" />
<glyph unicode="&#x104;" horiz-adv-x="1552" d="M301 0l789 1499h151l289 -1499h-154l-80 418h-608l-221 -418h-166zM768 569h500l-129 717zM1214 -223q0 141 205 223h80q-152 -111 -151 -186q0 -61 100 -62h18l-20 -123q-25 -4 -45 -4q-88 0 -137.5 48.5t-49.5 103.5z" />
<glyph unicode="&#x105;" horiz-adv-x="997" d="M117 336q0 98 24.5 244.5t72.5 256t113.5 163t123 77t111.5 29.5t120 6t209 -30.5t217 -100.5l-143 -981h-109l-22 123q-209 -137 -381 -137q-207 0 -277 106q-59 94 -59 244zM270 342q0 -76 21 -121q39 -84 153.5 -84t194.5 22.5t205 76.5l106 690q-152 41 -231.5 41 t-125.5 -9.5t-73.5 -17.5t-69.5 -35.5t-68 -72t-52.5 -125t-43 -185t-16.5 -180.5zM666 -223q0 141 204 223h80q-152 -111 -151 -186q0 -61 100 -62h19l-21 -123q-25 -4 -45 -4q-88 0 -137 48.5t-49 103.5z" />
<glyph unicode="&#x106;" horiz-adv-x="1183" d="M215 522q0 106 26.5 265t67.5 290t110.5 235.5t176 154t266.5 49.5t481 -62l-18 -121q-233 31 -442 31q-80 0 -101.5 -1t-67.5 -12.5t-74 -33t-71 -66.5t-71 -108q-74 -160 -102.5 -340t-28.5 -251t2 -106q10 -131 75.5 -215t182.5 -92q41 -2 145.5 -2t372.5 19l-17 -121 q-174 -47 -510 -47q-113 0 -193.5 47t-125.5 121q-84 145 -84 366zM838 1638l262 273h194l-315 -273h-141z" />
<glyph unicode="&#x107;" horiz-adv-x="1015" d="M168 320.5q0 115.5 25.5 263t71.5 265.5t108.5 170t118 67.5t177.5 15.5t421 -58l-17 -110q-283 16 -395.5 16t-138 -5t-57 -26.5t-54.5 -64.5q-49 -94 -81 -261t-32 -245q0 -211 164 -211q193 0 406 17l80 6l-19 -115q-215 -57 -454 -57q-186 0 -273 135 q-51 82 -51 197.5zM647 1225l262 272h195l-316 -272h-141z" />
<glyph unicode="&#x108;" horiz-adv-x="1183" d="M215 522q0 106 26.5 265t67.5 290t110.5 235.5t176 154t266.5 49.5t481 -62l-18 -121q-233 31 -442 31q-80 0 -101.5 -1t-67.5 -12.5t-74 -33t-71 -66.5t-71 -108q-74 -160 -102.5 -340t-28.5 -251t2 -106q10 -131 75.5 -215t182.5 -92q41 -2 145.5 -2t372.5 19l-17 -121 q-174 -47 -510 -47q-113 0 -193.5 47t-125.5 121q-84 145 -84 366zM614 1638l283 267h145l170 -267h-133l-116 170l-185 -170h-164z" />
<glyph unicode="&#x109;" horiz-adv-x="1015" d="M164 320.5q0 115.5 25.5 263t71.5 265.5t108.5 170t118 67.5t177 15.5t420.5 -58l-16 -110q-283 16 -395.5 16t-138 -5t-57.5 -26.5t-54 -64.5q-49 -94 -81 -261t-32 -245q0 -211 164 -211q193 0 406 17l80 6l-19 -115q-215 -57 -455 -57q-186 0 -272 135 q-51 82 -51 197.5zM446 1225l283 266h145l170 -266h-133l-116 170l-185 -170h-164z" />
<glyph unicode="&#x10a;" horiz-adv-x="1183" d="M215 522q0 106 26.5 265t67.5 290t110.5 235.5t176 154t266.5 49.5t481 -62l-18 -121q-233 31 -442 31q-80 0 -101.5 -1t-67.5 -12.5t-74 -33t-71 -66.5t-71 -108q-74 -160 -102.5 -340t-28.5 -251t2 -106q10 -131 75.5 -215t182.5 -92q41 -2 145.5 -2t372.5 19l-17 -121 q-174 -47 -510 -47q-113 0 -193.5 47t-125.5 121q-84 145 -84 366zM780 1686l19 110q6 51 57 51h102q45 0 39 -51l-18 -110q-6 -47 -53 -48h-103q-23 0 -35 13.5t-8 34.5z" />
<glyph unicode="&#x10b;" horiz-adv-x="1015" d="M164 320.5q0 115.5 25.5 263t71.5 265.5t108.5 170t118 67.5t177 15.5t420.5 -58l-16 -110q-283 16 -395.5 16t-138 -5t-57.5 -26.5t-54 -64.5q-49 -94 -81 -261t-32 -245q0 -211 164 -211q193 0 406 17l80 6l-19 -115q-215 -57 -455 -57q-186 0 -272 135 q-51 82 -51 197.5zM659 1272l19 110q6 52 57 52h103q45 0 39 -52l-19 -110q-6 -47 -53 -47h-103q-23 0 -35 13t-8 34z" />
<glyph unicode="&#x10c;" horiz-adv-x="1183" d="M215 522q0 106 26.5 265t67.5 290t110.5 235.5t176 154t266.5 49.5t481 -62l-18 -121q-233 31 -442 31q-80 0 -101.5 -1t-67.5 -12.5t-74 -33t-71 -66.5t-71 -108q-74 -160 -102.5 -340t-28.5 -251t2 -106q10 -131 75.5 -215t182.5 -92q41 -2 145.5 -2t372.5 19l-17 -121 q-174 -47 -510 -47q-113 0 -193.5 47t-125.5 121q-84 145 -84 366zM670 1905h133l117 -170l184 170h164l-283 -267h-145z" />
<glyph unicode="&#x10d;" horiz-adv-x="1015" d="M164 320.5q0 115.5 25.5 263t71.5 265.5t108.5 170t118 67.5t177 15.5t420.5 -58l-16 -110q-283 16 -395.5 16t-138 -5t-57.5 -26.5t-54 -64.5q-49 -94 -81 -261t-32 -245q0 -211 164 -211q193 0 406 17l80 6l-19 -115q-215 -57 -455 -57q-186 0 -272 135 q-51 82 -51 197.5zM500 1491h133l117 -170l184 170h164l-283 -266h-145z" />
<glyph unicode="&#x10e;" horiz-adv-x="1368" d="M197 0l237 1497q0 2 559 2q131 0 223.5 -55t135.5 -137q76 -143 75 -361q0 -98 -20 -203q-129 -743 -651 -743h-559zM373 158h407q188 0 311 169t164 418q20 127 20.5 248t-42.5 207q-70 147 -264 148h-408zM696 1888h133l117 -170l184 170h164l-282 -266h-146z" />
<glyph unicode="&#x10f;" horiz-adv-x="1331" d="M168 380q0 93 17.5 187.5t45 184.5t76.5 176t131 131t175.5 45t207 -22.5t199.5 -59.5l94 586h148l-256 -1608h-109l-20 121q-61 -41 -184.5 -87t-220.5 -46t-168 51t-97 131q-39 117 -39 210zM319.5 376q-0.5 -75 20.5 -132q39 -104 141 -105q170 0 414 94l104 666 q-195 53 -393 53q-100 0 -166.5 -88.5t-105.5 -324.5q-14 -88 -14.5 -163zM1368 1186l23 274l20 137h154l-23 -137l-65 -274h-109z" />
<glyph unicode="&#x110;" horiz-adv-x="1368" d="M190 709l19 110h133l107 678q0 2 559 2q131 0 223 -55t137 -137q76 -141 76 -361q0 -98 -21 -203q-129 -743 -653 -743h-559l113 709h-134zM387 158h408q188 0 311 169t164 418q20 127 20 248t-41 207q-72 147 -266 148h-408l-81 -529h284l-18 -110h-285z" />
<glyph unicode="&#x111;" horiz-adv-x="1130" d="M168 380q0 93 17.5 187.5t45 184.5t76.5 176t131 131t175.5 45t207 -22.5t199.5 -59.5l37 240h-250l18 110h250l39 236h148l-37 -236h147l-18 -110h-148l-200 -1262h-109l-20 121q-61 -41 -184.5 -87t-220.5 -46t-168 51t-97 131q-39 117 -39 210zM319.5 376 q-0.5 -75 20.5 -132q39 -104 141 -105q170 0 414 94l104 666q-195 53 -393 53q-100 0 -166.5 -88.5t-105.5 -324.5q-14 -88 -14.5 -163z" />
<glyph unicode="&#x112;" horiz-adv-x="1161" d="M197 197q0 25 4 55l155 981q44 266 277 266h24l643 -33l-18 -118h-649q-66 0 -91.5 -31t-33.5 -84l-66 -410l672 -20l-20 -121l-676 -20l-66 -410q-8 -80 29 -94q33 -12 84 -13h629l-21 -116l-635 -35h-18q-100 0 -161.5 54t-61.5 149zM569 1622l21 129h598l-21 -129 h-598z" />
<glyph unicode="&#x113;" horiz-adv-x="1075" d="M155.5 312.5q0.5 111.5 27 256t56 229.5t87.5 163q109 147 397 147q207 0 309 -72q86 -59 86 -184q0 -164 -102 -266q-80 -82 -185 -111q-135 -37 -293 -37t-221 27q-16 -96 -16 -160.5t14 -99.5q33 -72 144 -74q53 -4 166.5 -4t343.5 33l-17 -115q-217 -59 -512 -59 q-195 0 -254 141q-31 74 -30.5 185.5zM334 575q78 -6 112.5 -6t115.5 3t162 21.5t153 70.5q90 61 90 174q0 66 -50.5 92t-180.5 26t-201.5 -24.5t-109.5 -87t-52 -101.5q-23 -68 -39 -168zM444 1231l21 129h598l-21 -129h-598z" />
<glyph unicode="&#x116;" horiz-adv-x="1161" d="M197 197q0 25 4 55l155 981q44 266 277 266h24l643 -33l-18 -118h-649q-66 0 -91.5 -31t-33.5 -84l-66 -410l672 -20l-20 -121l-676 -20l-66 -410q-8 -80 29 -94q33 -12 84 -13h629l-21 -116l-635 -35h-18q-100 0 -161.5 54t-61.5 149zM809 1679l18 111q9 51 58 51h102 q47 0 39 -51l-18 -111q-6 -47 -54 -47h-102q-20 0 -32.5 13.5t-10.5 33.5z" />
<glyph unicode="&#x117;" horiz-adv-x="1075" d="M155.5 312.5q0.5 111.5 27 256t56 229.5t87.5 163q109 147 397 147q207 0 309 -72q86 -59 86 -184q0 -164 -102 -266q-80 -82 -185 -111q-135 -37 -293 -37t-221 27q-16 -96 -16 -160.5t14 -99.5q33 -72 144 -74q53 -4 166.5 -4t343.5 33l-17 -115q-217 -59 -512 -59 q-195 0 -254 141q-31 74 -30.5 185.5zM334 575q78 -6 112.5 -6t115.5 3t162 21.5t153 70.5q90 61 90 174q0 66 -50.5 92t-180.5 26t-201.5 -24.5t-109.5 -87t-52 -101.5q-23 -68 -39 -168zM651 1278l19 111q6 51 57 51h102q45 0 39 -51l-18 -111q-6 -47 -53 -47h-103 q-23 0 -35 13t-8 34z" />
<glyph unicode="&#x118;" horiz-adv-x="1150" d="M207 197q0 25 4 55l156 981q43 266 276 266h25l643 -33l-19 -118h-649q-66 0 -91.5 -31t-33.5 -84l-65 -410l671 -20l-20 -121l-676 -20l-66 -410q-8 -80 31 -94q31 -12 82 -13h629l-21 -116l-634 -35h-19q-100 0 -161.5 54t-61.5 149zM799 -195q0 141 205 224h79 q-152 -111 -151 -187q0 -61 100 -61h19l-21 -123q-25 -4 -45 -4q-88 0 -137 48t-49 103z" />
<glyph unicode="&#x119;" horiz-adv-x="1075" d="M159.5 312.5q0.5 111.5 27 256t56 229.5t87.5 163q109 147 397 147q207 0 309 -72q86 -59 86 -184q0 -164 -102 -266q-80 -82 -184 -111q-135 -37 -293 -37t-221 27q-16 -96 -16.5 -160.5t13.5 -99.5q33 -72 144 -74q53 -4 166.5 -4t343.5 33l-17 -115q-217 -59 -512 -59 q-195 0 -254 141q-31 74 -30.5 185.5zM338 575q78 -6 112.5 -6t115.5 3t162 21.5t153 70.5q90 61 90 174q0 66 -50.5 92t-180.5 26t-201.5 -24.5t-109.5 -87t-52 -101.5q-23 -68 -39 -168zM672 -178q0 141 205 223h79q-152 -111 -151 -186q0 -61 100 -62h19l-21 -123 q-25 -4 -45 -4q-88 0 -137 48.5t-49 103.5z" />
<glyph unicode="&#x11a;" horiz-adv-x="1161" d="M197 197q0 25 4 55l155 981q44 266 277 266h24l643 -33l-18 -118h-649q-66 0 -91.5 -31t-33.5 -84l-66 -410l672 -20l-20 -121l-676 -20l-66 -410q-8 -80 29 -94q33 -12 84 -13h629l-21 -116l-635 -35h-18q-100 0 -161.5 54t-61.5 149zM672 1898h133l117 -169l184 169 h164l-283 -266h-145z" />
<glyph unicode="&#x11b;" horiz-adv-x="1075" d="M155.5 312.5q0.5 111.5 27 256t56 229.5t87.5 163q109 147 397 147q207 0 309 -72q86 -59 86 -184q0 -164 -102 -266q-80 -82 -185 -111q-135 -37 -293 -37t-221 27q-16 -96 -16 -160.5t14 -99.5q33 -72 144 -74q53 -4 166.5 -4t343.5 33l-17 -115q-217 -59 -512 -59 q-195 0 -254 141q-31 74 -30.5 185.5zM334 575q78 -6 112.5 -6t115.5 3t162 21.5t153 70.5q90 61 90 174q0 66 -50.5 92t-180.5 26t-201.5 -24.5t-109.5 -87t-52 -101.5q-23 -68 -39 -168zM506 1497h133l117 -170l184 170h164l-283 -266h-145z" />
<glyph unicode="&#x11c;" horiz-adv-x="1247" d="M219 533.5q0 103.5 26.5 257t67.5 284.5t113 236q135 203 432 202h10q147 0 463 -59l-16 -121q-143 20 -319.5 23.5t-200 5.5t-50 -5t-54 -14.5t-56.5 -30t-55.5 -51t-53 -76.5t-51.5 -108q-49 -125 -72.5 -284.5t-23.5 -273t35 -212.5q57 -170 223 -170h4q72 0 171 28 t163 56l63 29l70 393h-346l16 102q195 51 367 52q63 0 137 -6l-125 -791h-117l-20 117q-53 -49 -169 -90t-226.5 -41t-190.5 47q-147 86 -192 299q-23 98 -23 201.5zM584 1636l282 267h146l170 -267h-133l-117 170l-184 -170h-164z" />
<glyph unicode="&#x11d;" horiz-adv-x="1132" d="M76 -508l16 100h529q76 0 133 50.5t71 144.5l43 272q-203 -78 -364.5 -77.5t-243.5 79t-88 207.5q-2 31 -2 100.5t16 194.5q41 256 160 396.5t291 140.5q174 0 346 -22.5t195 -24.5l-201 -1266q-29 -180 -131.5 -263t-216.5 -83q-16 0 -33 2zM317.5 380 q-0.5 -85 8 -114.5t26.5 -64.5q33 -70 144 -70q182 0 391 51l123 766h-373q-76 0 -135.5 -47t-91.5 -121q-54 -120 -72 -231q-20 -84 -20.5 -169zM461 1223l282 266h146l170 -266h-133l-117 170l-184 -170h-164z" />
<glyph unicode="&#x11e;" horiz-adv-x="1247" d="M219 533.5q0 103.5 26.5 257t67.5 284.5t113 236q135 203 432 202h10q147 0 463 -59l-16 -121q-143 20 -319.5 23.5t-200 5.5t-50 -5t-54 -14.5t-56.5 -30t-55.5 -51t-53 -76.5t-51.5 -108q-49 -125 -72.5 -284.5t-23.5 -273t35 -212.5q57 -170 223 -170h4q72 0 171 28 t163 56l63 29l70 393h-346l16 102q195 51 367 52q63 0 137 -6l-125 -791h-117l-20 117q-53 -49 -169 -90t-226.5 -41t-190.5 47q-147 86 -192 299q-23 98 -23 201.5zM686 1845v25h94v-42t30 -63.5t83 -33.5h6q137 0 158 139h94q-31 -233 -258 -234q-88 0 -147.5 59.5 t-59.5 149.5z" />
<glyph unicode="&#x11f;" horiz-adv-x="1132" d="M76 -508l16 100h529q76 0 133 50.5t71 144.5l43 272q-203 -78 -364.5 -77.5t-243.5 79t-88 207.5q-2 31 -2 100.5t16 194.5q41 256 160 396.5t291 140.5q174 0 346 -22.5t195 -24.5l-201 -1266q-29 -180 -131.5 -263t-216.5 -83q-16 0 -33 2zM317.5 380 q-0.5 -85 8 -114.5t26.5 -64.5q33 -70 144 -70q182 0 391 51l123 766h-373q-76 0 -135.5 -47t-91.5 -121q-54 -120 -72 -231q-20 -84 -20.5 -169zM586 1432v24h94q-2 -12 -2 -42t30.5 -63.5t84.5 -33.5h6q137 0 157 139h95q-31 -233 -258 -233q-88 0 -147.5 59t-59.5 150z " />
<glyph unicode="&#x120;" horiz-adv-x="1247" d="M219 533.5q0 103.5 26.5 257t67.5 284.5t113 236q135 203 432 202h10q147 0 463 -59l-16 -121q-143 20 -319.5 23.5t-200 5.5t-50 -5t-54 -14.5t-56.5 -30t-55.5 -51t-53 -76.5t-51.5 -108q-49 -125 -72.5 -284.5t-23.5 -273t35 -212.5q57 -170 223 -170h4q72 0 171 28 t163 56l63 29l70 393h-346l16 102q195 51 367 52q63 0 137 -6l-125 -791h-117l-20 117q-53 -49 -169 -90t-226.5 -41t-190.5 47q-147 86 -192 299q-23 98 -23 201.5zM801 1686l18 110q7 51 58 51h102q41 0 41 -37q0 -6 -2 -14l-19 -110q-6 -47 -53 -48h-102q-49 0 -43 48z " />
<glyph unicode="&#x121;" horiz-adv-x="1132" d="M76 -508l16 100h529q76 0 133 50.5t71 144.5l43 272q-203 -78 -364.5 -77.5t-243.5 79t-88 207.5q-2 31 -2 100.5t16 194.5q41 256 160 396.5t291 140.5q174 0 346 -22.5t195 -24.5l-201 -1266q-29 -180 -131.5 -263t-216.5 -83q-16 0 -33 2zM317.5 380 q-0.5 -85 8 -114.5t26.5 -64.5q33 -70 144 -70q182 0 391 51l123 766h-373q-76 0 -135.5 -47t-91.5 -121q-54 -120 -72 -231q-20 -84 -20.5 -169zM709 1270l18 110q6 52 57 52h103q45 0 39 -52l-19 -110q-6 -47 -53 -47h-102q-23 0 -35 13t-8 34z" />
<glyph unicode="&#x122;" horiz-adv-x="1247" d="M219 533.5q0 103.5 26.5 257t67.5 284.5t113 236q135 203 432 202h10q147 0 463 -59l-16 -121q-143 20 -319.5 23.5t-200 5.5t-50 -5t-54 -14.5t-56.5 -30t-55.5 -51t-53 -76.5t-51.5 -108q-49 -125 -72.5 -284.5t-23.5 -273t35 -212.5q57 -170 223 -170h4q72 0 171 28 t163 56l63 29l70 393h-346l16 102q195 51 367 52q63 0 137 -6l-125 -791h-117l-20 117q-53 -49 -169 -90t-226.5 -41t-190.5 47q-147 86 -192 299q-23 98 -23 201.5zM551 -510l10 59q25 -2 41 11q18 14 25 47l8 45h-21q-20 0 -31.5 12t-7.5 33l15 100q8 49 55 49h94 q37 0 37 -36q0 -6 -2 -13l-24 -166q-8 -49 -31 -82q-45 -63 -137 -63q-6 0 -31 4z" />
<glyph unicode="&#x123;" horiz-adv-x="1114" d="M78 -508l16 100h529q76 0 133 50.5t71 144.5l43 272q-203 -78 -364.5 -77.5t-243.5 79t-90 207.5v100.5t16 194.5q41 256 160 396.5t291 140.5q174 0 346 -22.5t195 -24.5l-201 -1266q-29 -180 -131.5 -263t-216.5 -83q-16 0 -33 2zM319.5 380q-0.5 -85 8 -114.5 t24.5 -64.5q37 -70 146 -70q182 0 391 51l123 766h-373q-76 0 -135.5 -47t-91.5 -121q-54 -120 -72 -231q-20 -84 -20.5 -169zM682 1251v13l25 166q12 78 60 112.5t89 34.5h6l43 -4l-10 -60q-39 0 -49 -16q-12 -20 -17 -41l-8 -47h21q45 0 39 -45l-15 -100q-10 -49 -55 -50 h-94q-35 0 -35 37z" />
<glyph unicode="&#x124;" horiz-adv-x="1318" d="M174 0l238 1499h151l-112 -698h716l113 698h152l-238 -1499h-152l105 649h-717l-104 -649h-152zM643 1632l283 266h145l170 -266h-133l-117 170l-184 -170h-164z" />
<glyph unicode="&#x125;" horiz-adv-x="1114" d="M176 0l254 1606h152l-103 -645q100 68 254 116q82 29 172 29q156 0 230 -102q57 -78 57 -181q0 -33 -6 -65l-121 -758h-152l121 758q4 25 4 47q0 63 -36.5 106t-117.5 43t-153 -16t-117 -33.5t-153 -66.5l-133 -838h-152zM213 1729l283 266h145l170 -266h-133l-117 169 l-184 -169h-164z" />
<glyph unicode="&#x126;" horiz-adv-x="1308" d="M174 0l168 1059h-125l16 112h125l54 328h151l-53 -328h717l53 328h152l-54 -328h121l-16 -112h-121l-168 -1059h-152l107 651h-717l-106 -651h-152zM453 805h716l41 254h-716z" />
<glyph unicode="&#x127;" horiz-adv-x="1099" d="M123 0l199 1249h-158l16 111h158l39 246h158l-39 -246h274l-16 -111h-275l-47 -288q18 12 86 44.5t78 38t39 17.5t42 16t37.5 11.5t43.5 9.5q39 8 80 8q156 0 229 -102q57 -78 57 -181q0 -33 -6 -65l-121 -758h-151l121 758q4 25 4 47q0 63 -37 106t-115 43 q-145 0 -405 -116l-133 -838h-158z" />
<glyph unicode="&#x128;" horiz-adv-x="460" d="M184 0l238 1499h151l-237 -1499h-152zM184 1716q61 45 95 66q96 66 160.5 63.5t127 -35t74.5 -32.5h23.5t60.5 16q100 33 131 53l31 -86q-18 -12 -62 -43q-125 -84 -192 -84q-63 0 -120.5 35t-90.5 35q-68 0 -131.5 -33t-75.5 -39z" />
<glyph unicode="&#x129;" horiz-adv-x="399" d="M33 1305q61 45 94 65q96 66 160.5 64t127 -35t75 -33h29t93 29.5t93.5 40.5l30 -86q-18 -12 -61 -43q-125 -84 -193 -84q-51 0 -89 18.5t-65.5 34.5t-63.5 16t-67.5 -10t-75.5 -32.5t-57 -28.5zM123 0l172 1087h151l-172 -1087h-151z" />
<glyph unicode="&#x12a;" horiz-adv-x="460" d="M86 0l238 1499h151l-237 -1499h-152zM98 1622l21 129h598l-21 -129h-598z" />
<glyph unicode="&#x12b;" horiz-adv-x="399" d="M88 1221l21 129h598l-21 -129h-598zM123 0l172 1087h151l-172 -1087h-151z" />
<glyph unicode="&#x12e;" horiz-adv-x="460" d="M18 -223q0 141 207 223h80q-152 -111 -151 -186q0 -61 100 -62h18l-20 -123q-25 -2 -45 -2q-88 0 -138.5 47.5t-50.5 102.5zM184 0l238 1499h151l-237 -1499h-152z" />
<glyph unicode="&#x12f;" horiz-adv-x="399" d="M-102 -211q0 141 206 223h80q-152 -111 -151 -186q0 -61 100 -62h19l-21 -122q-25 -2 -45 -2q-88 0 -138 47t-50 102zM123 0h151l172 1087h-151zM299 1251v11l16 110q7 51 58 51h102q41 0 41 -37q0 -6 -2 -14l-16 -110q-6 -47 -56 -48h-102q-41 0 -41 37z" />
<glyph unicode="&#x130;" horiz-adv-x="460" d="M184 0l238 1499h151l-237 -1499h-152zM426 1679l18 111q8 51 58 51h102q41 0 41 -41q0 -4 -2 -10l-18 -111q-6 -47 -54 -47h-102q-20 0 -32.5 13.5t-10.5 33.5z" />
<glyph unicode="&#x131;" horiz-adv-x="399" d="M123 0l172 1087h151l-172 -1087h-151z" />
<glyph unicode="&#x134;" horiz-adv-x="737" d="M78 43l26 111q125 -31 174.5 -31t77 8t64.5 29q72 41 94 178l184 1161h152l-184 -1161q-35 -231 -154 -301q-86 -49 -215 -49q-143 0 -219 55zM496 1632l282 266h146l170 -266h-133l-117 170l-185 -170h-163z" />
<glyph unicode="&#x135;" horiz-adv-x="428" d="M53 -553l260 1640h162l-174 -1095q-47 -317 -139 -545h-109zM90 1223l281 274h145l172 -274h-141l-107 163l-178 -163h-172z" />
<glyph unicode="&#x136;" horiz-adv-x="1171" d="M164 0l237 1499h152l-107 -672h179l563 672h188l-622 -758l385 -741h-183l-346 676h-186l-107 -676h-153zM479 -500l10 60q25 -2 41 10q18 14 25 45l8 47h-20q-20 0 -31.5 12.5t-7.5 34.5l14 98q8 49 55 50h95q37 0 37 -37q0 -6 -3 -13l-24 -165q-8 -49 -31 -82 q-45 -63 -137 -64q-6 0 -31 4z" />
<glyph unicode="&#x137;" horiz-adv-x="1003" d="M123 -4l254 1601h151l-151 -954q143 43 322.5 186.5t201.5 253.5h170q-43 -150 -196.5 -296t-280.5 -201l412 -590h-185l-381 549l-78 -2l-88 -547h-151zM408 -500l10 60q25 -2 41 10q18 14 24 45l9 47h-21q-20 0 -31.5 12.5t-7.5 34.5l14 98q8 49 56 50h94q37 0 37 -37 q0 -6 -2 -13l-25 -165q-8 -49 -31 -82q-45 -63 -137 -64q-6 0 -30 4z" />
<glyph unicode="&#x138;" horiz-adv-x="1081" d="M123 0l172 1087h151l-73 -473h192l449 473h198l-501 -548l327 -539h-182l-291 463h-215l-76 -463h-151z" />
<glyph unicode="&#x139;" horiz-adv-x="1095" d="M72 203q0 25 4 55l200 1241h150l-199 -1241q-12 -78 31 -94q31 -12 82 -12h627l-23 -152h-631q-117 0 -179 55.5t-62 147.5zM303 1622l262 272h195l-316 -272h-141z" />
<glyph unicode="&#x13a;" horiz-adv-x="593" d="M117 266q0 55 10 121l192 1217h152l-192 -1217q-12 -66 -12.5 -105.5t3.5 -61t21 -36.5q23 -23 123 -46t102 -23l-18 -115h-140q-242 0 -241 266zM344 1726l262 273h195l-316 -273h-141z" />
<glyph unicode="&#x13b;" horiz-adv-x="1095" d="M199 203q0 25 4 55l200 1241h150l-199 -1241q-12 -78 31 -94q31 -12 82 -12h627l-23 -152h-631q-117 0 -179 55.5t-62 147.5zM489 -500l11 60q25 -2 41 10q18 14 24 45l8 47h-20q-20 0 -31.5 12.5t-7.5 34.5l14 98q8 49 56 50h94q37 0 37 -37q0 -6 -2 -13l-25 -165 q-8 -49 -31 -82q-45 -63 -137 -64q-6 0 -31 4z" />
<glyph unicode="&#x13c;" horiz-adv-x="593" d="M172 266q0 55 10 121l193 1217h151l-192 -1217q-12 -66 -12 -105.5t4 -61t18 -36.5q25 -23 125 -46t102 -23l-18 -115h-139q-242 0 -242 266zM184 -500l11 60q25 -2 41 10q18 14 24 45l8 47h-20q-20 0 -31.5 12.5t-7.5 34.5l14 98q8 49 56 50h94q37 0 37 -37q0 -6 -2 -13 l-25 -165q-8 -49 -31 -82q-45 -63 -137 -64q-6 0 -31 4z" />
<glyph unicode="&#x13d;" horiz-adv-x="1095" d="M199 203q0 25 4 55l200 1241h150l-199 -1241q-12 -78 31 -94q31 -12 82 -12h627l-23 -152h-631q-117 0 -179 55.5t-62 147.5zM670 1169l20 275l23 137h151l-22 -137l-64 -275h-108z" />
<glyph unicode="&#x13e;" horiz-adv-x="608" d="M172 264q0 55 10 123l193 1217h151l-192 -1217q-12 -66 -12 -105.5t4 -61t18 -36.5q25 -23 125 -46t102 -23l-18 -115h-139q-242 0 -242 264zM639 1188l20 274l23 137h152l-23 -137l-63 -274h-109z" />
<glyph unicode="&#x141;" horiz-adv-x="1095" d="M90 655l21 125l184 74l102 645h150l-92 -579l305 122l-23 -122l-301 -123l-86 -539q-12 -80 27 -94q33 -12 84 -12h629l-25 -152h-629q-117 0 -179 55.5t-62 147.5q0 25 4 55l75 473z" />
<glyph unicode="&#x142;" horiz-adv-x="743" d="M205 756l20 125l168 67l105 656h157l-94 -586l313 125l-22 -123l-309 -127l-88 -506q-14 -80 -14.5 -123t14 -65.5t31 -30.5t110.5 -30.5t96 -22.5l-16 -115h-139q-244 0 -244 264q0 55 10 123l70 438z" />
<glyph unicode="&#x143;" d="M164 0l237 1499h148l571 -1216l193 1216h151l-237 -1499h-144l-573 1217l-193 -1217h-153zM883 1632l262 273h194l-315 -273h-141z" />
<glyph unicode="&#x144;" horiz-adv-x="1114" d="M123 0l172 1087h106l25 -126q100 68 254 116q82 29 172 29q156 0 229 -102q57 -78 58 -181q0 -33 -6 -65l-121 -758h-152l121 758q4 25 4 45q0 66 -38 108.5t-117.5 42.5t-151.5 -16t-117 -33.5t-153 -66.5l-134 -838h-151zM692 1229l262 272h195l-315 -272h-142z" />
<glyph unicode="&#x145;" d="M164 0l237 1499h148l571 -1216l193 1216h151l-237 -1499h-144l-573 1217l-193 -1217h-153zM573 -500l11 60q25 -2 41 10q18 14 24 45l8 47h-20q-20 0 -31.5 12.5t-7.5 34.5l14 98q8 49 56 50h94q37 0 37 -37q0 -6 -2 -13l-25 -165q-8 -49 -31 -82q-45 -63 -137 -64 q-6 0 -31 4z" />
<glyph unicode="&#x146;" horiz-adv-x="1114" d="M123 0l172 1087h106l25 -126q100 68 254 116q82 29 172 29q156 0 229 -102q57 -78 58 -181q0 -33 -6 -65l-121 -758h-152l121 758q4 25 4 45q0 66 -38 108.5t-117.5 42.5t-151.5 -16t-117 -33.5t-153 -66.5l-134 -838h-151zM426 -500l10 60q25 -2 41 10q18 14 25 45l8 47 h-21q-20 0 -31.5 12.5t-6.5 34.5l14 98q8 49 55 50h94q37 0 37 -37q0 -6 -2 -13l-24 -165q-8 -49 -31 -82q-45 -63 -137 -64q-6 0 -31 4z" />
<glyph unicode="&#x147;" d="M164 0l237 1499h148l571 -1216l193 1216h151l-237 -1499h-144l-573 1217l-193 -1217h-153zM698 1898h133l117 -169l185 169h163l-282 -266h-146z" />
<glyph unicode="&#x148;" horiz-adv-x="1114" d="M123 0l172 1087h106l25 -126q100 68 254 116q82 29 172 29q156 0 229 -102q57 -78 58 -181q0 -33 -6 -65l-121 -758h-152l121 758q4 25 4 45q0 66 -38 108.5t-117.5 42.5t-151.5 -16t-117 -33.5t-153 -66.5l-134 -838h-151zM516 1495h133l117 -170l184 170h164l-283 -266 h-145z" />
<glyph unicode="&#x14a;" d="M164 0l237 1499h148l571 -1216l193 1216h151l-264 -1671q-41 -254 -231 -320q-106 -35 -264 -34l18 116q20 6 64 14.5t69 14.5t62.5 24.5t60.5 41.5q53 57 74 172l24 155l-567 1205l-193 -1217h-153z" />
<glyph unicode="&#x14b;" horiz-adv-x="1134" d="M123 0l172 1087h106l25 -126q100 68 254 116q82 29 172 29q156 0 229 -102q57 -78 58 -181q0 -33 -6 -65l-152 -942q-20 -94 -78 -187q-20 -33 -59 -61l-58 -43q-37 -27 -91 -43.5t-105 -30.5l-49 78l49 25q133 66 174 116q51 61 65 137l152 951q4 25 4 45 q0 66 -38 108.5t-117.5 42.5t-151.5 -16t-117 -33.5t-153 -66.5l-134 -838h-151z" />
<glyph unicode="&#x14c;" horiz-adv-x="1366" d="M211 417q0 54 1 116.5t28.5 237.5t76 317.5t102.5 225.5t137 127t162 56t180 12t163.5 -7t124 -27.5t102.5 -55.5q94 -82 121 -231q10 -70 10 -124t-1 -117.5t-24.5 -217.5t-58.5 -274.5t-83 -202.5t-100 -134t-124 -81q-123 -45 -311 -45q-260 0 -365 78 q-98 76 -127 223q-14 70 -14 124zM360 417q0 -52 18.5 -116.5t69 -99.5t112 -46.5t171 -11.5t185 21.5t143.5 85.5q129 121 184 489q27 164 27 275.5t-13.5 158t-26.5 77t-43 52t-52.5 33t-65.5 17.5q-63 6 -146 6t-121 -2t-94.5 -13.5t-87 -35t-70.5 -67.5t-65.5 -110.5 t-51 -164t-48.5 -240.5t-24 -199.5t-1 -108.5zM653 1622l21 129h598l-21 -129h-598z" />
<glyph unicode="&#x14d;" horiz-adv-x="1155" d="M168 360q0 76 14 168q51 330 172 450t384 120t358 -140q61 -92 61 -247q0 -82 -16 -183q-51 -307 -165 -422.5t-379 -115.5t-364 125q-66 84 -65 245zM317 367.5q0 -60.5 13.5 -99.5t34 -65.5t59.5 -38.5q63 -23 165.5 -23t155 10.5t105.5 48.5t85 117.5t52.5 199.5 t20.5 210t-33 137q-57 82 -246 82q-96 0 -151.5 -12t-106.5 -55t-82 -126t-51.5 -204t-20.5 -181.5zM467 1221l20 129h598l-20 -129h-598z" />
<glyph unicode="&#x150;" horiz-adv-x="1366" d="M211 417q0 54 1 116.5t28.5 237.5t76 317.5t102.5 225.5t137 127t162 56t180 12t163.5 -7t124 -27.5t102.5 -55.5q94 -82 121 -231q10 -70 10 -124t-1 -117.5t-24.5 -217.5t-58.5 -274.5t-83 -202.5t-100 -134t-124 -81q-123 -45 -311 -45q-260 0 -365 78 q-98 76 -127 223q-14 70 -14 124zM360 417q0 -52 18.5 -116.5t69 -99.5t112 -46.5t171 -11.5t185 21.5t143.5 85.5q129 121 184 489q27 164 27 275.5t-13.5 158t-26.5 77t-43 52t-52.5 33t-65.5 17.5q-63 6 -146 6t-121 -2t-94.5 -13.5t-87 -35t-70.5 -67.5t-65.5 -110.5 t-51 -164t-48.5 -240.5t-24 -199.5t-1 -108.5zM729 1632l262 273h195l-316 -273h-141zM1006 1632l262 273h194l-315 -273h-141z" />
<glyph unicode="&#x151;" horiz-adv-x="1155" d="M168 360q0 76 14 168q51 330 172 450t384 120t358 -140q61 -92 61 -247q0 -82 -16 -183q-51 -307 -165 -422.5t-379 -115.5t-364 125q-66 84 -65 245zM317 367.5q0 -60.5 13.5 -99.5t34 -65.5t59.5 -38.5q63 -23 165.5 -23t155 10.5t105.5 48.5t85 117.5t52.5 199.5 t20.5 210t-33 137q-57 82 -246 82q-96 0 -151.5 -12t-106.5 -55t-82 -126t-51.5 -204t-20.5 -181.5zM557 1221l262 272h195l-316 -272h-141zM834 1221l262 272h194l-315 -272h-141z" />
<glyph unicode="&#x152;" horiz-adv-x="2203" d="M188.5 417q-0.5 54 0.5 116.5t29 237.5t76 317.5t102.5 225.5t137 127t161.5 56t221.5 12t249 -35.5t165.5 -132.5q57 158 248 158h23l643 -33l-19 -118h-649q-66 0 -91.5 -31t-33.5 -84l-63 -410l669 -20l-18 -121l-678 -20l-66 -410q-8 -80 31 -94q31 -12 82 -13h629 l-21 -116l-633 -35h-16q-74 0 -136.5 33.5t-82.5 109.5q-80 -84 -188.5 -114.5t-227.5 -30.5t-176 5t-120.5 23.5t-104.5 49.5q-100 76 -131 223q-12 70 -12.5 124zM338 417q0 -52 18.5 -116.5t68.5 -99.5t111.5 -46.5t171 -11.5t185.5 21.5t143 85.5q129 121 185 489 q27 164 26.5 275.5t-13.5 158t-26.5 77t-43 52t-52 33t-68.5 17.5q-61 6 -144 6t-121 -2t-94 -13.5t-87 -35t-71 -67.5t-65.5 -110.5t-51 -164t-48 -240.5t-23.5 -199.5t-1 -108.5z" />
<glyph unicode="&#x153;" horiz-adv-x="1900" d="M152 367q0 76 14 168q51 330 172 446.5t398.5 116.5t363.5 -174q117 184 428 184q207 0 311 -72q84 -59 84 -184q0 -164 -100 -266q-82 -82 -187 -111q-135 -37 -293 -37t-221 27q-16 -96 -16 -160.5t16 -99.5q31 -74 142 -74q307 0 510 29l-17 -115q-217 -59 -512 -59 q-197 0 -258 149q-117 -145 -394.5 -145t-375.5 127q-66 86 -65 250zM301 367.5q0 -60.5 13.5 -99.5t34 -65.5t59.5 -38.5q63 -23 165.5 -23t154.5 10.5t105.5 48.5t85 117.5t52 199.5t20.5 210t-33 137q-57 82 -245 82q-96 0 -151.5 -12t-107 -55t-82 -126t-51 -204 t-20.5 -181.5zM1139 575q78 -6 112.5 -6t115.5 3t162 21.5t154 70.5q88 61 89 174q0 66 -50.5 92t-180.5 26t-201.5 -24.5t-109.5 -87t-50 -101.5q-25 -68 -41 -168z" />
<glyph unicode="&#x154;" horiz-adv-x="1249" d="M154 0l237 1499h639q281 0 281 -346q0 -49 -6 -104q-39 -391 -326 -431l217 -618h-166l-203 602l-421 29l-101 -631h-151zM428 762h475q96 0 166 66.5t82 220.5q6 47 6 79.5t-5 70.5t-12 71t-30 49q-39 27 -104 27h-486zM784 1632l263 273h194l-315 -273h-142z" />
<glyph unicode="&#x155;" horiz-adv-x="874" d="M285 0l172 1087h106l23 -137q12 6 56 30t60.5 32t55.5 26.5t62.5 25.5t59 17.5t68.5 14.5t110 4t107 -17l-24 -149q-49 12 -138.5 12t-162 -16.5t-117.5 -34.5t-156 -68l-131 -827h-151zM762 1223l262 272h195l-316 -272h-141z" />
<glyph unicode="&#x156;" horiz-adv-x="1249" d="M154 0l237 1499h639q281 0 281 -346q0 -49 -6 -104q-39 -391 -326 -431l217 -618h-166l-203 602l-421 29l-101 -631h-151zM428 762h475q96 0 166 66.5t82 220.5q6 47 6 79.5t-5 70.5t-12 71t-30 49q-39 27 -104 27h-486zM524 -500l11 60q39 -2 49 14q14 23 16 41l8 47 h-20q-20 0 -31.5 12.5t-7.5 34.5l14 98q8 49 55 50h95q37 0 37 -37q0 -6 -2 -13l-25 -165q-8 -49 -31 -82q-45 -63 -137 -64q-6 0 -31 4z" />
<glyph unicode="&#x157;" horiz-adv-x="874" d="M123 -500l10 60q25 -2 41 10q18 14 25 45l8 47h-21q-20 0 -31.5 12.5t-7.5 34.5l15 98q8 49 55 50h94q37 0 37 -37q0 -6 -2 -13l-24 -165q-8 -49 -31 -82q-45 -63 -137 -64q-6 0 -31 4zM211 0l172 1087h106l23 -137q12 6 56 30t60.5 32t55.5 26.5t62.5 25.5t59.5 17.5 t68.5 14.5t109.5 4t108 -17l-25 -149q-49 12 -138 12t-162 -16.5t-118 -34.5t-155 -68l-132 -827h-151z" />
<glyph unicode="&#x158;" horiz-adv-x="1249" d="M154 0l237 1499h639q281 0 281 -346q0 -49 -6 -104q-39 -391 -326 -431l217 -618h-166l-203 602l-421 29l-101 -631h-151zM428 762h475q96 0 166 66.5t82 220.5q6 47 6 79.5t-5 70.5t-12 71t-30 49q-39 27 -104 27h-486zM608 1898h133l117 -169l184 169h164l-282 -266 h-146z" />
<glyph unicode="&#x159;" horiz-adv-x="874" d="M123 0l172 1087h106l23 -137q12 6 56 30t60.5 32t55.5 26.5t62.5 25.5t59.5 17.5t68.5 14.5t109.5 4t108 -17l-25 -149q-49 12 -138 12t-162 -16.5t-118 -34.5t-155 -68l-132 -827h-151zM414 1489h133l117 -170l184 170h164l-283 -266h-145z" />
<glyph unicode="&#x15a;" horiz-adv-x="1169" d="M137 33l19 123q148 -21 506 -21q264 0 292 184l23 140q6 41 6 82t-14 69q-25 49 -131 49h-285q-315 0 -315 263q0 43 8 90l20 135q37 229 168 305q106 59 254 59q207 0 543 -49l-19 -121l-507 19h-33q-106 0 -170 -38t-84 -175l-21 -135q-6 -43 -6 -76t6 -53.5t17.5 -36 t26 -21.5t33 -10t38.5 -4h350q90 0 151.5 -31.5t86.5 -83.5q37 -76 37 -137t-9 -100l-22 -140q-14 -90 -53 -154.5t-84 -98t-109 -54.5q-100 -29 -214 -28.5t-277.5 17.5t-231.5 32zM758 1634l262 273h194l-315 -273h-141z" />
<glyph unicode="&#x15b;" horiz-adv-x="1040" d="M168 18l18 113h562q39 -6 80.5 24.5t50.5 86.5l18 110q4 18 4 42t-17.5 47.5t-82.5 23.5h-303q-152 0 -210.5 53t-58.5 146q0 33 7 69l16 105q23 137 97.5 203.5t249.5 66.5t509 -33l-18 -117h-535q-115 0 -141 -81q-6 -16 -11 -39l-16 -105q-8 -27 -4 -45t4 -31.5 t11.5 -20.5t15.5 -12.5t19.5 -6.5t21.5 -2t22.5 0t22.5 1h307q131 0 188.5 -65.5t57.5 -149.5q0 -23 -4 -49l-19 -129q-25 -160 -125 -207q-80 -37 -182 -36q-195 0 -555 38zM657 1231l263 272h194l-315 -272h-142z" />
<glyph unicode="&#x15c;" horiz-adv-x="1169" d="M162 33l18 123q148 -21 506 -21q264 0 293 184l22 140q6 41 6.5 82t-14.5 69q-25 49 -131 49h-284q-315 0 -316 263q0 43 8 90l21 135q37 229 168 305q106 59 254 59q207 0 542 -49l-18 -121l-508 19h-33q-106 0 -169.5 -38t-84.5 -175l-20 -135q-6 -43 -6 -76t6 -53.5 t17.5 -36t25.5 -21.5t32.5 -10t39.5 -4h350q90 0 151.5 -31.5t85.5 -83.5q37 -76 37 -137t-8 -100l-23 -140q-14 -90 -53 -154.5t-84 -98t-108 -54.5q-100 -29 -214 -28.5t-278 17.5t-231 32zM539 1634l282 267h146l170 -267h-133l-117 170l-185 -170h-163z" />
<glyph unicode="&#x15d;" horiz-adv-x="1040" d="M131 18l19 113h561q39 -6 81 24.5t50 86.5l18 110q4 18 4 42t-17.5 47.5t-82.5 23.5h-303q-152 0 -210 53t-58 146q0 33 6 69l16 105q23 137 97.5 203.5t249.5 66.5t509 -33l-18 -117h-535q-115 0 -141 -81q-6 -16 -10 -39l-17 -105q-8 -27 -4 -45t4 -31.5t11.5 -20.5 t15.5 -12.5t19.5 -6.5t21.5 -2t22.5 0t22.5 1h307q131 0 188.5 -65.5t57.5 -149.5q0 -23 -4 -49l-19 -129q-25 -160 -125 -207q-80 -37 -182 -36q-195 0 -555 38zM412 1231l282 266h146l170 -266h-133l-117 170l-185 -170h-163z" />
<glyph unicode="&#x15e;" horiz-adv-x="1169" d="M162 33l18 123q148 -21 506 -21q264 0 293 184l22 140q6 41 6.5 82t-14.5 69q-25 49 -131 49h-284q-315 0 -316 263q0 43 8 90l21 135q37 229 168 305q106 59 254 59q207 0 542 -49l-18 -121l-508 19h-33q-106 0 -169.5 -38t-84.5 -175l-20 -135q-6 -43 -6 -76t6 -53.5 t17.5 -36t25.5 -21.5t32.5 -10t39.5 -4h350q90 0 151.5 -31.5t85.5 -83.5q37 -76 37 -137t-8 -100l-23 -140q-14 -90 -53 -154.5t-84 -98t-108 -54.5q-100 -29 -214 -28.5t-278 17.5t-231 32zM350 -371l12 76l113 31q72 29 94 172h138q-25 -160 -78 -219.5t-174 -59.5h-105z " />
<glyph unicode="&#x15f;" horiz-adv-x="1040" d="M131 18l19 113h561q39 -6 81 24.5t50 86.5l18 110q4 18 4 42t-17.5 47.5t-82.5 23.5h-303q-152 0 -210 53t-58 146q0 33 6 69l16 105q23 137 97.5 203.5t249.5 66.5t509 -33l-18 -117h-535q-115 0 -141 -81q-6 -16 -10 -39l-17 -105q-8 -27 -4 -45t4 -31.5t11.5 -20.5 t15.5 -12.5t19.5 -6.5t21.5 -2t22.5 0t22.5 1h307q131 0 188.5 -65.5t57.5 -149.5q0 -23 -4 -49l-19 -129q-25 -160 -125 -207q-80 -37 -182 -36q-195 0 -555 38zM258 -358l12 75l113 31q72 29 94 172h137q-25 -160 -78 -219t-174 -59h-104z" />
<glyph unicode="&#x160;" horiz-adv-x="1169" d="M162 33l18 123q148 -21 506 -21q264 0 293 184l22 140q6 41 6.5 82t-14.5 69q-25 49 -131 49h-284q-315 0 -316 263q0 43 8 90l21 135q37 229 168 305q106 59 254 59q207 0 542 -49l-18 -121l-508 19h-33q-106 0 -169.5 -38t-84.5 -175l-20 -135q-6 -43 -6 -76t6 -53.5 t17.5 -36t25.5 -21.5t32.5 -10t39.5 -4h350q90 0 151.5 -31.5t85.5 -83.5q37 -76 37 -137t-8 -100l-23 -140q-14 -90 -53 -154.5t-84 -98t-108 -54.5q-100 -29 -214 -28.5t-278 17.5t-231 32zM612 1901h133l117 -170l185 170h163l-282 -267h-146z" />
<glyph unicode="&#x161;" horiz-adv-x="1040" d="M131 18l19 113h561q39 -6 81 24.5t50 86.5l18 110q4 18 4 42t-17.5 47.5t-82.5 23.5h-303q-152 0 -210 53t-58 146q0 33 6 69l16 105q23 137 97.5 203.5t249.5 66.5t509 -33l-18 -117h-535q-115 0 -141 -81q-6 -16 -10 -39l-17 -105q-8 -27 -4 -45t4 -31.5t11.5 -20.5 t15.5 -12.5t19.5 -6.5t21.5 -2t22.5 0t22.5 1h307q131 0 188.5 -65.5t57.5 -149.5q0 -23 -4 -49l-19 -129q-25 -160 -125 -207q-80 -37 -182 -36q-195 0 -555 38zM446 1497h134l116 -170l185 170h163l-282 -266h-146z" />
<glyph unicode="&#x162;" horiz-adv-x="1185" d="M244 -379l12 76l113 31q72 29 94 172h137q-25 -160 -78 -219.5t-174 -59.5h-104zM244 1348l24 151h1041l-25 -151h-450l-213 -1348h-152l213 1348h-438z" />
<glyph unicode="&#x163;" horiz-adv-x="774" d="M129 -383l12 76l113 31q72 29 94 172h137q-25 -160 -78 -219.5t-174 -59.5h-104zM188 938l19 115l209 37l84 303h114l-47 -303h318l-25 -152h-317l-86 -551q-6 -78 -9.5 -103.5t-3.5 -45t14.5 -41t31 -29.5t109.5 -30.5t95 -22.5l-16 -115h-139q-244 0 -244 262 q0 55 10 125l86 551h-203z" />
<glyph unicode="&#x164;" horiz-adv-x="1185" d="M285 1348l24 151h1041l-25 -151h-451l-212 -1348h-152l213 1348h-438zM594 1898h133l117 -169l184 169h164l-283 -266h-145z" />
<glyph unicode="&#x165;" horiz-adv-x="837" d="M131 938l19 115l208 37l84 303h115l-47 -303h317l-24 -152h-318l-86 -549q-8 -80 -8 -125t6 -61q16 -33 84 -49q152 -37 154 -37l-17 -115h-139q-242 0 -241 264q0 55 10 123l86 549h-203zM672 1227l24 274l19 137h153l-20 -137l-68 -274h-108z" />
<glyph unicode="&#x166;" horiz-adv-x="1185" d="M285 1348l24 151h1041l-25 -151h-451l-69 -439h246l-17 -110h-246l-126 -799h-152l127 799h-246l17 110h245l70 439h-438z" />
<glyph unicode="&#x167;" horiz-adv-x="753" d="M164 549l18 110h166l43 279h-203l19 115l209 37l84 303h114l-47 -303h318l-25 -152h-317l-43 -279h215l-19 -110h-215l-24 -160q-14 -82 -14.5 -124t14 -64.5t31 -30.5t110.5 -30.5t96 -22.5l-18 -115h-139q-242 0 -242 264q0 55 10 123l25 160h-166z" />
<glyph unicode="&#x168;" horiz-adv-x="1343" d="M244 428q0 86 16 190l139 881h154l-139 -881q-16 -125 -16.5 -175t-0.5 -62q4 -94 47 -147.5t102.5 -73t158.5 -19.5q205 0 312 105.5t148 371.5l140 881h153l-139 -881q-16 -106 -34.5 -178.5t-62.5 -166t-106.5 -148.5t-171 -95t-252.5 -40q-260 0 -373 149 q-76 102 -75 289zM616 1716q139 102 185.5 116.5t89.5 12.5t105.5 -34.5t74.5 -32.5h24.5t59.5 16q100 33 133 53l31 -86q-20 -12 -64 -43q-123 -84 -192 -84q-63 0 -120.5 35t-88.5 35q-68 0 -131.5 -33t-75.5 -39z" />
<glyph unicode="&#x169;" horiz-adv-x="1112" d="M150 258q0 33 6 72l118 757h152l-119 -757q-4 -31 -4 -56q0 -141 158 -141q137 0 266 51q45 16 154 66l131 837h151l-172 -1087h-106l-25 127q-47 -29 -81 -44t-68.5 -32.5t-52 -24t-50.5 -17.5t-55 -15q-72 -12 -117 -12q-158 0 -231 98q-55 74 -55 178zM406 1305 q61 45 94 65q96 66 154.5 65t97.5 -18.5t68.5 -34t41.5 -16.5h28.5t93.5 29.5t93 40.5l31 -86q-18 -12 -61 -43q-125 -84 -193 -84q-63 0 -120.5 34.5t-90.5 34.5q-68 0 -131 -32.5t-76 -38.5z" />
<glyph unicode="&#x16a;" horiz-adv-x="1343" d="M244 428q0 86 16 190l139 881h154l-139 -881q-16 -125 -16.5 -175t-0.5 -62q4 -94 47 -147.5t102.5 -73t158.5 -19.5q205 0 312 105.5t148 371.5l140 881h153l-139 -881q-16 -106 -34.5 -178.5t-62.5 -166t-106.5 -148.5t-171 -95t-252.5 -40q-260 0 -373 149 q-76 102 -75 289zM651 1632l21 129h598l-21 -129h-598z" />
<glyph unicode="&#x16b;" horiz-adv-x="1112" d="M150 258q0 33 6 72l118 757h152l-119 -757q-4 -31 -4 -56q0 -141 158 -141q137 0 266 51q45 16 154 66l131 837h151l-172 -1087h-106l-25 127q-47 -29 -81 -44t-68.5 -32.5t-52 -24t-50.5 -17.5t-55 -15q-72 -12 -117 -12q-158 0 -231 98q-55 74 -55 178zM440 1221 l21 129h598l-21 -129h-598z" />
<glyph unicode="&#x16c;" horiz-adv-x="1343" d="M244 428q0 86 16 190l139 881h154l-139 -881q-16 -125 -16.5 -175t-0.5 -62q4 -94 47 -147.5t102.5 -73t158.5 -19.5q205 0 312 105.5t148 371.5l140 881h153l-139 -881q-16 -106 -34.5 -178.5t-62.5 -166t-106.5 -148.5t-171 -95t-252.5 -40q-260 0 -373 149 q-76 102 -75 289zM754 1841q0 12 2 25h94q-2 -12 -2 -42t29.5 -64t85.5 -34h6q135 0 157 140h95q-33 -233 -258 -234q-90 0 -149.5 59.5t-59.5 149.5z" />
<glyph unicode="&#x16d;" horiz-adv-x="1112" d="M150 258q0 33 6 72l118 757h152l-119 -757q-4 -31 -4 -56q0 -141 158 -141q137 0 266 51q45 16 154 66l131 837h151l-172 -1087h-106l-25 127q-47 -29 -81 -44t-68.5 -32.5t-52 -24t-50.5 -17.5t-55 -15q-72 -12 -117 -12q-158 0 -231 98q-55 74 -55 178zM545 1430v24h94 q-2 -12 -2 -42t30.5 -63.5t84.5 -33.5h6q135 0 157 139h95q-31 -233 -258 -233q-88 0 -147.5 59t-59.5 150z" />
<glyph unicode="&#x16e;" horiz-adv-x="1343" d="M244 428q0 86 16 190l139 881h154l-139 -881q-16 -125 -16.5 -175t-0.5 -62q4 -94 47 -147.5t102.5 -73t158.5 -19.5q205 0 312 105.5t148 371.5l140 881h153l-139 -881q-16 -106 -34.5 -178.5t-62.5 -166t-106.5 -148.5t-171 -95t-252.5 -40q-260 0 -373 149 q-76 102 -75 289zM774 1821q0 100 72 165.5t158 65.5t137 -58.5t51 -131.5q0 -100 -69.5 -165t-155.5 -65t-139.5 57.5t-53.5 131.5zM870 1837q0 -45 29 -75.5t75 -30.5t83 32q39 37 39 83t-28 77t-74 31t-83 -33q-41 -39 -41 -84z" />
<glyph unicode="&#x16f;" horiz-adv-x="1112" d="M150 258q0 33 6 72l118 757h152l-119 -757q-4 -31 -4 -56q0 -141 158 -141q137 0 266 51q45 16 154 66l131 837h151l-172 -1087h-106l-25 127q-47 -29 -81 -44t-68.5 -32.5t-52 -24t-50.5 -17.5t-55 -15q-72 -12 -117 -12q-158 0 -231 98q-55 74 -55 178zM565 1409 q0 100 71 165.5t157 65.5t138 -58t52 -132q0 -100 -70.5 -164.5t-156.5 -64.5t-138.5 57t-52.5 131zM661.5 1425q0.5 -45 29 -75.5t74.5 -30.5t81 33q39 37 39 83t-28 76.5t-74 30.5t-81 -33q-41 -39 -40.5 -84z" />
<glyph unicode="&#x170;" horiz-adv-x="1343" d="M244 428q0 86 16 190l139 881h154l-139 -881q-16 -125 -16.5 -175t-0.5 -62q4 -94 47 -147.5t102.5 -73t158.5 -19.5q205 0 312 105.5t148 371.5l140 881h153l-139 -881q-16 -106 -34.5 -178.5t-62.5 -166t-106.5 -148.5t-171 -95t-252.5 -40q-260 0 -373 149 q-76 102 -75 289zM741 1632l263 273h194l-315 -273h-142zM1018 1632l262 273h195l-316 -273h-141z" />
<glyph unicode="&#x171;" horiz-adv-x="1112" d="M150 258q0 33 6 72l118 757h152l-119 -757q-4 -31 -4 -56q0 -141 158 -141q137 0 266 51q45 16 154 66l131 837h151l-172 -1087h-106l-25 127q-47 -29 -81 -44t-68.5 -32.5t-52 -24t-50.5 -17.5t-55 -15q-72 -12 -117 -12q-158 0 -231 98q-55 74 -55 178zM530 1221 l263 272h194l-315 -272h-142zM807 1221l262 272h195l-316 -272h-141z" />
<glyph unicode="&#x172;" horiz-adv-x="1343" d="M244 428q0 -186 75 -289q113 -150 373 -149q143 0 252 40t171.5 95t106.5 148.5t62.5 166t34.5 178.5l139 881h-153l-140 -881q-41 -266 -148.5 -371.5t-311.5 -105.5q-98 0 -158 19.5t-103 73t-47 147.5q0 12 0.5 62t16.5 175l139 881h-154l-139 -881q-16 -104 -16 -190 zM449 -221q0 141 204 223h80q-152 -111 -151 -186q0 -61 100 -62h18l-20 -123q-25 -4 -45 -4q-88 0 -137 48.5t-49 103.5z" />
<glyph unicode="&#x173;" horiz-adv-x="1198" d="M150 258q0 33 6 72l118 757h152l-119 -757q-4 -31 -4 -56q0 -141 158 -141q137 0 266 51q45 16 154 66l131 837h151l-172 -1087h-106l-25 127q-47 -29 -81 -44t-68.5 -32.5t-52 -24t-50.5 -17.5t-55 -15q-72 -12 -117 -12q-158 0 -231 98q-55 74 -55 178zM696 -223 q0 141 205 223h80q-152 -111 -152 -186q0 -61 101 -62h18l-20 -123q-25 -4 -45 -4q-88 0 -137.5 48.5t-49.5 103.5z" />
<glyph unicode="&#x174;" horiz-adv-x="2052" d="M307 1499h154l239 -1251l662 1251h172l-266 -516l121 -747l661 1263h166l-789 -1499h-151l-125 766l-403 -766h-152zM983 1632l283 266h145l170 -266h-133l-117 170l-184 -170h-164z" />
<glyph unicode="&#x175;" horiz-adv-x="1634" d="M193 1087h151l207 -890l383 721q41 84 53 163h111q14 -43 14 -90t-25 -98l-59 -133l111 -551l397 715q41 84 53 163h113q14 -47 14 -94t-24 -94l-506 -899h-150l-118 573l-302 -573h-167zM670 1221l282 266h146l170 -266h-133l-117 170l-184 -170h-164z" />
<glyph unicode="&#x176;" horiz-adv-x="1290" d="M307 1499h160l262 -780l545 780h180l-672 -967l-84 -532h-151l84 532zM602 1632l283 266h145l170 -266h-133l-117 170l-184 -170h-164z" />
<glyph unicode="&#x177;" horiz-adv-x="1124" d="M193 1087h157l131 -849q8 -45 41 -63.5t49.5 -18.5h18.5l31 2l395 770q37 70 51 164h125q12 -39 12 -88.5t-30 -108.5l-453 -893q-135 -264 -248 -393t-272 -160v109q117 78 207 211q72 106 135 231q-53 0 -105 29q-96 53 -116 196zM422 1221l283 266h145l170 -266h-133 l-117 170l-184 -170h-164z" />
<glyph unicode="&#x178;" horiz-adv-x="1290" d="M219 1499h160l262 -780l545 780h180l-672 -967l-84 -532h-151l84 532zM463 1698q0 66 40 98.5t83 32.5t65.5 -26.5t22.5 -47.5q0 -66 -39 -99.5t-82 -33.5t-66.5 27.5t-23.5 48.5zM985 1698q0 66 40 98.5t83 32.5t65.5 -26.5t22.5 -47.5q0 -66 -39 -99.5t-82 -33.5 t-66.5 27.5t-23.5 48.5z" />
<glyph unicode="&#x179;" horiz-adv-x="1155" d="M285 0l24 152l1000 1196h-811l24 151h1010l-25 -151l-999 -1196h811l-25 -152h-1009zM975 1622l262 272h195l-316 -272h-141z" />
<glyph unicode="&#x17a;" horiz-adv-x="933" d="M188 2l19 152l706 782h-604l21 151h811l-21 -151l-694 -782h565l-22 -152h-781zM684 1210l262 273h195l-316 -273h-141z" />
<glyph unicode="&#x17b;" horiz-adv-x="1155" d="M72 0l24 152l1000 1196h-811l24 151h1010l-25 -151l-999 -1196h811l-25 -152h-1009zM743 1679l19 111q6 51 57 51h103q45 0 39 -51l-19 -111q-6 -47 -53 -47h-103q-23 0 -35 13.5t-8 33.5z" />
<glyph unicode="&#x17c;" horiz-adv-x="933" d="M92 2l19 152l706 782h-604l20 151h811l-20 -151l-694 -782h565l-23 -152h-780zM567 1268l19 110q8 52 57 52h102q47 0 39 -52l-18 -110q-6 -47 -53 -47h-103q-20 0 -32.5 13t-10.5 34z" />
<glyph unicode="&#x17d;" horiz-adv-x="1155" d="M72 0l24 152l1000 1196h-811l24 151h1010l-25 -151l-999 -1196h811l-25 -152h-1009zM580 1898h133l116 -169l185 169h164l-283 -266h-145z" />
<glyph unicode="&#x17e;" horiz-adv-x="933" d="M92 2l19 152l706 782h-604l20 151h811l-20 -151l-694 -782h565l-23 -152h-780zM403 1487h134l116 -170l185 170h163l-282 -266h-146z" />
<glyph unicode="&#x192;" horiz-adv-x="905" d="M-16 -367l14 101h184q104 0 154 149q41 123 67 297l99 633h-209l26 154h209l11 69q68 444 227 557q68 45 154 45q76 0 112 -16l82 -35l-14 -100h-180q-100 0 -154 -154q-41 -119 -70 -297l-10 -71h289l-27 -152h-289l-98 -633q-45 -309 -106 -422q-68 -121 -156 -155 q-51 -20 -109.5 -20.5t-124 20t-81.5 30.5z" />
<glyph unicode="&#x2c6;" horiz-adv-x="679" d="M135 1087l283 267h145l170 -267h-133l-117 170l-184 -170h-164z" />
<glyph unicode="&#x2da;" horiz-adv-x="612" d="M287 1274q0 100 70.5 165.5t156.5 65.5t138.5 -58t52.5 -132q0 -70 -35 -121q-72 -109 -193 -109q-86 0 -138 57.5t-52 131.5zM383 1290q0 -45 28.5 -75.5t74.5 -30.5t81 33q41 37 41 74.5t-12 62.5q-27 53 -81 53t-91 -33q-41 -39 -41 -84z" />
<glyph unicode="&#x2dc;" horiz-adv-x="907" d="M274 1171q61 45 95 66q94 66 168 66q57 -5 118.5 -37.5t74.5 -32.5h30.5t93.5 29.5t92 40.5l31 -86q-18 -12 -62.5 -42t-66.5 -45q-127 -76 -248 -4q-57 33 -94 33t-68.5 -10t-76 -32.5t-56.5 -29.5z" />
<glyph unicode="&#x3a9;" horiz-adv-x="1591" d="M145 0l23 139l276 21q-74 59 -121 132t-65 135t-19 107.5t-1 81.5q0 70 21.5 176.5t53 198.5t93 191.5t143.5 169t209 115.5t287.5 46t280.5 -61t177 -162q90 -160 90 -352q0 -76 -17 -170t-33.5 -162.5t-53.5 -156.5q-70 -166 -264 -291l260 -21l-23 -137h-467l27 160 q160 94 238 188q84 104 108 182q74 236 74 451q0 156 -92 264q-96 117 -350.5 117t-404 -165t-187.5 -419q-23 -133 -23 -228t53.5 -184.5t184.5 -205.5l-27 -160h-451z" />
<glyph unicode="&#x3c0;" horiz-adv-x="1308" d="M188 936l25 151h1126l-24 -151h-264l-95 -596q-8 -45 -8 -86q0 -111 119 -111h221l-14 -90q-104 -63 -232 -63q-246 0 -245 248q0 47 8 102l94 596h-383l-147 -936h-152l148 936h-177z" />
<glyph unicode="&#x1e02;" horiz-adv-x="1222" d="M164 0l237 1499h580q106 0 180 -37q154 -76 154 -297q0 -29 -4 -61q-33 -266 -244 -326q57 -10 101 -96t44 -190q0 -39 -4 -80q-51 -412 -465 -412h-579zM342 152h426q244 0 287 270q6 37 6 92t-35 113q-49 84 -170 84h-426zM455 862h426q238 0 276 248q6 39 6 70 q0 82 -45 125t-157 43h-429zM766 1679l18 111q7 51 58 51h102q47 0 39 -51l-18 -111q-6 -47 -54 -47h-102q-23 0 -34 13.5t-9 33.5z" />
<glyph unicode="&#x1e03;" horiz-adv-x="1134" d="M123 0l254 1608h147l-92 -586q216 82 404 82q301 0 301 -363q0 -143 -50 -360q-14 -61 -48.5 -146t-77.5 -135.5t-112 -81t-149 -30.5q-104 0 -235 49t-174 84l-60 -121h-108zM309 233q219 -94 387 -94q113 0 176.5 99.5t89 270.5t25.5 257q0 186 -164 186 q-195 0 -407 -53zM379 1796l18 111q7 51 58 51h102q41 0 41 -37q0 -6 -2 -14l-18 -111q-6 -47 -54 -47h-102q-49 0 -43 47z" />
<glyph unicode="&#x1e0a;" horiz-adv-x="1368" d="M164 0l237 1497q1 2 560 2q131 0 223 -55t135 -137q76 -143 76 -361q0 -98 -21 -203q-129 -743 -651 -743h-559zM340 158h408q188 0 311 169t164 418q20 127 20 248t-43 207q-70 147 -264 148h-408zM774 1679l19 111q6 51 57 51h102q45 0 39 -51l-18 -111q-6 -47 -53 -47 h-103q-23 0 -35 13.5t-8 33.5z" />
<glyph unicode="&#x1e0b;" horiz-adv-x="1130" d="M168 380q0 93 17.5 187.5t45 184.5t76.5 176t131 131t175.5 45t207 -22.5t199.5 -59.5l94 586h148l-256 -1608h-109l-20 121q-61 -41 -184.5 -87t-220.5 -46t-168 51t-97 131q-39 117 -39 210zM319.5 376q-0.5 -75 20.5 -132q39 -104 141 -105q170 0 414 94l104 666 q-195 53 -393 53q-100 0 -166.5 -88.5t-105.5 -324.5q-14 -88 -14.5 -163zM1114 1780l19 110q6 52 57 52h102q41 0 41 -37q0 -6 -2 -15l-18 -110q-6 -47 -53 -47h-103q-49 0 -43 47z" />
<glyph unicode="&#x1e1e;" horiz-adv-x="1163" d="M164 0l194 1233q44 266 277 266h24l644 -33l-19 -118h-649q-66 0 -91.5 -31t-33.5 -84l-64 -410l670 -20l-18 -121l-678 -20l-105 -662h-151zM797 1679l18 111q8 51 57 51h103q47 0 39 -51l-19 -111q-6 -47 -53 -47h-102q-20 0 -32.5 13.5t-10.5 33.5z" />
<glyph unicode="&#x1e1f;" horiz-adv-x="825" d="M188 936l19 113l213 38l12 74q41 252 111.5 349.5t242.5 97.5q86 0 244 -49l-14 -101h-230q-102 0 -139 -57.5t-63 -239.5l-13 -74h338l-24 -151h-340l-156 -936h-151l153 936h-203zM715 1778l18 110q7 51 58 51h102q45 0 39 -51l-19 -110q-6 -47 -53 -47h-102 q-23 0 -35 13t-8 34z" />
<glyph unicode="&#x1e40;" horiz-adv-x="1642" d="M145 0l336 1499h197l209 -1247l590 1247h206l-122 -1499h-152l107 1227l-584 -1227h-156l-203 1225l-276 -1225h-152zM1012 1679l18 111q6 51 57 51h103q45 0 39 -51l-19 -111q-6 -47 -53 -47h-102q-23 0 -35 13.5t-8 33.5z" />
<glyph unicode="&#x1e41;" horiz-adv-x="1839" d="M123 0l172 1087h106l25 -131q12 6 74.5 40t83 43.5t69.5 28.5t91 25.5t113 6.5t145.5 -50.5t97.5 -125.5q242 176 475 176q135 0 219 -101q68 -76 68 -184q0 -31 -7 -65l-118 -750h-152l119 750q4 20 4 41q0 59 -41 108t-117 49q-129 0 -218 -24.5t-202 -89.5l-131 -834 h-151l119 750q4 20 4 38q0 61 -42 110.5t-118 49.5q-61 0 -93 -5t-46.5 -7t-42 -11.5t-37.5 -11.5t-44 -16t-41 -17t-49 -22.5t-52 -23.5l-132 -834h-151zM1051 1270l18 110q6 52 57 52h103q47 0 39 -52l-19 -110q-6 -47 -53 -47h-102q-23 0 -34 13t-9 34z" />
<glyph unicode="&#x1e56;" horiz-adv-x="1218" d="M154 0l237 1499h627q143 0 231 -102q68 -76 68 -223q0 -217 -94 -400q-41 -80 -129 -131q-61 -33 -215 -33q-59 0 -260 15.5t-209 19.5l-105 -645h-151zM426 762h473q98 0 162.5 59.5t93.5 243.5q8 41 8 64.5t-3 51t-7 57.5t-20.5 50.5t-29.5 31.5t-36 17q-31 8 -74 9 h-475zM758 1679l18 111q9 51 58 51h102q47 0 39 -51l-19 -111q-6 -47 -53 -47h-102q-20 0 -32.5 13.5t-10.5 33.5z" />
<glyph unicode="&#x1e57;" horiz-adv-x="1144" d="M35 -553l272 1620q225 27 518 27q319 0 320 -404q0 -346 -154 -555q-109 -152 -301 -151q-82 0 -201.5 19.5t-203.5 55.5l-101 -612h-149zM307 184q160 -53 283 -53t174 22.5t92 61.5q84 76 125 324q14 90 14 159q0 244 -178 244h-383zM647 1268l19 110q6 52 57 52h102 q41 0 41 -37q0 -6 -2 -15l-18 -110q-6 -47 -53 -47h-103q-49 0 -43 47z" />
<glyph unicode="&#x1e60;" horiz-adv-x="1169" d="M162 33l18 123q148 -21 506 -21q264 0 293 184l22 140q6 41 6.5 82t-14.5 69q-25 49 -131 49h-284q-315 0 -316 263q0 43 8 90l21 135q37 229 168 305q106 59 254 59q207 0 542 -49l-18 -121l-508 19h-33q-106 0 -169.5 -38t-84.5 -175l-20 -135q-6 -43 -6 -76t6 -53.5 t17.5 -36t25.5 -21.5t32.5 -10t39.5 -4h350q90 0 151.5 -31.5t85.5 -83.5q37 -76 37 -137t-8 -100l-23 -140q-14 -90 -53 -154.5t-84 -98t-108 -54.5q-100 -29 -214 -28.5t-278 17.5t-231 32zM748 1702l18 110q6 52 57 52h103q41 0 41 -37q0 -6 -2 -15l-19 -110 q-6 -47 -53 -47h-102q-49 0 -43 47z" />
<glyph unicode="&#x1e61;" horiz-adv-x="1040" d="M131 18l19 113h561q39 -6 81 24.5t50 86.5l18 110q4 18 4 42t-17.5 47.5t-82.5 23.5h-303q-152 0 -210 53t-58 146q0 33 6 69l16 105q23 137 97.5 203.5t249.5 66.5t509 -33l-18 -117h-535q-115 0 -141 -81q-6 -16 -10 -39l-17 -105q-8 -27 -4 -45t4 -31.5t11.5 -20.5 t15.5 -12.5t19.5 -6.5t21.5 -2t22.5 0t22.5 1h307q131 0 188.5 -65.5t57.5 -149.5q0 -23 -4 -49l-19 -129q-25 -160 -125 -207q-80 -37 -182 -36q-195 0 -555 38zM600 1278l18 111q7 51 58 51h102q45 0 39 -51l-18 -111q-6 -47 -54 -47h-102q-23 0 -35 13t-8 34z" />
<glyph unicode="&#x1e6a;" horiz-adv-x="1185" d="M285 1348l24 151h1041l-25 -151h-451l-212 -1348h-152l213 1348h-438zM758 1679l18 111q9 51 58 51h102q47 0 39 -51l-19 -111q-6 -47 -53 -47h-102q-20 0 -32.5 13.5t-10.5 33.5z" />
<glyph unicode="&#x1e6b;" horiz-adv-x="774" d="M188 938l19 115l209 37l84 303h114l-47 -303h318l-25 -152h-317l-86 -551q-6 -78 -9.5 -103.5t-3.5 -45t14.5 -41t31 -29.5t109.5 -30.5t95 -22.5l-16 -115h-139q-244 0 -244 262q0 55 10 125l86 551h-203zM485 1563l19 110q6 51 57 51h103q45 0 38 -51l-18 -110 q-6 -47 -53 -47h-103q-23 0 -35 13t-8 34z" />
<glyph unicode="&#x1e80;" horiz-adv-x="2052" d="M307 1499h154l239 -1251l662 1251h172l-266 -516l121 -747l661 1263h166l-789 -1499h-151l-125 766l-403 -766h-152zM958 1905h179l217 -273h-142z" />
<glyph unicode="&#x1e81;" horiz-adv-x="1634" d="M193 1087h151l207 -890l383 721q41 84 53 163h111q14 -43 14 -90t-25 -98l-59 -133l111 -551l397 715q41 84 53 163h113q14 -47 14 -94t-24 -94l-506 -899h-150l-118 573l-302 -573h-167zM643 1493h178l217 -272h-141z" />
<glyph unicode="&#x1e82;" horiz-adv-x="2052" d="M307 1499h154l239 -1251l662 1251h172l-266 -516l121 -747l661 1263h166l-789 -1499h-151l-125 766l-403 -766h-152zM1212 1632l263 273h194l-315 -273h-142z" />
<glyph unicode="&#x1e83;" horiz-adv-x="1634" d="M193 1087h151l207 -890l383 721q41 84 53 163h111q14 -43 14 -90t-25 -98l-59 -133l111 -551l397 715q41 84 53 163h113q14 -47 14 -94t-24 -94l-506 -899h-150l-118 573l-302 -573h-167zM897 1221l262 272h195l-316 -272h-141z" />
<glyph unicode="&#x1e84;" horiz-adv-x="2052" d="M307 1499h154l239 -1251l662 1251h172l-266 -516l121 -747l661 1263h166l-789 -1499h-151l-125 766l-403 -766h-152zM934 1708q0 66 39 98.5t82 32.5t65.5 -26.5t22.5 -47.5q0 -66 -38 -99.5t-81 -33.5t-66.5 28t-23.5 48zM1456 1708q0 66 39 98.5t82 32.5t65.5 -26.5 t22.5 -47.5q0 -66 -38 -99.5t-81 -33.5t-66.5 28t-23.5 48z" />
<glyph unicode="&#x1e85;" horiz-adv-x="1634" d="M193 1087h151l207 -890l383 721q41 84 53 163h111q14 -43 14 -90t-25 -98l-59 -133l111 -551l397 715q41 84 53 163h113q14 -47 14 -94t-24 -94l-506 -899h-150l-118 573l-302 -573h-167zM619.5 1317q7.5 51 43 80.5t78.5 29.5t65.5 -26.5t22.5 -47t-3 -39t-20.5 -42 t-43 -37.5t-54 -14t-49.5 14q-47 31 -39.5 82zM1142 1317q7 51 43 80.5t79 29.5t65.5 -26.5t22.5 -46.5q0 -66 -39 -99.5t-75 -33.5t-56 14q-47 31 -40 82z" />
<glyph unicode="&#x1ef2;" horiz-adv-x="1290" d="M307 1499h160l262 -780l545 780h180l-672 -967l-84 -532h-151l84 532zM578 1905h178l217 -273h-142z" />
<glyph unicode="&#x1ef3;" horiz-adv-x="1124" d="M193 1087h157l131 -849q8 -45 41 -63.5t49.5 -18.5h18.5l31 2l395 770q37 70 51 164h125q12 -39 12 -88.5t-30 -108.5l-453 -893q-135 -264 -248 -393t-272 -160v109q117 78 207 211q72 106 135 231q-53 0 -105 29q-96 53 -116 196zM416 1493h178l217 -272h-141z" />
<glyph unicode="&#x2000;" horiz-adv-x="1026" />
<glyph unicode="&#x2001;" horiz-adv-x="2052" />
<glyph unicode="&#x2002;" horiz-adv-x="1026" />
<glyph unicode="&#x2003;" horiz-adv-x="2052" />
<glyph unicode="&#x2004;" horiz-adv-x="684" />
<glyph unicode="&#x2005;" horiz-adv-x="513" />
<glyph unicode="&#x2006;" horiz-adv-x="342" />
<glyph unicode="&#x2007;" horiz-adv-x="342" />
<glyph unicode="&#x2008;" horiz-adv-x="256" />
<glyph unicode="&#x2009;" horiz-adv-x="410" />
<glyph unicode="&#x200a;" horiz-adv-x="114" />
<glyph unicode="&#x2010;" horiz-adv-x="727" d="M123 518l24 152h644l-25 -152h-643z" />
<glyph unicode="&#x2011;" horiz-adv-x="727" d="M123 518l24 152h644l-25 -152h-643z" />
<glyph unicode="&#x2012;" horiz-adv-x="727" d="M123 518l24 152h644l-25 -152h-643z" />
<glyph unicode="&#x2013;" horiz-adv-x="935" d="M123 512l24 154h969l-24 -154h-969z" />
<glyph unicode="&#x2014;" horiz-adv-x="1507" d="M121 516l24 154h1426l-25 -154h-1425z" />
<glyph unicode="&#x2018;" horiz-adv-x="552" d="M342 1100q0 10 2 20l31 203q10 59 38.5 99t62.5 54.5t60.5 18.5t40 4h21.5l20 -4l-12 -72h-4q-66 0 -78 -69l-8 -58h25q49 0 49 -41q0 -8 -2 -14l-19 -121q-8 -61 -67 -61h-115q-45 0 -45 41z" />
<glyph unicode="&#x2019;" horiz-adv-x="552" d="M346 1061l12 74h4q63 0 76 69l8 56h-24q-49 0 -49 43q0 6 2 14l20 121q10 61 66 61h114q47 0 48 -41q0 -10 -2 -20l-33 -203q-10 -59 -39 -99t-62 -55q-55 -25 -83.5 -24.5t-34.5 0.5z" />
<glyph unicode="&#x201a;" horiz-adv-x="550" d="M143 -201l13 72h4q63 0 76 72l8 55h-25q-49 0 -49 43q0 6 2 14l21 121q8 61 65 62h115q47 0 47 -41q0 -10 -2 -21l-33 -203q-10 -59 -39 -99t-61 -54q-55 -25 -84 -25h-37z" />
<glyph unicode="&#x201c;" horiz-adv-x="847" d="M328 1100q0 10 2 20l30 203q16 94 74 135t107 41h8l53 -4l-10 -72h-4q-66 0 -78 -69l-8 -58h24q49 0 49 -41q0 -8 -2 -14l-18 -121q-10 -61 -68 -61h-114q-45 0 -45 41zM655 1100q0 10 2 20l31 203q16 94 73.5 135t106.5 41h9l53 -4l-10 -72h-5q-66 0 -77 -69l-9 -58h25 q49 0 49 -41q0 -8 -2 -14l-18 -121q-10 -61 -68 -61h-115q-45 0 -45 41z" />
<glyph unicode="&#x201d;" horiz-adv-x="849" d="M330 1061l12 74h4q63 0 76 69l8 56h-24q-49 0 -50 43q0 6 2 14l21 121q10 61 65 61h115q47 0 47 -41q0 -10 -2 -20l-33 -203q-10 -59 -38.5 -99t-61.5 -55q-55 -25 -84 -24.5t-35 0.5zM657 1061l13 74h4q63 0 76 69l8 56h-25q-49 0 -49 43q0 6 2 14l21 121q10 61 65 61 h115q47 0 47 -41q0 -10 -2 -20l-33 -203q-10 -59 -39 -99t-61 -55q-55 -25 -84 -24.5t-35 0.5z" />
<glyph unicode="&#x201e;" horiz-adv-x="847" d="M127 -199l12 72h4q63 0 76 72l8 55h-24q-49 0 -49 43q0 6 2 14l20 121q8 61 66 62h114q47 0 47 -41q0 -10 -2 -21l-32 -203q-10 -59 -39 -99t-62 -54q-55 -25 -83.5 -25t-37.5 2zM455 -199l12 72h4q63 0 76 72l8 55h-25q-49 0 -49 43q0 6 2 14l21 121q8 61 65 62h115 q47 0 47 -41q0 -10 -2 -21l-33 -203q-10 -59 -38.5 -99t-61.5 -54q-55 -25 -84 -25t-37 2z" />
<glyph unicode="&#x2020;" horiz-adv-x="950" d="M231 1001l19 121l276 21l86 434h129l-53 -434l266 -21l-18 -121l-274 -20l-197 -1128h-129l164 1128z" />
<glyph unicode="&#x2021;" horiz-adv-x="888" d="M199 356l18 121l279 21l73 483l-268 20l18 121l277 21l86 434h127l-51 -434l266 -21l-18 -121l-275 -20l-82 -483l273 -21l-19 -121l-285 -20l-83 -483h-129l67 483z" />
<glyph unicode="&#x2022;" horiz-adv-x="634" d="M283 682q0 8 2 16l24 164q10 72 80 72h152q61 0 61 -55q0 -8 -2 -17l-25 -164q-10 -66 -83 -65h-152q-57 0 -57 49z" />
<glyph unicode="&#x2026;" horiz-adv-x="1564" d="M297 47l18 117q11 51 58 51h108q45 0 45 -39q0 -6 -2 -12l-18 -117q-8 -47 -57 -47h-109q-23 0 -34 13.5t-9 33.5zM854 47l18 117q11 51 58 51h108q45 0 45 -39q0 -6 -2 -12l-18 -117q-8 -47 -57 -47h-109q-23 0 -34 13.5t-9 33.5zM1411 47l19 117q10 51 57 51h108 q45 0 45 -39q0 -6 -2 -12l-18 -117q-8 -47 -57 -47h-109q-23 0 -34 13.5t-9 33.5z" />
<glyph unicode="&#x202f;" horiz-adv-x="410" />
<glyph unicode="&#x2030;" horiz-adv-x="2752" d="M166 915q0 27 4 56l43 272q23 139 83 197.5t222 58.5h207q135 0 188 -59q37 -43 37 -125q0 -33 -6 -72l-43 -272q-25 -147 -86 -201.5t-217 -54.5h-207q-119 0 -172 58t-53 142zM299 917.5q0 -28.5 19.5 -49t93.5 -20.5h206q82 0 110 23.5t40 99.5l43 272q4 33 4 60.5 t-13.5 45t-96.5 17.5h-207q-86 0 -113 -24.5t-39 -98.5l-43 -272q-4 -25 -4 -53.5zM395 0l1135 1499h145l-1134 -1499h-146zM1124 201q0 27 4 55l43 272q23 139 83.5 197.5t222.5 58.5h206q135 0 189 -59q37 -43 37 -125q0 -33 -6 -72l-43 -272q-25 -145 -87.5 -200.5 t-218.5 -55.5h-206q-119 0 -171.5 57.5t-52.5 143.5zM1257.5 201.5q-0.5 -27.5 18 -48t92.5 -20.5h207q82 0 110.5 23.5t40.5 99.5l43 272q4 31 4.5 58.5t-14 46t-98.5 18.5h-207q-84 0 -110.5 -24.5t-38.5 -98.5l-43 -272q-4 -27 -4.5 -54.5zM1993 201q0 27 4 55l43 272 q23 139 83 197.5t222 58.5h207q135 0 188 -59q37 -43 37 -125q0 -33 -6 -72l-43 -272q-25 -145 -87.5 -200.5t-217.5 -55.5h-207q-119 0 -171 57.5t-52 143.5zM2126 201.5q0 -27.5 18.5 -48t91.5 -20.5h207q82 0 111 23.5t41 99.5l43 272q4 31 4 58.5t-14.5 46t-98.5 18.5 h-207q-84 0 -110.5 -24.5t-38.5 -98.5l-43 -272q-4 -27 -4 -54.5z" />
<glyph unicode="&#x2039;" horiz-adv-x="616" d="M78 725l487 416l94 -111l-374 -319l268 -316l-111 -96z" />
<glyph unicode="&#x203a;" horiz-adv-x="737" d="M217 410l375 319l-268 315l110 97l365 -426l-488 -416z" />
<glyph unicode="&#x2044;" horiz-adv-x="477" d="M-184 0l950 1499h133l-950 -1499h-133z" />
<glyph unicode="&#x205f;" horiz-adv-x="513" />
<glyph unicode="&#x20ac;" horiz-adv-x="1470" d="M143 522l15 96l184 15l33 207l-178 16l14 88l182 19q31 207 92 311q140 242 476 242q170 0 491 -62l-18 -121q-330 31 -458 31t-194.5 -23.5t-104.5 -57.5t-66.5 -93.5t-40 -105.5t-25.5 -121l477 -15l-14 -94l-482 -14l-32 -207l475 -15l-15 -96q-66 0 -274.5 -6 t-206.5 -8q-12 -70 -12 -127q0 -109 47 -162q74 -80 233 -80q195 0 430 25l86 10l-18 -115q-264 -72 -520 -71q-154 0 -246 57q-102 68 -133 158q-33 96 -33 167.5t15 137.5z" />
<glyph unicode="&#x2122;" horiz-adv-x="1304" d="M96 1368l21 131h530l-20 -131h-199l-92 -584h-131l92 584h-201zM614 784l168 715h119l117 -493l239 493h142l-49 -715h-131l30 414l-202 -414h-109l-96 416l-97 -416h-131z" />
<glyph unicode="&#x2202;" horiz-adv-x="1308" d="M182 401q0 31 4 64q37 233 195 360t414 127q205 0 335 -116q8 84 9 151q0 180 -58 262q-80 115 -273.5 115t-379.5 -104l-31 96q106 63 148.5 85.5t125.5 48.5t169 26q248 0 368 -197q82 -139 82 -342q0 -86 -14 -184q-55 -358 -221 -580.5t-428 -222.5q-213 0 -340 139 q-104 117 -105 272zM332 408q0 -109 80 -188t206.5 -79t218 66.5t146.5 165.5q102 186 131 346q-133 82 -337 82t-310 -92q-135 -115 -135 -301z" />
<glyph unicode="&#x2206;" horiz-adv-x="1490" d="M41 0l874 1499h160l375 -1499h-1409zM313 152h940l-278 1151z" />
<glyph unicode="&#x220f;" horiz-adv-x="1320" d="M217 0l213 1348h-176l25 151h1237l-25 -151h-178l-213 -1348h-152l213 1348h-579l-213 -1348h-152z" />
<glyph unicode="&#x2211;" horiz-adv-x="1202" d="M16 -410l25 158l565 805l-311 795l24 151h1078l-25 -151h-895l311 -826l-538 -774h868l-24 -158h-1078z" />
<glyph unicode="&#x221a;" horiz-adv-x="1286" d="M131 582l25 151h260l182 -522l754 1427h151l-844 -1638h-139l-209 582h-180z" />
<glyph unicode="&#x221e;" horiz-adv-x="1398" d="M109 664q0 180 108 284.5t309 104.5q96 0 178 -60.5t130 -154.5q174 215 376 215q127 0 201 -53.5t91.5 -116t17.5 -107.5q0 -221 -123 -334q-100 -96 -309 -96t-300 221q-137 -221 -374 -221q-168 0 -236.5 99.5t-68.5 218.5zM260 657q0 -160 178 -159q66 0 127.5 33.5 t94 66.5t88.5 100q-98 203 -246 203q-123 0 -176 -53q-66 -68 -66 -191zM879 698q47 -90 82 -131q61 -69 161 -69q209 0 242 200q6 31 6 72t-27 78q-35 53 -157 53q-145 0 -307 -203z" />
<glyph unicode="&#x222b;" horiz-adv-x="905" d="M-16 -367l16 101h184q72 0 115 73q41 74 59 154q27 111 45 219l136 856q68 444 227 557q68 45 132.5 45t100 -6t52 -13t37 -18.5t26.5 -13.5l-16 -100h-180q-102 0 -156 -152q-41 -125 -72 -299l-135 -856q-43 -268 -113 -418q-82 -180 -260 -180q-129 0 -198 51z" />
<glyph unicode="&#x2248;" horiz-adv-x="1087" d="M182 512q68 49 100.5 70.5t97 48t126 26.5t146.5 -37.5t137.5 -37.5t88 10t85 33.5t81.5 36.5l31 -87q-20 -12 -65 -44.5t-76 -51.5q-82 -51 -152.5 -51t-155.5 39t-139.5 39t-95.5 -12.5t-91 -34t-87 -31.5zM240 874q68 49 100.5 71t97 48.5t126 26.5t146.5 -38t137 -38 t88 10.5t85 34t82 35.5l31 -86q-20 -12 -65.5 -45t-76.5 -51q-82 -51 -152.5 -51t-155.5 38.5t-139.5 38.5t-95 -12t-91 -33.5t-87.5 -31.5z" />
<glyph unicode="&#x2260;" horiz-adv-x="1081" d="M256 434l27 162h301l196 256h-458l26 162h555l119 153h125l-119 -153h195l-27 -162h-291l-196 -256h448l-27 -162h-546l-135 -176h-125l135 176h-203z" />
<glyph unicode="&#x2264;" horiz-adv-x="1132" d="M205 213l24 152h770l-24 -152h-770zM301 831l27 164l821 332l-27 -164l-633 -258l551 -276l-26 -154z" />
<glyph unicode="&#x2265;" horiz-adv-x="921" d="M135 213l25 152h770l-25 -152h-770zM174 467l27 168l647 270l-565 271l26 143l715 -332l-27 -164z" />
<glyph unicode="&#x25fc;" horiz-adv-x="1085" d="M0 0v1085h1085v-1085h-1085z" />
</font>
</defs>
</svg>
