<?xml version="1.0" standalone="no"?>
<!DOCTYPE svg PUBLIC "-//W3C//DTD SVG 1.1//EN" "http://www.w3.org/Graphics/SVG/1.1/DTD/svg11.dtd" >
<svg xmlns="http://www.w3.org/2000/svg">
<metadata></metadata>
<defs>
<font id="exoextralightitalic" horiz-adv-x="1327" >
<font-face units-per-em="2048" ascent="1638" descent="-410" />
<missing-glyph horiz-adv-x="489" />
<glyph horiz-adv-x="0" />
<glyph unicode="&#xd;" horiz-adv-x="2048" />
<glyph unicode=" "  horiz-adv-x="489" />
<glyph unicode="&#x09;" horiz-adv-x="489" />
<glyph unicode="&#xa0;" horiz-adv-x="489" />
<glyph unicode="!" horiz-adv-x="501" d="M172 33l21 123q3 32 38 32h52q33 0 28 -32l-20 -123q-4 -33 -37 -33h-53q-14 0 -22.5 9t-6.5 24zM252 403l162 1094h92l-184 -1094h-70z" />
<glyph unicode="&#x22;" horiz-adv-x="651" d="M270 1087l27 275l22 137h87l-23 -137l-57 -275h-56zM500 1087l26 275l23 137h86l-23 -137l-57 -275h-55z" />
<glyph unicode="#" horiz-adv-x="1331" d="M115 500l16 51h352l123 393h-352l18 51h353l159 504h52l-160 -504h366l160 504h51l-157 -504h362l-18 -51h-363l-123 -395h363l-17 -51h-362l-160 -498h-51l158 498l-367 2l-158 -500h-53l158 500h-350zM537 551l364 -2l123 395h-365z" />
<glyph unicode="$" horiz-adv-x="1175" d="M164 20l10 58q195 -12 467 -12q322 0 360 253l21 140q8 41 8 93t-29 87q-43 53 -186 53h-227q-150 0 -220.5 52.5t-84.5 123.5q-8 37 -8.5 72t6.5 72l22 135q35 215 158 293q113 70 313 71l27 177h65l-28 -181q152 -8 366 -39l-8 -57l-426 19h-35q-141 0 -231 -56.5 t-117 -226.5l-22 -135q-6 -35 -7 -64q0 -82 50.5 -127t189.5 -45h231q199 0 252 -96q35 -61 35 -120.5t-10 -100.5l-21 -140q-47 -301 -356 -331q-43 -4 -78 -4h-55l-27 -166h-63l26 170q-279 18 -368 32z" />
<glyph unicode="%" horiz-adv-x="2000" d="M229 903q0 31 7 68l43 272q20 137 84.5 196.5t218.5 59.5h206q143 0 193 -59q35 -43 35 -99.5t-6 -97.5l-43 -272q-14 -94 -45 -148q-59 -109 -256 -108h-207q-137 0 -191 61q-39 47 -39 127zM295 892q0 -44 31.5 -78t140.5 -34h207q74 0 117 17q88 31 110 174l43 272 q6 41 6 60.5t-1 42t-19 45.5q-37 43 -150 43h-207q-113 0 -162 -40t-67 -151l-43 -272q-6 -35 -6 -79zM461 0l1134 1499h78l-1134 -1499h-78zM1137 193q0 31 6 67l43 272q14 92 43 146q59 110 258 110h207q141 0 192 -59q37 -43 37 -125q0 -33 -6 -72l-43 -272 q-23 -139 -87.5 -197.5t-215.5 -58.5h-207q-137 0 -188 62q-39 45 -39 127zM1202 181q0 -44 32 -77.5t138 -33.5h207q111 0 161 38.5t68 151.5l43 272q6 35 6.5 78t-24.5 72q-33 41 -147 41h-207q-113 0 -162 -39t-66 -152l-43 -272q-6 -35 -6 -79z" />
<glyph unicode="&#x26;" horiz-adv-x="1363" d="M129 371q0 53 16 104q47 154 205 275l199 149l-100 174q-55 94 -55.5 168t30.5 121q68 102 203 125q96 12 170 12q219 0 403 -26l-8 -52h-430q-182 0 -256 -78q-35 -35 -35 -96t47 -143l436 -760l340 289l25 -25l-160 -196l-160 -138l162 -274h-84l-137 227l-164 -137 q-117 -100 -268 -100q-74 0 -146 30q-109 41 -174 146q-59 103 -59 205zM207 369q0 -80 49 -158q88 -141 258 -141q111 0 207 80l176 145l-309 532l-180 -135q-201 -152 -201 -323z" />
<glyph unicode="'" horiz-adv-x="307" d="M225 1087l27 275l22 137h86l-22 -137l-57 -275h-56z" />
<glyph unicode="(" horiz-adv-x="604" d="M233 446q0 334 113 650q88 254 258 532q66 104 107 160l41 55h96q-180 -227 -332 -553q-135 -286 -180 -575q-20 -127 -20.5 -212t3 -180.5t31.5 -230.5q53 -248 125 -387l27 -53h-92q-80 150 -136 403q-41 193 -41 391z" />
<glyph unicode=")" horiz-adv-x="606" d="M-27 -348q55 66 139.5 194.5t147 249.5t128 300t92 339t26.5 242t-4 177t-33 232q-53 250 -123 400l-27 57h91q80 -166 133 -422q41 -203 41 -401q0 -311 -111 -635q-90 -262 -258 -532q-61 -100 -102 -152l-41 -49h-99z" />
<glyph unicode="*" horiz-adv-x="958" d="M285 1194l6 47l295 25l-11 -82zM385 842l104 274l84 -16l-147 -273zM596 1001l57 74l207 -176l-31 -37zM604 1477l47 16l105 -248l-86 -37zM709 1143l260 166l18 -41l-231 -189z" />
<glyph unicode="+" horiz-adv-x="1067" d="M205 688l14 82h363l57 365h84l-57 -365h364l-14 -82h-365l-57 -364h-84l57 364h-362z" />
<glyph unicode="," horiz-adv-x="415" d="M135 -154l4 31h2q41 0 47 41l15 82h-17q-35 0 -28 35l18 121q6 37 41 37h49q31 0 27 -37l-35 -213q-8 -53 -38 -76t-43 -23h-15z" />
<glyph unicode="-" horiz-adv-x="694" d="M123 553l14 82h602l-14 -82h-602z" />
<glyph unicode="." horiz-adv-x="419" d="M158 33l18 123q6 32 39 32h51q35 0 29 -32l-21 -123q-4 -33 -36 -33h-52q-16 0 -23 9t-5 24z" />
<glyph unicode="/" horiz-adv-x="671" d="M16 -147l848 1724h84l-848 -1724h-84z" />
<glyph unicode="0" horiz-adv-x="1323" d="M209 256q0 35 6 76l133 835q27 164 135.5 248t268.5 84h295q176 0 245 -92q51 -70 51 -170q0 -33 -6 -70l-133 -835q-53 -332 -395 -332h-295q-154 0 -240 80q-66 61 -65 176zM295 274q0 -190 233 -190h295q258 0 297 248l133 835q7 33 7 62q0 186 -226 186h-295 q-129 0 -208.5 -66.5t-98.5 -181.5l-133 -835q-4 -31 -4 -58z" />
<glyph unicode="1" horiz-adv-x="798" d="M274 1257l11 58q143 0 342 119q45 29 69 47l25 18h80l-234 -1499h-84l224 1393q-66 -47 -185 -91.5t-248 -44.5z" />
<glyph unicode="2" horiz-adv-x="1189" d="M96 0l13 78q330 223 456.5 325.5t235 196.5t176.5 172q166 188 188 320q9 51 9 96q0 106 -52 164q-72 82 -239 82h-574l8 59q221 27 588 27q209 0 293 -119q61 -88 62 -219q0 -45 -9.5 -109.5t-63.5 -158t-127 -177.5t-174.5 -177t-184.5 -161.5t-185 -142.5 q-127 -96 -244 -172h818l-13 -84h-981z" />
<glyph unicode="3" horiz-adv-x="1196" d="M80 20l10 52h576q115 0 200 55q98 61 123 209l21 121q4 29 4 53q0 184 -242 192l-455 15l9 59l460 15q121 4 211 65.5t107 173.5l22 141q4 31 4 58q0 88 -58 139t-179 51h-604l8 51q139 35 481 35q66 0 137 -2q166 -2 242 -96q57 -72 57 -174q0 -33 -4 -68l-22 -141 q-29 -182 -189 -256q-35 -16 -63 -20q61 -20 102 -70q63 -72 64 -168q0 -29 -4 -59l-21 -121q-53 -344 -418 -344q-463 0 -579 34z" />
<glyph unicode="4" horiz-adv-x="1191" d="M113 477l798 1022h103l-774 -995h702l74 463l65 153h45l-98 -616h184l-8 -60l-188 -26l-66 -414h-86l66 414h-787z" />
<glyph unicode="5" horiz-adv-x="1265" d="M162 20l8 58h614q109 0 196 73.5t105 192.5l33 201q6 41 6 73q0 190 -209 191h-311q-92 0 -174 -64.5t-96 -156.5h-80l188 911h867l-13 -84h-786l-131 -633q31 39 93.5 75t142 37t120.5 1l187 -2q162 0 233 -94q53 -70 53 -174q0 -35 -6 -76l-35 -209q-29 -186 -155 -279 q-92 -70 -262 -69q-397 0 -588 28z" />
<glyph unicode="6" horiz-adv-x="1290" d="M223 460q0 138 31 328.5t82 335t115 226.5q125 162 270 161q381 0 573 -24l-10 -60h-559q-82 0 -151.5 -63.5t-114.5 -165.5q-84 -188 -117 -383q256 31 561 31q96 0 163 -25.5t93 -68.5q43 -66 43 -146q0 -31 -8 -61l-37 -242q-37 -217 -188 -276q-72 -29 -172 -29h-269 q-223 0 -282 240q-23 84 -23 222zM305 453q0 -373 227 -373h265q240 0 276 225l35 230q6 39 6 69q0 76 -44 116t-173 40h-563q-29 -176 -29 -307z" />
<glyph unicode="7" horiz-adv-x="1110" d="M274 1415l15 84h911l29 -65l-733 -1434h-99l725 1415h-848z" />
<glyph unicode="8" horiz-adv-x="1308" d="M197 258q0 23 6 57l30 203q16 106 89 167t149 63q-164 37 -164 229q0 29 6 55l21 133q31 195 131 269.5t276 74.5h260q291 0 291 -272q0 -41 -6 -92l-22 -133q-16 -111 -109 -185q-49 -41 -108 -49q143 -43 143 -196q0 -31 -6 -66l-31 -201q-51 -315 -375 -315h-256 q-201 0 -276 98q-49 63 -49 160zM283 260q0 -176 252 -176h247q137 0 222 92q49 53 61 133l35 215q4 25 4 48.5t-7 52t-26.5 49t-50.5 33.5q-49 18 -121 18h-291q-131 0 -223 -82q-53 -47 -63 -119l-35 -215q-4 -26 -4 -49zM391 957.5q0 -27.5 12.5 -62.5t51.5 -55 q63 -33 161 -33h287q123 0 192.5 63.5t82.5 141.5l22 139q8 45 8 106.5t-37 104.5q-53 63 -184 63h-256q-152 0 -222.5 -64.5t-92.5 -209.5l-21 -139q-4 -27 -4 -54.5z" />
<glyph unicode="9" horiz-adv-x="1290" d="M176 16l8 60h561q68 0 127.5 44t100.5 109.5t74 153.5q54 143 81 305q-256 -31 -571 -31q-287 0 -287 234q0 35 6 76l37 239q27 164 124.5 231.5t254.5 67.5h258q299 0 299 -458q0 -147 -30.5 -341t-83 -336.5t-115.5 -222.5q-123 -156 -268 -155q-408 0 -576 24z M354 897q0 -78 50.5 -116t175.5 -38h557q29 180 28 314q0 367 -221 366h-264q-250 0 -285 -225l-37 -240q-4 -32 -4 -61z" />
<glyph unicode=":" horiz-adv-x="428" d="M164 33l20 123q4 32 37 32h53q33 0 27 -32l-18 -123q-6 -33 -39 -33h-51q-14 0 -22.5 9t-6.5 24zM299 928l20 125q4 34 37 34h54q33 0 28 -34l-20 -125q-6 -31 -39 -31h-51q-33 0 -29 31z" />
<glyph unicode=";" horiz-adv-x="421" d="M135 -154l4 31h2q41 0 47 41l15 82h-17q-14 0 -22 10t-6 25l18 121q6 37 41 37h49q31 0 27 -37l-35 -213q-8 -53 -38 -76t-43 -23h-15zM301 930l18 125q6 32 39 32h52q35 0 28 -32l-18 -125q-6 -31 -39 -31h-51q-33 0 -29 31z" />
<glyph unicode="&#x3c;" horiz-adv-x="966" d="M203 684l12 84l789 373l-17 -92l-680 -326l574 -350l-13 -84z" />
<glyph unicode="=" horiz-adv-x="948" d="M109 434l14 84h874l-14 -84h-874zM186 930l15 84h874l-14 -84h-875z" />
<glyph unicode="&#x3e;" horiz-adv-x="968" d="M147 289l15 92l690 348l-584 332l15 80l667 -373l-12 -84z" />
<glyph unicode="?" horiz-adv-x="1107" d="M256 1432l8 55q238 27 467 26h52.5h19.5q358 0 358 -286q0 -43 -8 -92l-31 -207q-33 -209 -172 -281q-98 -49 -256 -49q-71 0 -153 10l-33 -209h-88l43 279q80 -2 139.5 -2t97.5 2q297 2 338 250l33 207q6 43 6 79q0 100 -49 150q-66 68 -248 68h-524zM352 33l21 123 q4 32 39 32h51q33 0 29 -32l-21 -123q-4 -33 -39 -33h-51q-14 0 -22.5 9t-6.5 24z" />
<glyph unicode="@" horiz-adv-x="1820" d="M125 -57q0 37 6 75l166 1049q35 219 192 311q89 54 228 54h768q168 0 241 -95q51 -70 52 -182q0 -41 -6 -88l-109 -725q-23 -160 -100 -242q-33 -37 -97.5 -65.5t-148.5 -28.5h-78l-12 123q-68 -74 -236 -117q-246 -61 -379 45q-47 37 -69 103q-33 94 -33 196.5t19.5 219 t57.5 217t82 158t99 96.5q104 70 229 69q303 0 437 -129l-131 -899q129 0 192.5 62.5t83.5 191.5l109 725q8 43 8 72.5t-6.5 63.5t-20.5 65.5t-45 48.5q-55 31 -143 31h-772q-221 0 -299 -181q-20 -45 -29 -100l-166 -1049q-6 -37 -6 -67q0 -92 47 -152q61 -82 193 -82h788 l-8 -51q-162 -33 -596 -33h-201q-158 0 -244 109q-63 84 -63 201zM596 398q0 -44 4 -94t19.5 -99t48.5 -78q61 -51 176 -51q225 0 389 123l115 766q-145 66 -338 65h-27q-314 -8 -375 -510q-12 -78 -12 -122z" />
<glyph unicode="A" d="M92 0l795 1499h98l295 -1499h-84l-96 483h-658l-256 -483h-94zM487 567h596l-159 828z" />
<glyph unicode="B" horiz-adv-x="1212" d="M164 0l237 1499h539q338 0 338 -285q0 -197 -113 -321q-86 -92 -188 -109q70 -16 135 -106q57 -80 57 -203q0 -33 -4 -69q-59 -406 -463 -406h-538zM262 86h455q311 0 364 334q6 29 6 70.5t-23.5 103t-88 105.5t-150.5 44h-4h-454zM381 827h455q182 1 282 140 q49 68 62.5 141.5t13.5 107t-4 54.5q-18 145 -262 145h-455z" />
<glyph unicode="C" horiz-adv-x="1163" d="M215 504q0 211 68 481q53 223 137 334q100 135 250 174q82 23 220 23t417 -54l-9 -59q-236 29 -434 29q-96 0 -156.5 -14.5t-123 -56.5t-107.5 -116q-102 -164 -155 -495q-23 -139 -23 -250q0 -422 328 -428h80.5t384.5 22l-9 -61q-213 -45 -467 -45q-111 0 -190 43 q-211 109 -211 473z" />
<glyph unicode="D" horiz-adv-x="1353" d="M164 0l237 1499h531q225 0 325 -135q96 -133 107 -305q2 -45 2 -88q0 -266 -100 -527q-172 -444 -561 -444h-541zM262 86h451q96 0 180 40t143.5 104.5t106.5 152.5q86 158 113.5 326t27.5 272q0 434 -366 434h-447z" />
<glyph unicode="E" horiz-adv-x="1153" d="M195 193q0 31 6 65l155 981q23 141 102 200.5t183 59.5h14l619 -24l-8 -60h-623q-174 0 -203 -182l-71 -447l712 -14l-10 -59l-715 -15l-71 -446q-4 -27 -4 -51.5t8 -52t37 -44.5q45 -26 121 -26h6h602l-11 -60l-606 -24h-34.5t-67.5 10q-141 35 -141 189z" />
<glyph unicode="F" horiz-adv-x="1144" d="M164 0l192 1227q25 156 100.5 214t184.5 58h16l619 -24l-8 -60h-625q-133 0 -178 -102q-14 -33 -23 -80l-69 -447l712 -14l-10 -59l-717 -15l-110 -698h-84z" />
<glyph unicode="G" horiz-adv-x="1288" d="M221 463q0 193 62 481q41 188 85 273.5t88 138.5t97 86q117 74 283 74h40.5t190.5 -18.5t260 -39.5l-10 -67q-313 41 -504.5 41t-305.5 -154t-171 -526q-27 -170 -27 -301.5t31 -214.5q59 -164 272 -164q72 0 189 26.5t198 53.5l80 26l86 533h-405l8 53q125 33 356 33 q66 0 140 -6l-125 -791h-60l-6 113q-61 -39 -206.5 -82t-264.5 -43h-2q-199 0 -285 112q-88 117 -92 287q-2 29 -2 76z" />
<glyph unicode="H" d="M174 0l238 1499h84l-117 -733h838l116 733h84l-237 -1499h-84l108 684h-837l-109 -684h-84z" />
<glyph unicode="I" horiz-adv-x="415" d="M184 0l238 1499h84l-238 -1499h-84z" />
<glyph unicode="J" horiz-adv-x="679" d="M78 43l16 57q102 -31 146 -31q1 0 2 1q43 0 84 3t84 27.5t79.5 85t51.5 152.5l184 1161h84l-184 -1161q-33 -225 -154 -301q-76 -49 -190 -49q-127 0 -203 55z" />
<glyph unicode="K" horiz-adv-x="1110" d="M164 0l237 1499h84l-112 -704h268l588 704h106l-620 -749l383 -750h-101l-360 709h-275l-112 -709h-86z" />
<glyph unicode="L" horiz-adv-x="1110" d="M203 258l198 1241h82l-196 -1241q-4 -27 -4 -51.5t8 -52t37 -43.5q47 -27 127 -27h585l-12 -84h-582q-249 0 -249 193q0 31 6 65z" />
<glyph unicode="M" horiz-adv-x="1617" d="M145 0l381 1499h113l213 -1358l631 1358h123l-86 -1499h-84l77 1364l-634 -1364h-93l-206 1358l-349 -1358h-86z" />
<glyph unicode="N" d="M164 0l237 1499h84l641 -1345l213 1345h84l-237 -1499h-80l-643 1346l-215 -1346h-84z" />
<glyph unicode="O" horiz-adv-x="1388" d="M211 406q0 270 74 577q45 180 123 315q57 94 167 156q101 55 345 55q80 0 139 -7t118.5 -26.5t96.5 -54.5q88 -84 106 -233q6 -55 6 -109q0 -274 -71 -571q-70 -287 -197 -395q-88 -76 -168 -95q-127 -28 -262 -28q-72 0 -147 8q-147 14 -215 78q-90 80 -109 225 q-6 53 -6 105zM293 414.5q0 -232.5 131 -295.5q90 -43 233.5 -43t216 14t140 54t112.5 114q96 156 148 481q31 190 31 336q0 121 -41 217q-27 59 -103 99q-51 27 -123.5 30.5t-130 3.5t-93.5 -2t-85 -8t-80 -19.5t-69.5 -38t-65.5 -59t-57 -86.5q-49 -86 -106.5 -325.5 t-57.5 -472z" />
<glyph unicode="P" horiz-adv-x="1202" d="M154 0l237 1499h586q303 0 303 -303q0 -137 -35 -241.5t-60.5 -149.5t-63.5 -77t-66.5 -48t-73.5 -25q-57 -12 -131 -12t-286 11.5t-220 15.5l-106 -670h-84zM352 729h502q205 0 281 170q35 74 47 152.5t12 105.5t-2 56.5t-8 65.5t-25.5 59.5t-38 39t-47.5 23.5 q-49 12 -110 12h-502z" />
<glyph unicode="Q" horiz-adv-x="1398" d="M219 406q0 270 74 577q45 180 123 315q57 94 168 156q100 55 344 55q80 0 139 -7t118.5 -26.5t96.5 -54.5q88 -84 107 -233q6 -55 6 -109q0 -274 -72 -571q-70 -287 -197 -395q-88 -76 -168 -95q-127 -28 -262 -28q-72 0 -147 8q-147 14 -215 78q-90 80 -109 225 q-6 53 -6 105zM301 410q0 -227 131 -291q90 -43 233.5 -43t216 14t140.5 54t113 114q96 156 147 481q31 190 31 336q0 121 -41 217q-27 59 -103 99q-51 27 -123.5 30.5t-127 3.5t-87 -1t-77.5 -6t-74 -15t-65.5 -27.5t-61.5 -44t-54.5 -63.5t-49.5 -88q-55 -129 -84 -260 q-63 -295 -64 -510zM647 -68h55q53 -122 199 -122h2q63 0 137 24l-14 -88q-58 -23 -121 -23q-1 0 -3 1q-64 0 -120.5 20t-94.5 69.5t-40 118.5z" />
<glyph unicode="R" horiz-adv-x="1251" d="M154 0l237 1499h590q297 0 297 -313q0 -168 -57 -307q-33 -82 -69 -124t-86 -67.5t-85 -32t-80 -8.5l221 -647h-92l-217 641q-61 2 -264 11.5t-205 11.5l-106 -664h-84zM354 729h502q205 0 281 168q33 74 47 178q8 94 8 140.5t-16.5 82t-33 59t-48.5 36.5q-51 20 -125 20 h-506z" />
<glyph unicode="S" horiz-adv-x="1161" d="M162 20l8 62q139 -14 348 -14t260 9t105 34q113 53 137 208l20 140q7 38 7 88t-33 90q-45 55 -180 55h-248q-184 0 -254 70q-61 63 -62 147q0 25 9 109l22 135q35 219 162 295q109 63 280 63q80 0 240 -14t240 -29l-9 -57l-471 16h-30q-135 0 -219 -58t-109 -222 l-23 -135q-2 -41 -6 -72t5.5 -55.5t17.5 -42t27.5 -28.5t37 -18.5t43.5 -11.5q45 -8 109 -8h252q285 0 285 -241q0 -39 -9 -82l-20 -140q-47 -293 -340 -323q-51 -6 -129 -6t-244 12t-229 24z" />
<glyph unicode="T" horiz-adv-x="1255" d="M285 1415l14 84h1081l-14 -84h-506l-223 -1415h-84l223 1415h-491z" />
<glyph unicode="U" horiz-adv-x="1376" d="M244 363.5q0 48.5 1 100.5t21 179l135 856h84l-135 -856q-20 -135 -20 -219t6 -136t31.5 -94t53.5 -66t77 -36q74 -18 180 -18t167.5 10t126 44t109.5 95q100 135 146 420l135 856h84l-135 -856q-61 -393 -215 -528q-80 -70 -173.5 -97.5t-195.5 -27.5t-153.5 5 t-108.5 20.5t-94 41.5q-90 70 -115 195q-12 63 -12 111.5z" />
<glyph unicode="V" horiz-adv-x="1368" d="M307 1499h88l273 -1380l731 1380h96l-795 -1499h-98z" />
<glyph unicode="W" horiz-adv-x="2021" d="M307 1499h84l275 -1380l708 1380h94l-294 -581l174 -805l708 1386h92l-768 -1499h-98l-172 797l-410 -797h-98z" />
<glyph unicode="X" horiz-adv-x="1150" d="M78 0l563 748l-332 751h92l299 -676l519 676h102l-582 -762l330 -737h-92l-295 659l-500 -659h-104z" />
<glyph unicode="Y" horiz-adv-x="1286" d="M307 1499h90l301 -860l615 860h100l-684 -967l-84 -532h-84l84 532z" />
<glyph unicode="Z" horiz-adv-x="1077" d="M72 0l14 84l1067 1331h-858l14 84h969l-14 -84l-1067 -1331h858l-15 -84h-968z" />
<glyph unicode="[" horiz-adv-x="581" d="M150 -88q0 41 8 92l231 1462q23 152 82 226q61 76 126 95t126 19h121l-13 -84h-122q-195 0 -236 -256l-231 -1462q-8 -51 -9 -104q0 -164 160 -164h125l-14 -84h-123q-70 0 -119 24q-113 59 -112 236z" />
<glyph unicode="\" horiz-adv-x="856" d="M289 1577h76l303 -1724h-76z" />
<glyph unicode="]" horiz-adv-x="587" d="M-27 -348l15 84h123q193 0 235 254l232 1464q8 53 8 96q0 172 -162 172h-123l14 84h123q72 0 119 -26q113 -59 113 -232q0 -41 -8 -94l-232 -1464q-31 -184 -117 -264q-80 -74 -217 -74h-123z" />
<glyph unicode="^" horiz-adv-x="849" d="M274 1087l304 267h77l191 -267h-72l-164 211l-254 -211h-82z" />
<glyph unicode="_" horiz-adv-x="1343" d="M39 -2l14 84h1258l-15 -84h-1257z" />
<glyph unicode="`" horiz-adv-x="471" d="M256 1360h96l209 -273h-67z" />
<glyph unicode="a" horiz-adv-x="1112" d="M162 307q0 45 1 95.5t22.5 175t60.5 223t81 153t99 89t101 46t91.5 17.5t110 6t188 -29.5t199.5 -101.5l-143 -981h-55l-7 123q-68 -43 -186.5 -90t-201.5 -47t-132 10t-94 33q-84 45 -119 174q-16 59 -16 104zM246 354q0 -286 244 -286h2q137 0 268 49q45 18 95 39.5 t60 25.5l113 776q-164 72 -311 72q-156 0 -256 -65q-143 -96 -201 -457q-14 -84 -14 -154z" />
<glyph unicode="b" horiz-adv-x="1122" d="M123 0l254 1608h80l-92 -586q98 37 218.5 59.5t196.5 22.5q301 0 301 -375q0 -92 -16 -201q-88 -540 -446 -540h-1q-102 0 -229 47t-166 86l-45 -121h-55zM233 178q209 -106 385 -106q131 0 228.5 116.5t134.5 350.5q16 104 16 172q0 195 -84 264q-53 45 -145 45 q-176 0 -410 -59z" />
<glyph unicode="c" horiz-adv-x="1007" d="M164 322v70t21.5 178t57.5 227.5t73.5 160t92 91t103.5 42t119 9.5q166 0 418 -56l-11 -57q-240 29 -358.5 29t-156.5 -9.5t-80 -38t-70 -79.5q-68 -115 -107 -352q-18 -111 -18 -194t14 -134t47 -84q53 -53 148 -53q178 0 387 28l69 9l-8 -62q-164 -43 -260 -50t-173 -7 t-126 15t-92 52q-78 68 -90 265z" />
<glyph unicode="d" horiz-adv-x="1087" d="M168 387q0 152 49 330q49 176 143 274q48 49 120.5 81t155.5 32t196.5 -22.5t201.5 -59.5l92 586h80l-254 -1608h-55l-8 121q-53 -41 -186.5 -87t-223.5 -46t-151 35q-160 90 -160 364zM252 355.5q0 -95.5 39 -167.5q63 -117 182 -117l1 1q120 0 215 27.5t208 78.5 l125 783q-215 59 -389 59q-211 0 -305 -240q-39 -98 -57.5 -213.5t-18.5 -211z" />
<glyph unicode="e" horiz-adv-x="1089" d="M172 528q18 102 27.5 144.5t24 92.5t29.5 86t37.5 74t49.5 63.5t63.5 50t79.5 38.5q97 31 222 31q207 0 299 -65.5t92 -190.5q0 -143 -72 -227t-160 -115q-154 -55 -315 -55q-94 0 -184.5 14t-112.5 23q-14 -100 -14 -184.5t22 -139.5q41 -98 182 -100h47q172 0 449 38 l-10 -61q-217 -59 -490 -59q-193 0 -252 141q-33 73 -33 183q0 114 19 218zM260 549q106 -19 184 -19h48q44 0 72 1q42 1 126 15.5t146.5 41t111.5 80.5q61 68 62 174q0 115 -101 153q-70 29 -163 29t-142 -8t-87 -18.5t-69.5 -34t-53 -41t-40 -53t-30 -59.5t-23.5 -71 q-14 -59 -24.5 -109t-12.5 -55q-2 -14 -4 -26z" />
<glyph unicode="f" horiz-adv-x="763" d="M188 1004l9 57l192 26l25 160q25 147 40 181t30.5 65t35 48.5t46 33.5t61.5 24.5t58.5 9.5t52 1t113.5 -10.5t126 -22.5l-6 -51h-271q-102 0 -143 -72q-37 -63 -59 -207l-25 -160h356l-14 -83h-356l-160 -1004h-84l160 1004h-187z" />
<glyph unicode="g" horiz-adv-x="1103" d="M76 -508l8 53l485 -20h13q84 0 166.5 65.5t103.5 196.5l43 272q-131 -51 -248 -65t-166 -14q-115 0 -187.5 46t-98.5 124q-29 90 -29 198.5t20 214.5q41 260 158 398.5t301 138.5q168 0 294 -13.5t154.5 -16.5t45.5 -3l-203 -1280q-29 -180 -132.5 -263t-213.5 -83 q-18 0 -35 2zM254 332q0 -268 231 -269q104 0 186.5 13.5t233.5 52.5l142 881l-396 6h-6q-225 0 -332 -291q-59 -168 -59 -393z" />
<glyph unicode="h" horiz-adv-x="1107" d="M123 0l254 1606h84l-103 -645q258 145 457 145q156 0 227 -102q55 -78 56 -179q0 -33 -6 -67l-121 -758h-84l121 758q4 31 4 57q0 82 -41 135q-57 72 -176 72t-213.5 -27.5t-231.5 -95.5l-143 -899h-84z" />
<glyph unicode="i" horiz-adv-x="329" d="M123 0l172 1087h84l-172 -1087h-84zM313 1296l15 95q4 34 39 34h51q25 0 25 -25q0 -4 -1 -9l-14 -95q-4 -32 -35 -32h-2h-49q-29 0 -29 25v7z" />
<glyph unicode="j" horiz-adv-x="354" d="M57 -553l260 1640h84l-174 -1095q-51 -344 -118 -545h-52zM334 1296l16 95q4 34 37 34h51q27 0 27 -27v-7l-16 -95q-4 -32 -35 -32h-2h-50q-14 0 -22 9q-6 7 -6 18v5z" />
<glyph unicode="k" horiz-adv-x="980" d="M123 0l254 1602h84l-156 -981q127 6 239.5 52t190.5 115q160 141 203 299h92q-61 -223 -256 -372q-102 -80 -213 -119l371 -596h-101l-354 571q-72 -16 -115 -16t-65 2l-90 -557h-84z" />
<glyph unicode="l" horiz-adv-x="624" d="M170 250q0 61 12 137l193 1217h84l-193 -1217q-10 -68 -10 -114t2 -71.5t15.5 -48t21.5 -33.5t29 -20q25 -10 112.5 -26.5t98.5 -16.5l-11 -57h-135q-219 0 -219 250z" />
<glyph unicode="m" horiz-adv-x="1869" d="M123 0l172 1087h55l8 -129q158 90 263.5 118t193.5 28t157.5 -47t96.5 -123q100 68 238.5 119t274.5 51t214 -103q59 -78 59 -182q0 -31 -6 -63l-118 -756h-84l118 756q4 27 4 51q0 80 -43 137q-57 76 -170 76q-215 0 -471 -133q9 -27 9 -63q0 -32 -7 -70l-120 -754h-84 l121 756q4 27 4 51q0 80 -45 137q-57 76 -175 76t-209.5 -27.5t-230.5 -93.5l-141 -899h-84z" />
<glyph unicode="n" horiz-adv-x="1107" d="M123 0l172 1087h55l8 -126q258 145 453 145q156 0 229 -102q57 -78 58 -181q0 -31 -6 -65l-121 -758h-84l121 758q4 29 4 55q0 80 -41 135q-57 74 -176 74t-213.5 -27.5t-231.5 -95.5l-143 -899h-84z" />
<glyph unicode="o" horiz-adv-x="1148" d="M168 344q0 86 21.5 224.5t62.5 245t107.5 171t154.5 89t217 24.5q256 0 338 -142q51 -88 51 -207.5t-16 -230.5q-49 -301 -164 -414.5t-376 -113.5t-345 125q-51 80 -51 229zM252 327.5q0 -192.5 143 -235.5q68 -18 173.5 -18t171 16t122.5 64q111 86 158 374 q18 115 18 189t-14 124t-37.5 85t-66.5 53q-74 35 -170.5 35t-142.5 -5t-95 -22.5t-82 -50.5q-80 -78 -129 -247t-49 -361.5z" />
<glyph unicode="p" horiz-adv-x="1099" d="M35 -553l264 1628q161 23 483 23q311 0 312 -406q0 -78 -17.5 -182t-49.5 -197.5t-83 -171.5q-105 -159 -323 -159h-3q-80 0 -198.5 20.5t-204.5 56.5l-96 -612h-84zM227 123q211 -57 344 -57h54q154 6 240.5 117.5t127.5 361.5q15 90 15 164q0 305 -236 305h-401z" />
<glyph unicode="q" horiz-adv-x="1130" d="M168 346.5q0 108.5 20 214.5q86 539 465 539q270 0 482 -29l-256 -1624h-84l96 612q-133 -51 -248 -65t-162 -14q-115 0 -186.5 45t-97.5 125q-29 88 -29 196.5zM254 291q4 -106 61.5 -167t170 -61t193.5 12.5t222 47.5l141 893h-401q-190 0 -291 -205 q-55 -113 -75.5 -251t-20.5 -195.5v-73.5z" />
<glyph unicode="r" horiz-adv-x="827" d="M123 0l172 1087h53l8 -137q100 51 146.5 74t137.5 49.5t187.5 26.5t135.5 -17l-15 -82q-58 15 -122 15h-18q-51 0 -78 -3q-32 -3 -69.5 -12.5t-57 -13.5t-64.5 -22.5t-56.5 -22.5t-70 -30.5t-66.5 -30.5l-139 -881h-84z" />
<glyph unicode="s" horiz-adv-x="1034" d="M131 12l8 58h523q100 0 141 34q51 43 65 132l19 102q2 18 2 51t-33 71t-123 38h-280q-193 0 -232 71q-29 50 -29 95t9 84l16 98q20 131 95 193.5t229 62.5q80 0 246.5 -8.5t244.5 -16.5l-10 -57h-494q-160 0 -206 -107q-14 -33 -21 -75l-16 -99q-6 -36 -6 -58 q0 -15 3 -25q7 -22 12 -34t19.5 -20t24.5 -12t33 -4q31 -4 57.5 -4h30.5h278q123 0 180.5 -60.5t57.5 -142.5q0 -23 -4 -49l-19 -109q-27 -176 -155 -217q-61 -18 -143.5 -18t-273 10t-249.5 16z" />
<glyph unicode="t" horiz-adv-x="727" d="M188 1006l11 61l186 23l70 303h61l-47 -303h344l-14 -84h-344l-99 -621q-10 -66 -10 -112t3 -72.5t15.5 -49t21.5 -34t30 -19.5q23 -10 110.5 -26.5t98.5 -16.5l-9 -57h-133q-223 0 -223 252q0 61 12 135l99 621h-183z" />
<glyph unicode="u" horiz-adv-x="1105" d="M150 264q0 33 4 68l120 758h84l-120 -758q-5 -31 -5 -60q0 -80 43 -133q55 -72 173 -72q1 1 2 1q120 0 213.5 27.5t232.5 92.5l141 902h84l-172 -1088h-55l-8 127q-258 -145 -432 -145t-250 100q-55 78 -55 180z" />
<glyph unicode="v" horiz-adv-x="1077" d="M193 1087h86l245 -978l457 811q59 111 68 170h61q4 -17 4 -35q0 -61 -47 -154l-504 -901h-102z" />
<glyph unicode="w" horiz-adv-x="1644" d="M193 1087h83l242 -976l453 802q63 117 71 170h58q4 -14 4 -32q0 -59 -47 -156l-107 -193l144 -591l460 807q63 117 72 172h57q6 -18 7 -39q0 -61 -50 -150l-516 -901h-88l-145 600l-338 -600h-92z" />
<glyph unicode="x" horiz-adv-x="964" d="M49 0l479 547l-307 540h103l268 -471l414 471h108l-479 -546l305 -541h-102l-265 467l-411 -467h-113z" />
<glyph unicode="y" horiz-adv-x="1105" d="M193 1087h86l155 -849q27 -137 141 -150h35l412 842q43 90 55 168h62q8 -23 8 -67t-41 -124l-442 -905q-2 -6 -13 -25q-258 -514 -452 -528v55q137 33 352 463q14 31 16 33q-51 2 -98 29q-94 53 -121 196z" />
<glyph unicode="z" horiz-adv-x="923" d="M92 2l12 84l811 918h-694l12 83h811l-12 -83l-809 -918h662l-13 -84h-780z" />
<glyph unicode="{" horiz-adv-x="573" d="M137 729l13 84q102 6 135 27q61 41 71 102l78 492q27 174 122 273t286 99l-15 -84h-2q-84 0 -145 -26q-131 -57 -164 -271l-76 -483q-16 -96 -106 -145q-41 -23 -90 -31q70 -10 105.5 -53t35.5 -92q0 -12 -2 -25l-90 -563q-8 -55 -8 -122t37 -114q53 -63 184 -63h8 l-14 -82q-299 0 -299 280q0 51 10 109l86 547q2 10 2 22q0 51 -45 85t-102 34h-15z" />
<glyph unicode="|" horiz-adv-x="460" d="M152 -147l272 1724h84l-272 -1724h-84z" />
<glyph unicode="}" horiz-adv-x="567" d="M-27 -348l15 82h2q133 0 207.5 62.5t99.5 215.5l88 555q10 68 65.5 114t127.5 58q-70 10 -106 53.5t-36 92.5q0 14 2 28l80 492q8 59 8 130t-37 120q-53 72 -180 71h-8l14 80q295 0 295 -309q0 -51 -10 -100l-76 -479q-14 -106 103 -136q29 -8 59 -8l-14 -84q-6 2 -13 2 q-61 0 -120.5 -30.5t-71.5 -98.5l-88 -557q-41 -260 -223 -328q-78 -27 -183 -26z" />
<glyph unicode="~" horiz-adv-x="964" d="M287 1171q8 6 30.5 23.5t30.5 24t28.5 20.5t31 19.5t29 15.5t30.5 12q37 10 72.5 10t109.5 -61t99.5 -61t43 4t35 10t31.5 13t31.5 18.5t29 18.5t29 19.5t25.5 16.5l16 -39q-6 -6 -24.5 -20.5t-25.5 -21.5t-24.5 -20.5t-26.5 -19.5t-25.5 -16.5t-29 -15.5t-26.5 -9 q-29 -10 -68 -10t-112.5 61.5t-105.5 61.5t-61.5 -9.5t-47 -18.5t-55.5 -32.5t-54 -31.5z" />
<glyph unicode="&#xa1;" horiz-adv-x="509" d="M92 -553l189 1096h67l-160 -1096h-96zM293 791l20 122q4 29 37 31h51q31 -2 27 -33l-20 -120q-6 -31 -35 -35h-56q-28 2 -24 35z" />
<glyph unicode="&#xa2;" horiz-adv-x="985" d="M143.5 298q-0.5 44 0.5 93t20.5 168t46.5 211t63.5 150.5t73.5 96.5t88 55.5t94 22.5t74 5h41l29 176h65l-28 -182q158 -12 319 -50l-10 -57q-240 29 -358.5 29t-156.5 -9.5t-80 -37t-71 -80.5q-66 -115 -106 -352q-18 -117 -18.5 -184.5t8 -111.5t27 -79t46.5 -53 q53 -37 138 -37q168 0 376 28l72 9l-10 -62q-180 -49 -350 -55l-27 -170h-66l25 168h-33.5t-76 9t-89.5 32q-80 43 -112 168q-14 55 -14.5 99z" />
<glyph unicode="&#xa3;" horiz-adv-x="1169" d="M102 0l9 59l153 25l96 618h-147l8 52l152 22l41 258q43 272 159 369q80 66 154 79t118 15t93 2t98 -2t94 -6q96 -6 156 -12l27 -2l-13 -60h-350q-113 0 -180.5 -12t-126.5 -51t-92 -116t-53 -204l-41 -258l579 -22l-10 -52h-582l-96 -618h742l-15 -84h-973z" />
<glyph unicode="&#xa4;" horiz-adv-x="956" d="M162 344l100 86q-47 78 -47 166q0 152 115 262l-80 94l45 37l78 -94q102 80 227 80t203 -76l110 92l37 -45l-110 -92q53 -74 53 -166q0 -150 -111 -268l74 -88l-49 -39l-70 86q-102 -86 -232 -86t-208 92l-98 -86zM279 594q0 -86 57 -162q59 -76 176 -76t207 82 q113 104 112 250q0 82 -59 153.5t-176 71.5t-207 -79q-110 -99 -110 -240z" />
<glyph unicode="&#xa5;" horiz-adv-x="1206" d="M217 375l8 59h381l25 164h-379l10 59h373l-346 842h92l311 -754l600 754h103l-668 -842h410l-11 -59h-411l-25 -164h410l-8 -59h-410l-55 -375h-84l55 375h-381z" />
<glyph unicode="&#xa6;" horiz-adv-x="462" d="M152 -147l106 671h84l-106 -671h-84zM313 879l111 698h84l-111 -698h-84z" />
<glyph unicode="&#xa7;" horiz-adv-x="1138" d="M190 10l9 58h506q98 0 153 33.5t70 123.5l24 150q2 25 2 56.5t-24.5 52t-143.5 20.5h-323q-127 0 -189 39q-51 33 -51 121q0 31 6 65l19 131q12 80 43 124t92 56q-82 29 -82 125q0 20 4 43l23 146q39 252 305 252q106 0 292.5 -11.5t223.5 -15.5l-8 -57h-520 q-182 0 -209 -170l-23 -144q-4 -18 -4 -34q0 -49 36 -73t130 -24h326q152 0 202 -57q37 -41 37 -115q0 -29 -4 -63l-20 -127q-18 -119 -70 -152q-24 -16 -57 -20q76 -20 75 -94q0 -18 -4 -74l-24 -150q-27 -160 -117 -205q-76 -37 -205 -36q-104 0 -283.5 11t-216.5 15z M307 675.5q0 -20.5 3 -36.5t15.5 -25.5t21.5 -14.5t32 -7q35 -2 94 -2h326q88 0 128 11t55 37t26 87l20 127q4 29 4 51q0 63 -51 80q-37 12 -117 12h-327q-57 0 -85 -3t-56.5 -16t-42 -44t-21.5 -84l-21 -125q-4 -27 -4 -47.5z" />
<glyph unicode="&#xa8;" horiz-adv-x="915" d="M289 1174.5q0 11.5 2 27t22.5 31.5t41 16t32.5 -6q39 -25 12 -74q-20 -37 -52 -36.5t-45 15.5t-13 26.5zM811 1174.5q0 11.5 2 27t22.5 31.5t41.5 16q39 0 51 -28q2 -8 2 -15.5t-1 -16.5t-7.5 -20.5t-16.5 -19.5q-18 -16 -42.5 -16t-38 15t-13.5 26.5z" />
<glyph unicode="&#xa9;" horiz-adv-x="1730" d="M213 571q0 186 59 398q104 371 349 485q93 45 206 45h529q229 0 307 -217q43 -113 43 -229q0 -502 -209 -826q-68 -106 -164 -166.5t-207 -60.5h-528q-109 0 -188.5 55.5t-118.5 137.5q-78 160 -78 378zM274.5 547q-0.5 -90 20 -175t56.5 -155t101.5 -112t149.5 -42h533 q223 0 372 312q76 160 105.5 341t29.5 293.5t-23.5 213t-91 157t-171.5 56.5h-537q-172 0 -309 -140q-156 -155 -219 -542q-16 -117 -16.5 -207zM571 594q0 70 15 158q71 442 366 442q143 0 357 -39l-6 -49q-170 25 -361 24q-231 0 -293 -389q-14 -78 -14 -112.5t1 -73.5 t19 -88q37 -102 164 -102q221 0 383 32l-8 -49q-178 -47 -383 -47q-240 0 -240 293z" />
<glyph unicode="&#xaa;" horiz-adv-x="712" d="M147 580l9 57h589l-8 -57h-590zM215 1051q0 123 30.5 204.5t58.5 117.5t56.5 60.5t62.5 38t59.5 19.5t49 8t53 2t81 -8t105.5 -32.5t87 -59.5l-94 -621h-39l-4 115q-43 -51 -119 -87t-137.5 -36t-104.5 19q-145 59 -145 260zM281 1052q0 -42 14 -95.5t58 -86t108 -32.5 q115 0 268 114l64 424q-37 27 -100.5 43.5t-97.5 16.5t-48 -2q-215 -14 -260 -297q-6 -43 -6 -85z" />
<glyph unicode="&#xab;" horiz-adv-x="1144" d="M217 725l485 418l54 -62l-422 -364l307 -365l-61 -55zM600 725l485 418l54 -62l-426 -362l313 -369l-63 -53z" />
<glyph unicode="&#xac;" horiz-adv-x="1089" d="M184 557l15 86h833l-49 -317h-84l35 231h-750z" />
<glyph unicode="&#xad;" horiz-adv-x="733" d="M123 553l14 82h643l-14 -82h-643z" />
<glyph unicode="&#xae;" horiz-adv-x="1730" d="M213 571q0 184 59 396q104 371 349 487q93 45 206 45h529q229 0 307 -217q43 -113 43 -229q0 -502 -209 -826q-68 -106 -164 -166.5t-207 -60.5h-528q-109 0 -188.5 54.5t-118.5 138.5q-78 160 -78 378zM274 541q0 -225 103 -367q80 -111 221 -111h537q162 0 297 181.5 t188 509.5q23 143 22.5 256.5t-24 213t-90 156t-172.5 56.5h-537q-172 0 -309 -140q-74 -74 -131 -211q-104 -254 -105 -544zM586 313l137 875h362q225 0 226 -203q0 -94 -25.5 -151.5t-44 -80t-50.5 -37t-48.5 -17.5t-51 -5t-40.5 -2l155 -379h-71l-154 379l-270 15 l-62 -394h-63zM717 750h311q102 0 149.5 34.5t63.5 141.5q4 35 4 58.5t-3 51t-28 49.5q-43 39 -124 39h-312z" />
<glyph unicode="&#xaf;" horiz-adv-x="802" d="M274 1087l11 64h542l-8 -64h-545z" />
<glyph unicode="&#xb0;" horiz-adv-x="688" d="M303 1272q0 100 71.5 166.5t157.5 66.5t137.5 -57t51.5 -129q0 -102 -69.5 -168t-155.5 -66t-139.5 57.5t-53.5 129.5zM354 1274q0 -51 38 -93t102.5 -42t115.5 45q59 53 60 131q0 78 -62 117q-35 20 -77 20t-80 -20q-97 -54 -97 -158z" />
<glyph unicode="&#xb1;" horiz-adv-x="1056" d="M141 246l15 84h811l-15 -84h-811zM233 825l13 84h362l60 363h84l-60 -363h365l-13 -84h-364l-57 -364h-84l57 364h-363z" />
<glyph unicode="&#xb2;" horiz-adv-x="802" d="M154 729l8 59q10 6 70.5 49.5t96.5 68t102.5 75.5t110.5 88t100 90t91 95t61.5 89.5t33 84t6.5 82.5t-25 83q-37 55 -158 56h-358q-4 4 1 26.5t7 20.5q166 20 377 20q92 0 148.5 -45t68.5 -94t12 -83t-9 -86t-66.5 -136t-141.5 -162t-157.5 -136.5t-150.5 -114.5t-85 -62 h500l-11 -68h-632z" />
<glyph unicode="&#xb3;" horiz-adv-x="856" d="M156 748l6 40h360q109 0 166 41t74 144l8 47q2 16 2 31q0 59 -46 98t-126 41l-291 8l8 47l285 10q90 2 156.5 45t77.5 111l6 66q4 23 4 41q0 121 -166 120h-391l6 45q94 23 373 23h30q121 0 168 -59.5t47 -130.5q0 -18 -4 -41l-12 -76q-10 -74 -66.5 -124t-105.5 -58 q68 -27 100 -101q14 -31 14.5 -55.5t-1.5 -38.5l-9 -59q-18 -119 -85.5 -180.5t-208.5 -61.5h-3q-279 0 -376 27z" />
<glyph unicode="&#xb4;" horiz-adv-x="434" d="M213 1087l281 273h102l-315 -273h-68z" />
<glyph unicode="&#xb5;" horiz-adv-x="1200" d="M96 -553l260 1643h84l-121 -758q-4 -29 -4 -56q0 -80 43 -135q55 -74 174 -73.5t213.5 28t233.5 92.5l141 902h84l-172 -1088h-55l-8 127q-258 -145 -453 -145q-162 0 -231 120l-105 -657h-84z" />
<glyph unicode="&#xb6;" horiz-adv-x="1159" d="M238 981q0 25 4 51l30 191q33 207 246 262q58 14 119 14h709l-15 -88h-141l-223 -1411h-84l223 1415h-287l-313 -1968h-84l209 1305q-43 -23 -109 -23h-10q-152 0 -221 90q-53 72 -53 162zM324 978.5q0 -24.5 10 -58t33.5 -55t56.5 -34.5q49 -20 102 -20h113l96 606h-110 q-117 0 -186.5 -57t-84.5 -150l-28 -184q-2 -23 -2 -47.5z" />
<glyph unicode="&#xb7;" horiz-adv-x="567" d="M285 756l10 55q4 33 37 33h53q33 0 29 -33l-11 -55q-4 -33 -36 -33h-54q-14 0 -22 9t-6 24z" />
<glyph unicode="&#xb8;" horiz-adv-x="540" d="M45 -354l6 35l84 18q78 14 115 59t55 166h70q-27 -158 -78 -218t-174 -60h-78z" />
<glyph unicode="&#xb9;" horiz-adv-x="565" d="M236 1526l6 45q115 0 250 88q33 20 49 35l16 14h66l-156 -979h-68l142 891q-41 -33 -122 -63.5t-183 -30.5z" />
<glyph unicode="&#xba;" horiz-adv-x="765" d="M170 582l8 57h592l-8 -57h-592zM221 981q0 80 14.5 173t38 160.5t65.5 114t105 64.5q64 16 166 16q182 0 238 -84q33 -51 33 -135t-12.5 -161.5t-25 -126t-31.5 -90.5t-46 -68.5t-66 -44.5q-70 -35 -206 -35q-182 0 -238 84q-35 53 -35 133zM285 1007q0 -42 7 -73 t22.5 -51.5t41.5 -32.5q51 -23 136.5 -23t128.5 9.5t81 40.5q70 55 101 249q14 92 14 143.5t-9 87.5t-36 54q-53 35 -151.5 35t-142.5 -10.5t-83 -44t-60.5 -96t-35.5 -154.5t-14 -134z" />
<glyph unicode="&#xbb;" horiz-adv-x="1138" d="M166 360l432 371l-303 356l61 56l357 -422l-494 -424zM551 360l432 369l-303 361l61 53l357 -422l-494 -424z" />
<glyph unicode="&#xbc;" horiz-adv-x="1873" d="M236 1321l6 45q115 0 250 88q33 20 49 35l16 14h66l-156 -979h-68l142 891q-41 -33 -122 -63.5t-183 -30.5zM403 0l1096 1577h70l-1096 -1577h-70zM1040 340l502 633h82l-465 -592h465l39 248l49 98h35l-55 -346h120l-6 -47l-125 -25l-49 -307h-67l49 307h-557z" />
<glyph unicode="&#xbd;" horiz-adv-x="1966" d="M236 1321l6 45q115 0 250 88q33 20 49 35l16 14h66l-156 -979h-68l142 891q-41 -33 -122 -63.5t-183 -30.5zM334 0l1096 1577h69l-1096 -1577h-69zM1178 2l8 59q10 6 70.5 48.5t95 68t102.5 76.5t111 88t99 89t91 95t62.5 90.5t34 84t6.5 81.5t-27 84q-37 55 -156 56 h-358q-4 4 1 26l5 21q168 20 379 20q92 0 147.5 -45t67.5 -93t12 -81q0 -117 -65.5 -214t-149.5 -176t-155.5 -136.5t-150.5 -113.5t-85 -60h498l-11 -68h-632z" />
<glyph unicode="&#xbe;" horiz-adv-x="2103" d="M156 543l6 41h360q109 0 166 41t74 143l8 47q2 14 2 40t-20 60q-41 68 -152 70l-291 8l8 47l285 11q90 2 156.5 45t77.5 110l6 66q4 23 4 41q0 121 -166 121h-391l6 45q94 23 373 22h30q121 0 168 -59.5t47 -130.5q0 -18 -4 -41l-12 -76q-10 -74 -66.5 -124t-105.5 -58 q45 -18 80 -64.5t35 -99.5q0 -14 -2 -31l-9 -59q-18 -119 -85.5 -180.5t-208.5 -61.5h-3q-279 0 -376 27zM614 0l1098 1577h70l-1098 -1577h-70zM1212 340l504 633h82l-467 -592h467l39 248l49 98h35l-55 -346h121l-7 -47l-125 -25l-49 -307h-67l49 307h-557z" />
<glyph unicode="&#xbf;" horiz-adv-x="1103" d="M47 -264q0 45 8 96l33 207q33 203 174 276q98 49 258 50q68 -1 148 -9l32 207h88l-43 -276h-142h-99q-293 -2 -332 -252l-33 -207q-8 -47 -8 -86q0 -98 47 -145q66 -66 246 -66h528l-8 -53q-238 -29 -471 -29h-55.5h-26.5q-344 0 -344 287zM729 807l19 123q3 33 36 33h54 q14 0 22 -9.5t6 -23.5l-18 -123q-4 -35 -39 -35h-53q-31 0 -27 35z" />
<glyph unicode="&#xc0;" d="M92 0l795 1499h98l295 -1499h-84l-96 483h-658l-256 -483h-94zM487 567h596l-159 828zM686 1905h96l209 -273h-67z" />
<glyph unicode="&#xc1;" d="M92 0l795 1499h98l295 -1499h-84l-96 483h-658l-256 -483h-94zM487 567h596l-159 828zM924 1632l280 273h103l-316 -273h-67z" />
<glyph unicode="&#xc2;" d="M92 0l795 1499h98l295 -1499h-84l-96 483h-658l-256 -483h-94zM487 567h596l-159 828zM672 1632l303 266h78l190 -266h-67l-168 213l-256 -213h-80z" />
<glyph unicode="&#xc3;" d="M92 0l795 1499h98l295 -1499h-84l-96 483h-658l-256 -483h-94zM487 567h596l-159 828zM623 1702q100 78 153 100.5t95 22.5t118 -60.5t105 -60.5q82 0 213 94l18 -39q-6 -4 -29.5 -22.5t-32 -23.5t-29 -20.5t-30.5 -20.5t-28.5 -15t-30.5 -15q-37 -10 -71 -10t-76 32 t-78.5 61.5t-62.5 29.5t-47.5 -4t-46 -15.5t-38.5 -19.5t-45 -26.5t-43 -26.5z" />
<glyph unicode="&#xc4;" d="M92 0l795 1499h98l295 -1499h-84l-96 483h-658l-256 -483h-94zM487 567h596l-159 828zM647 1691.5q4 24.5 24.5 41t45 16.5t38 -16.5t9.5 -41t-23.5 -42t-44 -17.5t-39 17.5t-10.5 42zM1169.5 1691.5q4.5 24.5 24.5 41t45 16.5t37 -14.5t12 -25.5t-3 -26.5t-22.5 -33 t-44 -17.5t-39 17.5t-10 42z" />
<glyph unicode="&#xc5;" d="M92 0l795 1499h98l295 -1499h-84l-96 483h-658l-256 -483h-94zM487 567h596l-159 828zM762 1661q0 -27 16 -62q45 -104 180 -104q72 0 148 67.5t76 174.5q0 68 -47.5 123t-133.5 55t-162.5 -67.5t-76.5 -186.5zM815 1681q0 78 64 134q51 47 115.5 47t100 -42t35.5 -91 q0 -106 -98 -158q-39 -23 -92 -23t-89 42t-36 91z" />
<glyph unicode="&#xc6;" horiz-adv-x="1851" d="M61 0l910 1219q88 118 154.5 178.5t133 81t117.5 20.5h66l577 -24l-8 -60h-584q-90 0 -113.5 -14.5t-33.5 -19.5t-17.5 -18t-12.5 -21.5t-9 -27t-6 -27.5t-5 -32.5t-5 -33.5l-70 -439l672 -12l-10 -61l-676 -13l-72 -446q-4 -27 -4 -50.5t8 -52t37 -45.5q47 -27 127 -26 h561l-8 -58l-555 -26h-37t-68 8q-150 33 -149 186q0 29 4 62l41 254h-491l-373 -502h-101zM596 586h444l119 747z" />
<glyph unicode="&#xc7;" horiz-adv-x="1163" d="M215 504q0 190 59 452q43 190 92.5 276.5t95.5 136.5t102.5 81t129 48.5t203.5 17.5t410 -54l-9 -59q-236 29 -434 29q-96 0 -155.5 -14.5t-122 -56.5t-109.5 -116q-102 -164 -153 -495q-23 -139 -23 -250q0 -422 326 -428h80.5t384.5 22l-9 -61q-213 -45 -467 -45 q-111 0 -190 43q-211 109 -211 473zM393 -352l6 35l82 16q78 14 116 59t54 168h70q-25 -160 -76 -219t-174 -59h-78z" />
<glyph unicode="&#xc8;" horiz-adv-x="1153" d="M195 193q0 31 6 65l155 981q23 141 102 200.5t183 59.5h14l619 -24l-8 -60h-623q-174 0 -203 -182l-71 -447l712 -14l-10 -59l-715 -15l-71 -446q-4 -27 -4 -51.5t8 -52t37 -44.5q47 -27 127 -26h602l-11 -60l-606 -24h-34.5t-67.5 10q-141 35 -141 189zM612 1894h97 l209 -272h-66z" />
<glyph unicode="&#xc9;" horiz-adv-x="1153" d="M195 193q0 31 6 65l155 981q23 141 102 200.5t183 59.5h14l619 -24l-8 -60h-623q-174 0 -203 -182l-71 -447l712 -14l-10 -59l-715 -15l-71 -446q-4 -27 -4 -51.5t8 -52t37 -44.5q47 -27 127 -26h602l-11 -60l-606 -24h-34.5t-67.5 10q-141 35 -141 189zM829 1622 l281 272h100l-315 -272h-66z" />
<glyph unicode="&#xca;" horiz-adv-x="1153" d="M195 193q0 31 6 65l155 981q23 141 102 200.5t183 59.5h14l619 -24l-8 -60h-623q-174 0 -203 -182l-71 -447l712 -14l-10 -59l-715 -15l-71 -446q-4 -27 -4 -51.5t8 -52t37 -44.5q47 -27 127 -26h602l-11 -60l-606 -24h-34.5t-67.5 10q-141 35 -141 189zM596 1622 l303 266h78l190 -266h-71l-164 211l-254 -211h-82z" />
<glyph unicode="&#xcb;" horiz-adv-x="1153" d="M195 193q0 31 6 65l155 981q23 141 102 200.5t183 59.5h14l619 -24l-8 -60h-623q-174 0 -203 -182l-71 -447l712 -14l-10 -59l-715 -15l-71 -446q-4 -27 -4 -51.5t8 -52t37 -44.5q47 -27 127 -26h602l-11 -60l-606 -24h-34.5t-67.5 10q-141 35 -141 189zM559 1726.5 q4 24.5 24.5 41t45 16.5t39 -16.5t10.5 -41t-23.5 -42t-44 -17.5t-40 17.5t-11.5 42zM1081 1726.5q4 24.5 24.5 41t45.5 16.5t39 -16.5t10 -41t-23.5 -42t-44 -17.5t-40 17.5t-11.5 42z" />
<glyph unicode="&#xcc;" horiz-adv-x="415" d="M184 0l238 1499h84l-238 -1499h-84zM215 1905h94l209 -273h-65z" />
<glyph unicode="&#xcd;" horiz-adv-x="415" d="M184 0l238 1499h84l-238 -1499h-84zM453 1632l280 273h101l-316 -273h-65z" />
<glyph unicode="&#xce;" horiz-adv-x="415" d="M184 0l238 1499h84l-238 -1499h-84zM201 1632l301 266h78l190 -266h-68l-165 213l-256 -213h-80z" />
<glyph unicode="&#xcf;" horiz-adv-x="415" d="M174 1675.5q0 12.5 1 20.5t8 19t16.5 18.5t20.5 11.5t29.5 4t33 -16.5t10.5 -37t-12 -32.5q-23 -31 -51.5 -31t-42 15.5t-13.5 28zM184 0l238 1499h84l-238 -1499h-84zM696 1691.5q4 24.5 24.5 41t45.5 16.5t37 -14.5t12 -25.5t-1 -20.5t-7 -20.5t-16 -17 q-18 -18 -43 -18.5t-40.5 17t-11.5 42z" />
<glyph unicode="&#xd0;" horiz-adv-x="1390" d="M145 735l9 58h133l112 706h531q225 0 325 -135q98 -133 109 -305q2 -47 2 -90q0 -264 -100 -525q-174 -444 -564 -444h-540l117 735h-134zM260 86h451q96 0 180 40t143.5 104.5t106.5 152.5q86 158 113.5 326t27.5 272q0 434 -367 434h-446l-98 -622h313l-10 -58h-312z " />
<glyph unicode="&#xd1;" d="M164 0l237 1499h84l641 -1345l213 1345h84l-237 -1499h-80l-643 1346l-215 -1346h-84zM594 1700q100 76 152.5 99.5t95.5 22.5t118.5 -61.5t104.5 -60.5q82 0 213 96l18 -39q-8 -6 -27.5 -21.5t-27.5 -21.5t-25.5 -18.5t-26.5 -18.5t-25.5 -15t-28 -14.5t-25.5 -9.5 q-76 -27 -139 23q-43 31 -80 60.5t-62.5 29.5t-47 -4t-46 -15.5t-39 -19.5t-45 -26.5t-43.5 -26.5z" />
<glyph unicode="&#xd2;" horiz-adv-x="1388" d="M211 406q0 270 74 577q45 180 123 315q57 94 167 156q101 55 345 55q80 0 139 -7t118.5 -26.5t96.5 -54.5q88 -84 106 -233q6 -55 6 -109q0 -301 -79 -598q-59 -221 -144 -319q-90 -106 -205 -139q-109 -31 -233.5 -31t-184 6t-119 24.5t-95.5 53.5q-90 80 -109 225 q-6 53 -6 105zM293 410q0 -227 131 -291q90 -43 270 -43q170 0 254 34.5t127 82t82 120.5q72 137 117 426q29 184 29 281.5t-4.5 154t-31 106.5t-55 77.5t-82.5 44.5q-82 23 -178 22.5t-128.5 -1.5t-78 -6t-74 -15t-65.5 -27.5t-61.5 -44t-54 -63.5t-50.5 -88 q-55 -129 -84 -260q-63 -295 -63 -510zM666 1905h94l209 -273h-66z" />
<glyph unicode="&#xd3;" horiz-adv-x="1388" d="M211 406q0 270 74 577q45 180 123 315q57 94 167 156q101 55 345 55q80 0 139 -7t118.5 -26.5t96.5 -54.5q88 -84 106 -233q6 -55 6 -109q0 -301 -79 -598q-59 -221 -144 -319q-90 -106 -205 -139q-109 -31 -233.5 -31t-184 6t-119 24.5t-95.5 53.5q-90 80 -109 225 q-6 53 -6 105zM293 410q0 -227 131 -291q90 -43 270 -43q170 0 254 34.5t127 82t82 120.5q72 137 117 426q29 184 29 281.5t-4.5 154t-31 106.5t-55 77.5t-82.5 44.5q-82 23 -178 22.5t-128.5 -1.5t-78 -6t-74 -15t-65.5 -27.5t-61.5 -44t-54 -63.5t-50.5 -88 q-55 -129 -84 -260q-63 -295 -63 -510zM903 1632l281 273h100l-315 -273h-66z" />
<glyph unicode="&#xd4;" horiz-adv-x="1388" d="M211 406q0 270 74 577q45 180 123 315q57 94 167 156q101 55 345 55q80 0 139 -7t118.5 -26.5t96.5 -54.5q88 -84 106 -233q6 -55 6 -109q0 -301 -79 -598q-59 -221 -144 -319q-90 -106 -205 -139q-109 -31 -233.5 -31t-184 6t-119 24.5t-95.5 53.5q-90 80 -109 225 q-6 53 -6 105zM293 410q0 -227 131 -291q90 -43 270 -43q170 0 254 34.5t127 82t82 120.5q72 137 117 426q29 184 29 281.5t-4.5 154t-31 106.5t-55 77.5t-82.5 44.5q-82 23 -178 22.5t-128.5 -1.5t-78 -6t-74 -15t-65.5 -27.5t-61.5 -44t-54 -63.5t-50.5 -88 q-55 -129 -84 -260q-63 -295 -63 -510zM651 1632l303 266h78l189 -266h-68l-166 213l-256 -213h-80z" />
<glyph unicode="&#xd5;" horiz-adv-x="1388" d="M211 406q0 270 74 577q45 180 123 315q57 94 167 156q101 55 345 55q80 0 139 -7t118.5 -26.5t96.5 -54.5q88 -84 106 -233q6 -55 6 -109q0 -301 -79 -598q-59 -221 -144 -319q-90 -106 -205 -139q-109 -31 -233.5 -31t-184 6t-119 24.5t-95.5 53.5q-90 80 -109 225 q-6 53 -6 105zM293 410q0 -227 131 -291q90 -43 270 -43q170 0 254 34.5t127 82t82 120.5q72 137 117 426q29 184 29 281.5t-4.5 154t-31 106.5t-55 77.5t-82.5 44.5q-82 23 -178 22.5t-128.5 -1.5t-78 -6t-74 -15t-65.5 -27.5t-61.5 -44t-54 -63.5t-50.5 -88 q-55 -129 -84 -260q-63 -295 -63 -510zM600 1702q102 78 154.5 100.5t94.5 22.5t117.5 -60.5t106.5 -60.5q80 0 213 94l17 -39q-6 -4 -30 -22.5t-31 -23.5t-28.5 -20.5t-32 -20.5t-28.5 -15t-31 -15q-37 -10 -69.5 -10t-74.5 32t-79 61.5t-62.5 29.5t-48 -4t-47 -15.5 t-38 -19.5t-44 -26.5t-43.5 -26.5z" />
<glyph unicode="&#xd6;" horiz-adv-x="1388" d="M211 406q0 270 74 577q45 180 123 315q57 94 167 156q101 55 345 55q80 0 139 -7t118.5 -26.5t96.5 -54.5q88 -84 106 -233q6 -55 6 -109q0 -301 -79 -598q-59 -221 -144 -319q-90 -106 -205 -139q-109 -31 -233.5 -31t-184 6t-119 24.5t-95.5 53.5q-90 80 -109 225 q-6 53 -6 105zM293 410q0 -227 131 -291q90 -43 270 -43q170 0 254 34.5t127 82t82 120.5q72 137 117 426q29 184 29 281.5t-4.5 154t-31 106.5t-55 77.5t-82.5 44.5q-82 23 -178 22.5t-128.5 -1.5t-78 -6t-74 -15t-65.5 -27.5t-61.5 -44t-54 -63.5t-50.5 -88 q-55 -129 -84 -260q-63 -295 -63 -510zM625 1691.5q4 24.5 24.5 41t45 16.5t39 -16.5t10 -41t-24 -42t-44 -17.5t-39.5 17.5t-11 42zM1147 1691.5q4 24.5 24.5 41t45 16.5t39 -16.5t10.5 -41t-23.5 -42t-44 -17.5t-40 17.5t-11.5 42z" />
<glyph unicode="&#xd7;" horiz-adv-x="917" d="M190 473l297 256l-215 256l64 55l215 -256l305 263l49 -60l-303 -264l217 -258l-65 -53l-215 258l-297 -258z" />
<glyph unicode="&#xd8;" horiz-adv-x="1388" d="M164 0l106 133q-61 96 -61 262t24.5 322.5t49 260t56.5 181.5t64.5 135.5t77.5 95t87 62.5t102 37q98 20 237.5 20t232.5 -21.5t150 -82.5l74 94h68l-109 -135q63 -102 63 -274t-24.5 -328t-49 -254t-55 -173t-63.5 -130t-77 -92t-88 -61.5t-103 -37.5 q-100 -23 -242.5 -22.5t-233 21t-147.5 79.5l-74 -92h-65zM293 420q0 -137 39 -211l901 1128q-63 76 -223 86q-41 2 -98.5 2t-90.5 -1t-78 -6t-73.5 -15t-65.5 -27.5t-61.5 -44t-54 -63.5t-51 -87.5t-43 -115t-39 -146t-40 -222t-22.5 -277.5zM360 164q64 -72 226 -84 q47 -4 132 -4t156.5 14t139 54t112.5 114q94 156 146 481q31 188 31 329.5t-39 221.5z" />
<glyph unicode="&#xd9;" horiz-adv-x="1376" d="M244 363.5q0 48.5 1 100.5t21 179l135 856h84l-135 -856q-20 -135 -20 -219t6 -136t31.5 -94t53.5 -66t77 -36q74 -18 180 -18t167.5 10t126 44t109.5 95q100 135 146 420l135 856h84l-135 -856q-61 -393 -215 -528q-80 -70 -173.5 -97.5t-195.5 -27.5t-153.5 5 t-108.5 20.5t-94 41.5q-90 70 -115 195q-12 63 -12 111.5zM674 1905h96l209 -273h-68z" />
<glyph unicode="&#xda;" horiz-adv-x="1376" d="M244 363.5q0 48.5 1 100.5t21 179l135 856h84l-135 -856q-20 -135 -20 -219t6 -136t31.5 -94t53.5 -66t77 -36q74 -18 180 -18t167.5 10t126 44t109.5 95q100 135 146 420l135 856h84l-135 -856q-61 -393 -215 -528q-80 -70 -173.5 -97.5t-195.5 -27.5t-153.5 5 t-108.5 20.5t-94 41.5q-90 70 -115 195q-12 63 -12 111.5zM911 1632l281 273h102l-315 -273h-68z" />
<glyph unicode="&#xdb;" horiz-adv-x="1376" d="M244 363.5q0 48.5 1 100.5t21 179l135 856h84l-135 -856q-20 -135 -20 -219t6 -136t31.5 -94t53.5 -66t77 -36q74 -18 180 -18t167.5 10t126 44t109.5 95q100 135 146 420l135 856h84l-135 -856q-61 -393 -215 -528q-80 -70 -173.5 -97.5t-195.5 -27.5t-153.5 5 t-108.5 20.5t-94 41.5q-90 70 -115 195q-12 63 -12 111.5zM659 1632l304 266h77l191 -266h-70l-166 213l-256 -213h-80z" />
<glyph unicode="&#xdc;" horiz-adv-x="1376" d="M244 363.5q0 48.5 1 100.5t21 179l135 856h84l-135 -856q-20 -135 -20 -219t6 -136t31.5 -94t53.5 -66t77 -36q74 -18 180 -18t167.5 10t126 44t109.5 95q100 135 146 420l135 856h84l-135 -856q-61 -393 -215 -528q-80 -70 -173.5 -97.5t-195.5 -27.5t-153.5 5 t-108.5 20.5t-94 41.5q-90 70 -115 195q-12 63 -12 111.5zM634 1687.5q3 20.5 13 34t25.5 20.5t36 7t34 -16.5t10.5 -35t-9.5 -29.5t-14.5 -17q-20 -18 -45 -18.5t-39 17t-11 38zM1156 1685.5q3 18.5 9 29.5t15.5 18.5t21.5 11.5t30.5 4t32 -16.5t10.5 -37t-13 -32.5 q-20 -31 -50 -31t-44.5 17.5t-11.5 36z" />
<glyph unicode="&#xdd;" horiz-adv-x="1286" d="M307 1499h90l301 -860l615 860h100l-684 -967l-84 -532h-84l84 532zM848 1632l280 273h103l-316 -273h-67z" />
<glyph unicode="&#xde;" horiz-adv-x="1132" d="M123 0l235 1493h84l-45 -289h430q82 0 138.5 -25.5t85.5 -58.5q78 -88 77 -229q0 -57 -13 -153.5t-49 -183.5t-77 -134t-97 -72.5t-100 -32t-242 -4.5t-290 25l-53 -336h-84zM268 393h430q211 0 289 191q31 76 44 156.5t13 108.5t-3 59.5t-10 68.5t-28.5 62.5t-41 41 t-48.5 23.5q-45 14 -100 16h-430z" />
<glyph unicode="&#xdf;" horiz-adv-x="1136" d="M123 0l184 1159q31 193 156 312.5t344 119.5q250 0 340 -100q63 -72 63 -162q0 -80 -45 -164q-78 -145 -188 -213q-33 -23 -80 -49t-72.5 -42.5t-54.5 -39.5q-66 -51 -65 -127q0 -37 27.5 -64.5t80.5 -37.5t114.5 -23.5t114 -30t78 -56.5t25.5 -71.5t-2 -50.5l-15 -100 q-16 -94 -69 -160q-102 -117 -277.5 -116.5t-369.5 32.5l8 62q295 -10 356 -10q123 0 187.5 61t76.5 141l17 88v36t-28 51.5t-80 38t-114.5 24.5t-114.5 30.5t-78 55.5t-26 72q0 125 62.5 182t251.5 170q57 35 108 100q86 111 86 217q0 172 -319 172q-170 0 -277.5 -86 t-136.5 -262l-184 -1159h-84z" />
<glyph unicode="&#xe0;" horiz-adv-x="1112" d="M162 307q0 45 1 95.5t22.5 175t60.5 223t81 153t99 89t101 46t91.5 17.5t110 6t188 -29.5t199.5 -101.5l-143 -981h-55l-7 123q-68 -43 -186.5 -90t-201.5 -47t-132 10t-94 33q-84 45 -119 174q-16 59 -16 104zM246 354q0 -287 246 -286q137 0 268 49q45 18 95 39.5 t60 25.5l113 776q-164 72 -311 72q-156 0 -256 -65q-143 -96 -201 -457q-14 -84 -14 -154zM457 1507h94l209 -272h-66z" />
<glyph unicode="&#xe1;" horiz-adv-x="1112" d="M162 307q0 45 1 95.5t22.5 175t60.5 223t81 153t99 89t101 46t91.5 17.5t110 6t188 -29.5t199.5 -101.5l-143 -981h-55l-7 123q-68 -43 -186.5 -90t-201.5 -47t-132 10t-94 33q-84 45 -119 174q-16 59 -16 104zM246 354q0 -287 246 -286q137 0 268 49q45 18 95 39.5 t60 25.5l113 776q-164 72 -311 72q-156 0 -256 -65q-143 -96 -201 -457q-14 -84 -14 -154zM700 1235l281 272h102l-315 -272h-68z" />
<glyph unicode="&#xe2;" horiz-adv-x="1112" d="M162 307q0 45 1 95.5t22.5 175t60.5 223t81 153t99 89t101 46t91.5 17.5t110 6t188 -29.5t199.5 -101.5l-143 -981h-55l-7 123q-68 -43 -186.5 -90t-201.5 -47t-132 10t-94 33q-84 45 -119 174q-16 59 -16 104zM246 354q0 -287 246 -286q137 0 268 49q45 18 95 39.5 t60 25.5l113 776q-164 72 -311 72q-156 0 -256 -65q-143 -96 -201 -457q-14 -84 -14 -154zM442 1235l303 266h78l189 -266h-68l-166 213l-256 -213h-80z" />
<glyph unicode="&#xe3;" horiz-adv-x="1112" d="M162 307q0 45 1 95.5t22.5 175t60.5 223t81 153t99 89t101 46t91.5 17.5t110 6t188 -29.5t199.5 -101.5l-143 -981h-55l-7 123q-68 -43 -186.5 -90t-201.5 -47t-132 10t-94 33q-84 45 -119 174q-16 59 -16 104zM246 354q0 -287 246 -286q137 0 268 49q45 18 95 39.5 t60 25.5l113 776q-164 72 -311 72q-156 0 -256 -65q-143 -96 -201 -457q-14 -84 -14 -154zM397 1305q102 78 154.5 100t90.5 22t81 -30.5t81.5 -60t65.5 -29.5q80 0 213 94l17 -39q-6 -4 -29.5 -22.5t-32 -24.5t-29 -20.5t-30.5 -19.5t-28.5 -15.5t-30.5 -14.5 q-76 -20 -119 4.5t-68 46.5q-61 61 -94 61.5t-54.5 -3.5t-46 -16.5t-39 -19.5t-44 -25.5t-41.5 -26.5z" />
<glyph unicode="&#xe4;" horiz-adv-x="1112" d="M162 307q0 45 1 95.5t22.5 175t60.5 223t81 153t99 89t101 46t91.5 17.5t110 6t188 -29.5t199.5 -101.5l-143 -981h-55l-7 123q-68 -43 -186.5 -90t-201.5 -47t-132 10t-94 33q-84 45 -119 174q-16 59 -16 104zM246 354q0 -287 246 -286q137 0 268 49q45 18 95 39.5 t60 25.5l113 776q-164 72 -311 72q-156 0 -256 -65q-143 -96 -201 -457q-14 -84 -14 -154zM416 1294.5q4 24.5 24.5 41t41 16.5t32.5 -6q39 -25 12 -74q-20 -37 -52 -37t-47 17.5t-11 42zM938 1294.5q4 24.5 24.5 41t41 16.5t33 -7.5t17.5 -20.5t3 -29.5t-13 -28.5 q-20 -31 -49.5 -31t-45 17.5t-11.5 42z" />
<glyph unicode="&#xe5;" horiz-adv-x="1112" d="M162 307q0 45 1 95.5t22.5 175t60.5 223t81 153t99 89t101 46t91.5 17.5t110 6t188 -29.5t199.5 -101.5l-143 -981h-55l-7 123q-68 -43 -186.5 -90t-201.5 -47t-132 10t-94 33q-84 45 -119 174q-16 59 -16 104zM246 354q0 -287 246 -286q137 0 268 49q45 18 95 39.5 t60 25.5l113 776q-164 72 -311 72q-156 0 -256 -65q-143 -96 -201 -457q-14 -84 -14 -154zM557 1413q0 106 77 174t163 68t133 -56.5t47 -123.5q0 -106 -75 -173t-162 -67t-135 55.5t-48 122.5zM610 1419q0 -49 37 -90t100.5 -41t114.5 45t61.5 110.5t-28.5 112t-103.5 46.5 t-117.5 -48q-64 -55 -64 -135z" />
<glyph unicode="&#xe6;" horiz-adv-x="1929" d="M80 344q0 199 65 399q86 264 261 330q98 39 193 39t223 -31.5t216 -93.5q117 121 344.5 121t319.5 -65.5t92 -190.5q0 -143 -71.5 -227t-159.5 -115q-152 -55 -314 -55q-94 0 -185 14t-114 23q-14 -98 -14 -183.5t25 -140.5q41 -98 184 -100h45q172 0 448 38l-10 -61 q-217 -59 -489 -59q-203 0 -260 157q-260 -158 -459 -157q-203 0 -279 112q-61 94 -61 246zM164 332q0 -264 248 -264q195 0 450 137q-8 49 -8 133t35 280.5t104 315.5q-223 94 -377 94q-139 0 -237 -63q-68 -45 -119 -155t-73.5 -250t-22.5 -228zM958 549 q109 -18 187 -18.5t119 0.5t125 15.5t147 41t111 80.5q61 70 61 168t-67.5 143t-231.5 45q-182 0 -264 -61q-31 -23 -52.5 -41.5t-41 -55.5t-29.5 -60.5t-23 -72.5q-16 -61 -27.5 -118.5t-13.5 -65.5z" />
<glyph unicode="&#xe7;" horiz-adv-x="1013" d="M168 322v70t21.5 178t57.5 227.5t73.5 160t92 91t103.5 42t119 9.5q166 0 418 -56l-11 -57q-240 29 -358.5 29t-156.5 -9.5t-79.5 -38t-70.5 -79.5q-68 -115 -107 -352q-18 -111 -18 -194t14.5 -134t46.5 -84q53 -53 148 -53q178 0 387 28l70 9l-9 -62q-129 -33 -221 -45 t-190.5 -12t-147.5 15t-92 52q-78 68 -90 265zM256 -352l6 37l84 16q51 10 82 29q66 41 88 196h70q-27 -158 -78 -218t-174 -60h-78z" />
<glyph unicode="&#xe8;" horiz-adv-x="1089" d="M153.5 313.5q0.5 112.5 20 223t31.5 164t33.5 115t46 101t63.5 79.5t88 61q109 51 292 51t275.5 -65.5t92.5 -190.5q0 -143 -72 -227t-160 -115q-154 -55 -315 -55q-94 0 -184.5 14t-112.5 23q-14 -100 -14 -184.5t22 -139.5q41 -98 182 -100h47q172 0 449 38l-10 -61 q-217 -59 -490 -59q-193 0 -252 141q-33 74 -32.5 186.5zM260 549q106 -18 184 -18.5t120 0.5t126 15.5t146.5 41t111.5 80.5q61 70 61.5 168t-66 143t-230.5 45q-182 0 -264 -59q-33 -25 -54.5 -42.5t-40 -53t-30 -59.5t-23.5 -71q-14 -59 -26.5 -118.5t-14.5 -71.5z M453 1503h96l209 -272h-68z" />
<glyph unicode="&#xe9;" horiz-adv-x="1089" d="M153.5 313.5q0.5 112.5 20 223t31.5 164t33.5 115t46 101t63.5 79.5t88 61q109 51 292 51t275.5 -65.5t92.5 -190.5q0 -143 -72 -227t-160 -115q-154 -55 -315 -55q-94 0 -184.5 14t-112.5 23q-14 -100 -14 -184.5t22 -139.5q41 -98 182 -100h47q172 0 449 38l-10 -61 q-217 -59 -490 -59q-193 0 -252 141q-33 74 -32.5 186.5zM260 549q106 -18 184 -18.5t120 0.5t126 15.5t146.5 41t111.5 80.5q61 70 61.5 168t-66 143t-230.5 45q-182 0 -264 -59q-33 -25 -54.5 -42.5t-40 -53t-30 -59.5t-23.5 -71q-14 -59 -26.5 -118.5t-14.5 -71.5z M690 1231l281 272h102l-315 -272h-68z" />
<glyph unicode="&#xea;" horiz-adv-x="1089" d="M153.5 313.5q0.5 112.5 20 223t31.5 164t33.5 115t46 101t63.5 79.5t88 61q109 51 292 51t275.5 -65.5t92.5 -190.5q0 -143 -72 -227t-160 -115q-154 -55 -315 -55q-94 0 -184.5 14t-112.5 23q-14 -100 -14 -184.5t22 -139.5q41 -98 182 -100h47q172 0 449 38l-10 -61 q-217 -59 -490 -59q-193 0 -252 141q-33 74 -32.5 186.5zM260 549q106 -18 184 -18.5t120 0.5t126 15.5t146.5 41t111.5 80.5q61 70 61.5 168t-66 143t-230.5 45q-182 0 -264 -59q-33 -25 -54.5 -42.5t-40 -53t-30 -59.5t-23.5 -71q-14 -59 -26.5 -118.5t-14.5 -71.5z M438 1231l303 266h78l191 -266h-68l-168 213l-256 -213h-80z" />
<glyph unicode="&#xeb;" horiz-adv-x="1089" d="M153.5 313.5q0.5 112.5 20 223t31.5 164t33.5 115t46 101t63.5 79.5t88 61q109 51 292 51t275.5 -65.5t92.5 -190.5q0 -143 -72 -227t-160 -115q-154 -55 -315 -55q-94 0 -184.5 14t-112.5 23q-14 -100 -14 -184.5t22 -139.5q41 -98 182 -100h47q172 0 449 38l-10 -61 q-217 -59 -490 -59q-193 0 -252 141q-33 74 -32.5 186.5zM260 549q106 -18 184 -18.5t120 0.5t126 15.5t146.5 41t111.5 80.5q61 70 61.5 168t-66 143t-230.5 45q-182 0 -264 -59q-33 -25 -54.5 -42.5t-40 -53t-30 -59.5t-23.5 -71q-14 -59 -26.5 -118.5t-14.5 -71.5z M414 1290.5q4 24.5 24.5 41t45 16.5t38 -16.5t10 -35t-9.5 -30t-14 -17.5q-20 -18 -45 -18t-39 17.5t-10 42zM936 1290.5q4 24.5 24.5 41t45 16.5t38 -16.5t10.5 -34t-7.5 -25.5t-10.5 -16.5t-14 -12.5q-16 -12 -38.5 -12t-37 17.5t-10.5 42z" />
<glyph unicode="&#xec;" horiz-adv-x="358" d="M31 1493h96l209 -272h-68zM123 0l172 1087h84l-172 -1087h-84z" />
<glyph unicode="&#xed;" horiz-adv-x="358" d="M123 0l172 1087h84l-172 -1087h-84zM266 1221l281 272h102l-315 -272h-68z" />
<glyph unicode="&#xee;" horiz-adv-x="358" d="M12 1221l303 266h78l191 -266h-68l-166 213l-256 -213h-82zM123 0l172 1087h84l-172 -1087h-84z" />
<glyph unicode="&#xef;" horiz-adv-x="358" d="M-16 1263.5q0 12.5 3 27t23.5 30.5t45 16t37.5 -16t10 -34.5t-9 -30t-14 -17.5q-18 -18 -44 -18t-39 15t-13 27.5zM123 0l172 1087h84l-172 -1087h-84zM508 1280q4 25 24.5 41t45 16t37 -14t12.5 -25.5t-2 -20.5t-8.5 -20.5t-14.5 -17.5q-18 -18 -44 -18t-40 17t-10 42z " />
<glyph unicode="&#xf0;" horiz-adv-x="1112" d="M145.5 358.5q-0.5 67.5 18.5 186.5q45 281 146 411.5t302 130.5h166q84 0 146.5 -32.5t76.5 -67.5q-16 258 -127 389l-339 -127l-13 60l301 114q-127 106 -329 107l10 74q264 -2 411 -148l273 100l16 -59l-246 -90q133 -182 134 -516q0 -164 -31 -363 q-45 -285 -154.5 -406.5t-296.5 -121.5h-170q-137 0 -208.5 66.5t-81.5 187.5q-4 37 -4.5 104.5zM248 537q-51 -320 41 -404q33 -29 69.5 -38t64.5 -9h30h170h2q152 0 235 117q111 152 135 481q2 23 2 54.5t-6 82.5t-30 92q-53 90 -195 91h-164q-68 0 -118 -19.5t-97 -69.5 q-94 -96 -139 -378z" />
<glyph unicode="&#xf1;" horiz-adv-x="1107" d="M123 0l172 1087h55l8 -126q258 145 453 145q156 0 229 -102q57 -78 58 -181q0 -31 -6 -65l-121 -758h-84l121 758q4 29 4 55q0 80 -41 135q-57 74 -176 74t-213.5 -27.5t-231.5 -95.5l-143 -899h-84zM408 1298q127 96 171 109.5t81.5 13.5t113.5 -60.5t105 -60.5 q82 0 213 95l18 -39q-8 -4 -31.5 -22.5t-31 -23.5t-28 -20.5t-30.5 -20.5t-28.5 -15.5t-32.5 -14.5q-35 -10 -69 -10t-76 31.5t-78.5 61.5t-62.5 30t-47.5 -4.5t-46 -15.5t-38.5 -19t-45 -26.5t-43 -26.5z" />
<glyph unicode="&#xf2;" horiz-adv-x="1148" d="M168 344q0 182 57 389q70 246 232 318q104 47 274 47q256 0 338 -142q51 -88 51 -207.5t-16 -230.5q-49 -301 -164 -414.5t-376 -113.5t-345 125q-51 80 -51 229zM252 311q0 -35 14.5 -83t39 -78.5t67.5 -47.5q72 -29 186.5 -28.5t180 16.5t122.5 64q111 86 158 374 q18 115 18 189t-14 124t-37.5 85t-66.5 53q-74 35 -170.5 35t-142.5 -5t-95 -22.5t-82 -50.5q-80 -78 -129 -249t-49 -376zM481 1493h94l209 -272h-65z" />
<glyph unicode="&#xf3;" horiz-adv-x="1148" d="M168 344q0 182 57 389q70 246 232 318q104 47 274 47q256 0 338 -142q51 -88 51 -207.5t-16 -230.5q-49 -301 -164 -414.5t-376 -113.5t-345 125q-51 80 -51 229zM252 311q0 -35 14.5 -83t39 -78.5t67.5 -47.5q72 -29 186.5 -28.5t180 16.5t122.5 64q111 86 158 374 q18 115 18 189t-14 124t-37.5 85t-66.5 53q-74 35 -170.5 35t-142.5 -5t-95 -22.5t-82 -50.5q-80 -78 -129 -249t-49 -376zM719 1221l280 272h101l-316 -272h-65z" />
<glyph unicode="&#xf4;" horiz-adv-x="1148" d="M168 344q0 182 57 389q70 246 232 318q104 47 274 47q256 0 338 -142q51 -88 51 -207.5t-16 -230.5q-49 -301 -164 -414.5t-376 -113.5t-345 125q-51 80 -51 229zM252 311q0 -35 14.5 -83t39 -78.5t67.5 -47.5q72 -29 186.5 -28.5t180 16.5t122.5 64q111 86 158 374 q18 115 18 189t-14 124t-37.5 85t-66.5 53q-74 35 -170.5 35t-142.5 -5t-95 -22.5t-82 -50.5q-80 -78 -129 -249t-49 -376zM467 1221l303 266h78l188 -266h-67l-166 213l-256 -213h-80z" />
<glyph unicode="&#xf5;" horiz-adv-x="1148" d="M168 344q0 182 57 389q70 246 232 318q104 47 274 47q256 0 338 -142q51 -88 51 -207.5t-16 -230.5q-49 -301 -164 -414.5t-376 -113.5t-345 125q-51 80 -51 229zM252 311q0 -35 14.5 -83t39 -78.5t67.5 -47.5q72 -29 186.5 -28.5t180 16.5t122.5 64q111 86 158 374 q18 115 18 189t-14 124t-37.5 85t-66.5 53q-74 35 -170.5 35t-142.5 -5t-95 -22.5t-82 -50.5q-80 -78 -129 -249t-49 -376zM416 1290q102 78 154.5 100.5t94.5 22.5t118.5 -60.5t105.5 -60.5q82 0 213 94l16 -38q-6 -4 -29.5 -22.5t-30.5 -24t-28.5 -20.5t-32 -20.5 t-29 -15.5t-30.5 -14q-37 -10 -69.5 -10t-74.5 31.5t-79 61t-62.5 29.5t-48 -4t-47.5 -15t-38 -19.5t-44 -26.5t-43 -27z" />
<glyph unicode="&#xf6;" horiz-adv-x="1148" d="M168 344q0 182 57 389q70 246 232 318q104 47 274 47q256 0 338 -142q51 -88 51 -207.5t-16 -230.5q-49 -301 -164 -414.5t-376 -113.5t-345 125q-51 80 -51 229zM252 311q0 -35 14.5 -83t39 -78.5t67.5 -47.5q72 -29 186.5 -28.5t180 16.5t122.5 64q111 86 158 374 q18 115 18 189t-14 124t-37.5 85t-66.5 53q-74 35 -170.5 35t-142.5 -5t-95 -22.5t-82 -50.5q-80 -78 -129 -249t-49 -376zM440 1275.5q4 20.5 14.5 34t25 20.5t35 7t34.5 -16t11 -34.5t-9 -30t-14 -17.5q-20 -18 -45 -18t-40.5 17t-11.5 37.5zM962.5 1275.5 q4.5 20.5 14.5 34t24.5 20.5t35 7t34.5 -16t11 -34.5t-9 -30t-14 -17.5q-20 -18 -45 -18t-40.5 17t-11 37.5z" />
<glyph unicode="&#xf7;" horiz-adv-x="1110" d="M205 680l14 86h852l-14 -86h-852zM526 336l15 94q4 33 39 33h51q29 0 24 -33l-14 -94q-4 -33 -37 -33h-49q-16 0 -23.5 9.5t-5.5 23.5zM631 997l14 95q4 34 39 34h49q31 0 27 -34l-15 -95q-4 -33 -36 -32h-50q-33 0 -28 32z" />
<glyph unicode="&#xf8;" horiz-adv-x="1124" d="M104 0l101 113q-49 76 -49 194.5t22.5 261t62.5 249t107.5 170t154.5 87t218 23.5q201 0 293 -84l65 73h72l-102 -112q61 -86 61 -254q0 -90 -18 -203q-49 -303 -161 -415.5t-355.5 -112.5t-335.5 86l-68 -76h-68zM242 378q0 -138 26 -194l688 764q-66 66 -261 66 t-275 -78t-129 -249t-49 -309zM299 141q37 -39 99.5 -53t164 -14t165 15t122.5 61q111 88 158 378q18 113 18 215.5t-35 165.5z" />
<glyph unicode="&#xf9;" horiz-adv-x="1105" d="M150 264q0 33 4 68l120 758h84l-120 -758q-5 -31 -5 -60q0 -80 43 -133q55 -72 175 -71.5t213.5 28t232.5 92.5l141 902h84l-172 -1088h-55l-8 127q-258 -145 -432 -145t-250 100q-55 78 -55 180zM449 1493h96l209 -272h-68z" />
<glyph unicode="&#xfa;" horiz-adv-x="1105" d="M150 264q0 33 4 68l120 758h84l-120 -758q-5 -31 -5 -60q0 -80 43 -133q55 -72 175 -71.5t213.5 28t232.5 92.5l141 902h84l-172 -1088h-55l-8 127q-258 -145 -432 -145t-250 100q-55 78 -55 180zM686 1221l281 272h102l-315 -272h-68z" />
<glyph unicode="&#xfb;" horiz-adv-x="1105" d="M150 264q0 33 4 68l120 758h84l-120 -758q-5 -31 -5 -60q0 -80 43 -133q55 -72 175 -71.5t213.5 28t232.5 92.5l141 902h84l-172 -1088h-55l-8 127q-258 -145 -432 -145t-250 100q-55 78 -55 180zM434 1221l303 266h78l191 -266h-68l-168 213l-256 -213h-80z" />
<glyph unicode="&#xfc;" horiz-adv-x="1105" d="M150 264q0 33 4 68l120 758h84l-120 -758q-5 -31 -5 -60q0 -80 43 -133q55 -72 175 -71.5t213.5 28t232.5 92.5l141 902h84l-172 -1088h-55l-8 127q-258 -145 -432 -145t-250 100q-55 78 -55 180zM410 1280q4 25 24.5 41t45 16t37.5 -16t10 -34.5t-9 -30t-14 -17.5 q-20 -18 -45 -18t-39 17t-10 42zM932 1280q4 25 24.5 41t45 16t38 -16t10.5 -34.5t-9.5 -30t-14.5 -17.5q-20 -18 -45 -18t-39 17t-10 42z" />
<glyph unicode="&#xfd;" horiz-adv-x="1105" d="M193 1087h86l155 -849q27 -137 141 -150h35l412 842q43 90 55 168h62q8 -23 8 -67t-41 -124l-442 -905q-2 -6 -13 -25q-258 -514 -452 -528v55q137 33 352 463q14 31 16 33q-51 2 -98 29q-94 53 -121 196zM645 1210l281 273h100l-315 -273h-66z" />
<glyph unicode="&#xfe;" horiz-adv-x="1099" d="M55 -553l342 2155h84l-102 -637q57 36 206.5 88.5t244 52.5t159 -51t90.5 -133q33 -111 33 -211.5t-14.5 -183.5t-29.5 -149.5t-49 -146t-79 -131t-120 -86t-163 -34.5t-213 21.5t-208 57.5l-97 -612h-84zM246 121q145 -43 237 -49t176 -9q143 0 229.5 115t125.5 373 q14 92 14 186t-35 168q-55 117 -176 117q-63 0 -158 -23q-106 -25 -288 -92z" />
<glyph unicode="&#xff;" horiz-adv-x="1105" d="M193 1087h86l155 -849q27 -137 141 -150h35l412 842q43 90 55 168h62q8 -23 8 -67t-41 -124l-442 -905q-2 -6 -13 -25q-258 -514 -452 -528v55q137 33 352 463q14 31 16 33q-51 2 -98 29q-94 53 -121 196zM375 1314.5q4 24.5 24.5 41t41 16.5t32.5 -6q25 -16 19.5 -46 t-24.5 -47.5t-44 -17.5t-39 17.5t-10 42zM897 1314.5q4 24.5 24.5 41t41 16.5t32.5 -6q25 -16 20 -46t-24.5 -47.5t-44 -17.5t-39 17.5t-10.5 42z" />
<glyph unicode="&#x100;" d="M92 0l795 1499h98l295 -1499h-84l-96 483h-658l-256 -483h-94zM487 567h596l-159 828zM686 1632l10 64h543l-10 -64h-543z" />
<glyph unicode="&#x101;" horiz-adv-x="1112" d="M162 307q0 45 1 95.5t22.5 175t60.5 223t81 153t99 89t101 46t91.5 17.5t110 6t188 -29.5t199.5 -101.5l-143 -981h-55l-7 123q-68 -43 -186.5 -90t-201.5 -47t-132 10t-94 33q-84 45 -119 174q-16 59 -16 104zM246 354q0 -287 246 -286q137 0 268 49q45 18 95 39.5 t60 25.5l113 776q-164 72 -311 72q-156 0 -256 -65q-143 -96 -201 -457q-14 -84 -14 -154zM455 1235l10 63h545l-11 -63h-544z" />
<glyph unicode="&#x102;" d="M92 0l795 1499h98l295 -1499h-84l-96 483h-658l-256 -483h-94zM487 567h596l-159 828zM758 1829q0 18 2 37h51q-2 -17 -2 -33q0 -57 40 -103.5t112 -46.5q86 0 145 49.5t72 133.5h51q-16 -113 -92 -173.5t-170.5 -60.5t-151.5 58.5t-57 138.5z" />
<glyph unicode="&#x103;" horiz-adv-x="1112" d="M162 307q0 45 1 95.5t22.5 175t60.5 223t81 153t99 89t101 46t91.5 17.5t110 6t188 -29.5t199.5 -101.5l-143 -981h-55l-7 123q-68 -43 -186.5 -90t-201.5 -47t-132 10t-94 33q-84 45 -119 174q-16 59 -16 104zM246 354q0 -287 246 -286q137 0 268 49q45 18 95 39.5 t60 25.5l113 776q-164 72 -311 72q-156 0 -256 -65q-143 -96 -201 -457q-14 -84 -14 -154zM535 1432q0 18 2 36h51q-2 -16 -2 -32q0 -57 40 -103.5t111 -46.5h30t73 23q98 45 114 159h52q-16 -113 -92 -173t-170.5 -60t-151.5 58.5t-57 138.5z" />
<glyph unicode="&#x104;" horiz-adv-x="1773" d="M301 0l795 1499h98l295 -1499h-84l-96 483h-658l-256 -483h-94zM696 567h596l-159 828zM1227 -225q0 141 203 225h43q-109 -53 -152 -129q-25 -39 -25 -71.5t19 -57.5q39 -51 141 -51h12l-8 -62q-25 -4 -45 -4q-88 0 -138 47.5t-50 102.5z" />
<glyph unicode="&#x105;" horiz-adv-x="1075" d="M147.5 307q-0.5 45 1 95.5t23 175t60 223t79.5 153t99.5 89t102.5 46t91 17.5t109.5 6t187.5 -29.5t201 -101.5l-144 -981h-57l-6 123q-66 -43 -185.5 -90t-202.5 -47t-131 10t-93 33q-84 45 -121 174q-14 59 -14.5 104zM231 354q0 -287 244 -286q139 0 268 49 q45 18 96.5 39.5t59.5 25.5l115 776q-166 72 -312 72q-158 0 -258 -65q-143 -96 -200 -457q-13 -84 -13 -154zM707 -225q0 141 202 225h43q-109 -53 -153 -129q-23 -39 -23 -71.5t19 -57.5q39 -51 141 -51h12l-8 -62q-25 -4 -47 -4q-86 0 -136 47.5t-50 102.5z" />
<glyph unicode="&#x106;" horiz-adv-x="1163" d="M215 504q0 211 68 481q53 223 137 334q100 135 250 174q82 23 220 23t417 -54l-9 -59q-236 29 -434 29q-96 0 -156.5 -14.5t-123 -56.5t-107.5 -116q-102 -164 -155 -495q-23 -139 -23 -250q0 -422 328 -428h80.5t384.5 22l-9 -61q-213 -45 -467 -45q-111 0 -190 43 q-211 109 -211 473zM852 1638l283 273h100l-315 -273h-68z" />
<glyph unicode="&#x107;" horiz-adv-x="1007" d="M164 392q0 52 20.5 167t47 205t60.5 149.5t69.5 97.5t82.5 56q80 33 217.5 32.5t387.5 -55.5l-9 -57q-242 29 -359.5 29t-156.5 -9.5t-80 -38t-71 -79.5q-66 -115 -107 -352q-18 -117 -18 -184.5t8 -111.5t26.5 -79t47.5 -53q55 -37 139 -37q166 0 377 28l69 9l-10 -62 q-127 -33 -220 -45t-190.5 -12t-147.5 15t-93 52q-76 68 -88 265q-2 18 -2 70zM680 1223l283 272h100l-315 -272h-68z" />
<glyph unicode="&#x108;" horiz-adv-x="1163" d="M215 504q0 211 68 481q53 223 137 334q100 135 250 174q82 23 220 23t417 -54l-9 -59q-236 29 -434 29q-96 0 -156.5 -14.5t-123 -56.5t-107.5 -116q-102 -164 -155 -495q-23 -139 -23 -250q0 -422 328 -428h80.5t384.5 22l-9 -61q-213 -45 -467 -45q-111 0 -190 43 q-211 109 -211 473zM602 1638l303 267h78l191 -267h-70l-166 213l-256 -213h-80z" />
<glyph unicode="&#x109;" horiz-adv-x="1007" d="M164 322v70t19.5 167t46 205t61.5 149.5t69.5 97.5t81.5 56q80 33 217.5 32.5t389.5 -55.5l-11 -57q-240 29 -358.5 29t-156.5 -9.5t-80 -38t-70 -79.5q-68 -115 -107 -352q-20 -113 -20 -173.5t4 -97.5t17.5 -72.5t32.5 -58t46 -37.5q47 -27 127 -26q162 0 371 28l69 9 l-8 -62q-164 -43 -260 -50t-173 -7t-126 15t-92 52q-78 68 -90 265zM397 1223l303 266h78l191 -266h-70l-166 213l-256 -213h-80z" />
<glyph unicode="&#x10a;" horiz-adv-x="1163" d="M215 504q0 211 68 481q53 223 137 334q100 135 250 174q82 23 220 23t417 -54l-9 -59q-236 29 -434 29q-96 0 -156.5 -14.5t-123 -56.5t-107.5 -116q-102 -164 -155 -495q-23 -139 -23 -250q0 -422 328 -428h80.5t384.5 22l-9 -61q-213 -45 -467 -45q-111 0 -190 43 q-211 109 -211 473zM807 1671l20 121q4 33 37 33h51q31 0 27 -33l-20 -121q-4 -33 -37 -33h-49q-14 0 -22.5 9.5t-6.5 23.5z" />
<glyph unicode="&#x10b;" horiz-adv-x="1007" d="M164 322v70t19.5 167t46 205t61.5 149.5t69.5 97.5t81.5 56q80 33 217.5 32.5t389.5 -55.5l-11 -57q-240 29 -358.5 29t-156.5 -9.5t-80 -38t-70 -79.5q-68 -115 -107 -352q-20 -113 -20 -173.5t4 -97.5t17.5 -72.5t32.5 -58t46 -37.5q47 -27 127 -26q162 0 371 28l69 9 l-8 -62q-164 -43 -260 -50t-173 -7t-126 15t-92 52q-78 68 -90 265zM588 1229l20 121q4 34 39 34h49q31 0 27 -34l-21 -121q-4 -33 -36 -33h-50q-14 0 -22 9t-6 24z" />
<glyph unicode="&#x10c;" horiz-adv-x="1163" d="M215 504q0 211 68 481q53 223 137 334q100 135 250 174q82 23 220 23t417 -54l-9 -59q-236 29 -434 29q-96 0 -156.5 -14.5t-123 -56.5t-107.5 -116q-102 -164 -155 -495q-23 -139 -23 -250q0 -422 328 -428h80.5t384.5 22l-9 -61q-213 -45 -467 -45q-111 0 -190 43 q-211 109 -211 473zM649 1905h68l166 -213l256 213h80l-304 -267h-77z" />
<glyph unicode="&#x10d;" horiz-adv-x="1007" d="M164 322v70t19.5 167t46 205t61.5 149.5t69.5 97.5t81.5 56q80 33 217.5 32.5t389.5 -55.5l-11 -57q-240 29 -358.5 29t-156.5 -9.5t-80 -38t-70 -79.5q-68 -115 -107 -352q-20 -113 -20 -173.5t4 -97.5t17.5 -72.5t32.5 -58t46 -37.5q47 -27 127 -26q162 0 371 28l69 9 l-8 -62q-164 -43 -260 -50t-173 -7t-126 15t-92 52q-78 68 -90 265zM512 1489h68l165 -213l256 213h80l-303 -266h-78z" />
<glyph unicode="&#x10e;" horiz-adv-x="1353" d="M174 0l238 1499h532q223 0 324 -135q98 -133 108 -305q2 -45 2 -88q0 -266 -102 -527q-172 -444 -561 -444h-541zM272 86h451q164 0 283 104q205 182 268 555q20 131 20 236q0 434 -366 434h-445zM678 1894h70l165 -213l256 213h80l-303 -266h-78z" />
<glyph unicode="&#x10f;" horiz-adv-x="1183" d="M168 387q0 152 49 330q49 176 143 274q48 49 120.5 81t155.5 32t196.5 -22.5t201.5 -59.5l92 586h80l-254 -1608h-55l-8 121q-53 -41 -186.5 -87t-223.5 -46t-151 35q-160 90 -160 364zM252 355.5q0 -95.5 39 -167.5q63 -117 183 -116.5t215 28t208 78.5l125 783 q-215 59 -389 59q-211 0 -305 -240q-39 -98 -57.5 -213.5t-18.5 -211zM1294 1188l27 274l20 137h86l-22 -137l-57 -274h-54z" />
<glyph unicode="&#x110;" horiz-adv-x="1390" d="M164 735l8 58h133l113 706h530q225 0 326 -135q98 -133 108 -305q2 -47 2 -90q0 -264 -100 -525q-174 -444 -563 -444h-541l117 735h-133zM279 86h450q96 0 180 40t143.5 104.5t106.5 152.5q84 158 112.5 326t28.5 272q0 434 -366 434h-447l-98 -622h311l-8 -58h-311z " />
<glyph unicode="&#x111;" horiz-adv-x="1087" d="M170 389q0 152 49 329t143 273q50 51 121.5 82t154.5 31t196.5 -22.5t199.5 -59.5l45 272h-264l8 58h264l41 256h80l-41 -256h164l-10 -58h-162l-207 -1294h-53l-8 121q-53 -39 -186.5 -86t-223.5 -47t-151 35q-160 90 -160 366zM254 358q0 -94 39 -168q61 -119 190 -118 q178 0 418 106l123 783q-215 59 -391 59q-289 0 -361 -455q-18 -113 -18 -207z" />
<glyph unicode="&#x112;" horiz-adv-x="1153" d="M195 193q0 31 6 65l155 981q23 141 102 200.5t183 59.5h14l619 -24l-8 -60h-623q-174 0 -203 -182l-71 -447l712 -14l-10 -59l-715 -15l-71 -446q-4 -27 -4 -51.5t8 -52t37 -44.5q47 -27 127 -26h602l-11 -60l-606 -24h-34.5t-67.5 10q-141 35 -141 189zM602 1628l8 66 h545l-10 -66h-543z" />
<glyph unicode="&#x113;" horiz-adv-x="1089" d="M153.5 313.5q0.5 112.5 20 223t31.5 164t33.5 115t46 101t63.5 79.5t88 61q109 51 292 51t275.5 -65.5t92.5 -190.5q0 -143 -72 -227t-160 -115q-154 -55 -315 -55q-94 0 -184.5 14t-112.5 23q-14 -100 -14 -184.5t22 -139.5q41 -98 182 -100h47q172 0 449 38l-10 -61 q-217 -59 -490 -59q-193 0 -252 141q-33 74 -32.5 186.5zM260 549q106 -18 184 -18.5t120 0.5t126 15.5t146.5 41t111.5 80.5q61 70 61.5 168t-66 143t-230.5 45q-182 0 -264 -59q-33 -25 -54.5 -42.5t-40 -53t-30 -59.5t-23.5 -71q-14 -59 -26.5 -118.5t-14.5 -71.5z M453 1231l8 63h545l-11 -63h-542z" />
<glyph unicode="&#x116;" horiz-adv-x="1153" d="M195 193q0 31 6 65l155 981q23 141 102 200.5t183 59.5h14l619 -24l-8 -60h-623q-174 0 -203 -182l-71 -447l712 -14l-10 -59l-715 -15l-71 -446q-4 -27 -4 -51.5t8 -52t37 -44.5q47 -27 127 -26h602l-11 -60l-606 -24h-34.5t-67.5 10q-141 35 -141 189zM819 1665l19 121 q6 33 39 33h49q33 0 26 -33l-18 -121q-6 -33 -37 -33h-51q-14 0 -21.5 9.5t-5.5 23.5z" />
<glyph unicode="&#x117;" horiz-adv-x="1089" d="M153.5 313.5q0.5 112.5 20 223t31.5 164t33.5 115t46 101t63.5 79.5t88 61q109 51 292 51t275.5 -65.5t92.5 -190.5q0 -143 -72 -227t-160 -115q-154 -55 -315 -55q-94 0 -184.5 14t-112.5 23q-14 -100 -14 -184.5t22 -139.5q41 -98 182 -100h47q172 0 449 38l-10 -61 q-217 -59 -490 -59q-193 0 -252 141q-33 74 -32.5 186.5zM260 549q106 -18 184 -18.5t120 0.5t126 15.5t146.5 41t111.5 80.5q61 70 61.5 168t-66 143t-230.5 45q-182 0 -264 -59q-33 -25 -54.5 -42.5t-40 -53t-30 -59.5t-23.5 -71q-14 -59 -26.5 -118.5t-14.5 -71.5z M672 1264l18 120q6 33 39 33h49q33 0 27 -33l-19 -120q-4 -33 -36 -33h-50q-14 0 -22 9t-6 24z" />
<glyph unicode="&#x118;" horiz-adv-x="1148" d="M199 193q0 31 6 65l155 981q23 141 101 200.5t182 59.5h16l619 -24l-8 -60h-623q-174 0 -203 -182l-71 -447l712 -14l-10 -59l-717 -15l-69 -446q-2 -41 -3 -69.5t13 -47t27.5 -31t38.5 -16.5q39 -10 92 -10h602l-10 -60l-607 -24h-36.5t-67.5 10q-139 35 -139 189z M801 -205q0 141 203 223h43q-109 -51 -154 -127q-23 -41 -23 -72.5t19 -58.5q39 -51 141 -51h12l-8 -61q-25 -2 -47 -2q-86 0 -136 47t-50 102z" />
<glyph unicode="&#x119;" horiz-adv-x="1089" d="M155.5 313.5q0.5 112.5 20 223t31.5 164t32.5 115t46 101t63.5 79.5t87 61q111 51 293 51t274.5 -65.5t92.5 -190.5q0 -143 -71 -227t-159 -115q-154 -55 -315 -55q-94 0 -184.5 14t-114.5 23q-14 -100 -14 -184.5t24 -139.5q39 -98 182 -100h48q172 0 446 38l-8 -61 q-217 -59 -490 -59q-195 0 -254 141q-31 74 -30.5 186.5zM260 549q109 -18 186.5 -18.5t119.5 0.5t126 15.5t146.5 41t109.5 80.5q63 68 64 174q0 115 -101 153q-72 29 -164 29t-142 -8t-87 -18.5t-68.5 -34t-53 -41t-41 -53t-30 -59.5t-22.5 -71q-16 -59 -26.5 -109 t-10.5 -55q-2 -14 -6 -26zM682 -180q0 141 203 225h43q-109 -53 -154 -129q-23 -39 -22.5 -71.5t18.5 -57.5q39 -51 141 -51h13l-9 -62q-25 -4 -47 -4q-86 0 -136 47.5t-50 102.5z" />
<glyph unicode="&#x11a;" horiz-adv-x="1153" d="M195 193q0 31 6 65l155 981q23 141 102 200.5t183 59.5h14l619 -24l-8 -60h-623q-174 0 -203 -182l-71 -447l712 -14l-10 -59l-715 -15l-71 -446q-4 -27 -4 -51.5t8 -52t37 -44.5q47 -27 127 -26h602l-11 -60l-606 -24h-34.5t-67.5 10q-141 35 -141 189zM651 1898h68 l168 -212l256 212h80l-303 -266h-78z" />
<glyph unicode="&#x11b;" horiz-adv-x="1089" d="M153.5 313.5q0.5 112.5 20 223t31.5 164t33.5 115t46 101t63.5 79.5t88 61q109 51 292 51t275.5 -65.5t92.5 -190.5q0 -143 -72 -227t-160 -115q-154 -55 -315 -55q-94 0 -184.5 14t-112.5 23q-14 -100 -14 -184.5t22 -139.5q41 -98 182 -100h47q172 0 449 38l-10 -61 q-217 -59 -490 -59q-193 0 -252 141q-33 74 -32.5 186.5zM260 549q106 -18 184 -18.5t120 0.5t126 15.5t146.5 41t111.5 80.5q61 70 61.5 168t-66 143t-230.5 45q-182 0 -264 -59q-33 -25 -54.5 -42.5t-40 -53t-30 -59.5t-23.5 -71q-14 -59 -26.5 -118.5t-14.5 -71.5z M487 1497h68l168 -213l256 213h80l-303 -266h-78z" />
<glyph unicode="&#x11c;" horiz-adv-x="1288" d="M221 463q0 121 26.5 283.5t51.5 265t70 204t104 162.5q133 137 363 138h40.5t190.5 -18.5t260 -39.5l-10 -67q-313 41 -504.5 41t-305.5 -154t-171 -526q-27 -170 -27 -301.5t31 -214.5q59 -164 272 -164q72 0 189 26.5t198 53.5l80 26l86 533h-405l8 53q125 33 356 33 q66 0 140 -6l-125 -791h-60l-6 113q-61 -39 -206.5 -82t-264.5 -43h-2q-199 0 -285 112q-88 117 -92 287q-2 29 -2 76zM571 1638l303 267h78l191 -267h-70l-166 213l-256 -213h-80z" />
<glyph unicode="&#x11d;" horiz-adv-x="1103" d="M76 -508l8 53l485 -20h13q84 0 166.5 65.5t103.5 196.5l43 272q-131 -51 -248 -65t-166 -14q-115 0 -187.5 46t-98.5 124q-29 90 -29 198.5t20 214.5q41 260 158 398.5t301 138.5q168 0 294 -13.5t154.5 -16.5t45.5 -3l-203 -1280q-29 -180 -132.5 -263t-213.5 -83 q-18 0 -35 2zM254 332q0 -268 231 -269q131 0 223.5 19.5t196.5 46.5l142 881l-396 6h-6q-225 0 -332 -291q-59 -168 -59 -393zM455 1223l303 266h78l190 -266h-68l-167 213l-256 -213h-80z" />
<glyph unicode="&#x11e;" horiz-adv-x="1288" d="M221 463q0 121 26.5 283.5t51.5 265t70 204t104 162.5q133 137 363 138h40.5t190.5 -18.5t260 -39.5l-10 -67q-313 41 -504.5 41t-305.5 -154t-171 -526q-27 -170 -27 -301.5t31 -214.5q59 -164 272 -164q72 0 189 26.5t198 53.5l80 26l86 533h-405l8 53q125 33 356 33 q66 0 140 -6l-125 -791h-60l-6 113q-61 -39 -206.5 -82t-264.5 -43h-2q-199 0 -285 112q-88 117 -92 287q-2 29 -2 76zM657 1835q0 16 2 37h52q-4 -17 -4 -33q0 -57 40.5 -103t110.5 -46q86 0 145.5 49t73.5 133h51q-18 -115 -94 -174.5t-170 -59.5t-150.5 58.5t-56.5 138.5 z" />
<glyph unicode="&#x11f;" horiz-adv-x="1103" d="M76 -508l8 53l485 -20h13q84 0 166.5 65.5t103.5 196.5l43 272q-131 -51 -248 -65t-166 -14q-115 0 -187.5 46t-98.5 124q-29 90 -29 198.5t20 214.5q41 260 158 398.5t301 138.5q168 0 294 -13.5t154.5 -16.5t45.5 -3l-203 -1280q-29 -180 -132.5 -263t-213.5 -83 q-18 0 -35 2zM254 332q0 -268 231 -269q131 0 223.5 19.5t196.5 46.5l142 881l-396 6h-6q-225 0 -332 -291q-59 -168 -59 -393zM535 1419q0 18 2 37h51q-2 -17 -2 -33q0 -57 40 -103t111 -46q86 0 145.5 49t71.5 133h52q-16 -113 -92 -173t-170.5 -60t-151.5 58t-57 138z " />
<glyph unicode="&#x120;" horiz-adv-x="1288" d="M221 463q0 121 26.5 283.5t51.5 265t70 204t104 162.5q133 137 363 138h40.5t190.5 -18.5t260 -39.5l-10 -67q-313 41 -504.5 41t-305.5 -154t-171 -526q-27 -170 -27 -301.5t31 -214.5q59 -164 272 -164q72 0 189 26.5t198 53.5l80 26l86 533h-405l8 53q125 33 356 33 q66 0 140 -6l-125 -791h-60l-6 113q-61 -39 -206.5 -82t-264.5 -43h-2q-199 0 -285 112q-88 117 -92 287q-2 29 -2 76zM834 1671l18 121q6 33 39 33h49q33 0 29 -33l-21 -121q-4 -33 -37 -33h-49q-14 0 -22.5 9.5t-5.5 23.5z" />
<glyph unicode="&#x121;" horiz-adv-x="1103" d="M76 -508l8 53l485 -20h13q84 0 166.5 65.5t103.5 196.5l43 272q-131 -51 -248 -65t-166 -14q-115 0 -187.5 46t-98.5 124q-29 90 -29 198.5t20 214.5q41 260 158 398.5t301 138.5q168 0 294 -13.5t154.5 -16.5t45.5 -3l-203 -1280q-29 -180 -132.5 -263t-213.5 -83 q-18 0 -35 2zM254 332q0 -268 231 -269q131 0 223.5 19.5t196.5 46.5l142 881l-396 6h-6q-225 0 -332 -291q-59 -168 -59 -393zM702 1255l19 121q6 33 39 33h49q33 0 27 -33l-19 -121q-6 -33 -37 -32h-51q-33 0 -27 32z" />
<glyph unicode="&#x122;" horiz-adv-x="1288" d="M221 463q0 121 26.5 283.5t51.5 265t70 204t104 162.5q133 137 363 138h40.5t190.5 -18.5t260 -39.5l-10 -67q-313 41 -504.5 41t-305.5 -154t-171 -526q-27 -170 -27 -301.5t31 -214.5q59 -164 272 -164q72 0 189 26.5t198 53.5l80 26l86 533h-405l8 53q125 33 356 33 q66 0 140 -6l-125 -791h-60l-6 113q-61 -39 -206.5 -82t-264.5 -43h-2q-199 0 -285 112q-88 117 -92 287q-2 29 -2 76zM586 -446l4 28q39 0 45 37l10 74h-12q-31 0 -27 31l17 110q6 33 36 33h46q29 0 22 -33l-31 -194q-8 -59 -45 -76q-27 -12 -40 -12.5t-25 2.5z" />
<glyph unicode="&#x123;" horiz-adv-x="1077" d="M78 -508l8 53l485 -20h13q84 0 167 65.5t103 196.5l43 272q-96 -37 -216 -58t-216 -21t-169 46t-99 124q-29 90 -29 198.5t20 214.5q41 260 158 398.5t301 138.5q172 0 333 -16l161 -17l-203 -1280q-29 -180 -132.5 -263t-213.5 -83q-18 0 -35 2zM256 332 q0 -268 231 -269q104 0 186.5 13.5t233.5 52.5l142 881l-396 6h-6q-184 0 -291 -199q-59 -111 -79.5 -249t-20.5 -236zM727 1251l29 189q8 49 34.5 69.5t39 20.5h14.5l24 -2l-6 -29q-37 0 -45 -37l-10 -65h14q31 0 27 -31l-17 -115q-6 -33 -36 -32h-43q-29 0 -25 32z" />
<glyph unicode="&#x124;" d="M174 0l238 1499h84l-117 -733h838l116 733h84l-237 -1499h-84l108 684h-837l-109 -684h-84zM651 1632l303 266h78l191 -266h-70l-166 213l-256 -213h-80z" />
<glyph unicode="&#x125;" horiz-adv-x="1107" d="M141 0l254 1606h84l-102 -645q258 145 457 145q156 0 227 -102q55 -78 55 -179q0 -33 -6 -67l-121 -758h-84l121 758q4 31 4 57q0 82 -41 135q-57 72 -176 72t-213 -27.5t-233 -95.5l-142 -899h-84zM160 1729l303 266h78l190 -266h-67l-168 213l-256 -213h-80z" />
<glyph unicode="&#x126;" horiz-adv-x="1263" d="M174 0l172 1085h-131l8 60h131l58 354h84l-58 -354h811l58 354h84l-58 -354h129l-8 -60h-129l-172 -1085h-84l111 684h-813l-109 -684h-84zM379 768h813l49 317h-811z" />
<glyph unicode="&#x127;" horiz-adv-x="1101" d="M123 0l203 1278h-148l8 55h148l43 273h86l-43 -273h289l-9 -55h-288l-52 -317q259 145 445 145h2q156 0 229 -102q55 -78 56 -181q0 -31 -5 -65l-120 -758h-84l121 758q4 31 4 57q0 82 -49.5 144.5t-163.5 62.5q-111 0 -210.5 -28.5t-232.5 -94.5l-143 -899h-86z" />
<glyph unicode="&#x128;" horiz-adv-x="415" d="M184 1710q102 76 154.5 99.5t90.5 22.5t81 -30.5t81.5 -60.5t65.5 -31q80 0 213 96l17 -39q-6 -6 -29.5 -24.5t-32 -23.5t-29 -20.5t-30.5 -20.5t-28.5 -15t-30.5 -12q-37 -10 -70 -10.5t-75 30.5t-79 60.5t-62.5 29.5t-48 -4t-47 -15t-39 -19.5t-44 -27t-41.5 -26.5z M211 0l238 1499h83l-237 -1499h-84z" />
<glyph unicode="&#x129;" horiz-adv-x="358" d="M33 1298q102 76 154.5 99.5t94.5 22.5t117.5 -61.5t106.5 -60.5q80 0 213 97l16 -39q-6 -6 -29.5 -24.5t-31.5 -23.5t-28.5 -20.5t-31 -20.5t-29 -15.5t-30.5 -12.5q-37 -10 -69.5 -10t-74.5 30.5t-79 60.5t-62.5 30t-48 -4.5t-47 -15.5t-39 -19t-44.5 -26.5t-42 -27.5z M137 0l172 1087h84l-172 -1087h-84z" />
<glyph unicode="&#x12a;" horiz-adv-x="415" d="M152 0l237 1499h84l-237 -1499h-84zM172 1628l10 66h543l-8 -66h-545z" />
<glyph unicode="&#x12b;" horiz-adv-x="358" d="M80 1221l10 63h543l-8 -63h-545zM123 0l172 1087h84l-172 -1087h-84z" />
<glyph unicode="&#x12e;" horiz-adv-x="415" d="M4 -223q0 139 205 223h43q-109 -53 -154 -127q-25 -41 -24.5 -73.5t20.5 -57.5q37 -51 139 -51h15l-10 -62q-25 -2 -45 -2q-88 0 -138.5 46.5t-50.5 103.5zM184 0l238 1499h84l-238 -1499h-84z" />
<glyph unicode="&#x12f;" horiz-adv-x="329" d="M-78 -219q0 139 205 223h43q-109 -51 -154 -127q-25 -41 -24.5 -72.5t20.5 -58.5q37 -51 142 -51h12l-10 -62q-23 -2 -45 -2q-88 0 -138.5 46.5t-50.5 103.5zM123 0h84l172 1087h-84zM313 1296l15 95q4 34 39 34h51q29 0 24 -34l-14 -95q-4 -33 -37 -32h-49q-33 0 -29 32 z" />
<glyph unicode="&#x130;" horiz-adv-x="415" d="M184 0l238 1499h84l-238 -1499h-84zM432 1665l21 121q4 33 39 33h49q31 0 26 -33l-20 -121q-4 -33 -37 -33h-49q-14 0 -22.5 9.5t-6.5 23.5z" />
<glyph unicode="&#x131;" horiz-adv-x="358" d="M123 0l172 1087h84l-172 -1087h-84z" />
<glyph unicode="&#x134;" horiz-adv-x="679" d="M78 43l16 57q104 -31 147.5 -30.5t84.5 3.5t84 27.5t79.5 85t51.5 152.5l184 1161h84l-184 -1161q-33 -225 -154 -301q-76 -49 -190 -49q-127 0 -203 55zM504 1632l303 266h78l190 -266h-69l-166 213l-256 -213h-80z" />
<glyph unicode="&#x135;" horiz-adv-x="315" d="M53 -553l260 1640h88l-174 -1095q-53 -344 -118 -545h-56zM78 1221l303 270h78l190 -270h-71l-164 213l-254 -213h-82z" />
<glyph unicode="&#x136;" horiz-adv-x="1110" d="M164 0l237 1499h84l-112 -704h268l588 704h106l-620 -749l383 -750h-101l-360 709h-275l-112 -709h-86zM504 -436l4 28h2q37 0 43 37l12 74h-14q-31 0 -25 31l17 110q4 33 35 33h45q29 0 24 -33l-31 -194q-8 -47 -34.5 -67.5t-39 -20.5h-14.5z" />
<glyph unicode="&#x137;" horiz-adv-x="980" d="M123 -4l254 1601h84l-156 -981q127 6 239.5 52.5t190.5 115.5q160 141 203 299h92q-61 -223 -256 -372q-102 -80 -213 -119l371 -596h-101l-354 571q-72 -16 -115 -16t-65 2l-90 -557h-84zM387 -436l4 28h2q37 0 43 37l13 74h-15q-31 0 -24 31l16 110q6 33 37 33h43 q29 0 24 -33l-30 -194q-8 -47 -35 -67.5t-39 -20.5h-14z" />
<glyph unicode="&#x138;" horiz-adv-x="964" d="M123 0l172 1087h84l-80 -501h221l471 501h109l-502 -546l309 -541h-100l-291 502h-229l-80 -502h-84z" />
<glyph unicode="&#x139;" horiz-adv-x="1110" d="M154 195q0 29 6 63l198 1241h82l-196 -1241q-10 -43 0 -83t25.5 -53t28.5 -20.5t36 -11.5q33 -6 78 -6h585l-12 -84h-582q-250 0 -249 195zM393 1628l281 273h100l-315 -273h-66z" />
<glyph unicode="&#x13a;" horiz-adv-x="624" d="M152 250q0 61 12 137l192 1217h84l-192 -1217q-10 -68 -10 -114t2 -71.5t15 -48t21.5 -33.5t28.5 -20q25 -10 112 -26.5t97 -16.5l-8 -57h-135q-219 0 -219 250zM385 1726l281 273h100l-315 -273h-66z" />
<glyph unicode="&#x13b;" horiz-adv-x="1110" d="M197 195q0 29 6 63l198 1241h82l-196 -1241q-4 -27 -4 -51.5t8 -52t37 -43.5q47 -27 127 -27h585l-12 -84h-582q-250 0 -249 195zM516 -436l4 28h2q37 0 43 37l10 74h-12q-31 0 -26 31l18 110q4 33 35 33h45q29 0 22 -33l-30 -194q-8 -59 -45 -76q-27 -12 -39.5 -12 t-26.5 2z" />
<glyph unicode="&#x13c;" horiz-adv-x="624" d="M188 250q0 61 13 137l192 1217h84l-192 -1217q-12 -68 -12.5 -114t3 -71.5t15.5 -48t21.5 -33.5t29.5 -20q23 -10 111 -26.5t98 -16.5l-8 -57h-135q-219 0 -220 250zM223 -436l6 28q37 0 43 37l13 74h-15q-31 0 -24 31l16 110q6 33 37 33h43q29 0 25 -33l-31 -194 q-8 -47 -35 -67.5t-39 -20.5h-14z" />
<glyph unicode="&#x13d;" horiz-adv-x="1110" d="M197 189.5q0 33.5 6 68.5l198 1241h82l-196 -1241q-4 -27 -4 -51.5t8 -52t37 -43.5q47 -27 127 -27h585l-12 -84h-588q-201 0 -235 127q-8 29 -8 62.5zM612 1169l29 275l21 137h86l-23 -137l-59 -275h-54z" />
<glyph unicode="&#x13e;" horiz-adv-x="628" d="M170 252q0 59 12 135l193 1217h84l-193 -1217q-10 -68 -10 -114t2 -71.5t15.5 -48t21.5 -33.5t29 -20q25 -10 112.5 -26.5t98.5 -16.5l-11 -57h-135q-219 0 -219 252zM598 1190l29 274l20 138h86l-22 -138l-60 -274h-53z" />
<glyph unicode="&#x141;" horiz-adv-x="1110" d="M104 709l11 71l182 74l102 645h84l-96 -610l277 112l-13 -67l-276 -113l-88 -563q-4 -27 -4 -51.5t7 -52t38 -43.5q47 -27 127 -27h585l-12 -84h-584q-248 0 -247 193q0 31 6 65l84 526z" />
<glyph unicode="&#x142;" horiz-adv-x="675" d="M139 797l13 69l159 72l105 666h86l-99 -623l302 135l-15 -69l-297 -138l-86 -522q-12 -76 -12 -128t7 -83t28 -51q31 -31 133 -49.5t112 -18.5l-8 -57h-143q-213 0 -213 246q0 61 12 141l76 483z" />
<glyph unicode="&#x143;" d="M164 0l237 1499h84l641 -1345l213 1345h84l-237 -1499h-80l-643 1346l-215 -1346h-84zM901 1632l281 273h100l-315 -273h-66z" />
<glyph unicode="&#x144;" horiz-adv-x="1107" d="M123 0l172 1087h55l8 -126q258 145 453 145q156 0 229 -102q57 -78 58 -181q0 -31 -6 -65l-121 -758h-84l121 758q4 29 4 55q0 80 -41 135q-57 74 -176 74t-213.5 -27.5t-231.5 -95.5l-143 -899h-84zM709 1229l280 272h103l-316 -272h-67z" />
<glyph unicode="&#x145;" d="M164 0l237 1499h84l641 -1345l213 1345h84l-237 -1499h-80l-643 1346l-215 -1346h-84zM594 -436l4 28q37 0 45 37l10 74h-14q-31 0 -25 31l17 110q6 33 37 33h43q29 0 24 -33l-30 -194q-10 -59 -48 -76q-25 -12 -38 -12t-25 2z" />
<glyph unicode="&#x146;" horiz-adv-x="1107" d="M123 0l172 1087h55l8 -126q258 145 453 145q156 0 229 -102q57 -78 58 -181q0 -31 -6 -65l-121 -758h-84l121 758q4 29 4 55q0 80 -41 135q-57 74 -176 74t-213.5 -27.5t-231.5 -95.5l-143 -899h-84zM444 -436l5 28h2q37 0 43 37l12 74h-14q-31 0 -27 31l18 110 q4 33 35 33h45q29 0 23 -33l-29 -194q-8 -47 -34.5 -67.5t-39 -20.5h-14.5z" />
<glyph unicode="&#x147;" d="M164 0l237 1499h84l641 -1345l213 1345h84l-237 -1499h-80l-643 1346l-215 -1346h-84zM690 1898h70l166 -212l256 212h80l-304 -266h-77z" />
<glyph unicode="&#x148;" horiz-adv-x="1107" d="M123 0l172 1087h55l8 -126q258 145 453 145q156 0 229 -102q57 -78 58 -181q0 -31 -6 -65l-121 -758h-84l121 758q4 29 4 55q0 80 -41 135q-57 74 -176 74t-213.5 -27.5t-231.5 -95.5l-143 -899h-84zM502 1495h69l166 -213l256 213h80l-303 -266h-78z" />
<glyph unicode="&#x14a;" horiz-adv-x="1298" d="M164 0l237 1499h84l617 -1337l211 1337h84l-264 -1671q-35 -219 -131.5 -286.5t-296.5 -67.5l10 63q16 2 47 6t46 7.5t42 8.5t40 11t34.5 18.5t34 26.5t29 34.5t26.5 47.5q25 66 37 139l24 168l-614 1333l-211 -1337h-86z" />
<glyph unicode="&#x14b;" horiz-adv-x="1134" d="M123 0l172 1087h53l10 -126q219 115 300.5 130t140.5 15q156 0 235 -102q63 -82 64 -185q0 -31 -6 -61l-150 -942q-25 -131 -92 -201q-72 -72 -127 -92q-82 -29 -154 -41l-28 47q225 55 293 203q16 37 24 82l150 944q4 23 4 45q0 80 -56.5 149.5t-153.5 69.5t-177 -19.5 t-132.5 -41t-142.5 -66.5l-143 -895h-84z" />
<glyph unicode="&#x14c;" horiz-adv-x="1388" d="M211 406q0 270 74 577q45 180 123 315q57 94 167 156q101 55 345 55q80 0 139 -7t118.5 -26.5t96.5 -54.5q88 -84 106 -233q6 -55 6 -109q0 -301 -79 -598q-59 -221 -144 -319q-90 -106 -205 -139q-109 -31 -233.5 -31t-184 6t-119 24.5t-95.5 53.5q-90 80 -109 225 q-6 53 -6 105zM293 410q0 -227 131 -291q90 -43 270 -43q170 0 254 34.5t127 82t82 120.5q72 137 117 426q29 184 29 281.5t-4.5 154t-31 106.5t-55 77.5t-82.5 44.5q-82 23 -178 22.5t-128.5 -1.5t-78 -6t-74 -15t-65.5 -27.5t-61.5 -44t-54 -63.5t-50.5 -88 q-55 -129 -84 -260q-63 -295 -63 -510zM670 1628l10 66h543l-11 -66h-542z" />
<glyph unicode="&#x14d;" horiz-adv-x="1148" d="M168 344q0 182 57 389q70 246 232 318q104 47 274 47q256 0 338 -142q51 -88 51 -207.5t-16 -230.5q-49 -301 -164 -414.5t-376 -113.5t-345 125q-51 80 -51 229zM252 311q0 -35 14.5 -83t39 -78.5t67.5 -47.5q72 -29 186.5 -28.5t180 16.5t122.5 64q111 86 158 374 q18 115 18 189t-14 124t-37.5 85t-66.5 53q-74 35 -170.5 35t-142.5 -5t-95 -22.5t-82 -50.5q-80 -78 -129 -249t-49 -376zM479 1221l10 63h545l-10 -63h-545z" />
<glyph unicode="&#x150;" horiz-adv-x="1388" d="M211 406q0 270 74 577q45 180 123 315q57 94 167 156q101 55 345 55q80 0 139 -7t118.5 -26.5t96.5 -54.5q88 -84 106 -233q6 -55 6 -109q0 -301 -79 -598q-59 -221 -144 -319q-90 -106 -205 -139q-109 -31 -233.5 -31t-184 6t-119 24.5t-95.5 53.5q-90 80 -109 225 q-6 53 -6 105zM293 410q0 -227 131 -291q90 -43 270 -43q170 0 254 34.5t127 82t82 120.5q72 137 117 426q29 184 29 281.5t-4.5 154t-31 106.5t-55 77.5t-82.5 44.5q-82 23 -178 22.5t-128.5 -1.5t-78 -6t-74 -15t-65.5 -27.5t-61.5 -44t-54 -63.5t-50.5 -88 q-55 -129 -84 -260q-63 -295 -63 -510zM762 1632l280 273h103l-316 -273h-67zM1042 1632l283 273h100l-315 -273h-68z" />
<glyph unicode="&#x151;" horiz-adv-x="1148" d="M168 344q0 182 57 389q70 246 232 318q104 47 274 47q256 0 338 -142q51 -88 51 -207.5t-16 -230.5q-49 -301 -164 -414.5t-376 -113.5t-345 125q-51 80 -51 229zM252 311q0 -35 14.5 -83t39 -78.5t67.5 -47.5q72 -29 186.5 -28.5t180 16.5t122.5 64q111 86 158 374 q18 115 18 189t-14 124t-37.5 85t-66.5 53q-74 35 -170.5 35t-142.5 -5t-95 -22.5t-82 -50.5q-80 -78 -129 -249t-49 -376zM578 1221l280 272h103l-316 -272h-67zM860 1221l281 272h100l-315 -272h-66z" />
<glyph unicode="&#x152;" horiz-adv-x="2134" d="M201 406q0 270 75 577q43 180 123 315q55 94 166 156q103 55 336 55q68 0 116 -4t96 -13t84 -27.5t67 -47.5q61 -55 88 -166q41 248 274 248h21l575 -24l-8 -60h-582q-174 0 -202 -182l-72 -447l672 -14l-9 -59l-678 -15l-69 -446q-4 -27 -4 -51.5t7 -52t36 -44.5 q47 -27 129 -26h561l-10 -60l-566 -24h-18q-98 0 -158.5 47t-60.5 145q0 18 2 41q-80 -143 -200 -189t-316 -46q-268 0 -361 84q-88 80 -106 225q-8 53 -8 105zM283 410q0 -227 133 -291q88 -43 231.5 -43t216 14t141 54t113.5 114q96 156 148 481q29 190 28 336 q0 121 -41 217q-25 59 -102 99q-51 27 -123 30.5t-126 3.5t-88 -1t-78 -6t-72.5 -15t-65.5 -27.5t-62.5 -44t-54 -63.5t-51.5 -88q-53 -129 -82 -260q-66 -295 -65 -510z" />
<glyph unicode="&#x153;" horiz-adv-x="1951" d="M162 346q0 86 21.5 224.5t62.5 245t108.5 170t154.5 88t236 24.5q303 0 355 -246q53 125 157 190q106 66 304 66q379 0 378 -256q0 -143 -71.5 -227t-159.5 -115q-154 -55 -315 -55q-94 0 -184.5 14t-112.5 23q-16 -100 -16.5 -183.5t22.5 -138.5q45 -102 203 -102 q207 0 477 38l-10 -61q-217 -59 -490 -59q-123 0 -189.5 56t-82.5 175q-59 -123 -165 -175t-286 -52q-262 0 -344 125q-53 82 -53 231zM246 311q0 -35 14 -83t39 -78.5t68 -47.5q74 -29 187.5 -28.5t179 16.5t124.5 64q109 86 156 374q18 115 18 189t-13 124t-38 85t-66 53 q-74 35 -171 35t-143 -5t-94 -22.5t-83 -50.5q-80 -78 -129 -249t-49 -376zM1104 549q94 -18 198.5 -18.5t177 8t156.5 32t144 82.5q74 72 73.5 176.5t-67 149.5t-230.5 45q-174 0 -262 -59q-92 -61 -131 -164q-34 -98 -59 -252z" />
<glyph unicode="&#x154;" horiz-adv-x="1251" d="M154 0l237 1499h590q297 0 297 -313q0 -143 -35 -247.5t-67.5 -149t-64.5 -74t-73 -43.5q-68 -23 -137 -25l221 -647h-92l-217 641q-61 2 -264 11.5t-205 11.5l-106 -664h-84zM354 729h502q205 0 281 168q33 74 47 178q8 94 8 140.5t-16.5 82t-33 59t-48.5 36.5 q-51 20 -125 20h-506zM811 1632l281 273h102l-315 -273h-68z" />
<glyph unicode="&#x155;" horiz-adv-x="827" d="M178 0l172 1087h51l11 -137q188 98 242.5 113.5t108.5 26t135 10.5t120 -17l-14 -82q-59 14 -119 14.5t-86.5 -1.5t-53 -7.5t-48 -9.5t-49 -13t-45 -15t-49.5 -19.5t-47 -20.5t-52 -23.5t-54 -24.5l-139 -881h-84zM672 1223l282 272h101l-316 -272h-67z" />
<glyph unicode="&#x156;" horiz-adv-x="1251" d="M154 0l237 1499h590q297 0 297 -313q0 -143 -35 -247.5t-67.5 -149t-64.5 -74t-73 -43.5q-68 -23 -137 -25l221 -647h-92l-217 641q-61 2 -264 11.5t-205 11.5l-106 -664h-84zM354 729h502q205 0 281 168q33 74 47 178q8 94 8 140.5t-16.5 82t-33 59t-48.5 36.5 q-51 20 -125 20h-506zM537 -436l4 28h2q37 0 43 37l12 74h-14q-31 0 -25 31l16 110q6 33 35 33h45q29 0 25 -33l-31 -194q-10 -59 -47 -76q-25 -12 -38 -12t-27 2z" />
<glyph unicode="&#x157;" horiz-adv-x="827" d="M150 -436l4 28h2q37 0 43 37l10 74h-12q-31 0 -27 31l18 110q4 33 35 33h45q29 0 23 -33l-31 -194q-6 -47 -32.5 -67.5t-39 -20.5h-14.5zM221 0l172 1087h53l9 -137q100 51 146 74t137 49.5t187.5 26.5t135.5 -17l-12 -82q-61 14 -122 14.5t-92.5 -2.5t-56 -7.5 t-57.5 -13.5t-50.5 -14t-54 -20.5t-52 -22.5t-59.5 -26.5t-61 -27.5l-139 -881h-84z" />
<glyph unicode="&#x158;" horiz-adv-x="1251" d="M154 0l237 1499h590q297 0 297 -313q0 -143 -35 -247.5t-67.5 -149t-64.5 -74t-73 -43.5q-68 -23 -137 -25l221 -647h-92l-217 641q-61 2 -264 11.5t-205 11.5l-106 -664h-84zM354 729h502q205 0 281 168q33 74 47 178q8 94 8 140.5t-16.5 82t-33 59t-48.5 36.5 q-51 20 -125 20h-506zM604 1898h68l168 -212l256 212h80l-304 -266h-77z" />
<glyph unicode="&#x159;" horiz-adv-x="827" d="M123 0l172 1087h53l8 -137q100 51 146.5 74t137.5 49.5t187.5 26.5t135.5 -17l-15 -82q-59 14 -122.5 14.5t-95.5 -2.5t-69.5 -12.5t-57 -13.5t-64.5 -22.5t-56.5 -22.5t-70 -30.5t-66.5 -30.5l-139 -881h-84zM408 1489h67l168 -213l256 213h80l-303 -266h-78z" />
<glyph unicode="&#x15a;" horiz-adv-x="1161" d="M154 20l8 62q139 -14 348 -14t260 9t104 34q113 53 138 208l20 140q6 35 6 86t-32 92q-45 55 -181 55h-247q-158 0 -228 51q-72 49 -82 121q-6 35 -6 69t8 85l23 135q35 219 162 295q109 63 278 63q113 0 271.5 -17t209.5 -26l-8 -57l-471 16h-30q-135 0 -219.5 -58 t-108.5 -222l-23 -135q-4 -41 -7 -72t6 -55.5t17.5 -42t28 -28.5t36 -18.5t44.5 -11.5q45 -6 109 -6h252q283 0 282 -243q0 -39 -6 -82l-20 -140q-47 -293 -340 -323q-51 -6 -129 -6t-244 12t-229 24zM803 1634l280 273h101l-316 -273h-65z" />
<glyph unicode="&#x15b;" horiz-adv-x="1034" d="M143 12l9 58h522q100 0 141 34q51 43 66 132l18 102q2 18 2 51t-32.5 72t-123.5 39h-280q-156 0 -207 43t-51 129q0 35 6 76l16 98q20 131 95 193.5t229 62.5q82 0 248 -8.5t243 -16.5l-10 -57h-493q-147 0 -197 -84q-23 -39 -31 -98l-16 -99q-10 -61 -3 -83.5t13 -34 t20.5 -19.5t23.5 -12t32 -4q31 -4 57.5 -4h30.5h279q123 0 180 -60.5t57 -142.5q0 -23 -4 -49l-18 -109q-27 -176 -156 -217q-61 -18 -143 -18t-272.5 10t-250.5 16zM651 1225l281 272h102l-315 -272h-68z" />
<glyph unicode="&#x15c;" horiz-adv-x="1161" d="M162 20l8 62q139 -14 348 -14t260 9t105 34q113 53 137 208l20 140q6 35 6.5 86t-32.5 92q-45 55 -180 55h-248q-158 0 -228 51q-72 49 -82 121q-6 35 -6 69t9 85l22 135q35 219 162 295q109 63 280 63q111 0 269.5 -17t210.5 -26l-9 -57l-471 16h-30q-135 0 -219 -58 t-109 -222l-23 -135q-2 -41 -6 -72t5.5 -55.5t17.5 -42t27.5 -28.5t37 -18.5t43.5 -11.5q45 -6 109 -6h252q285 0 285 -243q0 -39 -9 -82l-20 -140q-47 -293 -340 -323q-51 -6 -113.5 -6t-161.5 6q-236 14 -327 30zM512 1634l303 267h78l190 -267h-67l-168 213l-256 -213 h-80z" />
<glyph unicode="&#x15d;" horiz-adv-x="1034" d="M131 12l8 58h523q100 0 141 34q51 43 65 132l19 102q2 18 2 51t-33 72t-123 39h-280q-156 0 -207 43t-51 129q0 35 6 76l16 98q20 131 95 193.5t229 62.5q80 0 246.5 -8.5t244.5 -16.5l-10 -57h-494q-113 0 -164 -46t-63 -136l-16 -99q-10 -61 -3 -83.5t12 -34 t19.5 -19.5t24.5 -12t33 -4q31 -4 57.5 -4h30.5h278q123 0 180.5 -60.5t57.5 -142.5q0 -23 -4 -49l-19 -109q-27 -176 -155 -217q-61 -18 -143.5 -18t-273 10t-249.5 16zM393 1225l303 266h78l191 -266h-68l-168 213l-256 -213h-80z" />
<glyph unicode="&#x15e;" horiz-adv-x="1161" d="M162 20l8 62q139 -14 348 -14t260 9t105 34q113 53 137 208l20 140q6 35 6.5 86t-32.5 92q-45 55 -180 55h-248q-158 0 -228 51q-72 49 -82 121q-6 35 -6 69t9 85l22 135q35 219 162 295q109 63 280 63q111 0 269.5 -17t210.5 -26l-9 -57l-471 16h-30q-135 0 -219 -58 t-109 -222l-23 -135q-2 -41 -6 -72t5.5 -55.5t17.5 -42t27.5 -28.5t37 -18.5t43.5 -11.5q45 -6 109 -6h252q285 0 285 -243q0 -39 -9 -82l-20 -140q-47 -293 -340 -323q-51 -6 -113.5 -6t-161.5 6q-236 14 -327 30zM344 -371l4 35l86 19q78 14 115 59t53 166h70 q-25 -158 -76 -218.5t-174 -60.5h-78z" />
<glyph unicode="&#x15f;" horiz-adv-x="1034" d="M131 12l8 58h523q100 0 141 34q51 43 65 132l19 102q2 18 2 51t-33 72t-123 39h-280q-156 0 -207 43t-51 129q0 35 6 76l16 98q20 131 95 193.5t229 62.5q80 0 246.5 -8.5t244.5 -16.5l-10 -57h-494q-113 0 -164 -46t-63 -136l-16 -99q-10 -61 -3 -83.5t12 -34 t19.5 -19.5t24.5 -12t33 -4q31 -4 57.5 -4h30.5h278q123 0 180.5 -60.5t57.5 -142.5q0 -23 -4 -49l-19 -109q-27 -176 -155 -217q-61 -18 -143.5 -18t-273 10t-249.5 16zM258 -360l6 34l84 19q78 14 116 59t54 166h70q-25 -158 -77 -218t-175 -60h-78z" />
<glyph unicode="&#x160;" horiz-adv-x="1161" d="M162 20l8 62q139 -14 348 -14t260 9t105 34q113 53 137 208l20 140q6 35 6.5 86t-32.5 92q-45 55 -180 55h-248q-158 0 -228 51q-72 49 -82 121q-6 35 -6 69t9 85l22 135q35 219 162 295q109 63 280 63q111 0 269.5 -17t210.5 -26l-9 -57l-471 16h-30q-135 0 -219 -58 t-109 -222l-23 -135q-2 -41 -6 -72t5.5 -55.5t17.5 -42t27.5 -28.5t37 -18.5t43.5 -11.5q45 -6 109 -6h252q285 0 285 -243q0 -39 -9 -82l-20 -140q-47 -293 -340 -323q-51 -6 -113.5 -6t-161.5 6q-236 14 -327 30zM610 1901h68l168 -213l256 213h80l-303 -267h-78z" />
<glyph unicode="&#x161;" horiz-adv-x="1034" d="M131 12l8 58h523q100 0 141 34q51 43 65 132l19 102q2 18 2 51t-33 72t-123 39h-280q-156 0 -207 43t-51 129q0 35 6 76l16 98q20 131 95 193.5t229 62.5q80 0 246.5 -8.5t244.5 -16.5l-10 -57h-494q-113 0 -164 -46t-63 -136l-16 -99q-10 -61 -3 -83.5t12 -34 t19.5 -19.5t24.5 -12t33 -4q31 -4 57.5 -4h30.5h278q123 0 180.5 -60.5t57.5 -142.5q0 -23 -4 -49l-19 -109q-27 -176 -155 -217q-61 -18 -143.5 -18t-273 10t-249.5 16zM440 1491h68l168 -213l256 213h80l-303 -266h-78z" />
<glyph unicode="&#x162;" horiz-adv-x="1255" d="M270 -379l6 35l84 18q78 14 116 59.5t54 166.5h70q-25 -158 -77 -218.5t-175 -60.5h-78zM270 1415l13 84h1081l-14 -84h-504l-223 -1415h-84l223 1415h-492z" />
<glyph unicode="&#x163;" horiz-adv-x="727" d="M109 -362l6 34l84 17q78 16 114.5 60t55.5 167h69q-25 -160 -77 -219t-175 -59h-77zM188 1006l11 61l186 23l70 303h61l-47 -303h344l-14 -84h-344l-99 -621q-10 -66 -10 -112t3 -72.5t15.5 -49t21.5 -34t30 -19.5q23 -10 110.5 -26.5t98.5 -16.5l-9 -57h-133 q-223 0 -223 252q0 61 12 135l99 621h-183z" />
<glyph unicode="&#x164;" horiz-adv-x="1255" d="M285 1415l14 84h1081l-14 -84h-506l-223 -1415h-84l223 1415h-491zM616 1898h70l166 -212l256 212h80l-303 -266h-78z" />
<glyph unicode="&#x165;" horiz-adv-x="749" d="M168 1006l12 61l185 23l71 303h60l-47 -303h346l-15 -84h-344l-98 -619q-12 -68 -12 -114t3 -71.5t15 -48t21.5 -33.5t29.5 -20q23 -10 111 -27.5t98 -17.5l-8 -55h-133q-221 0 -221 256q0 59 12 131l98 619h-184zM639 1225l27 274l20 137h86l-22 -137l-60 -274h-51z" />
<glyph unicode="&#x166;" horiz-adv-x="1200" d="M285 1415l14 84h1026l-14 -84h-477l-84 -532h260l-11 -58h-258l-131 -825h-84l131 825h-260l9 58h260l84 532h-465z" />
<glyph unicode="&#x167;" horiz-adv-x="720" d="M143 616l9 58h165l54 332h-183l11 61l186 23l70 303h61l-47 -303h344l-14 -84h-344l-54 -332h244l-10 -58h-242l-35 -227q-12 -74 -12 -119t1 -67.5t13.5 -45t20.5 -33.5t29 -20q25 -10 114.5 -27.5t100.5 -17.5l-9 -57h-145q-209 0 -209 244q0 63 12 143l35 227h-166z " />
<glyph unicode="&#x168;" horiz-adv-x="1376" d="M244 363.5q0 48.5 1 100.5t21 179l135 856h84l-135 -856q-20 -135 -20 -219t6 -136t31.5 -94t53.5 -66t77 -36q74 -18 180 -18t167.5 10t126 44t109.5 95q100 135 146 420l135 856h84l-135 -856q-61 -393 -215 -528q-80 -70 -173.5 -97.5t-195.5 -27.5t-153.5 5 t-108.5 20.5t-94 41.5q-90 70 -115 195q-12 63 -12 111.5zM608 1702q102 78 154.5 100.5t95.5 22.5t118.5 -60.5t104.5 -60.5q82 0 213 94l17 -39q-6 -4 -30 -22.5t-31 -23.5t-27.5 -20.5t-30.5 -20.5t-28.5 -15t-33.5 -15q-37 -10 -69.5 -10t-74.5 32t-79 61.5t-62.5 29.5 t-48 -4t-46 -15.5t-38 -19.5t-45 -26.5t-42.5 -26.5z" />
<glyph unicode="&#x169;" horiz-adv-x="1105" d="M150 264q0 33 4 68l120 758h84l-120 -758q-5 -31 -5 -60q0 -80 43 -133q55 -72 175 -71.5t213.5 28t232.5 92.5l141 902h84l-172 -1088h-55l-8 127q-258 -145 -432 -145t-250 100q-55 78 -55 180zM385 1290q100 78 152.5 100.5t90.5 22.5t82 -30.5t81.5 -60.5t64.5 -30 q82 0 213 94l18 -38q-8 -4 -31.5 -22.5t-30.5 -24t-27.5 -20.5t-31 -20.5t-28.5 -15.5t-33 -14q-35 -10 -68.5 -10t-75.5 31.5t-79 61t-62.5 29.5t-47 -4t-46 -15t-39 -19.5t-45 -26.5t-43.5 -27z" />
<glyph unicode="&#x16a;" horiz-adv-x="1376" d="M244 363.5q0 48.5 1 100.5t21 179l135 856h84l-135 -856q-20 -135 -20 -219t6 -136t31.5 -94t53.5 -66t77 -36q74 -18 180 -18t167.5 10t126 44t109.5 95q100 135 146 420l135 856h84l-135 -856q-61 -393 -215 -528q-80 -70 -173.5 -97.5t-195.5 -27.5t-153.5 5 t-108.5 20.5t-94 41.5q-90 70 -115 195q-12 63 -12 111.5zM674 1632l8 64h545l-10 -64h-543z" />
<glyph unicode="&#x16b;" horiz-adv-x="1105" d="M150 264q0 33 4 68l120 758h84l-120 -758q-5 -31 -5 -60q0 -80 43 -133q55 -72 175 -71.5t213.5 28t232.5 92.5l141 902h84l-172 -1088h-55l-8 127q-258 -145 -432 -145t-250 100q-55 78 -55 180zM449 1221l8 63h544l-10 -63h-542z" />
<glyph unicode="&#x16c;" horiz-adv-x="1376" d="M244 363.5q0 48.5 1 100.5t21 179l135 856h84l-135 -856q-20 -135 -20 -219t6 -136t31.5 -94t53.5 -66t77 -36q74 -18 180 -18t167.5 10t126 44t109.5 95q100 135 146 420l135 856h84l-135 -856q-61 -393 -215 -528q-80 -70 -173.5 -97.5t-195.5 -27.5t-153.5 5 t-108.5 20.5t-94 41.5q-90 70 -115 195q-12 63 -12 111.5zM745 1829q0 18 3 37h51q-2 -17 -2 -33q0 -57 40 -103.5t111 -46.5q84 0 144.5 49.5t72.5 133.5h52q-16 -113 -93 -173.5t-171.5 -60.5t-151 58.5t-56.5 138.5z" />
<glyph unicode="&#x16d;" horiz-adv-x="1105" d="M150 264q0 33 4 68l120 758h84l-120 -758q-5 -31 -5 -60q0 -80 43 -133q55 -72 175 -71.5t213.5 28t232.5 92.5l141 902h84l-172 -1088h-55l-8 127q-258 -145 -432 -145t-250 100q-55 78 -55 180zM520 1417q0 18 2 37h51q-2 -17 -2 -33q0 -57 40 -103t112 -46 q86 0 145.5 49t71.5 133h51q-16 -113 -92 -173t-171 -60t-151.5 58t-56.5 138z" />
<glyph unicode="&#x16e;" horiz-adv-x="1376" d="M244 363.5q0 48.5 1 100.5t21 179l135 856h84l-135 -856q-20 -135 -20 -219t6 -136t31.5 -94t53.5 -66t77 -36q74 -18 180 -18t167.5 10t126 44t109.5 95q100 135 146 420l135 856h84l-135 -856q-61 -393 -215 -528q-80 -70 -173.5 -97.5t-195.5 -27.5t-153.5 5 t-108.5 20.5t-94 41.5q-90 70 -115 195q-12 63 -12 111.5zM768 1812q0 104 77 172t163 68t133 -56.5t47 -123.5q0 -106 -76 -173t-162 -67t-139 62q-43 49 -43 118zM821 1817q0 -49 36 -90t100.5 -41t115.5 45q63 55 64 133q0 76 -62 112q-33 23 -75 23t-80 -23 q-99 -53 -99 -159z" />
<glyph unicode="&#x16f;" horiz-adv-x="1105" d="M150 264q0 33 4 68l120 758h84l-120 -758q-5 -31 -5 -60q0 -80 43 -133q55 -72 175 -71.5t213.5 28t232.5 92.5l141 902h84l-172 -1088h-55l-8 127q-258 -145 -432 -145t-250 100q-55 78 -55 180zM543 1399q0 106 76.5 173.5t162.5 67.5t133.5 -56t47.5 -124 q0 -106 -75 -172.5t-162 -66.5t-135 55t-48 123zM596 1405q0 -49 36 -90t100.5 -41t115.5 45q63 55 63 135q0 49 -35.5 91t-99 42t-117.5 -47q-63 -55 -63 -135z" />
<glyph unicode="&#x170;" horiz-adv-x="1376" d="M244 363.5q0 48.5 1 100.5t21 179l135 856h84l-135 -856q-20 -135 -20 -219t6 -136t31.5 -94t53.5 -66t77 -36q74 -18 180 -18t167.5 10t126 44t109.5 95q100 135 146 420l135 856h84l-135 -856q-61 -393 -215 -528q-80 -70 -173.5 -97.5t-195.5 -27.5t-153.5 5 t-108.5 20.5t-94 41.5q-90 70 -115 195q-12 63 -12 111.5zM770 1632l281 273h102l-315 -273h-68zM1053 1632l280 273h101l-316 -273h-65z" />
<glyph unicode="&#x171;" horiz-adv-x="1105" d="M150 264q0 33 4 68l120 758h84l-120 -758q-5 -31 -5 -60q0 -80 43 -133q55 -72 175 -71.5t213.5 28t232.5 92.5l141 902h84l-172 -1088h-55l-8 127q-258 -145 -432 -145t-250 100q-55 78 -55 180zM545 1221l282 272h101l-316 -272h-67zM827 1221l281 272h102l-315 -272 h-68z" />
<glyph unicode="&#x172;" horiz-adv-x="1376" d="M244 363.5q0 48.5 1 100.5t21 179l135 856h84l-135 -856q-20 -135 -20 -219t6 -136t31.5 -94t53.5 -66t77 -36q74 -18 180 -18t167.5 10t126 44t109.5 95q100 135 146 420l135 856h84l-135 -856q-61 -393 -215 -528q-80 -70 -173.5 -97.5t-195.5 -27.5t-153.5 5 t-108.5 20.5t-94 41.5q-90 70 -115 195q-12 63 -12 111.5zM475 -229q0 141 205 225h43q-109 -53 -154 -129q-25 -39 -24.5 -72t20.5 -57q37 -53 142 -53h12l-10 -60q-23 -4 -45 -4q-88 0 -138.5 47.5t-50.5 102.5z" />
<glyph unicode="&#x173;" horiz-adv-x="1267" d="M150 264q0 33 4 68l120 758h84l-120 -758q-5 -31 -5 -60q0 -80 43 -133q55 -72 175 -71.5t213.5 28t232.5 92.5l141 902h84l-172 -1088h-55l-8 127q-258 -145 -432 -145t-250 100q-55 78 -55 180zM700 -223q0 141 203 225h43q-109 -53 -151 -129q-25 -39 -25 -71.5 t18 -59.5q39 -51 142 -51h12l-8 -60q-25 -4 -45 -4q-88 0 -138.5 47.5t-50.5 102.5z" />
<glyph unicode="&#x174;" horiz-adv-x="2021" d="M307 1499h84l275 -1380l708 1380h94l-294 -581l174 -805l708 1386h92l-768 -1499h-98l-172 797l-410 -797h-98zM965 1632l301 266h77l191 -266h-68l-166 213l-256 -213h-79z" />
<glyph unicode="&#x175;" horiz-adv-x="1644" d="M193 1087h83l242 -976l453 802q63 117 71 170h58q4 -14 4 -32q0 -59 -47 -156l-107 -193l144 -591l460 807q63 117 72 172h57q6 -18 7 -39q0 -61 -50 -150l-516 -901h-88l-145 600l-338 -600h-92zM680 1221l303 266h78l190 -266h-67l-168 213l-256 -213h-80z" />
<glyph unicode="&#x176;" horiz-adv-x="1286" d="M307 1499h90l301 -860l615 860h100l-684 -967l-84 -532h-84l84 532zM596 1632l303 266h78l190 -266h-67l-168 213l-256 -213h-80z" />
<glyph unicode="&#x177;" horiz-adv-x="1105" d="M193 1087h86l155 -849q27 -137 141 -150h35l412 842q43 90 55 168h62q8 -23 8 -67t-41 -124l-442 -905q-2 -6 -13 -25q-258 -514 -452 -528v55q137 33 352 463q14 31 16 33q-51 2 -98 29q-94 53 -121 196zM399 1223l303 266h78l191 -266h-70l-166 213l-256 -213h-80z" />
<glyph unicode="&#x178;" horiz-adv-x="1286" d="M276 1499h93l299 -860l616 860h100l-686 -967l-84 -532h-84l84 532zM540 1683.5q3 20.5 13 34t25.5 21.5t36 8t35 -16.5t10 -42t-24 -43t-44 -17.5t-39.5 17.5t-12 38zM1063 1688.5q4 25.5 24.5 42t45 16.5t39 -16.5t10.5 -42t-23.5 -43t-44 -17.5t-40 17.5t-11.5 43z " />
<glyph unicode="&#x179;" horiz-adv-x="1077" d="M143 0l15 84l1069 1331h-858l12 84h971l-15 -84l-1069 -1331h858l-12 -84h-971zM854 1628l281 273h100l-315 -273h-66z" />
<glyph unicode="&#x17a;" horiz-adv-x="923" d="M125 2l12 84l811 918h-694l12 83h811l-12 -83l-809 -918h662l-13 -84h-780zM659 1217l281 272h100l-315 -272h-66z" />
<glyph unicode="&#x17b;" horiz-adv-x="1077" d="M72 0l14 84l1067 1331h-858l14 84h969l-14 -84l-1067 -1331h858l-15 -84h-968zM719 1638l20 121q4 35 37 35h51q31 0 27 -35l-20 -121q-4 -33 -37 -32h-49q-33 0 -29 32z" />
<glyph unicode="&#x17c;" horiz-adv-x="923" d="M92 2l12 84l811 918h-694l12 83h811l-12 -83l-809 -918h662l-13 -84h-780zM608 1253l19 121q6 33 39 33h49q33 0 26 -33l-18 -121q-4 -33 -37 -32h-49q-14 0 -22.5 9t-6.5 23z" />
<glyph unicode="&#x17d;" horiz-adv-x="1077" d="M72 0l14 84l1067 1331h-858l14 84h969l-14 -84l-1067 -1331h858l-15 -84h-968zM571 1898h70l166 -212l256 212h80l-303 -266h-78z" />
<glyph unicode="&#x17e;" horiz-adv-x="923" d="M92 2l12 84l811 918h-694l12 83h811l-12 -83l-809 -918h662l-13 -84h-780zM418 1487h67l166 -213l256 213h80l-301 -266h-78z" />
<glyph unicode="&#x192;" horiz-adv-x="1024" d="M-16 -385l12 51h164q96 0 162 90q70 94 100 181q43 127 74 243l176 666h-209l18 86h209l31 104q59 221 79.5 274.5t43 102.5t42 77t47.5 60.5t56 48.5q68 39 148 39t180 -32l-12 -52h-181q-88 0 -143 -75q-63 -88 -90 -170q-39 -113 -60.5 -187.5t-23.5 -85.5l-31 -106 h293l-18 -84h-293l-176 -666q-61 -250 -96 -321.5t-68 -123.5t-70 -83q-86 -70 -192 -70q-74 0 -120 14.5t-52 18.5z" />
<glyph unicode="&#x2c6;" horiz-adv-x="681" d="M135 1087l303 267h78l191 -267h-70l-166 213l-256 -213h-80z" />
<glyph unicode="&#x2da;" horiz-adv-x="681" d="M285 1264q0 106 76.5 173.5t162.5 67.5t133.5 -56t47.5 -124q0 -106 -75 -173t-162 -67t-135 55.5t-48 123.5zM338 1270q0 -49 36 -90t100.5 -41t115.5 45q63 55 63 133q0 76 -59 113q-33 23 -76 22.5t-82 -22.5q-98 -54 -98 -160z" />
<glyph unicode="&#x2dc;" horiz-adv-x="976" d="M274 1171q102 78 154.5 100.5t94.5 21.5t118 -61.5t107 -60.5q80 0 213 97l16 -39q-8 -6 -26.5 -20.5t-28 -21.5t-25.5 -19.5t-26.5 -18.5t-26 -15.5t-27.5 -13.5q-49 -18 -65 -18q-57 0 -100.5 30.5t-79 61.5t-60.5 31t-44 -4t-35.5 -10.5t-37 -16.5t-33 -17.5 t-36 -21.5t-35.5 -22z" />
<glyph unicode="&#x3a9;" horiz-adv-x="1601" d="M145 0l11 63l352 23q-266 219 -266 526q0 195 65 394q29 90 87.5 187t137 164.5t203.5 111.5t262.5 44t230.5 -27.5t154 -80.5q125 -106 156 -270q14 -82 14 -169t-16 -188q-74 -459 -446 -694l342 -21l-11 -63h-467l15 86q227 137 338 309q162 252 161 580 q0 166 -53 260q-111 195 -411 195q-561 0 -664 -648q-14 -88 -14 -185t32 -187q55 -147 252 -324l-14 -86h-451z" />
<glyph unicode="&#x3c0;" horiz-adv-x="1284" d="M188 1004l15 83h1059l-15 -83h-264l-104 -664q-10 -59 -11 -115q0 -150 144 -149h186l-6 -49q-16 -4 -43 -12.5t-35 -10.5t-24.5 -6t-26.5 -6q-30 -2 -57 -2q-223 0 -224 227q0 53 13 123l104 664h-450l-158 -1004h-84l158 1004h-177z" />
<glyph unicode="&#x1e02;" horiz-adv-x="1212" d="M164 0l237 1499h539q338 0 338 -285q0 -197 -113 -321q-86 -92 -188 -109q70 -16 135 -106q57 -80 57 -203q0 -33 -4 -69q-59 -406 -463 -406h-538zM262 86h455q311 0 364 334q6 31 6 59q0 96 -57 170q-74 94 -203 94h-6h-454zM381 827h455q133 0 228 80t122 221 q10 51 10 93q0 90 -45 133q-66 61 -223 61h-455zM793 1665l20 121q4 33 37 33h51q31 0 27 -33l-21 -121q-4 -33 -37 -33h-49q-14 0 -22 9.5t-6 23.5z" />
<glyph unicode="&#x1e03;" horiz-adv-x="1122" d="M123 0l254 1608h80l-92 -586q98 37 218.5 59.5t196.5 22.5q301 0 301 -375q0 -92 -16 -201q-88 -541 -447 -540q-102 0 -229 47t-166 86l-45 -121h-55zM233 178q209 -106 385 -106q178 0 283 202q53 106 74.5 239.5t21.5 215.5q0 291 -229 291q-176 0 -410 -59zM385 1769 l21 121q3 35 38 35h50q31 0 26 -35l-20 -121q-4 -33 -37 -32h-49q-14 0 -22.5 9t-6.5 23z" />
<glyph unicode="&#x1e0a;" horiz-adv-x="1353" d="M164 0l237 1499h531q225 0 325 -135q96 -133 107 -305q2 -45 2 -88q0 -266 -100 -527q-172 -444 -561 -444h-541zM262 86h451q96 0 180 40t143.5 104.5t106.5 152.5q86 158 113.5 326t27.5 272q0 434 -366 434h-447zM813 1665l18 121q6 33 39 33h50q33 0 28 -33l-20 -121 q-4 -33 -37 -33h-49q-14 0 -22.5 9.5t-6.5 23.5z" />
<glyph unicode="&#x1e0b;" horiz-adv-x="1087" d="M168 387q0 152 49 330q49 176 143 274q48 49 120.5 81t155.5 32t196.5 -22.5t201.5 -59.5l92 586h80l-254 -1608h-55l-8 121q-53 -41 -186.5 -87t-223.5 -46t-151 35q-160 90 -160 364zM252 355.5q0 -95.5 39 -167.5q63 -117 183 -116.5t215 28t208 78.5l125 783 q-215 59 -389 59q-211 0 -305 -240q-39 -98 -57.5 -213.5t-18.5 -211zM1130 1739l19 121q6 32 39 32h49q33 0 27 -32l-19 -121q-4 -33 -37 -33h-49q-16 0 -23.5 9t-5.5 24z" />
<glyph unicode="&#x1e1e;" horiz-adv-x="1144" d="M164 0l192 1227q25 156 100.5 214t184.5 58h16l619 -24l-8 -60h-625q-133 0 -178 -102q-14 -33 -23 -80l-69 -447l712 -14l-10 -59l-717 -15l-110 -698h-84zM836 1665l20 121q4 33 37 33h51q31 0 27 -33l-21 -121q-4 -33 -37 -33h-49q-14 0 -22 9.5t-6 23.5z" />
<glyph unicode="&#x1e1f;" horiz-adv-x="763" d="M188 1004l9 57l192 26l25 160q27 164 47 203t41.5 69.5t48.5 47t65.5 29t65.5 13.5t55.5 1t113.5 -10.5t126 -22.5l-6 -51h-271q-102 0 -143 -72q-37 -63 -59 -207l-25 -160h356l-14 -83h-356l-160 -1004h-84l160 1004h-187zM692 1765l21 121q4 33 39 33h49q33 0 26 -33 l-18 -121q-6 -33 -37 -32h-51q-14 0 -22.5 9t-6.5 23z" />
<glyph unicode="&#x1e40;" horiz-adv-x="1617" d="M145 0l381 1499h113l213 -1358l631 1358h123l-86 -1499h-84l77 1364l-634 -1364h-93l-206 1358l-349 -1358h-86zM1034 1665l21 121q4 33 37 33h51q31 0 26 -33l-20 -121q-4 -33 -37 -33h-49q-14 0 -22.5 9.5t-6.5 23.5z" />
<glyph unicode="&#x1e41;" horiz-adv-x="1869" d="M123 0l172 1087h55l8 -129q258 145 439 146q106 0 175.5 -47t96.5 -123q139 96 320 143q98 27 180 27q150 0 227 -103q59 -78 59 -182q0 -31 -6 -63l-118 -756h-84l118 756q6 27 7 51q0 80 -46 137q-57 76 -170 76q-215 0 -471 -133q8 -25 8.5 -58.5t-6.5 -74.5 l-120 -754h-84l121 756q4 27 4 51q0 80 -45 137q-57 76 -175 76t-209.5 -27.5t-230.5 -93.5l-141 -899h-84zM1073 1260l21 120q3 33 36 33h50q33 0 28 -33l-20 -120q-4 -33 -37 -33h-49q-33 0 -29 33z" />
<glyph unicode="&#x1e56;" horiz-adv-x="1202" d="M154 0l237 1499h586q303 0 303 -303q0 -137 -35 -241.5t-60.5 -149.5t-63.5 -77t-66.5 -48t-73.5 -25q-57 -12 -131 -12t-286 11.5t-220 15.5l-106 -670h-84zM352 729h502q205 0 281 170q35 74 47 152.5t12 105.5t-2 56.5t-8 65.5t-25.5 59.5t-38 39t-47.5 23.5 q-49 12 -110 12h-502zM791 1665l18 121q6 33 39 33h49q33 0 29 -33l-21 -121q-4 -33 -37 -33h-49q-14 0 -22.5 9.5t-5.5 23.5z" />
<glyph unicode="&#x1e57;" horiz-adv-x="1099" d="M35 -553l264 1628q161 23 483 23q311 0 312 -406q0 -78 -17.5 -182t-49.5 -197.5t-83 -171.5q-106 -160 -326 -159q-80 0 -198.5 20.5t-204.5 56.5l-96 -612h-84zM227 123q213 -59 336 -60q31 0 62 3q154 6 240.5 117.5t127.5 361.5q14 90 15 164q0 305 -236 305h-401z M674 1253l18 123q6 33 39 33h49q33 0 27 -33l-19 -123q-6 -31 -36 -30h-52q-14 0 -21 8t-5 22z" />
<glyph unicode="&#x1e60;" horiz-adv-x="1161" d="M162 20l8 62q139 -14 348 -14t260 9t105 34q113 53 137 208l20 140q6 35 6.5 86t-32.5 92q-45 55 -180 55h-248q-158 0 -228 51q-72 49 -82 121q-6 35 -6 69t9 85l22 135q35 219 162 295q109 63 280 63q111 0 269.5 -17t210.5 -26l-9 -57l-471 16h-30q-135 0 -219 -58 t-109 -222l-23 -135q-2 -41 -6 -72t5.5 -55.5t17.5 -42t27.5 -28.5t37 -18.5t43.5 -11.5q45 -6 109 -6h252q285 0 285 -243q0 -39 -9 -82l-20 -140q-47 -293 -340 -323q-51 -6 -113.5 -6t-161.5 6q-236 14 -327 30zM774 1673l19 121q5 35 38 35h50q33 0 26 -35l-18 -121 q-6 -33 -37 -33h-51q-14 0 -21.5 9.5t-5.5 23.5z" />
<glyph unicode="&#x1e61;" horiz-adv-x="1034" d="M131 12l8 58h523q100 0 141 34q51 43 65 132l19 102q2 18 2 51t-33 72t-123 39h-280q-156 0 -207 43t-51 129q0 35 6 76l16 98q20 131 95 193.5t229 62.5q80 0 246.5 -8.5t244.5 -16.5l-10 -57h-494q-113 0 -164 -46t-63 -136l-16 -99q-10 -61 -3 -83.5t12 -34 t19.5 -19.5t24.5 -12t33 -4q31 -4 57.5 -4h30.5h278q123 0 180.5 -60.5t57.5 -142.5q0 -23 -4 -49l-19 -109q-27 -176 -155 -217q-61 -18 -143.5 -18t-273 10t-249.5 16zM621 1255l18 123q6 33 39 33h49q33 0 27 -33l-19 -123q-4 -31 -37 -30h-49q-14 0 -22.5 8t-5.5 22z " />
<glyph unicode="&#x1e6a;" horiz-adv-x="1255" d="M285 1415l14 84h1081l-14 -84h-506l-223 -1415h-84l223 1415h-491zM807 1665l20 121q4 33 39 33h49q33 0 27 -33l-18 -121q-6 -33 -37 -33h-51q-14 0 -22.5 9.5t-6.5 23.5z" />
<glyph unicode="&#x1e6b;" horiz-adv-x="727" d="M188 1006l11 61l186 23l70 303h61l-47 -303h344l-14 -84h-344l-99 -621q-10 -66 -10 -112t3 -72.5t15.5 -49t21.5 -34t30 -19.5q23 -10 110.5 -26.5t98.5 -16.5l-9 -57h-133q-223 0 -223 252q0 61 12 135l99 621h-183zM461 1548l20 121q4 33 37 33h51q31 0 27 -33 l-21 -121q-4 -33 -36 -32h-50q-14 0 -22 9t-6 23z" />
<glyph unicode="&#x1e80;" horiz-adv-x="2021" d="M307 1499h84l275 -1380l708 1380h94l-294 -581l174 -805l708 1386h92l-768 -1499h-98l-172 797l-410 -797h-98zM979 1905h94l209 -273h-65z" />
<glyph unicode="&#x1e81;" horiz-adv-x="1644" d="M193 1087h83l242 -976l453 802q63 117 71 170h58q4 -14 4 -32q0 -59 -47 -156l-107 -193l144 -591l460 807q63 117 72 172h57q6 -18 7 -39q0 -61 -50 -150l-516 -901h-88l-145 600l-338 -600h-92zM721 1493h96l209 -272h-68z" />
<glyph unicode="&#x1e82;" horiz-adv-x="2021" d="M307 1499h84l275 -1380l708 1380h94l-294 -581l174 -805l708 1386h92l-768 -1499h-98l-172 797l-410 -797h-98zM1217 1632l280 273h100l-315 -273h-65z" />
<glyph unicode="&#x1e83;" horiz-adv-x="1644" d="M193 1087h83l242 -976l453 802q63 117 71 170h58q4 -14 4 -32q0 -59 -47 -156l-107 -193l144 -591l460 807q63 117 72 172h57q6 -18 7 -39q0 -61 -50 -150l-516 -901h-88l-145 600l-338 -600h-92zM913 1214l281 273h102l-315 -273h-68z" />
<glyph unicode="&#x1e84;" horiz-adv-x="2021" d="M307 1499h84l275 -1380l708 1380h94l-294 -581l174 -805l708 1386h92l-768 -1499h-98l-172 797l-410 -797h-98zM938 1691.5q4 24.5 24.5 41t45 16.5t39 -16.5t11.5 -35t-9.5 -29.5t-16.5 -17q-18 -18 -42.5 -18.5t-40 17t-11.5 42zM1460 1691.5q4 24.5 24.5 41t45 16.5 t39 -16.5t10.5 -37t-12 -32.5q-23 -31 -51.5 -31t-44 17.5t-11.5 42z" />
<glyph unicode="&#x1e85;" horiz-adv-x="1644" d="M193 1087h83l242 -976l453 802q63 117 71 170h58q4 -14 4 -32q0 -59 -47 -156l-107 -193l144 -591l460 807q63 117 72 172h57q6 -18 7 -39q0 -61 -50 -150l-516 -901h-88l-145 600l-338 -600h-92zM641 1280q4 25 24.5 41t45 16t39 -16t11.5 -34.5t-9.5 -30t-16.5 -17.5 q-18 -18 -42.5 -18t-40 17t-11.5 42zM1163 1280q4 25 24.5 41t45 16t39 -16t11.5 -34.5t-9 -30t-17 -17.5q-18 -18 -42.5 -18t-40 17t-11.5 42z" />
<glyph unicode="&#x1ef2;" horiz-adv-x="1286" d="M307 1499h90l301 -860l615 860h100l-684 -967l-84 -532h-84l84 532zM610 1905h97l208 -273h-67z" />
<glyph unicode="&#x1ef3;" horiz-adv-x="1105" d="M193 1087h86l155 -849q27 -137 141 -150h35l412 842q43 90 55 168h62q8 -23 8 -67t-41 -124l-442 -905q-2 -6 -13 -25q-258 -514 -452 -528v55q137 33 352 463q14 31 16 33q-51 2 -98 29q-94 53 -121 196zM434 1495h94l211 -272h-67z" />
<glyph unicode="&#x2000;" horiz-adv-x="1026" />
<glyph unicode="&#x2001;" horiz-adv-x="2052" />
<glyph unicode="&#x2002;" horiz-adv-x="1026" />
<glyph unicode="&#x2003;" horiz-adv-x="2052" />
<glyph unicode="&#x2004;" horiz-adv-x="684" />
<glyph unicode="&#x2005;" horiz-adv-x="513" />
<glyph unicode="&#x2006;" horiz-adv-x="342" />
<glyph unicode="&#x2007;" horiz-adv-x="342" />
<glyph unicode="&#x2008;" horiz-adv-x="256" />
<glyph unicode="&#x2009;" horiz-adv-x="410" />
<glyph unicode="&#x200a;" horiz-adv-x="114" />
<glyph unicode="&#x2010;" horiz-adv-x="694" d="M123 553l14 82h602l-14 -82h-602z" />
<glyph unicode="&#x2011;" horiz-adv-x="694" d="M123 553l14 82h602l-14 -82h-602z" />
<glyph unicode="&#x2012;" horiz-adv-x="694" d="M123 553l14 82h602l-14 -82h-602z" />
<glyph unicode="&#x2013;" horiz-adv-x="901" d="M123 545l14 86h969l-14 -86h-969z" />
<glyph unicode="&#x2014;" horiz-adv-x="1513" d="M121 549l14 86h1426l-15 -86h-1425z" />
<glyph unicode="&#x2018;" horiz-adv-x="415" d="M330 1163v15l32 208q10 57 31 76t35 26t28.5 9t20.5 2h11.5t17.5 -2l-6 -35h-4q-45 0 -54 -49l-10 -70h19q16 0 25 -10t7 -30l-20 -125q-6 -43 -47 -43h-56q-31 0 -30 28z" />
<glyph unicode="&#x2019;" horiz-adv-x="415" d="M332 1137l6 34h2q45 0 53 48l13 71h-19q-39 0 -33 39l23 127q6 43 45 43h53q35 0 35 -31q0 -4 -2 -12l-35 -211q-10 -55 -30.5 -74.5t-34.5 -25.5q-20 -10 -42 -10t-34 2z" />
<glyph unicode="&#x201a;" horiz-adv-x="415" d="M127 -156l6 35h2q45 0 53 49l13 72h-19q-16 0 -26.5 10t-5.5 29l20 127q6 43 45 43h55q33 0 33 -31q0 -6 -2 -12l-33 -211q-12 -78 -59 -98q-33 -14 -49.5 -14.5t-32.5 1.5z" />
<glyph unicode="&#x201c;" horiz-adv-x="632" d="M317 1163q0 6 2 15l31 208q10 57 30.5 76t35 26t28 9t19.5 2h11t18 -2l-5 -35h-4q-45 0 -53 -49l-10 -70h16q16 0 26.5 -10t8.5 -30l-20 -125q-6 -43 -48 -43h-55q-31 0 -31 28zM559 1165v13l33 208q19 113 117 113q8 0 24 -2l-4 -35h-4q-45 0 -53 -49l-10 -70h16 q18 0 27.5 -10t5.5 -30l-19 -125q-6 -43 -47 -43h-53q-33 0 -33 30z" />
<glyph unicode="&#x201d;" horiz-adv-x="630" d="M319 1137l7 34q20 -2 34 9q16 12 21 39l10 71h-16q-39 0 -33 39l20 127q6 43 46 43h55q39 0 31 -43l-33 -211q-8 -55 -29.5 -74.5t-36.5 -25.5q-20 -10 -41.5 -10t-34.5 2zM561 1137l4 34h4q45 0 54 48l10 71h-17q-16 0 -26 10.5t-6 28.5l20 127q6 43 45 43h56 q33 0 32 -31q0 -4 -2 -12l-33 -211q-12 -78 -59 -98q-31 -14 -48 -14t-34 4z" />
<glyph unicode="&#x201e;" horiz-adv-x="630" d="M115 -152l6 35h2q45 0 53 49l10 70h-16q-16 0 -26.5 10.5t-6.5 30.5l21 125q6 45 45 45h55q33 0 33 -31q0 -6 -2 -14l-33 -209q-12 -78 -59 -98q-33 -14 -49.5 -14.5t-32.5 1.5zM356 -152l4 35h5q45 0 53 49l10 70h-16q-18 0 -27.5 10.5t-5.5 30.5l20 125q6 45 45 45h56 q33 0 32 -31q0 -6 -2 -14l-32 -209q-12 -78 -60 -98q-33 -14 -49 -14.5t-33 1.5z" />
<glyph unicode="&#x2020;" horiz-adv-x="1021" d="M231 1032l9 60l313 14l86 471h63l-63 -471l305 -14l-8 -60l-311 -14l-197 -1165h-63l172 1165z" />
<glyph unicode="&#x2021;" horiz-adv-x="899" d="M199 383l8 59l315 15l86 561l-307 14l10 60l312 14l86 471h63l-63 -471l307 -14l-10 -60l-310 -14l-96 -561l311 -15l-8 -59l-317 -14l-88 -516h-64l76 516z" />
<glyph unicode="&#x2022;" horiz-adv-x="669" d="M283 719q0 6 2 14l14 94q4 35 25.5 54.5t54.5 19.5h84q59 0 59 -55v-19l-14 -94q-10 -66 -84 -65h-84q-57 0 -57 51z" />
<glyph unicode="&#x2026;" horiz-adv-x="1523" d="M299 33l23 123q3 32 38 32h52q33 0 28 -32l-22 -123q-6 -33 -37 -33h-53q-14 0 -22.5 9t-6.5 24zM856 33l23 123q4 32 39 32h51q33 0 28 -32l-22 -123q-6 -33 -37 -33h-51q-14 0 -23.5 9t-7.5 24zM1411 33l21 123q5 32 38 32h54q33 0 26 -32l-20 -123q-6 -33 -37 -33h-53 q-14 0 -22.5 9t-6.5 24z" />
<glyph unicode="&#x202f;" horiz-adv-x="410" />
<glyph unicode="&#x2030;" horiz-adv-x="2752" d="M164 903q0 31 6 68l43 272q20 137 84.5 196.5t218.5 59.5h207q143 0 192 -59q35 -43 35 -99.5t-6 -97.5l-43 -272q-23 -139 -86 -197.5t-215 -58.5h-207q-137 0 -190 61q-39 47 -39 127zM229.5 892q-0.5 -44 31.5 -78t140 -34h207q74 0 117 17q88 31 111 174l43 272 q6 41 6 60.5t-1 42t-20 45.5q-37 43 -149 43h-207q-113 0 -162 -40t-67 -151l-43 -272q-6 -35 -6.5 -79zM395 0l1135 1499h78l-1135 -1499h-78zM1071 193q0 31 6 67l43 272q14 92 43 146q59 110 258 110h207q141 0 193 -59q37 -43 37 -125q0 -33 -7 -72l-43 -272 q-23 -139 -87 -197.5t-216 -58.5h-207q-137 0 -188 62q-39 45 -39 127zM1137 181q0 -44 31.5 -77.5t138.5 -33.5h206q111 0 161 38.5t69 151.5l43 272q6 35 6 78t-25 72q-33 41 -147 41h-207q-113 0 -162 -39t-65 -152l-43 -272q-6 -35 -6 -79zM1942 188q0 31 6 68l43 272 q12 92 43 146q59 110 258 110h207q143 0 192 -59q37 -43 37 -123q0 -35 -6 -74l-43 -272q-23 -139 -87.5 -197.5t-215.5 -58.5h-207q-137 0 -191 61q-37 45 -36 127zM2007 190q0 -84 59 -108q37 -16 109 -16h207q76 0 119 16q88 31 112 174l43 272q4 35 4 78t-22 72 q-33 41 -148 41h-206q-113 0 -162 -39t-66 -152l-43 -272q-6 -35 -6 -66z" />
<glyph unicode="&#x2039;" horiz-adv-x="583" d="M78 725l487 416l53 -60l-428 -364l314 -363l-62 -55z" />
<glyph unicode="&#x203a;" horiz-adv-x="755" d="M217 360l434 369l-305 361l57 51l361 -420l-496 -422z" />
<glyph unicode="&#x2044;" horiz-adv-x="1179" d="M59 0l1010 1550h72l-1010 -1550h-72z" />
<glyph unicode="&#x205f;" horiz-adv-x="513" />
<glyph unicode="&#x20ac;" horiz-adv-x="1482" d="M143 545l9 51l182 10l41 260l-178 11l8 47l180 12q0 4 5 33.5t11.5 62.5t24.5 98.5t42 110.5t69 101.5t98 89.5q133 84 328.5 84t447.5 -48l-10 -61q-270 25 -359.5 25h-95.5q-285 -2 -393 -213q-55 -109 -84 -283l547 -10l-8 -49l-549 -11l-41 -260l545 -10l-9 -51 q-324 -4 -471 -6l-77 -4q-12 -70 -13 -129q0 -131 60 -213q86 -117 274 -121h70q152 0 333 20l72 8l-10 -59q-219 -53 -469 -53q-129 0 -215 47q-94 47 -133 115q-63 111 -63.5 202.5t10.5 182.5z" />
<glyph unicode="&#x2122;" horiz-adv-x="1292" d="M96 1436l10 63h531l-10 -63h-234l-102 -652h-64l105 652h-236zM604 784l168 715h53l166 -610l332 610h66l-50 -715h-61l39 570l-311 -570h-50l-157 572l-133 -572h-62z" />
<glyph unicode="&#x2202;" horiz-adv-x="1359" d="M182 379q0 41 6 86q74 453 588 453q250 0 393 -113q16 113 17 205q0 168 -53 268q-82 154 -324 154q-193 0 -391 -111l-17 49q92 53 144 80q129 66 284 66q270 0 375 -193q68 -123 68 -311q0 -215 -76 -467q-117 -395 -375 -512q-96 -43 -209 -43q-205 0 -329 129 q-100 102 -101 260zM266 387q0 -133 80 -211q104 -102 279 -102q176 0 295 133q115 127 170 280q53 147 69 258q-76 47 -194.5 68t-192.5 21q-442 0 -500 -365q-6 -43 -6 -82z" />
<glyph unicode="&#x2206;" horiz-adv-x="1513" d="M41 0l911 1499h82l410 -1499h-1403zM193 84h1140l-352 1298z" />
<glyph unicode="&#x220f;" horiz-adv-x="1230" d="M217 0l223 1415h-176l15 84h1142l-14 -84h-178l-223 -1415h-84l223 1415h-621l-223 -1415h-84z" />
<glyph unicode="&#x2211;" horiz-adv-x="1079" d="M16 -410l15 91l573 870l-299 864l14 84h1024l-14 -84h-923l303 -878l-564 -856h908l-13 -91h-1024z" />
<glyph unicode="&#x221a;" horiz-adv-x="1173" d="M131 649l14 84h228l184 -606l784 1511h84l-843 -1638h-72l-197 649h-182z" />
<glyph unicode="&#x221e;" horiz-adv-x="1409" d="M109 614q0 205 94 332q79 107 286 107q104 0 197.5 -85t144.5 -192q84 104 203 190.5t212 86.5t148.5 -22.5t84.5 -57.5q53 -63 53 -178q0 -223 -105 -349q-82 -102 -276 -102q-115 0 -207 84t-137 201q-78 -121 -186.5 -202t-235.5 -81q-276 0 -276 268zM195 600 q0 -57 28 -102q43 -68 172 -68q174 0 385 270q-57 115 -135 192t-166 77q-139 0 -197 -62t-81 -207q-6 -43 -6 -100zM858 700q117 -270 301 -270q205 0 260 180q29 94 29 178q0 123 -84 160q-45 20 -123 20.5t-189.5 -82.5t-193.5 -186z" />
<glyph unicode="&#x222b;" horiz-adv-x="825" d="M-16 -387l8 53h192q55 0 82 19.5t41.5 32t28.5 40t23.5 47t19.5 57.5t16 62.5t17 73.5q12 68 20 122t8 60l135 856q45 276 72 347t52.5 119t56.5 75q70 61 162 61q106 0 152 -14t50 -16l-8 -54h-192q-109 0 -162 -112q-49 -111 -92 -373q-4 -23 -7 -33l-135 -856 q0 -4 -6 -44t-12 -74.5t-17.5 -96t-20.5 -93.5t-24.5 -80t-32 -72.5t-40 -55.5t-47.5 -45q-63 -37 -136 -37q-164 0 -204 31z" />
<glyph unicode="&#x2248;" horiz-adv-x="1007" d="M182 514q57 43 88 63.5t81 42t97.5 21.5t131.5 -62.5t123.5 -62.5t73.5 13.5t92.5 48t62.5 38.5l18 -38q-10 -8 -30.5 -24.5t-31.5 -25t-30.5 -21.5t-32 -20.5t-31 -17.5t-32.5 -14q-39 -12 -80 -12.5t-123 62t-117.5 62.5t-68.5 -9t-53.5 -19.5t-60.5 -33t-60 -32.5z M240 874q57 43 87.5 63.5t81 42t97.5 21.5t130 -61t115.5 -61t57.5 6t49.5 17t44 22.5t46 28t40.5 24.5l19 -39q-10 -6 -31 -23.5t-32 -24.5t-30.5 -21.5t-32 -21.5t-30.5 -16.5t-33 -15.5q-39 -10 -80 -10t-122.5 62.5t-117.5 62.5t-69 -10.5t-53.5 -19.5t-60.5 -31.5 t-60 -32.5z" />
<glyph unicode="&#x2260;" horiz-adv-x="1120" d="M256 434l14 88h283l311 404h-530l14 88h582l119 153h67l-119 -153h226l-15 -88h-276l-311 -404h524l-15 -88h-577l-135 -176h-68l135 176h-229z" />
<glyph unicode="&#x2264;" horiz-adv-x="1150" d="M205 246l14 84h772l-14 -84h-772zM301 858l12 82l789 373l-17 -94l-677 -324l573 -348l-14 -86z" />
<glyph unicode="&#x2265;" horiz-adv-x="923" d="M135 246l15 84h772l-15 -84h-772zM213 457l14 96l686 346l-581 326l16 84l668 -371l-12 -84z" />
<glyph unicode="&#x25fc;" horiz-adv-x="1085" d="M0 0v1085h1085v-1085h-1085z" />
</font>
</defs>
</svg>
