<?xml version="1.0" standalone="no"?>
<!DOCTYPE svg PUBLIC "-//W3C//DTD SVG 1.1//EN" "http://www.w3.org/Graphics/SVG/1.1/DTD/svg11.dtd" >
<svg xmlns="http://www.w3.org/2000/svg">
<metadata></metadata>
<defs>
<font id="exoextrabolditalic" horiz-adv-x="1363" >
<font-face units-per-em="2048" ascent="1638" descent="-410" />
<missing-glyph horiz-adv-x="512" />
<glyph horiz-adv-x="0" />
<glyph unicode="&#xd;" horiz-adv-x="2048" />
<glyph unicode=" "  horiz-adv-x="512" />
<glyph unicode="&#x09;" horiz-adv-x="512" />
<glyph unicode="&#xa0;" horiz-adv-x="512" />
<glyph unicode="!" horiz-adv-x="561" d="M131 47l33 209q8 51 57 51h205q47 0 41 -51l-35 -209q-6 -47 -53 -47h-205q-49 0 -43 47zM207 403l141 1094h330l-209 -1094h-262z" />
<glyph unicode="&#x22;" horiz-adv-x="958" d="M313 1087l19 275l22 137h322l-23 -137l-63 -275h-277zM715 1087l22 275l21 137h321l-22 -137l-64 -275h-278z" />
<glyph unicode="#" horiz-adv-x="1501" d="M92 414l72 229h307l70 215h-310l74 229h318l141 412h229l-141 -412h219l141 412h230l-142 -412h349l-72 -229h-348l-72 -217h350l-69 -229h-367l-141 -412h-230l142 412l-221 2l-142 -414h-229l141 414h-299zM700 643l228 -2l71 217h-229z" />
<glyph unicode="$" horiz-adv-x="1163" d="M131 49l41 258q262 -20 471 -20q156 0 174 110l8 60q6 37 2 63q-4 55 -106 55h-160q-207 0 -287 144q-49 86 -49 219q0 41 8 90l19 127q35 240 219 313q100 39 250 43l29 177h194l-26 -179q184 -8 346 -61l-41 -260q-229 18 -453 18q-90 0 -132 -22.5t-56 -98.5l-9 -51 q-2 -20 -2 -48t20.5 -51.5t108.5 -23.5h166q86 0 149.5 -31.5t94.5 -80.5q66 -104 66 -211q0 -35 -9 -129l-12 -86q-45 -279 -240 -353q-98 -37 -239 -36l-27 -168h-194l26 170q-119 4 -183.5 16t-166.5 47z" />
<glyph unicode="%" horiz-adv-x="1976" d="M207 942q0 31 6 68l37 241q20 131 93 189.5t230 58.5h207q238 0 238 -219q0 -33 -6 -72l-37 -241q-14 -90 -51 -144q-70 -109 -271 -108h-207q-137 0 -196 80q-43 59 -43 147zM410 0l1159 1499h225l-1147 -1499h-237zM442 996.5q0 -19.5 12.5 -38t63.5 -18.5h131 q55 0 78 21.5t31 70.5l22 150q6 59 -6 71q-18 20 -69 21h-130q-66 0 -88 -35q-14 -20 -18 -57l-23 -150q-4 -16 -4 -35.5zM1200 223q0 33 4 68l37 241q20 135 93 195.5t229 60.5h206q141 0 199 -77q41 -57 41 -148q0 -33 -6 -67l-35 -242q-20 -135 -95 -192.5t-231 -57.5 h-208q-137 0 -193 76q-41 55 -41 143zM1434 286q0 -20 12 -38.5t65 -18.5h127q57 0 80 22.5t29 70.5l22 149q4 20 4.5 42t-13 36t-64.5 14h-129q-74 0 -94 -45q-8 -18 -15 -47l-22 -149q-2 -16 -2 -36z" />
<glyph unicode="&#x26;" horiz-adv-x="1411" d="M104 389q0 201 211 359l183 137l-74 131q-45 80 -45 160.5t37 149.5t97 113t138 56q94 14 177 14t155 -8q121 -14 256 -47l-39 -246h-309q-121 0 -143 -37q-4 -8 -4.5 -35.5t44.5 -109.5l236 -412l279 238l98 -145l-144 -250l-94 -90l211 -367h-370l-103 180l-156 -119 q-96 -76 -233 -75q-84 0 -182.5 40t-162 148.5t-63.5 214.5zM420 420q0 -33 20 -64q78 -118 205 -24l109 90l-129 215l-117 -84q-88 -68 -88 -133z" />
<glyph unicode="'" horiz-adv-x="487" d="M270 1087l21 275l22 137h338l-22 -137l-64 -275h-295z" />
<glyph unicode="(" horiz-adv-x="802" d="M180 276q0 326 94 629q70 221 195 430q78 125 195 252q39 43 63 62l23 20h307q-55 -68 -140.5 -198t-150 -251.5t-130 -299t-92 -343t-26.5 -251.5t3 -183.5t34 -232.5q55 -246 127 -381l27 -51h-303q-102 121 -173 370q-53 197 -53 428z" />
<glyph unicode=")" horiz-adv-x="806" d="M-41 -522q57 63 141 188t147.5 246t130 302t92.5 346t26 248t-3.5 180t-33.5 235q-55 248 -125 391l-27 55h303q100 -135 170 -389q55 -205 56 -438q0 -299 -93 -613q-70 -229 -186 -436q-72 -123 -178 -239q-37 -41 -60 -60l-20 -16h-340z" />
<glyph unicode="*" horiz-adv-x="864" d="M250 1159l20 127l293 45l-18 -182zM311 854l95 281l172 -45l-152 -275zM526 948l125 154l201 -184l-90 -103zM565 1477l127 41l92 -254l-180 -68zM666 1169l270 164l55 -106l-233 -199z" />
<glyph unicode="+" horiz-adv-x="964" d="M150 592l43 274h286l45 289h275l-45 -289h290l-43 -274h-290l-47 -289h-275l47 289h-286z" />
<glyph unicode="," horiz-adv-x="526" d="M98 -180l19 110q29 0 45 9.5t19 17.5t7 23l2 20h-22q-23 0 -35 13.5t-8 37.5l33 203q8 55 59 55h197q41 0 41 -41v-14l-45 -277q-10 -68 -46 -108.5t-81 -50.5q-47 -10 -89 -10.5t-67 6.5z" />
<glyph unicode="-" horiz-adv-x="722" d="M125 457l43 274h643l-43 -274h-643z" />
<glyph unicode="." horiz-adv-x="530" d="M123 47l35 209q6 51 57 51h201q43 0 43 -37v-14l-35 -209q-8 -47 -57 -47h-201q-20 0 -32.5 13.5t-10.5 33.5z" />
<glyph unicode="/" horiz-adv-x="976" d="M4 -147l848 1724h346l-848 -1724h-346z" />
<glyph unicode="0" horiz-adv-x="1277" d="M147 301q0 37 7 76l116 729q31 197 132.5 295t283.5 98h336q104 0 178 -31.5t111 -84t48 -103.5t11 -87t-8 -71l-117 -745q-31 -186 -128 -281.5t-273 -95.5h-336q-188 0 -287 98q-74 76 -74 203zM496 398q0 -19 5 -41.5t27 -32.5q33 -18 86 -19h150q45 0 74 10 q63 23 80 123l100 623q2 20 2 51t-20.5 56.5t-81.5 25.5h-173q-127 0 -147 -133l-98 -621q-4 -23 -4 -42z" />
<glyph unicode="1" horiz-adv-x="765" d="M229 1114l33 217q43 0 145.5 54.5t153.5 113.5h332l-238 -1499h-336l187 1167q-76 -53 -277 -53z" />
<glyph unicode="2" horiz-adv-x="1193" d="M70 0l47 293q207 125 485 344q143 111 245.5 222.5t113.5 180.5q4 23 4 43q0 63 -43 96t-177 33h-497l39 250q303 57 618 58q147 0 246 -74q152 -113 152 -338q0 -172 -84 -301q-78 -115 -137.5 -172t-93.5 -90t-89 -76t-80.5 -63.5t-76 -57.5t-60.5 -43h498l-50 -305 h-1060z" />
<glyph unicode="3" horiz-adv-x="1185" d="M59 43l41 250h488q117 0 166 22.5t61 98.5l6 45q10 66 -4 82t-19 22t-20.5 11.5t-25 7.5t-31.5 6q-29 2 -74 4l-373 18l45 273l377 16q78 4 119 14q86 20 100 113l7 47q16 94 -64 115q-41 10 -115 10h-514l39 248q135 45 271 51q158 8 251 8t179 -2t164.5 -53t108.5 -127 t30 -128t-6 -91l-17 -96q-39 -233 -209 -263q123 -39 123 -235q0 -49 -8 -104l-12 -76q-56 -344 -451 -344h-121h-39t-68 1t-77.5 2t-69 4t-73 7t-62.5 10q-59 10 -123 33z" />
<glyph unicode="4" horiz-adv-x="1284" d="M98 459l654 1040h366l-530 -881h289l51 314l88 158h274l-76 -472h140l-41 -258l-148 -53l-47 -303h-336l45 303h-684z" />
<glyph unicode="5" horiz-adv-x="1216" d="M111 41l43 266h561q94 0 125 47q25 35 30 82l17 101q4 20 4 45.5t-16.5 56.5t-86.5 31h-145q-109 0 -127 -109h-319l192 938h928l-49 -305h-600l-58 -281q76 49 224 50q47 0 114 -5q160 -10 232 -122q53 -84 53 -201q0 -39 -4 -80l-33 -231q-33 -201 -172 -273 q-119 -59 -308.5 -59t-303 8t-301.5 41z" />
<glyph unicode="6" horiz-adv-x="1236" d="M182.5 401.5q-0.5 69.5 0.5 148.5t29 252t67.5 292.5t84 192.5t101.5 122q94 80 200.5 92t202.5 12q217 0 471 -51l-41 -256h-483q-145 0 -203 -145q-27 -69 -45 -180q133 43 379 43q102 0 172 -35t99 -90q39 -84 38.5 -156t-10.5 -119l-33 -221q-31 -186 -147 -250 q-102 -55 -283 -55h-286q-238 0 -295 252q-18 82 -18.5 151.5zM510 482.5q0 -60.5 12 -97.5q27 -82 133 -82h111q55 0 87 23.5t42 89.5l16 94q6 33 6.5 58.5t-12 45t-78.5 19.5h-299q-18 -90 -18 -150.5z" />
<glyph unicode="7" horiz-adv-x="1140" d="M229 1194l50 305h974l62 -143l-701 -1356h-362l625 1194h-648z" />
<glyph unicode="8" horiz-adv-x="1269" d="M150 289q0 45 8 96l20 131q18 117 103 172q43 27 98 35q-66 31 -95.5 87t-29.5 107.5t10 135.5l21 133q37 231 211 291q92 33 235 32h316q174 0 256 -98q59 -74 59 -194q0 -43 -8 -95l-17 -100q-12 -88 -86 -156q-45 -43 -108 -51q119 -27 119 -229q0 -45 -9 -86 l-24 -168q-20 -123 -53 -172t-54.5 -75t-54.5 -41t-59.5 -24.5t-65.5 -13.5q-61 -6 -137 -6h-313q-342 0 -342 289zM498 356q0 -66 108 -65h156q63 0 95 26.5t40 81.5l18 117q2 14 3 29q0 84 -97 84h-164q-121 0 -137 -113l-18 -117q-4 -18 -4 -43zM596 967 q0 -27 22.5 -46.5t81.5 -19.5h160q72 0 98.5 26.5t36.5 84.5l11 82q4 35 4 63.5t-19 40.5q-27 20 -82 23h-155q-68 0 -92 -21q-39 -29 -52 -106l-12 -82q-2 -18 -2 -45z" />
<glyph unicode="9" horiz-adv-x="1234" d="M137 41l41 254h484q145 0 202 147q29 68 47 181q-133 -43 -379 -43q-143 0 -213 63q-94 82 -94 244q0 49 11 104l30 193q27 180 133.5 249.5t292.5 69.5h287q96 0 161.5 -42t109.5 -141t44 -264t-28.5 -361.5t-68.5 -314.5t-83 -185.5t-100.5 -111.5t-106.5 -60 q-102 -35 -312 -35t-458 53zM561 932.5q0 -25.5 12.5 -45t77.5 -19.5h299q16 90 16.5 150.5t-12.5 99.5q-27 82 -135 82h-108q-55 0 -87 -23.5t-42 -89.5l-15 -96q-6 -33 -6 -58.5z" />
<glyph unicode=":" horiz-adv-x="532" d="M123 47l35 209q6 51 57 51h201q43 0 43 -37v-14l-35 -209q-8 -47 -57 -47h-201q-20 0 -32.5 13.5t-10.5 33.5zM248 827l33 209q8 51 57 51h201q43 0 43 -34v-17l-33 -209q-8 -47 -57 -47h-201q-23 0 -35 13.5t-8 33.5z" />
<glyph unicode=";" horiz-adv-x="532" d="M98 -180l19 110q29 0 45 9.5t19 17.5t7 23l2 20h-22q-23 0 -35 14.5t-8 36.5l33 203q8 55 59 55h197q41 0 41 -41v-14l-45 -277q-10 -68 -46 -108.5t-81 -50.5q-47 -10 -89 -10.5t-67 6.5zM250 827l33 209q6 54 57 54h201q43 0 43 -37v-17l-33 -209q-8 -45 -59 -45h-201 q-20 0 -31.5 12.5t-9.5 32.5z" />
<glyph unicode="&#x3c;" horiz-adv-x="903" d="M158 569l49 303l813 283l-49 -303l-453 -139l408 -142l-47 -301z" />
<glyph unicode="=" horiz-adv-x="956" d="M96 356l43 275h875l-43 -275h-875zM166 801l43 274h876l-45 -274h-874z" />
<glyph unicode="&#x3e;" horiz-adv-x="903" d="M111 270l49 303l456 164l-413 119l47 299l723 -283l-47 -303z" />
<glyph unicode="?" horiz-adv-x="1112" d="M217 1208l41 250q264 57 504 58q41 0 105.5 -1.5t136 -26t118.5 -67.5q100 -94 113 -211q2 -29 2 -58.5t-4 -61.5l-21 -162q-29 -211 -149 -289q-100 -66 -289 -66q-37 0 -78 2l-26 -176h-260l65 424h113t116.5 1t75.5 16q82 33 101 139l10 76q2 18 2 35q0 55 -38 86.5 t-144 31.5h-494zM332 47l33 209q6 51 57 51h201q45 0 45 -37q0 -6 -2 -14l-35 -209q-6 -47 -58 -47h-200q-20 0 -32.5 13.5t-8.5 33.5z" />
<glyph unicode="@" horiz-adv-x="1857" d="M86 -43q0 68 8 137l154 973q39 240 175 333t384 93h737q360 0 361 -385q0 -63 -13 -133l-98 -647q-23 -160 -113 -241t-299 -81h-217l-49 109q-90 -123 -250 -123q-195 0 -278 158q-55 100 -56 258q0 82 18.5 197.5t57.5 212.5t84 153.5t107 89.5q100 57 252 57 q305 0 448 -139l-102 -713q76 0 104.5 32t46.5 153l82 555q8 49 8 101t-24 81q-37 45 -144 45h-720q-137 0 -189 -78q-41 -59 -55 -149l-150 -940q-4 -31 -4 -73t25 -79q35 -53 158 -53h790l-33 -203q-276 -55 -598 -55h-186q-221 0 -320 102q-102 104 -102 252zM793 390 q0 -56 29.5 -98t95.5 -42q176 0 233 139l70 455q-84 16 -185.5 16t-153 -67.5t-69.5 -192.5q-20 -154 -20 -210z" />
<glyph unicode="A" horiz-adv-x="1429" d="M61 0l727 1499h390l235 -1499h-344l-53 301h-441l-141 -301h-373zM705 592h284l-67 481z" />
<glyph unicode="B" horiz-adv-x="1228" d="M111 0l237 1499h619q113 0 194.5 -36t120.5 -95q63 -96 64 -217q0 -43 -9 -88q-16 -113 -87.5 -192.5t-174.5 -92.5q98 -16 154 -121q41 -76 41 -178q0 -131 -40 -227t-81 -141t-107 -70q-109 -41 -307 -41h-624zM492 291h274q137 0 164 174q4 26 4 51q0 131 -111 131 h-274zM594 922h258q84 0 125 67q29 47 29 115q0 104 -109 104h-258z" />
<glyph unicode="C" horiz-adv-x="1165" d="M170 510q0 154 26.5 315.5t70.5 289.5t118 221.5t182.5 136.5t274.5 43t273.5 -16.5t232.5 -61.5l-43 -262q-273 34 -418 34h-8h-5.5h-23t-35.5 -1t-45 -5t-44 -11t-38.5 -23.5t-38 -39t-34 -57.5t-31.5 -80q-33 -113 -54.5 -244t-21.5 -217t18 -135q41 -100 199 -104 h100t344 18l-41 -262q-109 -39 -213 -50t-195 -11h-132q-139 2 -232.5 63.5t-134.5 169.5q-51 135 -51 289z" />
<glyph unicode="D" horiz-adv-x="1333" d="M111 0l237 1499h625q123 0 210 -45t134 -119q84 -137 84 -372q0 -115 -23 -267q-78 -510 -315 -635q-119 -61 -301 -61h-651zM492 291h262q119 0 186.5 112.5t103.5 341.5q23 168 23 249t-23.5 129t-61.5 66.5t-97 18.5h-248z" />
<glyph unicode="E" horiz-adv-x="1142" d="M143 258q0 33 4 70l138 860q30 195 153 258q57 31 113.5 42t93.5 11h41q453 -8 629 -33l-45 -280h-541q-100 0 -119 -80q-2 -12 -6 -35l-24 -164l544 -22l-45 -277l-551 -18l-28 -176q-3 -18 -3 -33q0 -49 31 -62q31 -12 82 -12h523l-46 -278q-145 -18 -501 -31l-119 -4 h-33.5t-64.5 6t-90 29q-135 63 -136 229z" />
<glyph unicode="F" horiz-adv-x="1144" d="M102 0l183 1155q43 269 270 328q61 16 96 16h39q451 -8 629 -33l-45 -280h-541q-76 0 -98 -37q-20 -29 -27 -78l-26 -170l546 -20l-43 -279l-555 -18l-92 -584h-336z" />
<glyph unicode="G" horiz-adv-x="1259" d="M170 494q0 152 30.5 314.5t62.5 267t79 193.5t113 140q133 107 366 107h74t149 -7q137 -10 353 -69l-41 -256q-6 2 -27.5 5t-48.5 6t-63.5 7t-77.5 8t-84 9q-98 6 -177 6t-125 -16.5t-89 -67.5q-78 -92 -123 -389q-27 -154 -27 -206v-61q2 -100 44 -143t138 -43 q109 0 203 80q10 8 19 20l36 213h-161l32 211q117 49 367 49q66 0 139 -4l-139 -868h-240l-75 104q-72 -74 -148 -92q-90 -25 -176 -25q-1 0 -3 1q-87 0 -157.5 28.5t-118.5 87.5q-104 139 -104 390z" />
<glyph unicode="H" horiz-adv-x="1302" d="M113 0l237 1499h336l-98 -622h440l98 622h336l-237 -1499h-336l90 573h-440l-90 -573h-336z" />
<glyph unicode="I" horiz-adv-x="546" d="M115 0l237 1499h336l-237 -1499h-336z" />
<glyph unicode="J" horiz-adv-x="727" d="M55 49l43 264q41 -2 73 -2t64.5 3t70.5 23.5t56.5 60.5t28.5 110l158 991h336l-185 -1161q-35 -229 -157 -301q-82 -47 -224 -47q-184 0 -264 59z" />
<glyph unicode="K" horiz-adv-x="1306" d="M111 0l237 1499h320l-97 -610h91l440 610h405l-553 -778l316 -721h-381l-240 598h-123l-94 -598h-321z" />
<glyph unicode="L" horiz-adv-x="1079" d="M152 233q0 33 4 70l190 1196h336l-172 -1087q-3 -18 -3 -32q0 -50 32 -63q29 -12 82 -12h473l-50 -305h-612q-141 0 -210.5 65.5t-69.5 167.5z" />
<glyph unicode="M" horiz-adv-x="1714" d="M84 0l383 1499h463l47 -942l342 942h473l-88 -1499h-330l58 920l-340 -920h-387l-54 920l-229 -920h-338z" />
<glyph unicode="N" horiz-adv-x="1376" d="M111 0l237 1499h338l373 -887l139 887h336l-238 -1499h-333l-377 870l-137 -870h-338z" />
<glyph unicode="O" d="M178 451q0 55 1 119.5t24.5 210t58.5 259t72 190.5t93 130t104.5 83t123 45t131 18t141.5 3t148.5 -8t126 -30.5t107.5 -59.5q141 -123 141 -418q0 -131 -23.5 -281.5t-56.5 -258t-69.5 -182t-90 -127t-103.5 -82t-122 -46.5q-111 -25 -236 -25q-3 1 -5 1 q-128 0 -191.5 7t-127 28.5t-106.5 58.5q-100 84 -129 238q-12 72 -12 127zM514 532.5q0 -49.5 3 -86t16.5 -66.5t41.5 -50q49 -33 162 -33t174.5 35t104.5 130t67 249q29 180 29 255.5t-8 122t-40 72t-71 34.5t-106.5 9t-108.5 -7t-81 -32.5t-65.5 -77t-49 -135.5t-46 -227 t-22.5 -192.5z" />
<glyph unicode="P" horiz-adv-x="1224" d="M106 0l238 1499h627q129 0 229 -65q104 -66 137 -242q6 -39 6 -90t-14 -143.5t-48 -177.5t-76 -131t-92 -75.5t-99 -35.5q-94 -11 -131 -11h-7q-34 0 -73 4q-43 4 -152.5 19.5t-118.5 21.5l-90 -573h-336zM571 823h260q66 0 106 46t56 153q6 33 6 61q0 125 -106 125h-260 z" />
<glyph unicode="Q" horiz-adv-x="1366" d="M178 477q0 143 25.5 300t60.5 269.5t72 189.5t93 129t104.5 81t123 43t130 17t141.5 3t149.5 -8t126 -31.5t107.5 -62.5q141 -123 141 -420q0 -244 -68 -491q-49 -186 -98 -258t-84 -108t-83 -61.5t-90 -40t-101 -22.5q-117 -17 -219 -17q-139 0 -250 31 q-104 27 -180 113q-68 76 -93 240q-8 55 -8 104zM516 532.5q0 -49.5 3 -86t16.5 -66.5t42.5 -50q49 -33 161.5 -33t174 35t104.5 130t67 249q29 180 29 255.5t-8 122t-40 72t-71 34.5t-106.5 9t-108.5 -7t-81 -32.5t-65.5 -77t-49 -135.5t-46 -227t-22.5 -192.5zM586 -117 q0 23 2 49h184q17 -88 150 -88q70 0 170 25l-41 -256q-70 -10 -128 -10q-87 0 -147 22q-61 23 -108 60q-82 68 -82 198z" />
<glyph unicode="R" horiz-adv-x="1230" d="M106 0l238 1499h631q195 0 295 -125q72 -92 71 -254q0 -172 -55 -315q-31 -76 -60.5 -116t-72.5 -65.5t-66.5 -31.5t-56.5 -12l211 -580h-381l-166 563l-162 15l-90 -578h-336zM575 834h252q102 0 140 81q31 69 31 146q0 80 -15 106q-23 41 -92 41h-256z" />
<glyph unicode="S" horiz-adv-x="1191" d="M139 49l41 262q197 -22 506 -22q74 0 119 23.5t55 84.5l8 60q6 37 2 63q-8 55 -106 55h-178q-213 0 -299 132q-55 86 -56 215q0 33 7 73l20 164q37 246 221 314q103 39 365 39h6q268 0 457 -64l-41 -262q-227 20 -494 20q-88 0 -128 -20.5t-52 -100.5l-8 -51 q-4 -23 -4 -52.5t22.5 -50t106.5 -20.5h186q84 0 147.5 -27.5t96.5 -70.5q71 -97 71 -202q0 -50 -4 -113l-8 -133q-14 -217 -145 -304q-78 -51 -154 -63q-96 -14 -251.5 -14t-273.5 12t-235 53z" />
<glyph unicode="T" horiz-adv-x="1212" d="M238 1194l49 305h1132l-49 -305h-405l-189 -1194h-336l189 1194h-391z" />
<glyph unicode="U" horiz-adv-x="1337" d="M190 424q0 135 23 268l129 807h338l-135 -852q-15 -97 -15 -167q0 -67 17 -107q35 -78 180 -78t204.5 82t88.5 270l135 852h338l-127 -899q-53 -346 -209 -479q-133 -113 -342 -127q-55 -4 -123.5 -4t-117 5t-101.5 17.5t-94 36t-78 57.5q-68 63 -98 213q-12 57 -13 105z " />
<glyph unicode="V" horiz-adv-x="1415" d="M276 1499h355l119 -1073l475 1073h372l-712 -1499h-398z" />
<glyph unicode="W" horiz-adv-x="2074" d="M276 1499h353l123 -1057l428 1057h356l-166 -377l98 -682l437 1059h354l-649 -1499h-385l-86 561l-242 -561h-410z" />
<glyph unicode="X" horiz-adv-x="1349" d="M61 0l551 774l-317 725h369l180 -467l327 467h377l-563 -790l311 -709h-370l-172 451l-316 -451h-377z" />
<glyph unicode="Y" d="M276 1499h365l139 -692l385 692h381l-651 -1059l-72 -440h-336l72 440z" />
<glyph unicode="Z" horiz-adv-x="1136" d="M49 0l49 305l774 889h-634l49 305h1040l-49 -305l-746 -889h607l-49 -305h-1041z" />
<glyph unicode="[" horiz-adv-x="694" d="M106 -176q0 61 11 127l217 1331q31 190 129 270t315 80h164l-45 -274h-86q-63 0 -100 -36t-52 -126l-206 -1274q-6 -41 -7 -76q0 -94 103 -94h94l-43 -274h-188q-86 0 -150 30q-156 80 -156 316z" />
<glyph unicode="\" horiz-adv-x="962" d="M274 1577h338l303 -1724h-337z" />
<glyph unicode="]" horiz-adv-x="684" d="M-41 -522l43 274h88q61 0 99 36t55 126l200 1274q6 37 6.5 73.5t-19 66.5t-87.5 30h-86l43 274h170q100 0 170 -36.5t102 -100.5q47 -96 48 -213q0 -47 -9 -98l-196 -1356q-23 -156 -105 -246q-94 -104 -327 -104h-195z" />
<glyph unicode="^" horiz-adv-x="780" d="M242 1087l258 283h237l148 -283h-205l-76 119l-117 -119h-245z" />
<glyph unicode="_" horiz-adv-x="1378" d="M53 -2l45 274h1299l-45 -274h-1299z" />
<glyph unicode="`" horiz-adv-x="501" d="M244 1376h268l135 -289h-201z" />
<glyph unicode="a" horiz-adv-x="1114" d="M125 371q0 123 22.5 233.5t52 185t62.5 125t77 86t82 56t91 30.5q88 21 212 21h4q122 0 257 -28q137 -28 209 -99l-143 -977h-263l-51 107q-39 -55 -128 -89t-183 -34q-166 0 -252 164q-49 96 -49 219zM465 401q0 -137 104 -137q135 0 197 105l70 465q-47 20 -95.5 20 t-74 -5t-41 -11.5t-36 -17.5t-34.5 -30.5t-29 -48.5q-31 -55 -45 -157q-16 -119 -16 -183z" />
<glyph unicode="b" horiz-adv-x="1140" d="M82 0l254 1608h336l-90 -572q150 68 311 68q248 0 285 -256q8 -57 8 -100q0 -117 -25 -271q-43 -270 -141 -379.5t-278.5 -109.5t-305.5 118l-71 -106h-283zM471 324q56 -58 193 -58q63 0 100 60.5t58.5 200t21.5 191.5t-6 75q-16 59 -84 59q-127 0 -205 -37z" />
<glyph unicode="c" horiz-adv-x="1003" d="M135 355q0 122 19.5 245t53.5 217t74 149.5t93 87t104 42t138.5 10.5t233.5 -16.5t251 -53.5l-33 -202q-162 14 -276.5 14t-139 -4t-54.5 -18.5t-46 -49.5q-39 -78 -59 -196q-23 -133 -23 -182.5t6 -78t29 -45.5q36 -26 117 -26h6q170 0 317 14l49 4l-32 -205 q-115 -45 -220.5 -58t-194.5 -13h-120q-164 2 -244 151q-49 92 -49 214z" />
<glyph unicode="d" horiz-adv-x="1124" d="M133 378q0 114 20.5 229.5t49 200.5t78 156.5t128 105.5t215 34t265.5 -68l90 572h336l-256 -1608h-281l-41 106q-159 -118 -308 -118h-3q-184 0 -254 172q-39 104 -39 218zM477 401.5q0 -53.5 8 -77.5q16 -57 80 -58q133 0 209 58l78 491q-63 37 -195 37 q-41 0 -67.5 -19.5t-53 -87t-43 -179t-16.5 -165z" />
<glyph unicode="e" horiz-adv-x="1081" d="M129 387q0 109 22.5 229.5t47 192.5t64.5 132t97 95q127 72 359 72q178 0 299 -59q131 -66 131 -234q0 -115 -38 -199t-92 -128t-122 -69.5t-122 -30.5t-144 -5t-158 29q-6 -31 -6 -71t29 -67q30 -28 130 -28h7q223 0 424 37l-41 -238q-204 -65 -440 -65h-7q-70 0 -139 6 q-301 18 -301 401zM500 629q43 -8 96 -8t91 8t73 37q47 37 47 106q0 37 -24.5 57.5t-90.5 20.5q-123 0 -160 -96q-18 -43 -32 -125z" />
<glyph unicode="f" horiz-adv-x="829" d="M160 844l33 209l167 34l27 170q31 195 127 274t269 79t268 -49l-31 -197l-170 2h-9q-68 0 -87 -31q-10 -16 -15.5 -24t-11.5 -39q-8 -39 -18 -107l-13 -78h234l-37 -243h-236l-137 -844h-336l135 844h-159z" />
<glyph unicode="g" horiz-adv-x="1142" d="M27 -508l34 223h437q82 0 136 49.5t68 145.5l27 172q-102 -78 -252.5 -78t-234.5 77t-99 214q-4 47 -4 124t19.5 209t63.5 228t108 152q121 102 315 102q223 0 374.5 -25.5t203.5 -42.5l-187 -1177q-68 -426 -452 -426q-39 0 -84 4zM473 374.5q0 -18.5 4 -37t17 -40.5 q23 -39 105.5 -39t164.5 41l90 565h-166q-70 0 -108 -47q-21 -24 -35.5 -49t-38 -113t-28.5 -175t-5 -105.5z" />
<glyph unicode="h" horiz-adv-x="1130" d="M82 0l254 1602h336l-101 -627q139 100 238 121q51 10 129 10t139.5 -31t83.5 -84q29 -68 29 -142.5t-12 -135.5l-113 -713h-336l113 717q4 27 4 47q0 84 -80 84q-72 0 -124 -20.5t-101 -65.5l-123 -762h-336z" />
<glyph unicode="i" horiz-adv-x="485" d="M76 0l172 1087h336l-172 -1087h-336zM266 1243l31 207q6 51 57 51h256q39 0 39 -37q0 -6 -2 -14l-31 -207q-6 -47 -55 -47h-254q-23 0 -34 14q-8 10 -8 23q0 5 1 10z" />
<glyph unicode="j" horiz-adv-x="518" d="M4 -553l262 1640h336l-176 -1095q-25 -170 -61.5 -301t-106.5 -244h-254zM281 1243l32 207q8 51 58 51h256q41 0 41 -41q0 -4 -2 -10l-33 -207q-6 -47 -55 -47h-254q-23 0 -36 14q-8 9 -8 22q0 5 1 11z" />
<glyph unicode="k" horiz-adv-x="1116" d="M82 0l254 1602h336l-142 -893q121 47 220.5 147t142.5 231h352q-94 -344 -368 -497l303 -590h-369l-238 481l-77 -2l-78 -479h-336z" />
<glyph unicode="l" horiz-adv-x="643" d="M131 279q0 49 8 108l193 1217h336l-183 -1155q-10 -63 -10 -100q1 -30 7 -44q14 -31 25 -41t70.5 -35.5t69.5 -25.5l-31 -203h-200q-156 0 -232 92q-53 66 -53 187z" />
<glyph unicode="m" horiz-adv-x="1775" d="M82 0l172 1087h276l43 -112q6 4 34 23.5t52.5 35t67.5 35.5q75 35 188 35q199 0 250 -137q66 41 115 66.5t128 48t164 22.5t145.5 -30t84.5 -83q31 -68 31 -143.5t-10 -138.5l-115 -709h-336l115 717q4 23 4 41q0 88 -80 88q-143 0 -227 -76q-2 -4 -6 -28.5t-4 -32.5 l-113 -709h-336l113 717q4 23 4 41q0 88 -80 88q-94 0 -141.5 -27.5t-81.5 -58.5l-121 -760h-336z" />
<glyph unicode="n" horiz-adv-x="1130" d="M82 0l172 1087h276l43 -112q145 104 238 121q49 10 127 10t139.5 -31t83.5 -84q29 -68 29 -142.5t-12 -135.5l-113 -713h-336l113 717q4 27 4 47q0 84 -80 84q-72 0 -124 -20.5t-101 -65.5l-123 -762h-336z" />
<glyph unicode="o" horiz-adv-x="1136" d="M135 389q0 80 18.5 195.5t50.5 208t77 154t112 95.5q123 60 348 60q274 0 369 -146q61 -96 61 -264q0 -90 -18 -207.5t-48 -201.5t-73 -142.5t-108 -91.5q-123 -59 -353 -59q-274 0 -372 139q-63 94 -64 260zM469 392q0 -34 2 -56.5t10 -41t29 -28.5q29 -16 92.5 -16 t92 6t54 36t40 83t33 158.5t18.5 144.5q0 117 -32 141.5t-124 24.5t-129 -55.5t-61.5 -209t-24.5 -187.5z" />
<glyph unicode="p" horiz-adv-x="1138" d="M-4 -553l256 1589q94 29 261 45.5t325 16.5q203 0 284 -160q53 -104 54 -262q0 -82 -17 -180q-41 -276 -152.5 -396t-336.5 -120q-164 0 -240 79l-98 -612h-336zM463 274q53 -41 135 -41h35q82 4 122 70t62.5 205t22.5 205q0 141 -113 141h-168z" />
<glyph unicode="q" horiz-adv-x="1132" d="M137 393q0 78 20.5 212t63.5 234.5t107.5 159t141.5 83t207 24.5t297 -19.5t243 -48.5l-250 -1591h-336l96 612q-103 -80 -253 -80q-1 0 -2 1q-150 0 -233 75.5t-98 212.5q-4 47 -4 125zM469 388q0 -54 4 -79q16 -76 111.5 -76t177.5 41l90 588h-168q-133 0 -178 -221 q-6 -33 -21.5 -116t-15.5 -137z" />
<glyph unicode="r" horiz-adv-x="847" d="M82 0l172 1087h291l24 -137q139 148 301 148q78 0 109 -13l-51 -321q-61 2 -155.5 2t-153 -22.5t-99.5 -98.5l-102 -645h-336z" />
<glyph unicode="s" horiz-adv-x="1042" d="M109 53l30 205h496q57 0 67 53l7 35q6 39 -10.5 47t-41.5 8h-221q-201 0 -258 154q-18 49 -18 95t4 83l16 96q23 133 100.5 202t236.5 69t250 -2t195.5 -17t135.5 -45l-33 -205h-475q-39 0 -55.5 -13t-22.5 -44l-4 -35q-6 -29 -1 -35t7 -9t7 -5t7 -3t9.5 -1h9.5h10h8h232 q152 0 215 -94q45 -68 45 -158q0 -33 -4 -65l-21 -123q-25 -162 -123 -215q-82 -43 -183 -43h-159.5t-146.5 4t-141 10q-135 16 -170 51z" />
<glyph unicode="t" horiz-adv-x="768" d="M145 846l27 176l178 68l101 303h282l-47 -303h215l-37 -244h-217l-63 -395q-10 -51 -11 -79t5 -56.5t18 -44t75.5 -43t73.5 -27.5l-30 -203h-219q-141 0 -215 96q-51 66 -52 185q0 51 11 110l71 457h-166z" />
<glyph unicode="u" horiz-adv-x="1128" d="M127 377l115 710h336l-115 -718q-4 -27 -4 -54.5t15 -50t77 -22.5q119 0 215 86l119 759h336l-172 -1087h-277l-41 111q-86 -68 -158.5 -98.5t-178 -30.5t-166 30.5t-85.5 83.5q-29 65 -29 138q0 74 13 143z" />
<glyph unicode="v" horiz-adv-x="1110" d="M164 1087h356l82 -718l217 469q57 121 70 252h315q6 -35 6 -74q0 -133 -80 -291l-370 -725h-408z" />
<glyph unicode="w" horiz-adv-x="1718" d="M164 1087h354l82 -716l215 465q59 121 70 254h315q6 -37 6 -103.5t-41 -171.5l-22 -57l69 -385l220 465q59 121 69 252h314q8 -37 8 -76q0 -135 -82 -289l-379 -725h-379l-63 360l-166 -360h-402z" />
<glyph unicode="x" horiz-adv-x="1208" d="M33 0l456 567l-284 520h401l121 -292l215 292h406l-459 -581l274 -506h-389l-123 279l-209 -279h-409z" />
<glyph unicode="y" horiz-adv-x="1163" d="M164 1087h348l45 -729q6 -74 92 -79l232 559q39 98 53 252h315q8 -41 8 -84q0 -129 -67 -285l-313 -721q-135 -309 -326 -453q-111 -82 -189 -108q-94 -29 -178 -43v235q131 66 212 155t145 214q-281 0 -308 295z" />
<glyph unicode="z" horiz-adv-x="983" d="M72 2l43 272l532 539h-475l41 274h903l-41 -274l-508 -537h420l-43 -274h-872z" />
<glyph unicode="{" horiz-adv-x="655" d="M115 473l39 246q66 4 105.5 24.5t47.5 77.5l78 477q29 180 151.5 257t364.5 77l-41 -274h-2q-76 0 -110.5 -46t-55.5 -184l-51 -329q-31 -186 -238 -205q92 -18 133.5 -64.5t41.5 -105.5q0 -14 -5 -33l-69 -432q-10 -59 -10 -102t10 -68q20 -53 94 -53q2 0 4 2l-41 -260 q-244 0 -338 112q-72 84 -71 215q0 43 8 93l73 462q2 10 2.5 36t-27.5 52.5t-79 26.5q-6 0 -14 -2z" />
<glyph unicode="|" horiz-adv-x="507" d="M94 -147l271 1724h274l-270 -1724h-275z" />
<glyph unicode="}" horiz-adv-x="655" d="M-41 -522l41 260l2 -2q76 0 110.5 48t51.5 161l69 426q25 162 234 202q-174 14 -174 160q0 20 4 45l51 336q12 80 12 127t-8 70q-18 47 -90 47h-4l43 274q119 0 203 -35.5t125 -95.5q66 -96 65 -217q0 -45 -10 -92l-49 -389v-17q0 -43 31.5 -68.5t91.5 -27.5l-41 -244 h-15q-121 0 -137 -104l-88 -520q-33 -195 -147.5 -269.5t-370.5 -74.5z" />
<glyph unicode="~" horiz-adv-x="841" d="M258 1212q145 148 274 148q45 0 104.5 -36t100.5 -36h8q92 0 197 82l29 -135q-133 -147 -254 -148q-47 0 -116 36t-107.5 36t-73.5 -10q-49 -14 -129 -62z" />
<glyph unicode="&#xa1;" horiz-adv-x="569" d="M29 -553l211 1094h264l-139 -1094h-336zM244 680v12l32 205q6 43 58 47h198q20 -2 33 -17.5t8 -35.5l-30 -199q-8 -51 -51 -53h-209q-39 0 -39 41z" />
<glyph unicode="&#xa2;" horiz-adv-x="991" d="M121 355q0 122 20.5 245t54 217t72.5 148.5t94.5 85t104.5 40t84 9.5t41 -2l33 200h196l-33 -204q174 -18 299 -66l-32 -201q-162 12 -273.5 12.5t-131 -0.5t-48.5 -10.5t-42 -27t-32 -51.5q-29 -53 -47 -164q-25 -145 -24.5 -183t4.5 -64t13 -44.5t32 -30.5 q35 -16 115 -16q164 0 311 14l49 4l-33 -205q-135 -70 -342 -73l-28 -183h-197l31 185q-164 2 -242 151q-49 92 -49 214z" />
<glyph unicode="&#xa3;" horiz-adv-x="1183" d="M70 0l41 258l139 47l51 326h-133l29 168l139 49l26 172q37 231 119 330q66 76 119 97t88 30.5t90 13.5q80 8 193.5 8.5t310.5 -24.5l66 -9l-43 -270h-379q-121 0 -166 -34t-64 -154l-24 -160l409 -33l-28 -184h-416l-51 -326h577l-49 -305h-1044z" />
<glyph unicode="&#xa4;" horiz-adv-x="907" d="M135 371l115 100q-25 61 -25 121q0 109 66 201l-86 96l123 110l82 -94q92 57 191 57.5t171 -53.5l111 97l98 -105l-119 -104q23 -54 23 -115q0 -135 -92 -242l81 -92l-120 -115l-95 107q-68 -35 -157.5 -35t-161.5 53l-111 -98zM403 592q0 -29 33 -69t81 -40t78 11.5 t52.5 32t36.5 48t19.5 50t5.5 52.5t-33 69.5t-97.5 39.5t-120 -50t-55.5 -144z" />
<glyph unicode="&#xa5;" horiz-adv-x="1323" d="M254 274l29 183h262l8 63h-260l31 185h161l-223 794h365l135 -668l371 668h399l-514 -794h180l-31 -185h-278l-8 -63h276l-29 -183h-276l-41 -274h-336l41 274h-262z" />
<glyph unicode="&#xa6;" horiz-adv-x="509" d="M94 -147l107 671h274l-106 -671h-275zM254 879l111 698h274l-111 -698h-274z" />
<glyph unicode="&#xa7;" horiz-adv-x="1097" d="M154 23l36 235h465q41 0 59.5 11.5t24.5 43.5l9 56q6 41 -23 51q-14 6 -41 6h-211q-152 0 -223.5 63.5t-71.5 161.5q0 27 4 58l8 49q16 104 54 147q45 51 123 74q-104 57 -105 192q0 31 6 68l11 82q37 285 346 285q410 0 571 -39l-37 -236h-469q-70 0 -80 -61l-6 -45 q-2 -8 -2 -15q0 -49 64 -49h208q164 0 232 -62.5t68 -156.5q0 -25 -5 -53l-8 -49q-27 -178 -170 -222q51 -10 76 -56t25 -83t-5 -104l-14 -105q-31 -180 -127 -237q-84 -49 -209 -49q-446 0 -583 39zM528 727q0 -43 74 -43h107q68 0 84 27q12 16 16 51l10 59q4 21 4 35 q0 45 -80 45h-106q-55 0 -72.5 -18.5t-23.5 -65.5l-11 -57q-2 -14 -2 -33z" />
<glyph unicode="&#xa8;" horiz-adv-x="909" d="M256 1165q0 70 48 111t100.5 41t80 -33t27.5 -57.5t-4 -47t-25.5 -51t-53.5 -46t-64 -17.5q-74 0 -101 63q-8 20 -8 37zM778 1165q0 70 48 111t100.5 41t80 -33t27.5 -57q0 -78 -48 -120t-91 -42q-82 0 -109 63q-8 20 -8 37z" />
<glyph unicode="&#xa9;" horiz-adv-x="1626" d="M174 580q0 205 66 430q68 231 200 352q154 137 408 137h442q119 0 203 -45t127 -119q78 -131 78 -356q0 -117 -25 -270q-113 -709 -608 -709h-440q-272 0 -387 244q-63 133 -64 336zM383 567q0 -375 262 -374h428q336 0 410 688q8 80 8 141t-11.5 105t-33.5 90 q-47 90 -180 90h-445q-246 0 -352 -277q-43 -113 -64.5 -245t-21.5 -218zM553 587q0 99 17.5 204.5t51 189.5t83.5 129q86 84 227 84q229 0 371 -49l-25 -168q-170 25 -263 24.5t-123 -12.5t-52 -43q-43 -55 -66 -205q-8 -51 -8 -92q0 -156 127 -155q145 0 326 32l-27 -168 q-131 -57 -387 -57q-135 0 -207 115q-45 72 -45 171z" />
<glyph unicode="&#xaa;" horiz-adv-x="741" d="M125 532l22 152h670l-22 -152h-670zM172 1020q0 82 17.5 166t49 145.5t65.5 93t83 50t82 22.5t63.5 5t60.5 1t89 -7t125.5 -27.5t99.5 -51.5l-96 -653h-172l-37 92q-25 -47 -91.5 -74.5t-131.5 -27.5q-106 0 -170 114q-37 70 -37 152zM406 1063q0 -98 69 -98 q104 0 148 73l39 271q-31 14 -72 14t-63.5 -6t-42 -17.5t-40 -49.5t-29.5 -93t-9 -94z" />
<glyph unicode="&#xab;" horiz-adv-x="1200" d="M184 725l488 416l147 -174l-303 -260l227 -265l-194 -143zM643 725l487 416l150 -174l-305 -260l227 -265l-194 -143z" />
<glyph unicode="&#xac;" horiz-adv-x="985" d="M131 479l41 258h875q-8 -49 -20.5 -127t-26 -156.5t-19.5 -127.5h-260l24 153h-614z" />
<glyph unicode="&#xad;" horiz-adv-x="722" d="M113 457l43 274h643l-43 -274h-643z" />
<glyph unicode="&#xae;" horiz-adv-x="1626" d="M174 580q0 205 66 430q68 231 200 352q154 137 408 137h442q119 0 203 -45t127 -119q78 -131 78 -356q0 -117 -25 -270q-113 -709 -608 -709h-440q-272 0 -387 244q-63 133 -64 336zM383 567q0 -375 262 -374h428q336 0 410 688q8 80 8 141t-11.5 105t-33.5 90 q-47 90 -180 90h-445q-246 0 -352 -277q-43 -113 -64.5 -245t-21.5 -218zM543 313l139 875h377q106 0 176 -55q59 -47 59 -158q0 -121 -37.5 -193.5t-71.5 -98.5t-85 -40l123 -330h-224l-114 318l-80 24l-55 -342h-207zM827 807h123q78 0 99.5 17.5t27.5 59.5t6 64.5 t-18 34.5t-86 12h-121z" />
<glyph unicode="&#xaf;" horiz-adv-x="735" d="M242 1087l26 175h598l-26 -175h-598z" />
<glyph unicode="&#xb0;" horiz-adv-x="546" d="M268 1280q0 66 34 116t83 76.5t121 26.5t126 -56.5t54 -131.5q0 -98 -66.5 -157.5t-153.5 -59.5t-142.5 54t-55.5 132zM395 1292q0 -35 21.5 -57.5t48.5 -22.5t42 6.5t25 18.5q27 25 27 59.5t-20.5 58t-54 23.5t-61.5 -25.5t-28 -60.5z" />
<glyph unicode="&#xb1;" horiz-adv-x="1005" d="M98 131l43 275h852l-43 -275h-852zM203 778l43 275h286l46 286h274l-45 -286h291l-43 -275h-291l-47 -291h-275l47 291h-286z" />
<glyph unicode="&#xb2;" horiz-adv-x="825" d="M131 727l37 223q137 82 268 178q252 183 266 271q2 14 3 39q0 61 -144 61h-315l22 146l11 47q215 41 413 41q152 0 221 -99q55 -78 56 -172q0 -193 -203 -377q-66 -59 -152 -124h277l-37 -234h-723z" />
<glyph unicode="&#xb3;" horiz-adv-x="835" d="M135 760l33 190h315q78 0 110 13.5t38 56.5q8 47 -6 63q-23 25 -109 29l-240 8l33 207l244 10q74 4 104 17q33 14 39 69q10 53 -49 64q-27 4 -69 4h-334l28 188q127 45 385 45q37 0 74 -2q119 0 174.5 -67.5t55.5 -149.5q0 -25 -5 -51l-10 -57q-25 -156 -149 -178 q92 -29 92 -164q0 -29 -4 -60l-8 -45q-37 -233 -312 -233h-2h-80q-82 0 -101.5 2t-49 3t-44 3t-39 5t-40.5 7q-47 12 -74 23z" />
<glyph unicode="&#xb4;" horiz-adv-x="497" d="M199 1087l219 289h272l-289 -289h-202z" />
<glyph unicode="&#xb5;" horiz-adv-x="1198" d="M37 -553l260 1640h336l-115 -718q-4 -25 -4 -45q0 -82 80 -82q74 0 125 19.5t102 66.5l121 759h336l-172 -1087h-277l-43 111q-14 -6 -54 -30t-58 -34q-94 -49 -180 -49q-16 0 -35 2l-86 -553h-336z" />
<glyph unicode="&#xb6;" horiz-adv-x="1177" d="M209 998.5q0 29.5 6 58.5l29 188q23 143 116.5 198.5t249.5 55.5h779l-37 -233h-97l-200 -1266h-228l201 1270h-115l-288 -1823h-228l207 1315l-18 -10q-45 -25 -114 -25t-129 29.5t-88 78t-37 91.5t-9 72.5zM444.5 1027.5q-0.5 -11.5 5 -26t8.5 -24.5t19 -14 q25 -8 60 -9h98l49 318h-94q-68 0 -90.5 -22.5t-34.5 -90.5l-16 -106q-4 -14 -4.5 -25.5z" />
<glyph unicode="&#xb7;" horiz-adv-x="530" d="M223 684l35 209q6 53 57 53h201q43 0 43 -37v-16l-35 -209q-8 -45 -57 -45h-201q-20 0 -32.5 12.5t-10.5 32.5z" />
<glyph unicode="&#xb8;" horiz-adv-x="493" d="M12 -369l23 140l88 30q43 18 55 40t23 83h215q-27 -160 -88.5 -226.5t-196.5 -66.5h-119z" />
<glyph unicode="&#xb9;" horiz-adv-x="573" d="M221 1425l25 177q35 0 113.5 38.5t113.5 79.5h252l-158 -993h-256l119 737q-47 -39 -209 -39z" />
<glyph unicode="&#xba;" horiz-adv-x="788" d="M154 535l22 149h672l-23 -149h-671zM221 1038q0 49 13.5 135.5t43 155t80 107.5t115.5 53q63 14 174.5 14t183.5 -41q104 -61 105 -235q0 -57 -10 -129q-31 -197 -117 -265.5t-278.5 -68.5t-262.5 94q-47 66 -47 180zM459 1013.5q0 -14.5 12 -28.5q20 -25 76.5 -24.5 t77.5 8.5q39 18 61 155q12 76 12 109t-4 43q-12 31 -88 31t-97.5 -29t-39.5 -154q-6 -55 -8 -75.5t-2 -35z" />
<glyph unicode="&#xbb;" horiz-adv-x="1196" d="M143 477l308 271l-211 239l184 154l358 -418l-483 -424zM604 477l309 271l-213 239l185 154l358 -418l-481 -424z" />
<glyph unicode="&#xbc;" horiz-adv-x="2029" d="M221 1221l25 176q35 0 113.5 39t113.5 80h252l-158 -994h-256l119 738q-47 -39 -209 -39zM408 0l1050 1577h248l-1051 -1577h-247zM1182 295l434 694h272l-344 -567h187l30 196l64 103h198l-47 -299h92l-32 -199l-101 -39l-24 -182h-246l27 180h-465z" />
<glyph unicode="&#xbd;" horiz-adv-x="2101" d="M221 1221l25 176q35 0 113.5 39t113.5 80h252l-158 -994h-256l119 738q-47 -39 -209 -39zM401 0l1049 1577h250l-1053 -1577h-246zM1327 -2l35 223q137 82 268 178q252 183 266 271q2 14 2 41q0 59 -141 59h-315q-2 0 22 145l6 48q217 41 416 41q152 0 221 -99 q55 -78 56 -172q0 -193 -203 -377q-66 -59 -154 -125h279l-37 -233h-721z" />
<glyph unicode="&#xbe;" horiz-adv-x="2256" d="M135 555l33 190h315q78 0 110 13.5t38 56.5q4 25 4 43q0 45 -119 49l-240 8l33 207l244 11q109 4 129 34q10 14 14 46t-10 49q-23 25 -108 24h-334l28 189q127 45 385 45q37 0 74 -2q119 0 174.5 -68t55.5 -150q0 -25 -5 -51l-10 -57q-24 -155 -149 -178q92 -29 92 -164 q0 -29 -4 -59l-8 -46q-37 -233 -312 -233h-7h-43h-48t-44 1t-47.5 2t-43 2t-44 3t-39 5t-40.5 7q-47 12 -74 23zM614 0l1051 1577h248l-1051 -1577h-248zM1368 295l434 694h273l-346 -567h186l31 196l63 103h201l-47 -299h90l-31 -199l-102 -39l-23 -182h-248l29 180h-467z " />
<glyph unicode="&#xbf;" horiz-adv-x="1107" d="M25 -176q0 39 6 72l20 129q33 213 152 297q102 70 291 69q35 0 71 -2l29 176h262l-68 -424q-35 2 -112.5 2t-102.5 -2q-80 -2 -128 -37.5t-60 -117.5l-12 -76q-4 -18 -4 -42t14 -52q29 -59 170 -60h494l-39 -248q-266 -59 -506 -59q-41 0 -82 2q-109 0 -193 41 q-152 74 -192 248q-10 45 -10 84zM598 694q0 6 2 15l33 209q6 47 57 47h203q20 0 31.5 -12.5t9.5 -34.5l-33 -209q-6 -51 -57 -52h-201q-45 0 -45 37z" />
<glyph unicode="&#xc0;" horiz-adv-x="1429" d="M61 0l727 1499h390l235 -1499h-344l-53 301h-441l-141 -301h-373zM700 1921h269l137 -289h-203zM705 592h284l-67 481z" />
<glyph unicode="&#xc1;" horiz-adv-x="1429" d="M61 0l727 1499h390l235 -1499h-344l-53 301h-441l-141 -301h-373zM705 592h284l-67 481zM903 1632l219 289h271l-287 -289h-203z" />
<glyph unicode="&#xc2;" horiz-adv-x="1429" d="M61 0l727 1499h390l235 -1499h-344l-53 301h-441l-141 -301h-373zM682 1632l258 281h238l149 -281h-205l-75 121l-136 -121h-229zM705 592h284l-67 481z" />
<glyph unicode="&#xc3;" horiz-adv-x="1429" d="M61 0l727 1499h390l235 -1499h-344l-53 301h-441l-141 -301h-373zM672 1757q143 145 272 146q49 0 108.5 -36t96.5 -36h21.5t56.5 12q74 23 127 68l28 -135q-139 -143 -254 -144q-49 0 -116.5 36t-114.5 36q-80 0 -195 -72zM705 592h284l-67 481z" />
<glyph unicode="&#xc4;" horiz-adv-x="1429" d="M61 0l727 1499h390l235 -1499h-344l-53 301h-441l-141 -301h-373zM637 1724q0 78 48 119t100.5 41t80 -31.5t27.5 -56.5q0 -80 -48 -122t-100.5 -42t-80 34t-27.5 58zM705 592h284l-67 481zM1159 1724q0 78 48 119t100.5 41t80 -31.5t27.5 -56.5q0 -80 -48 -122 t-100.5 -42t-80 34t-27.5 58z" />
<glyph unicode="&#xc5;" horiz-adv-x="1429" d="M61 0l727 1499h390l235 -1499h-344l-53 301h-441l-141 -301h-373zM705 592h284l-67 481zM797 1681q0 -74 54 -130t140 -56t153.5 63.5t67.5 161.5q0 74 -52 130.5t-139 56.5t-155.5 -63.5t-68.5 -162.5zM926 1707q4 40 45 65q20 10 48 10t48 -23.5t16 -63.5t-45 -63 q-18 -10 -45.5 -10t-49 22.5t-17.5 62.5z" />
<glyph unicode="&#xc6;" horiz-adv-x="2150" d="M41 0l752 1157q172 263 424 320q82 18 131 21t88 3t84 -2q455 -8 628 -33l-43 -280h-542q-76 0 -99 -37q-18 -29 -26 -76l-27 -174l547 -22l-43 -277l-555 -18l-27 -170q-12 -78 29 -95q31 -12 82 -12h522l-45 -276q-152 -20 -567 -35l-47 -2h-44t-81 8q-145 27 -195 119 q-20 39 -20 74.5t4 58.5l20 123h-329l-246 -375h-375zM846 664h190l66 405z" />
<glyph unicode="&#xc7;" horiz-adv-x="1165" d="M170 510q0 154 26.5 315.5t70.5 289.5t118 221.5t182.5 136.5t274.5 43t273.5 -16.5t232.5 -61.5l-43 -262q-281 35 -426 34h-5.5h-20.5t-32.5 -1t-42 -3t-40 -8t-36 -17.5t-36 -28.5t-31 -42t-29.5 -58.5t-26 -76.5q-25 -78 -48.5 -217.5t-23.5 -225.5t18 -135 q41 -100 199 -104h100t344 18l-41 -262q-109 -39 -213 -50t-195 -11h-132q-139 2 -232.5 63.5t-134.5 169.5q-51 135 -51 289zM350 -369l23 142l88 30q45 16 58 38t22 85h215q-25 -160 -88.5 -227.5t-196.5 -67.5h-121z" />
<glyph unicode="&#xc8;" horiz-adv-x="1142" d="M143 258q0 33 4 70l138 860q30 195 153 258q57 31 113.5 42t93.5 11h41q453 -8 629 -33l-45 -280h-541q-100 0 -119 -80q-2 -12 -6 -35l-24 -164l544 -22l-45 -277l-551 -18l-28 -176q-12 -78 28 -95q31 -12 82 -12h523l-46 -278q-145 -18 -501 -31l-119 -4h-33.5 t-64.5 6t-90 29q-135 63 -136 229zM559 1909h268l136 -287h-201z" />
<glyph unicode="&#xc9;" horiz-adv-x="1142" d="M143 258q0 33 4 70l138 860q30 195 153 258q57 31 113.5 42t93.5 11h41q453 -8 629 -33l-45 -280h-541q-100 0 -119 -80q-2 -12 -6 -35l-24 -164l544 -22l-45 -277l-551 -18l-28 -176q-12 -78 28 -95q31 -12 82 -12h523l-46 -278q-145 -18 -501 -31l-119 -4h-33.5 t-64.5 6t-90 29q-135 63 -136 229zM770 1622l217 287h273l-289 -287h-201z" />
<glyph unicode="&#xca;" horiz-adv-x="1142" d="M143 258q0 33 4 70l138 860q30 195 153 258q57 31 113.5 42t93.5 11h41q453 -8 629 -33l-45 -280h-541q-100 0 -119 -80q-2 -12 -6 -35l-24 -164l544 -22l-45 -277l-551 -18l-28 -176q-12 -78 28 -95q31 -12 82 -12h523l-46 -278q-145 -18 -501 -31l-119 -4h-33.5 t-64.5 6t-90 29q-135 63 -136 229zM557 1622l258 283h238l147 -283h-205l-75 119l-117 -119h-246z" />
<glyph unicode="&#xcb;" horiz-adv-x="1142" d="M143 258q0 33 4 70l138 860q30 195 153 258q57 31 113.5 42t93.5 11h41q453 -8 629 -33l-45 -280h-541q-100 0 -119 -80q-2 -12 -6 -35l-24 -164l544 -22l-45 -277l-551 -18l-28 -176q-12 -78 28 -95q31 -12 82 -12h523l-46 -278q-145 -18 -501 -31l-119 -4h-33.5 t-64.5 6t-90 29q-135 63 -136 229zM483 1700q0 70 48.5 110.5t100.5 40.5t79.5 -32.5t27.5 -57.5q0 -78 -48 -120t-91 -42q-82 0 -108 64q-8 20 -9 37zM1006 1700q0 70 48 110.5t100 40.5t80 -32.5t28 -57.5q0 -78 -48.5 -120t-91.5 -42q-82 0 -108 64q-8 20 -8 37z" />
<glyph unicode="&#xcc;" horiz-adv-x="546" d="M115 0l237 1499h336l-237 -1499h-336zM240 1921h266l137 -289h-203z" />
<glyph unicode="&#xcd;" horiz-adv-x="546" d="M115 0l237 1499h336l-237 -1499h-336zM440 1632l219 289h273l-289 -289h-203z" />
<glyph unicode="&#xce;" horiz-adv-x="546" d="M115 0l237 1499h336l-237 -1499h-336zM219 1632l258 281h238l149 -281h-205l-75 121l-135 -121h-230z" />
<glyph unicode="&#xcf;" horiz-adv-x="546" d="M115 0l237 1499h336l-237 -1499h-336zM174 1724q0 78 48 119t100.5 41t80 -31.5t27.5 -56.5q0 -80 -48 -122t-100.5 -42t-80 34t-27.5 58zM696 1724q0 78 48.5 119t100.5 41t79.5 -31.5t27.5 -56.5q0 -80 -48 -122t-100 -42t-80 34t-28 58z" />
<glyph unicode="&#xd0;" horiz-adv-x="1325" d="M86 692l23 144h133l106 663h635q121 0 208 -48t132 -124q80 -137 80 -364q0 -117 -25 -267q-61 -377 -199.5 -536.5t-402.5 -159.5h-665l108 692h-133zM492 291h270q111 0 178.5 113.5t95.5 297.5q31 195 31 284t-19.5 137t-53 66.5t-89.5 18.5h-268l-59 -372h208 l-24 -144h-207z" />
<glyph unicode="&#xd1;" horiz-adv-x="1376" d="M111 0l237 1499h338l373 -887l139 887h336l-238 -1499h-333l-377 870l-137 -870h-338zM625 1753q143 147 272 148q49 -2 108.5 -37t96.5 -35h30.5t82 23.5t92.5 56.5l28 -135q-139 -143 -254 -144q-49 0 -116.5 36t-94 36t-44 -2t-31 -5t-28.5 -8.5t-27.5 -10.5 t-26.5 -13q-25 -12 -58 -33z" />
<glyph unicode="&#xd2;" d="M178 451q0 55 1 119.5t24.5 210t58.5 259t72 190.5t93 130t104.5 83t123 45t131 18t141.5 3t148.5 -8t126 -30.5t107.5 -59.5q141 -123 141 -418q0 -131 -23.5 -281.5t-56.5 -258t-69.5 -182t-90 -127t-103.5 -82t-122 -46.5q-113 -25 -241 -24.5t-191.5 7.5t-127 28.5 t-106.5 58.5q-100 84 -129 238q-12 72 -12 127zM514 532.5q0 -49.5 3 -86t16.5 -66.5t41.5 -50q49 -33 162 -33t174.5 35t104.5 130t67 249q29 180 29 255.5t-8 122t-40 72t-71 34.5t-106.5 9t-108.5 -7t-81 -32.5t-65.5 -77t-49 -135.5t-46 -227t-22.5 -192.5zM647 1921 h266l138 -289h-203z" />
<glyph unicode="&#xd3;" d="M178 451q0 55 1 119.5t24.5 210t58.5 259t72 190.5t93 130t104.5 83t123 45t131 18t141.5 3t148.5 -8t126 -30.5t107.5 -59.5q141 -123 141 -418q0 -131 -23.5 -281.5t-56.5 -258t-69.5 -182t-90 -127t-103.5 -82t-122 -46.5q-113 -25 -241 -24.5t-191.5 7.5t-127 28.5 t-106.5 58.5q-100 84 -129 238q-12 72 -12 127zM514 532.5q0 -49.5 3 -86t16.5 -66.5t41.5 -50q49 -33 162 -33t174.5 35t104.5 130t67 249q29 180 29 255.5t-8 122t-40 72t-71 34.5t-106.5 9t-108.5 -7t-81 -32.5t-65.5 -77t-49 -135.5t-46 -227t-22.5 -192.5zM848 1632 l219 289h272l-288 -289h-203z" />
<glyph unicode="&#xd4;" d="M178 451q0 55 1 119.5t24.5 210t58.5 259t72 190.5t93 130t104.5 83t123 45t131 18t141.5 3t148.5 -8t126 -30.5t107.5 -59.5q141 -123 141 -418q0 -131 -23.5 -281.5t-56.5 -258t-69.5 -182t-90 -127t-103.5 -82t-122 -46.5q-113 -25 -241 -24.5t-191.5 7.5t-127 28.5 t-106.5 58.5q-100 84 -129 238q-12 72 -12 127zM514 532.5q0 -49.5 3 -86t16.5 -66.5t41.5 -50q49 -33 162 -33t174.5 35t104.5 130t67 249q29 180 29 255.5t-8 122t-40 72t-71 34.5t-106.5 9t-108.5 -7t-81 -32.5t-65.5 -77t-49 -135.5t-46 -227t-22.5 -192.5zM629 1632 l258 281h237l148 -281h-203l-78 121l-135 -121h-227z" />
<glyph unicode="&#xd5;" d="M178 451q0 55 1 119.5t24.5 210t58.5 259t72 190.5t93 130t104.5 83t123 45t131 18t141.5 3t148.5 -8t126 -30.5t107.5 -59.5q141 -123 141 -418q0 -131 -23.5 -281.5t-56.5 -258t-69.5 -182t-90 -127t-103.5 -82t-122 -46.5q-113 -25 -241 -24.5t-191.5 7.5t-127 28.5 t-106.5 58.5q-100 84 -129 238q-12 72 -12 127zM514 532.5q0 -49.5 3 -86t16.5 -66.5t41.5 -50q49 -33 162 -33t174.5 35t104.5 130t67 249q29 180 29 255.5t-8 122t-40 72t-71 34.5t-106.5 9t-108.5 -7t-81 -32.5t-65.5 -77t-49 -135.5t-46 -227t-22.5 -192.5zM614 1757 q143 145 273 146q49 0 109.5 -36t95.5 -36h31.5t81 23.5t91.5 56.5l31 -135q-141 -143 -254 -144q-51 0 -117.5 36t-113.5 36q-80 0 -195 -72z" />
<glyph unicode="&#xd6;" d="M178 451q0 55 1 119.5t24.5 210t58.5 259t72 190.5t93 130t104.5 83t123 45t131 18t141.5 3t148.5 -8t126 -30.5t107.5 -59.5q141 -123 141 -418q0 -131 -23.5 -281.5t-56.5 -258t-69.5 -182t-90 -127t-103.5 -82t-122 -46.5q-113 -25 -241 -24.5t-191.5 7.5t-127 28.5 t-106.5 58.5q-100 84 -129 238q-12 72 -12 127zM514 532.5q0 -49.5 3 -86t16.5 -66.5t41.5 -50q49 -33 162 -33t174.5 35t104.5 130t67 249q29 180 29 255.5t-8 122t-40 72t-71 34.5t-106.5 9t-108.5 -7t-81 -32.5t-65.5 -77t-49 -135.5t-46 -227t-22.5 -192.5zM582 1724 q0 78 48 119t100 41t80 -31.5t28 -56.5q0 -80 -48.5 -122t-100.5 -42t-79.5 34t-27.5 58zM1104 1724q0 78 48 119t100.5 41t80 -31.5t27.5 -56.5q0 -80 -48 -122t-100.5 -42t-80 34t-27.5 58z" />
<glyph unicode="&#xd7;" horiz-adv-x="946" d="M160 524l233 205l-168 203l211 186l170 -203l252 213l162 -194l-254 -217l172 -205l-209 -172l-166 195l-235 -211z" />
<glyph unicode="&#xd8;" d="M68 0l157 182q-51 104 -51 270t22.5 307.5t47 236t52.5 165t65.5 124.5t72.5 91t85 62.5t90 39t100 21.5q90 10 219 10q258 0 366 -77l58 67h164l-136 -158q66 -111 66 -340q0 -256 -66 -505q-49 -186 -112 -279q-76 -109 -154 -149q-92 -51 -172 -62q-113 -14 -249 -14 t-231 18.5t-161 71.5l-70 -82h-163zM518 583q0 -44 2 -59l541 639q-45 41 -176 41q-70 0 -110 -7t-81 -32.5t-66.5 -77t-48 -135.5t-42 -204.5t-19.5 -164.5zM545 362q42 -65 196 -65q80 0 132.5 17.5t93.5 66.5q76 88 118 358q20 141 20.5 200.5t-1.5 84.5z" />
<glyph unicode="&#xd9;" horiz-adv-x="1337" d="M190 424q0 135 23 268l129 807h338l-135 -852q-14 -94 -14.5 -163.5t16.5 -110.5q35 -78 180 -78t204.5 82t88.5 270l135 852h338l-127 -899q-53 -346 -209 -479q-133 -113 -342 -127q-55 -4 -123.5 -4t-117 5t-101.5 17.5t-94 36t-78 57.5q-68 63 -98 213 q-12 57 -13 105zM635 1921h268l137 -289h-202z" />
<glyph unicode="&#xda;" horiz-adv-x="1337" d="M190 424q0 135 23 268l129 807h338l-135 -852q-14 -94 -14.5 -163.5t16.5 -110.5q35 -78 180 -78t204.5 82t88.5 270l135 852h338l-127 -899q-53 -346 -209 -479q-133 -113 -342 -127q-55 -4 -123.5 -4t-117 5t-101.5 17.5t-94 36t-78 57.5q-68 63 -98 213 q-12 57 -13 105zM838 1632l219 289h270l-287 -289h-202z" />
<glyph unicode="&#xdb;" horiz-adv-x="1337" d="M190 424q0 135 23 268l129 807h338l-135 -852q-14 -94 -14.5 -163.5t16.5 -110.5q35 -78 180 -78t204.5 82t88.5 270l135 852h338l-127 -899q-53 -346 -209 -479q-133 -113 -342 -127q-55 -4 -123.5 -4t-117 5t-101.5 17.5t-94 36t-78 57.5q-68 63 -98 213 q-12 57 -13 105zM616 1632l258 281h238l150 -281h-205l-76 121l-135 -121h-230z" />
<glyph unicode="&#xdc;" horiz-adv-x="1337" d="M190 424q0 135 23 268l129 807h338l-135 -852q-14 -94 -14.5 -163.5t16.5 -110.5q35 -78 180 -78t204.5 82t88.5 270l135 852h338l-127 -899q-53 -346 -209 -479q-133 -113 -342 -127q-55 -4 -123.5 -4t-117 5t-101.5 17.5t-94 36t-78 57.5q-68 63 -98 213 q-12 57 -13 105zM571 1724q0 78 48.5 119t100.5 41t79.5 -31.5t27.5 -56.5q0 -80 -48 -122t-100 -42t-80 34t-28 58zM1094 1724q0 78 48 119t100 41t80 -31.5t28 -56.5q0 -80 -48.5 -122t-100.5 -42t-79.5 34t-27.5 58z" />
<glyph unicode="&#xdd;" d="M276 1499h365l139 -692l385 692h381l-651 -1059l-72 -440h-336l72 440zM831 1632l220 289h270l-287 -289h-203z" />
<glyph unicode="&#xde;" horiz-adv-x="1110" d="M82 0l237 1493h336l-45 -289h264q131 0 222 -90q80 -76 80 -246q0 -125 -29 -223t-53.5 -142t-49 -78t-58.5 -54.5t-60.5 -32.5t-65.5 -19q-80 -12 -188.5 -12t-196.5 41l-57 -348h-336zM514 598h141q47 0 72 4t47 23q35 29 53 139q4 20 4 33.5t-2 29t-3 31.5t-13 26.5 t-20.5 16.5t-24.5 8q-27 4 -63 4h-142z" />
<glyph unicode="&#xdf;" horiz-adv-x="1173" d="M82 0l184 1159q31 188 160 309q66 64 172.5 99t227 35t203.5 -20.5t136 -57.5q137 -94 138 -264q0 -137 -86 -277q-59 -94 -134 -147q-31 -23 -51 -35q-59 -41 -59 -96q0 -45 84 -101q39 -25 76 -53q74 -59 73 -160q0 -20 -4 -43l-8 -51q-49 -313 -403 -313 q-137 0 -279 39l37 231q129 -12 182 -12q117 0 133 108l6 29v23.5t-21.5 42t-57 45t-72.5 47.5q-70 49 -70 141q0 18 2 39q14 96 57.5 150.5t143.5 123.5q106 82 106 205q0 53 -30.5 80t-125.5 27t-145.5 -61.5t-76.5 -221.5l-162 -1020h-336z" />
<glyph unicode="&#xe0;" horiz-adv-x="1114" d="M125 371q0 123 22.5 233.5t52 185t62.5 125t77 86t82 56t91 30.5q88 20 212 20.5t261 -28t209 -98.5l-143 -977h-263l-51 107q-39 -55 -128 -89t-183 -34q-166 0 -252 164q-49 96 -49 219zM418 1520h266l137 -289h-203zM465 401q0 -137 104 -137q135 0 197 105l70 465 q-47 20 -95.5 20t-74 -5t-41 -11.5t-36 -17.5t-34.5 -30.5t-29 -48.5q-31 -55 -45 -157q-16 -119 -16 -183z" />
<glyph unicode="&#xe1;" horiz-adv-x="1114" d="M125 371q0 123 22.5 233.5t52 185t62.5 125t77 86t82 56t91 30.5q88 20 212 20.5t261 -28t209 -98.5l-143 -977h-263l-51 107q-39 -55 -128 -89t-183 -34q-166 0 -252 164q-49 96 -49 219zM465 401q0 -137 104 -137q135 0 197 105l70 465q-47 20 -95.5 20t-74 -5 t-41 -11.5t-36 -17.5t-34.5 -30.5t-29 -48.5q-31 -55 -45 -157q-16 -119 -16 -183zM621 1231l219 289h270l-287 -289h-202z" />
<glyph unicode="&#xe2;" horiz-adv-x="1114" d="M125 371q0 123 22.5 233.5t52 185t62.5 125t77 86t82 56t91 30.5q88 20 212 20.5t261 -28t209 -98.5l-143 -977h-263l-51 107q-39 -55 -128 -89t-183 -34q-166 0 -252 164q-49 96 -49 219zM395 1231l258 282h238l149 -282h-204l-76 121l-135 -121h-230zM465 401 q0 -137 104 -137q135 0 197 105l70 465q-47 20 -95.5 20t-74 -5t-41 -11.5t-36 -17.5t-34.5 -30.5t-29 -48.5q-31 -55 -45 -157q-16 -119 -16 -183z" />
<glyph unicode="&#xe3;" horiz-adv-x="1114" d="M125 371q0 123 22.5 233.5t52 185t62.5 125t77 86t82 56t91 30.5q88 20 212 20.5t261 -28t209 -98.5l-143 -977h-263l-51 107q-39 -55 -128 -89t-183 -34q-166 0 -252 164q-49 96 -49 219zM393 1356q143 145 275 145q47 0 107 -34.5t97 -34.5h30t82 23.5t93 53.5l29 -135 q-139 -141 -254 -141q-49 0 -116.5 35t-114.5 35q-80 0 -195 -72zM465 401q0 -137 104 -137q135 0 197 105l70 465q-47 20 -95.5 20t-74 -5t-41 -11.5t-36 -17.5t-34.5 -30.5t-29 -48.5q-31 -55 -45 -157q-16 -119 -16 -183z" />
<glyph unicode="&#xe4;" horiz-adv-x="1114" d="M125 371q0 123 22.5 233.5t52 185t62.5 125t77 86t82 56t91 30.5q88 20 212 20.5t261 -28t209 -98.5l-143 -977h-263l-51 107q-39 -55 -128 -89t-183 -34q-166 0 -252 164q-49 96 -49 219zM356 1333q0 70 48.5 111t100.5 41t79.5 -33t27.5 -57q0 -78 -48 -121t-91 -43 q-82 0 -108 65q-8 20 -9 37zM465 401q0 -137 104 -137q135 0 197 105l70 465q-47 20 -95.5 20t-74 -5t-41 -11.5t-36 -17.5t-34.5 -30.5t-29 -48.5q-31 -55 -45 -157q-16 -119 -16 -183zM879 1333q0 70 48 111t100 41t80 -33t28 -57q0 -78 -48.5 -121t-91.5 -43 q-82 0 -108 65q-8 20 -8 37z" />
<glyph unicode="&#xe5;" horiz-adv-x="1114" d="M125 371q0 123 22.5 233.5t52 185t62.5 125t77 86t82 56t91 30.5q88 20 212 20.5t261 -28t209 -98.5l-143 -977h-263l-51 107q-39 -55 -128 -89t-183 -34q-166 0 -252 164q-49 96 -49 219zM465 401q0 -137 104 -137q135 0 197 105l70 465q-47 20 -95.5 20t-74 -5 t-41 -11.5t-36 -17.5t-34.5 -30.5t-29 -48.5q-31 -55 -45 -157q-16 -119 -16 -183zM547 1417q0 100 68.5 164t155.5 64t139.5 -56.5t52.5 -130.5q0 -100 -68 -163.5t-154 -63.5t-140 56t-54 130zM676 1444.5q-4 -39.5 17.5 -62t49 -22.5t48.5 10q39 20 43 60t-16.5 64 t-48.5 24t-48 -11q-41 -23 -45 -62.5z" />
<glyph unicode="&#xe6;" horiz-adv-x="1699" d="M90 379q0 123 22.5 234.5t51.5 186t58.5 124t72.5 84t78 53t88 31.5q86 16 245.5 16t290.5 -53q115 53 289 53q182 0 311 -59q141 -68 142 -236q0 -113 -38 -197t-92.5 -128t-122 -69.5t-121.5 -30.5t-143 -5t-159 29q-4 -31 -4 -71t28.5 -67.5t141.5 -27.5h37 q164 0 366 37l-41 -238q-207 -63 -440 -63q-66 0 -131 4q-170 12 -244 141q-61 -76 -170.5 -108.5t-214.5 -32.5q-166 0 -252 170q-49 100 -49 223zM428 422q0 -41 6 -80q10 -80 101 -80q61 0 112 18.5t74 49.5q-2 29 -2 98.5t24.5 198.5t57.5 207q-59 20 -101.5 20t-70 -6 t-47 -13.5t-42 -25.5t-39 -47t-31.5 -78t-28.5 -135t-13.5 -127zM1090 629q43 -8 96 -8t91 8t75 37q47 37 47 106q0 37 -25.5 57.5t-91.5 20.5q-123 0 -162 -96q-16 -43 -30 -125z" />
<glyph unicode="&#xe7;" horiz-adv-x="1005" d="M135 355q0 122 20.5 245t54.5 216t73 147.5t93 85t104 40t118 9.5q322 0 504 -70l-33 -201q-160 12 -272.5 12.5t-132 -0.5t-48 -10.5t-42 -27t-31.5 -51.5q-29 -53 -47 -164q-25 -145 -25 -183t4 -64t14.5 -44.5t30.5 -30.5q37 -16 115 -16q164 0 311 14l49 4l-32 -205 q-100 -53 -189 -63q-118 -10 -186 -10l-154 2h-4q-166 0 -246 149q-49 94 -49 216zM250 -371l20 140l90 30q45 18 57.5 40t22.5 83h213q-25 -160 -87 -226.5t-197 -66.5h-119z" />
<glyph unicode="&#xe8;" horiz-adv-x="1081" d="M129 387q0 109 22.5 229.5t47 192.5t64.5 132t97 95q127 72 359 72q178 0 299 -59q131 -66 131 -234q0 -115 -38 -199t-92 -128t-122 -69.5t-122 -30.5t-144 -5t-158 29q-6 -31 -6 -71t29 -67q31 -29 137 -28q223 0 424 37l-41 -238q-207 -66 -447 -65q-70 0 -139 6 q-301 18 -301 401zM432 1520h266l138 -289h-203zM500 629q43 -8 96 -8t91 8t73 37q47 37 47 106q0 37 -24.5 57.5t-90.5 20.5q-123 0 -160 -96q-18 -43 -32 -125z" />
<glyph unicode="&#xe9;" horiz-adv-x="1081" d="M129 387q0 109 22.5 229.5t47 192.5t64.5 132t97 95q127 72 359 72q178 0 299 -59q131 -66 131 -234q0 -115 -38 -199t-92 -128t-122 -69.5t-122 -30.5t-144 -5t-158 29q-6 -31 -6 -71t29 -67q31 -29 137 -28q223 0 424 37l-41 -238q-207 -66 -447 -65q-70 0 -139 6 q-301 18 -301 401zM500 629q43 -8 96 -8t91 8t73 37q47 37 47 106q0 37 -24.5 57.5t-90.5 20.5q-123 0 -160 -96q-18 -43 -32 -125zM633 1231l219 289h272l-288 -289h-203z" />
<glyph unicode="&#xea;" horiz-adv-x="1081" d="M129 387q0 109 22.5 229.5t47 192.5t64.5 132t97 95q127 72 359 72q178 0 299 -59q131 -66 131 -234q0 -115 -38 -199t-92 -128t-122 -69.5t-122 -30.5t-144 -5t-158 29q-6 -31 -6 -71t29 -67q31 -29 137 -28q223 0 424 37l-41 -238q-207 -66 -447 -65q-70 0 -139 6 q-301 18 -301 401zM414 1231l258 280h237l148 -280h-203l-78 121l-135 -121h-227zM500 629q43 -8 96 -8t91 8t73 37q47 37 47 106q0 37 -24.5 57.5t-90.5 20.5q-123 0 -160 -96q-18 -43 -32 -125z" />
<glyph unicode="&#xeb;" horiz-adv-x="1081" d="M129 387q0 109 22.5 229.5t47 192.5t64.5 132t97 95q127 72 359 72q178 0 299 -59q131 -66 131 -234q0 -115 -38 -199t-92 -128t-122 -69.5t-122 -30.5t-144 -5t-158 29q-6 -31 -6 -71t29 -67q31 -29 137 -28q223 0 424 37l-41 -238q-207 -66 -447 -65q-70 0 -139 6 q-301 18 -301 401zM367 1331q0 70 48 111t100 41t80 -32t28 -56q0 -80 -48.5 -122t-91.5 -42q-82 0 -108 63q-8 20 -8 37zM500 629q43 -8 96 -8t91 8t73 37q47 37 47 106q0 37 -24.5 57.5t-90.5 20.5q-123 0 -160 -96q-18 -43 -32 -125zM889 1331q0 70 48 111t100.5 41 t80 -32t27.5 -56q0 -80 -48 -122t-91 -42q-82 0 -109 63q-8 20 -8 37z" />
<glyph unicode="&#xec;" horiz-adv-x="485" d="M61 0l172 1087h336l-172 -1087h-336zM117 1513h266l137 -288h-203z" />
<glyph unicode="&#xed;" horiz-adv-x="485" d="M61 0l172 1087h336l-172 -1087h-336zM317 1225l220 288h270l-287 -288h-203z" />
<glyph unicode="&#xee;" horiz-adv-x="485" d="M61 0l172 1087h336l-172 -1087h-336zM96 1225l258 282h238l149 -282h-204l-76 121l-135 -121h-230z" />
<glyph unicode="&#xef;" horiz-adv-x="485" d="M49 1317q0 80 48 121t100.5 41t80 -33t27.5 -57q0 -80 -48 -122t-100.5 -42t-80 33.5t-27.5 58.5zM61 0l172 1087h336l-172 -1087h-336zM571 1317q0 80 48.5 121t100.5 41t79.5 -33t27.5 -57q0 -80 -48 -122t-100 -42t-80 33.5t-28 58.5z" />
<glyph unicode="&#xf0;" horiz-adv-x="1105" d="M121 387q0 84 16 186q43 268 156 391t317 123h84q121 0 158 -14q-16 104 -78 172l-227 -106l-43 114l129 62q-70 18 -146.5 18t-105.5 -2l45 273q362 0 541 -125l180 86l45 -117l-131 -59q115 -147 115 -467q0 -186 -42 -447.5t-160 -368t-310 -106.5h-226 q-317 0 -317 387zM461 410q0 -43 6 -60q14 -43 82 -43h4h96h19q18 0 38.5 7.5t38.5 31.5q41 53 70 283q4 37 4 66.5t-5 45t-17 25.5q-18 16 -74 16h-92q-47 0 -74 -18.5t-47.5 -71.5t-34.5 -146t-14 -136z" />
<glyph unicode="&#xf1;" horiz-adv-x="1130" d="M82 0l172 1087h276l43 -112q145 104 238 121q49 10 127 10t139.5 -31t83.5 -84q29 -68 29 -142.5t-12 -135.5l-113 -713h-336l113 717q4 27 4 47q0 84 -80 84q-72 0 -124 -20.5t-101 -65.5l-123 -762h-336zM430 1352q143 147 272 147q49 0 108.5 -36t96.5 -36h31t82 24 t92 56l29 -135q-139 -143 -254 -143q-49 0 -117 35.5t-115 35.5q-80 0 -192 -71z" />
<glyph unicode="&#xf2;" horiz-adv-x="1136" d="M135 389q0 80 18.5 195.5t50.5 208t77 154t112 95.5q123 60 348 60q274 0 369 -146q61 -96 61 -264q0 -90 -18 -207.5t-48 -201.5t-73 -142.5t-108 -91.5q-123 -59 -353 -59q-274 0 -372 139q-63 94 -64 260zM440 1513h269l137 -288h-203zM469 392q0 -34 2 -56.5t10 -41 t29 -28.5q29 -16 92.5 -16t92 6t54 36t40 83t33 158.5t18.5 144.5q0 117 -32 141.5t-124 24.5t-129 -55.5t-61.5 -209t-24.5 -187.5z" />
<glyph unicode="&#xf3;" horiz-adv-x="1136" d="M135 389q0 80 18.5 195.5t50.5 208t77 154t112 95.5q123 60 348 60q274 0 369 -146q61 -96 61 -264q0 -90 -18 -207.5t-48 -201.5t-73 -142.5t-108 -91.5q-123 -59 -353 -59q-274 0 -372 139q-63 94 -64 260zM469 392q0 -34 2 -56.5t10 -41t29 -28.5q29 -16 92.5 -16 t92 6t54 36t40 83t33 158.5t18.5 144.5q0 117 -32 141.5t-124 24.5t-129 -55.5t-61.5 -209t-24.5 -187.5zM651 1225l219 288h273l-289 -288h-203z" />
<glyph unicode="&#xf4;" horiz-adv-x="1136" d="M135 389q0 80 18.5 195.5t50.5 208t77 154t112 95.5q123 60 348 60q274 0 369 -146q61 -96 61 -264q0 -90 -18 -207.5t-48 -201.5t-73 -142.5t-108 -91.5q-123 -59 -353 -59q-274 0 -372 139q-63 94 -64 260zM416 1225l258 282h237l150 -282h-205l-76 121l-135 -121h-229 zM469 392q0 -34 2 -56.5t10 -41t29 -28.5q29 -16 92.5 -16t92 6t54 36t40 83t33 158.5t18.5 144.5q0 117 -32 141.5t-124 24.5t-129 -55.5t-61.5 -209t-24.5 -187.5z" />
<glyph unicode="&#xf5;" horiz-adv-x="1136" d="M135 389q0 80 18.5 195.5t50.5 208t77 154t112 95.5q123 60 348 60q274 0 369 -146q61 -96 61 -264q0 -90 -18 -207.5t-48 -201.5t-73 -142.5t-108 -91.5q-123 -59 -353 -59q-274 0 -372 139q-63 94 -64 260zM410 1350q143 145 274 145q47 0 107.5 -35t97.5 -35 q4 -2 29.5 -2t82 23.5t93.5 56.5l28 -135q-141 -143 -254 -143q-49 0 -116.5 35.5t-114.5 35.5q-80 0 -195 -71zM469 392q0 -34 2 -56.5t10 -41t29 -28.5q29 -16 92.5 -16t92 6t54 36t40 83t33 158.5t18.5 144.5q0 117 -32 141.5t-124 24.5t-129 -55.5t-61.5 -209 t-24.5 -187.5z" />
<glyph unicode="&#xf6;" horiz-adv-x="1136" d="M135 389q0 80 18.5 195.5t50.5 208t77 154t112 95.5q123 60 348 60q274 0 369 -146q61 -96 61 -264q0 -90 -18 -207.5t-48 -201.5t-73 -142.5t-108 -91.5q-123 -59 -353 -59q-274 0 -372 139q-63 94 -64 260zM381 1317q0 80 48 121t100.5 41t80 -33t27.5 -57 q0 -80 -48 -122t-100.5 -42t-80 33.5t-27.5 58.5zM469 392q0 -34 2 -56.5t10 -41t29 -28.5q29 -16 92.5 -16t92 6t54 36t40 83t33 158.5t18.5 144.5q0 117 -32 141.5t-124 24.5t-129 -55.5t-61.5 -209t-24.5 -187.5zM903 1317q0 80 48 121t100.5 41t80 -33t27.5 -57 q0 -80 -48 -122t-100.5 -42t-80 33.5t-27.5 58.5z" />
<glyph unicode="&#xf7;" horiz-adv-x="1003" d="M160 586l43 274h870l-45 -274h-868zM408 303l24 148q8 49 57 49h170q43 0 43 -37q0 -6 -2 -12l-24 -148q-8 -47 -58 -47h-167q-20 0 -32.5 13.5t-10.5 33.5zM516 983l25 147q6 50 57 50h168q43 0 43 -37q0 -6 -2 -13l-23 -147q-6 -47 -57 -47h-170q-20 0 -31.5 13.5 t-9.5 33.5z" />
<glyph unicode="&#xf8;" horiz-adv-x="1138" d="M39 0l139 143q-43 80 -43 194t21.5 254t63.5 243.5t116 163t167 80t269 20.5t277 -64l53 53h164l-136 -141q47 -82 47.5 -206t-22 -263t-61.5 -234.5t-110 -152.5t-166 -78.5t-275.5 -21.5t-284.5 67l-57 -57h-162zM483 479.5q0 -18.5 4 -26.5l332 348q-23 39 -110.5 39 t-120.5 -23.5t-47 -62.5q-27 -70 -42.5 -163t-15.5 -111.5zM489 291q15 -25 42.5 -33t82 -8t83 6t54 36t39 82t26.5 129t13 102.5t-2 37.5z" />
<glyph unicode="&#xf9;" horiz-adv-x="1128" d="M114.5 236.5q0.5 74.5 12.5 140.5l115 710h336l-115 -718q-4 -27 -4 -54.5t15 -50t77 -22.5q119 0 215 86l119 759h336l-172 -1087h-277l-41 111q-86 -68 -158.5 -98.5t-178 -30.5t-166 30.5t-85.5 83.5q-29 66 -28.5 140.5zM449 1513h268l137 -288h-203z" />
<glyph unicode="&#xfa;" horiz-adv-x="1128" d="M114.5 236.5q0.5 74.5 12.5 140.5l115 710h336l-115 -718q-4 -27 -4 -54.5t15 -50t77 -22.5q119 0 215 86l119 759h336l-172 -1087h-277l-41 111q-86 -68 -158.5 -98.5t-178 -30.5t-166 30.5t-85.5 83.5q-29 66 -28.5 140.5zM651 1225l219 288h271l-287 -288h-203z" />
<glyph unicode="&#xfb;" horiz-adv-x="1128" d="M114.5 236.5q0.5 74.5 12.5 140.5l115 710h336l-115 -718q-4 -27 -4 -54.5t15 -50t77 -22.5q119 0 215 86l119 759h336l-172 -1087h-277l-41 111q-86 -68 -158.5 -98.5t-178 -30.5t-166 30.5t-85.5 83.5q-29 66 -28.5 140.5zM432 1225l258 282h238l147 -282h-203l-77 121 l-136 -121h-227z" />
<glyph unicode="&#xfc;" horiz-adv-x="1128" d="M114.5 236.5q0.5 74.5 12.5 140.5l115 710h336l-115 -718q-4 -27 -4 -54.5t15 -50t77 -22.5q119 0 215 86l119 759h336l-172 -1087h-277l-41 111q-86 -68 -158.5 -98.5t-178 -30.5t-166 30.5t-85.5 83.5q-29 66 -28.5 140.5zM383 1317q0 80 48 121t100.5 41t81 -33 t28.5 -57q0 -80 -48 -122t-100.5 -42t-81 33.5t-28.5 58.5zM905 1317q0 80 48 121t100.5 41t81 -33t28.5 -57q0 -80 -48 -122t-100 -42t-81 33.5t-29 58.5z" />
<glyph unicode="&#xfd;" horiz-adv-x="1163" d="M164 1087h348l45 -729q6 -74 92 -79l232 559q39 98 53 252h315q8 -41 8 -84q0 -129 -67 -285l-313 -721q-135 -309 -326 -453q-111 -82 -189 -108q-94 -29 -178 -43v235q131 66 212 155t145 214q-281 0 -308 295zM643 1219l219 286h273l-289 -286h-203z" />
<glyph unicode="&#xfe;" horiz-adv-x="1138" d="M8 -553l344 2155h336l-102 -631q164 119 330.5 119t232.5 -158q41 -96 41 -210t-15.5 -210t-31 -159.5t-39 -127t-56 -106.5t-75.5 -78q-88 -70 -252 -70t-281 74l-96 -598h-336zM475 258q59 -33 189 -35q41 0 68.5 19.5t55 88t43 178t15.5 165t-8 82.5q-16 57 -74 57 q-129 0 -213 -61z" />
<glyph unicode="&#xff;" horiz-adv-x="1163" d="M164 1087h348l45 -729q6 -74 92 -79l232 559q39 98 53 252h315q8 -41 8 -84q0 -129 -67 -285l-313 -721q-135 -309 -326 -453q-111 -82 -189 -108q-94 -29 -178 -43v235q131 66 212 155t145 214q-281 0 -308 295zM381 1288q0 70 48 111t100.5 41t80 -33t27.5 -57 q0 -78 -48 -120t-91 -42q-82 0 -109 63q-8 20 -8 37zM903 1288q0 70 48 111t100.5 41t80 -33t27.5 -57q0 -78 -48 -120t-91 -42q-82 0 -109 63q-8 20 -8 37z" />
<glyph unicode="&#x100;" horiz-adv-x="1429" d="M61 0l727 1499h390l235 -1499h-344l-53 301h-441l-141 -301h-373zM705 592h284l-67 481zM707 1632l26 174h598l-26 -174h-598z" />
<glyph unicode="&#x101;" horiz-adv-x="1114" d="M125 371q0 123 22.5 233.5t52 185t62.5 125t77 86t82 56t91 30.5q88 20 212 20.5t261 -28t209 -98.5l-143 -977h-263l-51 107q-39 -55 -128 -89t-183 -34q-166 0 -252 164q-49 96 -49 219zM420 1231l26 176h598l-26 -176h-598zM465 401q0 -137 104 -137q135 0 197 105 l70 465q-47 20 -95.5 20t-74 -5t-41 -11.5t-36 -17.5t-34.5 -30.5t-29 -48.5q-31 -55 -45 -157q-16 -119 -16 -183z" />
<glyph unicode="&#x102;" horiz-adv-x="1429" d="M61 0l727 1499h390l235 -1499h-344l-53 301h-441l-141 -301h-373zM705 592h284l-67 481zM805 1837q0 12 2 27h127q-2 -10 -2 -34t22.5 -49.5t71.5 -25.5h2q111 0 123 109h125q-14 -150 -125 -205q-55 -27 -142 -27t-145.5 59.5t-58.5 145.5z" />
<glyph unicode="&#x103;" horiz-adv-x="1114" d="M125 371q0 123 22.5 233.5t52 185t62.5 125t77 86t82 56t91 30.5q88 20 212 20.5t261 -28t209 -98.5l-143 -977h-263l-51 107q-39 -55 -128 -89t-183 -34q-166 0 -252 164q-49 96 -49 219zM465 401q0 -137 104 -137q135 0 197 105l70 465q-47 20 -95.5 20t-74 -5 t-41 -11.5t-36 -17.5t-34.5 -30.5t-29 -48.5q-31 -55 -45 -157q-16 -119 -16 -183zM535 1440v24h127q-2 -8 -2.5 -31.5t22.5 -49t72 -25.5h2q111 0 123 106h125q-10 -109 -77 -169t-172.5 -60t-162.5 59.5t-57 145.5z" />
<glyph unicode="&#x104;" horiz-adv-x="1478" d="M115 0l725 1499h391l235 -1499h-344l-53 301h-440l-144 -301h-370zM756 592h286l-67 481zM1071 -209q0 53 40 110.5t128 100.5h127q-113 -73 -113 -141q0 -12 4 -23q16 -63 95 -53l-25 -170q-31 -8 -61.5 -8t-76.5 15.5t-77 60.5q-41 55 -41 108z" />
<glyph unicode="&#x105;" horiz-adv-x="1071" d="M115 371q0 123 25.5 252t72.5 222t96 142t121 77t123 36q70 8 177.5 8t243.5 -28.5t208 -98.5l-144 -977h-262l-51 107q-37 -55 -126 -89t-185 -34q-166 0 -250 164q-49 96 -49 219zM453 401q0 -137 104 -137q135 0 199 105l67 465q-45 20 -94 20t-73.5 -5t-40 -11.5 t-36 -17.5t-35 -30.5t-30.5 -48.5q-29 -55 -43 -157q-18 -119 -18 -183zM672 -209q0 53 40 110.5t128 100.5h127q-113 -73 -113 -141q0 -12 2 -23q16 -63 96 -53l-26 -170q-31 -8 -61.5 -8t-76 15.5t-77.5 60.5q-39 55 -39 108z" />
<glyph unicode="&#x106;" horiz-adv-x="1165" d="M170 510q0 154 26.5 315.5t70.5 289.5t118 221.5t182.5 136.5t274.5 43t273.5 -16.5t232.5 -61.5l-43 -262q-281 35 -426 34h-5.5h-23t-35.5 -1t-45 -5t-44 -11t-38.5 -23.5t-38 -39t-34 -57.5t-31.5 -80q-33 -113 -54.5 -244t-21.5 -217t18 -135q41 -100 199 -104h100 t344 18l-41 -262q-109 -39 -213 -50t-195 -11h-132q-139 2 -232.5 63.5t-134.5 169.5q-51 135 -51 289zM831 1638l220 287h272l-289 -287h-203z" />
<glyph unicode="&#x107;" horiz-adv-x="1003" d="M135 355q0 122 20.5 245t54.5 217t73 149.5t93 87t104 42t138.5 10.5t234.5 -16.5t249 -53.5l-33 -202q-160 14 -275.5 14t-140 -4t-53.5 -18.5t-45 -49.5q-41 -78 -59 -190q-25 -145 -25 -183t4 -64t14.5 -44.5t30.5 -30.5q37 -16 115 -16q164 0 311 14l49 4l-32 -205 q-113 -45 -219.5 -58t-195.5 -13h-118q-166 2 -246 151q-49 92 -49 214zM627 1227l219 286h272l-289 -286h-202z" />
<glyph unicode="&#x108;" horiz-adv-x="1165" d="M170 510q0 154 26.5 315.5t70.5 289.5t118 221.5t182.5 136.5t274.5 43t273.5 -16.5t232.5 -61.5l-43 -262q-281 35 -426 34h-5.5h-23t-35.5 -1t-45 -5t-44 -11t-38.5 -23.5t-38 -39t-34 -57.5t-31.5 -80q-33 -113 -54.5 -244t-21.5 -217t18 -135q41 -100 199 -104h100 t344 18l-41 -262q-109 -39 -213 -50t-195 -11h-132q-139 2 -232.5 63.5t-134.5 169.5q-51 135 -51 289zM582 1638l258 283h237l150 -283h-205l-76 121l-135 -121h-229z" />
<glyph unicode="&#x109;" horiz-adv-x="1003" d="M135 355q0 122 19.5 245t53.5 217t74 149.5t93 87t104 42t138.5 10.5t233.5 -16.5t251 -53.5l-33 -202q-162 14 -276.5 14t-139 -4t-54.5 -18.5t-46 -49.5q-39 -78 -59 -196q-23 -133 -23 -182.5t6 -78t29 -45.5q37 -27 123 -26q170 0 317 14l49 4l-32 -205 q-115 -45 -220.5 -58t-194.5 -13h-120q-164 2 -244 151q-49 92 -49 214zM393 1225l258 282h238l149 -282h-204l-76 121l-135 -121h-230z" />
<glyph unicode="&#x10a;" horiz-adv-x="1165" d="M170 510q0 154 26.5 315.5t70.5 289.5t118 221.5t182.5 136.5t274.5 43t273.5 -16.5t232.5 -61.5l-43 -262q-281 35 -426 34h-5.5h-23t-35.5 -1t-45 -5t-44 -11t-38.5 -23.5t-38 -39t-34 -57.5t-31.5 -80q-33 -113 -54.5 -244t-21.5 -217t18 -135q41 -100 199 -104h100 t344 18l-41 -262q-109 -39 -213 -50t-195 -11h-132q-139 2 -232.5 63.5t-134.5 169.5q-51 135 -51 289zM786 1686l27 172q8 51 57 51h164q47 0 39 -51l-26 -172q-6 -47 -54 -48h-164q-23 0 -35 13.5t-8 34.5z" />
<glyph unicode="&#x10b;" horiz-adv-x="1003" d="M135 355q0 122 19.5 245t53.5 217t74 149.5t93 87t104 42t138.5 10.5t233.5 -16.5t251 -53.5l-33 -202q-162 14 -276.5 14t-139 -4t-54.5 -18.5t-46 -49.5q-39 -78 -59 -196q-23 -133 -23 -182.5t6 -78t29 -45.5q37 -27 123 -26q170 0 317 14l49 4l-32 -205 q-115 -45 -220.5 -58t-194.5 -13h-120q-164 2 -244 151q-49 92 -49 214zM592 1274l26 172q9 51 58 51h164q47 0 39 -51l-27 -172q-6 -47 -53 -47h-164q-23 0 -35 12t-8 35z" />
<glyph unicode="&#x10c;" horiz-adv-x="1165" d="M170 510q0 154 26.5 315.5t70.5 289.5t118 221.5t182.5 136.5t274.5 43t273.5 -16.5t232.5 -61.5l-43 -262q-281 35 -426 34h-5.5h-23t-35.5 -1t-45 -5t-44 -11t-38.5 -23.5t-38 -39t-34 -57.5t-31.5 -80q-33 -113 -54.5 -244t-21.5 -217t18 -135q41 -100 199 -104h100 t344 18l-41 -262q-109 -39 -213 -50t-195 -11h-132q-139 2 -232.5 63.5t-134.5 169.5q-51 135 -51 289zM668 1921h204l82 -123l129 123h230l-258 -283h-230z" />
<glyph unicode="&#x10d;" horiz-adv-x="1003" d="M135 355q0 122 19.5 245t53.5 217t74 149.5t93 87t104 42t138.5 10.5t233.5 -16.5t251 -53.5l-33 -202q-162 14 -276.5 14t-139 -4t-54.5 -18.5t-46 -49.5q-39 -78 -59 -196q-23 -133 -23 -182.5t6 -78t29 -45.5q37 -27 123 -26q170 0 317 14l49 4l-32 -205 q-115 -45 -220.5 -58t-194.5 -13h-120q-164 2 -244 151q-49 92 -49 214zM461 1507h205l82 -121l129 121h229l-258 -280h-230z" />
<glyph unicode="&#x10e;" horiz-adv-x="1333" d="M119 0l237 1499h625q123 0 210 -45t134 -119q84 -137 84 -372q0 -115 -23 -267q-78 -510 -315 -635q-119 -61 -301 -61h-651zM500 291h262q119 0 186.5 112.5t104.5 341.5q23 168 22.5 249t-24 129t-61.5 66.5t-97 18.5h-248zM621 1911h204l82 -121l129 121h230 l-258 -281h-230z" />
<glyph unicode="&#x10f;" horiz-adv-x="1527" d="M133 358q0 94 21.5 228.5t50 227.5t79 163t125 98.5t213 28.5t267.5 -68l90 572h336l-256 -1608h-281l-41 106q-160 -119 -311 -118q-293 0 -293 370zM477 401.5q0 -53.5 6 -77.5q18 -57 82 -58q133 0 209 58l78 491q-63 37 -195 37q-41 0 -67.5 -19.5t-53 -87t-43 -179 t-16.5 -165zM1389 1188l22 274l21 140h213l-21 -140l-63 -274h-172z" />
<glyph unicode="&#x110;" horiz-adv-x="1325" d="M115 692l24 144h131l107 663h635q123 0 209 -48t131 -124q80 -137 80 -364q0 -117 -23 -267q-63 -377 -200.5 -536.5t-403.5 -159.5h-666l109 692h-133zM520 291h271q113 0 179 113.5t95 297.5q31 195 31 284t-19.5 137t-53.5 66.5t-87 18.5h-270l-60 -372h209l-22 -144 h-209z" />
<glyph unicode="&#x111;" horiz-adv-x="1134" d="M133 360q0 94 21.5 228.5t50 227.5t79 162t125 97.5t213 28.5t267.5 -68l29 195h-205l22 141h207l37 236h336l-37 -236h127l-25 -141h-127l-194 -1231h-281l-41 106q-160 -119 -311 -118q-293 0 -293 372zM477 401.5q0 -53.5 6 -77.5q18 -57 82 -58q133 0 209 58l78 491 q-63 37 -195 37q-41 0 -67.5 -19.5t-53 -87t-43 -179t-16.5 -165z" />
<glyph unicode="&#x112;" horiz-adv-x="1142" d="M143 258q0 33 4 70l138 860q30 195 153 258q57 31 113.5 42t93.5 11h41q453 -8 629 -33l-45 -280h-541q-100 0 -119 -80q-2 -12 -6 -35l-24 -164l544 -22l-45 -277l-551 -18l-28 -176q-12 -78 28 -95q31 -12 82 -12h523l-46 -278q-145 -18 -501 -31l-119 -4h-33.5 t-64.5 6t-90 29q-135 63 -136 229zM565 1622l29 176h598l-29 -176h-598z" />
<glyph unicode="&#x113;" horiz-adv-x="1081" d="M129 387q0 109 22.5 229.5t47 192.5t64.5 132t97 95q127 72 359 72q178 0 299 -59q131 -66 131 -234q0 -115 -38 -199t-92 -128t-122 -69.5t-122 -30.5t-144 -5t-158 29q-6 -31 -6 -71t29 -67q31 -29 137 -28q223 0 424 37l-41 -238q-207 -66 -447 -65q-70 0 -139 6 q-301 18 -301 401zM428 1217l29 174h598l-29 -174h-598zM500 629q43 -8 96 -8t91 8t73 37q47 37 47 106q0 37 -24.5 57.5t-90.5 20.5q-123 0 -160 -96q-18 -43 -32 -125z" />
<glyph unicode="&#x116;" horiz-adv-x="1142" d="M143 258q0 33 4 70l138 860q30 195 153 258q57 31 113.5 42t93.5 11h41q453 -8 629 -33l-45 -280h-541q-100 0 -119 -80q-2 -12 -6 -35l-24 -164l544 -22l-45 -277l-551 -18l-28 -176q-12 -78 28 -95q31 -12 82 -12h523l-46 -278q-145 -18 -501 -31l-119 -4h-33.5 t-64.5 6t-90 29q-135 63 -136 229zM760 1679l28 172q7 52 58 52h164q45 0 39 -52l-29 -172q-6 -47 -53 -47h-164q-23 0 -34 13.5t-9 33.5z" />
<glyph unicode="&#x117;" horiz-adv-x="1081" d="M129 387q0 109 22.5 229.5t47 192.5t64.5 132t97 95q127 72 359 72q178 0 299 -59q131 -66 131 -234q0 -115 -38 -199t-92 -128t-122 -69.5t-122 -30.5t-144 -5t-158 29q-6 -31 -6 -71t29 -67q31 -29 137 -28q223 0 424 37l-41 -238q-207 -66 -447 -65q-70 0 -139 6 q-301 18 -301 401zM500 629q43 -8 96 -8t91 8t73 37q47 37 47 106q0 37 -24.5 57.5t-90.5 20.5q-123 0 -160 -96q-18 -43 -32 -125zM610 1278l29 172q6 51 57 51h164q45 0 39 -51l-29 -172q-6 -47 -53 -47h-164q-20 0 -32.5 13t-10.5 34z" />
<glyph unicode="&#x118;" horiz-adv-x="1138" d="M145 258q0 33 7 70l135 860q30 195 153 258q57 31 113.5 42t93.5 11h41q453 -8 629 -33l-45 -280h-541q-100 0 -119 -80q-2 -12 -6 -35l-24 -164l544 -22l-45 -277l-551 -18l-28 -176q-12 -78 28 -95q31 -12 84 -12h521l-45 -278q-145 -18 -502 -31l-117 -4h-35.5 t-64.5 6t-90 29q-135 63 -136 229zM795 -181.5q0 54.5 39.5 111t128.5 99.5h124q-110 -74 -110 -142q0 -10 2 -22q16 -61 96 -53l-26 -168q-31 -10 -62 -10.5t-76 15t-77 60.5q-39 55 -39 109.5z" />
<glyph unicode="&#x119;" horiz-adv-x="1081" d="M131 387q0 178 55 375q35 131 77 181t82 80t93 48q113 37 241 37t202 -14q270 -49 270 -279q0 -115 -39 -199t-92 -128t-121 -69.5t-123 -30.5t-144 -5t-159 29q-4 -31 -4 -71t29 -67q31 -29 135 -28q225 0 426 37l-41 -238q-207 -66 -449 -65q-68 0 -139 6 q-299 18 -299 401zM500 629q43 -8 97 -8t91 8t74 37q47 37 47 106q0 37 -24.5 57.5t-90.5 20.5q-123 0 -162 -96q-18 -43 -32 -125zM725 -165q0 54 40 110.5t128 99.5h125q-113 -73 -113 -141q0 -10 4 -23q16 -61 97 -53l-27 -168q-31 -10 -61.5 -10t-76.5 15.5t-77 60.5 q-39 55 -39 109z" />
<glyph unicode="&#x11a;" horiz-adv-x="1142" d="M143 258q0 33 4 70l138 860q30 195 153 258q57 31 113.5 42t93.5 11h41q453 -8 629 -33l-45 -280h-541q-100 0 -119 -80q-2 -12 -6 -35l-24 -164l544 -22l-45 -277l-551 -18l-28 -176q-12 -78 28 -95q31 -12 82 -12h523l-46 -278q-145 -18 -501 -31l-119 -4h-33.5 t-64.5 6t-90 29q-135 63 -136 229zM598 1913h203l84 -119l129 119h227l-258 -281h-229z" />
<glyph unicode="&#x11b;" horiz-adv-x="1081" d="M129 387q0 109 22.5 229.5t47 192.5t64.5 132t97 95q127 72 359 72q178 0 299 -59q131 -66 131 -234q0 -115 -38 -199t-92 -128t-122 -69.5t-122 -30.5t-144 -5t-158 29q-6 -31 -6 -71t29 -67q31 -29 137 -28q223 0 424 37l-41 -238q-207 -66 -447 -65q-70 0 -139 6 q-301 18 -301 401zM463 1511h205l82 -118l129 118h229l-258 -280h-232zM500 629q43 -8 96 -8t91 8t73 37q47 37 47 106q0 37 -24.5 57.5t-90.5 20.5q-123 0 -160 -96q-18 -43 -32 -125z" />
<glyph unicode="&#x11c;" horiz-adv-x="1259" d="M170 494q0 152 30.5 314.5t62.5 267t79 193.5t113 140q133 107 366 107h74t149 -7q137 -10 353 -69l-41 -256q-6 2 -27.5 5t-48.5 6t-63.5 7t-77.5 8t-84 9q-98 6 -177 6t-125 -16.5t-89 -67.5q-78 -92 -123 -389q-27 -154 -27 -206v-61q2 -100 44 -143t138 -43 q109 0 203 80q10 8 19 20l36 213h-161l32 211q117 49 367 49q66 0 139 -4l-139 -868h-240l-75 104q-72 -74 -148 -92q-92 -25 -179 -24.5t-157.5 29t-118.5 87.5q-104 139 -104 390zM580 1638l258 281h237l150 -281h-205l-76 121l-135 -121h-229z" />
<glyph unicode="&#x11d;" horiz-adv-x="1142" d="M27 -508l34 223h437q82 0 136 49.5t68 145.5l27 172q-102 -78 -252.5 -78t-234.5 77t-99 214q-4 47 -4 124t19.5 209t63.5 228t108 152q121 102 315 102q223 0 374.5 -25.5t203.5 -42.5l-187 -1177q-68 -426 -452 -426q-39 0 -84 4zM442 1233l258 280h238l147 -280h-202 l-78 119l-135 -119h-228zM473 374.5q0 -18.5 4 -37t17 -40.5q23 -39 105.5 -39t164.5 41l90 565h-166q-70 0 -108 -47q-21 -24 -35.5 -49t-38 -113t-28.5 -175t-5 -105.5z" />
<glyph unicode="&#x11e;" horiz-adv-x="1259" d="M170 494q0 152 30.5 314.5t62.5 267t79 193.5t113 140q133 107 366 107h74t149 -7q137 -10 353 -69l-41 -256q-6 2 -27.5 5t-48.5 6t-63.5 7t-77.5 8t-84 9q-98 6 -177 6t-125 -16.5t-89 -67.5q-78 -92 -123 -389q-27 -154 -27 -206v-61q2 -100 44 -143t138 -43 q109 0 203 80q10 8 19 20l36 213h-161l32 211q117 49 367 49q66 0 139 -4l-139 -868h-240l-75 104q-72 -74 -148 -92q-92 -25 -179 -24.5t-157.5 29t-118.5 87.5q-104 139 -104 390zM700 1843q0 12 2 25h125v-32t21.5 -49.5t73.5 -25.5q113 0 122 107h127 q-12 -109 -77.5 -169.5t-171 -60.5t-164 58.5t-58.5 146.5z" />
<glyph unicode="&#x11f;" horiz-adv-x="1142" d="M27 -508l34 223h437q82 0 136 49.5t68 145.5l27 172q-102 -78 -252.5 -78t-234.5 77t-99 214q-4 47 -4 124t19.5 209t63.5 228t108 152q121 102 315 102q223 0 374.5 -25.5t203.5 -42.5l-187 -1177q-68 -426 -452 -426q-39 0 -84 4zM473 374.5q0 -18.5 4 -37t17 -40.5 q23 -39 105.5 -39t164.5 41l90 565h-166q-70 0 -108 -47q-21 -24 -35.5 -49t-38 -113t-28.5 -175t-5 -105.5zM559 1436v26h127v-32.5t21.5 -48t70.5 -25.5h2q111 0 123 106h127q-12 -109 -78.5 -169t-171 -60t-163 58.5t-58.5 144.5z" />
<glyph unicode="&#x120;" horiz-adv-x="1259" d="M170 494q0 152 30.5 314.5t62.5 267t79 193.5t113 140q133 107 366 107h74t149 -7q137 -10 353 -69l-41 -256q-6 2 -27.5 5t-48.5 6t-63.5 7t-77.5 8t-84 9q-98 6 -177 6t-125 -16.5t-89 -67.5q-78 -92 -123 -389q-27 -154 -27 -206v-61q2 -100 44 -143t138 -43 q109 0 203 80q10 8 19 20l36 213h-161l32 211q117 49 367 49q66 0 139 -4l-139 -868h-240l-75 104q-72 -74 -148 -92q-92 -25 -179 -24.5t-157.5 29t-118.5 87.5q-104 139 -104 390zM786 1686l29 172q6 51 57 51h164q45 0 39 -51l-28 -172q-6 -47 -54 -48h-164 q-20 0 -32.5 13.5t-10.5 34.5z" />
<glyph unicode="&#x121;" horiz-adv-x="1142" d="M27 -508l34 223h437q82 0 136 49.5t68 145.5l27 172q-102 -78 -252.5 -78t-234.5 77t-99 214q-4 47 -4 124t19.5 209t63.5 228t108 152q121 102 315 102q223 0 374.5 -25.5t203.5 -42.5l-187 -1177q-68 -426 -452 -426q-39 0 -84 4zM473 374.5q0 -18.5 4 -37t17 -40.5 q23 -39 105.5 -39t164.5 41l90 565h-166q-70 0 -108 -47q-21 -24 -35.5 -49t-38 -113t-28.5 -175t-5 -105.5zM639 1278l29 172q6 53 57 53h164q45 0 39 -53l-29 -172q-6 -45 -53 -45h-164q-20 0 -32.5 12t-10.5 33z" />
<glyph unicode="&#x122;" horiz-adv-x="1259" d="M170 494q0 152 30.5 314.5t62.5 267t79 193.5t113 140q133 107 366 107h74t149 -7q137 -10 353 -69l-41 -256q-6 2 -27.5 5t-48.5 6t-63.5 7t-77.5 8t-84 9q-98 6 -177 6t-125 -16.5t-89 -67.5q-78 -92 -123 -389q-27 -154 -27 -206v-61q2 -100 44 -143t138 -43 q109 0 203 80q10 8 19 20l36 213h-161l32 211q117 49 367 49q66 0 139 -4l-139 -868h-240l-75 104q-72 -74 -148 -92q-92 -25 -179 -24.5t-157.5 29t-118.5 87.5q-104 139 -104 390zM489 -571l17 100q53 -2 61 35q2 4 6 26h-20q-20 0 -31.5 12.5t-7.5 32.5l29 185 q8 49 53 49h178q37 0 37 -37q0 -6 -2 -12l-39 -250q-10 -59 -42 -96t-73 -47q-43 -10 -79.5 -10.5t-59.5 5.5z" />
<glyph unicode="&#x123;" horiz-adv-x="1280" d="M61 -508l37 223h434q82 0 136.5 49.5t68.5 145.5l29 172q-102 -78 -254 -78t-234.5 77t-97.5 214q-6 47 -6 124t20.5 209t64.5 228t108 152q121 102 313 102q225 0 376.5 -25.5t200.5 -42.5l-186 -1177q-68 -426 -453 -426q-39 0 -81 4zM508 374.5q0 -18.5 5 -37 t17 -40.5q20 -41 104.5 -40t164.5 42l92 565h-166q-72 0 -111 -47q-18 -24 -32.5 -49t-39 -113t-29.5 -175t-5 -105.5zM682 1272v14l39 248q10 61 42 98t71.5 46.5t61.5 9.5h40t41 -7l24 -6l-16 -100h-4q-53 0 -59 -43l-4 -19h20q45 0 39 -45l-27 -182q-10 -49 -57 -49h-176 q-35 0 -35 35z" />
<glyph unicode="&#x124;" horiz-adv-x="1302" d="M113 0l237 1499h336l-98 -622h440l98 622h336l-237 -1499h-336l90 573h-440l-90 -573h-336zM604 1632l258 281h238l149 -281h-205l-75 121l-135 -121h-230z" />
<glyph unicode="&#x125;" horiz-adv-x="1130" d="M-4 0l254 1602h336l-101 -627q137 100 238 121q51 10 129 10t138.5 -31t84.5 -84q29 -68 29 -142.5t-14 -135.5l-113 -713h-336l113 717q6 27 6 47q0 84 -80 84q-74 0 -125 -20.5t-102 -65.5l-121 -762h-336zM100 1724l258 283h238l149 -283h-204l-76 123l-135 -123h-230 z" />
<glyph unicode="&#x126;" horiz-adv-x="1370" d="M115 0l168 1057h-131l20 143h131l49 299h336l-49 -299h440l49 299h336l-49 -299h129l-20 -143h-129l-168 -1057h-336l90 573h-440l-90 -573h-336zM590 879h440l29 178h-441z" />
<glyph unicode="&#x127;" horiz-adv-x="1167" d="M123 0l196 1233h-133l23 143h131l37 226h336l-37 -226h215l-23 -143h-213l-41 -258q14 10 72.5 45t83.5 47q84 39 184 39h2q190 0 242 -115q29 -68 29 -142.5t-15 -135.5l-112 -713h-336l113 717q6 27 6 47q0 84 -80 84q-127 0 -221 -86l-121 -762h-338z" />
<glyph unicode="&#x128;" horiz-adv-x="546" d="M115 0l237 1499h336l-237 -1499h-336zM207 1757q143 145 274 146q47 0 107.5 -36t97.5 -36h29.5t82 23.5t93.5 56.5l29 -135q-141 -143 -254 -144q-49 0 -117 36t-115 36q-80 0 -194 -72z" />
<glyph unicode="&#x129;" horiz-adv-x="485" d="M61 0l172 1087h336l-172 -1087h-336zM68 1350q143 145 272 145q49 0 108.5 -35t96.5 -35q4 -2 29.5 -2t82 23.5t93.5 56.5l28 -135q-139 -143 -254 -143q-49 0 -116.5 35.5t-114.5 35.5q-80 0 -195 -71z" />
<glyph unicode="&#x12a;" horiz-adv-x="546" d="M90 0l238 1499h336l-238 -1499h-336zM213 1630l27 174h598l-27 -174h-598z" />
<glyph unicode="&#x12b;" horiz-adv-x="485" d="M61 0l172 1087h336l-172 -1087h-336zM115 1225l28 176h598l-28 -176h-598z" />
<glyph unicode="&#x12e;" horiz-adv-x="546" d="M67.5 -209q0.5 53 39 110.5t126.5 100.5h125q-110 -73 -110 -141q0 -12 2 -23q16 -63 96 -53l-27 -170q-31 -8 -61.5 -8t-75.5 15.5t-76 60.5q-39 55 -38.5 108zM115 0l237 1499h336l-237 -1499h-336z" />
<glyph unicode="&#x12f;" horiz-adv-x="485" d="M14 -203q0 53 40 110.5t126 100.5h127q-112 -73 -112 -141q0 -12 4 -23q16 -63 96 -53l-27 -170q-31 -8 -61.5 -8t-76.5 15.5t-77 60.5q-39 55 -39 108zM76 0l172 1087h336l-172 -1087h-336zM266 1243l31 207q6 51 57 51h256q39 0 39 -37q0 -6 -2 -14l-31 -207 q-6 -47 -55 -47h-254q-23 0 -34 13.5t-7 33.5z" />
<glyph unicode="&#x130;" horiz-adv-x="546" d="M115 0l237 1499h336l-237 -1499h-336zM418 1679l28 172q6 51 58 52h164q39 0 39 -41v-11l-29 -172q-6 -47 -53 -47h-164q-20 0 -32.5 13.5t-10.5 33.5z" />
<glyph unicode="&#x131;" horiz-adv-x="485" d="M61 0l172 1087h336l-172 -1087h-336z" />
<glyph unicode="&#x134;" horiz-adv-x="727" d="M55 49l43 264q41 -2 73 -2t64.5 3t70.5 23.5t56.5 60.5t28.5 110l158 991h336l-185 -1161q-35 -229 -157 -301q-82 -47 -224 -47q-184 0 -264 59zM414 1632l258 281h237l150 -281h-205l-76 121l-135 -121h-229z" />
<glyph unicode="&#x135;" horiz-adv-x="514" d="M12 -553l262 1640h338l-174 -1095q-27 -170 -62.5 -301t-107.5 -244h-256zM125 1219l258 282h238l149 -282h-207l-90 118l-133 -118h-215z" />
<glyph unicode="&#x136;" horiz-adv-x="1306" d="M111 0l237 1499h320l-97 -610h91l440 610h405l-553 -778l316 -721h-381l-240 598h-123l-94 -598h-321zM453 -561l16 100q53 -2 61 35q0 4 5 27h-21q-20 0 -31.5 12t-7.5 35l29 182q8 49 55 49h176q37 0 37 -37v-12l-41 -250q-8 -59 -41 -96t-72 -47q-43 -10 -80.5 -10 t-60.5 6z" />
<glyph unicode="&#x137;" horiz-adv-x="1116" d="M82 -4l254 1601h336l-142 -892q121 47 220.5 147t142.5 231h352q-94 -344 -368 -497l303 -590h-369l-238 481l-77 -2l-78 -479h-336zM410 -561l16 100q39 -2 49 10q10 16 17 52h-19q-20 0 -31.5 12t-7.5 35l29 182q8 49 53 49h176q39 0 39 -37q0 -6 -2 -12l-39 -250 q-10 -59 -43 -96t-72 -47q-43 -10 -80.5 -10t-60.5 6z" />
<glyph unicode="&#x138;" horiz-adv-x="1191" d="M82 0l172 1087h338l-68 -428h84l342 428h389l-440 -575l246 -512h-371l-188 418h-99l-67 -418h-338z" />
<glyph unicode="&#x139;" horiz-adv-x="1079" d="M55 233q0 33 6 70l191 1196h336l-174 -1087q-10 -78 28 -95q31 -12 84 -12h473l-49 -305h-612q-143 0 -213 65.5t-70 167.5zM326 1622l219 287h272l-289 -287h-202z" />
<glyph unicode="&#x13a;" horiz-adv-x="643" d="M117 279q0 49 8 108l192 1217h336l-182 -1155q-16 -113 -3 -144t24.5 -41t71 -35.5t71.5 -25.5l-33 -203h-201q-156 0 -231 92q-53 66 -53 187zM403 1726l220 289h272l-289 -289h-203z" />
<glyph unicode="&#x13b;" horiz-adv-x="1079" d="M152 233q0 33 4 70l190 1196h336l-172 -1087q-12 -78 29 -95q29 -12 82 -12h473l-50 -305h-612q-141 0 -210.5 65.5t-69.5 167.5zM395 -561l17 100q39 -2 47 10q12 16 18 52h-20q-20 0 -31.5 12t-7.5 35l28 182q8 49 56 49h176q37 0 37 -37v-12l-41 -250 q-12 -88 -70 -123q-51 -31 -106 -30q-57 0 -103 12z" />
<glyph unicode="&#x13c;" horiz-adv-x="643" d="M131 279q0 49 8 108l193 1217h336l-183 -1155q-18 -113 -3.5 -144t25.5 -41t70.5 -35.5t69.5 -25.5l-31 -203h-200q-156 0 -232 92q-53 66 -53 187zM141 -561l17 100q39 -2 49 10q12 16 18 52h-20q-20 0 -31.5 12t-7.5 35l29 182q8 49 53 49h178q37 0 37 -37q0 -6 -2 -12 l-39 -250q-10 -59 -42 -96t-73 -47q-43 -10 -80 -10t-59 6z" />
<glyph unicode="&#x13d;" horiz-adv-x="1079" d="M152 233q0 33 4 70l190 1196h336l-172 -1087q-12 -78 29 -95q29 -12 82 -12h473l-50 -305h-612q-141 0 -210.5 65.5t-69.5 167.5zM766 1169l20 275l21 137h213l-21 -137l-63 -275h-170z" />
<glyph unicode="&#x13e;" horiz-adv-x="798" d="M131 274q0 51 10 113l193 1217h336l-185 -1155q-18 -113 -3.5 -144t25.5 -41t71.5 -35.5t70.5 -25.5l-31 -203h-217q-270 0 -270 274zM752 1190l20 274l23 138h213l-23 -138l-63 -274h-170z" />
<glyph unicode="&#x141;" horiz-adv-x="1083" d="M49 614l27 156l166 66l104 663h336l-82 -520l223 90l-24 -156l-224 -90l-65 -411q-12 -80 27 -95q33 -12 84 -12h473l-47 -305h-613q-143 0 -212.5 65.5t-69.5 167.5q0 33 6 70l59 377z" />
<glyph unicode="&#x142;" horiz-adv-x="692" d="M80 705l26 155l156 62l111 682h336l-84 -539l229 94l-25 -155l-229 -95l-76 -460q-18 -113 -5 -144t25.5 -41t72 -35.5t71.5 -25.5l-33 -203h-200q-154 0 -232 92q-53 63 -53 187q0 49 8 108l62 379z" />
<glyph unicode="&#x143;" horiz-adv-x="1376" d="M111 0l237 1499h338l373 -887l139 887h336l-238 -1499h-333l-377 870l-137 -870h-338zM860 1632l219 289h271l-287 -289h-203z" />
<glyph unicode="&#x144;" horiz-adv-x="1130" d="M82 0l172 1087h276l43 -112q145 104 238 121q49 10 127 10t139.5 -31t83.5 -84q29 -68 29 -142.5t-12 -135.5l-113 -713h-336l113 717q4 27 4 47q0 84 -80 84q-72 0 -124 -20.5t-101 -65.5l-123 -762h-336zM668 1229l219 287h270l-287 -287h-202z" />
<glyph unicode="&#x145;" horiz-adv-x="1376" d="M111 0l237 1499h338l373 -887l139 887h336l-238 -1499h-333l-377 870l-137 -870h-338zM514 -561l16 100q51 -2 62 33q0 4 4 29h-18q-20 0 -31.5 12t-7.5 35l28 182q8 49 54 49h176q39 0 39 -37q0 -6 -2 -12l-39 -250q-10 -59 -43 -96t-72 -47q-43 -10 -81 -10t-60 6z" />
<glyph unicode="&#x146;" horiz-adv-x="1130" d="M82 0l172 1087h276l43 -112q145 104 238 121q49 10 127 10t139.5 -31t83.5 -84q29 -68 29 -142.5t-12 -135.5l-113 -713h-336l113 717q4 27 4 47q0 84 -80 84q-72 0 -124 -20.5t-101 -65.5l-123 -762h-336zM369 -561l16 100q41 -2 49 10q12 16 19 52h-21q-20 0 -31.5 12 t-7.5 35l29 182q8 49 53 49h178q37 0 37 -37v-12l-41 -250q-10 -59 -42 -96t-70 -47q-45 -10 -82 -10t-60 6z" />
<glyph unicode="&#x147;" horiz-adv-x="1376" d="M111 0l237 1499h338l373 -887l139 887h336l-238 -1499h-333l-377 870l-137 -870h-338zM684 1913h205l82 -119l129 119h229l-258 -281h-231z" />
<glyph unicode="&#x148;" horiz-adv-x="1130" d="M82 0l172 1087h276l43 -112q145 104 238 121q49 10 127 10t139.5 -31t83.5 -84q29 -68 29 -142.5t-12 -135.5l-113 -713h-336l113 717q4 27 4 47q0 84 -80 84q-72 0 -124 -20.5t-101 -65.5l-123 -762h-336zM494 1511h202l84 -122l129 122h228l-258 -282h-230z" />
<glyph unicode="&#x14a;" horiz-adv-x="1376" d="M111 0l237 1499h338l373 -878l139 878h336l-260 -1640q-16 -109 -62.5 -187t-108 -116.5t-135 -62t-112.5 -23.5q-88 0 -190 4l39 239q6 0 29.5 2t41 4t45 8.5t43 16.5t31.5 27q33 29 43 102l23 131l-375 860l-137 -864h-338z" />
<glyph unicode="&#x14b;" horiz-adv-x="1144" d="M82 0l172 1087h276l43 -112q16 10 74 45t82 47q84 39 185.5 39t163 -31t83.5 -84q29 -68 29 -142.5t-12 -135.5l-113 -713l-23 -123q-16 -96 -61 -174t-98.5 -122t-118.5 -75q-109 -49 -215 -55l-47 184q88 29 124 60t53 70.5t28 103.5l135 848q4 27 4 47q0 84 -80 84 q-72 0 -124 -20.5t-101 -65.5l-123 -762h-336z" />
<glyph unicode="&#x14c;" d="M178 451q0 55 1 119.5t24.5 210t58.5 259t72 190.5t93 130t104.5 83t123 45t131 18t141.5 3t148.5 -8t126 -30.5t107.5 -59.5q141 -123 141 -418q0 -131 -23.5 -281.5t-56.5 -258t-69.5 -182t-90 -127t-103.5 -82t-122 -46.5q-113 -25 -241 -24.5t-191.5 7.5t-127 28.5 t-106.5 58.5q-100 84 -129 238q-12 72 -12 127zM514 532.5q0 -49.5 3 -86t16.5 -66.5t41.5 -50q49 -33 162 -33t174.5 35t104.5 130t67 249q29 180 29 255.5t-8 122t-40 72t-71 34.5t-106.5 9t-108.5 -7t-81 -32.5t-65.5 -77t-49 -135.5t-46 -227t-22.5 -192.5zM655 1630 l29 174h598l-29 -174h-598z" />
<glyph unicode="&#x14d;" horiz-adv-x="1136" d="M135 389q0 80 18.5 195.5t50.5 208t77 154t112 95.5q123 60 348 60q274 0 369 -146q61 -96 61 -264q0 -90 -18 -207.5t-48 -201.5t-73 -142.5t-108 -91.5q-123 -59 -353 -59q-274 0 -372 139q-63 94 -64 260zM463 1225l26 176h598l-26 -176h-598zM469 392q0 -34 2 -56.5 t10 -41t29 -28.5q29 -16 92.5 -16t92 6t54 36t40 83t33 158.5t18.5 144.5q0 117 -32 141.5t-124 24.5t-129 -55.5t-61.5 -209t-24.5 -187.5z" />
<glyph unicode="&#x150;" d="M178 451q0 55 1 119.5t24.5 210t58.5 259t72 190.5t93 130t104.5 83t123 45t131 18t141.5 3t148.5 -8t126 -30.5t107.5 -59.5q141 -123 141 -418q0 -131 -23.5 -281.5t-56.5 -258t-69.5 -182t-90 -127t-103.5 -82t-122 -46.5q-113 -25 -241 -24.5t-191.5 7.5t-127 28.5 t-106.5 58.5q-100 84 -129 238q-12 72 -12 127zM514 532.5q0 -49.5 3 -86t16.5 -66.5t41.5 -50q49 -33 162 -33t174.5 35t104.5 130t67 249q29 180 29 255.5t-8 122t-40 72t-71 34.5t-106.5 9t-108.5 -7t-81 -32.5t-65.5 -77t-49 -135.5t-46 -227t-22.5 -192.5zM682 1632 l219 289h270l-286 -289h-203zM1016 1632l219 289h272l-288 -289h-203z" />
<glyph unicode="&#x151;" horiz-adv-x="1136" d="M135 389q0 80 18.5 195.5t50.5 208t77 154t112 95.5q123 60 348 60q274 0 369 -146q61 -96 61 -264q0 -90 -18 -207.5t-48 -201.5t-73 -142.5t-108 -91.5q-123 -59 -353 -59q-274 0 -372 139q-63 94 -64 260zM469 392q0 -34 2 -56.5t10 -41t29 -28.5q29 -16 92.5 -16 t92 6t54 36t40 83t33 158.5t18.5 144.5q0 117 -32 141.5t-124 24.5t-129 -55.5t-61.5 -209t-24.5 -187.5zM492 1225l219 288h272l-289 -288h-202zM827 1225l220 288h270l-287 -288h-203z" />
<glyph unicode="&#x152;" horiz-adv-x="2097" d="M139.5 451q-0.5 55 1.5 119.5t24.5 210t57.5 259t73 190.5t93 130t104.5 83t122.5 44q109 23 277 22q250 0 360 -96q86 88 246 88q18 0 37 -2q455 -8 631 -33l-45 -280h-541q-76 0 -100 -37q-18 -29 -27 -78l-24 -164l544 -22l-41 -277l-553 -18l-28 -176q-12 -78 26 -95 q31 -12 84 -12h520l-43 -278q-158 -20 -593 -35h-27h-21q-141 0 -221 80q-78 -49 -176 -65.5t-209.5 -16.5t-176 7t-128 28.5t-106.5 58.5q-100 84 -127 238q-14 72 -14.5 127zM477 532.5q0 -49.5 2 -86t16.5 -66.5t43.5 -50q49 -33 161.5 -33t174 35t103.5 130t66 249 q29 180 29 255.5t-8 122t-39 72t-71 34.5t-107.5 9t-107.5 -7t-81 -32.5t-66.5 -77t-48 -135.5t-45 -227t-22.5 -192.5z" />
<glyph unicode="&#x153;" horiz-adv-x="1746" d="M123 389q0 82 20.5 214t62.5 235.5t115.5 163t167 80t240.5 20.5q203 0 299 -84q119 90 371 90q180 0 299 -59q133 -66 133 -234q0 -115 -39 -199t-92 -128t-122 -69.5t-123 -30.5t-144 -5t-158 29q-4 -39 -4 -57.5t1 -38t24 -37.5q37 -33 143 -33q221 0 422 37l-41 -238 q-209 -66 -449 -65q-68 0 -139 6q-121 6 -184 80q-115 -76 -378 -76t-360 139q-66 94 -65 260zM457 392q0 -34 3 -56.5t11 -41t27 -28.5q31 -16 93 -16t91 6t54.5 36t40 83t33.5 158.5t19 144.5q0 117 -31.5 141.5t-124.5 24.5t-129 -55.5t-61.5 -209t-25.5 -187.5z M1180 629q41 -8 95 -8t92 8t73 37q47 37 47 106q0 37 -24.5 57.5t-90.5 20.5q-123 0 -162 -96q-18 -43 -30 -125z" />
<glyph unicode="&#x154;" horiz-adv-x="1230" d="M88 0l238 1499h630q195 0 295 -125q72 -92 72 -254q0 -172 -55 -315q-31 -76 -60.5 -116t-72.5 -65.5t-67 -31.5t-56 -12l211 -580h-381l-166 563l-162 15l-90 -578h-336zM557 834h252q102 0 139 81q31 70 31 148t-14 104q-23 41 -93 41h-256zM737 1624l219 289h271 l-287 -289h-203z" />
<glyph unicode="&#x155;" horiz-adv-x="847" d="M123 0l172 1087h291l22 -137q141 148 303 148q76 0 109 -13l-51 -321q-61 2 -155.5 2t-154 -22.5t-98.5 -98.5l-102 -645h-336zM578 1225l219 288h272l-289 -288h-202z" />
<glyph unicode="&#x156;" horiz-adv-x="1230" d="M106 0l238 1499h631q195 0 295 -125q72 -92 71 -254q0 -172 -55 -315q-31 -76 -60.5 -116t-72.5 -65.5t-66.5 -31.5t-56.5 -12l211 -580h-381l-166 563l-162 15l-90 -578h-336zM446 -561l17 100q39 -2 49 10q10 16 16 52h-18q-20 0 -31.5 12t-7.5 35l29 182q8 49 53 49 h176q39 0 39 -37q0 -6 -2 -12l-39 -250q-10 -59 -43 -96t-72 -47q-43 -10 -80.5 -10t-60.5 6zM575 834h252q102 0 140 81q31 70 30.5 148t-14.5 104q-23 41 -92 41h-256z" />
<glyph unicode="&#x157;" horiz-adv-x="847" d="M86 -561l16 100q39 -2 50 10q12 16 18 52h-20q-20 0 -32 12t-7 35l28 182q8 49 54 49h178q37 0 37 -37q0 -6 -2 -12l-39 -250q-14 -88 -72 -123q-51 -31 -107 -30q-55 0 -102 12zM127 0l172 1087h291l24 -137q139 148 301 148q78 0 109 -13l-51 -321q-61 2 -132 2 t-101.5 -3t-65.5 -15q-66 -23 -109 -103l-102 -645h-336z" />
<glyph unicode="&#x158;" horiz-adv-x="1230" d="M106 0l238 1499h631q195 0 295 -125q72 -92 71 -254q0 -172 -55 -315q-31 -76 -60.5 -116t-72.5 -65.5t-66.5 -31.5t-56.5 -12l211 -580h-381l-166 563l-162 15l-90 -578h-336zM575 834h252q102 0 140 81q31 70 30.5 148t-14.5 104q-23 41 -92 41h-256zM594 1913h203 l84 -119l129 119h227l-258 -281h-229z" />
<glyph unicode="&#x159;" horiz-adv-x="847" d="M82 0l172 1087h291l24 -137q139 148 301 148q78 0 109 -13l-51 -321q-61 2 -155.5 2t-153 -22.5t-99.5 -98.5l-102 -645h-336zM362 1507h203l84 -121l129 121h228l-258 -282h-230z" />
<glyph unicode="&#x15a;" horiz-adv-x="1191" d="M133 49l41 262q197 -22 506 -22q74 0 119 23.5t55 84.5l10 60q4 37 0 63q-8 55 -106 55h-178q-213 0 -299 132q-55 86 -56 215q0 33 4 73l23 164q37 246 221 314q104 39 371.5 38.5t458.5 -63.5l-43 -262q-227 20 -494 20q-88 0 -128 -20.5t-52 -100.5l-8 -51 q-4 -23 -4.5 -52.5t22 -50t109.5 -20.5h184q84 0 147.5 -27.5t96.5 -70.5q72 -98 71 -205q0 -47 -4 -110l-8 -133q-14 -217 -145 -304q-78 -51 -154 -63q-96 -14 -252 -14t-273.5 12t-234.5 53zM735 1636l219 287h271l-287 -287h-203z" />
<glyph unicode="&#x15b;" horiz-adv-x="1042" d="M117 53l33 205h495q57 0 66 53l6 35q6 39 -10.5 47t-38.5 8h-222q-201 0 -260 154q-18 49 -18 95t6 83l16 96q20 133 99.5 202t237 69t248.5 -2t195.5 -17.5t135.5 -44.5l-33 -205h-475q-49 0 -66 -24q-8 -12 -10 -33l-6 -35q-4 -29 1 -35t6 -9t6.5 -5t7.5 -3t9 -1h9h10 h10h230q154 0 215 -94q47 -68 47 -158q0 -33 -6 -65l-19 -123q-25 -162 -122 -215q-82 -43 -197 -43t-188.5 1t-174.5 7q-197 12 -243 57zM608 1229l219 287h271l-287 -287h-203z" />
<glyph unicode="&#x15c;" horiz-adv-x="1191" d="M139 49l41 262q197 -22 506 -22q74 0 119 23.5t55 84.5l8 60q6 37 2 63q-8 55 -106 55h-178q-213 0 -299 132q-55 86 -56 215q0 33 7 73l20 164q37 246 221 314q104 39 371.5 38.5t456.5 -63.5l-41 -262q-227 20 -494 20q-88 0 -128 -20.5t-52 -100.5l-8 -51 q-4 -23 -4 -52.5t22.5 -50t106.5 -20.5h186q84 0 147.5 -27.5t96.5 -70.5q72 -98 71 -205q0 -47 -4 -110l-8 -133q-14 -217 -145 -304q-78 -51 -154 -63q-96 -14 -251.5 -14t-273.5 12t-235 53zM518 1636l258 281h238l147 -281h-203l-77 121l-136 -121h-227z" />
<glyph unicode="&#x15d;" horiz-adv-x="1042" d="M109 53l30 205h496q57 0 67 53l7 35q6 39 -10.5 47t-41.5 8h-221q-201 0 -258 154q-18 49 -18 95t4 83l16 96q23 133 100.5 202t236.5 69t250 -2t195.5 -17.5t135.5 -44.5l-33 -205h-475q-39 0 -55.5 -13t-22.5 -44l-4 -35q-6 -29 -1 -35t7 -9t7 -5t7 -3t9.5 -1h9.5h10h8 h232q152 0 215 -94q45 -68 45 -158q0 -33 -4 -65l-21 -123q-25 -162 -123 -215q-82 -43 -183 -43h-159.5t-146.5 4t-141 10q-135 16 -170 51zM383 1229l258 280h238l147 -280h-203l-78 119l-135 -119h-227z" />
<glyph unicode="&#x15e;" horiz-adv-x="1191" d="M139 49l41 262q197 -22 506 -22q74 0 119 23.5t55 84.5l8 60q6 37 2 63q-8 55 -106 55h-178q-213 0 -299 132q-55 86 -56 215q0 33 7 73l20 164q37 246 221 314q104 39 371.5 38.5t456.5 -63.5l-41 -262q-227 20 -494 20q-88 0 -128 -20.5t-52 -100.5l-8 -51 q-4 -23 -4 -52.5t22.5 -50t106.5 -20.5h186q84 0 147.5 -27.5t96.5 -70.5q72 -98 71 -205q0 -47 -4 -110l-8 -133q-14 -217 -145 -304q-78 -51 -154 -63q-96 -14 -251.5 -14t-273.5 12t-235 53zM377 -385l22 139l88 31q43 18 56.5 39.5t21.5 83.5h215q-16 -109 -49 -170 q-61 -125 -235 -123h-119z" />
<glyph unicode="&#x15f;" horiz-adv-x="1042" d="M109 53l30 205h496q57 0 67 53l7 35q6 39 -10.5 47t-41.5 8h-221q-201 0 -258 154q-18 49 -18 95t4 83l16 96q23 133 100.5 202t236.5 69t250 -2t195.5 -17.5t135.5 -44.5l-33 -205h-475q-39 0 -55.5 -13t-22.5 -44l-4 -35q-6 -29 -1 -35t7 -9t7 -5t7 -3t9.5 -1h9.5h10h8 h232q152 0 215 -94q45 -68 45 -158q0 -33 -4 -65l-21 -123q-25 -162 -123 -215q-82 -43 -183 -43h-159.5t-146.5 4t-141 10q-135 16 -170 51zM287 -373l22 140l88 30q43 18 55.5 40t22.5 83h215q-27 -160 -88 -226.5t-196 -66.5h-119z" />
<glyph unicode="&#x160;" horiz-adv-x="1191" d="M139 49l41 262q197 -22 506 -22q74 0 119 23.5t55 84.5l8 60q6 37 2 63q-8 55 -106 55h-178q-213 0 -299 132q-55 86 -56 215q0 33 7 73l20 164q37 246 221 314q104 39 371.5 38.5t456.5 -63.5l-41 -262q-227 20 -494 20q-88 0 -128 -20.5t-52 -100.5l-8 -51 q-4 -23 -4 -52.5t22.5 -50t106.5 -20.5h186q84 0 147.5 -27.5t96.5 -70.5q72 -98 71 -205q0 -47 -4 -110l-8 -133q-14 -217 -145 -304q-78 -51 -154 -63q-96 -14 -251.5 -14t-273.5 12t-235 53zM569 1917h203l84 -121l129 121h227l-258 -281h-229z" />
<glyph unicode="&#x161;" horiz-adv-x="1042" d="M109 53l30 205h496q57 0 67 53l7 35q6 39 -10.5 47t-41.5 8h-221q-201 0 -258 154q-18 49 -18 95t4 83l16 96q23 133 100.5 202t236.5 69t250 -2t195.5 -17.5t135.5 -44.5l-33 -205h-475q-39 0 -55.5 -13t-22.5 -44l-4 -35q-6 -29 -1 -35t7 -9t7 -5t7 -3t9.5 -1h9.5h10h8 h232q152 0 215 -94q45 -68 45 -158q0 -33 -4 -65l-21 -123q-25 -162 -123 -215q-82 -43 -183 -43h-159.5t-146.5 4t-141 10q-135 16 -170 51zM422 1509h205l82 -120l129 120h227l-258 -280h-229z" />
<glyph unicode="&#x162;" horiz-adv-x="1212" d="M193 1194l49 305h1130l-49 -305h-403l-189 -1194h-336l189 1194h-391zM254 -373l25 140l86 32q45 16 57 38t22 85h215q-27 -162 -89 -228.5t-195 -66.5h-121z" />
<glyph unicode="&#x163;" horiz-adv-x="768" d="M109 846l26 176l178 68l101 303h282l-47 -303h215l-37 -244h-217l-63 -395q-10 -51 -10 -79t5 -56.5t17 -44t75.5 -43t74.5 -27.5l-31 -203h-219q-141 0 -215 96q-51 66 -51 185q0 51 10 110l71 457h-165zM143 -375l23 139l88 31q45 18 55 39q14 27 23 84h215 q-25 -160 -87.5 -226.5t-197.5 -66.5h-119z" />
<glyph unicode="&#x164;" horiz-adv-x="1212" d="M238 1194l49 305h1132l-49 -305h-405l-189 -1194h-336l189 1194h-391zM596 1913h203l84 -119l129 119h227l-258 -281h-229z" />
<glyph unicode="&#x165;" horiz-adv-x="800" d="M147 846l27 176l176 68l101 303h284l-49 -303h217l-39 -244h-217l-61 -395q-12 -51 -12.5 -79t5 -56.5t17.5 -44t75.5 -43t76.5 -27.5l-33 -201h-219q-137 0 -213 92q-51 68 -52 187q0 51 9 110l71 457h-164zM831 1229l21 274l22 137h213l-22 -137l-64 -274h-170z" />
<glyph unicode="&#x166;" horiz-adv-x="1243" d="M238 1194l49 305h1132l-49 -305h-405l-50 -315h185l-23 -142h-184l-117 -737h-336l117 737h-184l22 142h185l49 315h-391z" />
<glyph unicode="&#x167;" horiz-adv-x="763" d="M123 518l22 141h138l28 187h-166l27 176l178 68l99 303h284l-47 -303h215l-37 -244h-217l-29 -187h152l-22 -141h-154l-10 -67q-10 -51 -10.5 -79t5 -56.5t17.5 -44t75.5 -43t73.5 -27.5l-30 -201h-219q-137 0 -213 92q-53 68 -54 187q0 51 11 110l18 129h-135z" />
<glyph unicode="&#x168;" horiz-adv-x="1337" d="M190 424q0 135 23 268l129 807h338l-135 -852q-14 -94 -14.5 -163.5t16.5 -110.5q35 -78 180 -78t204.5 82t88.5 270l135 852h338l-127 -899q-53 -346 -209 -479q-133 -113 -342 -127q-55 -4 -123.5 -4t-117 5t-101.5 17.5t-94 36t-78 57.5q-68 63 -98 213 q-12 57 -13 105zM604 1757q143 145 273 146q49 0 109 -36t95 -36h22.5t55.5 12q76 23 127 68l29 -135q-139 -143 -254 -144q-49 0 -116.5 36t-115.5 36q-80 0 -192 -72z" />
<glyph unicode="&#x169;" horiz-adv-x="1128" d="M114.5 236.5q0.5 74.5 12.5 140.5l115 710h336l-115 -718q-4 -27 -4 -54.5t15 -50t77 -22.5q119 0 215 86l119 759h336l-172 -1087h-277l-41 111q-86 -68 -158.5 -98.5t-178 -30.5t-166 30.5t-85.5 83.5q-29 66 -28.5 140.5zM418 1350q143 145 272 145q49 0 109.5 -35 t95.5 -35q6 -2 31.5 -2t81 23.5t92.5 56.5l30 -135q-141 -143 -253 -143q-51 0 -118 35.5t-114 35.5q-80 0 -194 -71z" />
<glyph unicode="&#x16a;" horiz-adv-x="1337" d="M190 424q0 135 23 268l129 807h338l-135 -852q-14 -94 -14.5 -163.5t16.5 -110.5q35 -78 180 -78t204.5 82t88.5 270l135 852h338l-127 -899q-53 -346 -209 -479q-133 -113 -342 -127q-55 -4 -123.5 -4t-117 5t-101.5 17.5t-94 36t-78 57.5q-68 63 -98 213 q-12 57 -13 105zM641 1632l27 174h598l-27 -174h-598z" />
<glyph unicode="&#x16b;" horiz-adv-x="1128" d="M114.5 236.5q0.5 74.5 12.5 140.5l115 710h336l-115 -718q-4 -27 -4 -54.5t15 -50t77 -22.5q119 0 215 86l119 759h336l-172 -1087h-277l-41 111q-86 -68 -158.5 -98.5t-178 -30.5t-166 30.5t-85.5 83.5q-29 66 -28.5 140.5zM455 1225l28 176h598l-28 -176h-598z" />
<glyph unicode="&#x16c;" horiz-adv-x="1337" d="M190 424q0 135 23 268l129 807h338l-135 -852q-14 -94 -14.5 -163.5t16.5 -110.5q35 -78 180 -78t204.5 82t88.5 270l135 852h338l-127 -899q-53 -346 -209 -479q-133 -113 -342 -127q-55 -4 -123.5 -4t-117 5t-101.5 17.5t-94 36t-78 57.5q-68 63 -98 213 q-12 57 -13 105zM741 1837v27h127q-2 -10 -2 -34t22.5 -49.5t72.5 -25.5h2q111 0 122 109h125q-10 -111 -76.5 -171.5t-172 -60.5t-163 59.5t-57.5 145.5z" />
<glyph unicode="&#x16d;" horiz-adv-x="1128" d="M114.5 236.5q0.5 74.5 12.5 140.5l115 710h336l-115 -718q-4 -27 -4 -54.5t15 -50t77 -22.5q119 0 215 86l119 759h336l-172 -1087h-277l-41 111q-86 -68 -158.5 -98.5t-178 -30.5t-166 30.5t-85.5 83.5q-29 66 -28.5 140.5zM555 1430v26h127q-2 -10 -2 -33.5t22.5 -49 t71.5 -25.5h2q111 0 123 108h127q-12 -111 -78.5 -171t-171 -60t-163 59t-58.5 146z" />
<glyph unicode="&#x16e;" horiz-adv-x="1337" d="M190 424q0 135 23 268l129 807h338l-135 -852q-14 -94 -14.5 -163.5t16.5 -110.5q35 -78 180 -78t204.5 82t88.5 270l135 852h338l-127 -899q-53 -346 -209 -479q-133 -113 -342 -127q-55 -4 -123.5 -4t-117 5t-101.5 17.5t-94 36t-78 57.5q-68 63 -98 213 q-12 57 -13 105zM762 1819q0 98 69.5 161.5t156.5 63.5t139.5 -56.5t52.5 -129.5q0 -98 -68 -162t-154 -64t-141 56.5t-55 130.5zM892 1838q-3 -34 18.5 -56.5t55 -22.5t58.5 22.5t27 48t-3.5 40t-13.5 24.5q-20 25 -54 25t-59.5 -23.5t-28.5 -57.5z" />
<glyph unicode="&#x16f;" horiz-adv-x="1128" d="M114.5 236.5q0.5 74.5 12.5 140.5l115 710h336l-115 -718q-4 -27 -4 -54.5t15 -50t77 -22.5q119 0 215 86l119 759h336l-172 -1087h-277l-41 111q-86 -68 -158.5 -98.5t-178 -30.5t-166 30.5t-85.5 83.5q-29 66 -28.5 140.5zM575 1411q0 100 70 163.5t156 63.5t139 -56 t53 -130q0 -100 -67.5 -163.5t-154.5 -63.5t-141.5 56t-54.5 130zM704.5 1431.5q-4.5 -32.5 17 -56t50.5 -23.5t47 10q39 23 43 62.5t-16.5 63t-54 23.5t-58 -23.5t-29 -56z" />
<glyph unicode="&#x170;" horiz-adv-x="1337" d="M190 424q0 135 23 268l129 807h338l-135 -852q-14 -94 -14.5 -163.5t16.5 -110.5q35 -78 180 -78t204.5 82t88.5 270l135 852h338l-127 -899q-53 -346 -209 -479q-133 -113 -342 -127q-55 -4 -123.5 -4t-117 5t-101.5 17.5t-94 36t-78 57.5q-68 63 -98 213 q-12 57 -13 105zM670 1632l219 289h272l-289 -289h-202zM1006 1632l219 289h270l-287 -289h-202z" />
<glyph unicode="&#x171;" horiz-adv-x="1128" d="M114.5 236.5q0.5 74.5 12.5 140.5l115 710h336l-115 -718q-4 -27 -4 -54.5t15 -50t77 -22.5q119 0 215 86l119 759h336l-172 -1087h-277l-41 111q-86 -68 -158.5 -98.5t-178 -30.5t-166 30.5t-85.5 83.5q-29 66 -28.5 140.5zM485 1225l220 288h270l-287 -288h-203z M819 1225l219 288h273l-289 -288h-203z" />
<glyph unicode="&#x172;" horiz-adv-x="1337" d="M190 424q0 135 23 268l129 807h338l-135 -852q-14 -94 -14.5 -163.5t16.5 -110.5q35 -78 180 -78t204.5 82t88.5 270l135 852h338l-127 -899q-53 -346 -209 -479q-133 -113 -342 -127q-55 -4 -123.5 -4t-117 5t-101.5 17.5t-94 36t-78 57.5q-68 63 -98 213 q-12 57 -13 105zM471 -208q0 54 40 110.5t128 99.5h125q-113 -73 -113 -141q0 -10 4 -23q16 -61 97 -53l-27 -170q-31 -8 -61.5 -8t-76.5 15.5t-77 60.5q-39 55 -39 109z" />
<glyph unicode="&#x173;" horiz-adv-x="1148" d="M114.5 236.5q0.5 74.5 12.5 140.5l115 710h336l-115 -718q-4 -27 -4 -54.5t15 -50t77 -22.5q119 0 215 86l119 759h336l-172 -1087h-277l-41 111q-86 -68 -158.5 -98.5t-178 -30.5t-166 30.5t-85.5 83.5q-29 66 -28.5 140.5zM678 -213.5q0 53.5 40 110t128 99.5h125 q-111 -71 -111 -139q0 -12 2 -23q16 -63 96 -55l-26 -168q-31 -8 -61.5 -8t-75.5 14t-78 59q-39 57 -39 110.5z" />
<glyph unicode="&#x174;" horiz-adv-x="2074" d="M276 1499h353l123 -1057l428 1057h356l-166 -377l98 -682l437 1059h354l-649 -1499h-385l-86 561l-242 -561h-410zM901 1632l258 281h238l149 -281h-205l-75 121l-136 -121h-229z" />
<glyph unicode="&#x175;" horiz-adv-x="1718" d="M164 1087h354l82 -716l215 465q59 121 70 254h315q6 -37 6 -103.5t-41 -171.5l-22 -57l69 -385l220 465q59 121 69 252h314q8 -37 8 -76q0 -135 -82 -289l-379 -725h-379l-63 360l-166 -360h-402zM694 1221l258 282h238l147 -282h-202l-78 120l-135 -120h-228z" />
<glyph unicode="&#x176;" d="M276 1499h365l139 -692l385 692h381l-651 -1059l-72 -440h-336l72 440zM610 1632l258 281h238l147 -281h-202l-78 121l-135 -121h-228z" />
<glyph unicode="&#x177;" horiz-adv-x="1163" d="M164 1087h348l45 -729q6 -74 92 -79l232 559q39 98 53 252h315q8 -41 8 -84q0 -129 -67 -285l-313 -721q-135 -309 -326 -453q-111 -82 -189 -108q-94 -29 -178 -43v235q131 66 212 155t145 214q-281 0 -308 295zM401 1221l258 282h238l150 -282h-205l-76 120l-135 -120 h-230z" />
<glyph unicode="&#x178;" d="M254 1499h364l140 -692l385 692h381l-652 -1059l-69 -440h-336l70 440zM541 1731q0 70 48 110.5t101 40.5t81 -32.5t28 -57.5q0 -78 -48.5 -120t-91.5 -42q-82 0 -108 64q-10 20 -10 37zM1063 1731q0 70 48 110.5t101.5 40.5t81 -32.5t27.5 -57.5q0 -78 -48 -120t-91 -42 q-82 0 -109 64q-10 20 -10 37z" />
<glyph unicode="&#x179;" horiz-adv-x="1136" d="M102 0l50 305l774 889h-635l49 305h1040l-49 -305l-745 -889h606l-49 -305h-1041zM778 1630l219 287h273l-289 -287h-203z" />
<glyph unicode="&#x17a;" horiz-adv-x="983" d="M96 2l41 272l535 539h-475l41 274h903l-43 -274l-506 -537h420l-43 -274h-873zM608 1223l219 288h273l-289 -288h-203z" />
<glyph unicode="&#x17b;" horiz-adv-x="1136" d="M49 0l49 305l774 889h-634l49 305h1040l-49 -305l-746 -889h607l-49 -305h-1041zM705 1679l28 172q7 52 58 52h163q45 0 39 -52l-28 -172q-6 -47 -54 -47h-163q-20 0 -33 13.5t-10 33.5z" />
<glyph unicode="&#x17c;" horiz-adv-x="983" d="M72 2l43 272l532 539h-475l41 274h903l-41 -274l-508 -537h420l-43 -274h-872zM565 1272l27 172q6 51 57 51h164q47 0 39 -51l-27 -172q-6 -47 -53 -47h-164q-23 0 -35 13t-8 34z" />
<glyph unicode="&#x17d;" horiz-adv-x="1136" d="M49 0l49 305l774 889h-634l49 305h1040l-49 -305l-746 -889h607l-49 -305h-1041zM551 1913h203l84 -119l129 119h227l-258 -281h-229z" />
<glyph unicode="&#x17e;" horiz-adv-x="983" d="M72 2l43 272l532 539h-475l41 274h903l-41 -274l-508 -537h420l-43 -274h-872zM410 1507h204l82 -121l129 121h230l-258 -282h-232z" />
<glyph unicode="&#x192;" horiz-adv-x="1138" d="M-31 -367l64 207h106q137 0 213 244q12 37 27 96l156 572h-166l69 243h168l8 41q160 582 467 602q41 0 56.5 1t29 1t41 -5t46 -8t40 -11t30.5 -11t23.5 -10.5t16.5 -7.5l-61 -207h-103q-115 0 -180 -145q-31 -72 -68 -199l-10 -41h219l-71 -243h-218l-155 -572 q-115 -418 -311 -542q-90 -57 -218 -58q-61 0 -125.5 15.5t-93.5 37.5z" />
<glyph unicode="&#x2c6;" horiz-adv-x="636" d="M90 1087l258 281h238l149 -281h-205l-75 121l-136 -121h-229z" />
<glyph unicode="&#x2da;" horiz-adv-x="548" d="M258 1274q0 100 69.5 163.5t155.5 63.5t139.5 -56t53.5 -130q0 -100 -67.5 -162.5t-154.5 -62.5t-141.5 55t-54.5 129zM387 1297.5q0 -27.5 8 -44.5q18 -37 58.5 -36.5t64.5 22.5q29 25 29 58.5t-19.5 55t-52.5 21.5t-60.5 -24.5t-27.5 -52z" />
<glyph unicode="&#x2dc;" horiz-adv-x="845" d="M242 1212q141 145 272 146q47 0 107.5 -36t97.5 -36h29.5t82 23.5t93.5 56.5l28 -135q-139 -143 -254 -144q-49 0 -116.5 36t-114.5 36q-80 0 -195 -72z" />
<glyph unicode="&#x3a9;" horiz-adv-x="1550" d="M100 0l45 279l215 20q-74 55 -112 154q-41 104 -41 211.5t15.5 208t47 187.5t94 173t146.5 145q186 135 491 135q291 0 437 -143q145 -147 153 -352v-76t-10 -143q-29 -176 -91.5 -289t-180.5 -215l198 -21l-43 -274h-528l47 299q164 119 217 299q53 166 53 307 q0 207 -145 277q-57 27 -141 26.5t-154 -28t-114 -70.5t-76 -102q-55 -98 -74 -219t-19 -197q0 -156 132 -293l-50 -299h-512z" />
<glyph unicode="&#x3c0;" horiz-adv-x="1323" d="M150 782l49 305h1173l-49 -305h-158l-59 -381q-6 -33 -6 -67.5t22.5 -59t102.5 -24.5h112l-30 -197q-104 -63 -262 -63t-234 100q-53 70 -53 189q0 49 8 106l63 397h-198l-123 -782h-336l123 782h-145z" />
<glyph unicode="&#x1e02;" horiz-adv-x="1228" d="M111 0l237 1499h619q113 0 194.5 -36t120.5 -95q63 -96 64 -217q0 -43 -9 -88q-16 -113 -87.5 -192.5t-174.5 -92.5q98 -16 154 -121q41 -76 41 -178q0 -131 -40 -227t-81 -141t-107 -70q-109 -41 -307 -41h-624zM492 291h274q137 0 164 174q4 26 4 51q0 131 -111 131 h-274zM594 922h258q84 0 125 67q29 47 29 115q0 104 -109 104h-258zM731 1679l27 172q8 52 57 52h164q47 0 39 -52l-27 -172q-6 -47 -53 -47h-164q-23 0 -35 13.5t-8 33.5z" />
<glyph unicode="&#x1e03;" horiz-adv-x="1140" d="M68 0l254 1608h333l-88 -572q147 68 310 68q250 0 284 -256q8 -57 8 -100q1 -117 -22 -271q-45 -270 -143.5 -379.5t-277.5 -109.5t-304 118l-72 -106h-282zM381 1782l27 172q8 51 57 51h164q47 0 39 -51l-27 -172q-6 -47 -53 -47h-164q-23 0 -35 13t-8 34zM455 324 q57 -58 192 -58q66 0 102.5 60.5t57 200t20.5 191.5t-6 75q-14 59 -82 59q-129 0 -204 -37z" />
<glyph unicode="&#x1e0a;" horiz-adv-x="1333" d="M111 0l237 1499h625q123 0 210 -45t134 -119q84 -137 84 -372q0 -115 -23 -267q-78 -510 -315 -635q-119 -61 -301 -61h-651zM492 291h262q119 0 186.5 112.5t103.5 341.5q23 168 23 249t-23.5 129t-61.5 66.5t-97 18.5h-248zM733 1657l29 172q6 51 57 51h164 q47 0 39 -51l-29 -172q-6 -47 -53 -47h-164q-20 0 -32.5 12t-10.5 35z" />
<glyph unicode="&#x1e0b;" horiz-adv-x="1124" d="M133 378q0 114 20.5 229.5t49 200.5t78 156.5t128 105.5t215 34t265.5 -68l90 572h336l-256 -1608h-281l-41 106q-160 -119 -311 -118q-184 0 -254 172q-39 104 -39 218zM477 401.5q0 -53.5 8 -77.5q16 -57 80 -58q133 0 209 58l78 491q-63 37 -195 37q-41 0 -67.5 -19.5 t-53 -87t-43 -179t-16.5 -165zM1042 1778l27 172q8 51 57 51h164q41 0 41 -41q0 -4 -2 -10l-26 -172q-6 -47 -54 -47h-164q-23 0 -35 13t-8 34z" />
<glyph unicode="&#x1e1e;" horiz-adv-x="1144" d="M102 0l183 1155q43 269 270 328q61 16 96 16h39q451 -8 629 -33l-45 -280h-541q-76 0 -98 -37q-20 -29 -27 -78l-26 -170l546 -20l-43 -279l-555 -18l-92 -584h-336zM745 1679l29 172q6 52 57 52h164q45 0 39 -52l-28 -172q-6 -47 -54 -47h-164q-20 0 -32.5 13.5 t-10.5 33.5z" />
<glyph unicode="&#x1e1f;" horiz-adv-x="829" d="M160 844l33 209l167 34l27 170q31 195 127 274t269 79t268 -49l-31 -197l-170 2q-76 2 -96 -31q-10 -16 -15.5 -24t-11.5 -39q-8 -39 -18 -107l-13 -78h234l-37 -243h-236l-137 -844h-336l135 844h-159zM664 1780l28 172q7 51 58 51h163q45 0 39 -51l-28 -172 q-6 -47 -54 -47h-163q-20 0 -32.5 12t-10.5 35z" />
<glyph unicode="&#x1e40;" horiz-adv-x="1714" d="M84 0l383 1499h463l47 -942l342 942h473l-88 -1499h-330l58 920l-340 -920h-387l-54 920l-229 -920h-338zM1026 1679l29 172q6 52 57 52h164q47 0 39 -52l-29 -172q-6 -47 -53 -47h-164q-20 0 -32.5 13.5t-10.5 33.5z" />
<glyph unicode="&#x1e41;" horiz-adv-x="1775" d="M82 0l172 1087h276l43 -112q6 4 34 23.5t52.5 35t67.5 35.5q75 35 188 35q199 0 250 -137q66 41 115 66.5t128 48t164 22.5t145.5 -30t84.5 -83q31 -68 31 -143.5t-10 -138.5l-115 -709h-336l115 717q4 23 4 41q0 88 -80 88q-143 0 -227 -76q-2 -4 -6 -28.5t-4 -32.5 l-113 -709h-336l113 717q4 23 4 41q0 88 -80 88q-94 0 -141.5 -27.5t-81.5 -58.5l-121 -760h-336zM942 1274l27 172q8 51 57 51h164q47 0 39 -51l-27 -172q-6 -47 -53 -47h-164q-23 0 -35 13t-8 34z" />
<glyph unicode="&#x1e56;" horiz-adv-x="1224" d="M106 0l238 1499h627q129 0 229 -65q104 -66 137 -242q6 -39 6 -90t-14 -143.5t-48 -177.5t-76 -131t-92 -75.5t-99 -35.5q-94 -10 -131 -10.5t-80 4t-152.5 19.5t-118.5 21l-90 -573h-336zM571 823h260q66 0 106 46t56 153q6 33 6 61q0 125 -106 125h-260zM729 1679 l27 172q8 52 57 52h164q47 0 39 -52l-27 -172q-6 -47 -53 -47h-164q-23 0 -35 13.5t-8 33.5z" />
<glyph unicode="&#x1e57;" horiz-adv-x="1138" d="M-4 -553l256 1589q94 29 261 45.5t325 16.5q203 0 284 -160q53 -104 54 -262q0 -82 -17 -180q-41 -276 -152.5 -396t-336.5 -120q-164 0 -240 79l-98 -612h-336zM463 274q53 -41 135 -41h35q82 4 122 70t62.5 205t22.5 205q0 141 -113 141h-168zM602 1284l27 172 q6 51 57 51h164q47 0 39 -51l-29 -172q-6 -47 -53 -47h-164q-20 0 -32.5 13.5t-8.5 33.5z" />
<glyph unicode="&#x1e60;" horiz-adv-x="1191" d="M139 49l41 262q197 -22 506 -22q74 0 119 23.5t55 84.5l8 60q6 37 2 63q-8 55 -106 55h-178q-213 0 -299 132q-55 86 -56 215q0 33 7 73l20 164q37 246 221 314q104 39 371.5 38.5t456.5 -63.5l-41 -262q-227 20 -494 20q-88 0 -128 -20.5t-52 -100.5l-8 -51 q-4 -23 -4 -52.5t22.5 -50t106.5 -20.5h186q84 0 147.5 -27.5t96.5 -70.5q72 -98 71 -205q0 -47 -4 -110l-8 -133q-14 -217 -145 -304q-78 -51 -154 -63q-96 -14 -251.5 -14t-273.5 12t-235 53zM721 1688l29 172q6 51 57 51h164q45 0 39 -51l-29 -172q-6 -47 -53 -48h-164 q-20 0 -32.5 13.5t-10.5 34.5z" />
<glyph unicode="&#x1e61;" horiz-adv-x="1042" d="M109 53l30 205h496q57 0 67 53l7 35q6 39 -10.5 47t-41.5 8h-221q-201 0 -258 154q-18 49 -18 95t4 83l16 96q23 133 100.5 202t236.5 69t250 -2t195.5 -17.5t135.5 -44.5l-33 -205h-475q-39 0 -55.5 -13t-22.5 -44l-4 -35q-6 -29 -1 -35t7 -9t7 -5t7 -3t9.5 -1h9.5h10h8 h232q152 0 215 -94q45 -68 45 -158q0 -33 -4 -65l-21 -123q-25 -162 -123 -215q-82 -43 -183 -43h-159.5t-146.5 4t-141 10q-135 16 -170 51zM547 1270l26 172q7 51 58 51h164q47 0 39 -51l-27 -172q-6 -47 -53 -47h-164q-23 0 -35 13t-8 34z" />
<glyph unicode="&#x1e6a;" horiz-adv-x="1212" d="M238 1194l49 305h1132l-49 -305h-405l-189 -1194h-336l189 1194h-391zM750 1679l28 172q7 52 58 52h163q45 0 39 -52l-28 -172q-6 -47 -54 -47h-163q-20 0 -32.5 13.5t-10.5 33.5z" />
<glyph unicode="&#x1e6b;" horiz-adv-x="768" d="M145 846l27 176l178 68l101 303h282l-47 -303h215l-37 -244h-217l-63 -395q-10 -51 -10.5 -79t5 -56.5t17.5 -44t75.5 -43t73.5 -27.5l-30 -203h-219q-141 0 -215 96q-51 66 -52 185q0 51 11 110l71 457h-166zM506 1563l26 172q7 51 58 51h164q47 0 39 -51l-27 -172 q-6 -47 -53 -47h-164q-23 0 -35 13t-8 34z" />
<glyph unicode="&#x1e80;" horiz-adv-x="2074" d="M276 1499h353l123 -1057l428 1057h356l-166 -377l98 -682l437 1059h354l-649 -1499h-385l-86 561l-242 -561h-410zM985 1921h268l138 -289h-203z" />
<glyph unicode="&#x1e81;" horiz-adv-x="1718" d="M164 1087h354l82 -716l215 465q59 121 70 254h315q6 -37 6 -103.5t-41 -171.5l-22 -57l69 -385l220 465q59 121 69 252h314q8 -37 8 -76q0 -135 -82 -289l-379 -725h-379l-63 360l-166 -360h-402zM737 1507h267l137 -286h-203z" />
<glyph unicode="&#x1e82;" horiz-adv-x="2074" d="M276 1499h353l123 -1057l428 1057h356l-166 -377l98 -682l437 1059h354l-649 -1499h-385l-86 561l-242 -561h-410zM1188 1632l219 289h270l-286 -289h-203z" />
<glyph unicode="&#x1e83;" horiz-adv-x="1718" d="M164 1087h354l82 -716l215 465q59 121 70 254h315q6 -37 6 -103.5t-41 -171.5l-22 -57l69 -385l220 465q59 121 69 252h314q8 -37 8 -76q0 -135 -82 -289l-379 -725h-379l-63 360l-166 -360h-402zM954 1212l220 289h270l-287 -289h-203z" />
<glyph unicode="&#x1e84;" horiz-adv-x="2074" d="M276 1499h353l123 -1057l428 1057h356l-166 -377l98 -682l437 1059h354l-649 -1499h-385l-86 561l-242 -561h-410zM936 1724q0 78 48 119t100.5 41t80 -31.5t27.5 -56.5q0 -80 -48 -122t-100.5 -42t-80 34t-27.5 58zM1458 1733q0 70 48 110.5t100.5 40.5t80 -31.5 t27.5 -56.5q0 -80 -48 -122t-91 -42q-82 0 -109 64q-8 20 -8 37z" />
<glyph unicode="&#x1e85;" horiz-adv-x="1718" d="M164 1087h354l82 -716l215 465q59 121 70 254h315q6 -37 6 -103.5t-41 -171.5l-22 -57l69 -385l220 465q59 121 69 252h314q8 -37 8 -76q0 -135 -82 -289l-379 -725h-379l-63 360l-166 -360h-402zM678 1313q0 78 48 120t101.5 42t81 -33t27.5 -58q0 -80 -48 -121.5 t-100.5 -41.5t-81 33.5t-28.5 58.5zM1200 1313q0 78 48 120t101.5 42t81 -33t27.5 -58q0 -80 -48 -121.5t-100.5 -41.5t-81 33.5t-28.5 58.5z" />
<glyph unicode="&#x1ef2;" d="M276 1499h365l139 -692l385 692h381l-651 -1059l-72 -440h-336l72 440zM629 1921h268l137 -289h-203z" />
<glyph unicode="&#x1ef3;" horiz-adv-x="1163" d="M164 1087h348l45 -729q6 -74 92 -79l232 559q39 98 53 252h315q8 -41 8 -84q0 -129 -67 -285l-313 -721q-135 -309 -326 -453q-111 -82 -189 -108q-94 -29 -178 -43v235q131 66 212 155t145 214q-281 0 -308 295zM444 1507h269l137 -286h-203z" />
<glyph unicode="&#x2000;" horiz-adv-x="1022" />
<glyph unicode="&#x2001;" horiz-adv-x="2044" />
<glyph unicode="&#x2002;" horiz-adv-x="1022" />
<glyph unicode="&#x2003;" horiz-adv-x="2044" />
<glyph unicode="&#x2004;" horiz-adv-x="681" />
<glyph unicode="&#x2005;" horiz-adv-x="511" />
<glyph unicode="&#x2006;" horiz-adv-x="340" />
<glyph unicode="&#x2007;" horiz-adv-x="340" />
<glyph unicode="&#x2008;" horiz-adv-x="255" />
<glyph unicode="&#x2009;" horiz-adv-x="408" />
<glyph unicode="&#x200a;" horiz-adv-x="113" />
<glyph unicode="&#x2010;" horiz-adv-x="722" d="M125 457l43 274h643l-43 -274h-643z" />
<glyph unicode="&#x2011;" horiz-adv-x="722" d="M125 457l43 274h643l-43 -274h-643z" />
<glyph unicode="&#x2012;" horiz-adv-x="722" d="M125 457l43 274h643l-43 -274h-643z" />
<glyph unicode="&#x2013;" horiz-adv-x="925" d="M121 451l45 276h969l-45 -276h-969z" />
<glyph unicode="&#x2014;" horiz-adv-x="1507" d="M127 455l45 276h1425l-45 -276h-1425z" />
<glyph unicode="&#x2018;" horiz-adv-x="520" d="M270 1006q0 8 2 16l45 297q12 72 50.5 118t83.5 60t76.5 17.5t50 3.5t34.5 -2l29 -5l-20 -129q-63 0 -76 -65l-6 -37h22q25 0 37 -13.5t8 -39.5l-33 -205q-8 -57 -61 -57h-201q-41 0 -41 41z" />
<glyph unicode="&#x2019;" horiz-adv-x="520" d="M274 971l21 131q29 -2 46 11t21.5 24.5t6.5 27.5l8 37h-25q-23 0 -35 13.5t-8 39.5l33 205q8 57 59 58h201q43 0 43 -41q0 -8 -2 -17l-47 -297q-12 -70 -49 -117t-82 -61q-66 -20 -107 -20t-55 2z" />
<glyph unicode="&#x201a;" horiz-adv-x="520" d="M84 -231l18 129q31 0 48.5 13t21.5 23.5t6 28.5l6 37h-22q-23 0 -35 13.5t-8 39.5l33 205q8 57 61 57h199q43 0 43 -43q0 -6 -2 -14l-47 -297q-12 -72 -49.5 -118t-82.5 -60q-66 -23 -106.5 -23t-54.5 4z" />
<glyph unicode="&#x201c;" horiz-adv-x="874" d="M260 1004q0 6 2 16l45 295q12 72 50 118t83 61t77 18.5t50.5 3.5t32.5 -5l31 -4l-21 -129q-63 2 -75 -63l-7 -39h25q23 0 35 -13.5t8 -37.5l-31 -205q-10 -57 -63 -57h-199q-43 0 -43 41zM637 1004v16l47 295q10 72 48 118t83 61t77 18.5t50.5 3.5t34.5 -5l29 -4 l-21 -129q-63 2 -76 -63l-4 -39h23q23 0 36 -13.5t7 -37.5l-31 -205q-10 -57 -63 -57h-199q-41 0 -41 41z" />
<glyph unicode="&#x201d;" horiz-adv-x="874" d="M264 969l19 129q31 0 48 13t21 23.5t6 28.5l7 37h-23q-23 0 -35 13.5t-8 39.5l33 205q8 57 61 58h199q43 0 43 -43q0 -6 -2 -15l-47 -297q-12 -72 -49 -118t-82 -60q-66 -23 -107 -22.5t-55 4.5zM639 969l20 129q29 0 46.5 13t21.5 23.5t6 28.5l8 37h-24q-23 0 -35 13.5 t-8 39.5l33 205q10 57 61 58h199q43 0 43 -43q0 -6 -2 -15l-47 -297q-12 -72 -49.5 -118t-82.5 -60q-61 -23 -103 -22.5t-58 2.5z" />
<glyph unicode="&#x201e;" horiz-adv-x="872" d="M74 -231l20 129q29 0 46.5 13t21.5 24.5t6 27.5l8 37h-24q-23 0 -35.5 13.5t-7.5 39.5l32 205q8 57 60 57h200q43 0 43 -43q0 -6 -2 -14l-47 -297q-12 -72 -49 -118t-82 -60q-66 -20 -106.5 -20.5t-55.5 1.5zM449 -231l20 129q29 0 46 13t21.5 24.5t8.5 27.5l6 37h-23 q-25 0 -37 13.5t-8 39.5l33 205q8 57 62 57h198q43 0 43 -43v-14l-49 -297q-12 -72 -49 -118t-82 -60q-66 -20 -105.5 -20.5t-56.5 1.5z" />
<glyph unicode="&#x2020;" horiz-adv-x="1103" d="M207 901l41 260l276 27l86 389h299l-39 -389l267 -27l-41 -260l-275 -29l-188 -1019h-299l141 1019z" />
<glyph unicode="&#x2021;" horiz-adv-x="1042" d="M170 279l41 260l283 34l43 299l-269 29l41 260l277 27l86 389h297l-35 -389l264 -27l-41 -260l-276 -29l-54 -301l273 -32l-41 -260l-293 -31l-72 -395h-297l54 393z" />
<glyph unicode="&#x2022;" horiz-adv-x="628" d="M217 631q0 6 2 14l41 270q10 72 80 72h258q61 0 61 -55v-17l-43 -270q-10 -66 -84 -65h-258q-57 0 -57 51z" />
<glyph unicode="&#x2026;" horiz-adv-x="1617" d="M264 47l33 209q8 51 57 51h201q45 0 45 -37q0 -6 -2 -14l-33 -209q-8 -47 -57 -47h-201q-23 0 -35 13.5t-8 33.5zM821 47l33 209q8 51 57 51h201q45 0 45 -37q0 -6 -2 -14l-33 -209q-8 -47 -57 -47h-201q-23 0 -35 13.5t-8 33.5zM1378 47l33 209q8 51 57 51h201 q45 0 45 -37q0 -6 -2 -14l-33 -209q-8 -47 -57 -47h-201q-23 0 -35 13.5t-8 33.5z" />
<glyph unicode="&#x202f;" horiz-adv-x="408" />
<glyph unicode="&#x2030;" horiz-adv-x="2736" d="M143 942q0 31 4 68l39 241q20 131 93 189.5t229 58.5h209q139 0 196 -78q41 -57 41 -145q0 -33 -6 -72l-39 -241q-12 -90 -49 -144q-70 -104 -270 -104h-209q-137 0 -195 80q-43 59 -43 147zM344 0l1159 1499h228l-1149 -1499h-238zM379 996.5q0 -19.5 11 -38t65 -18.5 h131q55 0 77.5 21.5t28.5 70.5l25 150q6 59 -6 71q-20 20 -70 21h-129q-66 0 -88 -35q-14 -20 -18 -57l-25 -150q-2 -16 -2 -35.5zM1135 231q0 31 4 68l39 242q20 133 91.5 190t229.5 57h207q141 0 199 -77q41 -57 41 -146q0 -33 -7 -69l-38 -242q-14 -92 -50 -145 q-70 -104 -272 -105h-209q-137 0 -194 80q-41 59 -41 147zM1370 286q0 -20 12.5 -38.5t63.5 -18.5h129q57 0 79.5 22.5t28.5 70.5l23 149q14 70 -23 86q-16 6 -51 6h-129q-66 0 -84 -27.5t-24 -64.5l-23 -149q-2 -16 -2 -36zM1980 231q0 33 7 68l36 242q20 133 93 190 t231 57h207q94 0 151.5 -36.5t71.5 -88t14 -90t-6 -77.5l-37 -242q-20 -135 -94 -192.5t-229 -57.5h-205q-139 0 -197 80q-43 59 -43 147zM2216 293.5q0 -12.5 2 -27.5q6 -37 76 -37h129q57 0 78.5 22.5t29.5 70.5l23 149q2 20 2 42t-12.5 36t-63.5 14h-129 q-51 0 -75.5 -18.5t-32.5 -73.5l-23 -149q-4 -16 -4 -28.5z" />
<glyph unicode="&#x2039;" horiz-adv-x="579" d="M27 725l487 416l150 -174l-289 -246l211 -248l-195 -174z" />
<glyph unicode="&#x203a;" horiz-adv-x="731" d="M184 477l289 248l-207 246l199 170l356 -418l-493 -424z" />
<glyph unicode="&#x2044;" horiz-adv-x="724" d="M-125 0l987 1556h236l-987 -1556h-236z" />
<glyph unicode="&#x205f;" horiz-adv-x="511" />
<glyph unicode="&#x20ac;" horiz-adv-x="1431" d="M104 508l27 156l152 16l16 115l-145 16l22 147l152 21q27 168 88 272q68 121 176 185q135 80 332 80q104 0 267 -19.5t269 -58.5l-39 -242q-285 29 -396.5 29t-153.5 -6.5t-71.5 -14.5t-52 -27.5t-35 -35t-22.5 -47.5q-12 -43 -26 -115l479 -16l-27 -156l-481 -12 l-17 -115l476 -16l-25 -156q-285 -6 -414 -12l-67 -4q-2 -39 -5 -71t7 -55.5t19 -40t29.5 -28.5t37 -18.5t43.5 -10.5q43 -6 112 -6q147 0 381 37l78 12l-39 -237q-111 -49 -245 -67.5t-244.5 -18.5t-139 2t-67.5 8t-70.5 17.5t-70.5 31t-64.5 46t-52.5 63.5q-41 55 -55 198 v49t10 89z" />
<glyph unicode="&#x2122;" horiz-adv-x="1280" d="M70 1323l28 176h592l-28 -176h-191l-84 -539h-209l84 539h-192zM596 784l199 715h215l30 -383l144 383h227l-18 -715h-209l20 365l-112 -365h-187l-14 363l-88 -363h-207z" />
<glyph unicode="&#x2202;" horiz-adv-x="1286" d="M143 414q0 39 7 82q37 225 183.5 340.5t371.5 115.5q88 0 161.5 -27.5t104.5 -88.5q10 76 10 153q0 221 -195 221q-109 0 -219 -31.5t-184 -72.5l-6 250q133 80 238.5 120t228.5 40q184 0 301 -105q174 -156 174 -473q0 -98 -16 -207q-59 -367 -224.5 -554t-470.5 -187 q-215 0 -354 141q-111 117 -111 283zM481 434q0 -61 33 -90q57 -53 126 -53t118 35.5t80 91.5q55 102 71 188q-74 45 -185.5 45t-177 -55t-65.5 -162z" />
<glyph unicode="&#x2206;" horiz-adv-x="1456" d="M27 0l874 1499h154l375 -1499h-1403zM528 291h576l-178 696z" />
<glyph unicode="&#x220f;" horiz-adv-x="1337" d="M172 0l188 1194h-145l49 305h1284l-49 -305h-147l-189 -1194h-336l189 1194h-320l-188 -1194h-336z" />
<glyph unicode="&#x2211;" horiz-adv-x="1159" d="M-10 -410l49 312l541 651l-336 641l49 305h1077l-49 -305h-674l344 -649l-510 -643h635l-49 -312h-1077z" />
<glyph unicode="&#x221a;" horiz-adv-x="1372" d="M98 459l49 305h357l90 -307l645 1181h367l-889 -1638h-332l-162 459h-125z" />
<glyph unicode="&#x221e;" horiz-adv-x="1355" d="M82 655q0 37 8 74q21 152 111 238t294.5 86t315.5 -189q139 188 393 189q162 0 230 -84q68 -82 67 -187q0 -47 -6 -114q-49 -322 -403 -322q-111 0 -194 40t-144 146q-80 -106 -166 -146t-194.5 -40t-173 34t-93.5 89q-45 88 -45 186zM330 663.5q0 -16.5 3 -36t28.5 -37 t78.5 -17.5q90 0 195 125q-25 53 -68 90t-106.5 37t-92 -31.5t-33.5 -72.5t-5 -57.5zM940 696q62 -123 166 -123q127 0 145 125q4 20 4 47t-16 53.5t-92 26.5q-104 0 -207 -129z" />
<glyph unicode="&#x222b;" horiz-adv-x="907" d="M-31 -367l35 207h107q72 0 110 56q43 57 58 114q20 82 34 170l136 856q59 371 221 520q90 82 204 82q150 0 234 -41q20 -8 22 -10l-32 -207h-103q-115 0 -166 -145q-25 -74 -45 -199l-135 -856q-47 -293 -145 -445.5t-281.5 -152.5t-253.5 51z" />
<glyph unicode="&#x2248;" horiz-adv-x="1026" d="M154 541q178 143 323 143q61 0 146.5 -37t138.5 -37t96 11q57 14 158 67l28 -141q-82 -72 -154.5 -113t-138 -41t-156.5 39t-146.5 39t-96.5 -11t-92 -32.5t-88 -34.5zM213 913q179 146 324 146q61 0 146 -38t148.5 -38t111.5 17.5t130 62.5l31 -143q-82 -70 -154.5 -111 t-139.5 -41t-157 39t-145 39t-97 -12.5t-92.5 -34t-87.5 -31.5z" />
<glyph unicode="&#x2260;" horiz-adv-x="1101" d="M236 356l43 279h311l123 164h-406l43 276h563l97 127h155l-96 -127h156l-45 -276h-312l-123 -164h410l-45 -279h-567l-111 -149h-156l111 149h-151z" />
<glyph unicode="&#x2264;" horiz-adv-x="1069" d="M172 150l37 243h768l-39 -243h-766zM264 739l47 301l809 254l-49 -303l-446 -114l411 -111l-47 -295z" />
<glyph unicode="&#x2265;" horiz-adv-x="860" d="M90 150l39 243h768l-37 -243h-770zM139 471l49 303l455 127l-420 98l47 291l729 -250l-49 -303z" />
<glyph unicode="&#x25fc;" horiz-adv-x="1085" d="M0 0v1085h1085v-1085h-1085z" />
</font>
</defs>
</svg>
