<?xml version="1.0" encoding="utf-8"?>
<!-- Generator: Adobe Illustrator 15.1.0, SVG Export Plug-In . SVG Version: 6.00 Build 0)  -->
<!DOCTYPE svg PUBLIC "-//W3C//DTD SVG 1.1//EN" "http://www.w3.org/Graphics/SVG/1.1/DTD/svg11.dtd">
<svg version="1.1" id="Layer_1" xmlns="http://www.w3.org/2000/svg" xmlns:xlink="http://www.w3.org/1999/xlink" x="0px" y="0px"
	 width="87.318px" height="83.411px" viewBox="0 0 87.318 83.411" enable-background="new 0 0 87.318 83.411" xml:space="preserve">
<g id="CLIENTSIDEVALIDATION">
	<g>
		<path fill="#FFD100" d="M8.921,36.1v-1.63l4.046-0.7l0.146,2.475L8.921,36.1z M10.58,40.468l0.698-3.99l2.417,0.612l-1.571,3.873
			L10.58,40.468z M12.648,31.616l1.57-0.553l1.951,3.552l-2.299,0.96L12.648,31.616z M13.345,38.983l1.369-2.068l3.262,2.621
			l-0.933,1.31L13.345,38.983z M14.773,35.954l3.495-2.301l0.901,1.369l-2.795,2.824L14.773,35.954z"/>
		<path fill="#FFD100" d="M21.352,36.1v-1.63l4.048-0.7l0.145,2.475L21.352,36.1z M23.012,40.468l0.699-3.99l2.417,0.612
			l-1.572,3.873L23.012,40.468z M25.079,31.616l1.573-0.553l1.949,3.552l-2.3,0.96L25.079,31.616z M25.779,38.983l1.368-2.068
			l3.263,2.621l-0.934,1.31L25.779,38.983z M27.204,35.954l3.495-2.301l0.904,1.369l-2.797,2.824L27.204,35.954z"/>
		<path fill="#FFD100" d="M33.786,36.1v-1.63l4.046-0.7l0.146,2.475L33.786,36.1z M35.445,40.468l0.7-3.99l2.417,0.612l-1.573,3.873
			L35.445,40.468z M37.512,31.616l1.572-0.553l1.951,3.552l-2.301,0.96L37.512,31.616z M38.212,38.983l1.368-2.068l3.263,2.621
			l-0.932,1.31L38.212,38.983z M39.638,35.954l3.494-2.301l0.903,1.369l-2.797,2.824L39.638,35.954z"/>
	</g>
	<polygon fill="#404C51" points="59.464,60.879 45.391,46.304 50.573,41.303 59.464,50.51 82.075,27.093 87.255,32.097 	"/>
	<g>
		<polygon fill="#889597" points="43.647,47.991 41.974,46.256 3.297,46.256 3.297,25.767 70.688,25.767 70.688,35.395 
			73.923,32.043 73.923,22.531 0.063,22.531 0.063,49.495 45.098,49.495 		"/>
		<polygon fill="#889597" points="73.833,49.495 73.923,49.495 73.923,49.398 		"/>
	</g>
	<g>
		<polygon fill="#26A9E0" points="43.647,47.991 41.974,46.256 3.297,46.256 3.297,25.767 70.688,25.767 70.688,35.395 
			73.923,32.043 73.923,22.531 0.063,22.531 0.063,49.495 45.098,49.495 		"/>
		<polygon fill="#26A9E0" points="73.833,49.495 73.923,49.495 73.923,49.398 		"/>
	</g>
</g>
</svg>
