<?xml version="1.0" encoding="UTF-8"?>
<svg width="303px" height="272px" viewBox="0 0 303 272" version="1.1" xmlns="http://www.w3.org/2000/svg" xmlns:xlink="http://www.w3.org/1999/xlink">
    <!-- Generator: Sketch 50.2 (55047) - http://www.bohemiancoding.com/sketch -->
    <title>ajaxFramework.svg</title>
    <desc>Created with Sketch.</desc>
    <defs></defs>
    <g id="Page-1" stroke="none" stroke-width="1" fill="none" fill-rule="evenodd">
        <g id="ajaxFramework.svg">
            <g id="BLUEARROW" transform="translate(59.000000, 0.000000)" fill="#26A9E0" fill-rule="nonzero">
                <path d="M18.982,42.134 L18.982,41.452 C18.982,31.014 27.474,22.523 37.912,22.523 L148.861,22.523 C159.299,22.523 167.79,31.014 167.79,41.452 L167.79,54.754 L177.606,54.754 L177.606,41.452 C177.606,25.602 164.71,12.707 148.861,12.707 L37.912,12.707 C22.062,12.707 9.167,25.602 9.167,41.452 L9.167,42.134 L18.982,42.134 Z" id="Shape"></path>
                <polygon id="Shape" points="27.162 44.316 0.987 44.316 14.074 53.972"></polygon>
                <circle id="Oval" cx="93.387" cy="17.301" r="16.593"></circle>
            </g>
            <g id="YELLOWARROW" transform="translate(68.000000, 218.000000)" fill="#FFD100" fill-rule="nonzero">
                <path d="M158.79,12.669 L158.79,13.351 C158.79,23.789 150.3,32.281 139.861,32.281 L28.912,32.281 C18.474,32.281 9.982,23.79 9.982,13.351 L9.982,1.452 L0.167,1.452 L0.167,13.351 C0.167,29.202 13.063,42.096 28.912,42.096 L139.861,42.096 C155.711,42.096 168.606,29.201 168.606,13.351 L168.606,12.669 L158.79,12.669 Z" id="Shape"></path>
                <polygon id="Shape" points="150.611 10.486 176.785 10.486 163.699 0.831"></polygon>
                <circle id="Oval" cx="84.387" cy="36.698" r="16.593"></circle>
            </g>
            <g id="logo-blue" transform="translate(158.000000, 57.000000)">
                <polygon id="bg" fill="#252C30" points="40.2145255 0 23.8032558 18.1385127 0 13.6076919 13.2457114 59.8372934 22.0528214 116.158441 56.7773481 158 87.3493291 158 121.636247 116.272664 130.879071 59.4165743 145 13.6076919 121.414601 18.1385127 104.381965 0"></polygon>
                <g id="primefaces" transform="translate(14.871795, 11.152941)">
                    <polygon id="chick-right" fill="#26A9E0" fill-rule="nonzero" points="86.5635452 61.298608 77.3979933 59.2553211 84.5267559 69.4717557 84.5267559 101.142703 108.968227 80.7098339 108.968227 45.973956 97.7658863 50.0605299"></polygon>
                    <polygon id="chick-left" fill="#26A9E0" fill-rule="nonzero" transform="translate(22.913880, 73.558330) scale(-1, 1) translate(-22.913880, -73.558330) " points="16.2943144 61.298608 7.12876254 59.2553211 14.2575251 69.4717557 14.2575251 101.142703 38.6989967 80.7098339 38.6989967 45.973956 27.4966555 50.0605299"></polygon>
                    <polygon id="mask" fill="#26A9E0" points="34.6254181 71.5150427 42.7725753 59.2553211 47.8645485 62.3202515 68.2324415 62.3202515 73.3244147 59.2553211 81.4715719 71.5150427 81.4715719 117.488999 75.361204 126.68379 68.2324415 133.835294 47.8645485 133.835294 40.735786 126.68379 34.6254181 117.488999"></polygon>
                    <g id="mask-effect-right" transform="translate(65.177258, 90.926269)" fill="#252C30">
                        <polygon id="Rectangle-3" transform="translate(9.165552, 8.173148) rotate(-38.000000) translate(-9.165552, -8.173148) " points="1.66705124 6.18544018 19.1719978 6.94059113 16.6640524 10.1608553 -0.840894167 9.40570433"></polygon>
                        <polygon id="Rectangle-3" transform="translate(9.165552, 15.324652) rotate(-38.000000) translate(-9.165552, -15.324652) " points="1.66705124 13.3369444 19.1719978 14.0920954 16.6640524 17.3123596 -0.840894167 16.5572086"></polygon>
                        <polygon id="Rectangle-3" transform="translate(9.165552, 22.476156) rotate(-38.000000) translate(-9.165552, -22.476156) " points="1.66705124 20.4884487 19.1719978 21.2435997 16.6640524 24.4638638 -0.840894167 23.7087129"></polygon>
                    </g>
                    <g id="mask-effect-left" transform="translate(32.588629, 89.904625)" fill="#252C30">
                        <polygon id="Rectangle-3" transform="translate(9.165552, 8.173148) scale(-1, 1) rotate(-38.000000) translate(-9.165552, -8.173148) " points="1.66705124 6.18544018 19.1719978 6.94059113 16.6640524 10.1608553 -0.840894167 9.40570433"></polygon>
                        <polygon id="Rectangle-3" transform="translate(9.165552, 15.324652) scale(-1, 1) rotate(-38.000000) translate(-9.165552, -15.324652) " points="1.66705124 13.3369444 19.1719978 14.0920954 16.6640524 17.3123596 -0.840894167 16.5572086"></polygon>
                        <polygon id="Rectangle-3" transform="translate(9.165552, 22.476156) scale(-1, 1) rotate(-38.000000) translate(-9.165552, -22.476156) " points="1.66705124 20.4884487 19.1719978 21.2435997 16.6640524 24.4638638 -0.840894167 23.7087129"></polygon>
                    </g>
                    <polygon id="bottom-chick-right" fill="#256A87" fill-rule="nonzero" points="84.5267559 120.553929 97.7658863 107.272564 97.7658863 93.9911989 84.5267559 105.229277"></polygon>
                    <polygon id="bottom-chick-left" fill="#256A87" fill-rule="nonzero" transform="translate(24.950669, 107.272564) scale(-1, 1) translate(-24.950669, -107.272564) " points="18.3311037 120.553929 31.5702341 107.272564 31.5702341 93.9911989 18.3311037 105.229277"></polygon>
                    <path d="M51.9381271,0 L56.0117057,0 L56.0117057,58.2336776 L49.9013378,58.2336776 L36.6622074,19.4112259 L44.8093645,0 L47.8645485,0 L47.8645485,23.4977997 L51.9381271,25.5410867 L51.9381271,0 Z M60.0852843,0 L64.1588629,0 L64.1588629,25.5410867 L68.2324415,23.4977997 L68.2324415,1.91846539e-13 L71.2876254,0 L79.4347826,19.4112259 L67.2140468,58.2336776 L60.0852843,58.2336776 L60.0852843,0 Z" id="head" fill="#26A9E0"></path>
                    <polygon id="head-left" fill="#26A9E0" fill-rule="nonzero" points="49.9013378 58.2336776 6.11036789 41.8873821 0 16.3462955 39.0384615 19.5176471 52.0512821 58.2336776"></polygon>
                    <polygon id="head-right" fill="#26A9E0" fill-rule="nonzero" transform="translate(91.089744, 37.289987) scale(-1, 1) translate(-91.089744, -37.289987) " points="114.96544 58.2336776 71.1744705 41.8873821 65.0641026 16.3462955 104.102564 19.5176471 117.115385 58.2336776"></polygon>
                    <polygon id="ear-right" fill="#26A9E0" fill-rule="nonzero" points="81.4715719 16.3462955 102.85786 14.3030085 88.6003344 0 74.3428094 0"></polygon>
                    <polygon id="ear-left" fill="#26A9E0" fill-rule="nonzero" transform="translate(27.496656, 8.173148) scale(-1, 1) translate(-27.496656, -8.173148) " points="20.367893 16.3462955 41.7541806 14.3030085 27.4966555 0 13.2391304 0"></polygon>
                </g>
            </g>
            <g id="logo-yellow" transform="translate(0.000000, 57.000000)">
                <polygon id="bg" fill="#252C30" points="40.2145255 0 23.8032558 18.1385127 0 13.6076919 13.2457114 59.8372934 22.0528214 116.158441 56.7773481 158 87.3493291 158 121.636247 116.272664 130.879071 59.4165743 145 13.6076919 121.414601 18.1385127 104.381965 0"></polygon>
                <g id="primefaces" transform="translate(14.871795, 11.152941)">
                    <polygon id="chick-right" fill="#FFD100" fill-rule="nonzero" points="86.5635452 61.298608 77.3979933 59.2553211 84.5267559 69.4717557 84.5267559 101.142703 108.968227 80.7098339 108.968227 45.973956 97.7658863 50.0605299"></polygon>
                    <polygon id="chick-left" fill="#FFD100" fill-rule="nonzero" transform="translate(22.913880, 73.558330) scale(-1, 1) translate(-22.913880, -73.558330) " points="16.2943144 61.298608 7.12876254 59.2553211 14.2575251 69.4717557 14.2575251 101.142703 38.6989967 80.7098339 38.6989967 45.973956 27.4966555 50.0605299"></polygon>
                    <polygon id="mask" fill="#FFD100" points="34.6254181 71.5150427 42.7725753 59.2553211 47.8645485 62.3202515 68.2324415 62.3202515 73.3244147 59.2553211 81.4715719 71.5150427 81.4715719 117.488999 75.361204 126.68379 68.2324415 133.835294 47.8645485 133.835294 40.735786 126.68379 34.6254181 117.488999"></polygon>
                    <g id="mask-effect-right" transform="translate(65.177258, 90.926269)" fill="#252C30">
                        <polygon id="Rectangle-3" transform="translate(9.165552, 8.173148) rotate(-38.000000) translate(-9.165552, -8.173148) " points="1.66705124 6.18544018 19.1719978 6.94059113 16.6640524 10.1608553 -0.840894167 9.40570433"></polygon>
                        <polygon id="Rectangle-3" transform="translate(9.165552, 15.324652) rotate(-38.000000) translate(-9.165552, -15.324652) " points="1.66705124 13.3369444 19.1719978 14.0920954 16.6640524 17.3123596 -0.840894167 16.5572086"></polygon>
                        <polygon id="Rectangle-3" transform="translate(9.165552, 22.476156) rotate(-38.000000) translate(-9.165552, -22.476156) " points="1.66705124 20.4884487 19.1719978 21.2435997 16.6640524 24.4638638 -0.840894167 23.7087129"></polygon>
                    </g>
                    <g id="mask-effect-left" transform="translate(32.588629, 89.904625)" fill="#252C30">
                        <polygon id="Rectangle-3" transform="translate(9.165552, 8.173148) scale(-1, 1) rotate(-38.000000) translate(-9.165552, -8.173148) " points="1.66705124 6.18544018 19.1719978 6.94059113 16.6640524 10.1608553 -0.840894167 9.40570433"></polygon>
                        <polygon id="Rectangle-3" transform="translate(9.165552, 15.324652) scale(-1, 1) rotate(-38.000000) translate(-9.165552, -15.324652) " points="1.66705124 13.3369444 19.1719978 14.0920954 16.6640524 17.3123596 -0.840894167 16.5572086"></polygon>
                        <polygon id="Rectangle-3" transform="translate(9.165552, 22.476156) scale(-1, 1) rotate(-38.000000) translate(-9.165552, -22.476156) " points="1.66705124 20.4884487 19.1719978 21.2435997 16.6640524 24.4638638 -0.840894167 23.7087129"></polygon>
                    </g>
                    <polygon id="bottom-chick-right" fill="#A4922C" fill-rule="nonzero" points="84.5267559 120.553929 97.7658863 107.272564 97.7658863 93.9911989 84.5267559 105.229277"></polygon>
                    <polygon id="bottom-chick-left" fill="#A4922C" fill-rule="nonzero" transform="translate(24.950669, 107.272564) scale(-1, 1) translate(-24.950669, -107.272564) " points="18.3311037 120.553929 31.5702341 107.272564 31.5702341 93.9911989 18.3311037 105.229277"></polygon>
                    <path d="M51.9381271,0 L56.0117057,0 L56.0117057,58.2336776 L49.9013378,58.2336776 L36.6622074,19.4112259 L44.8093645,0 L47.8645485,0 L47.8645485,23.4977997 L51.9381271,25.5410867 L51.9381271,0 Z M60.0852843,0 L64.1588629,0 L64.1588629,25.5410867 L68.2324415,23.4977997 L68.2324415,1.91846539e-13 L71.2876254,0 L79.4347826,19.4112259 L67.2140468,58.2336776 L60.0852843,58.2336776 L60.0852843,0 Z" id="head" fill="#FFD100"></path>
                    <polygon id="head-left" fill="#FFD100" fill-rule="nonzero" points="49.9013378 58.2336776 6.11036789 41.8873821 0 16.3462955 39.0384615 19.5176471 52.0512821 58.2336776"></polygon>
                    <polygon id="head-right" fill="#FFD100" fill-rule="nonzero" transform="translate(91.089744, 37.289987) scale(-1, 1) translate(-91.089744, -37.289987) " points="114.96544 58.2336776 71.1744705 41.8873821 65.0641026 16.3462955 104.102564 19.5176471 117.115385 58.2336776"></polygon>
                    <polygon id="ear-right" fill="#FFD100" fill-rule="nonzero" points="81.4715719 16.3462955 102.85786 14.3030085 88.6003344 0 74.3428094 0"></polygon>
                    <polygon id="ear-left" fill="#FFD100" fill-rule="nonzero" transform="translate(27.496656, 8.173148) scale(-1, 1) translate(-27.496656, -8.173148) " points="20.367893 16.3462955 41.7541806 14.3030085 27.4966555 0 13.2391304 0"></polygon>
                </g>
            </g>
        </g>
    </g>
</svg>