<?xml version="1.0" encoding="UTF-8"?>
<svg width="298px" height="250px" viewBox="0 0 298 250" version="1.1" xmlns="http://www.w3.org/2000/svg" xmlns:xlink="http://www.w3.org/1999/xlink">
    <!-- Generator: Sketch 50.2 (55047) - http://www.bohemiancoding.com/sketch -->
    <title>components.svg</title>
    <desc>Created with Sketch.</desc>
    <defs></defs>
    <g id="Page-1" stroke="none" stroke-width="1" fill="none" fill-rule="evenodd">
        <g id="components.svg">
            <g id="MINIBOLDCRANK" transform="translate(106.000000, 158.000000)" fill="#404C51" fill-rule="nonzero">
                <path d="M84.744,45.889 L91.473,44.516 L90.951,38.836 L84.084,38.715 C83.563,35.942 82.745,33.283 81.668,30.772 L87.35,26.868 L84.654,21.843 L78.206,24.441 C76.768,22.318 75.122,20.359 73.306,18.58 L77.188,12.701 L72.802,9.058 L67.66,14.021 C65.907,12.861 64.056,11.843 62.126,10.984 L63.78,3.929 L58.403,2.029 L55.198,8.674 C52.268,7.998 49.221,7.67 46.102,7.719 L44.587,0.307 L38.91,0.828 L38.773,8.539 C36.391,9.041 34.096,9.756 31.912,10.674 L27.573,4.145 L22.509,6.762 L25.375,14.211 C23.267,15.637 21.316,17.266 19.546,19.068 L12.772,14.593 L9.127,18.978 L14.84,24.896 C13.588,26.8 12.499,28.818 11.602,30.927 L3.476,29.282 L1.739,34.712 L9.365,38.11 C8.873,40.512 8.606,42.987 8.59,45.512 L0.377,47.192 L0.9,52.87 L9.283,53.018 C9.757,55.485 10.467,57.856 11.384,60.116 L4.501,64.843 L7.198,69.868 L14.888,66.77 C16.163,68.698 17.611,70.493 19.199,72.145 L14.665,79.01 L19.049,82.653 L24.892,77.014 C26.482,78.123 28.154,79.118 29.903,79.979 L28.073,87.78 L33.448,89.682 L36.87,82.592 C39.714,83.35 42.682,83.774 45.721,83.848 L47.267,91.403 L52.945,90.878 L53.078,83.314 C55.54,82.894 57.909,82.25 60.172,81.39 L64.276,87.568 L69.342,84.949 L66.728,78.154 C69.04,76.722 71.178,75.049 73.117,73.175 L79.083,77.114 L82.727,72.731 L77.834,67.659 C79.285,65.593 80.538,63.38 81.561,61.05 L88.375,62.431 L90.112,57.001 L83.814,54.192 C84.417,51.51 84.739,48.73 84.744,45.889 Z M23.582,54.098 C19.027,54.098 15.336,50.407 15.336,45.854 C15.336,41.299 19.027,37.608 23.582,37.608 C28.136,37.608 31.827,41.299 31.827,45.854 C31.827,50.406 28.136,54.098 23.582,54.098 Z M46.592,77.109 C42.038,77.109 38.347,73.418 38.347,68.863 C38.347,64.308 42.038,60.617 46.592,60.617 C51.147,60.617 54.838,64.308 54.838,68.863 C54.838,73.418 51.146,77.109 46.592,77.109 Z M39.1,46.482 C38.712,42.302 41.79,38.601 45.969,38.214 C50.149,37.829 53.851,40.905 54.236,45.085 C54.623,49.267 51.545,52.966 47.366,53.351 C43.186,53.736 39.484,50.662 39.1,46.482 Z M46.592,31.088 C42.038,31.088 38.347,27.397 38.347,22.844 C38.347,18.287 42.038,14.598 46.592,14.598 C51.147,14.598 54.838,18.287 54.838,22.844 C54.838,27.396 51.146,31.088 46.592,31.088 Z M69.603,54.098 C65.049,54.098 61.358,50.407 61.358,45.854 C61.358,41.299 65.049,37.608 69.603,37.608 C74.158,37.608 77.849,41.299 77.849,45.854 C77.849,50.406 74.157,54.098 69.603,54.098 Z" id="Shape"></path>
            </g>
            <g id="MINIYELLOWCRANK" transform="translate(206.000000, 0.000000)" fill-rule="nonzero">
                <path d="M54.905,28.238 L59.199,27.027 L58.594,23.375 L54.139,23.619 C53.671,21.845 53.016,20.163 52.201,18.587 L55.698,15.789 L53.713,12.663 L49.659,14.648 C48.627,13.342 47.468,12.151 46.206,11.084 L48.444,7.092 L45.431,4.937 L42.334,8.397 C41.144,7.728 39.897,7.157 38.604,6.689 L39.344,2.04 L35.773,1.064 L34.008,5.518 C32.078,5.221 30.089,5.151 28.07,5.33 L26.739,0.598 L23.086,1.205 L23.36,6.206 C21.841,6.644 20.388,7.215 19.017,7.913 L15.899,3.888 L12.741,5.824 L14.949,10.514 C13.65,11.535 12.462,12.683 11.401,13.936 L6.801,11.355 L4.647,14.367 L8.627,17.933 C7.904,19.224 7.293,20.583 6.814,21.994 L1.472,21.309 L0.604,24.909 L5.703,26.752 C5.497,28.331 5.44,29.947 5.55,31.585 L0.309,33.059 L0.916,36.713 L6.353,36.414 C6.777,37.99 7.348,39.492 8.049,40.914 L3.813,44.303 L5.797,47.431 L10.633,45.061 C11.55,46.248 12.571,47.344 13.679,48.339 L11.064,52.999 L14.077,55.155 L17.598,51.226 C18.68,51.87 19.811,52.436 20.984,52.91 L20.166,58.052 L23.739,59.031 L25.621,54.276 C27.499,54.634 29.44,54.769 31.413,54.673 L32.771,59.494 L36.424,58.887 L36.154,53.978 C37.728,53.593 39.233,53.061 40.658,52.399 L43.61,56.206 L46.769,54.271 L44.752,49.993 C46.181,48.955 47.491,47.771 48.657,46.465 L52.707,48.737 L54.861,45.725 L51.452,42.67 C52.295,41.264 53.004,39.771 53.556,38.211 L58.036,38.788 L58.905,35.185 L54.691,33.663 C54.958,31.894 55.038,30.078 54.905,28.238 Z M30.432,49.764 C19.539,49.764 10.712,40.934 10.712,30.042 C10.712,19.152 19.539,10.323 30.432,10.323 C41.324,10.323 50.152,19.153 50.152,30.042 C50.151,40.935 41.323,49.764 30.432,49.764 Z" id="Shape" fill="#FFD100"></path>
                <path d="M30.267,15.854 C22.43,15.854 16.078,22.208 16.078,30.043 C16.078,37.879 22.431,44.233 30.267,44.233 C38.103,44.233 44.455,37.879 44.455,30.043 C44.455,22.207 38.104,15.854 30.267,15.854 Z M30.267,37.365 C26.225,37.365 22.947,34.087 22.947,30.043 C22.947,26.002 26.225,22.722 30.267,22.722 C34.31,22.722 37.587,26.002 37.587,30.043 C37.587,34.086 34.31,37.365 30.267,37.365 Z" id="Shape" fill="#404C51"></path>
            </g>
            <g id="BOLDBIGCRANK" transform="translate(0.000000, 5.000000)" fill-rule="nonzero">
                <path d="M171.405,91.707 L171.405,80.968 L158.549,79.552 C158.051,74.257 156.976,69.133 155.391,64.236 L166.722,57.896 L162.534,48.009 L149.997,51.761 C147.667,47.535 144.917,43.575 141.815,39.926 L150.114,29.572 L142.521,21.979 L132.017,30.398 C128.931,27.92 125.638,25.694 122.163,23.747 L126.485,10.804 L116.733,6.31 L109.572,18.214 C104.194,16.444 98.538,15.3 92.683,14.854 L91.123,0.688 L80.387,0.688 L78.797,15.124 C74.243,15.652 69.818,16.596 65.564,17.938 L58.555,4.945 L48.605,8.981 L52.692,23.442 C48.492,25.749 44.553,28.469 40.918,31.541 L28.99,21.978 L21.397,29.571 L31.085,41.657 C28.408,45.011 26.017,48.604 23.971,52.41 L9.017,47.914 L4.823,57.798 L18.533,65.49 C17.194,69.908 16.265,74.506 15.798,79.24 L0.108,80.967 L0.108,91.706 L15.798,93.433 C16.263,98.141 17.186,102.711 18.513,107.107 L4.787,114.785 L8.975,124.673 L23.936,120.196 C25.993,124.029 28.394,127.644 31.088,131.018 L21.395,143.106 L28.989,150.701 L40.922,141.135 C43.711,143.492 46.675,145.647 49.806,147.561 L45.024,161.877 L54.777,166.371 L62.42,153.666 C67.621,155.58 73.111,156.891 78.8,157.551 L80.39,171.987 L91.128,171.987 L92.688,157.821 C97.374,157.464 101.934,156.661 106.323,155.444 L112.954,167.737 L122.907,163.702 L119.179,150.509 C123.76,148.22 128.063,145.456 132.021,142.277 L142.526,150.699 L150.119,143.105 L141.819,132.75 C144.899,129.124 147.631,125.193 149.951,120.999 L162.492,124.77 L166.69,114.886 L155.364,108.531 C156.966,103.606 158.052,98.451 158.552,93.125 L171.405,91.707 Z M87.162,100.651 C79.256,100.651 72.847,94.243 72.847,86.338 C72.847,78.433 79.256,72.024 87.162,72.024 C95.066,72.024 101.475,78.433 101.475,86.338 C101.475,94.243 95.066,100.651 87.162,100.651 Z" id="Shape" fill="#404C51"></path>
                <path d="M86.886,141.179 C56.645,141.179 32.044,116.577 32.044,86.338 C32.044,56.098 56.645,31.496 86.886,31.496 C117.126,31.496 141.727,56.098 141.727,86.338 C141.727,116.577 117.126,141.179 86.886,141.179 Z M86.886,39.166 C60.874,39.166 39.714,60.327 39.714,86.338 C39.714,112.349 60.874,133.509 86.886,133.509 C112.897,133.509 134.057,112.348 134.057,86.338 C134.057,60.326 112.896,39.166 86.886,39.166 Z" id="Shape" fill="#00ADEE"></path>
                <path d="M86.886,62.176 C73.542,62.176 62.725,72.993 62.725,86.337 C62.725,99.68 73.542,110.498 86.886,110.498 C100.229,110.498 111.046,99.681 111.046,86.337 C111.046,72.994 100.229,62.176 86.886,62.176 Z M86.886,98.801 C80.002,98.801 74.421,93.221 74.421,86.337 C74.421,79.453 80.002,73.873 86.886,73.873 C92.888,73.873 97.897,78.117 99.081,83.766 L88.721,81.296 C85.838,80.609 82.943,82.39 82.253,85.276 C81.565,88.157 83.345,91.054 86.231,91.742 L96.55,94.203 C94.265,97.008 90.785,98.801 86.886,98.801 Z" id="Shape" fill="#CFD7D8"></path>
            </g>
            <g id="BLUEOPTIMUSCRANK" transform="translate(164.000000, 57.000000)">
                <rect id="Rectangle-path" fill="#FFD100" fill-rule="nonzero" x="60.968" y="15.929" width="14.956" height="102.013"></rect>
                <rect id="Rectangle-path" fill="#FFD100" fill-rule="nonzero" x="17.438" y="59.457" width="102.014" height="14.957"></rect>
                <circle id="Oval" fill="#CFD7D8" fill-rule="nonzero" cx="68.446" cy="67.265" r="24.161"></circle>
                <path d="M124.165,63.173 L133.894,60.435 L132.519,52.158 L122.427,52.712 C121.365,48.694 119.879,44.882 118.032,41.31 L125.954,34.971 L121.459,27.886 L112.273,32.383 C109.936,29.425 107.308,26.723 104.451,24.308 L109.522,15.263 L102.698,10.383 L95.678,18.219 C92.984,16.703 90.157,15.408 87.231,14.352 L88.904,3.82 L80.812,1.605 L76.816,11.697 C72.442,11.023 67.936,10.864 63.365,11.272 L60.35,0.55 L52.071,1.925 L52.694,13.257 C49.252,14.248 45.96,15.541 42.852,17.12 L35.788,8.003 L28.633,12.389 L33.634,23.014 C30.693,25.33 28.003,27.931 25.596,30.765 L15.175,24.919 L10.294,31.744 L19.312,39.822 C17.679,42.75 16.295,45.826 15.205,49.023 L3.103,47.473 L1.131,55.63 L12.688,59.804 C12.22,63.382 12.094,67.044 12.34,70.753 L0.466,74.095 L1.84,82.372 L14.158,81.693 C15.117,85.264 16.414,88.669 18.002,91.887 L8.402,99.563 L12.896,106.651 L23.858,101.284 C25.933,103.973 28.249,106.454 30.756,108.71 L24.832,119.271 L31.658,124.152 L39.631,115.252 C42.083,116.711 44.643,117.992 47.302,119.066 L45.449,130.714 L53.543,132.931 L57.809,122.156 C62.064,122.967 66.464,123.275 70.934,123.056 L74.008,133.98 L82.285,132.605 L81.673,121.484 C85.241,120.609 88.653,119.404 91.88,117.906 L98.567,126.531 L105.723,122.148 L101.16,112.455 C104.399,110.101 107.361,107.422 110.006,104.463 L119.183,109.611 L124.064,102.785 L116.339,95.863 C118.25,92.675 119.854,89.295 121.104,85.763 L131.253,87.063 L133.224,78.906 L123.68,75.458 C124.282,71.458 124.46,67.343 124.165,63.173 Z M68.713,111.943 C44.037,111.943 24.033,91.941 24.033,67.264 C24.033,42.588 44.037,22.586 68.713,22.586 C93.389,22.586 113.391,42.588 113.391,67.264 C113.391,91.941 93.389,111.943 68.713,111.943 Z" id="Shape" fill="#26A9E0" fill-rule="nonzero"></path>
                <g id="prime-logo-2018" transform="translate(54.000000, 53.000000)">
                    <polygon id="chick-right" fill="#26A9E0" fill-rule="nonzero" points="20.6956522 14.1984733 18.5043478 13.7251908 20.2086957 16.0916031 20.2086957 23.4274809 26.0521739 18.6946565 26.0521739 10.648855 23.373913 11.5954198"></polygon>
                    <polygon id="chick-left" fill="#26A9E0" fill-rule="nonzero" transform="translate(5.478261, 17.038168) scale(-1, 1) translate(-5.478261, -17.038168) " points="3.89565217 14.1984733 1.70434783 13.7251908 3.40869565 16.0916031 3.40869565 23.4274809 9.25217391 18.6946565 9.25217391 10.648855 6.57391304 11.5954198"></polygon>
                    <path d="M8.27826087,24.590262 L8.27826087,23.6445619 L11.6064626,26.0279126 L11.5931947,25.0709817 L8.27826087,22.6971323 L8.27826087,21.7514322 L11.6064626,24.1347828 L11.5931947,23.1778519 L8.27826087,20.8040025 L8.27826087,16.5648855 L10.226087,13.7251908 L11.4434783,14.4351145 L16.3130435,14.4351145 L17.5304348,13.7251908 L19.4782609,16.5648855 L19.4782609,20.7533021 L16.0925271,23.1778519 L16.0792592,24.1347828 L19.4782609,21.7007318 L19.4782609,22.6464319 L16.0925271,25.0709817 L16.0792592,26.0279126 L19.4782609,23.5938616 L19.4782609,24.5395617 L16.0925271,26.9641114 L16.0792592,27.9210423 L19.4782609,25.4869913 L19.4782609,27.2137405 L18.0173913,29.3435115 L16.3130435,31 L11.4434783,31 L9.73913043,29.3435115 L8.27826087,27.2137405 L8.27826087,25.5376917 L11.6064626,27.9210423 L11.5931947,26.9641114 L8.27826087,24.590262 Z" id="mask" fill="#26A9E0"></path>
                    <g id="mask-effect-right" transform="translate(15.582609, 20.587786)"></g>
                    <g id="mask-effect-left" transform="translate(7.791304, 20.587786)"></g>
                    <polygon id="bottom-chick-right" fill="#26A9E0" fill-rule="nonzero" points="20.2086957 27.9236641 23.373913 24.8473282 23.373913 21.7709924 20.2086957 24.3740458"></polygon>
                    <polygon id="bottom-chick-left" fill="#26A9E0" fill-rule="nonzero" transform="translate(5.965217, 24.847328) scale(-1, 1) translate(-5.965217, -24.847328) " points="4.3826087 27.9236641 7.54782609 24.8473282 7.54782609 21.7709924 4.3826087 24.3740458"></polygon>
                    <path d="M12.4173913,0 L13.3913043,0 L13.3913043,13.4885496 L11.9304348,13.4885496 L8.76521739,4.49618321 L10.7130435,0 L11.4434783,0 L11.4434783,5.44274809 L12.4173913,5.91603053 L12.4173913,0 Z M14.3652174,0 L15.3391304,0 L15.3391304,5.91603053 L16.3130435,5.44274809 L16.3130435,1.91846539e-13 L17.0434783,0 L18.9913043,4.49618321 L16.0695652,13.4885496 L14.3652174,13.4885496 L14.3652174,0 Z" id="head" fill="#26A9E0"></path>
                    <polygon id="head-left" fill="#26A9E0" fill-rule="nonzero" points="11.9304348 13.4885496 1.46086957 9.70229008 0 3.78625954 9.00869565 4.49618321 12.173913 13.4885496"></polygon>
                    <polygon id="head-right" fill="#26A9E0" fill-rule="nonzero" transform="translate(21.913043, 8.637405) scale(-1, 1) translate(-21.913043, -8.637405) " points="27.7565217 13.4885496 17.2869565 9.70229008 15.826087 3.78625954 25.0782609 4.49618321 28 13.4885496"></polygon>
                    <polygon id="ear-right" fill="#26A9E0" fill-rule="nonzero" points="19.4782609 3.78625954 24.5913043 3.3129771 21.1826087 0 17.773913 0"></polygon>
                    <polygon id="ear-left" fill="#26A9E0" fill-rule="nonzero" transform="translate(6.573913, 1.893130) scale(-1, 1) translate(-6.573913, -1.893130) " points="4.86956522 3.78625954 9.9826087 3.3129771 6.57391304 0 3.16521739 0"></polygon>
                </g>
            </g>
        </g>
    </g>
</svg>