<?xml version="1.0" encoding="UTF-8"?>
<svg width="300px" height="212px" viewBox="0 0 300 212" version="1.1" xmlns="http://www.w3.org/2000/svg" xmlns:xlink="http://www.w3.org/1999/xlink">
    <!-- Generator: Sketch 50.2 (55047) - http://www.bohemiancoding.com/sketch -->
    <title>mobile.svg</title>
    <desc>Created with Sketch.</desc>
    <defs></defs>
    <g id="Page-1" stroke="none" stroke-width="1" fill="none" fill-rule="evenodd">
        <g id="mobile.svg">
            <g id="IPAD" fill-rule="nonzero">
                <path d="M252.942,177.016 L252.942,19.198 C252.942,9.043 244.711,0.812 234.554,0.812 L18.508,0.812 C8.355,0.812 0.125,9.042 0.125,19.198 L0.125,177.015 C0.125,187.169 8.355,195.404 18.508,195.404 L234.555,195.404 C244.711,195.404 252.942,187.17 252.942,177.016 Z M244.915,98.107 C244.915,99.642 243.671,100.887 242.135,100.887 C240.6,100.887 239.36,99.642 239.36,98.107 C239.36,96.578 240.6,95.328 242.135,95.328 C243.671,95.328 244.915,96.578 244.915,98.107 Z M3.299,98.107 C3.299,94.036 6.603,90.731 10.672,90.731 C14.748,90.731 18.047,94.036 18.047,98.107 C18.047,102.181 14.748,105.483 10.672,105.483 C6.604,105.483 3.299,102.182 3.299,98.107 Z M22.337,173.95 L22.337,22.262 L230.72,22.262 L230.72,173.95 L22.337,173.95 Z" id="Shape" fill="#404C51"></path>
                <rect id="Rectangle-path" fill="#CFD7D8" x="22.337" y="22.262" width="208.382" height="151.688"></rect>
                <rect id="Rectangle-path" fill="#FFD100" x="29.343" y="30.353" width="191.241" height="14.682"></rect>
                <rect id="Rectangle-path" fill="#26A9E0" x="29.343" y="49.465" width="63.072" height="5.372"></rect>
                <rect id="Rectangle-path" fill="#26A9E0" x="96.874" y="49.465" width="101.935" height="5.372"></rect>
                <rect id="Rectangle-path" fill="#FFD100" x="29.343" y="94.062" width="63.072" height="14.682"></rect>
                <rect id="Rectangle-path" fill="#26A9E0" x="29.343" y="111.899" width="63.072" height="5.055"></rect>
                <path d="M130.077,107.407 L130.077,133.585 L103.898,133.585 C103.898,148.044 115.618,159.765 130.077,159.765 C144.536,159.765 156.257,148.044 156.257,133.585 C156.257,119.128 144.537,107.407 130.077,107.407 Z" id="Shape" fill="#404C51"></path>
                <path d="M182.437,107.407 L182.437,133.585 L182.298,133.585 L161.747,149.586 C166.536,155.769 174.012,159.765 182.436,159.765 C196.895,159.765 208.616,148.044 208.616,133.585 C208.616,119.128 196.896,107.407 182.437,107.407 Z" id="Shape" fill="#26A9E0"></path>
                <rect id="Rectangle-path" fill="#26A9E0" x="29.343" y="59.658" width="95.621" height="5.372"></rect>
                <rect id="Rectangle-path" fill="#26A9E0" x="130.077" y="59.658" width="68.731" height="5.372"></rect>
                <rect id="Rectangle-path" fill="#26A9E0" x="29.343" y="68.577" width="111.703" height="5.372"></rect>
                <rect id="Rectangle-path" fill="#26A9E0" x="29.343" y="120.818" width="43.641" height="5.055"></rect>
                <rect id="Rectangle-path" fill="#26A9E0" x="29.343" y="129.737" width="52.878" height="5.055"></rect>
            </g>
            <g id="IPHONE" transform="translate(220.000000, 45.000000)">
                <path d="M68.383,0.704 L12.076,0.704 C5.735,0.704 0.584,5.852 0.584,12.197 L0.584,154.695 C0.584,161.043 5.735,166.187 12.076,166.187 L68.383,166.187 C74.733,166.187 79.875,161.042 79.875,154.695 L79.875,12.197 C79.875,5.853 74.732,0.704 68.383,0.704 Z M40.229,5.817 C41.556,5.817 42.624,6.888 42.624,8.213 C42.624,9.531 41.557,10.606 40.229,10.606 C38.911,10.606 37.835,9.532 37.835,8.213 C37.836,6.889 38.911,5.817 40.229,5.817 Z M34.817,14.049 L45.641,14.049 C46.278,14.049 46.794,14.56 46.794,15.195 C46.794,15.833 46.277,16.348 45.641,16.348 L34.817,16.348 C34.183,16.348 33.667,15.832 33.667,15.195 C33.667,14.56 34.184,14.049 34.817,14.049 Z M40.229,163.062 C35.949,163.062 32.475,159.588 32.475,155.302 C32.475,151.022 35.949,147.548 40.229,147.548 C44.517,147.548 47.987,151.022 47.987,155.302 C47.987,159.588 44.518,163.062 40.229,163.062 Z M74.705,143.202 L5.753,143.202 L5.753,23.688 L74.705,23.688 L74.705,143.202 Z" id="Shape" fill="#404C51" fill-rule="nonzero"></path>
                <rect id="Rectangle-path" fill="#FFD100" fill-rule="nonzero" x="5.753" y="23.688" width="68.952" height="119.514"></rect>
                <g id="prime-logo-2018" transform="translate(10.000000, 51.000000)">
                    <polygon id="chick-right" fill="#4A535A" fill-rule="nonzero" points="45.0869565 31.6030534 40.3130435 30.5496183 44.026087 35.8167939 44.026087 52.1450382 56.7565217 41.610687 56.7565217 23.7022901 50.9217391 25.8091603"></polygon>
                    <polygon id="chick-left" fill="#4A535A" fill-rule="nonzero" transform="translate(11.934783, 37.923664) scale(-1, 1) translate(-11.934783, -37.923664) " points="8.48695652 31.6030534 3.71304348 30.5496183 7.42608696 35.8167939 7.42608696 52.1450382 20.1565217 41.610687 20.1565217 23.7022901 14.3217391 25.8091603"></polygon>
                    <path d="M18.0347826,54.7934647 L18.0347826,52.6870745 L25.2772054,57.8635244 L25.2699918,55.7510183 L18.0347826,50.5797243 L18.0347826,48.4733341 L25.2772054,53.649784 L25.2699918,51.5372779 L18.0347826,46.3659838 L18.0347826,36.870229 L22.2782609,30.5496183 L24.9304348,32.129771 L35.5391304,32.129771 L38.1913043,30.5496183 L42.4347826,36.870229 L42.4347826,46.2557404 L35.0453307,51.5372779 L35.0381171,53.649784 L42.4347826,48.3630907 L42.4347826,50.4694809 L35.0453307,55.7510183 L35.0381171,57.8635244 L42.4347826,52.5768311 L42.4347826,54.6832213 L35.0453307,59.9647588 L35.0381171,62.0772649 L42.4347826,56.7905716 L42.4347826,60.5725191 L39.2521739,65.3129771 L35.5391304,69 L24.9304348,69 L21.2173913,65.3129771 L18.0347826,60.5725191 L18.0347826,56.900815 L25.2772054,62.0772649 L25.2699918,59.9647588 L18.0347826,54.7934647 Z" id="mask" fill="#4A535A"></path>
                    <g id="mask-effect-right" transform="translate(33.947826, 45.824427)"></g>
                    <g id="mask-effect-left" transform="translate(16.973913, 45.824427)"></g>
                    <polygon id="bottom-chick-right" fill="#4A535A" fill-rule="nonzero" points="44.026087 62.1526718 50.9217391 55.3053435 50.9217391 48.4580153 44.026087 54.2519084"></polygon>
                    <polygon id="bottom-chick-left" fill="#4A535A" fill-rule="nonzero" transform="translate(12.995652, 55.305344) scale(-1, 1) translate(-12.995652, -55.305344) " points="9.54782609 62.1526718 16.4434783 55.3053435 16.4434783 48.4580153 9.54782609 54.2519084"></polygon>
                    <path d="M27.0521739,0 L29.173913,0 L29.173913,30.0229008 L25.9913043,30.0229008 L19.0956522,10.0076336 L23.3391304,0 L24.9304348,0 L24.9304348,12.1145038 L27.0521739,13.1679389 L27.0521739,0 Z M31.2956522,0 L33.4173913,0 L33.4173913,13.1679389 L35.5391304,12.1145038 L35.5391304,1.91846539e-13 L37.1304348,0 L41.373913,10.0076336 L35.0086957,30.0229008 L31.2956522,30.0229008 L31.2956522,0 Z" id="head" fill="#4A535A"></path>
                    <polygon id="head-left" fill="#4A535A" fill-rule="nonzero" points="25.9913043 30.0229008 3.1826087 21.5954198 0 8.42748092 19.626087 10.0076336 26.5217391 30.0229008"></polygon>
                    <polygon id="head-right" fill="#4A535A" fill-rule="nonzero" transform="translate(47.739130, 19.225191) scale(-1, 1) translate(-47.739130, -19.225191) " points="60.4695652 30.0229008 37.6608696 21.5954198 34.4782609 8.42748092 54.6347826 10.0076336 61 30.0229008"></polygon>
                    <polygon id="ear-right" fill="#4A535A" fill-rule="nonzero" points="42.4347826 8.42748092 53.573913 7.3740458 46.1478261 0 38.7217391 0"></polygon>
                    <polygon id="ear-left" fill="#4A535A" fill-rule="nonzero" transform="translate(14.321739, 4.213740) scale(-1, 1) translate(-14.321739, -4.213740) " points="10.6086957 8.42748092 21.7478261 7.3740458 14.3217391 0 6.89565217 0"></polygon>
                </g>
            </g>
        </g>
    </g>
</svg>