<?xml version="1.0" encoding="UTF-8"?>
<svg width="299px" height="265px" viewBox="0 0 299 265" version="1.1" xmlns="http://www.w3.org/2000/svg" xmlns:xlink="http://www.w3.org/1999/xlink">
    <!-- Generator: Sketch 50.2 (55047) - http://www.bohemiancoding.com/sketch -->
    <title>productivity.svg</title>
    <desc>Created with Sketch.</desc>
    <defs>
        <path d="M0.875,1.187 C9.23,0.647 17.451,0.73 25.298,1.344 C33.248,1.966 41,3.146 48.242,4.826 C55.743,6.565 62.853,8.877 69.163,11.72 C75.835,14.727 81.743,18.39 86.319,22.683 C81.743,18.39 75.835,14.727 69.163,11.72 C62.853,8.877 55.743,6.565 48.242,4.826 C41,3.146 33.248,1.966 25.298,1.344 C17.451,0.73 9.231,0.647 0.875,1.187 Z" id="path-1"></path>
        <path d="M1.509,4.798 C1.5,4.776 1.45,4.654 1.38,4.451 C1.311,4.248 1.222,3.963 1.136,3.613 C1.05,3.263 0.967,2.849 0.908,2.387 C0.849,1.925 0.815,1.414 0.827,0.871 C0.815,1.414 0.849,1.925 0.908,2.387 C0.967,2.849 1.05,3.263 1.136,3.613 C1.221,3.963 1.31,4.248 1.38,4.451 C1.45,4.654 1.5,4.776 1.509,4.798 Z" id="path-3"></path>
        <path d="M2.015,9.642 C1.837,8.888 1.673,8.126 1.525,7.36 C1.378,6.593 1.245,5.821 1.129,5.047 C1.013,4.272 0.913,3.493 0.83,2.713 C0.747,1.933 0.68,1.151 0.631,0.369 C0.68,1.15 0.746,1.932 0.83,2.713 C0.913,3.493 1.013,4.272 1.129,5.047 C1.245,5.821 1.378,6.594 1.525,7.36 C1.673,8.126 1.837,8.888 2.015,9.642 Z" id="path-5"></path>
        <path d="M0.291,0.954 C0.338,1.098 0.385,1.241 0.434,1.383 C0.482,1.525 0.531,1.665 0.58,1.805 C0.629,1.945 0.679,2.083 0.729,2.221 C0.779,2.36 0.83,2.496 0.882,2.632 C0.83,2.496 0.779,2.36 0.729,2.221 C0.679,2.083 0.629,1.945 0.58,1.805 C0.531,1.665 0.482,1.525 0.434,1.383 C0.385,1.241 0.337,1.098 0.291,0.954 Z" id="path-7"></path>
        <path d="M4.691,7.176 C4.315,6.665 3.948,6.128 3.592,5.567 C3.238,5.009 2.894,4.427 2.561,3.825 C2.229,3.224 1.909,2.603 1.601,1.964 C1.293,1.327 0.997,0.672 0.714,0.001 C0.997,0.672 1.293,1.327 1.601,1.964 C1.909,2.604 2.229,3.225 2.561,3.825 C2.894,4.428 3.237,5.01 3.592,5.567 C3.948,6.128 4.315,6.665 4.691,7.176 Z" id="path-9"></path>
        <path d="M0.378,0.687 C0.366,0.821 0.356,0.957 0.346,1.093 C0.336,1.229 0.327,1.366 0.319,1.505 C0.311,1.643 0.304,1.782 0.298,1.923 C0.291,2.064 0.286,2.205 0.281,2.348 C0.286,2.205 0.291,2.064 0.298,1.923 C0.304,1.782 0.312,1.643 0.319,1.505 C0.327,1.366 0.337,1.23 0.346,1.093 C0.355,0.956 0.366,0.821 0.378,0.687 Z" id="path-11"></path>
        <path d="M0.856,0.681 C1.007,0.653 1.146,0.65 1.273,0.672 C1.4,0.694 1.516,0.741 1.62,0.815 C1.724,0.888 1.816,0.986 1.897,1.11 C1.978,1.234 2.046,1.383 2.104,1.559 C2.047,1.383 1.978,1.234 1.897,1.11 C1.816,0.986 1.724,0.888 1.62,0.815 C1.516,0.742 1.401,0.694 1.273,0.672 C1.146,0.649 1.007,0.652 0.856,0.681 Z" id="path-13"></path>
        <path d="M0.216,1.295 C0.272,1.246 0.316,1.19 0.348,1.127 C0.381,1.064 0.403,0.993 0.413,0.915 C0.423,0.837 0.422,0.751 0.41,0.659 C0.398,0.566 0.374,0.467 0.34,0.36 C0.375,0.467 0.398,0.567 0.41,0.659 C0.422,0.751 0.423,0.837 0.413,0.915 C0.402,0.993 0.381,1.064 0.348,1.127 C0.316,1.19 0.272,1.246 0.216,1.295 Z" id="path-15"></path>
        <path d="M0.587,0.514 C0.896,1.391 1.144,2.201 1.329,2.943 C1.515,3.686 1.638,4.362 1.699,4.971 C1.76,5.58 1.758,6.122 1.694,6.597 C1.63,7.073 1.503,7.481 1.313,7.822 C1.503,7.481 1.63,7.073 1.694,6.597 C1.758,6.122 1.76,5.58 1.699,4.971 C1.638,4.362 1.515,3.686 1.329,2.943 C1.144,2.201 0.896,1.391 0.587,0.514 Z" id="path-17"></path>
        <path d="M2.424,3.251 C2.29,2.87 2.156,2.52 2.021,2.202 C1.886,1.884 1.75,1.598 1.614,1.343 C1.478,1.088 1.341,0.866 1.203,0.676 C1.065,0.485 0.927,0.326 0.787,0.199 C0.927,0.325 1.065,0.485 1.203,0.676 C1.341,0.866 1.478,1.089 1.614,1.343 C1.75,1.597 1.886,1.884 2.021,2.202 C2.156,2.52 2.291,2.87 2.424,3.251 Z" id="path-19"></path>
        <path d="M1.312,0.821 C1.251,0.931 1.193,1.031 1.138,1.122 C1.083,1.213 1.03,1.294 0.98,1.367 C0.93,1.44 0.882,1.502 0.836,1.555 C0.79,1.608 0.748,1.653 0.707,1.687 C0.748,1.652 0.791,1.608 0.836,1.555 C0.881,1.502 0.929,1.439 0.98,1.367 C1.031,1.295 1.083,1.213 1.138,1.122 C1.194,1.031 1.252,0.931 1.312,0.821 Z" id="path-21"></path>
        <path d="M0.822,0.38 C0.804,0.384 0.786,0.389 0.768,0.393 C0.75,0.397 0.731,0.401 0.713,0.405 C0.695,0.409 0.676,0.412 0.657,0.416 C0.638,0.42 0.619,0.423 0.599,0.426 C0.619,0.423 0.638,0.419 0.657,0.416 C0.676,0.413 0.695,0.409 0.713,0.405 C0.731,0.401 0.75,0.397 0.768,0.393 C0.786,0.389 0.804,0.385 0.822,0.38 Z" id="path-23"></path>
        <path d="M0.567,0.935 C0.637,1.147 0.703,1.352 0.765,1.548 C0.827,1.744 0.884,1.934 0.936,2.116 C0.988,2.298 1.038,2.473 1.082,2.641 C1.126,2.809 1.166,2.97 1.203,3.125 C1.167,2.97 1.127,2.809 1.082,2.641 C1.038,2.473 0.989,2.298 0.936,2.116 C0.883,1.934 0.826,1.744 0.765,1.548 C0.704,1.352 0.637,1.146 0.567,0.935 Z" id="path-25"></path>
        <path d="M0.873,0.156 C0.863,0.171 0.853,0.186 0.843,0.201 C0.833,0.216 0.823,0.23 0.813,0.245 C0.803,0.26 0.792,0.274 0.782,0.288 C0.771,0.303 0.761,0.317 0.75,0.331 C0.761,0.317 0.771,0.303 0.782,0.288 C0.792,0.274 0.803,0.259 0.813,0.245 C0.823,0.231 0.834,0.216 0.843,0.201 C0.852,0.186 0.863,0.171 0.873,0.156 Z" id="path-27"></path>
        <path d="M3.749,0.332 C3.583,0.534 3.383,0.722 3.149,0.895 C2.916,1.068 2.648,1.228 2.345,1.372 C2.043,1.517 1.706,1.647 1.335,1.763 C0.963,1.879 0.557,1.981 0.116,2.069 C0.557,1.981 0.964,1.879 1.335,1.763 C1.706,1.647 2.043,1.517 2.345,1.372 C2.647,1.228 2.915,1.069 3.149,0.895 C3.383,0.722 3.583,0.534 3.749,0.332 Z" id="path-29"></path>
        <path d="M5.116,1.068 C4.676,1.155 4.25,1.214 3.84,1.244 C3.429,1.274 3.034,1.275 2.654,1.246 C2.273,1.218 1.908,1.161 1.558,1.074 C1.208,0.988 0.873,0.872 0.555,0.727 C0.873,0.872 1.208,0.987 1.558,1.074 C1.908,1.16 2.273,1.218 2.654,1.246 C3.034,1.274 3.429,1.273 3.84,1.244 C4.25,1.214 4.676,1.155 5.116,1.068 Z" id="path-31"></path>
    </defs>
    <g id="Page-1" stroke="none" stroke-width="1" fill="none" fill-rule="evenodd">
        <g id="productivity.svg">
            <g id="CIRCLES" transform="translate(0.000000, 107.000000)">
                <g id="Group" opacity="0.7" transform="translate(30.000000, 8.000000)" fill="#00ADEE" fill-rule="nonzero">
                    <g id="Shape">
                        <path d="M105.954,1.04 C116.507,0.413 126.87,0.509 136.792,1.223 C146.88,1.949 156.809,3.335 166.22,5.322 C176.06,7.4 185.602,10.194 194.344,13.68 C203.746,17.43 212.481,22.086 219.805,27.675 C227.928,33.873 233.678,40.721 236.8,47.944 C240.299,56.043 240.493,64.61 236.968,73.093 C233.02,82.592 224.484,91.818 211.152,99.75 C196.572,108.425 176.908,115.176 153.091,118.625 C128.442,122.194 103.488,121.641 80.73,117.629 C58.834,113.771 40.357,106.951 26.584,98.265 C13.999,90.327 5.847,81.142 2.35,71.544 C-0.767,62.99 -0.123,54.272 4.165,45.852 C7.967,38.385 14.33,31.78 22.21,26.16 C29.37,21.053 37.923,16.657 47.231,13.063 C55.908,9.712 65.438,6.981 75.434,4.956 C85.001,3.017 95.245,1.676 105.954,1.04 Z M150.491,112.139 C172.506,109.057 190.833,103.003 204.603,95.177 C217.276,87.974 225.603,79.54 229.698,70.793 C233.382,62.926 233.581,54.928 230.63,47.317 C227.982,40.488 222.799,33.978 215.296,28.054 C208.5,22.689 200.292,18.2 191.386,14.573 C183.08,11.191 173.965,8.474 164.531,6.449 C155.493,4.509 145.934,3.155 136.207,2.445 C126.634,1.746 116.63,1.652 106.446,2.266 C96.118,2.889 86.253,4.2 77.06,6.093 C67.472,8.067 58.366,10.724 50.116,13.976 C41.29,17.455 33.242,21.695 26.579,26.604 C19.278,31.982 13.494,38.273 10.205,45.342 C6.519,53.268 6.301,61.417 9.606,69.36 C13.289,78.208 21.262,86.615 33.252,93.831 C46.29,101.678 63.539,107.8 83.804,111.251 C104.804,114.826 127.768,115.319 150.491,112.139 Z"></path>
                    </g>
                </g>
                <g id="Group" opacity="0.5" transform="translate(66.000000, 23.000000)">
                    <g>
                        <g>
                            <path d="M72.875,1.187 C81.23,0.647 89.451,0.73 97.298,1.344 C105.248,1.966 113,3.146 120.242,4.826 C127.743,6.565 134.853,8.877 141.163,11.72 C147.835,14.727 153.743,18.39 158.319,22.683 C163.261,27.322 166.233,32.299 167.176,37.391 C168.2,42.914 166.833,48.555 163.015,53.947 C158.895,59.765 151.98,65.209 142.393,69.733 C132.242,74.524 119.397,78.144 104.449,79.958 C89.179,81.812 73.85,81.525 59.683,79.437 C45.851,77.397 33.682,73.72 23.985,68.895 C14.835,64.341 8.141,58.889 4.28,52.975 C0.708,47.503 -0.382,41.723 1.148,35.932 C2.552,30.62 6.045,25.771 10.941,21.532 C15.499,17.585 21.333,14.114 27.975,11.222 C34.267,8.483 41.388,6.218 49.027,4.519 C56.409,2.877 64.423,1.732 72.875,1.187 Z M103.075,76.527 C117.041,74.867 129.094,71.548 138.684,67.141 C147.773,62.964 154.409,57.92 158.453,52.503 C162.215,47.462 163.682,42.165 162.885,36.955 C162.147,32.132 159.471,27.398 154.895,22.971 C150.644,18.858 145.087,15.337 138.768,12.44 C132.779,9.693 125.997,7.456 118.822,5.77 C111.883,4.14 104.44,2.992 96.796,2.387 C89.247,1.79 81.336,1.709 73.296,2.234 C65.167,2.765 57.469,3.878 50.394,5.471 C43.081,7.117 36.286,9.311 30.308,11.957 C24.012,14.745 18.518,18.083 14.27,21.867 C9.722,25.918 6.543,30.535 5.374,35.574 C4.105,41.041 5.317,46.474 8.853,51.595 C12.659,57.105 19.092,62.16 27.78,66.367 C36.952,70.808 48.383,74.181 61.315,76.049 C74.54,77.959 88.829,78.221 103.075,76.527 Z" id="Shape" fill="#00ADEE" fill-rule="nonzero"></path>
                            <g id="Clipped" transform="translate(72.000000, 0.000000)">
                                <mask id="mask-2" fill="white">
                                    <use xlink:href="#path-1"></use>
                                </mask>
                                <g id="SVGID_1_"></g>
                                <g id="Group" mask="url(#mask-2)" fill-rule="nonzero">
                                    <path d="M0.875,1.187 C7.277,0.774 13.585,0.726 19.697,1 C25.843,1.275 31.876,1.881 37.667,2.785 C43.569,3.706 49.297,4.95 54.692,6.492 C60.26,8.083 65.543,10.013 70.343,12.263 C65.542,10.012 60.26,8.083 54.692,6.492 C49.296,4.95 43.569,3.706 37.667,2.785 C31.876,1.881 25.844,1.276 19.697,1 C13.586,0.725 7.278,0.773 0.875,1.187" id="Shape" fill="#005777"></path>
                                    <path d="M70.344,12.263 C70.465,12.32 70.586,12.377 70.707,12.434 C70.828,12.492 70.949,12.549 71.069,12.608 C71.189,12.666 71.31,12.723 71.429,12.782 C71.55,12.841 71.669,12.899 71.789,12.958 C71.669,12.899 71.55,12.841 71.429,12.782 C71.31,12.723 71.189,12.666 71.069,12.608 C70.949,12.549 70.828,12.492 70.707,12.434 C70.586,12.377 70.465,12.319 70.344,12.263" id="Shape" fill="#005778"></path>
                                    <path d="M71.79,12.957 C71.897,13.01 72.005,13.063 72.111,13.116 C72.218,13.17 72.326,13.223 72.432,13.277 C72.538,13.331 72.645,13.384 72.751,13.439 C72.857,13.493 72.964,13.547 73.069,13.602 C72.964,13.547 72.857,13.493 72.751,13.439 C72.645,13.384 72.538,13.331 72.432,13.277 C72.326,13.223 72.218,13.17 72.111,13.117 C72.005,13.063 71.897,13.01 71.79,12.957" id="Shape" fill="#005778"></path>
                                    <path d="M73.07,13.603 C73.116,13.626 73.162,13.65 73.208,13.673 C73.254,13.697 73.299,13.721 73.345,13.744 C73.391,13.767 73.437,13.792 73.483,13.815 C73.528,13.839 73.574,13.863 73.62,13.887 C73.574,13.863 73.528,13.839 73.483,13.815 C73.437,13.792 73.391,13.767 73.345,13.744 C73.299,13.721 73.254,13.697 73.208,13.673 C73.162,13.649 73.116,13.626 73.07,13.603" id="Shape" fill="#005879"></path>
                                    <path d="M73.619,13.888 C73.664,13.911 73.71,13.936 73.755,13.959 C73.801,13.983 73.846,14.007 73.892,14.031 C73.937,14.055 73.983,14.079 74.028,14.103 C74.074,14.127 74.119,14.152 74.164,14.175 C74.119,14.152 74.074,14.127 74.028,14.103 C73.983,14.079 73.937,14.055 73.892,14.031 C73.846,14.007 73.801,13.983 73.755,13.959 C73.71,13.936 73.664,13.911 73.619,13.888" id="Shape" fill="#005879"></path>
                                    <path d="M74.163,14.176 C74.209,14.2 74.254,14.225 74.299,14.249 C74.344,14.273 74.389,14.298 74.435,14.322 C74.48,14.346 74.525,14.371 74.57,14.395 C74.615,14.419 74.66,14.444 74.705,14.468 C74.66,14.444 74.615,14.419 74.57,14.395 C74.525,14.371 74.48,14.346 74.435,14.322 C74.389,14.298 74.344,14.273 74.299,14.249 C74.254,14.225 74.209,14.2 74.163,14.176" id="Shape" fill="#005879"></path>
                                    <path d="M74.704,14.469 C74.749,14.493 74.794,14.518 74.839,14.543 C74.884,14.567 74.929,14.592 74.974,14.616 C75.018,14.641 75.063,14.666 75.108,14.69 C75.153,14.715 75.197,14.74 75.242,14.764 C75.197,14.74 75.153,14.715 75.108,14.69 C75.063,14.666 75.018,14.641 74.974,14.616 C74.929,14.592 74.884,14.567 74.839,14.543 C74.794,14.518 74.749,14.493 74.704,14.469" id="Shape" fill="#00597A"></path>
                                    <path d="M75.241,14.765 C75.286,14.79 75.33,14.815 75.375,14.84 C75.42,14.864 75.464,14.89 75.509,14.915 C75.553,14.939 75.598,14.965 75.642,14.99 C75.686,15.014 75.731,15.04 75.775,15.065 C75.731,15.04 75.686,15.014 75.642,14.99 C75.598,14.965 75.553,14.939 75.509,14.915 C75.464,14.89 75.42,14.864 75.375,14.84 C75.33,14.814 75.286,14.79 75.241,14.765" id="Shape" fill="#00597A"></path>
                                    <path d="M75.774,15.065 C75.818,15.09 75.863,15.115 75.907,15.14 C75.951,15.165 75.995,15.191 76.039,15.216 C76.084,15.241 76.128,15.267 76.172,15.292 C76.216,15.317 76.26,15.343 76.304,15.368 C76.26,15.343 76.216,15.317 76.172,15.292 C76.128,15.267 76.084,15.241 76.039,15.216 C75.995,15.191 75.951,15.165 75.907,15.14 C75.863,15.115 75.818,15.091 75.774,15.065" id="Shape" fill="#00597B"></path>
                                    <path d="M76.304,15.369 C76.34,15.39 76.376,15.411 76.412,15.432 C76.448,15.453 76.484,15.474 76.521,15.495 C76.556,15.516 76.593,15.537 76.628,15.558 C76.665,15.579 76.7,15.6 76.736,15.621 C76.7,15.6 76.665,15.578 76.628,15.558 C76.593,15.537 76.557,15.515 76.521,15.495 C76.484,15.474 76.448,15.452 76.412,15.432 C76.376,15.411 76.34,15.391 76.304,15.369" id="Shape" fill="#005A7B"></path>
                                    <path d="M76.737,15.623 C76.761,15.637 76.785,15.651 76.808,15.665 C76.831,15.679 76.855,15.693 76.879,15.707 C76.902,15.721 76.926,15.735 76.949,15.749 C76.973,15.764 76.997,15.777 77.02,15.791 C76.997,15.777 76.972,15.764 76.949,15.749 C76.926,15.735 76.902,15.721 76.879,15.707 C76.855,15.693 76.831,15.679 76.808,15.665 C76.785,15.651 76.762,15.637 76.737,15.623" id="Shape" fill="#005A7C"></path>
                                    <path d="M77.021,15.791 C77.044,15.806 77.068,15.819 77.091,15.834 C77.114,15.848 77.138,15.861 77.161,15.876 C77.185,15.89 77.209,15.904 77.232,15.918 C77.255,15.933 77.279,15.946 77.302,15.961 C77.279,15.946 77.255,15.933 77.232,15.918 C77.209,15.904 77.185,15.89 77.161,15.876 C77.138,15.861 77.114,15.848 77.091,15.834 C77.068,15.819 77.045,15.806 77.021,15.791" id="Shape" fill="#005A7C"></path>
                                    <path d="M77.304,15.961 C77.327,15.975 77.351,15.989 77.374,16.003 C77.397,16.018 77.421,16.031 77.444,16.046 C77.467,16.061 77.491,16.074 77.514,16.089 C77.537,16.103 77.561,16.117 77.584,16.131 C77.561,16.117 77.537,16.103 77.514,16.089 C77.491,16.074 77.467,16.061 77.444,16.046 C77.421,16.031 77.397,16.018 77.374,16.003 C77.351,15.989 77.327,15.975 77.304,15.961" id="Shape" fill="#005A7C"></path>
                                    <path d="M77.585,16.131 C77.608,16.146 77.632,16.16 77.655,16.174 C77.677,16.189 77.701,16.203 77.724,16.217 C77.747,16.232 77.771,16.246 77.794,16.26 C77.817,16.275 77.841,16.289 77.863,16.303 C77.841,16.289 77.817,16.275 77.794,16.26 C77.771,16.246 77.747,16.232 77.724,16.217 C77.701,16.203 77.677,16.189 77.654,16.174 C77.632,16.16 77.608,16.146 77.585,16.131" id="Shape" fill="#005B7D"></path>
                                    <path d="M77.864,16.303 C77.887,16.318 77.911,16.332 77.934,16.346 C77.957,16.361 77.98,16.375 78.003,16.39 C78.026,16.404 78.05,16.418 78.072,16.433 C78.095,16.448 78.119,16.462 78.142,16.476 C78.119,16.462 78.095,16.448 78.072,16.433 C78.05,16.418 78.026,16.404 78.003,16.39 C77.98,16.375 77.957,16.361 77.934,16.346 C77.911,16.332 77.888,16.317 77.864,16.303" id="Shape" fill="#005B7D"></path>
                                    <path d="M78.144,16.476 C78.166,16.491 78.19,16.505 78.213,16.52 C78.235,16.535 78.259,16.548 78.282,16.563 C78.304,16.578 78.328,16.592 78.351,16.607 C78.373,16.622 78.397,16.636 78.42,16.651 C78.397,16.636 78.373,16.622 78.351,16.607 C78.328,16.592 78.304,16.578 78.282,16.563 C78.259,16.548 78.235,16.535 78.213,16.52 C78.189,16.505 78.166,16.49 78.144,16.476" id="Shape" fill="#005B7E"></path>
                                    <path d="M78.421,16.65 C78.443,16.664 78.467,16.678 78.489,16.693 C78.512,16.708 78.535,16.722 78.558,16.737 C78.581,16.752 78.604,16.766 78.627,16.781 C78.649,16.796 78.673,16.81 78.695,16.825 C78.673,16.81 78.649,16.796 78.627,16.781 C78.604,16.766 78.581,16.752 78.558,16.737 C78.535,16.722 78.512,16.708 78.489,16.693 C78.467,16.679 78.443,16.664 78.421,16.65" id="Shape" fill="#005C7E"></path>
                                    <path d="M78.696,16.825 C78.719,16.84 78.742,16.854 78.765,16.869 C78.787,16.884 78.811,16.898 78.833,16.913 C78.855,16.928 78.879,16.942 78.901,16.957 C78.924,16.972 78.947,16.986 78.969,17.002 C78.947,16.986 78.924,16.972 78.901,16.957 C78.879,16.942 78.855,16.928 78.833,16.913 C78.81,16.898 78.787,16.884 78.765,16.869 C78.742,16.854 78.72,16.84 78.696,16.825" id="Shape" fill="#005C7E"></path>
                                    <path d="M78.971,17.002 C78.994,17.017 79.017,17.031 79.039,17.046 C79.062,17.061 79.085,17.075 79.107,17.09 C79.13,17.106 79.153,17.12 79.175,17.135 C79.198,17.15 79.221,17.164 79.243,17.179 C79.221,17.164 79.198,17.15 79.175,17.135 C79.153,17.12 79.13,17.106 79.108,17.09 C79.085,17.075 79.062,17.061 79.039,17.046 C79.017,17.031 78.994,17.017 78.971,17.002" id="Shape" fill="#005C7F"></path>
                                    <path d="M79.244,17.179 C79.267,17.195 79.29,17.209 79.312,17.224 C79.334,17.239 79.358,17.254 79.38,17.269 C79.402,17.284 79.425,17.298 79.447,17.314 C79.469,17.329 79.493,17.343 79.515,17.358 C79.493,17.343 79.469,17.329 79.447,17.314 C79.425,17.298 79.402,17.284 79.38,17.269 C79.358,17.254 79.334,17.239 79.312,17.224 C79.29,17.209 79.268,17.194 79.244,17.179" id="Shape" fill="#005D7F"></path>
                                    <path d="M79.517,17.357 C79.539,17.373 79.562,17.387 79.584,17.402 C79.606,17.418 79.629,17.432 79.652,17.447 C79.674,17.463 79.697,17.477 79.719,17.493 C79.741,17.508 79.764,17.522 79.786,17.538 C79.764,17.522 79.741,17.508 79.719,17.493 C79.697,17.477 79.674,17.463 79.652,17.447 C79.629,17.432 79.606,17.418 79.584,17.402 C79.562,17.388 79.539,17.373 79.517,17.357" id="Shape" fill="#005D80"></path>
                                    <path d="M79.787,17.538 C79.809,17.553 79.832,17.568 79.854,17.583 C79.876,17.598 79.899,17.613 79.921,17.628 C79.943,17.644 79.966,17.658 79.988,17.674 C80.01,17.689 80.033,17.704 80.055,17.719 C80.033,17.704 80.01,17.689 79.988,17.674 C79.966,17.658 79.943,17.644 79.921,17.628 C79.899,17.613 79.876,17.598 79.854,17.583 C79.832,17.568 79.81,17.553 79.787,17.538" id="Shape" fill="#005D80"></path>
                                    <path d="M80.057,17.719 C80.072,17.73 80.087,17.74 80.102,17.75 C80.118,17.76 80.132,17.771 80.148,17.78 C80.163,17.791 80.178,17.801 80.193,17.811 C80.209,17.822 80.223,17.832 80.239,17.842 C80.223,17.831 80.209,17.821 80.193,17.811 C80.178,17.801 80.163,17.79 80.148,17.781 C80.132,17.77 80.118,17.76 80.102,17.75 C80.087,17.739 80.071,17.729 80.057,17.719" id="Shape" fill="#005D81"></path>
                                    <path d="M80.238,17.843 C80.252,17.853 80.266,17.863 80.28,17.871 C80.295,17.881 80.308,17.891 80.323,17.9 C80.337,17.91 80.351,17.92 80.365,17.929 C80.379,17.938 80.393,17.949 80.407,17.958 C80.393,17.948 80.379,17.938 80.365,17.929 C80.351,17.92 80.337,17.909 80.323,17.9 C80.308,17.89 80.295,17.88 80.28,17.871 C80.267,17.862 80.252,17.853 80.238,17.843" id="Shape" fill="#005E81"></path>
                                    <path d="M80.407,17.959 C80.422,17.968 80.435,17.978 80.449,17.987 C80.464,17.997 80.477,18.007 80.492,18.016 C80.506,18.026 80.519,18.036 80.534,18.045 C80.548,18.055 80.562,18.065 80.576,18.074 C80.562,18.064 80.548,18.054 80.534,18.045 C80.519,18.035 80.506,18.025 80.492,18.016 C80.477,18.006 80.464,17.996 80.449,17.987 C80.436,17.978 80.422,17.968 80.407,17.959" id="Shape" fill="#005E81"></path>
                                    <path d="M80.576,18.075 C80.59,18.085 80.604,18.095 80.618,18.103 C80.632,18.113 80.646,18.123 80.66,18.132 C80.674,18.141 80.688,18.152 80.702,18.161 C80.716,18.17 80.73,18.181 80.744,18.19 C80.73,18.18 80.716,18.17 80.702,18.161 C80.688,18.152 80.674,18.141 80.66,18.132 C80.646,18.123 80.632,18.112 80.618,18.103 C80.604,18.095 80.59,18.085 80.576,18.075" id="Shape" fill="#005E82"></path>
                                    <path d="M80.744,18.191 C80.758,18.201 80.772,18.211 80.786,18.22 C80.8,18.229 80.814,18.24 80.828,18.249 C80.842,18.258 80.855,18.269 80.87,18.278 C80.884,18.288 80.897,18.298 80.912,18.307 C80.897,18.297 80.884,18.287 80.87,18.278 C80.855,18.268 80.842,18.258 80.828,18.249 C80.814,18.24 80.8,18.229 80.786,18.22 C80.772,18.211 80.758,18.201 80.744,18.191" id="Shape" fill="#005F82"></path>
                                    <path d="M80.912,18.309 C80.926,18.319 80.939,18.33 80.953,18.339 C80.967,18.348 80.981,18.359 80.995,18.368 C81.009,18.377 81.023,18.388 81.037,18.397 C81.051,18.406 81.064,18.417 81.078,18.426 C81.064,18.416 81.051,18.406 81.037,18.397 C81.023,18.388 81.009,18.377 80.995,18.368 C80.981,18.359 80.967,18.348 80.953,18.339 C80.939,18.33 80.926,18.318 80.912,18.309" id="Shape" fill="#005F83"></path>
                                    <path d="M81.078,18.427 C81.093,18.437 81.106,18.447 81.12,18.456 C81.134,18.467 81.147,18.477 81.162,18.486 C81.176,18.496 81.189,18.506 81.203,18.515 C81.217,18.524 81.231,18.535 81.245,18.544 C81.231,18.534 81.217,18.524 81.203,18.515 C81.189,18.506 81.176,18.495 81.162,18.486 C81.147,18.476 81.134,18.466 81.12,18.456 C81.106,18.446 81.093,18.437 81.078,18.427" id="Shape" fill="#005F83"></path>
                                    <path d="M81.245,18.545 C81.259,18.555 81.272,18.566 81.286,18.575 C81.3,18.584 81.314,18.595 81.328,18.604 C81.342,18.613 81.355,18.624 81.369,18.634 C81.383,18.644 81.396,18.654 81.41,18.663 C81.396,18.653 81.383,18.643 81.369,18.634 C81.355,18.623 81.342,18.613 81.328,18.604 C81.314,18.595 81.3,18.584 81.286,18.575 C81.272,18.566 81.259,18.555 81.245,18.545" id="Shape" fill="#006083"></path>
                                    <path d="M81.41,18.664 C81.425,18.674 81.438,18.684 81.452,18.693 C81.466,18.704 81.479,18.714 81.493,18.723 C81.507,18.732 81.52,18.743 81.534,18.753 C81.548,18.763 81.562,18.773 81.576,18.782 C81.562,18.772 81.548,18.762 81.534,18.753 C81.52,18.742 81.507,18.732 81.493,18.723 C81.479,18.714 81.466,18.703 81.452,18.693 C81.438,18.684 81.425,18.674 81.41,18.664" id="Shape" fill="#006084"></path>
                                    <path d="M81.576,18.783 C81.59,18.793 81.603,18.804 81.617,18.813 C81.631,18.822 81.644,18.833 81.658,18.842 C81.672,18.853 81.685,18.863 81.699,18.872 C81.713,18.881 81.726,18.893 81.74,18.902 C81.726,18.892 81.713,18.881 81.699,18.872 C81.685,18.863 81.672,18.852 81.658,18.842 C81.644,18.832 81.631,18.822 81.617,18.813 C81.603,18.804 81.59,18.793 81.576,18.783" id="Shape" fill="#006084"></path>
                                    <path d="M81.74,18.903 C81.754,18.913 81.767,18.923 81.781,18.933 C81.795,18.943 81.808,18.953 81.822,18.962 C81.836,18.973 81.849,18.983 81.863,18.992 C81.877,19.003 81.89,19.013 81.904,19.022 C81.89,19.012 81.877,19.002 81.863,18.992 C81.849,18.982 81.836,18.972 81.822,18.962 C81.808,18.952 81.795,18.942 81.781,18.933 C81.768,18.923 81.754,18.913 81.74,18.903" id="Shape" fill="#006085"></path>
                                    <path d="M81.904,19.023 C81.918,19.033 81.931,19.044 81.945,19.053 C81.959,19.062 81.972,19.074 81.986,19.083 C82,19.092 82.013,19.103 82.026,19.113 C82.04,19.123 82.053,19.133 82.067,19.143 C82.053,19.132 82.04,19.122 82.026,19.113 C82.013,19.102 82,19.092 81.986,19.083 C81.972,19.074 81.959,19.062 81.945,19.053 C81.931,19.044 81.918,19.033 81.904,19.023" id="Shape" fill="#006185"></path>
                                    <path d="M82.067,19.145 C82.081,19.155 82.094,19.165 82.108,19.175 C82.122,19.185 82.135,19.195 82.149,19.205 C82.162,19.215 82.175,19.225 82.189,19.235 C82.203,19.245 82.216,19.256 82.23,19.265 C82.216,19.255 82.203,19.244 82.189,19.235 C82.175,19.224 82.162,19.214 82.149,19.205 C82.135,19.194 82.122,19.184 82.108,19.175 C82.095,19.164 82.081,19.154 82.067,19.145" id="Shape" fill="#006186"></path>
                                    <path d="M82.23,19.266 C82.244,19.276 82.257,19.287 82.27,19.296 C82.284,19.307 82.297,19.317 82.311,19.326 C82.325,19.337 82.338,19.347 82.351,19.357 C82.365,19.367 82.378,19.377 82.392,19.387 C82.378,19.376 82.365,19.366 82.351,19.357 C82.338,19.346 82.325,19.336 82.311,19.326 C82.297,19.316 82.284,19.306 82.27,19.296 C82.258,19.286 82.244,19.275 82.23,19.266" id="Shape" fill="#006186"></path>
                                    <path d="M82.393,19.388 C82.407,19.398 82.42,19.409 82.433,19.418 C82.447,19.428 82.46,19.439 82.474,19.448 C82.487,19.459 82.5,19.469 82.514,19.479 C82.528,19.489 82.541,19.5 82.554,19.509 C82.541,19.499 82.528,19.488 82.514,19.479 C82.5,19.468 82.487,19.458 82.474,19.448 C82.46,19.438 82.447,19.427 82.433,19.418 C82.42,19.408 82.406,19.397 82.393,19.388" id="Shape" fill="#006286"></path>
                                    <path d="M82.554,19.51 C82.568,19.52 82.581,19.531 82.594,19.54 C82.608,19.551 82.621,19.561 82.635,19.571 C82.648,19.581 82.661,19.592 82.675,19.601 C82.689,19.612 82.701,19.622 82.715,19.632 C82.701,19.621 82.689,19.611 82.675,19.601 C82.661,19.591 82.648,19.58 82.635,19.571 C82.621,19.56 82.608,19.55 82.594,19.54 C82.581,19.53 82.567,19.52 82.554,19.51" id="Shape" fill="#006287"></path>
                                    <path d="M82.715,19.633 C82.729,19.643 82.741,19.654 82.755,19.663 C82.769,19.674 82.781,19.684 82.795,19.694 C82.809,19.704 82.821,19.715 82.835,19.724 C82.849,19.735 82.861,19.745 82.875,19.755 C82.861,19.745 82.849,19.734 82.835,19.724 C82.821,19.714 82.809,19.703 82.795,19.694 C82.781,19.683 82.769,19.673 82.755,19.663 C82.741,19.653 82.729,19.643 82.715,19.633" id="Shape" fill="#006287"></path>
                                    <path d="M82.875,19.756 C82.889,19.767 82.901,19.777 82.915,19.787 C82.929,19.797 82.941,19.808 82.955,19.817 C82.969,19.828 82.981,19.838 82.995,19.848 C83.008,19.859 83.021,19.869 83.035,19.879 C83.021,19.868 83.008,19.858 82.995,19.848 C82.981,19.838 82.969,19.827 82.955,19.817 C82.941,19.807 82.929,19.796 82.915,19.787 C82.901,19.776 82.889,19.767 82.875,19.756" id="Shape" fill="#006388"></path>
                                    <path d="M83.035,19.88 C83.048,19.891 83.061,19.901 83.074,19.911 C83.088,19.921 83.1,19.932 83.114,19.941 C83.128,19.952 83.14,19.962 83.154,19.972 C83.167,19.983 83.18,19.993 83.193,20.003 C83.18,19.993 83.167,19.982 83.154,19.972 C83.14,19.962 83.128,19.951 83.114,19.941 C83.101,19.931 83.088,19.92 83.074,19.911 C83.062,19.9 83.048,19.891 83.035,19.88" id="Shape" fill="#006388"></path>
                                    <path d="M83.193,20.004 C83.211,20.018 83.227,20.03 83.244,20.044 C83.261,20.057 83.277,20.07 83.294,20.083 C83.312,20.097 83.328,20.109 83.345,20.123 C83.362,20.137 83.378,20.149 83.395,20.163 C83.378,20.149 83.362,20.137 83.345,20.123 C83.328,20.109 83.312,20.097 83.294,20.083 C83.277,20.07 83.261,20.057 83.244,20.044 C83.228,20.03 83.211,20.018 83.193,20.004" id="Shape" fill="#006388"></path>
                                    <path d="M83.395,20.163 C83.401,20.168 83.408,20.173 83.414,20.178 C83.421,20.183 83.427,20.188 83.433,20.193 C83.44,20.198 83.446,20.203 83.452,20.208 C83.459,20.213 83.465,20.218 83.471,20.223 C83.465,20.218 83.459,20.213 83.452,20.208 C83.446,20.203 83.44,20.198 83.433,20.193 C83.427,20.188 83.421,20.183 83.414,20.178 C83.407,20.173 83.4,20.168 83.395,20.163" id="Shape" fill="#006388"></path>
                                    <path d="M83.469,20.222 C83.476,20.227 83.482,20.232 83.488,20.237 C83.495,20.243 83.501,20.247 83.507,20.253 C83.514,20.258 83.52,20.263 83.526,20.268 C83.533,20.273 83.539,20.278 83.545,20.283 C83.539,20.278 83.533,20.273 83.526,20.268 C83.52,20.263 83.514,20.258 83.507,20.253 C83.501,20.247 83.495,20.243 83.488,20.237 C83.481,20.231 83.476,20.227 83.469,20.222" id="Shape" fill="#006388"></path>
                                    <path d="M83.543,20.281 C83.55,20.286 83.556,20.291 83.562,20.296 C83.569,20.301 83.575,20.306 83.581,20.311 C83.588,20.316 83.594,20.321 83.6,20.327 C83.607,20.332 83.613,20.337 83.619,20.342 C83.613,20.337 83.607,20.332 83.6,20.327 C83.594,20.321 83.588,20.316 83.581,20.311 C83.575,20.306 83.569,20.301 83.562,20.296 C83.556,20.291 83.55,20.286 83.543,20.281" id="Shape" fill="#006287"></path>
                                    <path d="M83.617,20.341 C83.623,20.346 83.63,20.351 83.636,20.356 C83.642,20.361 83.649,20.366 83.655,20.371 C83.661,20.376 83.668,20.381 83.674,20.386 C83.68,20.391 83.687,20.396 83.693,20.402 C83.687,20.396 83.68,20.391 83.674,20.386 C83.668,20.381 83.661,20.376 83.655,20.371 C83.649,20.366 83.642,20.361 83.636,20.356 C83.63,20.351 83.623,20.346 83.617,20.341" id="Shape" fill="#006287"></path>
                                    <path d="M83.691,20.4 C83.697,20.405 83.703,20.41 83.71,20.415 C83.716,20.42 83.722,20.425 83.729,20.43 C83.735,20.435 83.741,20.44 83.747,20.445 C83.754,20.45 83.76,20.456 83.766,20.461 C83.76,20.456 83.754,20.45 83.748,20.445 C83.741,20.44 83.735,20.435 83.729,20.43 C83.722,20.425 83.716,20.42 83.71,20.415 C83.703,20.41 83.697,20.405 83.691,20.4" id="Shape" fill="#006286"></path>
                                    <path d="M83.765,20.46 C83.772,20.465 83.778,20.47 83.784,20.475 C83.791,20.48 83.797,20.485 83.803,20.49 C83.809,20.495 83.816,20.5 83.822,20.505 C83.828,20.511 83.834,20.516 83.841,20.521 C83.834,20.516 83.828,20.511 83.822,20.505 C83.816,20.5 83.809,20.495 83.803,20.49 C83.797,20.485 83.791,20.48 83.784,20.475 C83.777,20.47 83.771,20.465 83.765,20.46" id="Shape" fill="#006186"></path>
                                    <path d="M83.839,20.52 C83.845,20.525 83.851,20.53 83.858,20.535 C83.864,20.54 83.87,20.545 83.876,20.55 C83.883,20.555 83.889,20.561 83.895,20.566 C83.902,20.571 83.908,20.576 83.914,20.581 C83.908,20.576 83.902,20.571 83.895,20.566 C83.889,20.561 83.883,20.555 83.876,20.55 C83.87,20.545 83.864,20.54 83.858,20.535 C83.851,20.529 83.845,20.524 83.839,20.52" id="Shape" fill="#006186"></path>
                                    <path d="M83.912,20.579 C83.918,20.584 83.925,20.589 83.931,20.594 C83.937,20.599 83.943,20.605 83.95,20.61 C83.956,20.615 83.962,20.62 83.968,20.625 C83.975,20.63 83.981,20.635 83.987,20.64 C83.981,20.635 83.975,20.63 83.968,20.625 C83.962,20.62 83.956,20.615 83.95,20.61 C83.943,20.605 83.937,20.599 83.931,20.594 C83.925,20.589 83.918,20.584 83.912,20.579" id="Shape" fill="#006185"></path>
                                    <path d="M83.985,20.639 C83.991,20.645 83.998,20.65 84.004,20.655 C84.01,20.66 84.016,20.665 84.023,20.67 C84.029,20.675 84.035,20.68 84.041,20.685 C84.048,20.691 84.054,20.696 84.06,20.701 C84.054,20.696 84.048,20.691 84.041,20.685 C84.035,20.68 84.029,20.675 84.023,20.67 C84.016,20.665 84.01,20.66 84.004,20.655 C83.998,20.65 83.991,20.645 83.985,20.639" id="Shape" fill="#006085"></path>
                                    <path d="M84.059,20.699 C84.065,20.704 84.072,20.709 84.078,20.714 C84.084,20.719 84.09,20.725 84.097,20.73 C84.103,20.735 84.109,20.74 84.115,20.745 C84.121,20.75 84.128,20.755 84.134,20.76 C84.128,20.755 84.121,20.75 84.115,20.745 C84.109,20.74 84.103,20.735 84.097,20.73 C84.09,20.725 84.084,20.719 84.078,20.714 C84.072,20.709 84.064,20.704 84.059,20.699" id="Shape" fill="#006084"></path>
                                    <path d="M84.132,20.759 C84.138,20.765 84.144,20.77 84.151,20.775 C84.157,20.78 84.163,20.785 84.169,20.79 C84.175,20.795 84.182,20.801 84.188,20.806 C84.194,20.811 84.2,20.816 84.207,20.821 C84.2,20.816 84.194,20.811 84.188,20.806 C84.182,20.801 84.175,20.795 84.169,20.79 C84.163,20.785 84.157,20.78 84.151,20.775 C84.144,20.77 84.138,20.765 84.132,20.759" id="Shape" fill="#006084"></path>
                                    <path d="M84.205,20.819 C84.211,20.824 84.217,20.83 84.223,20.835 C84.229,20.84 84.236,20.845 84.242,20.85 C84.248,20.855 84.254,20.86 84.26,20.866 C84.267,20.871 84.273,20.876 84.279,20.881 C84.273,20.876 84.267,20.871 84.26,20.866 C84.254,20.86 84.248,20.855 84.242,20.85 C84.236,20.845 84.229,20.84 84.223,20.835 C84.217,20.83 84.211,20.824 84.205,20.819" id="Shape" fill="#006083"></path>
                                    <path d="M84.277,20.88 C84.283,20.885 84.289,20.89 84.296,20.895 C84.302,20.901 84.308,20.906 84.314,20.911 C84.32,20.916 84.327,20.921 84.333,20.927 C84.339,20.932 84.345,20.937 84.351,20.942 C84.345,20.937 84.339,20.932 84.333,20.927 C84.327,20.921 84.32,20.916 84.314,20.911 C84.308,20.906 84.302,20.901 84.296,20.895 C84.289,20.89 84.283,20.885 84.277,20.88" id="Shape" fill="#005F83"></path>
                                    <path d="M84.35,20.94 C84.357,20.945 84.363,20.95 84.369,20.955 C84.375,20.961 84.381,20.966 84.388,20.971 C84.394,20.976 84.4,20.981 84.406,20.987 C84.412,20.992 84.418,20.997 84.425,21.002 C84.418,20.997 84.412,20.992 84.406,20.987 C84.4,20.981 84.394,20.976 84.388,20.971 C84.381,20.966 84.375,20.961 84.369,20.955 C84.362,20.95 84.356,20.945 84.35,20.94" id="Shape" fill="#005F83"></path>
                                    <path d="M84.423,21.001 C84.429,21.006 84.435,21.011 84.441,21.017 C84.447,21.022 84.453,21.027 84.46,21.032 C84.466,21.037 84.472,21.043 84.478,21.048 C84.484,21.053 84.49,21.058 84.497,21.063 C84.49,21.058 84.484,21.053 84.478,21.048 C84.472,21.043 84.466,21.037 84.46,21.032 C84.453,21.027 84.447,21.022 84.441,21.017 C84.435,21.011 84.429,21.006 84.423,21.001" id="Shape" fill="#005F82"></path>
                                    <path d="M84.495,21.062 C84.501,21.067 84.507,21.073 84.513,21.078 C84.519,21.083 84.525,21.088 84.532,21.093 C84.538,21.099 84.544,21.104 84.55,21.109 C84.556,21.114 84.562,21.119 84.568,21.125 C84.562,21.119 84.556,21.114 84.55,21.109 C84.544,21.104 84.538,21.099 84.532,21.093 C84.525,21.088 84.519,21.083 84.513,21.078 C84.507,21.073 84.501,21.066 84.495,21.062" id="Shape" fill="#005E82"></path>
                                    <path d="M84.566,21.123 C84.573,21.128 84.579,21.133 84.585,21.138 C84.591,21.143 84.597,21.149 84.603,21.154 C84.61,21.159 84.616,21.164 84.622,21.169 C84.628,21.175 84.634,21.18 84.64,21.185 C84.634,21.18 84.628,21.175 84.622,21.169 C84.616,21.164 84.61,21.159 84.603,21.154 C84.597,21.149 84.591,21.143 84.585,21.138 C84.579,21.133 84.573,21.128 84.566,21.123" id="Shape" fill="#005E81"></path>
                                    <path d="M84.639,21.184 C84.645,21.189 84.651,21.194 84.658,21.2 C84.664,21.205 84.67,21.21 84.676,21.215 C84.682,21.22 84.688,21.226 84.694,21.231 C84.701,21.236 84.707,21.241 84.713,21.247 C84.707,21.241 84.701,21.236 84.694,21.231 C84.688,21.226 84.682,21.22 84.676,21.215 C84.67,21.21 84.664,21.205 84.658,21.2 C84.65,21.193 84.645,21.188 84.639,21.184" id="Shape" fill="#005E81"></path>
                                    <path d="M84.711,21.245 C84.717,21.25 84.723,21.255 84.729,21.26 C84.735,21.266 84.741,21.271 84.747,21.276 C84.754,21.281 84.76,21.286 84.766,21.292 C84.772,21.297 84.778,21.302 84.784,21.307 C84.778,21.302 84.772,21.297 84.766,21.292 C84.76,21.286 84.754,21.281 84.747,21.276 C84.741,21.271 84.735,21.266 84.729,21.26 C84.723,21.255 84.717,21.25 84.711,21.245" id="Shape" fill="#005D81"></path>
                                    <path d="M84.782,21.306 C84.788,21.311 84.794,21.317 84.801,21.322 C84.807,21.327 84.813,21.332 84.819,21.338 C84.825,21.343 84.831,21.348 84.837,21.353 C84.843,21.359 84.849,21.364 84.855,21.369 C84.849,21.364 84.843,21.359 84.837,21.353 C84.831,21.348 84.825,21.343 84.819,21.338 C84.813,21.332 84.807,21.327 84.801,21.322 C84.794,21.316 84.788,21.311 84.782,21.306" id="Shape" fill="#005D80"></path>
                                    <path d="M84.854,21.367 C84.86,21.372 84.867,21.378 84.873,21.383 C84.879,21.388 84.885,21.393 84.891,21.399 C84.897,21.404 84.903,21.409 84.909,21.414 C84.915,21.42 84.921,21.425 84.928,21.43 C84.921,21.425 84.915,21.42 84.909,21.414 C84.903,21.409 84.897,21.404 84.891,21.399 C84.885,21.393 84.879,21.388 84.873,21.383 C84.867,21.378 84.859,21.372 84.854,21.367" id="Shape" fill="#005D80"></path>
                                    <path d="M84.926,21.429 C84.932,21.434 84.938,21.44 84.944,21.445 C84.95,21.45 84.956,21.455 84.962,21.461 C84.968,21.466 84.974,21.471 84.98,21.476 C84.986,21.482 84.992,21.487 84.998,21.492 C84.992,21.487 84.986,21.482 84.98,21.476 C84.974,21.471 84.968,21.466 84.962,21.461 C84.956,21.455 84.95,21.45 84.944,21.445 C84.938,21.44 84.932,21.434 84.926,21.429" id="Shape" fill="#005D7F"></path>
                                    <path d="M84.996,21.49 C85.002,21.495 85.009,21.501 85.015,21.506 C85.021,21.511 85.027,21.516 85.033,21.522 C85.039,21.527 85.045,21.532 85.051,21.537 C85.057,21.543 85.063,21.548 85.069,21.553 C85.063,21.548 85.057,21.543 85.051,21.537 C85.045,21.532 85.039,21.527 85.033,21.522 C85.027,21.516 85.021,21.511 85.015,21.506 C85.009,21.501 85.002,21.495 84.996,21.49" id="Shape" fill="#005C7F"></path>
                                    <path d="M85.067,21.552 C85.073,21.557 85.079,21.563 85.085,21.568 C85.091,21.573 85.098,21.579 85.104,21.584 C85.11,21.589 85.116,21.594 85.122,21.6 C85.128,21.605 85.134,21.61 85.14,21.616 C85.134,21.61 85.128,21.605 85.122,21.6 C85.116,21.594 85.11,21.589 85.104,21.584 C85.098,21.579 85.091,21.573 85.085,21.568 C85.079,21.563 85.073,21.557 85.067,21.552" id="Shape" fill="#005C7E"></path>
                                    <path d="M85.139,21.614 C85.145,21.619 85.151,21.624 85.157,21.629 C85.163,21.635 85.169,21.64 85.175,21.645 C85.181,21.651 85.187,21.656 85.193,21.661 C85.199,21.666 85.205,21.672 85.211,21.677 C85.205,21.672 85.199,21.666 85.193,21.661 C85.187,21.656 85.181,21.651 85.175,21.645 C85.169,21.64 85.163,21.635 85.157,21.629 C85.15,21.624 85.145,21.619 85.139,21.614" id="Shape" fill="#005C7E"></path>
                                    <path d="M85.209,21.676 C85.215,21.681 85.221,21.686 85.227,21.692 C85.233,21.697 85.239,21.702 85.245,21.708 C85.251,21.713 85.257,21.718 85.264,21.724 C85.27,21.729 85.276,21.734 85.282,21.74 C85.276,21.734 85.27,21.729 85.263,21.724 C85.257,21.718 85.251,21.713 85.245,21.708 C85.239,21.702 85.233,21.697 85.227,21.692 C85.221,21.686 85.215,21.681 85.209,21.676" id="Shape" fill="#005B7E"></path>
                                    <path d="M85.28,21.738 C85.286,21.743 85.292,21.748 85.298,21.753 C85.304,21.759 85.31,21.764 85.316,21.769 C85.322,21.775 85.328,21.78 85.334,21.785 C85.34,21.79 85.346,21.796 85.352,21.801 C85.346,21.796 85.34,21.79 85.334,21.785 C85.328,21.78 85.322,21.775 85.316,21.769 C85.31,21.764 85.304,21.759 85.298,21.753 C85.292,21.748 85.286,21.743 85.28,21.738" id="Shape" fill="#005B7D"></path>
                                    <path d="M85.351,21.8 C85.357,21.805 85.363,21.811 85.369,21.816 C85.375,21.821 85.381,21.827 85.387,21.832 C85.393,21.837 85.399,21.843 85.405,21.848 C85.411,21.853 85.417,21.859 85.423,21.864 C85.417,21.859 85.411,21.853 85.405,21.848 C85.399,21.843 85.393,21.837 85.387,21.832 C85.381,21.827 85.375,21.821 85.369,21.816 C85.363,21.811 85.356,21.805 85.351,21.8" id="Shape" fill="#005B7D"></path>
                                    <path d="M85.421,21.862 C85.427,21.867 85.433,21.873 85.439,21.878 C85.445,21.883 85.451,21.889 85.457,21.894 C85.463,21.899 85.469,21.905 85.475,21.91 C85.481,21.915 85.487,21.921 85.492,21.926 C85.487,21.921 85.481,21.915 85.475,21.91 C85.469,21.905 85.463,21.899 85.457,21.894 C85.451,21.889 85.445,21.883 85.439,21.878 C85.433,21.873 85.427,21.867 85.421,21.862" id="Shape" fill="#005A7C"></path>
                                    <path d="M85.491,21.925 C85.496,21.93 85.502,21.936 85.508,21.941 C85.514,21.946 85.52,21.952 85.526,21.957 C85.532,21.962 85.538,21.968 85.544,21.973 C85.55,21.978 85.556,21.984 85.562,21.989 C85.556,21.984 85.55,21.978 85.544,21.973 C85.538,21.968 85.532,21.962 85.526,21.957 C85.52,21.952 85.514,21.946 85.508,21.941 C85.502,21.936 85.496,21.93 85.491,21.925" id="Shape" fill="#005A7C"></path>
                                    <path d="M85.561,21.987 C85.567,21.992 85.573,21.998 85.579,22.003 C85.585,22.008 85.591,22.014 85.597,22.019 C85.603,22.024 85.609,22.03 85.615,22.035 C85.621,22.04 85.627,22.046 85.633,22.051 C85.627,22.046 85.621,22.04 85.615,22.035 C85.609,22.03 85.603,22.024 85.597,22.019 C85.591,22.014 85.585,22.008 85.579,22.003 C85.573,21.998 85.566,21.992 85.561,21.987" id="Shape" fill="#005A7C"></path>
                                    <path d="M85.631,22.05 C85.637,22.055 85.643,22.061 85.649,22.066 C85.654,22.071 85.66,22.077 85.666,22.082 C85.672,22.087 85.678,22.093 85.684,22.098 C85.69,22.103 85.696,22.109 85.702,22.114 C85.696,22.109 85.69,22.103 85.684,22.098 C85.678,22.093 85.672,22.087 85.666,22.082 C85.66,22.077 85.655,22.071 85.649,22.066 C85.643,22.061 85.637,22.055 85.631,22.05" id="Shape" fill="#005A7B"></path>
                                    <path d="M85.7,22.112 C85.706,22.118 85.712,22.123 85.718,22.128 C85.724,22.134 85.73,22.139 85.736,22.144 C85.741,22.15 85.747,22.155 85.753,22.161 C85.759,22.166 85.765,22.171 85.771,22.177 C85.765,22.171 85.759,22.166 85.753,22.161 C85.747,22.155 85.742,22.15 85.736,22.144 C85.73,22.139 85.724,22.134 85.718,22.128 C85.712,22.123 85.706,22.118 85.7,22.112" id="Shape" fill="#00597B"></path>
                                    <path d="M85.77,22.176 C85.776,22.181 85.782,22.186 85.788,22.192 C85.794,22.197 85.8,22.202 85.806,22.208 C85.812,22.213 85.818,22.219 85.823,22.224 C85.829,22.229 85.835,22.235 85.841,22.24 C85.835,22.235 85.829,22.229 85.823,22.224 C85.818,22.219 85.812,22.213 85.806,22.208 C85.8,22.202 85.794,22.197 85.788,22.192 C85.781,22.186 85.775,22.181 85.77,22.176" id="Shape" fill="#00597A"></path>
                                    <path d="M85.839,22.238 C85.845,22.244 85.851,22.249 85.857,22.254 C85.863,22.26 85.869,22.265 85.875,22.27 C85.88,22.276 85.886,22.281 85.892,22.287 C85.898,22.292 85.904,22.297 85.91,22.303 C85.904,22.297 85.898,22.292 85.892,22.287 C85.886,22.281 85.88,22.276 85.875,22.27 C85.869,22.265 85.863,22.26 85.857,22.254 C85.851,22.249 85.845,22.244 85.839,22.238" id="Shape" fill="#00597A"></path>
                                    <path d="M85.908,22.302 C85.914,22.307 85.92,22.313 85.926,22.318 C85.932,22.323 85.937,22.329 85.943,22.334 C85.949,22.34 85.955,22.345 85.961,22.35 C85.967,22.356 85.973,22.361 85.979,22.367 C85.973,22.361 85.967,22.356 85.961,22.35 C85.955,22.345 85.949,22.34 85.943,22.334 C85.938,22.329 85.932,22.323 85.926,22.318 C85.92,22.313 85.914,22.307 85.908,22.302" id="Shape" fill="#005879"></path>
                                    <path d="M85.978,22.365 C85.984,22.37 85.989,22.375 85.995,22.381 C86.001,22.386 86.007,22.392 86.013,22.397 C86.019,22.402 86.025,22.408 86.031,22.413 C86.036,22.419 86.042,22.424 86.048,22.429 C86.042,22.424 86.036,22.419 86.031,22.413 C86.025,22.408 86.019,22.402 86.013,22.397 C86.007,22.392 86.001,22.386 85.995,22.381 C85.988,22.375 85.983,22.37 85.978,22.365" id="Shape" fill="#005879"></path>
                                    <path d="M86.046,22.428 C86.052,22.434 86.058,22.439 86.064,22.445 C86.07,22.45 86.075,22.456 86.081,22.461 C86.087,22.466 86.093,22.472 86.099,22.477 C86.105,22.483 86.111,22.488 86.117,22.493 C86.111,22.488 86.105,22.483 86.099,22.477 C86.093,22.472 86.087,22.466 86.081,22.461 C86.075,22.456 86.07,22.45 86.064,22.445 C86.058,22.438 86.052,22.434 86.046,22.428" id="Shape" fill="#005879"></path>
                                    <path d="M86.115,22.491 C86.12,22.497 86.126,22.502 86.132,22.508 C86.138,22.513 86.144,22.519 86.15,22.524 C86.155,22.529 86.161,22.535 86.167,22.54 C86.173,22.546 86.179,22.551 86.185,22.557 C86.179,22.551 86.173,22.546 86.167,22.54 C86.161,22.535 86.155,22.529 86.15,22.524 C86.144,22.519 86.138,22.513 86.132,22.508 C86.126,22.502 86.12,22.497 86.115,22.491" id="Shape" fill="#005778"></path>
                                    <path d="M86.184,22.556 C86.19,22.561 86.195,22.566 86.201,22.572 C86.207,22.577 86.213,22.583 86.219,22.588 C86.224,22.594 86.23,22.599 86.236,22.605 C86.242,22.61 86.248,22.615 86.254,22.621 C86.248,22.615 86.242,22.61 86.236,22.605 C86.23,22.599 86.224,22.594 86.219,22.588 C86.213,22.583 86.207,22.577 86.201,22.572 C86.194,22.565 86.189,22.561 86.184,22.556" id="Shape" fill="#005778"></path>
                                    <path d="M86.252,22.619 C86.258,22.624 86.263,22.63 86.269,22.635 C86.275,22.641 86.281,22.646 86.287,22.651 C86.292,22.657 86.298,22.662 86.304,22.668 C86.31,22.673 86.316,22.679 86.322,22.684 C86.316,22.679 86.31,22.673 86.304,22.668 C86.298,22.662 86.292,22.657 86.287,22.651 C86.281,22.646 86.275,22.641 86.269,22.635 C86.263,22.63 86.258,22.624 86.252,22.619" id="Shape" fill="#005777"></path>
                                </g>
                            </g>
                        </g>
                    </g>
                </g>
                <path d="M134.13,0.562 C146.056,-0.108 157.754,-0.005 168.975,0.759 C180.409,1.538 191.728,3.028 202.553,5.177 C213.941,7.437 225.143,10.498 235.609,14.356 C246.989,18.551 257.875,23.827 267.431,30.259 C278.228,37.527 286.531,45.723 291.91,54.564 C298.092,64.725 300.431,75.768 298.107,87.018 C295.423,99.999 286.586,113.016 270.817,124.545 C253.061,137.526 227.528,147.909 195.365,153.313 C161.645,158.979 127.235,158.095 96.256,151.75 C66.873,145.731 43.076,135.298 26.494,122.365 C11.776,110.887 3.472,97.99 1.408,84.939 C-0.377,73.656 2.546,62.479 9.73,51.98 C15.938,42.906 24.862,35.055 35.205,28.502 C44.448,22.646 55.051,17.679 66.28,13.667 C76.636,9.967 87.802,6.978 99.351,4.778 C110.339,2.685 122.004,1.243 134.13,0.562 Z M191.312,143.203 C220.749,138.484 244.424,129.362 261.245,117.854 C276.325,107.537 285.178,95.778 288.369,83.932 C291.161,73.569 289.569,63.307 284.28,53.786 C279.643,45.438 272.158,37.649 262.197,30.699 C253.332,24.513 243.1,19.415 232.315,15.348 C222.364,11.595 211.652,8.609 200.718,6.399 C190.306,4.295 179.39,2.833 168.346,2.068 C157.499,1.318 146.187,1.216 134.657,1.875 C122.941,2.545 111.688,3.959 101.114,6.01 C90.02,8.161 79.339,11.078 69.484,14.68 C58.832,18.574 48.853,23.375 40.254,29.013 C30.679,35.29 22.568,42.769 17.145,51.354 C10.918,61.209 8.784,71.614 11.074,82.024 C13.698,93.952 22.062,105.62 36.188,115.908 C51.955,127.39 74.079,136.573 101.026,141.838 C129.303,147.363 160.579,148.13 191.312,143.203 Z" id="Shape" fill="#00ADEE" fill-rule="nonzero"></path>
            </g>
            <g id="YELLOWBOX" transform="translate(52.000000, 0.000000)">
                <polygon id="Shape" fill="#FFD004" fill-rule="nonzero" points="26.031 85.356 33.73 162.341 81.993 214.453 81.993 129.178"></polygon>
                <path d="M83.77,129.178 L120.782,116.15 C120.782,116.15 123.448,126.515 131.146,124.441 C131.146,124.441 141.213,123.848 144.766,108.156 L176.152,97.2 L165.79,177.441 L83.77,214.454 L83.77,129.178 Z" id="Shape" fill="#FFD004" fill-rule="nonzero"></path>
                <polygon id="Shape" fill="#404C51" fill-rule="nonzero" points="28.4 83.283 83.03 126.957 110.419 116.89 110.419 60.781"></polygon>
                <path d="M112.195,116.076 L112.195,60.781 L174.671,94.831 L143.433,106.675 C143.433,106.675 139.733,122.868 129.37,122.813 C129.37,122.813 124.039,122.96 121.968,113.19 L112.195,116.076 Z" id="Shape" fill="#404C51" fill-rule="nonzero"></path>
                <g id="Group" transform="translate(38.000000, 116.000000)">
                    <g transform="translate(11.000000, 22.000000)" fill-rule="nonzero" id="Shape">
                        <path d="M0.988,8.878 C0.997,8.969 1.008,9.06 1.019,9.15 C1.031,9.24 1.043,9.331 1.056,9.421 C1.069,9.511 1.083,9.602 1.098,9.692 C1.113,9.782 1.129,9.872 1.145,9.962 L1.148,9.959 C1.131,9.869 1.116,9.779 1.101,9.689 C1.086,9.599 1.072,9.509 1.059,9.42 C1.046,9.33 1.034,9.24 1.023,9.15 C1.012,9.061 1.002,8.971 0.993,8.881 L0.988,8.878 Z" fill="#FFD100"></path>
                        <path d="M1.143,5.404 C1.16,5.335 1.177,5.265 1.196,5.199 C1.215,5.132 1.234,5.066 1.255,5.003 C1.275,4.939 1.296,4.876 1.318,4.815 C1.34,4.753 1.362,4.695 1.386,4.636 L1.388,4.643 C1.365,4.702 1.342,4.761 1.32,4.822 C1.299,4.883 1.278,4.945 1.258,5.009 C1.238,5.073 1.219,5.138 1.201,5.204 C1.183,5.271 1.166,5.34 1.149,5.409 L1.143,5.404 Z" fill="#FFD100"></path>
                        <path d="M2.322,13.497 C2.422,13.687 2.527,13.871 2.634,14.046 C2.742,14.222 2.853,14.388 2.968,14.544 C3.082,14.701 3.2,14.848 3.322,14.982 C3.444,15.118 3.568,15.242 3.696,15.353 C3.568,15.242 3.443,15.118 3.321,14.983 C3.199,14.847 3.081,14.702 2.966,14.545 C2.851,14.389 2.74,14.223 2.633,14.048 C2.524,13.872 2.421,13.688 2.322,13.497 Z" fill="#FFD100"></path>
                        <path d="M4.279,3.656 C4.148,3.552 4.018,3.467 3.89,3.395 C3.763,3.325 3.637,3.271 3.513,3.232 C3.389,3.193 3.269,3.17 3.151,3.162 C3.033,3.154 2.918,3.161 2.806,3.183 L2.81,3.196 C2.922,3.175 3.038,3.167 3.155,3.174 C3.273,3.181 3.394,3.203 3.516,3.24 C3.639,3.277 3.764,3.33 3.891,3.399 C4.018,3.468 4.148,3.554 4.279,3.656 Z" fill="#FFD100"></path>
                        <path d="M4.142,6.496 C4.37,6.681 4.583,6.943 4.773,7.261 C4.963,7.579 5.13,7.952 5.266,8.356 C5.402,8.76 5.506,9.194 5.57,9.634 C5.634,10.074 5.659,10.52 5.636,10.947 C5.613,11.371 5.545,11.736 5.442,12.033 C5.339,12.329 5.201,12.556 5.037,12.707 C4.874,12.856 4.685,12.929 4.482,12.916 C4.279,12.903 4.06,12.806 3.835,12.614 C3.612,12.425 3.404,12.16 3.219,11.843 C3.034,11.528 2.872,11.16 2.741,10.765 C2.609,10.37 2.508,9.947 2.444,9.518 C2.381,9.089 2.354,8.655 2.374,8.237 C2.394,7.817 2.457,7.453 2.556,7.155 C2.655,6.855 2.788,6.622 2.948,6.464 C3.108,6.305 3.293,6.222 3.495,6.224 C3.696,6.226 3.915,6.313 4.142,6.496 Z M3.874,11.845 C4.042,11.988 4.206,12.06 4.357,12.069 C4.509,12.078 4.65,12.023 4.772,11.911 C4.894,11.799 4.997,11.629 5.074,11.408 C5.151,11.187 5.201,10.916 5.218,10.6 C5.235,10.282 5.216,9.95 5.168,9.621 C5.12,9.294 5.042,8.971 4.941,8.67 C4.84,8.369 4.715,8.092 4.574,7.855 C4.433,7.618 4.274,7.421 4.104,7.283 C3.936,7.146 3.772,7.08 3.621,7.077 C3.47,7.074 3.331,7.135 3.211,7.252 C3.091,7.369 2.991,7.543 2.917,7.766 C2.843,7.988 2.794,8.259 2.78,8.574 C2.765,8.886 2.784,9.212 2.833,9.532 C2.881,9.853 2.958,10.17 3.057,10.466 C3.156,10.762 3.278,11.036 3.416,11.273 C3.554,11.51 3.707,11.704 3.874,11.845 Z" fill="#CFD7D8"></path>
                        <path d="M6.355,11.544 C6.321,12.152 6.223,12.674 6.073,13.097 C5.924,13.518 5.724,13.84 5.489,14.051 C5.255,14.262 4.984,14.362 4.693,14.34 C4.402,14.319 4.09,14.176 3.771,13.901 C4.09,14.175 4.401,14.317 4.691,14.339 C4.983,14.36 5.252,14.259 5.486,14.048 C5.721,13.837 5.921,13.515 6.069,13.093 C6.218,12.671 6.317,12.15 6.35,11.541 C6.384,10.931 6.348,10.292 6.256,9.661 C6.163,9.029 6.013,8.407 5.818,7.828 C5.623,7.25 5.382,6.716 5.109,6.262 C4.837,5.808 4.531,5.434 4.205,5.172 C4.532,5.434 4.837,5.808 5.111,6.262 C5.385,6.717 5.626,7.251 5.821,7.829 C6.017,8.409 6.167,9.031 6.26,9.663 C6.353,10.295 6.388,10.933 6.355,11.544 Z" fill="#FFD100"></path>
                        <path d="M5.16,15.953 C5.311,15.94 5.457,15.903 5.597,15.841 C5.737,15.779 5.87,15.691 5.996,15.58 C6.122,15.469 6.241,15.335 6.351,15.177 C6.461,15.02 6.562,14.839 6.654,14.637 L10.773,26.88 C10.712,26.944 10.651,27.008 10.59,27.068 C10.529,27.128 10.466,27.188 10.403,27.245 C10.34,27.302 10.277,27.356 10.213,27.409 C10.149,27.462 10.084,27.513 10.019,27.561 C9.954,27.611 9.887,27.659 9.821,27.705 C9.754,27.75 9.687,27.793 9.619,27.833 C9.551,27.874 9.483,27.912 9.414,27.948 C9.345,27.984 9.276,28.017 9.206,28.05 L5.16,15.953 Z" fill="#FFD100"></path>
                        <path d="M13.888,15.836 C13.886,15.996 13.883,16.156 13.879,16.315 C13.875,16.474 13.87,16.633 13.863,16.792 C13.856,16.951 13.849,17.108 13.841,17.266 C13.832,17.423 13.822,17.58 13.811,17.737 C13.8,17.892 13.788,18.047 13.775,18.199 C13.762,18.351 13.748,18.502 13.733,18.651 C13.718,18.8 13.701,18.948 13.684,19.094 C13.667,19.24 13.648,19.384 13.629,19.528 L6.921,13.877 C6.953,13.757 6.983,13.633 7.009,13.504 C7.035,13.375 7.06,13.242 7.081,13.104 C7.102,12.966 7.12,12.824 7.135,12.677 C7.15,12.53 7.162,12.378 7.171,12.223 C7.18,12.067 7.186,11.909 7.188,11.75 C7.19,11.591 7.189,11.431 7.185,11.27 C7.181,11.11 7.173,10.948 7.163,10.787 C7.152,10.625 7.139,10.462 7.122,10.3 L13.888,15.836 Z" fill="#FFD100"></path>
                        <path d="M6.958,9.163 C6.896,8.827 6.822,8.495 6.737,8.169 C6.653,7.843 6.557,7.523 6.452,7.214 C6.347,6.905 6.233,6.605 6.11,6.318 C5.987,6.031 5.856,5.756 5.716,5.497 L10.928,0.414 C11.052,0.717 11.172,1.024 11.289,1.335 C11.407,1.647 11.52,1.962 11.631,2.282 C11.741,2.601 11.849,2.924 11.952,3.25 C12.056,3.577 12.156,3.906 12.252,4.238 L6.958,9.163 Z" fill="#FFD100"></path>
                    </g>
                    <g>
                        <g id="Clipped" transform="translate(0.000000, 19.000000)">
                            <mask id="mask-4" fill="white">
                                <use xlink:href="#path-3"></use>
                            </mask>
                            <g id="SVGID_3_"></g>
                            <path d="M1.509,4.798 C1.5,4.776 1.45,4.654 1.38,4.451 C1.311,4.248 1.222,3.963 1.136,3.613 C1.05,3.263 0.967,2.849 0.908,2.387 C0.849,1.925 0.815,1.414 0.827,0.871 C0.815,1.414 0.849,1.925 0.908,2.387 C0.967,2.849 1.05,3.263 1.136,3.613 C1.221,3.963 1.31,4.248 1.38,4.451 C1.45,4.654 1.5,4.776 1.509,4.798" id="Shape" fill="#21282A" fill-rule="nonzero" mask="url(#mask-4)"></path>
                        </g>
                        <g id="Clipped" transform="translate(3.000000, 26.000000)">
                            <mask id="mask-6" fill="white">
                                <use xlink:href="#path-5"></use>
                            </mask>
                            <g id="SVGID_5_"></g>
                            <path d="M2.015,9.642 C1.837,8.888 1.673,8.126 1.525,7.36 C1.378,6.593 1.245,5.821 1.129,5.047 C1.013,4.272 0.913,3.493 0.83,2.713 C0.747,1.933 0.68,1.151 0.631,0.369 C0.68,1.15 0.746,1.932 0.83,2.713 C0.913,3.493 1.013,4.272 1.129,5.047 C1.245,5.821 1.378,6.594 1.525,7.36 C1.673,8.126 1.837,8.888 2.015,9.642" id="Shape" fill="#21282A" fill-rule="nonzero" mask="url(#mask-6)"></path>
                        </g>
                        <g id="Clipped" transform="translate(8.000000, 37.000000)">
                            <mask id="mask-8" fill="white">
                                <use xlink:href="#path-7"></use>
                            </mask>
                            <g id="SVGID_7_"></g>
                            <path d="M0.291,0.954 C0.338,1.098 0.385,1.241 0.434,1.383 C0.482,1.525 0.531,1.665 0.58,1.805 C0.629,1.945 0.679,2.083 0.729,2.221 C0.779,2.36 0.83,2.496 0.882,2.632 C0.83,2.496 0.779,2.36 0.729,2.221 C0.679,2.083 0.629,1.945 0.58,1.805 C0.531,1.665 0.482,1.525 0.434,1.383 C0.385,1.241 0.337,1.098 0.291,0.954" id="Shape" fill="#21282A" fill-rule="nonzero" mask="url(#mask-8)"></path>
                        </g>
                        <g id="Clipped" transform="translate(7.000000, 44.000000)">
                            <mask id="mask-10" fill="white">
                                <use xlink:href="#path-9"></use>
                            </mask>
                            <g id="SVGID_9_"></g>
                            <path d="M4.691,7.176 C4.315,6.665 3.948,6.128 3.592,5.567 C3.238,5.009 2.894,4.427 2.561,3.825 C2.229,3.224 1.909,2.603 1.601,1.964 C1.293,1.327 0.997,0.672 0.714,0.001 C0.997,0.672 1.293,1.327 1.601,1.964 C1.909,2.604 2.229,3.225 2.561,3.825 C2.894,4.428 3.237,5.01 3.592,5.567 C3.948,6.128 4.315,6.665 4.691,7.176" id="Shape" fill="#21282A" fill-rule="nonzero" mask="url(#mask-10)"></path>
                        </g>
                        <g id="Clipped" transform="translate(6.000000, 22.000000)">
                            <mask id="mask-12" fill="white">
                                <use xlink:href="#path-11"></use>
                            </mask>
                            <g id="SVGID_11_"></g>
                            <path d="M0.378,0.687 C0.366,0.821 0.356,0.957 0.346,1.093 C0.336,1.229 0.327,1.366 0.319,1.505 C0.311,1.643 0.304,1.782 0.298,1.923 C0.291,2.064 0.286,2.205 0.281,2.348 C0.286,2.205 0.291,2.064 0.298,1.923 C0.304,1.782 0.312,1.643 0.319,1.505 C0.327,1.366 0.337,1.23 0.346,1.093 C0.355,0.956 0.366,0.821 0.378,0.687" id="Shape" fill="#21282A" fill-rule="nonzero" mask="url(#mask-12)"></path>
                        </g>
                        <path d="M31.556,41.132 C31.569,41.162 31.639,41.327 31.733,41.599 C31.827,41.871 31.946,42.247 32.056,42.7 C32.167,43.153 32.269,43.681 32.33,44.254 C32.391,44.827 32.411,45.442 32.357,46.069 C32.303,46.702 32.188,47.196 32.045,47.583 C31.903,47.968 31.733,48.244 31.569,48.442 C31.405,48.639 31.247,48.758 31.125,48.83 C31.004,48.901 30.919,48.925 30.904,48.929 L27.803,47.162 C27.648,47.892 27.47,48.584 27.271,49.236 C27.073,49.885 26.855,50.495 26.619,51.064 C26.383,51.63 26.129,52.156 25.859,52.641 C25.59,53.123 25.304,53.565 25.004,53.964 L26.395,59.452 C26.395,59.481 26.395,59.64 26.376,59.871 C26.358,60.103 26.322,60.408 26.252,60.73 C26.182,61.051 26.078,61.39 25.923,61.69 C25.769,61.989 25.564,62.248 25.293,62.413 C25.102,62.528 24.908,62.577 24.719,62.578 C24.53,62.58 24.345,62.534 24.172,62.463 C23.999,62.391 23.837,62.293 23.693,62.188 C23.548,62.083 23.422,61.969 23.319,61.87 C23.275,61.827 23.236,61.786 23.201,61.75 C23.166,61.714 23.137,61.681 23.114,61.653 C23.09,61.626 23.072,61.604 23.058,61.588 C23.045,61.572 23.038,61.564 23.037,61.562 L20.988,56.705 C20.608,56.775 20.22,56.805 19.825,56.792 C19.432,56.78 19.034,56.727 18.63,56.632 C18.229,56.537 17.821,56.402 17.41,56.224 C17.001,56.047 16.589,55.828 16.173,55.569 L15.521,59.556 C15.512,59.567 15.463,59.631 15.376,59.701 C15.289,59.771 15.164,59.847 15.002,59.883 C14.841,59.919 14.645,59.916 14.415,59.828 C14.186,59.74 13.923,59.569 13.629,59.269 C13.339,58.973 13.087,58.621 12.872,58.255 C12.657,57.892 12.477,57.516 12.334,57.173 C12.19,56.831 12.081,56.523 12.006,56.292 C11.931,56.063 11.89,55.91 11.883,55.883 L11.69,51.178 C11.314,50.667 10.947,50.13 10.591,49.569 C10.237,49.011 9.893,48.429 9.56,47.827 C9.228,47.226 8.908,46.605 8.6,45.966 C8.292,45.329 7.996,44.674 7.713,44.003 L5.799,44.758 C5.798,44.757 5.792,44.754 5.781,44.746 C5.77,44.738 5.756,44.727 5.736,44.712 C5.716,44.697 5.693,44.678 5.665,44.653 C5.638,44.629 5.606,44.6 5.571,44.566 C5.489,44.487 5.391,44.379 5.28,44.241 C5.17,44.102 5.048,43.93 4.921,43.721 C4.795,43.513 4.663,43.266 4.532,42.977 C4.402,42.689 4.272,42.357 4.15,41.978 C3.978,41.441 3.86,40.931 3.779,40.466 C3.698,40.001 3.654,39.581 3.632,39.226 C3.61,38.87 3.61,38.578 3.615,38.369 C3.62,38.159 3.632,38.033 3.635,38.011 L5.013,35.645 C4.835,34.891 4.671,34.129 4.523,33.363 C4.376,32.596 4.243,31.824 4.127,31.05 C4.011,30.275 3.911,29.496 3.828,28.716 C3.745,27.936 3.678,27.154 3.629,26.372 L1.506,23.802 C1.497,23.78 1.447,23.658 1.377,23.455 C1.308,23.252 1.219,22.967 1.133,22.617 C1.047,22.267 0.964,21.853 0.905,21.391 C0.846,20.929 0.812,20.418 0.824,19.875 C0.836,19.337 0.891,18.895 0.969,18.532 C1.047,18.169 1.146,17.887 1.246,17.671 C1.346,17.455 1.445,17.305 1.523,17.207 C1.601,17.109 1.655,17.063 1.665,17.055 L3.86,18.046 C3.951,17.356 4.06,16.689 4.186,16.049 C4.312,15.406 4.456,14.79 4.616,14.2 C4.777,13.608 4.954,13.044 5.147,12.51 C5.341,11.973 5.552,11.465 5.777,10.989 L4.544,6.055 C4.543,6.027 4.535,5.876 4.537,5.646 C4.539,5.416 4.552,5.108 4.591,4.769 C4.63,4.429 4.695,4.056 4.804,3.697 C4.913,3.337 5.065,2.99 5.277,2.703 C5.437,2.488 5.606,2.349 5.773,2.265 C5.941,2.181 6.108,2.152 6.266,2.157 C6.424,2.162 6.573,2.201 6.703,2.254 C6.833,2.306 6.945,2.372 7.029,2.429 C7.056,2.447 7.079,2.464 7.1,2.479 C7.121,2.494 7.138,2.508 7.152,2.52 C7.166,2.532 7.177,2.541 7.185,2.548 C7.192,2.554 7.197,2.559 7.198,2.559 L9.084,6.853 C9.423,6.632 9.775,6.45 10.138,6.308 C10.504,6.165 10.881,6.062 11.268,6.003 C11.658,5.943 12.058,5.926 12.468,5.955 C12.881,5.984 13.302,6.058 13.732,6.18 L14.408,1.238 C14.419,1.22 14.476,1.122 14.577,0.999 C14.678,0.874 14.823,0.724 15.007,0.601 C15.192,0.477 15.416,0.381 15.677,0.366 C15.939,0.351 16.237,0.419 16.567,0.624 C16.902,0.833 17.192,1.131 17.436,1.463 C17.681,1.796 17.882,2.162 18.041,2.506 C18.2,2.85 18.318,3.172 18.398,3.415 C18.478,3.658 18.52,3.823 18.527,3.853 L18.698,9.509 C19.142,9.98 19.578,10.49 20.004,11.038 C20.432,11.588 20.85,12.176 21.256,12.797 C21.665,13.421 22.061,14.079 22.445,14.768 C22.83,15.459 23.203,16.181 23.561,16.93 L26.246,15.426 C26.247,15.426 26.252,15.429 26.263,15.434 C26.273,15.439 26.287,15.446 26.305,15.456 C26.323,15.466 26.346,15.479 26.373,15.496 C26.399,15.512 26.43,15.532 26.464,15.555 C26.572,15.628 26.714,15.736 26.879,15.887 C27.044,16.038 27.23,16.234 27.424,16.482 C27.618,16.73 27.823,17.033 28.022,17.397 C28.221,17.762 28.416,18.189 28.593,18.686 C28.829,19.353 28.982,19.985 29.078,20.561 C29.174,21.136 29.213,21.654 29.222,22.091 C29.23,22.528 29.209,22.883 29.183,23.137 C29.158,23.39 29.13,23.541 29.124,23.569 L26.977,26.692 C27.197,27.596 27.396,28.51 27.573,29.433 C27.75,30.355 27.904,31.284 28.034,32.214 C28.164,33.146 28.271,34.078 28.353,35.009 C28.435,35.938 28.491,36.864 28.521,37.784 L31.556,41.132 Z M24.629,41.527 C24.648,41.383 24.667,41.239 24.684,41.093 C24.702,40.947 24.718,40.799 24.733,40.65 C24.748,40.501 24.762,40.35 24.775,40.198 C24.788,40.046 24.8,39.891 24.811,39.736 C24.822,39.58 24.832,39.424 24.84,39.265 C24.849,39.108 24.856,38.951 24.862,38.791 C24.868,38.633 24.874,38.474 24.878,38.314 C24.882,38.154 24.885,37.995 24.887,37.835 C24.898,36.879 24.868,35.909 24.802,34.934 C24.735,33.956 24.63,32.975 24.49,31.996 C24.35,31.017 24.175,30.041 23.968,29.078 C23.761,28.115 23.522,27.166 23.253,26.238 C23.157,25.905 23.057,25.576 22.953,25.25 C22.849,24.924 22.742,24.601 22.632,24.281 C22.521,23.962 22.407,23.646 22.29,23.335 C22.172,23.023 22.052,22.716 21.928,22.413 C21.526,21.429 21.091,20.492 20.628,19.613 C20.166,18.738 19.677,17.923 19.164,17.178 C18.654,16.438 18.122,15.768 17.571,15.181 C17.024,14.598 16.46,14.096 15.883,13.686 C15.31,13.28 14.749,12.981 14.204,12.785 C13.662,12.59 13.137,12.494 12.631,12.493 C12.129,12.492 11.647,12.584 11.188,12.762 C10.733,12.939 10.301,13.2 9.896,13.542 C9.772,13.646 9.651,13.758 9.532,13.877 C9.414,13.996 9.298,14.122 9.185,14.254 C9.072,14.387 8.962,14.526 8.855,14.673 C8.748,14.82 8.644,14.972 8.542,15.132 C8.261,15.576 8.001,16.072 7.767,16.616 C7.533,17.158 7.324,17.747 7.141,18.382 C6.959,19.014 6.803,19.691 6.675,20.41 C6.548,21.126 6.448,21.885 6.379,22.683 C6.367,22.817 6.357,22.953 6.347,23.089 C6.337,23.225 6.328,23.362 6.32,23.501 C6.312,23.639 6.305,23.778 6.299,23.919 C6.292,24.06 6.287,24.201 6.282,24.344 C6.278,24.486 6.274,24.628 6.271,24.771 C6.268,24.913 6.266,25.055 6.265,25.198 C6.264,25.341 6.264,25.484 6.265,25.627 C6.266,25.77 6.267,25.913 6.27,26.057 C6.284,26.911 6.329,27.771 6.402,28.63 C6.475,29.488 6.577,30.348 6.705,31.202 C6.833,32.056 6.987,32.905 7.166,33.744 C7.345,34.583 7.548,35.413 7.774,36.228 C7.815,36.374 7.856,36.518 7.898,36.664 C7.94,36.809 7.982,36.952 8.025,37.096 C8.068,37.241 8.112,37.383 8.157,37.526 C8.202,37.669 8.247,37.811 8.293,37.953 C8.34,38.097 8.387,38.24 8.436,38.382 C8.484,38.524 8.533,38.664 8.582,38.804 C8.631,38.944 8.681,39.082 8.731,39.22 C8.781,39.359 8.832,39.495 8.884,39.631 C9.221,40.523 9.586,41.383 9.976,42.203 C10.368,43.026 10.786,43.81 11.226,44.545 C11.668,45.282 12.135,45.971 12.622,46.599 C13.112,47.231 13.623,47.803 14.153,48.303 C14.686,48.807 15.216,49.218 15.74,49.54 C16.267,49.863 16.787,50.096 17.296,50.24 C17.809,50.386 18.31,50.44 18.796,50.409 C19.285,50.377 19.757,50.256 20.209,50.049 C20.278,50.018 20.348,49.984 20.417,49.947 C20.486,49.91 20.554,49.874 20.622,49.834 C20.69,49.794 20.757,49.751 20.824,49.707 C20.891,49.663 20.957,49.616 21.023,49.568 C21.088,49.517 21.153,49.465 21.217,49.412 C21.281,49.358 21.345,49.303 21.408,49.245 C21.471,49.188 21.533,49.129 21.595,49.067 C21.657,49.006 21.718,48.944 21.778,48.879 C22.118,48.515 22.437,48.087 22.731,47.598 C23.027,47.107 23.298,46.553 23.541,45.94 C23.785,45.324 24.001,44.647 24.184,43.913 C24.363,43.175 24.514,42.379 24.629,41.527 Z" id="Shape" fill="#404C51" fill-rule="nonzero"></path>
                    </g>
                    <path d="M18.122,32.298 C18.139,32.46 18.152,32.623 18.163,32.785 C18.173,32.946 18.181,33.108 18.185,33.268 C18.189,33.429 18.19,33.589 18.188,33.748 C18.186,33.906 18.181,34.064 18.171,34.221 C18.162,34.376 18.15,34.528 18.135,34.675 C18.12,34.821 18.102,34.964 18.081,35.102 C18.06,35.241 18.036,35.373 18.009,35.502 C17.982,35.631 17.953,35.755 17.921,35.875 C17.902,35.945 17.883,36.014 17.862,36.08 C17.841,36.147 17.82,36.212 17.798,36.275 C17.776,36.338 17.752,36.401 17.728,36.461 C17.704,36.521 17.679,36.579 17.654,36.636 C17.563,36.838 17.461,37.019 17.351,37.176 C17.241,37.334 17.122,37.468 16.996,37.579 C16.87,37.689 16.737,37.777 16.597,37.84 C16.457,37.902 16.311,37.94 16.16,37.952 C16.047,37.962 15.931,37.957 15.812,37.936 C15.694,37.916 15.573,37.882 15.45,37.833 C15.327,37.783 15.203,37.719 15.078,37.639 C14.953,37.56 14.826,37.465 14.698,37.354 C14.57,37.242 14.445,37.118 14.323,36.982 C14.201,36.846 14.083,36.7 13.968,36.543 C13.854,36.387 13.742,36.22 13.635,36.044 C13.528,35.869 13.424,35.686 13.323,35.494 L8.881,39.631 C8.829,39.495 8.778,39.358 8.728,39.22 C8.678,39.082 8.628,38.945 8.579,38.805 C8.53,38.666 8.482,38.527 8.434,38.386 C8.387,38.246 8.34,38.106 8.293,37.964 C8.246,37.819 8.2,37.676 8.155,37.531 C8.11,37.386 8.066,37.243 8.022,37.098 C7.978,36.953 7.936,36.809 7.894,36.664 C7.852,36.518 7.811,36.374 7.77,36.228 L12.145,31.96 C12.129,31.869 12.114,31.779 12.1,31.689 C12.086,31.599 12.072,31.509 12.059,31.419 C12.046,31.329 12.035,31.239 12.023,31.149 C12.012,31.06 12.002,30.97 11.993,30.88 L6.265,26.055 C6.263,25.911 6.261,25.768 6.26,25.625 C6.26,25.481 6.26,25.339 6.26,25.196 C6.26,25.053 6.263,24.911 6.266,24.768 C6.269,24.626 6.273,24.484 6.277,24.342 C6.282,24.198 6.287,24.058 6.294,23.917 C6.301,23.776 6.308,23.637 6.316,23.499 C6.324,23.361 6.334,23.224 6.343,23.087 C6.353,22.951 6.364,22.816 6.375,22.682 L12.14,27.4 C12.158,27.332 12.176,27.263 12.195,27.198 C12.214,27.132 12.234,27.067 12.254,27.004 C12.275,26.942 12.296,26.879 12.317,26.818 C12.339,26.757 12.361,26.698 12.385,26.639 L8.539,15.129 C8.641,14.969 8.745,14.816 8.852,14.67 C8.959,14.524 9.069,14.383 9.182,14.251 C9.295,14.118 9.411,13.992 9.529,13.873 C9.648,13.754 9.769,13.643 9.893,13.538 L13.804,25.178 C13.917,25.159 14.033,25.155 14.152,25.163 C14.271,25.172 14.392,25.194 14.515,25.232 C14.638,25.27 14.764,25.324 14.891,25.394 C15.019,25.463 15.148,25.549 15.28,25.653 C15.412,25.757 15.541,25.876 15.668,26.007 C15.795,26.138 15.918,26.28 16.038,26.436 C16.159,26.59 16.275,26.757 16.389,26.933 C16.502,27.11 16.612,27.296 16.717,27.492 C16.856,27.752 16.988,28.026 17.111,28.313 C17.234,28.6 17.348,28.9 17.453,29.209 C17.558,29.518 17.653,29.838 17.738,30.164 C17.823,30.49 17.897,30.822 17.959,31.158 C17.977,31.252 17.993,31.346 18.008,31.44 C18.024,31.535 18.038,31.629 18.052,31.724 C18.066,31.819 18.078,31.913 18.09,32.008 C18.101,32.108 18.112,32.203 18.122,32.298 Z M14.769,35.898 C15.089,36.173 15.402,36.317 15.692,36.338 C15.984,36.36 16.254,36.26 16.489,36.05 C16.725,35.839 16.924,35.517 17.073,35.096 C17.222,34.673 17.321,34.152 17.355,33.543 C17.388,32.932 17.353,32.293 17.26,31.661 C17.167,31.029 17.017,30.407 16.822,29.827 C16.627,29.249 16.386,28.715 16.113,28.261 C15.84,27.807 15.535,27.433 15.208,27.171 C14.884,26.912 14.57,26.79 14.281,26.791 C13.993,26.791 13.728,26.912 13.501,27.141 C13.275,27.369 13.086,27.703 12.946,28.129 C12.807,28.555 12.717,29.072 12.691,29.669 C12.664,30.263 12.701,30.881 12.793,31.489 C12.884,32.098 13.028,32.7 13.215,33.26 C13.402,33.822 13.632,34.344 13.894,34.794 C14.156,35.247 14.451,35.626 14.769,35.898 Z" id="Shape" fill="#26A9E0" fill-rule="nonzero"></path>
                </g>
                <polygon id="Shape" fill="#404C51" fill-rule="nonzero" points="110.419 59.042 27.295 80.582 0.609 8.185 85.445 0.859"></polygon>
                <g id="Group" transform="translate(30.000000, 17.000000)">
                    <g transform="translate(0.000000, 32.000000)">
                        <path d="M3.856,0.681 C4.007,0.653 4.146,0.65 4.273,0.672 C4.4,0.694 4.516,0.741 4.62,0.815 C4.724,0.888 4.816,0.986 4.897,1.11 C4.978,1.234 5.046,1.383 5.104,1.559 L6.342,5.359 C6.394,5.52 6.421,5.664 6.422,5.792 C6.423,5.92 6.4,6.031 6.35,6.126 C6.301,6.222 6.226,6.3 6.126,6.363 C6.026,6.425 5.901,6.471 5.751,6.502 L2.635,7.12 C2.568,7.133 2.502,7.14 2.438,7.141 C2.374,7.142 2.312,7.136 2.25,7.124 C2.189,7.112 2.13,7.094 2.073,7.069 C2.016,7.044 1.961,7.013 1.908,6.976 C1.852,6.936 1.801,6.893 1.754,6.847 C1.707,6.8 1.664,6.749 1.625,6.694 C1.586,6.64 1.552,6.581 1.521,6.519 C1.49,6.457 1.464,6.391 1.441,6.321 L0.201,2.486 C0.144,2.309 0.112,2.151 0.106,2.012 C0.1,1.873 0.119,1.753 0.164,1.651 C0.209,1.549 0.279,1.466 0.375,1.402 C0.471,1.338 0.592,1.292 0.738,1.265 L3.856,0.681 Z" id="Shape" fill="#FFD004" fill-rule="nonzero"></path>
                        <g id="Clipped" transform="translate(3.000000, 0.000000)">
                            <mask id="mask-14" fill="white">
                                <use xlink:href="#path-13"></use>
                            </mask>
                            <g id="SVGID_13_"></g>
                            <path d="M0.856,0.681 C1.007,0.653 1.146,0.65 1.273,0.672 C1.4,0.694 1.516,0.741 1.62,0.815 C1.724,0.888 1.816,0.986 1.897,1.11 C1.978,1.234 2.046,1.383 2.104,1.559 C2.047,1.383 1.978,1.234 1.897,1.11 C1.816,0.986 1.724,0.888 1.62,0.815 C1.516,0.742 1.401,0.694 1.273,0.672 C1.146,0.649 1.007,0.652 0.856,0.681" id="Shape" fill="#856C02" fill-rule="nonzero" mask="url(#mask-14)"></path>
                        </g>
                        <g id="Clipped" transform="translate(6.000000, 5.000000)">
                            <mask id="mask-16" fill="white">
                                <use xlink:href="#path-15"></use>
                            </mask>
                            <g id="SVGID_15_"></g>
                            <path d="M0.341,0.359 C0.376,0.466 0.399,0.566 0.411,0.658 C0.423,0.75 0.424,0.836 0.414,0.914 C0.403,0.992 0.382,1.063 0.349,1.126 C0.316,1.189 0.272,1.246 0.217,1.294 C0.273,1.245 0.317,1.189 0.349,1.126 C0.382,1.063 0.404,0.992 0.414,0.914 C0.424,0.836 0.423,0.75 0.411,0.658 C0.399,0.565 0.375,0.466 0.341,0.359" id="Shape" fill="#856C02" fill-rule="nonzero" mask="url(#mask-16)"></path>
                        </g>
                    </g>
                    <path d="M26.116,3.65 L43.521,31.012 L38.797,31.949 L34.931,25.843 L27.086,27.298 L27.526,34.184 L22.483,35.184 L20.904,4.39 L26.116,3.65 Z M26.641,22.105 L32.198,21.128 L26.019,11.225 L26.641,22.105 Z" id="Shape" fill="#FFD004" fill-rule="nonzero"></path>
                    <g transform="translate(35.000000, 0.000000)">
                        <g id="Clipped" transform="translate(19.000000, 8.000000)">
                            <mask id="mask-18" fill="white">
                                <use xlink:href="#path-17"></use>
                            </mask>
                            <g id="SVGID_17_"></g>
                            <path d="M0.587,0.514 C0.896,1.391 1.144,2.201 1.329,2.943 C1.515,3.686 1.638,4.362 1.699,4.971 C1.76,5.58 1.758,6.122 1.694,6.597 C1.63,7.073 1.503,7.481 1.313,7.822 C1.503,7.481 1.63,7.073 1.694,6.597 C1.758,6.122 1.76,5.58 1.699,4.971 C1.638,4.362 1.515,3.686 1.329,2.943 C1.144,2.201 0.896,1.391 0.587,0.514" id="Shape" fill="#856C02" fill-rule="nonzero" mask="url(#mask-18)"></path>
                        </g>
                        <g id="Clipped" transform="translate(13.000000, 6.000000)">
                            <mask id="mask-20" fill="white">
                                <use xlink:href="#path-19"></use>
                            </mask>
                            <g id="SVGID_19_"></g>
                            <path d="M2.424,3.251 C2.29,2.87 2.156,2.52 2.021,2.202 C1.886,1.884 1.75,1.598 1.614,1.343 C1.478,1.088 1.341,0.866 1.203,0.676 C1.065,0.485 0.927,0.326 0.787,0.199 C0.927,0.325 1.065,0.485 1.203,0.676 C1.341,0.866 1.478,1.089 1.614,1.343 C1.75,1.597 1.886,1.884 2.021,2.202 C2.156,2.52 2.291,2.87 2.424,3.251" id="Shape" fill="#856C02" fill-rule="nonzero" mask="url(#mask-20)"></path>
                        </g>
                        <path d="M18.978,17.214 L26.922,27.364 L22.259,28.289 L14.913,18.374 L10.979,18.499 L14.883,29.751 L10.55,30.61 L0.781,2.279 L10.625,0.883 C11.109,0.815 11.574,0.788 12.021,0.805 C12.467,0.822 12.895,0.88 13.305,0.981 C13.714,1.083 14.106,1.226 14.481,1.412 C14.855,1.598 15.212,1.826 15.553,2.097 C15.961,2.415 16.351,2.788 16.723,3.214 C17.095,3.64 17.449,4.121 17.785,4.655 C18.121,5.189 18.439,5.778 18.74,6.421 C19.04,7.064 19.323,7.762 19.589,8.514 C19.898,9.391 20.146,10.201 20.331,10.943 C20.517,11.686 20.64,12.362 20.701,12.971 C20.762,13.58 20.76,14.122 20.696,14.597 C20.632,15.073 20.505,15.481 20.315,15.822 C20.254,15.932 20.196,16.032 20.141,16.123 C20.086,16.214 20.033,16.295 19.983,16.368 C19.933,16.441 19.885,16.503 19.839,16.556 C19.793,16.609 19.751,16.654 19.71,16.688 C19.668,16.721 19.622,16.756 19.571,16.794 C19.52,16.833 19.465,16.874 19.404,16.918 C19.343,16.962 19.278,17.009 19.208,17.058 C19.138,17.107 19.059,17.16 18.978,17.214 Z M16.002,12.389 C16.04,12.249 16.057,12.08 16.052,11.879 C16.047,11.678 16.02,11.447 15.972,11.186 C15.924,10.924 15.854,10.632 15.763,10.31 C15.672,9.988 15.558,9.635 15.424,9.251 C15.29,8.87 15.156,8.52 15.021,8.202 C14.886,7.884 14.75,7.598 14.614,7.343 C14.478,7.088 14.341,6.866 14.203,6.676 C14.065,6.485 13.927,6.326 13.787,6.199 C13.647,6.072 13.503,5.964 13.353,5.875 C13.203,5.786 13.048,5.716 12.888,5.666 C12.728,5.615 12.562,5.584 12.391,5.572 C12.22,5.56 12.044,5.568 11.862,5.596 L6.794,6.362 L9.538,14.271 L14.598,13.426 C14.794,13.393 14.97,13.347 15.126,13.287 C15.282,13.227 15.419,13.154 15.536,13.067 C15.653,12.98 15.75,12.88 15.828,12.767 C15.906,12.654 15.964,12.528 16.002,12.389 Z" id="Shape" fill="#FFD004" fill-rule="nonzero"></path>
                        <g id="Clipped" transform="translate(19.000000, 15.000000)">
                            <mask id="mask-22" fill="white">
                                <use xlink:href="#path-21"></use>
                            </mask>
                            <g id="SVGID_21_"></g>
                            <path d="M1.312,0.821 C1.251,0.931 1.193,1.031 1.138,1.122 C1.083,1.213 1.03,1.294 0.98,1.367 C0.93,1.44 0.882,1.502 0.836,1.555 C0.79,1.608 0.748,1.653 0.707,1.687 C0.748,1.652 0.791,1.608 0.836,1.555 C0.881,1.502 0.929,1.439 0.98,1.367 C1.031,1.295 1.083,1.213 1.138,1.122 C1.194,1.031 1.252,0.931 1.312,0.821" id="Shape" fill="#856C02" fill-rule="nonzero" mask="url(#mask-22)"></path>
                        </g>
                        <g id="Clipped" transform="translate(14.000000, 13.000000)">
                            <mask id="mask-24" fill="white">
                                <use xlink:href="#path-23"></use>
                            </mask>
                            <g id="SVGID_23_"></g>
                            <path d="M0.599,0.426 C0.619,0.423 0.638,0.419 0.657,0.416 C0.676,0.413 0.695,0.409 0.713,0.405 C0.731,0.401 0.75,0.397 0.768,0.393 C0.787,0.389 0.804,0.385 0.822,0.38 C0.804,0.384 0.786,0.389 0.768,0.393 C0.75,0.397 0.731,0.401 0.713,0.405 C0.695,0.409 0.676,0.412 0.657,0.416 C0.638,0.42 0.618,0.422 0.599,0.426" id="Shape" fill="#856C02" fill-rule="nonzero" mask="url(#mask-24)"></path>
                        </g>
                    </g>
                    <g transform="translate(5.000000, 5.000000)">
                        <g id="Clipped" transform="translate(12.000000, 23.000000)">
                            <mask id="mask-26" fill="white">
                                <use xlink:href="#path-25"></use>
                            </mask>
                            <g id="SVGID_25_"></g>
                            <path d="M0.567,0.935 C0.637,1.147 0.703,1.352 0.765,1.548 C0.827,1.744 0.884,1.934 0.936,2.116 C0.988,2.298 1.038,2.473 1.082,2.641 C1.126,2.809 1.166,2.97 1.203,3.125 C1.167,2.97 1.127,2.809 1.082,2.641 C1.038,2.473 0.989,2.298 0.936,2.116 C0.883,1.934 0.826,1.744 0.765,1.548 C0.704,1.352 0.637,1.146 0.567,0.935" id="Shape" fill="#856C02" fill-rule="nonzero" mask="url(#mask-26)"></path>
                        </g>
                        <g id="Clipped" transform="translate(12.000000, 30.000000)">
                            <mask id="mask-28" fill="white">
                                <use xlink:href="#path-27"></use>
                            </mask>
                            <g id="SVGID_27_"></g>
                            <path d="M0.873,0.156 C0.863,0.171 0.853,0.186 0.843,0.201 C0.833,0.216 0.823,0.23 0.813,0.245 C0.803,0.26 0.792,0.274 0.782,0.288 C0.771,0.303 0.761,0.317 0.75,0.331 C0.761,0.317 0.771,0.303 0.782,0.288 C0.792,0.274 0.803,0.259 0.813,0.245 C0.823,0.231 0.834,0.216 0.843,0.201 C0.852,0.186 0.863,0.171 0.873,0.156" id="Shape" fill="#856C02" fill-rule="nonzero" mask="url(#mask-28)"></path>
                        </g>
                        <g id="Clipped" transform="translate(9.000000, 30.000000)">
                            <mask id="mask-30" fill="white">
                                <use xlink:href="#path-29"></use>
                            </mask>
                            <g id="SVGID_29_"></g>
                            <path d="M3.749,0.332 C3.583,0.534 3.383,0.722 3.149,0.895 C2.916,1.068 2.648,1.228 2.345,1.372 C2.043,1.517 1.706,1.647 1.335,1.763 C0.963,1.879 0.557,1.981 0.116,2.069 C0.557,1.981 0.964,1.879 1.335,1.763 C1.706,1.647 2.043,1.517 2.345,1.372 C2.647,1.228 2.915,1.069 3.149,0.895 C3.383,0.722 3.583,0.534 3.749,0.332" id="Shape" fill="#856C02" fill-rule="nonzero" mask="url(#mask-30)"></path>
                        </g>
                        <g id="Clipped" transform="translate(4.000000, 31.000000)">
                            <mask id="mask-32" fill="white">
                                <use xlink:href="#path-31"></use>
                            </mask>
                            <g id="SVGID_31_"></g>
                            <path d="M5.116,1.068 C4.676,1.155 4.25,1.214 3.84,1.244 C3.429,1.274 3.034,1.275 2.654,1.246 C2.273,1.218 1.908,1.161 1.558,1.074 C1.208,0.988 0.873,0.872 0.555,0.727 C0.873,0.872 1.208,0.987 1.558,1.074 C1.908,1.16 2.273,1.218 2.654,1.246 C3.034,1.274 3.429,1.273 3.84,1.244 C4.25,1.214 4.676,1.155 5.116,1.068" id="Shape" fill="#856C02" fill-rule="nonzero" mask="url(#mask-32)"></path>
                        </g>
                        <path d="M4.931,0.945 L12.567,23.934 C12.637,24.146 12.703,24.351 12.765,24.547 C12.827,24.743 12.884,24.933 12.936,25.115 C12.988,25.297 13.038,25.472 13.082,25.64 C13.126,25.808 13.166,25.969 13.203,26.124 C13.238,26.276 13.268,26.436 13.294,26.603 C13.319,26.77 13.339,26.944 13.354,27.125 C13.369,27.306 13.378,27.495 13.382,27.69 C13.386,27.886 13.384,28.088 13.377,28.298 C13.371,28.507 13.354,28.707 13.325,28.897 C13.296,29.086 13.256,29.266 13.203,29.436 C13.151,29.606 13.087,29.766 13.012,29.915 C12.937,30.064 12.849,30.204 12.75,30.332 C12.584,30.534 12.384,30.722 12.15,30.895 C11.917,31.068 11.649,31.228 11.346,31.372 C11.044,31.517 10.707,31.647 10.336,31.763 C9.964,31.879 9.558,31.981 9.117,32.069 C8.677,32.156 8.251,32.215 7.841,32.245 C7.43,32.275 7.035,32.276 6.655,32.247 C6.274,32.219 5.909,32.162 5.559,32.075 C5.209,31.989 4.874,31.873 4.556,31.728 L3.126,27.143 C3.336,27.127 3.532,27.11 3.714,27.093 C3.896,27.076 4.065,27.057 4.22,27.038 C4.375,27.019 4.517,27 4.646,26.981 C4.774,26.962 4.89,26.942 4.992,26.923 C5.096,26.903 5.193,26.885 5.283,26.866 C5.372,26.848 5.453,26.831 5.528,26.814 C5.602,26.797 5.668,26.781 5.727,26.765 C5.786,26.749 5.838,26.733 5.882,26.718 C6.259,26.631 6.563,26.473 6.793,26.246 C7.023,26.019 7.18,25.722 7.263,25.355 C7.346,24.988 7.357,24.551 7.294,24.044 C7.232,23.537 7.097,22.96 6.889,22.312 L0.07,1.635 L4.931,0.945 Z" id="Shape" fill="#FFD004" fill-rule="nonzero"></path>
                    </g>
                </g>
            </g>
        </g>
    </g>
</svg>