<?xml version="1.0" encoding="UTF-8"?>
<svg width="250px" height="300px" viewBox="0 0 250 300" version="1.1" xmlns="http://www.w3.org/2000/svg" xmlns:xlink="http://www.w3.org/1999/xlink">
    <!-- Generator: Sketch 50.2 (55047) - http://www.bohemiancoding.com/sketch -->
    <title>push.svg</title>
    <desc>Created with Sketch.</desc>
    <defs></defs>
    <g id="Page-1" stroke="none" stroke-width="1" fill="none" fill-rule="evenodd">
        <g id="push.svg" fill-rule="nonzero">
            <path d="M129.637,67.811 C80.523,67.811 40.706,107.626 40.706,156.742 C40.706,163.065 41.376,169.227 42.63,175.173 L60.617,160.81 L62.366,132.671 C61.295,132.392 60.299,131.796 59.557,130.867 C57.731,128.58 58.104,125.232 60.392,123.405 C62.679,121.579 66.026,121.956 67.852,124.243 C69.679,126.53 69.306,129.877 67.019,131.702 C66.118,132.422 65.053,132.787 63.981,132.841 L62.191,161.631 L43.035,176.929 C43.367,178.358 43.732,179.771 44.132,181.171 L72.466,158.545 L91.839,161.779 L104.688,151.517 L89.582,132.601 L93.608,113.553 C92.779,113.224 92.014,112.703 91.419,111.958 C89.592,109.671 89.966,106.324 92.254,104.497 C94.543,102.67 97.89,103.045 99.717,105.332 C101.543,107.62 101.168,110.967 98.88,112.795 C97.795,113.661 96.474,114.016 95.188,113.923 L91.331,132.189 L106.969,151.773 L92.284,163.5 L72.912,160.263 L44.61,182.863 C46.495,189.006 49.04,194.859 52.14,200.356 L115.017,150.145 L151.225,157.044 L166.7,144.686 L159.127,135.201 C156.894,136.476 154.006,135.991 152.352,133.92 C150.527,131.633 150.9,128.286 153.185,126.461 C155.473,124.635 158.821,125.01 160.647,127.298 C162.3,129.369 162.134,132.297 160.395,134.189 L168.98,144.942 L151.656,158.777 L115.447,151.877 L52.96,201.775 C53.588,202.844 54.242,203.897 54.914,204.937 L90.896,176.203 L111.476,185.566 L140.927,160.131 L153.549,163.504 L171.688,149.106 L184.132,145.803 C183.955,144.064 184.626,142.275 186.088,141.107 C188.374,139.28 191.722,139.656 193.548,141.944 C195.374,144.232 195.001,147.578 192.716,149.404 C190.426,151.233 187.078,150.856 185.252,148.569 C184.954,148.196 184.735,147.788 184.555,147.37 L172.271,150.63 L153.924,165.28 L141.34,161.918 L111.748,187.474 L91.132,178.09 L55.794,206.31 C57.045,208.17 58.381,209.966 59.766,211.724 L88.182,189.034 L110.328,195.318 L118.595,205.671 L140.142,188.462 L154.86,192.05 C155.193,191.247 155.702,190.509 156.424,189.93 C158.713,188.104 162.059,188.478 163.886,190.766 C165.712,193.053 165.339,196.401 163.051,198.228 C160.764,200.053 157.416,199.678 155.589,197.39 C154.705,196.283 154.348,194.93 154.462,193.62 L140.531,190.227 L118.339,207.95 L109.384,196.735 L88.542,190.822 L60.769,213 C64.29,217.305 68.21,221.269 72.467,224.846 L101.692,201.508 L113.361,216.122 L124.733,215.728 L140.337,203.265 L155.645,222.434 L152.957,231.07 C153.656,231.403 154.298,231.88 154.811,232.523 C156.638,234.811 156.262,238.159 153.975,239.984 C151.689,241.811 148.34,241.435 146.515,239.148 C144.689,236.86 145.062,233.512 147.347,231.688 C148.535,230.74 150.007,230.395 151.407,230.595 L153.841,222.774 L140.083,205.546 L125.325,217.33 L112.602,217.77 L101.437,203.788 L73.747,225.899 C75.805,227.563 77.93,229.145 80.133,230.625 L87.269,224.927 L117.304,227.521 L122.187,233.636 L134.421,223.868 C133.143,221.638 133.626,218.745 135.694,217.093 C137.984,215.265 141.332,215.64 143.158,217.928 C144.984,220.215 144.608,223.563 142.321,225.39 C140.251,227.043 137.326,226.874 135.431,225.135 L121.931,235.915 L116.47,229.077 L87.775,226.598 L81.575,231.548 C95.439,240.475 111.928,245.673 129.639,245.673 C178.755,245.673 218.572,205.858 218.572,156.74 C218.569,107.626 178.753,67.811 129.637,67.811 Z" id="BLUERADIAL" fill="#26A9E0"></path>
            <g id="prime-logo-2018" transform="translate(106.000000, 79.000000)" fill="#4A535A">
                <polygon id="chick-right" points="34.7391304 24.2748091 31.0608696 23.4656488 33.9217392 27.5114504 33.9217392 40.0534351 43.7304348 31.961832 43.7304348 18.2061069 39.2347826 19.8244275"></polygon>
                <polygon id="chick-left" transform="translate(9.195653, 29.129771) scale(-1, 1) translate(-9.195653, -29.129771) " points="6.53913107 24.2748091 2.8608702 23.4656488 5.72173976 27.5114504 5.72173976 40.0534351 15.5304354 31.961832 15.5304354 18.2061069 11.0347832 19.8244275"></polygon>
                <polygon id="mask" points="13.8956522 42.0877338 13.8956522 40.4697819 19.4758796 44.4458956 19.4703216 42.8232459 13.8956522 38.8510926 13.8956522 37.2331407 19.4758796 41.2092544 19.4703216 39.5866048 13.8956522 35.6144513 13.8956522 28.3206107 17.1652174 23.4656488 19.2086957 24.6793893 27.3826087 24.6793893 29.4260869 23.4656488 32.6956522 28.3206107 32.6956522 35.5297716 27.00214 39.5866048 26.996582 41.2092544 32.6956522 37.148461 32.6956522 38.7664129 27.00214 42.8232459 26.996582 44.4458956 32.6956522 40.3851021 32.6956522 42.003054 27.00214 46.0598872 26.996582 47.6825368 32.6956522 43.6217434 32.6956522 46.5267176 30.2434783 50.1679389 27.3826087 53 19.2086957 53 16.3478261 50.1679389 13.8956522 46.5267176 13.8956522 43.7064231 19.4758796 47.6825368 19.4703216 46.0598872"></polygon>
                <polygon id="bottom-chick-right" points="33.9217392 47.740458 39.2347826 42.480916 39.2347826 37.2213741 33.9217392 41.6717557"></polygon>
                <polygon id="bottom-chick-left" transform="translate(10.013043, 42.480916) scale(-1, 1) translate(-10.013043, -42.480916) " points="7.35652144 47.740458 12.6695649 42.480916 12.6695649 37.2213741 7.35652144 41.6717557"></polygon>
                <path d="M20.8434783,0 L22.4782608,0 L22.4782608,23.0610687 L20.0260869,23.0610687 L14.7130435,7.68702291 L17.9826087,0 L19.2086957,0 L19.2086957,9.3053435 L20.8434783,10.1145038 L20.8434783,0 Z M24.1130435,0 L25.7478261,0 L25.7478261,10.1145038 L27.3826087,9.3053435 L27.3826087,1.47360385e-13 L28.6086957,0 L31.8782608,7.68702291 L26.9739131,23.0610687 L24.1130435,23.0610687 L24.1130435,0 Z" id="head"></path>
                <polygon id="head-left" points="20.0260869 23.0610687 2.45217392 16.5877862 0 6.47328245 15.1217392 7.68702291 20.4347826 23.0610687"></polygon>
                <polygon id="head-right" transform="translate(36.782608, 14.767176) scale(-1, 1) translate(-36.782608, -14.767176) " points="46.5913036 23.0610687 29.0173906 16.5877862 26.5652167 6.47328245 42.0956515 7.68702291 46.9999993 23.0610687"></polygon>
                <polygon id="ear-right" points="32.6956522 6.47328245 41.2782608 5.66412214 35.5565217 0 29.8347826 0"></polygon>
                <polygon id="ear-left" transform="translate(11.034782, 3.236641) scale(-1, 1) translate(-11.034782, -3.236641) " points="8.17391287 6.47328245 16.7565215 5.66412214 11.0347824 0 5.31304327 0"></polygon>
            </g>
            <path d="M99.29,54.329 C96.859,56.022 93.514,55.42 91.824,52.986 L75.905,30.078 C74.213,27.645 74.816,24.301 77.246,22.61 L93.501,6.088 C95.934,4.399 99.277,5 100.967,7.432 L121.787,37.391 C123.477,39.825 122.876,43.166 120.442,44.856 L99.29,54.329 Z" id="Shape" fill="#404C51"></path>
            <path d="M84.463,54.341 C83.093,55.293 81.213,54.953 80.265,53.587 L71.312,40.706 C70.36,39.336 70.698,37.456 72.067,36.504 L72.397,33.338 C73.764,32.386 75.644,32.728 76.595,34.094 L88.303,50.94 C89.251,52.308 88.914,54.189 87.547,55.138 L84.463,54.341 Z" id="Shape" fill="#404C51"></path>
            <path d="M109.109,15.389 L121.12,7.038 C122.824,5.857 123.246,3.516 122.063,1.813 C120.878,0.109 118.539,-0.31 116.836,0.874 L104.825,9.219 L109.109,15.389 Z" id="Shape" fill="#CFD7D8"></path>
            <path d="M121.354,33.008 L133.367,24.661 C135.07,23.476 135.488,21.138 134.309,19.435 C133.122,17.731 130.781,17.31 129.08,18.494 L117.069,26.841 L121.354,33.008 Z" id="Shape" fill="#CFD7D8"></path>
            <path d="M155.21,246.828 C157.731,245.271 161.038,246.055 162.593,248.579 L177.231,272.328 C178.785,274.849 177.996,278.156 175.479,279.711 L158.341,295.315 C155.82,296.868 152.513,296.086 150.96,293.561 L131.816,262.506 C130.26,259.983 131.045,256.679 133.568,255.125 L155.21,246.828 Z" id="Shape" fill="#404C51"></path>
            <path d="M170.016,247.631 C171.436,246.758 173.293,247.198 174.164,248.613 L182.396,261.967 C183.271,263.391 182.833,265.248 181.412,266.124 L180.908,269.267 C179.493,270.141 177.634,269.697 176.759,268.282 L165.996,250.818 C165.124,249.401 165.562,247.54 166.981,246.669 L170.016,247.631 Z" id="Shape" fill="#404C51"></path>
            <path d="M143.267,285.171 L130.816,292.849 C129.048,293.934 128.5,296.249 129.588,298.013 C130.675,299.781 132.989,300.327 134.755,299.239 L147.205,291.567 L143.267,285.171 Z" id="Shape" fill="#CFD7D8"></path>
            <path d="M132.008,266.905 L119.555,274.579 C117.79,275.668 117.243,277.979 118.326,279.745 C119.417,281.513 121.73,282.059 123.496,280.973 L135.947,273.297 L132.008,266.905 Z" id="Shape" fill="#CFD7D8"></path>
            <polygon id="Shape" fill="#4A535A" opacity="0.5" points="118.11 129.4 112.427 123.094 112.427 118.792 118.11 122.504"></polygon>
            <g id="YELLOWCABLES" transform="translate(0.000000, 43.000000)" fill="#FFD004">
                <path d="M192.471,47.372 C199.364,45.152 206.508,43.639 213.898,43.127 C217.597,42.881 221.373,42.957 225.248,43.765 C227.18,44.185 229.143,44.837 231.037,45.911 C232.923,46.975 234.747,48.581 235.969,50.672 C237.192,52.756 237.739,55.157 237.799,57.377 C237.869,59.612 237.543,61.72 237.056,63.705 C236.038,67.672 234.403,71.21 232.605,74.575 C232.153,75.417 231.688,76.244 231.21,77.061 L230.467,78.293 L229.75,79.447 C228.729,81.064 227.718,82.591 226.655,84.13 C224.549,87.195 222.325,90.162 220.007,93.038 C215.396,98.812 210.471,104.279 205.361,109.533 C200.276,114.814 194.948,119.824 189.553,124.735 C184.138,129.63 178.578,134.34 172.961,138.966 C167.306,143.549 161.577,148.024 155.771,152.395 C149.939,156.73 144.058,160.991 138.081,165.124 C135.085,167.183 132.074,169.216 129.037,171.224 L124.444,174.222 C123.532,174.813 122.817,175.228 122.006,175.713 L119.644,177.109 C113.345,180.793 106.993,184.343 100.507,187.679 C94.038,191.045 87.455,194.21 80.728,197.129 C77.37,198.603 73.952,199.961 70.495,201.251 C67.035,202.537 63.525,203.736 59.918,204.735 C56.311,205.73 52.63,206.61 48.761,207.048 C46.825,207.261 44.842,207.377 42.784,207.27 C40.733,207.146 38.564,206.839 36.396,205.871 C35.319,205.388 34.251,204.723 33.325,203.853 C32.397,202.988 31.639,201.921 31.127,200.806 C30.1,198.551 29.968,196.278 30.129,194.244 C30.507,190.158 31.833,186.608 33.349,183.225 C36.429,176.486 40.382,170.392 44.64,164.542 C43.107,167.819 41.57,171.08 40.215,174.403 C38.825,177.704 37.549,181.046 36.568,184.418 C35.62,187.777 34.847,191.231 34.981,194.363 C35.054,195.911 35.384,197.329 36.006,198.296 C36.622,199.265 37.464,199.838 38.659,200.212 C41.077,200.957 44.432,200.643 47.632,199.949 C50.874,199.238 54.157,198.198 57.397,196.977 C63.885,194.524 70.274,191.506 76.569,188.289 C89.152,181.816 101.468,174.578 113.511,167.025 L115.753,165.599 C116.469,165.13 117.293,164.611 117.884,164.21 L122.276,161.214 C125.204,159.189 128.117,157.132 131.016,155.055 C136.827,150.912 142.602,146.715 148.292,142.412 C154.007,138.144 159.665,133.8 165.227,129.353 C170.828,124.949 176.321,120.422 181.729,115.817 C192.549,106.612 202.996,96.988 212.474,86.624 C217.167,81.405 221.664,76.035 225.445,70.322 C227.308,67.498 228.952,64.561 230.005,61.62 C231.077,58.688 231.438,55.775 230.463,53.609 C229.998,52.506 229.174,51.499 228.021,50.644 C226.873,49.789 225.448,49.102 223.917,48.561 C220.835,47.458 217.367,46.966 213.88,46.655 C210.377,46.369 206.806,46.363 203.234,46.52 C199.646,46.63 196.061,46.947 192.471,47.372 Z" id="Shape"></path>
                <path d="M76.813,12.637 C68.227,19.294 60.672,25.66 52.472,32.953 C44.276,40.278 36.296,47.861 28.991,55.978 C25.354,60.041 21.878,64.244 18.867,68.692 C17.371,70.917 15.992,73.208 14.884,75.575 C13.788,77.931 12.933,80.402 12.823,82.786 C12.692,85.167 13.501,87.359 15.402,88.886 C17.283,90.427 19.887,91.293 22.519,91.808 C27.856,92.806 33.483,92.635 39.012,92.204 C33.549,93.23 27.986,94.037 22.272,93.612 C19.437,93.355 16.478,92.805 13.799,91.095 C12.479,90.239 11.28,89.027 10.486,87.557 C9.68,86.092 9.289,84.448 9.183,82.862 C8.989,79.664 9.724,76.682 10.656,73.89 C11.611,71.093 12.837,68.453 14.174,65.9 C16.866,60.802 20.009,56.039 23.309,51.422 C29.94,42.211 37.234,33.589 44.766,25.212 C52.337,16.838 60.085,8.773 68.279,0.847 L76.813,12.637 Z" id="Shape"></path>
                <path d="M177.671,203.7 C186.609,197.524 194.502,191.582 203.091,184.752 C211.678,177.89 220.063,170.753 227.803,163.052 C231.658,159.194 235.359,155.19 238.611,150.911 C240.226,148.771 241.727,146.561 242.965,144.258 C244.189,141.966 245.177,139.547 245.418,137.17 C245.681,134.802 244.993,132.566 243.179,130.939 C241.387,129.298 238.834,128.289 236.234,127.632 C230.959,126.34 225.333,126.204 219.787,126.327 C225.297,125.604 230.897,125.103 236.58,125.842 C239.395,126.254 242.321,126.965 244.9,128.821 C246.172,129.749 247.299,131.023 248.013,132.534 C248.738,134.044 249.04,135.706 249.057,137.295 C249.076,140.499 248.177,143.436 247.094,146.175 C245.989,148.915 244.618,151.481 243.141,153.957 C240.174,158.899 236.774,163.482 233.228,167.909 C226.098,176.745 218.342,184.955 210.361,192.904 C202.342,200.849 194.161,208.474 185.546,215.94 L177.671,203.7 Z" id="Shape"></path>
                <path d="M222.236,109.286 C228.222,105.215 233.81,100.509 238.755,94.995 C241.224,92.226 243.484,89.201 245.23,85.648 C246.084,83.867 246.778,81.919 247.096,79.763 C247.415,77.622 247.269,75.195 246.371,72.947 C245.478,70.701 243.921,68.794 242.208,67.384 C240.487,65.953 238.624,64.915 236.759,64.08 C233.006,62.445 229.209,61.56 225.45,60.91 C224.51,60.749 223.571,60.606 222.632,60.483 L221.204,60.311 L219.851,60.168 C217.951,59.979 216.123,59.838 214.256,59.729 C210.541,59.508 206.837,59.439 203.143,59.499 C195.752,59.586 188.413,60.111 181.128,60.912 C173.837,61.679 166.611,62.802 159.421,64.036 C152.232,65.301 145.101,66.789 137.996,68.377 C130.906,70.02 123.855,71.788 116.839,73.681 C109.835,75.618 102.859,77.639 95.924,79.812 C92.46,80.91 89.007,82.035 85.554,83.196 L80.366,84.978 C79.338,85.332 78.573,85.643 77.691,85.982 L75.138,86.989 C68.36,89.694 61.656,92.522 55.037,95.586 C48.407,98.619 41.863,101.869 35.425,105.378 C32.199,107.122 29.027,108.984 25.884,110.915 C22.745,112.855 19.641,114.888 16.635,117.119 C13.632,119.351 10.677,121.716 7.952,124.497 C6.593,125.893 5.283,127.385 4.104,129.076 C2.941,130.768 1.85,132.67 1.281,134.973 C1,136.12 0.867,137.37 0.984,138.636 C1.097,139.902 1.473,141.153 2.037,142.243 C3.184,144.44 4.896,145.94 6.599,147.062 C10.056,149.276 13.67,150.412 17.27,151.295 C24.478,153.01 31.715,153.637 38.945,153.873 C35.419,153.066 31.903,152.276 28.447,151.304 C24.989,150.368 21.57,149.323 18.305,148.022 C15.075,146.709 11.875,145.195 9.485,143.164 C8.309,142.154 7.394,141.022 7.012,139.938 C6.627,138.856 6.693,137.838 7.132,136.667 C8.031,134.302 10.341,131.849 12.855,129.751 C15.408,127.631 18.247,125.679 21.201,123.875 C27.125,120.267 33.431,117.081 39.839,114.093 C52.679,108.147 65.96,102.881 79.319,98.024 L81.821,97.134 C82.63,96.855 83.548,96.525 84.227,96.306 L89.289,94.684 C92.685,93.619 96.099,92.583 99.519,91.576 C106.357,89.538 113.218,87.562 120.11,85.72 C126.988,83.835 133.892,82.043 140.819,80.387 C147.737,78.679 154.681,77.126 161.639,75.692 C175.549,72.816 189.563,70.492 203.565,69.384 C210.567,68.89 217.566,68.645 224.395,69.174 C227.77,69.439 231.097,69.949 234.063,70.926 C237.034,71.882 239.553,73.39 240.665,75.489 C241.248,76.533 241.536,77.803 241.501,79.238 C241.471,80.669 241.136,82.214 240.622,83.756 C239.596,86.864 237.852,89.903 235.953,92.845 C234.025,95.784 231.838,98.605 229.517,101.325 C227.231,104.083 224.777,106.715 222.236,109.286 Z" id="Shape"></path>
            </g>
        </g>
    </g>
</svg>